<?xml version="1.0" encoding="utf-8" standalone="no"?>
<!DOCTYPE svg PUBLIC "-//W3C//DTD SVG 1.1//EN"
  "http://www.w3.org/Graphics/SVG/1.1/DTD/svg11.dtd">
<svg xmlns:xlink="http://www.w3.org/1999/xlink" width="457.92pt" height="457.92pt" viewBox="0 0 457.92 457.92" xmlns="http://www.w3.org/2000/svg" version="1.1">
 <metadata>
  <rdf:RDF xmlns:dc="http://purl.org/dc/elements/1.1/" xmlns:cc="http://creativecommons.org/ns#" xmlns:rdf="http://www.w3.org/1999/02/22-rdf-syntax-ns#">
   <cc:Work>
    <dc:type rdf:resource="http://purl.org/dc/dcmitype/StillImage"/>
    <dc:date>2026-03-20T17:53:52.649028</dc:date>
    <dc:format>image/svg+xml</dc:format>
    <dc:creator>
     <cc:Agent>
      <dc:title>Matplotlib v3.10.8, https://matplotlib.org/</dc:title>
     </cc:Agent>
    </dc:creator>
   </cc:Work>
  </rdf:RDF>
 </metadata>
 <defs>
  <style type="text/css">*{stroke-linejoin: round; stroke-linecap: butt}</style>
 </defs>
 <g id="figure_1">
  <g id="patch_1">
   <path d="M 0 457.92 
L 457.92 457.92 
L 457.92 0 
L 0 0 
L 0 457.92 
z
" style="fill: none"/>
  </g>
  <g id="axes_1">
   <g id="patch_2">
    <path d="M 7.2 450.72 
L 7.2 450.72 
L 7.2 7.2 
L 450.72 7.2 
L 450.72 450.72 
L 7.2 450.72 
z
" style="fill: none"/>
   </g>
   <g id="FeatureArtist_1">
    <path d="M 302.391466 -1 
L 302.587641 0.77441 
L 303.192211 2.678355 
L 303.594656 4.607566 
L 303.08393 6.639645 
L 300.412992 12.851379 
L 299.745258 17.344148 
L 301.333383 22.524504 
L 301.586039 24.048563 
L 302.170758 25.430953 
L 303.16875 26.389242 
L 304.305703 27.213082 
L 305.646586 25.693535 
L 306.734813 24.037734 
L 308.497992 19.072137 
L 309.348 17.203383 
L 310.391109 15.429375 
L 311.728383 13.774477 
L 313.561945 12.729563 
L 314.628516 12.444422 
L 315.666211 12.54368 
L 316.691273 13.286309 
L 317.580984 14.21843 
L 318.205406 14.494547 
L 322.244297 14.728254 
L 326.577352 15.349969 
L 327.867703 16.879441 
L 328.203375 19.054992 
L 329.096695 21.577043 
L 329.336719 25.150324 
L 329.925047 24.395965 
L 330.273352 23.539641 
L 330.42675 22.453219 
L 330.758813 21.426352 
L 332.090672 19.014387 
L 332.054578 18.176109 
L 331.345336 15.052195 
L 330.334711 11.782102 
L 329.625469 11.043984 
L 328.46325 10.791328 
L 327.248695 10.759746 
L 325.382648 10.990746 
L 324.648141 10.082086 
L 323.009484 7.185563 
L 321.462867 3.08441 
L 320.257336 1.235508 
L 319.613063 0.51273 
L 318.84607 -0.040406 
L 317.678438 -0.490676 
L 316.900036 -1 
L 316.900036 -1 
" clip-path="url(#pac3a30c285)" style="fill: none; stroke: #000000; stroke-width: 0.8"/>
    <path d="M 362.275875 70.434445 
L 360.900703 68.877 
L 360.187852 66.991102 
L 360.655266 65.05377 
L 362.85157 61.232344 
L 364.824094 58.39357 
L 365.150742 57.441598 
L 365.148938 56.589785 
L 364.654453 56.469773 
L 360.196875 59.569324 
L 355.95225 62.973867 
L 354.59693 63.744469 
L 353.057531 63.970957 
L 350.866641 63.929449 
L 348.744328 63.572121 
L 341.713266 60.763125 
L 339.941063 60.484301 
L 338.906977 60.571828 
L 336.593367 60.477984 
L 335.387836 60.207281 
L 333.45682 58.549676 
L 330.820172 57.511078 
L 326.692852 55.310262 
L 322.747805 52.754824 
L 319.230469 50.256234 
L 315.891797 47.501379 
L 310.567969 41.85 
L 306.050836 38.14227 
L 303.183188 36.066879 
L 302.526281 35.224992 
L 301.728609 34.744043 
L 300.638578 35.228602 
L 299.729016 36.051539 
L 298.77975 36.418793 
L 296.744063 36.744539 
L 296.485992 37.201125 
L 296.458922 37.717266 
L 295.3725 39.429914 
L 295.173984 41.277914 
L 296.518477 43.213441 
L 297.687914 45.249129 
L 298.855547 49.401715 
L 298.462125 53.723039 
L 297.637383 55.780383 
L 296.61232 57.768246 
L 296.314547 62.280867 
L 295.500633 64.136988 
L 292.656445 67.285266 
L 291.748688 69.244254 
L 291.76132 71.649 
L 292.019391 74.069988 
L 291.313758 75.952277 
L 289.875422 77.430316 
L 288.927961 77.700117 
L 286.953633 77.794863 
L 283.546383 77.405953 
L 281.057719 77.322938 
L 280.346672 77.14698 
L 276.722859 75.359438 
L 274.918172 74.870367 
L 273.171234 75.51825 
L 272.929406 76.738219 
L 273.265078 78.027668 
L 274.909148 80.197805 
L 273.907547 81.968203 
L 271.992773 83.580691 
L 270.061758 84.899016 
L 268.038703 86.054918 
L 266.197922 86.945531 
L 265.006828 87.191871 
L 263.907773 87.602438 
L 263.335688 88.849477 
L 262.750969 91.318289 
L 262.610203 92.437195 
L 262.879102 94.461152 
L 263.981766 96.088078 
L 266.365758 97.760121 
L 266.970328 98.355668 
L 267.923203 101.208879 
L 267.475641 103.236445 
L 266.313422 105.222504 
L 265.833375 107.427832 
L 266.089641 108.445676 
L 266.596758 109.324559 
L 267.493688 110.058164 
L 268.666734 110.258484 
L 270.911766 109.653012 
L 273.034078 108.483574 
L 273.896719 107.594766 
L 274.95968 105.658336 
L 276.878063 103.877109 
L 278.114273 103.008152 
L 281.007188 104.027801 
L 282.690961 104.344523 
L 284.390977 104.452805 
L 285.854578 104.038629 
L 287.190047 103.202156 
L 286.39057 102.408094 
L 282.779391 100.010566 
L 279.480422 97.449715 
L 278.565445 97.317973 
L 276.596531 97.407305 
L 275.668922 97.164574 
L 273.618797 95.890465 
L 271.95668 94.178719 
L 271.745531 93.422555 
L 271.89893 92.650148 
L 272.398828 91.559215 
L 273.043102 90.597316 
L 274.799063 89.26275 
L 276.040688 89.075063 
L 277.318406 89.041676 
L 279.036469 89.33223 
L 280.474805 90.36 
L 283.447125 92.955141 
L 284.143734 93.277277 
L 291.914719 89.492848 
L 300.133266 88.899105 
L 304.504219 90.882457 
L 312.271594 94.832918 
L 319.629305 97.412719 
L 323.424563 99.189434 
L 325.730953 99.596391 
L 326.510578 98.900684 
L 327.156656 98.041652 
L 327.405703 96.809051 
L 327.497742 95.527723 
L 328.172695 93.591293 
L 329.297016 91.858793 
L 332.096086 88.535461 
L 335.443781 85.774289 
L 339.273328 83.311793 
L 343.485469 81.607266 
L 345.412875 81.407848 
L 349.379578 82.162207 
L 351.496477 82.100848 
L 354.755742 81.236402 
L 356.867227 81.102855 
L 358.852383 80.535281 
L 360.669703 79.477734 
L 362.571844 78.615996 
L 364.741078 77.854418 
L 365.80043 77.788547 
L 367.653844 77.900438 
L 368.251195 77.559352 
L 369.855563 75.736617 
L 371.728828 74.772914 
L 373.713984 73.987875 
L 372.203461 73.796578 
L 370.768734 73.933734 
L 369.099398 75.062566 
L 367.336219 75.950473 
L 366.379734 75.904453 
L 364.618359 75.529078 
L 363.364102 72.565781 
L 362.275875 70.434445 
L 362.275875 70.434445 
" clip-path="url(#pac3a30c285)" style="fill: none; stroke: #000000; stroke-width: 0.8"/>
    <path d="M 139.191234 241.850883 
L 136.910109 241.34918 
L 132.394781 242.723449 
L 130.212914 242.892187 
L 127.957055 242.135121 
L 125.865422 240.909738 
L 123.856805 241.434902 
L 122.479828 243.245004 
L 121.812094 246.848063 
L 121.02525 248.470477 
L 120.787031 250.419539 
L 119.747531 250.110937 
L 113.284945 246.478102 
L 108.399656 247.08177 
L 107.13818 247.373227 
L 105.564492 248.083371 
L 103.898766 248.400996 
L 102.379219 247.89027 
L 100.92825 247.058309 
L 99.533227 247.305551 
L 98.100305 247.888465 
L 97.553484 242.601633 
L 97.831406 241.904121 
L 98.710289 240.977414 
L 99.677602 240.185156 
L 102.043547 239.911746 
L 104.438367 240.168914 
L 106.149211 239.804367 
L 107.592961 238.757648 
L 109.117922 237.273293 
L 110.835984 236.065957 
L 113.165836 235.11218 
L 115.419891 234.017637 
L 117.397828 232.48275 
L 119.276508 230.808 
L 121.003594 229.579008 
L 122.876859 228.547629 
L 125.731875 226.071598 
L 129.519914 223.289672 
L 130.972688 221.229621 
L 131.876836 220.662047 
L 135.136102 219.511559 
L 139.460133 218.632676 
L 141.497625 218.675086 
L 143.51707 220.480676 
L 144.605297 220.233434 
L 145.706156 219.766922 
L 147.933141 219.508852 
L 150.223289 219.807527 
L 152.457492 219.814746 
L 154.6935 219.586453 
L 158.995875 218.994516 
L 161.258953 218.279859 
L 163.467891 217.355859 
L 171.343547 216.703465 
L 176.741367 215.154141 
L 177.594984 215.264227 
L 178.425141 215.621555 
L 178.4865 216.769336 
L 177.807938 218.021789 
L 178.468453 218.779758 
L 179.562094 219.248074 
L 184.642289 219.392449 
L 186.091453 219.66225 
L 188.211961 218.805023 
L 190.20975 217.74477 
L 192.299578 216.347039 
L 193.761375 214.774254 
L 192.411469 212.806242 
L 192.1155 210.654152 
L 193.247039 208.320691 
L 194.8875 206.35268 
L 196.838367 205.163391 
L 198.634031 203.794535 
L 202.272281 199.909945 
L 204.901711 196.767082 
L 205.847367 192.905051 
L 205.291523 188.333777 
L 207.587086 184.938258 
L 209.783391 184.355344 
L 214.150734 182.806922 
L 216.442688 182.352141 
L 216.785578 183.028898 
L 216.717 183.915902 
L 213.289898 186.767309 
L 211.326398 187.939453 
L 210.151547 188.303098 
L 209.075953 188.821945 
L 208.630195 189.825352 
L 210.377133 191.505516 
L 210.822891 192.746238 
L 210.714609 193.938234 
L 210.788602 195.008414 
L 212.766539 196.175145 
L 215.031422 196.561348 
L 215.980688 196.55052 
L 216.810844 196.243723 
L 219.979875 192.895125 
L 227.355633 190.806199 
L 230.984859 189.208148 
L 232.989867 188.795777 
L 234.872156 187.963816 
L 239.09332 184.753277 
L 240.654375 183.274336 
L 242.06925 181.639289 
L 243.200789 179.739855 
L 244.092305 177.683414 
L 245.315883 176.403891 
L 252.007664 173.352164 
L 254.164266 171.690047 
L 254.850047 170.885156 
L 255.678398 168.5535 
L 256.250484 166.131609 
L 257.064398 164.233078 
L 258.161648 162.452754 
L 259.632469 160.639043 
L 261.283758 158.95527 
L 262.260094 157.228184 
L 263.676773 153.100863 
L 264.299391 150.816129 
L 264.784852 149.992289 
L 265.497703 149.299289 
L 266.12032 148.423113 
L 266.594953 147.442266 
L 266.809711 146.470441 
L 267.116508 143.500828 
L 266.930625 141.193535 
L 265.822547 139.238156 
L 264.90757 138.683215 
L 263.909578 138.65073 
L 262.415297 138.819469 
L 261.142992 138.022699 
L 261.401063 137.318871 
L 262.698633 137.188031 
L 263.584734 136.824387 
L 264.219984 136.158457 
L 265.411078 134.028926 
L 266.125734 131.748703 
L 266.187094 130.740785 
L 265.255875 128.903613 
L 264.514148 126.693773 
L 264.494297 125.500875 
L 265.304602 124.127508 
L 266.461406 123.011309 
L 267.497297 122.748727 
L 268.619813 122.671125 
L 269.639461 122.239805 
L 270.583313 121.613578 
L 271.1175 120.924188 
L 271.949461 119.047313 
L 272.268891 117.975328 
L 271.745531 115.106777 
L 272.285133 114.322641 
L 273.052125 113.83357 
L 274.075383 114.205336 
L 275.123906 114.279328 
L 276.34568 114.165633 
L 277.518727 114.46882 
L 277.740703 115.20423 
L 278.475211 120.052523 
L 278.901117 120.707625 
L 279.754734 121.215645 
L 280.718438 121.141652 
L 281.550398 120.387293 
L 282.111656 119.382082 
L 283.21793 119.174543 
L 286.590891 120.255551 
L 287.785594 119.484047 
L 288.565219 118.292953 
L 289.243781 116.182371 
L 288.913523 114.28023 
L 288.103219 113.578207 
L 287.265844 113.705438 
L 286.525922 114.226992 
L 285.70118 114.512133 
L 280.714828 115.514637 
L 280.738289 113.392324 
L 281.804859 110.217879 
L 282.394992 109.21357 
L 283.234172 108.737133 
L 286.356281 109.655719 
L 288.637406 111.193313 
L 289.3665 111.541617 
L 292.817063 110.600473 
L 292.160156 113.438344 
L 291.792 116.299676 
L 292.044656 121.048711 
L 292.355063 123.19268 
L 292.952414 125.266266 
L 294.42143 126.752426 
L 296.343422 127.807266 
L 299.129859 131.179324 
L 300.624141 135.317473 
L 301.679883 137.326992 
L 302.470336 139.434867 
L 302.710359 140.399473 
L 302.730211 141.366785 
L 302.493797 142.688719 
L 302.753672 143.757094 
L 302.454094 147.115617 
L 301.207055 150.998402 
L 301.046438 152.982656 
L 299.96182 153.376078 
L 299.304914 154.292859 
L 298.743656 154.717863 
L 298.121039 155.047219 
L 297.216891 155.129332 
L 296.570813 155.504707 
L 296.314547 156.55684 
L 295.899469 157.532273 
L 295.112625 158.431008 
L 294.495422 159.422684 
L 293.9865 161.840063 
L 293.802422 164.319703 
L 293.039039 166.051301 
L 291.203672 166.502473 
L 289.099406 166.471793 
L 286.403203 167.274879 
L 285.829313 167.744098 
L 283.699781 170.768754 
L 283.087992 172.542762 
L 283.068141 174.451219 
L 283.660078 176.798215 
L 284.463164 179.092875 
L 285.071344 183.365473 
L 284.43068 189.881297 
L 283.815281 191.962102 
L 282.461766 193.372465 
L 281.436703 194.026664 
L 280.552406 194.82975 
L 279.408234 196.95477 
L 277.513313 201.188566 
L 277.356305 202.250625 
L 277.363523 203.354191 
L 276.852797 204.791625 
L 276.51893 206.204695 
L 276.831141 207.847863 
L 277.414055 209.385457 
L 279.956859 213.331406 
L 280.953047 214.499039 
L 282.071953 215.562902 
L 277.733484 216.739559 
L 276.95025 217.280062 
L 274.373156 219.530508 
L 273.550219 221.664551 
L 273.616992 224.025984 
L 273.182063 224.873285 
L 272.474625 225.606891 
L 271.736508 226.095059 
L 268.856227 227.176969 
L 267.013641 228.252563 
L 265.176469 229.933629 
L 264.44918 230.815219 
L 263.036109 230.532785 
L 262.209563 229.755867 
L 263.023477 228.777727 
L 262.772625 227.626336 
L 263.17507 224.666648 
L 262.71307 223.477359 
L 264.185695 222.579527 
L 264.887719 221.142996 
L 266.421703 219.99341 
L 267.515344 218.972859 
L 267.71025 218.146313 
L 266.726695 217.255699 
L 265.689 216.611426 
L 264.252469 216.608719 
L 262.866469 216.799113 
L 261.971344 217.648219 
L 261.671766 218.804121 
L 261.742148 219.343723 
L 261.628453 219.815648 
L 259.452 221.399262 
L 259.738945 223.055965 
L 260.376 223.896949 
L 261.189914 224.295785 
L 260.946281 224.866066 
L 259.914 226.201535 
L 259.192125 226.333277 
L 257.863875 224.464523 
L 256.207172 223.44307 
L 254.157047 223.451191 
L 252.049172 223.822055 
L 250.446609 225.065484 
L 249.917836 226.097766 
L 249.580359 227.165238 
L 249.694055 229.763988 
L 249.02993 231.93232 
L 247.72875 233.83807 
L 247.118766 234.533777 
L 245.530641 235.826836 
L 244.437 235.996477 
L 243.653766 235.409051 
L 243.02393 234.518438 
L 243.827016 231.256465 
L 243.794531 229.425609 
L 245.658773 228.493488 
L 244.130203 227.191406 
L 242.258742 226.667145 
L 239.625703 227.361949 
L 238.883977 228.144281 
L 238.376859 229.197316 
L 236.963789 230.527371 
L 235.402734 231.77441 
L 233.639555 233.900332 
L 232.453875 236.419676 
L 228.571992 235.595836 
L 226.451484 235.411758 
L 224.31293 235.475824 
L 220.521281 235.165418 
L 216.357867 235.679754 
L 211.620563 236.669625 
L 211.903898 235.955871 
L 215.798414 234.439031 
L 215.93918 233.994176 
L 215.565609 233.16402 
L 214.594688 233.123414 
L 212.264836 233.413066 
L 211.075547 233.285836 
L 210.590086 232.395223 
L 209.801438 232.010824 
L 209.274469 232.375371 
L 209.447719 234.106066 
L 208.870219 234.337066 
L 208.101422 233.892211 
L 208.346859 232.547719 
L 207.821695 230.577 
L 207.762141 229.353422 
L 208.577859 228.303094 
L 207.742289 227.860043 
L 206.861602 228.030586 
L 205.740891 228.534996 
L 204.751922 229.253262 
L 202.662094 232.849102 
L 201.849984 234.903738 
L 203.380359 236.554125 
L 207.552797 238.861418 
L 208.267453 239.427187 
L 208.283695 240.408937 
L 207.776578 241.451145 
L 206.639625 241.909535 
L 202.061133 242.67743 
L 198.096234 244.171711 
L 196.950258 245.686746 
L 193.340883 251.538445 
L 190.451578 255.539438 
L 186.369375 256.920926 
L 181.888336 255.693738 
L 180.805523 254.30052 
L 179.928445 252.577945 
L 178.262719 251.0205 
L 176.761219 249.324094 
L 175.884141 247.310965 
L 176.021297 244.065234 
L 175.369805 242.110758 
L 175.958133 241.590105 
L 178.42875 240.402621 
L 179.235445 239.737594 
L 180.630469 238.191879 
L 181.130367 237.331945 
L 181.206164 236.028961 
L 180.083648 235.348594 
L 177.183516 235.373859 
L 174.290602 235.779012 
L 172.224234 235.209633 
L 169.546078 233.634141 
L 168.715922 233.298469 
L 165.828422 233.199211 
L 163.767469 233.49157 
L 161.742609 234.066363 
L 159.60225 234.247734 
L 158.889398 234.547313 
L 156.416977 236.47923 
L 154.453477 237.69559 
L 152.755266 238.299258 
L 149.088141 238.460777 
L 147.252773 238.852395 
L 145.327172 239.491254 
L 144.789375 239.435309 
L 142.762711 240.318703 
L 140.436469 241.082988 
L 139.191234 241.850883 
L 139.191234 241.850883 
" clip-path="url(#pac3a30c285)" style="fill: none; stroke: #000000; stroke-width: 0.8"/>
    <path d="M 167.889375 248.775469 
L 167.151258 247.761234 
L 166.779492 246.627891 
L 166.821 243.252223 
L 164.200594 243.471492 
L 161.645156 242.702695 
L 159.091523 241.544086 
L 156.442242 240.816797 
L 154.08532 241.008094 
L 151.816828 241.769672 
L 149.6115 243.053707 
L 148.674867 243.136723 
L 147.696727 242.933695 
L 148.451086 244.951336 
L 148.142484 246.15777 
L 147.315938 247.123277 
L 145.283859 247.942605 
L 143.024391 247.864102 
L 142.082344 248.012988 
L 140.127867 248.674406 
L 139.030617 248.78359 
L 137.507461 247.493238 
L 136.377727 245.81127 
L 135.361688 245.678625 
L 133.593094 247.04748 
L 132.573445 247.579863 
L 131.983313 249.174305 
L 131.315578 250.170492 
L 130.996148 251.303836 
L 129.963867 253.169883 
L 127.98593 254.22382 
L 124.842164 256.449902 
L 123.400219 257.243063 
L 120.195094 258.62816 
L 118.682766 259.63698 
L 119.66632 259.634273 
L 123.273891 258.217594 
L 125.008195 257.898164 
L 125.708414 257.964938 
L 125.567648 259.7985 
L 126.31118 260.29118 
L 127.531148 260.504133 
L 127.597922 261.200742 
L 127.417453 262.015559 
L 126.897703 262.572305 
L 126.872438 263.58293 
L 125.986336 264.82275 
L 127.182844 265.778332 
L 127.229766 267.461203 
L 129.204094 267.407063 
L 131.182031 267.72198 
L 129.940406 270.309902 
L 130.871625 270.060855 
L 132.943406 270.503004 
L 134.156156 270.45518 
L 136.139508 268.839984 
L 136.855969 266.217773 
L 137.505656 265.689902 
L 138.424242 265.398445 
L 139.250789 264.383309 
L 140.994117 261.307219 
L 141.844125 259.267922 
L 148.239938 256.476973 
L 149.230711 256.378617 
L 152.341992 256.815352 
L 154.276617 257.63468 
L 157.333758 260.620535 
L 158.396719 261.351434 
L 158.840672 259.507945 
L 159.524648 257.798906 
L 160.704914 256.184613 
L 162.007898 254.676797 
L 165.180539 252.442594 
L 168.694266 250.757016 
L 167.510391 250.252605 
L 167.889375 248.775469 
" clip-path="url(#pac3a30c285)" style="fill: none; stroke: #000000; stroke-width: 0.8"/>
    <path d="M 117.64868 268.803891 
L 118.119703 268.093746 
L 118.238813 267.416086 
L 116.425102 266.406363 
L 116.919586 265.732313 
L 117.143367 265.050141 
L 116.282531 264.297586 
L 115.268297 263.738133 
L 115.394625 262.563281 
L 116.168836 261.21518 
L 112.85182 261.261199 
L 109.531195 260.855145 
L 110.974945 258.678691 
L 112.732711 256.636688 
L 112.983563 255.685617 
L 112.467422 254.779664 
L 111.483867 254.133586 
L 110.373984 253.863785 
L 108.818344 254.396168 
L 107.3385 255.119848 
L 106.363969 255.369797 
L 105.313641 255.335508 
L 102.826781 254.784176 
L 100.673789 253.485703 
L 99.767836 251.58266 
L 98.73375 249.805043 
L 96.636703 248.959547 
L 94.34475 248.774566 
L 93.492938 249.001957 
L 90.060422 250.496238 
L 89.569547 251.33993 
L 89.241094 252.351457 
L 87.865922 254.194945 
L 86.203805 254.87441 
L 84.224063 254.863582 
L 83.532867 255.235348 
L 83.031164 255.946395 
L 82.451859 256.277555 
L 79.625719 256.984992 
L 77.898633 257.844023 
L 78.100758 258.457617 
L 78.486961 258.985488 
L 78.239719 259.973555 
L 74.836078 259.17498 
L 73.915688 259.569305 
L 73.359844 261.553559 
L 74.929922 262.471242 
L 77.400539 264.375188 
L 79.212445 265.506727 
L 79.67625 266.141977 
L 80.966602 268.663125 
L 79.286438 268.656809 
L 77.947359 267.903352 
L 77.012531 266.187094 
L 75.189797 264.811922 
L 74.879391 266.013844 
L 74.980453 267.224789 
L 75.391922 268.225488 
L 77.164125 269.955281 
L 77.918484 270.995684 
L 77.573789 272.475527 
L 76.842891 273.847992 
L 78.394922 272.910457 
L 80.210438 271.062457 
L 82.119797 270.155602 
L 83.929898 270.579703 
L 84.686063 271.347598 
L 85.656984 271.886297 
L 86.620688 271.926 
L 87.411141 271.429711 
L 87.78832 270.431719 
L 87.652969 269.424703 
L 87.15307 268.643273 
L 86.295844 268.380691 
L 85.225664 268.750652 
L 84.354 268.667637 
L 84.220453 267.180574 
L 84.319711 265.679977 
L 83.464289 263.982668 
L 84.388289 263.249063 
L 85.509 262.637273 
L 86.429391 263.05957 
L 88.174523 264.209156 
L 89.259141 266.818734 
L 91.233469 269.032184 
L 91.643133 270.833262 
L 90.320297 272.259867 
L 91.529438 272.824734 
L 92.956945 272.956477 
L 91.475297 275.972109 
L 89.657977 278.764863 
L 88.418156 280.352988 
L 87.017719 281.748012 
L 85.075875 282.274078 
L 84.713133 282.722543 
L 84.738398 285.326707 
L 85.018125 287.190949 
L 84.592219 288.671695 
L 85.263563 289.388156 
L 86.090109 290.011676 
L 87.070055 291.76493 
L 86.786719 293.865586 
L 86.555719 294.551367 
L 85.934906 294.812145 
L 83.841469 295.330992 
L 84.828633 297.485789 
L 85.750828 297.831387 
L 86.860711 297.947789 
L 92.000461 299.581031 
L 92.605031 298.860059 
L 93.030938 297.936961 
L 91.578164 296.367785 
L 91.107141 295.431152 
L 90.87975 294.385336 
L 91.395891 292.474172 
L 92.457047 290.582859 
L 93.225844 289.603816 
L 94.324898 289.617352 
L 95.465461 289.827598 
L 95.84625 290.474578 
L 95.835422 291.347145 
L 95.53043 291.716203 
L 94.969172 291.825387 
L 94.133602 292.208883 
L 94.222031 293.158148 
L 95.427563 295.798406 
L 95.714508 297.907184 
L 95.135203 300.000621 
L 94.716516 300.624141 
L 94.139016 301.141184 
L 93.763641 301.784555 
L 93.792516 302.600273 
L 97.793508 300.809121 
L 101.419125 298.146305 
L 100.249688 295.900371 
L 100.908398 294.80673 
L 102.182508 294.714691 
L 104.214586 295.310238 
L 105.831586 295.401375 
L 108.100078 290.483602 
L 108.383414 288.494836 
L 108.105492 286.552992 
L 108.944672 284.363906 
L 109.415695 282.242496 
L 110.034703 280.278094 
L 110.879297 278.384977 
L 111.803297 275.79525 
L 113.129742 273.444645 
L 117.64868 268.803891 
L 117.64868 268.803891 
" clip-path="url(#pac3a30c285)" style="fill: none; stroke: #000000; stroke-width: 0.8"/>
    <path d="M 20.136 240.123797 
L 19.246289 240.226664 
L 19.139813 240.951246 
L 19.933875 241.79584 
L 21.428156 241.961871 
L 21.115945 241.082988 
L 20.136 240.123797 
" clip-path="url(#pac3a30c285)" style="fill: none; stroke: #000000; stroke-width: 0.8"/>
    <path d="M 158.405742 237.844477 
L 158.519438 238.267676 
L 159.439828 238.809082 
L 159.694289 239.622094 
L 160.867336 238.773891 
L 161.197594 238.869539 
L 161.542289 238.502285 
L 161.919469 237.786727 
L 161.064047 237.56475 
L 158.405742 237.844477 
" clip-path="url(#pac3a30c285)" style="fill: none; stroke: #000000; stroke-width: 0.8"/>
    <path d="M 450.023391 25.274848 
L 446.955422 27.970148 
L 444.546164 28.64059 
L 440.501859 33.194719 
L 442.198266 33.231715 
L 444.948609 32.295082 
L 448.565203 29.687309 
L 449.871797 28.960922 
L 451.766719 28.46373 
L 454.323961 26.914406 
L 455.054859 25.452609 
L 458.92 23.071555 
M 458.92 21.777815 
L 457.162734 21.735855 
L 456.426422 21.977684 
L 450.023391 25.274848 
" clip-path="url(#pac3a30c285)" style="fill: none; stroke: #000000; stroke-width: 0.8"/>
    <path d="M 428.769586 34.73502 
L 428.038688 34.43093 
L 426.818719 34.538309 
L 425.075391 35.203336 
L 419.751563 38.940844 
L 416.163844 39.388406 
L 414.795891 39.316219 
L 413.104898 37.179469 
L 412.355953 37.076602 
L 411.406688 38.610586 
L 411.644906 39.99027 
L 409.499133 40.635445 
L 407.43818 42.441035 
L 405.588375 43.005902 
L 403.235063 45.17243 
L 399.836836 46.820109 
L 398.14043 48.480422 
L 397.884164 50.38166 
L 394.803563 52.185445 
L 394.051008 53.158172 
L 393.385078 55.168594 
L 397.099125 52.8225 
L 399.113156 52.410129 
L 401.011688 50.117273 
L 405.685828 47.199094 
L 406.544859 46.256145 
L 406.77225 45.181453 
L 407.436375 44.582297 
L 409.769836 44.925187 
L 412.166461 44.337762 
L 413.857453 42.863332 
L 418.607391 40.152691 
L 421.422703 39.592336 
L 424.838977 38.290254 
L 428.372555 38.172949 
L 429.229781 37.457391 
L 428.599945 36.518051 
L 429.013219 35.734816 
L 429.027656 35.177168 
L 428.769586 34.73502 
" clip-path="url(#pac3a30c285)" style="fill: none; stroke: #000000; stroke-width: 0.8"/>
    <path d="M 388.294055 66.095977 
L 388.137047 66.391043 
L 388.046813 67.435957 
L 389.421984 67.881715 
L 389.99407 67.374598 
L 393.413953 66.259301 
L 393.137836 65.797301 
L 392.038781 65.217996 
L 388.294055 66.095977 
" clip-path="url(#pac3a30c285)" style="fill: none; stroke: #000000; stroke-width: 0.8"/>
    <path d="M 383.378086 54.793219 
L 380.636766 53.443313 
L 378.871781 53.397293 
L 375.699141 57.601313 
L 374.771531 58.046168 
L 374.064094 59.073035 
L 372.61132 60.256008 
L 372.14932 61.318066 
L 370.633383 62.657145 
L 366.852563 65.025797 
L 366.195656 66.144703 
L 366.437484 67.499121 
L 368.592281 68.838199 
L 369.164367 65.502234 
L 372.494016 63.735445 
L 374.717391 61.757508 
L 375.211875 60.723422 
L 378.875391 58.094895 
L 379.996102 57.675305 
L 382.273617 57.447914 
L 384.866953 55.697367 
L 386.339578 55.716316 
L 387.292453 54.500859 
L 383.378086 54.793219 
" clip-path="url(#pac3a30c285)" style="fill: none; stroke: #000000; stroke-width: 0.8"/>
    <path d="M 48.870234 378.98277 
L 48.160992 380.55375 
L 46.406836 382.132852 
L 45.964688 382.939547 
L 45.024445 383.391621 
L 44.708625 383.32575 
L 44.055328 382.723887 
L 42.445547 382.462207 
L 42.216352 382.806902 
L 42.142359 383.618109 
L 43.152984 384.303891 
L 42.792047 385.010426 
L 40.84118 386.667129 
L 40.388203 386.99107 
L 39.150188 387.260871 
L 39.115898 389.58982 
L 37.782234 391.59934 
L 37.686586 392.424984 
L 37.74975 393.529453 
L 39.159211 393.484336 
L 40.530773 392.461078 
L 40.583109 392.11548 
L 40.196906 391.423383 
L 40.281727 390.566156 
L 41.364539 389.385891 
L 42.40043 389.21625 
L 41.743523 388.247133 
L 41.70382 387.102961 
L 43.259461 386.843988 
L 44.860219 385.419188 
L 46.506094 385.074492 
L 47.163 384.063867 
L 48.942422 383.216566 
L 49.906125 381.961406 
L 50.288719 380.272219 
L 48.870234 378.98277 
" clip-path="url(#pac3a30c285)" style="fill: none; stroke: #000000; stroke-width: 0.8"/>
    <path d="M 61.74668 359.978508 
L 60.932766 360.204996 
L 60.474375 361.231863 
L 60.792 363.350566 
L 61.8315 363.81798 
L 62.605711 363.479602 
L 62.943188 362.56643 
L 62.450508 361.810266 
L 61.74668 359.978508 
" clip-path="url(#pac3a30c285)" style="fill: none; stroke: #000000; stroke-width: 0.8"/>
    <path d="M 73.691906 349.525758 
L 73.305703 349.795559 
L 72.998906 350.354109 
L 72.058664 350.97402 
L 71.224898 351.015527 
L 68.599078 351.674238 
L 67.276242 352.525148 
L 67.220297 353.099039 
L 66.65182 353.460879 
L 65.682703 353.704512 
L 67.720195 354.607758 
L 69.411188 355.959469 
L 71.002922 354.457969 
L 70.753875 353.61157 
L 71.080523 353.287629 
L 72.114609 352.799461 
L 73.258781 351.645363 
L 74.498602 350.719559 
L 75.769102 350.334258 
L 75.846703 349.641258 
L 75.382898 348.756961 
L 73.691906 349.525758 
" clip-path="url(#pac3a30c285)" style="fill: none; stroke: #000000; stroke-width: 0.8"/>
    <path d="M 67.397156 355.064344 
L 66.197039 354.762961 
L 66.935156 356.451246 
L 68.748867 356.812184 
L 68.627953 356.380863 
L 67.765313 355.645453 
L 67.397156 355.064344 
" clip-path="url(#pac3a30c285)" style="fill: none; stroke: #000000; stroke-width: 0.8"/>
    <path d="M 90.307664 312.757055 
L 88.291828 314.186367 
L 89.354789 316.468395 
L 90.511594 316.898813 
L 92.628492 316.499977 
L 93.561516 314.579789 
L 93.012891 314.17193 
L 90.307664 312.757055 
" clip-path="url(#pac3a30c285)" style="fill: none; stroke: #000000; stroke-width: 0.8"/>
    <path d="M 98.627273 308.956383 
L 98.490117 310.732195 
L 97.203375 313.150477 
L 97.237664 314.220656 
L 98.856469 314.024848 
L 99.462844 311.565961 
L 100.661156 309.486961 
L 101.126766 306.744738 
L 100.715297 306.049934 
L 100.336313 306.226793 
L 99.825586 306.71857 
L 98.627273 308.956383 
" clip-path="url(#pac3a30c285)" style="fill: none; stroke: #000000; stroke-width: 0.8"/>
    <path d="M 59.656852 270.301781 
L 59.055891 270.059953 
L 58.22393 270.126727 
L 57.171797 270.41277 
L 56.455336 269.913773 
L 56.155758 272.166023 
L 56.307352 272.786836 
L 56.966063 273.224473 
L 58.029023 273.568266 
L 58.767141 272.633438 
L 59.337422 272.455676 
L 60.690938 272.348297 
L 60.411211 271.587621 
L 59.656852 270.301781 
" clip-path="url(#pac3a30c285)" style="fill: none; stroke: #000000; stroke-width: 0.8"/>
    <path d="M 81.300469 274.760262 
L 81.513422 275.735695 
L 80.737406 278.002383 
L 81.403336 278.603344 
L 81.43943 279.006691 
L 80.383688 279.8955 
L 80.997281 280.183348 
L 81.184969 280.814988 
L 82.644961 280.155375 
L 84.806977 278.106152 
L 84.754641 275.315203 
L 84.220453 274.398422 
L 81.300469 274.760262 
" clip-path="url(#pac3a30c285)" style="fill: none; stroke: #000000; stroke-width: 0.8"/>
    <path d="M 85.586602 275.847586 
L 85.851891 276.435012 
L 86.526844 276.650672 
L 88.161891 276.569461 
L 88.854891 275.94143 
L 89.647148 274.869445 
L 87.873141 274.657395 
L 85.586602 275.847586 
" clip-path="url(#pac3a30c285)" style="fill: none; stroke: #000000; stroke-width: 0.8"/>
    <path d="M 140.369695 205.057816 
L 140.070117 206.181234 
L 140.981484 207.17652 
L 142.560586 207.403008 
L 143.406984 206.712715 
L 143.6055 205.926773 
L 142.024594 204.194273 
L 140.369695 205.057816 
" clip-path="url(#pac3a30c285)" style="fill: none; stroke: #000000; stroke-width: 0.8"/>
    <path d="M 238.385883 168.733969 
L 238.266773 167.681836 
L 237.485344 168.13391 
L 234.621305 170.542266 
L 233.58 172.069934 
L 233.509617 173.62016 
L 234.904641 173.689641 
L 234.915469 174.083063 
L 234.280219 175.445602 
L 234.186375 176.214398 
L 233.121609 176.672789 
L 233.561953 176.85416 
L 235.317914 176.807238 
L 238.144055 175.295813 
L 239.589609 172.309055 
L 237.342773 172.121367 
L 237.512414 171.222633 
L 238.385883 168.733969 
" clip-path="url(#pac3a30c285)" style="fill: none; stroke: #000000; stroke-width: 0.8"/>
    <path d="M 255.411305 95.912121 
L 255.044953 96.649336 
L 255.470859 98.046164 
L 255.911203 98.20227 
L 256.3335 98.103012 
L 256.773844 97.818773 
L 257.759203 95.25341 
L 256.602398 95.396883 
L 255.411305 95.912121 
" clip-path="url(#pac3a30c285)" style="fill: none; stroke: #000000; stroke-width: 0.8"/>
    <path d="M 283.876641 35.557957 
L 284.069742 37.437539 
L 285.028031 39.182672 
L 285.744492 38.008723 
L 285.692156 36.768 
L 285.448523 35.852121 
L 284.43068 35.569687 
L 283.876641 35.557957 
" clip-path="url(#pac3a30c285)" style="fill: none; stroke: #000000; stroke-width: 0.8"/>
    <path d="M 289.054289 39.863941 
L 287.9805 39.579703 
L 286.901297 40.349402 
L 287.085375 41.315812 
L 288.576047 42.086414 
L 289.85918 41.954672 
L 290.483602 41.378977 
L 290.129883 40.860129 
L 289.054289 39.863941 
" clip-path="url(#pac3a30c285)" style="fill: none; stroke: #000000; stroke-width: 0.8"/>
    <path d="M 261.774633 264.474445 
L 262.664344 265.079918 
L 262.983773 264.884109 
L 263.584734 264.192012 
L 262.388227 263.531496 
L 261.807117 263.607293 
L 261.650109 263.939355 
L 261.774633 264.474445 
" clip-path="url(#pac3a30c285)" style="fill: none; stroke: #000000; stroke-width: 0.8"/>
    <path d="M 254.277961 233.109879 
L 254.220211 234.125016 
L 254.691234 234.690785 
L 255.676594 234.882082 
L 255.875109 234.014027 
L 255.315656 233.101758 
L 254.277961 233.109879 
" clip-path="url(#pac3a30c285)" style="fill: none; stroke: #000000; stroke-width: 0.8"/>
    <path d="M 170.457445 238.705312 
L 169.033547 240.636328 
L 167.382258 242.004281 
L 167.671008 242.875945 
L 168.542672 243.579773 
L 170.275172 243.689859 
L 172.278375 242.11527 
L 171.773063 240.079582 
L 173.606625 237.386086 
L 172.794516 237.369844 
L 171.747797 237.847184 
L 170.457445 238.705312 
" clip-path="url(#pac3a30c285)" style="fill: none; stroke: #000000; stroke-width: 0.8"/>
    <path d="M 64.924734 264.669352 
L 64.668469 263.470137 
L 63.286078 266.491184 
L 62.589469 266.809711 
L 63.002742 267.405258 
L 63.600094 269.070984 
L 64.062094 268.871566 
L 64.702758 267.234715 
L 65.476969 266.914383 
L 66.002133 266.04723 
L 65.462531 265.858641 
L 64.924734 264.669352 
" clip-path="url(#pac3a30c285)" style="fill: none; stroke: #000000; stroke-width: 0.8"/>
    <path d="M 71.176172 259.7985 
L 70.459711 261.163746 
L 70.346016 261.649207 
L 69.48518 262.667051 
L 70.427227 262.67066 
L 71.728406 261.798094 
L 72.029789 260.665652 
L 73.172156 259.24807 
L 72.582023 259.308527 
L 71.176172 259.7985 
" clip-path="url(#pac3a30c285)" style="fill: none; stroke: #000000; stroke-width: 0.8"/>
    <path d="M 75.89543 250.056797 
L 75.576 250.601813 
L 75.110391 252.250395 
L 76.066875 252.848648 
L 77.344594 252.081656 
L 76.987266 250.596398 
L 75.89543 250.056797 
" clip-path="url(#pac3a30c285)" style="fill: none; stroke: #000000; stroke-width: 0.8"/>
    <path d="M 66.610313 241.514309 
L 66.085148 244.760039 
L 66.603094 245.909625 
L 67.805016 245.159777 
L 68.831883 243.174621 
L 68.869781 242.177531 
L 66.610313 241.514309 
" clip-path="url(#pac3a30c285)" style="fill: none; stroke: #000000; stroke-width: 0.8"/>
    <path d="M 70.975852 234.752145 
L 68.662242 236.217551 
L 68.591859 236.734594 
L 68.727211 237.79575 
L 67.568602 240.593918 
L 68.137078 241.164199 
L 69.391336 241.794035 
L 69.766711 240.904324 
L 69.689109 239.74391 
L 71.425219 237.452859 
L 71.309719 236.065055 
L 71.513648 235.437926 
L 71.371078 235.033676 
L 70.975852 234.752145 
" clip-path="url(#pac3a30c285)" style="fill: none; stroke: #000000; stroke-width: 0.8"/>
    <path d="M 128.769164 245.311371 
L 128.431688 245.094809 
L 128.123086 244.249313 
L 127.75493 244.408125 
L 127.251422 245.185945 
L 126.598125 245.827512 
L 128.233172 246.052195 
L 128.769164 245.311371 
" clip-path="url(#pac3a30c285)" style="fill: none; stroke: #000000; stroke-width: 0.8"/>
    <path d="M 124.732078 250.267043 
L 125.67593 249.658863 
L 126.302156 249.044367 
L 126.035063 248.85307 
L 123.892898 249.129188 
L 122.995969 248.453332 
L 121.923984 248.404605 
L 121.786828 248.774566 
L 121.938422 249.789703 
L 123.01943 249.814969 
L 124.732078 250.267043 
" clip-path="url(#pac3a30c285)" style="fill: none; stroke: #000000; stroke-width: 0.8"/>
    <path d="M 57.50025 228.709148 
L 56.504063 228.797578 
L 54.988125 230.211551 
L 53.201484 231.449566 
L 53.760938 232.29416 
L 56.110641 233.82273 
L 57.853969 232.68307 
L 57.50025 228.709148 
" clip-path="url(#pac3a30c285)" style="fill: none; stroke: #000000; stroke-width: 0.8"/>
    <path d="M 41.059547 231.279023 
L 41.171438 232.40966 
L 41.821125 233.857922 
L 42.25425 233.847996 
L 43.084406 233.27952 
L 43.864031 234.444445 
L 45.170625 234.355113 
L 45.376359 232.547719 
L 44.862023 231.203227 
L 43.52475 230.937035 
L 42.597141 230.419992 
L 41.059547 231.279023 
" clip-path="url(#pac3a30c285)" style="fill: none; stroke: #000000; stroke-width: 0.8"/>
    <path d="M 39.305391 235.780816 
L 40.238414 236.646164 
L 40.445953 236.074078 
L 40.225781 234.834258 
L 39.305391 235.780816 
" clip-path="url(#pac3a30c285)" style="fill: none; stroke: #000000; stroke-width: 0.8"/>
    <path d="M 21.242273 255.696445 
L 20.052984 255.768633 
L 13.440609 257.411801 
L 10.885172 259.118133 
L 10.26075 260.154023 
L 10.502578 260.698137 
L 11.431992 261.757488 
L 11.639531 261.949687 
L 12.411938 262.196027 
L 13.242094 261.787266 
L 17.950523 261.51566 
L 20.305641 260.899359 
L 23.330297 259.615324 
L 23.931258 258.853746 
L 24.4095 257.717695 
L 23.853656 256.400273 
L 21.242273 255.696445 
" clip-path="url(#pac3a30c285)" style="fill: none; stroke: #000000; stroke-width: 0.8"/>
    <path d="M 13.554305 237.369844 
L 11.773078 237.02966 
L 11.395898 237.59543 
L 9.470297 239.235891 
L 9.206813 240.071461 
L 9.672422 240.240199 
L 10.336547 240.876352 
L 11.518617 240.593016 
L 13.399102 239.559832 
L 14.220234 238.237898 
L 13.554305 237.369844 
" clip-path="url(#pac3a30c285)" style="fill: none; stroke: #000000; stroke-width: 0.8"/>
    <path d="M 16.822594 178.383633 
L 16.320891 177.538137 
L 14.806758 176.797313 
L 14.025328 177.733043 
L 14.725547 179.998828 
L 15.02332 180.475266 
L 15.71632 180.720703 
L 16.735969 180.825375 
L 16.822594 178.383633 
" clip-path="url(#pac3a30c285)" style="fill: none; stroke: #000000; stroke-width: 0.8"/>
    <path d="M 75.702328 289.606523 
L 75.332367 291.059297 
L 75.908063 290.736258 
L 77.306695 289.158961 
L 77.189391 288.334219 
L 75.702328 289.606523 
" clip-path="url(#pac3a30c285)" style="fill: none; stroke: #000000; stroke-width: 0.8"/>
    <path d="M 14.344758 199.925285 
L 13.086891 199.160098 
L 13.437 201.784113 
L 14.662383 202.572762 
L 14.916844 201.377156 
L 14.344758 199.925285 
" clip-path="url(#pac3a30c285)" style="fill: none; stroke: #000000; stroke-width: 0.8"/>
    <path d="M 10.314891 232.107375 
L 8.649164 230.533688 
L 7.338961 231.408961 
L 8.161898 231.962098 
L 8.504789 232.969113 
L 9.329531 234.241418 
L 10.134422 234.374965 
L 10.378055 233.928305 
L 10.314891 232.107375 
" clip-path="url(#pac3a30c285)" style="fill: none; stroke: #000000; stroke-width: 0.8"/>
    <path d="M 305.868563 382.159922 
L 305.195414 381.85493 
L 304.859742 381.946066 
L 306.020156 383.902348 
L 306.357633 383.887008 
L 306.615703 383.290559 
L 305.868563 382.159922 
" clip-path="url(#pac3a30c285)" style="fill: none; stroke: #000000; stroke-width: 0.8"/>
    <path d="M 96.613242 182.072414 
L 96.093492 182.576824 
L 96.214406 183.157934 
L 97.208789 183.707461 
L 98.047969 183.157934 
L 98.385445 182.210473 
L 97.820578 181.767422 
L 96.613242 182.072414 
" clip-path="url(#pac3a30c285)" style="fill: none; stroke: #000000; stroke-width: 0.8"/>
    <path d="M -1 177.237572 
L -0.533086 176.938078 
L 1.215656 175.040449 
L 1.563961 174.209391 
L 2.933719 173.790703 
L 6.122602 175.854363 
L 8.129414 175.925648 
L 9.356602 178.27084 
L 10.17593 177.886441 
L 10.95375 176.689031 
L 14.036156 175.767738 
L 17.784492 177.274652 
L 18.717516 177.397371 
L 18.914227 177.551672 
L 18.670594 178.038937 
L 17.876531 178.237453 
L 17.611242 178.759008 
L 17.921648 179.91852 
L 19.338328 181.814344 
L 19.217414 183.737238 
L 20.065617 184.410387 
L 21.808945 186.549844 
L 20.993227 188.423109 
L 21.541852 189.076406 
L 21.751195 190.101469 
L 23.258109 192.448465 
L 24.936469 192.783234 
L 25.252289 193.119809 
L 24.903984 193.734305 
L 23.445797 194.549121 
L 23.315859 195.243926 
L 22.700461 194.844188 
L 21.697055 192.952875 
L 19.890563 192.732703 
L 17.876531 191.63816 
L 16.199977 191.861941 
L 15.122578 192.572086 
L 13.696875 192.772406 
L 11.213625 194.384895 
L 10.166906 196.214848 
L 10.542281 197.699203 
L 11.462672 197.742516 
L 14.384461 198.446344 
L 15.201984 197.950055 
L 16.212609 197.658598 
L 16.562719 199.657289 
L 17.331516 201.653273 
L 17.400094 202.539375 
L 17.257523 204.174422 
L 17.497547 206.12168 
L 17.187141 207.409324 
L 18.233859 208.539059 
L 19.809352 209.778879 
L 20.015086 210.21832 
L 19.464656 210.951023 
L 19.165078 211.913824 
L 20.498742 212.366801 
L 21.115945 212.845945 
L 20.457234 214.751695 
L 18.316875 215.761418 
L 17.214211 216.590672 
L 16.227047 217.002141 
L 16.190953 217.754695 
L 17.640117 218.061492 
L 18.547875 218.407992 
L 17.959547 219.082945 
L 16.306453 219.696539 
L 15.709102 220.54023 
L 14.516203 223.149809 
L 13.862906 224.951789 
L 12.579773 226.111301 
L 13.251117 228.126234 
L 14.552297 230.201625 
L 14.974594 232.223777 
L 16.042969 232.464703 
L 17.326102 231.976535 
L 18.165281 232.20573 
L 17.152852 233.050324 
L 15.938297 233.462695 
L 16.532039 233.810098 
L 16.892977 234.542801 
L 15.064828 234.60416 
L 12.763852 234.134941 
L 12.087094 234.998484 
L 13.346766 236.543297 
L 16.102523 238.311891 
L 16.559109 239.523738 
L 16.593398 240.96027 
L 17.021109 241.632516 
L 17.99925 241.572059 
L 18.48832 239.983031 
L 21.14843 237.98073 
L 21.919031 238.305574 
L 22.469461 239.104148 
L 23.785078 239.329734 
L 26.248477 236.22477 
L 30.245859 233.485254 
L 30.644695 234.127723 
L 30.494906 235.21234 
L 29.282156 236.259059 
L 28.885125 237.347285 
L 31.678781 238.878563 
L 32.712867 238.18827 
L 33.093656 237.229078 
L 34.533797 235.885488 
L 33.505125 234.716953 
L 32.880703 233.709035 
L 33.151406 232.229191 
L 34.494094 231.837574 
L 35.356734 231.915176 
L 36.129141 233.285836 
L 37.367156 234.684469 
L 38.901141 234.11509 
L 39.395625 232.978137 
L 37.923 231.853816 
L 37.495289 230.998395 
L 37.859836 230.320734 
L 38.890313 229.797375 
L 41.817516 229.582617 
L 43.730484 228.614402 
L 44.829539 228.553945 
L 45.906938 230.187187 
L 46.975313 230.514738 
L 49.260047 230.604973 
L 51.324609 231.268195 
L 52.364109 231.355723 
L 52.432688 230.21516 
L 51.900305 228.670348 
L 52.625789 227.676867 
L 53.602125 227.093953 
L 56.034844 226.75016 
L 58.864594 227.224793 
L 62.271844 227.084027 
L 64.058484 226.69241 
L 66.59768 225.599672 
L 68.719992 222.810527 
L 70.385719 219.759703 
L 71.611102 216.256805 
L 73.020563 211.447313 
L 73.226297 209.546074 
L 72.060469 209.785195 
L 71.109398 210.360891 
L 70.508438 210.132598 
L 70.096969 209.516297 
L 70.077117 207.936293 
L 69.871383 206.744297 
L 69.894844 204.51641 
L 70.533703 203.355996 
L 70.863961 201.781406 
L 70.641984 198.715242 
L 71.389125 196.769789 
L 70.515656 193.376074 
L 70.369477 190.909066 
L 68.833688 186.926121 
L 63.592875 179.477273 
L 59.913117 175.607121 
L 55.596305 170.266148 
L 51.082781 161.998875 
L 50.249016 160.936816 
L 48.769172 159.74843 
L 47.163 158.992266 
L 46.433906 158.432812 
L 43.636641 156.924996 
L 40.207734 153.485262 
L 38.596148 152.729098 
L 36.416086 152.392523 
L 34.864055 151.722984 
L 32.970938 151.19782 
L 32.767008 149.567285 
L 33.483469 148.136168 
L 34.133156 147.629953 
L 35.342297 148.065785 
L 35.824148 146.519168 
L 35.793469 144.639586 
L 35.427117 142.183406 
L 36.179672 140.588965 
L 41.70382 138.482895 
L 43.542797 136.641211 
L 46.125305 135.958137 
L 49.787016 135.895875 
L 51.422063 134.91593 
L 53.607539 134.153449 
L 55.446516 132.902801 
L 57.121266 130.692059 
L 59.738063 129.934992 
L 61.62757 128.652762 
L 64.668469 127.485129 
L 67.169766 124.34407 
L 68.943773 123.137637 
L 75.736617 120.716648 
L 76.352016 119.331551 
L 75.799781 115.794363 
L 76.792359 112.464715 
L 76.666031 110.845008 
L 75.251156 108.944672 
L 75.323344 107.084941 
L 76.617305 104.917512 
L 78.835266 103.194035 
L 79.793555 101.508457 
L 81.255352 99.763324 
L 82.381477 98.754504 
L 84.444234 97.807945 
L 85.476516 96.214406 
L 86.936508 95.643223 
L 89.574961 94.024418 
L 91.639523 94.209398 
L 92.882953 94.520707 
L 94.608234 93.579563 
L 96.535641 89.935898 
L 94.22925 87.469793 
L 95.093695 87.157582 
L 98.596594 87.884871 
L 100.058391 87.677332 
L 102.525398 88.031051 
L 104.133375 86.711824 
L 105.005039 85.331238 
L 106.867477 84.403629 
L 109.143188 81.185871 
L 112.943859 77.375273 
L 114.286547 76.402547 
L 116.95207 75.539906 
L 117.641461 75.64909 
L 118.321828 75.945059 
L 116.20132 77.964504 
L 115.614797 79.361332 
L 117.105469 79.35682 
L 118.610578 78.921891 
L 122.389594 76.591137 
L 123.800859 75.326051 
L 124.25925 76.709344 
L 123.694383 83.276602 
L 126.975305 82.787531 
L 128.73307 83.493164 
L 131.182031 83.41466 
L 134.038852 84.9315 
L 135.154148 84.718547 
L 136.496836 84.668016 
L 137.65725 86.242605 
L 139.516078 86.719945 
L 142.649016 85.483734 
L 147.402563 84.294445 
L 149.66925 84.262863 
L 155.233102 82.090922 
L 157.931109 80.341277 
L 167.824406 75.750152 
L 171.986016 73.237125 
L 175.941891 71.404465 
L 178.327688 68.468238 
L 182.453203 65.68902 
L 182.557875 64.509656 
L 183.373594 63.166969 
L 189.682781 55.73707 
L 191.759977 54.511688 
L 194.62943 53.601223 
L 195.856617 52.254023 
L 196.641656 50.317594 
L 200.509102 47.447238 
L 203.163797 44.563348 
L 205.623586 42.681059 
L 206.848969 40.997285 
L 213.196055 36.888012 
L 218.337609 32.33298 
L 223.147102 29.036719 
L 224.693719 27.001031 
L 230.925305 21.046465 
L 232.843688 17.124879 
L 235.186172 15.637816 
L 236.200406 11.911137 
L 238.209023 9.235688 
L 238.748625 7.639441 
L 239.804367 6.142453 
L 247.465266 0.116602 
L 248.200419 -1 
L 248.200419 -1 
" clip-path="url(#pac3a30c285)" style="fill: none; stroke: #000000; stroke-width: 0.8"/>
    <path d="M 375.756891 73.23893 
L 375.711773 72.887918 
L 375.527695 72.674062 
L 375.208266 72.704742 
L 374.870789 72.720082 
L 374.610914 72.628043 
L 374.381719 72.658723 
L 374.381719 72.795879 
L 374.610914 72.918598 
L 374.702953 73.117113 
L 374.840109 73.361648 
L 375.085547 73.315629 
L 375.527695 73.25427 
L 375.756891 73.23893 
" clip-path="url(#pac3a30c285)" style="fill: none; stroke: #000000; stroke-width: 0.8"/>
    <path d="M 382.959398 69.154922 
L 382.531688 69.073711 
L 382.042617 69.318246 
L 381.860344 69.480668 
L 382.125633 69.562781 
L 382.941352 69.663844 
L 383.430422 69.562781 
L 383.264391 69.216281 
L 382.959398 69.154922 
" clip-path="url(#pac3a30c285)" style="fill: none; stroke: #000000; stroke-width: 0.8"/>
    <path d="M 378.436852 72.822047 
L 377.704148 73.107188 
L 377.317945 73.351723 
L 377.397352 73.596258 
L 377.642789 73.555652 
L 378.092156 73.330969 
L 378.395344 73.188398 
L 378.662438 72.985371 
L 378.436852 72.822047 
" clip-path="url(#pac3a30c285)" style="fill: none; stroke: #000000; stroke-width: 0.8"/>
   </g>
   <g id="FeatureArtist_2">
    <path d="M 51.08306 161.99852 
L 50.433673 162.286446 
L 49.322076 163.840677 
L 48.283057 165.814144 
L 47.276508 166.879902 
L 46.123847 167.471035 
L 44.879507 167.818171 
L 42.409927 167.968102 
L 40.180048 167.833928 
L 39.457128 167.620012 
L 36.388776 167.745115 
L 35.524518 167.883587 
L 31.114419 167.73079 
L 28.813871 167.892182 
L 27.348931 168.274174 
L 25.858206 169.075402 
L 24.572802 170.274858 
L 23.44115 171.559784 
L 21.139648 173.908558 
L 19.522866 175.050715 
L 19.517136 176.699966 
L 19.480846 177.202286 
L 18.913588 177.551331 
" clip-path="url(#pac3a30c285)" style="fill: none; stroke: #000000; stroke-width: 0.6"/>
    <path d="M 163.227326 -1 
L 161.312636 -0.737315 
L 160.414954 -0.443181 
L 159.845786 0.219576 
L 159.202129 0.683696 
L 158.138281 1.615757 
L 158.051377 2.418896 
L 158.537462 3.610711 
L 158.775253 4.833564 
L 157.570067 5.924629 
L 156.359152 8.109624 
L 155.752739 9.820949 
L 155.45765 12.500625 
L 154.25533 14.328935 
L 152.574564 16.456154 
L 153.243051 18.898994 
L 152.826679 19.470072 
L 152.477156 21.101179 
L 151.950007 21.535695 
L 150.423948 22.24429 
L 149.509077 23.097088 
L 149.701983 24.392996 
L 149.232133 25.514621 
L 148.531177 26.507323 
L 147.795842 27.15289 
L 146.042498 27.919739 
L 145.517259 29.183178 
L 145.353002 30.158691 
L 144.860232 31.130384 
L 145.163916 32.125473 
L 144.625307 32.984956 
L 142.279875 33.939459 
L 141.492971 34.083183 
L 139.997472 35.015244 
L 138.654769 38.220159 
L 138.351085 40.085713 
L 138.656679 41.744037 
L 135.377276 43.607203 
L 133.578093 43.030395 
L 130.380818 42.42828 
L 128.226382 41.890626 
L 124.788453 41.203518 
L 119.325964 39.984008 
L 117.664298 39.651197 
L 116.402769 39.101606 
L 115.341786 38.119886 
L 114.289397 38.518112 
L 113.313407 39.676504 
L 111.686121 40.365045 
L 110.295669 42.614024 
L 107.858559 44.455226 
L 103.813262 45.635582 
L 101.121172 45.822758 
L 100.209165 46.213345 
L 99.261825 47.037016 
L 99.00398 47.856867 
L 99.672466 48.720169 
L 100.721035 50.449161 
L 101.206165 51.631904 
L 101.92431 53.969219 
L 104.317491 61.317316 
L 103.542047 62.586008 
L 102.820082 68.096245 
L 102.993888 69.091812 
L 102.971924 71.77674 
L 104.107396 72.452388 
L 104.437819 73.117055 
L 104.355691 74.133154 
L 104.023357 74.879949 
L 102.845866 78.492162 
L 101.192795 80.415971 
L 101.143136 81.927705 
L 100.867147 82.926137 
L 99.703026 83.279957 
L 98.543679 83.85963 
L 97.170418 83.645715 
L 95.964277 83.766042 
L 94.471643 84.153764 
L 91.788148 84.60165 
L 90.229619 85.202333 
L 89.486645 85.639714 
L 88.97 86.164476 
L 88.881187 86.666318 
L 89.23644 86.931325 
L 90.740534 87.138556 
L 91.774778 88.082554 
L 91.92089 89.115843 
L 90.857997 89.706021 
L 90.857997 89.706021 
" clip-path="url(#pac3a30c285)" style="fill: none; stroke: #000000; stroke-width: 0.6"/>
    <path d="M 90.857997 89.706021 
L 90.327027 89.056634 
L 89.441761 88.850358 
L 87.785824 87.942172 
L 86.582549 86.942307 
L 85.679138 85.835485 
L 85.718292 83.473818 
L 85.561675 83.119998 
L 83.915289 82.6363 
L 83.426339 81.933435 
L 82.647075 81.597281 
L 81.531657 81.811197 
L 80.695094 81.584867 
L 80.034248 81.20001 
L 79.239704 81.154171 
L 78.552118 81.765358 
L 78.191136 83.074636 
L 77.039429 85.249127 
L 76.932471 86.56318 
L 76.435882 88.441626 
L 75.941202 90.822393 
L 75.535335 91.318505 
L 74.245156 91.389651 
L 73.800136 91.544358 
L 73.127829 92.354181 
L 72.318006 92.491699 
L 71.599861 92.018028 
L 70.469164 91.544358 
L 69.399586 91.483239 
L 68.436965 91.95691 
L 67.306268 92.986379 
L 66.664521 93.821031 
L 66.435326 94.600296 
L 66.25197 95.562916 
L 65.110768 96.485904 
L 64.066975 96.968647 
L 61.912539 98.328539 
L 61.224953 98.893888 
L 59.679794 98.900573 
L 58.000939 98.848049 
L 55.741455 99.214761 
L 52.05523 99.401937 
L 49.849225 99.125948 
L 47.119891 99.385703 
L 44.996015 99.830724 
L 44.690421 100.493957 
L 44.768729 101.476155 
L 45.196561 102.117902 
L 45.71607 102.545733 
L 46.597517 103.866471 
L 47.519073 105.14328 
L 48.924804 105.968383 
L 49.505432 106.854605 
L 49.535992 107.679708 
L 48.871325 108.718727 
L 47.860956 110.078141 
L 46.921255 110.914704 
L 46.215525 110.886532 
L 45.135442 110.399492 
L 44.402017 109.788305 
L 42.657267 109.558155 
L 38.38755 109.948742 
L 36.254123 109.676095 
L 35.234204 109.177117 
L 33.448391 109.139873 
L 30.684677 108.473297 
L 29.000092 108.260336 
L 28.205548 107.832505 
L 28.052751 106.854605 
L 27.258207 106.182299 
L 26.812232 105.377728 
L 25.807592 104.366881 
L 24.844017 103.859786 
L 23.896676 103.645871 
L 22.857657 104.257058 
L 21.75752 104.807127 
L 20.932417 104.684889 
L 20.535145 104.837686 
L 20.080574 105.294167 
L 18.310995 106.234823 
L 17.887939 107.096215 
L 17.181253 108.922138 
L 16.690394 110.798674 
L 16.262562 111.462863 
L 15.542507 111.577938 
L 14.810992 112.141854 
L 13.274428 113.909046 
L 11.886842 115.533467 
L 9.869923 116.633605 
L 8.922582 117.642064 
L 8.433632 118.558846 
L 6.997342 119.842339 
L 4.888745 120.071535 
L 3.208934 120.444932 
L 2.17851 120.543295 
L 1.4384 121.061372 
L 0.902656 121.852096 
L 0.640992 122.164852 
L -0.306349 122.164852 
L -1 122.65712 
" clip-path="url(#pac3a30c285)" style="fill: none; stroke: #000000; stroke-width: 0.6"/>
    <path d="M 90.857997 89.706021 
L 91.360316 90.827645 
L 92.540672 91.919665 
L 93.160455 92.716119 
L 93.278872 93.542655 
L 93.822256 94.009163 
" clip-path="url(#pac3a30c285)" style="fill: none; stroke: #000000; stroke-width: 0.6"/>
    <path d="M 375.694291 79.280499 
L 375.0153 76.275175 
L 374.278055 74.258257 
L 373.841629 73.408324 
L 372.729077 72.244203 
L 371.008202 71.039017 
L 368.256903 71.648295 
L 366.207515 69.346315 
L 363.161127 67.595358 
L 362.777225 66.674757 
L 362.962492 65.051767 
L 363.375998 64.384713 
L 368.15281 59.999443 
L 369.790602 57.270109 
L 370.583236 54.359329 
L 370.258542 51.735042 
L 369.018023 48.131901 
" clip-path="url(#pac3a30c285)" style="fill: none; stroke: #000000; stroke-width: 0.6"/>
   </g>
   <g id="patch_3">
    <path d="M 7.2 450.72 
L 7.2 450.72 
L 7.2 7.2 
L 450.72 7.2 
L 450.72 450.72 
L 7.2 450.72 
z
" style="fill: none; stroke: #000000; stroke-width: 0.8; stroke-linejoin: miter; stroke-linecap: square"/>
   </g>
  </g>
 </g>
 <defs>
  <clipPath id="pac3a30c285">
   <path d="M 7.2 450.72 
L 7.2 450.72 
L 7.2 7.2 
L 450.72 7.2 
L 450.72 450.72 
z
"/>
  </clipPath>
 </defs>
</svg>
