<?xml version="1.0" encoding="utf-8" standalone="no"?>
<!DOCTYPE svg PUBLIC "-//W3C//DTD SVG 1.1//EN"
  "http://www.w3.org/Graphics/SVG/1.1/DTD/svg11.dtd">
<svg xmlns:xlink="http://www.w3.org/1999/xlink" width="457.92pt" height="457.92pt" viewBox="0 0 457.92 457.92" xmlns="http://www.w3.org/2000/svg" version="1.1">
 <metadata>
  <rdf:RDF xmlns:dc="http://purl.org/dc/elements/1.1/" xmlns:cc="http://creativecommons.org/ns#" xmlns:rdf="http://www.w3.org/1999/02/22-rdf-syntax-ns#">
   <cc:Work>
    <dc:type rdf:resource="http://purl.org/dc/dcmitype/StillImage"/>
    <dc:date>2026-03-20T17:56:52.560213</dc:date>
    <dc:format>image/svg+xml</dc:format>
    <dc:creator>
     <cc:Agent>
      <dc:title>Matplotlib v3.10.8, https://matplotlib.org/</dc:title>
     </cc:Agent>
    </dc:creator>
   </cc:Work>
  </rdf:RDF>
 </metadata>
 <defs>
  <style type="text/css">*{stroke-linejoin: round; stroke-linecap: butt}</style>
 </defs>
 <g id="figure_1">
  <g id="patch_1">
   <path d="M 0 457.92 
L 457.92 457.92 
L 457.92 0 
L 0 0 
L 0 457.92 
z
" style="fill: none"/>
  </g>
  <g id="axes_1">
   <g id="patch_2">
    <path d="M 7.2 450.72 
L 7.2 450.72 
L 7.2 7.2 
L 450.72 7.2 
L 450.72 450.72 
L 7.2 450.72 
z
" style="fill: none"/>
   </g>
   <g id="FeatureArtist_1">
    <path d="M 300.747424 151.697623 
L 283.651364 170.304462 
L 283.962687 189.374467 
L 277.003745 204.123186 
L 280.224894 213.383631 
L 270.600601 226.407177 
L 246.987753 235.102752 
L 214.501228 236.235836 
L 188.174326 257.3304 
L 175.75576 250.229165 
L 174.987956 236.41585 
L 142.849043 240.492662 
L 120.977126 249.196831 
L 99.343953 249.551129 
L 118.08067 263.148141 
L 105.749962 294.557448 
L 93.803156 302.333377 
L 84.860719 295.150969 
L 89.393057 278.496109 
L 77.695501 273.121479 
L 70.187444 260.448889 
L 87.660722 254.755295 
L 97.353774 243.138913 
L 115.940559 233.585288 
L 129.494596 220.950896 
L 166.281399 215.439704 
L 186.0409 219.218562 
L 205.37639 186.363891 
L 217.698502 195.189821 
L 244.808488 176.708084 
L 255.319958 169.528541 
L 266.932521 146.930838 
L 263.76485 126.149985 
L 271.570861 114.476304 
L 291.218629 111.084213 
L 301.295583 136.714934 
L 300.747424 151.697623 
" clip-path="url(#pf034ec8a94)" style="fill: none; stroke: #000000; stroke-width: 0.8"/>
    <path d="M 351.176123 63.362407 
L 364.24885 55.530135 
L 368.357176 76.27613 
L 340.942552 81.335139 
L 324.757543 99.688431 
L 295.700352 87.05595 
L 285.643453 107.276706 
L 265.090363 107.554606 
L 262.548205 89.181736 
L 271.687368 74.961122 
L 291.432544 73.934518 
L 296.817679 48.371123 
L 302.282078 33.968586 
L 324.000243 53.208577 
L 338.179793 59.422635 
L 351.176123 63.362407 
" clip-path="url(#pf034ec8a94)" style="fill: none; stroke: #000000; stroke-width: 0.8"/>
    <path d="M 320.549189 -1 
L 331.218941 10.217266 
L 330.697521 23.131467 
L 316.697508 11.990665 
L 304.580716 26.294362 
L 301.159976 10.786435 
L 302.509176 -1 
" clip-path="url(#pf034ec8a94)" style="fill: none; stroke: #000000; stroke-width: 0.8"/>
    <path d="M 124.93934 257.351887 
L 135.162406 246.325682 
L 145.670056 248.463406 
L 153.26788 240.696073 
L 166.838153 244.682161 
L 169.202684 251.018934 
L 158.799127 262.202233 
L 151.213717 256.273714 
L 141.739356 260.568739 
L 136.834576 271.379595 
L 124.790363 266.11622 
L 124.93934 257.351887 
" clip-path="url(#pf034ec8a94)" style="fill: none; stroke: #000000; stroke-width: 0.8"/>
    <path d="M 247.758973 -1 
L 239.211348 7.206213 
L 233.020209 19.989104 
L 183.044171 62.843375 
L 171.106915 73.761189 
L 146.481789 84.604037 
L 134.827207 84.843738 
L 123.218465 75.861669 
L 98.414757 89.385147 
L 95.534536 95.534266 
L 88.512565 94.425534 
L 80.490729 100.683521 
L 74.972852 106.97159 
L 75.671897 120.245341 
L 66.116363 124.329792 
L 62.832185 127.589141 
L 55.864647 133.051629 
L 43.557814 136.090377 
L 35.537888 141.05341 
L 34.95917 149.053759 
L 32.802824 151.09503 
L 40.156174 154.099399 
L 50.62276 162.20575 
L 66.574753 184.009387 
L 71.14911 195.988184 
L 71.294267 217.278042 
L 64.328639 227.435691 
L 47.594516 230.985831 
L 32.822879 238.649549 
L 16.176614 240.231952 
L 14.110036 230.169323 
L 17.534596 216.309691 
L 9.369513 197.073042 
L 23.095448 193.960283 
L 10.429542 178.145807 
L 1.454635 174.628614 
L -0.775244 178.1014 
L -1 178.165059 
L -1 178.165059 
" clip-path="url(#pf034ec8a94)" style="fill: none; stroke: #000000; stroke-width: 0.8"/>
   </g>
   <g id="FeatureArtist_2">
    <path d="M -1 121.736607 
L 10.563914 116.096357 
L 23.260414 102.989971 
L 32.033794 108.781973 
L 48.012526 109.45409 
L 45.125026 99.705706 
L 73.665907 91.746185 
L 81.013001 81.389808 
L 92.9472 92.3004 
" clip-path="url(#pf034ec8a94)" style="fill: none; stroke: #000000; stroke-width: 0.6"/>
    <path d="M 50.622456 162.20562 
L 47.961706 166.675193 
L 40.095694 167.892286 
L 27.034214 168.787087 
L 19.834961 177.128035 
L 11.585858 176.469778 
L 10.42938 178.145544 
" clip-path="url(#pf034ec8a94)" style="fill: none; stroke: #000000; stroke-width: 0.6"/>
    <path d="M 92.9472 92.3004 
L 95.5344 95.5344 
" clip-path="url(#pf034ec8a94)" style="fill: none; stroke: #000000; stroke-width: 0.6"/>
    <path d="M 161.652137 -1 
L 157.116228 3.273185 
L 150.783317 23.519318 
L 138.354778 41.497217 
L 115.925786 38.224778 
L 100.065326 44.752099 
L 104.932958 60.579295 
L 102.274241 82.413785 
L 92.833733 82.912375 
L 92.9472 92.3004 
" clip-path="url(#pf034ec8a94)" style="fill: none; stroke: #000000; stroke-width: 0.6"/>
   </g>
   <g id="patch_3">
    <path d="M 7.2 450.72 
L 7.2 450.72 
L 7.2 7.2 
L 450.72 7.2 
L 450.72 450.72 
L 7.2 450.72 
z
" style="fill: none; stroke: #000000; stroke-width: 0.8; stroke-linejoin: miter; stroke-linecap: square"/>
   </g>
  </g>
 </g>
 <defs>
  <clipPath id="pf034ec8a94">
   <path d="M 7.2 450.72 
L 7.2 450.72 
L 7.2 7.2 
L 450.72 7.2 
L 450.72 450.72 
z
"/>
  </clipPath>
 </defs>
</svg>
