<?xml version="1.0" encoding="utf-8" standalone="no"?>
<!DOCTYPE svg PUBLIC "-//W3C//DTD SVG 1.1//EN"
  "http://www.w3.org/Graphics/SVG/1.1/DTD/svg11.dtd">
<svg xmlns:xlink="http://www.w3.org/1999/xlink" width="720pt" height="720pt" viewBox="0 0 720 720" xmlns="http://www.w3.org/2000/svg" version="1.1">
 <metadata>
  <rdf:RDF xmlns:dc="http://purl.org/dc/elements/1.1/" xmlns:cc="http://creativecommons.org/ns#" xmlns:rdf="http://www.w3.org/1999/02/22-rdf-syntax-ns#">
   <cc:Work>
    <dc:type rdf:resource="http://purl.org/dc/dcmitype/StillImage"/>
    <dc:date>2026-03-20T18:58:51.451781</dc:date>
    <dc:format>image/svg+xml</dc:format>
    <dc:creator>
     <cc:Agent>
      <dc:title>Matplotlib v3.10.8, https://matplotlib.org/</dc:title>
     </cc:Agent>
    </dc:creator>
   </cc:Work>
  </rdf:RDF>
 </metadata>
 <defs>
  <style type="text/css">*{stroke-linejoin: round; stroke-linecap: butt}</style>
 </defs>
 <g id="figure_1">
  <g id="patch_1">
   <path d="M 0 720 
L 720 720 
L 720 0 
L 0 0 
L 0 720 
z
" style="fill: none"/>
  </g>
  <g id="axes_1">
   <g id="patch_2">
    <path d="M 0 720 
L 0 720 
L 0 0 
L 720 0 
L 720 720 
L 0 720 
z
" style="fill: none"/>
   </g>
   <g id="GeoContourSet_1">
    <path clip-path="url(#p2574dc703d)" style="fill: none; stroke: #000000"/>
    <path clip-path="url(#p2574dc703d)" style="fill: none; stroke: #000000"/>
    <path clip-path="url(#p2574dc703d)" style="fill: none; stroke: #000000"/>
    <path clip-path="url(#p2574dc703d)" style="fill: none; stroke: #000000"/>
    <path d="M 720 152.928223 
L 716.25 150.398129 
L 715.69379 150 
L 712.5 147.517969 
L 711.852539 147 
L 708.75 144.104297 
L 708.638253 144 
L 708.459482 143.805728 
M 696.065001 124.602346 
L 695.563299 123 
L 694.682465 120 
L 693.869629 117 
L 693.75 116.521484 
L 693.119629 114 
L 692.45134 111 
L 692.063409 108 
L 691.804789 105 
L 691.934099 102 
L 692.063409 99 
L 692.19272 96 
L 692.45134 93 
L 692.543555 90 
L 692.013033 87 
L 691.804789 84 
L 692.326726 81 
L 693.75 78.993862 
L 694.418945 78 
L 697.496419 75 
L 697.5 74.996931 
L 700.92041 72 
L 701.25 71.736328 
L 704.996164 69 
L 705 68.997422 
L 708.75 66.719835 
L 710.099691 66 
L 712.5 64.828324 
L 716.25 63.232361 
L 716.830902 63 
L 720 61.647852 
" clip-path="url(#p2574dc703d)" style="fill: none; stroke: #000000"/>
    <path d="M 720 176.379621 
L 716.25 175.245474 
L 712.602539 174 
L 712.5 173.961719 
L 708.75 172.42473 
L 705.442592 171 
L 705 170.784477 
L 701.25 168.793457 
L 699.821777 168 
L 697.5 166.592862 
L 694.871777 165 
L 693.75 164.28776 
L 690.217429 162 
L 690 161.856918 
L 686.25 159.248015 
L 685.906161 159 
L 682.5 156.416016 
L 681.97998 156 
L 678.75 153.370683 
L 678.324014 153 
L 675.054377 150 
L 675 149.947798 
L 672.062882 147 
L 671.25 146.102578 
L 669.372698 144 
L 667.5 141.669531 
L 666.969562 141 
L 664.905719 138 
L 663.75 136.15085 
L 662.997521 135 
L 661.426014 132 
L 660 129.005371 
L 659.997173 129 
L 658.510153 126 
L 657.215143 123 
L 656.25 120.340495 
L 656.113194 120 
L 654.976082 117 
L 654.009498 114 
L 653.271252 111 
L 652.681785 108 
L 652.5 106.225781 
L 652.358127 105 
L 652.20844 102 
L 652.280555 99 
L 652.424786 96 
L 652.5 95.374219 
L 652.751506 93 
L 653.155068 90 
L 653.69979 87 
L 654.335076 84 
L 655.289125 81 
L 656.25 78.419364 
L 656.443128 78 
L 657.745396 75 
L 659.744629 72 
L 660 71.616943 
L 662.093555 69 
L 663.75 66.239258 
L 663.837533 66 
L 664.657807 63 
L 665.620261 60 
L 665.725816 57 
L 666.10994 54 
L 667.5 53.039595 
L 670.799345 51 
L 671.25 50.528546 
L 673.117676 48 
L 675 45.63365 
L 675.583625 45 
L 678.75 42.168888 
L 678.938888 42 
L 681.211713 40.080471 
M 699.071858 25.561817 
L 701.241048 24 
L 701.25 23.993862 
L 705 21.539595 
L 705.927429 21 
L 708.75 19.279576 
L 711.333759 18 
L 712.5 17.393555 
L 716.25 16.08505 
L 720 15.119629 
" clip-path="url(#p2574dc703d)" style="fill: none; stroke: #000000"/>
    <path d="M 720 195.502148 
L 718.28813 195 
L 716.25 194.448137 
L 712.5 193.294291 
L 708.75 192.049665 
L 708.615133 192 
L 705 190.748193 
L 701.25 189.32506 
L 700.449663 189 
L 697.5 187.820135 
L 693.75 186.236389 
L 693.209682 186 
L 690 184.617368 
L 686.448348 183 
L 686.25 182.906808 
L 682.5 181.211757 
L 679.737908 180 
L 678.75 179.528577 
L 675 177.656889 
L 673.709682 177 
L 671.25 175.622578 
L 668.581286 174 
L 667.5 173.300615 
L 664.120972 171 
L 663.75 170.741933 
L 660 168.069531 
L 659.902222 168 
L 656.25 165.282068 
L 655.880216 165 
L 652.5 162.295827 
L 652.120972 162 
L 648.75 159.234075 
L 648.457407 159 
L 645 156.084565 
L 644.902222 156 
L 641.611924 153 
L 641.25 152.64027 
L 638.593631 150 
L 637.5 148.879028 
L 635.666802 147 
L 633.75 144.9719 
L 632.808472 144 
L 630.183472 141 
L 630 140.774189 
L 627.745972 138 
L 626.25 136.005371 
L 625.495972 135 
L 623.407807 132 
L 622.5 130.656445 
L 621.316825 129 
L 619.704715 126.729836 
M 607.897322 106.980272 
L 607.5 106.419347 
L 606.494629 105 
L 604.520306 102 
L 603.75 100.723493 
L 602.589956 99 
L 600.410699 96 
L 600 95.507161 
L 597.313756 93 
L 596.25 92.423513 
L 592.5 90.652065 
L 592.336984 90 
L 592.5 88.695871 
L 592.760331 87 
L 593.359309 84 
L 594.767844 81 
L 596.087036 78 
L 596.072221 75 
L 594.680786 72 
L 592.910699 69 
L 592.5 68.260742 
L 591.244032 66 
L 589.897649 63 
L 589.043555 60 
L 588.75 59.266113 
L 587.805786 57 
L 586.712036 54 
L 585.462036 51 
L 585 49.891113 
L 584.212036 48 
L 583.118286 45 
L 582.547342 42 
L 582.094949 39 
L 581.25 36.025781 
L 581.242327 36 
L 580.199382 33 
L 579.696404 30 
L 579.475816 27 
L 579.489258 24 
L 579.489258 21 
L 579.739258 18 
L 579.739258 15 
L 579.899205 12 
L 579.871715 9 
L 579.358887 6 
L 579.189897 3 
L 579.871715 0 
L 579.85568 -1 
" clip-path="url(#p2574dc703d)" style="fill: none; stroke: #000000"/>
    <path d="M 720 222.133237 
L 712.5 220.602865 
L 706.396179 219 
L 701.25 217.434748 
L 696.899414 216 
L 688.920898 213 
L 667.5 204.528223 
L 663.75 203.080228 
L 659.177777 201 
L 652.5 197.598079 
L 642.910699 192 
L 633.75 186.472778 
L 626.25 182.229965 
L 622.5 179.804297 
L 618.443555 177 
L 614.524536 174 
L 604.874908 165.863341 
M 587.642097 150.572475 
L 583.493555 147 
L 579.680786 144 
L 577.5 142.389573 
L 547.5 123.130371 
L 543.75 122.081881 
L 540 121.410278 
L 536.25 120.404297 
L 532.5 120.697266 
L 531.660699 120 
L 530.203857 117 
L 528.75 113.673828 
L 525 113.197266 
L 521.25 113.003581 
L 517.5 113.065186 
L 513.75 115.262578 
L 510 114.488029 
L 508.545297 114 
L 510 112.108887 
L 510.130457 111 
L 510 107.969128 
L 509.910278 108 
L 506.25 110.091588 
L 504.130371 111 
L 502.5 112.057538 
L 502.111816 111 
L 501.536739 108 
L 506.25 102.993963 
L 507.778545 102 
L 508.986742 99 
L 510 97.214474 
L 511.030632 96 
L 509.681794 93 
L 506.25 88.686071 
L 505.183196 87 
L 502.5 82.239085 
L 501.275322 81 
L 497.116062 78 
L 495 76.003305 
L 493.471527 75 
L 491.25 73.276634 
L 487.5 73.066406 
L 483.75 71.3017 
L 476.25 65.596768 
L 472.144442 63 
L 468.75 61.642223 
L 465 60.720424 
L 459.973145 60 
L 457.5 59.590652 
L 453.75 58.007161 
L 449.967773 57 
L 446.25 56.217311 
L 442.5 55.585732 
L 434.967773 54 
L 420 50.856445 
L 416.25 50.256445 
L 408.75 48.796258 
L 404.348145 48 
L 401.25 47.291853 
L 386.25 44.406445 
L 382.5 43.506445 
L 377.323608 42 
L 371.25 39.954153 
L 367.479858 39 
L 363.75 37.863281 
L 358.104858 36 
L 356.25 35.576032 
L 352.5 35.111592 
L 348.75 35.002387 
L 345 35.669531 
L 344.577526 36 
L 339.71567 39 
L 337.5 40.016602 
L 333.75 38.915556 
L 330 38.76655 
L 327.520545 36 
L 326.25 33.164679 
L 322.5 34.977076 
L 321.466194 36 
L 318.75 37.418457 
L 315 36.142223 
L 314.927572 36 
L 316.444542 33 
L 316.292525 30 
L 316.276558 27 
L 315.859187 24 
L 315 23.31265 
L 309.363491 21 
L 307.5 19.695557 
L 300 16.043419 
L 299.107602 15 
L 296.868286 12 
L 296.25 11.543419 
L 292.5 11.256445 
L 285 9.880371 
L 281.25 9.56033 
L 280.254677 9 
L 277.5 7.255371 
L 273.75 6.755371 
L 266.25 5.304297 
L 258.75 3.396909 
L 255 3.142223 
L 251.25 1.863281 
L 247.5 1.233132 
L 243.75 0.725156 
L 240 -0.474844 
L 237.441707 -1 
M 506.25 125.525156 
L 504.865594 123 
L 506.25 120.895703 
L 506.987487 123 
L 506.25 125.525156 
L 506.25 125.525156 
" clip-path="url(#p2574dc703d)" style="fill: none; stroke: #000000"/>
    <path d="M 720 253.173876 
L 708.75 250.860212 
L 697.5 248.288783 
L 693.75 247.320217 
L 678.75 242.860212 
L 675 241.578223 
L 667.5 238.759242 
L 656.25 235.003069 
L 645 230.934748 
L 641.425433 229.470223 
M 620.133124 220.670634 
L 607.5 215.360212 
L 602.180786 213 
L 596.25 209.845498 
L 589.679443 207 
L 573.75 200.060826 
L 569.481312 198 
L 562.5 194.347778 
L 555 189.9719 
L 547.5 185.441528 
L 543.31111 183 
L 540 180.778352 
L 538.629039 180 
L 532.5 176.176859 
L 528.75 173.617061 
L 525 170.74654 
L 520.901767 168 
L 515.429443 165 
L 510 162.31479 
L 509.286804 162 
L 506.25 160.822088 
L 495 155.617061 
L 490.057309 153 
L 485.123098 150 
L 472.5 140.779147 
L 468.75 138.437779 
L 467.655552 138 
L 465 137.070557 
L 461.25 135.010742 
L 457.5 135.505371 
L 453.75 137.362769 
L 450 136.505859 
L 449.34268 135 
L 449.527222 132 
L 448.072791 129 
L 446.25 127.038928 
L 444.034639 126 
L 442.5 123.68099 
L 438.75 125.051314 
L 435 123.965156 
L 434.371643 123 
L 433.458585 120 
L 431.25 117.954153 
L 427.5 116.690995 
L 423.75 116.006138 
L 420 115.096768 
L 412.5 113.005371 
L 397.5 109.049083 
L 371.25 103.440387 
L 363.75 101.577567 
L 360 100.43471 
L 352.5 97.956445 
L 345 95.556445 
L 336.073608 93 
L 330 91.148996 
L 322.5 89.222996 
L 311.25 86.87517 
L 307.5 86.255371 
L 296.25 83.733132 
L 292.5 83.755371 
L 288.75 84.294481 
L 285 84.276634 
L 277.5 84.704297 
L 273.75 84.107893 
L 270 85.309952 
L 262.5 84.100932 
L 258.75 83.87517 
L 256.245117 81 
L 255 79.904297 
L 247.5 77.856445 
L 243.729858 75 
L 240 73.508057 
L 232.5 72.360524 
L 231.803533 72 
L 228.75 70.656445 
L 225 69.306445 
L 221.25 68.375206 
L 217.5 68.258057 
L 213.75 67.163762 
L 210 66.673828 
L 206.25 65.84889 
L 198.75 65.006138 
L 195 64.656445 
L 187.5 63.43471 
L 180 61.806445 
L 172.5 61.755371 
L 168.75 60.840495 
L 167.030806 60 
L 165 59.187678 
L 161.25 59.324041 
L 157.5 58.808594 
L 154.308733 60 
L 151.094448 63 
L 150 63.437779 
L 149.042358 63 
L 146.25 62.106445 
L 142.5 61.056445 
L 138.75 60.720424 
L 135 61.006138 
L 131.25 60.808594 
L 127.5 62.794922 
L 126.782227 63 
L 120 64.269942 
L 116.25 64.656445 
L 112.5 64.701257 
L 108.75 64.925156 
L 105 66.240685 
L 101.25 66.755371 
L 97.5 66.725156 
L 93.75 65.6143 
L 90 65.445557 
L 88.151855 66 
L 86.25 66.702224 
L 82.855558 69 
L 82.5 72.128906 
L 82.38423 75 
L 80.550484 78 
L 78.75 79.380371 
L 75 80.045156 
L 73.244773 81 
L 71.25 82.595818 
L 67.5 84.713465 
L 63.75 84.266474 
L 63.239258 84 
L 61.512529 81 
L 60 79.677416 
L 56.258481 81 
L 56.529367 84 
L 52.5 84.788783 
L 48.75 84.431641 
L 47.416992 84 
L 45 83.355469 
L 41.25 84.010742 
L 38.61242 87 
L 37.5 87.408889 
L 33.75 88.328579 
L 30 88.54654 
L 26.25 89.324041 
L 22.5 89.645156 
L 18.75 90.322574 
L 15 91.242877 
L 11.25 92.633057 
L 10.58283 93 
L 7.5 96.007583 
L 3.75 96.702224 
L -1 98.126445 
L -1 98.126445 
" clip-path="url(#p2574dc703d)" style="fill: none; stroke: #000000"/>
    <path d="M 720 297.004774 
L 719.983887 297 
L 716.25 295.933175 
L 712.5 294.861747 
L 709.483887 294 
L 708.75 293.782552 
L 705 292.56033 
L 701.25 291.449219 
L 699.871715 291 
L 697.5 290.226997 
L 693.75 289.004774 
L 690.66717 288 
L 690 287.790318 
L 686.25 286.611747 
L 682.5 285.433175 
L 681.121715 285 
L 678.75 284.254604 
L 675 283.038928 
L 671.861572 282 
L 671.25 281.790318 
L 667.5 280.504604 
L 663.75 279.21889 
L 663.111572 279 
L 660 277.851112 
L 656.25 276.351112 
L 655.299072 276 
L 652.5 274.966496 
L 648.75 273.581881 
L 647.174072 273 
L 645 272.197266 
L 641.25 270.782552 
L 639.049072 270 
L 637.5 269.46889 
L 633.75 268.183175 
L 630.299072 267 
L 630 266.893663 
L 626.25 265.449219 
L 622.756348 264 
L 622.5 263.897461 
L 618.75 262.338108 
L 615.276067 261 
L 615 260.897461 
L 611.25 259.449219 
L 607.756348 258 
L 607.5 257.897461 
L 603.75 256.338108 
L 600.524205 255 
L 600 254.797548 
L 596.25 253.290318 
L 593.427429 252 
L 592.5 251.590652 
L 588.75 249.893663 
L 586.864929 249 
L 585 248.147461 
L 581.25 246.235727 
L 580.771179 246 
L 577.5 244.325156 
L 574.911804 243 
L 573.75 242.449219 
L 570 240.782552 
L 568.113491 240 
L 566.25 239.254604 
L 562.5 237.581881 
L 561.318054 237 
L 558.75 235.735727 
L 555.431698 234 
L 555 233.797548 
L 551.25 232.142376 
L 548.489258 231 
L 547.5 230.629028 
L 543.75 229.222778 
L 541.032715 228 
L 540 227.535278 
L 536.25 226.170247 
L 532.739258 225 
L 532.5 224.920247 
L 528.75 223.753581 
L 525 222.586914 
L 523.113491 222 
L 521.25 221.403683 
L 517.5 220.203683 
L 513.75 219.003791 
L 513.737605 219 
L 510 217.785278 
L 506.25 216.404297 
L 504.986572 216 
L 502.5 215.204297 
L 498.75 214.304297 
L 495 213.433175 
L 492.834124 213 
L 491.25 212.645156 
L 487.5 212.092561 
L 483.75 211.831692 
L 480 211.642223 
L 478.133057 213 
L 477.472778 216 
L 476.25 217.304297 
L 474.262848 219 
L 472.5 221.256445 
L 471.919098 222 
L 468.75 223.690186 
L 466.504604 225 
L 465 225.585124 
L 464.601052 225 
L 464.175519 222 
L 463.504788 219 
L 463.141639 216 
L 462.569192 213 
L 461.793518 210 
L 461.25 208.772289 
L 458.111572 207 
L 457.5 206.673828 
L 456.032227 207 
L 453.75 207.169054 
L 450.455364 210 
L 450 211.760742 
L 449.266357 210 
L 449.122314 207 
L 447.990797 204 
L 446.784276 201 
L 446.25 200.061351 
L 444.474174 198 
L 442.792077 195 
L 442.718558 192 
L 442.5 190.735727 
L 441.246419 189 
L 438.75 187.550466 
L 436.246643 186 
L 435 184.226997 
L 433.407264 183 
L 431.25 180.756445 
L 429.899205 180 
L 427.5 178.720424 
L 423.75 177.788213 
L 420 177.130371 
L 419.441267 177 
L 416.25 176.31265 
L 412.5 175.338108 
L 408.75 174.540318 
L 406.04841 174 
L 405.049241 173.800166 
M 382.587827 168.717479 
L 382.5 168.697266 
L 378.75 168.004958 
L 378.723145 168 
L 375 167.285156 
L 371.25 166.565156 
L 367.5 165.755371 
L 363.75 165.005371 
L 363.723145 165 
L 360 164.255371 
L 356.25 163.570822 
L 352.5 162.880371 
L 348.75 162.245156 
L 347.217773 162 
L 345 161.645156 
L 341.25 161.045156 
L 337.5 160.505371 
L 333.75 160.049083 
L 330 159.657779 
L 326.25 159.266474 
L 323.696289 159 
L 322.5 158.87517 
L 318.75 158.353431 
L 315 157.831692 
L 311.25 157.309952 
L 307.5 156.824041 
L 303.75 156.291853 
L 301.196289 156 
L 300 155.869496 
L 296.25 155.460405 
L 292.5 154.91495 
L 288.75 154.369496 
L 285 153.824041 
L 281.25 153.278587 
L 278.696289 153 
L 277.5 152.869496 
L 273.75 152.596768 
L 270 152.460405 
L 266.25 152.43471 
L 262.5 152.324041 
L 258.75 152.148996 
L 255 151.863281 
L 251.25 151.720424 
L 247.5 151.743627 
L 243.75 151.901521 
L 240 152.059416 
L 236.25 152.106445 
L 232.5 152.106445 
L 228.75 152.059416 
L 225 151.840495 
L 221.25 151.743627 
L 217.5 151.673828 
L 213.75 151.507161 
L 210 151.340495 
L 206.25 151.007161 
L 202.5 150.713465 
L 198.75 150.383057 
L 195 150.008594 
L 194.838867 150 
L 191.25 149.808594 
L 187.5 149.408594 
L 183.75 149.152065 
L 180 148.937779 
L 176.25 148.937779 
L 172.5 149.208594 
L 168.75 149.608594 
L 165 149.820557 
L 163.205566 150 
L 161.25 150.208594 
L 157.5 150.808594 
L 153.75 151.509208 
L 150 152.152065 
L 146.290283 153 
L 146.25 153.009208 
L 142.5 153.86635 
L 138.75 154.723493 
L 135 155.008594 
L 131.25 155.208594 
L 127.5 155.007161 
L 123.75 155.12523 
L 120 155.794922 
L 119.551392 156 
L 116.25 157.509208 
L 113.641113 159 
L 112.5 159.608594 
L 109.050856 162 
L 108.75 162.173828 
L 105.009478 165 
L 105 165.006785 
L 103.658701 168 
L 101.25 170.553223 
L 100.921487 171 
L 98.752686 174 
L 97.5 174.871433 
L 94.334675 177 
L 93.75 177.484445 
L 90 179.403683 
L 88.559437 177 
L 89.320679 174 
L 90 173.689453 
L 92.046323 171 
L 91.373926 168 
L 91.78946 165 
L 93.75 162.134369 
L 93.930152 162 
L 96.542538 159 
L 97.049345 156 
L 93.75 153.507161 
L 90 155.755371 
L 89.633057 156 
L 86.25 158.577567 
L 86.058813 159 
L 82.5 161.26204 
L 78.75 159.532593 
L 77.836984 159 
L 75 157.395241 
L 73.809234 156 
L 71.25 153.767887 
L 68.928888 153 
L 67.5 152.614288 
L 64.999244 150 
L 63.75 149.08639 
L 60 147.277092 
L 58.366062 147 
L 56.25 145.854837 
L 52.5 145.327321 
L 48.945557 147 
L 48.75 147.100932 
L 45.345792 150 
L 45 150.760742 
L 41.641113 153 
L 41.25 153.074498 
L 37.5 153.577211 
L 33.75 153.303223 
L 30 153.571052 
L 26.25 154.269942 
L 22.5 155.254028 
L 20.510742 156 
L 18.75 157.760742 
L 15 157.759242 
L 12.109597 159 
L 11.25 159.605156 
L 7.5 160.956445 
L 6.709428 162 
L 3.75 164.893663 
L 0 163.778141 
L -1 163.695467 
M 472.5 228.164679 
L 472.444127 228 
L 472.5 227.804443 
L 472.552148 228 
L 472.5 228.164679 
z
" clip-path="url(#p2574dc703d)" style="fill: none; stroke: #000000"/>
    <path d="M 720 359.596768 
L 716.25 358.233132 
L 712.858887 357 
L 712.5 356.869496 
L 708.75 355.445156 
L 705 354.005371 
L 704.986572 354 
L 701.25 352.565156 
L 697.5 351.005371 
L 697.486572 351 
L 693.75 349.440387 
L 690.299072 348 
L 690 347.87517 
L 686.25 346.309952 
L 682.826261 345 
L 682.5 344.869496 
L 678.75 343.369496 
L 675.326261 342 
L 675 341.863281 
L 671.25 340.291853 
L 668.424072 339 
L 667.5 338.577567 
L 663.75 337.006138 
L 661.348988 336 
L 660 335.43471 
L 656.25 333.863281 
L 653.983887 333 
L 652.5 332.460405 
L 648.75 330.960405 
L 648.136502 330.715005 
M 626.980411 321.597312 
L 626.25 321.278587 
L 625.611572 321 
L 622.5 319.701257 
L 618.75 318.142223 
L 618.424072 318 
L 615 316.630371 
L 611.25 315.005605 
L 611.236572 315 
L 607.5 313.565156 
L 603.75 312.005156 
L 603.737605 312 
L 600 310.56033 
L 596.25 309.004958 
L 596.237605 309 
L 592.5 307.611747 
L 588.75 306.115885 
L 588.449144 306 
L 585 304.763066 
L 581.25 303.433175 
L 579.986572 303 
L 577.5 302.176859 
L 573.75 300.832031 
L 571.429913 300 
L 570 299.504297 
L 566.25 298.245824 
L 562.776067 297 
L 562.5 296.904297 
L 558.75 295.604297 
L 555 294.31479 
L 554.122221 294 
L 551.25 293.036416 
L 547.5 291.875126 
L 545.077776 291 
L 543.75 290.549361 
L 540 289.276634 
L 536.25 288.003906 
L 536.239258 288 
L 532.5 286.597778 
L 528.75 285.276634 
L 527.934919 285 
L 525 283.866514 
L 521.25 282.584803 
L 519.189897 282 
L 517.5 281.405156 
L 513.75 280.226997 
L 510 279.115885 
L 509.608887 279 
L 506.25 277.880371 
L 502.5 276.725156 
L 500.233887 276 
L 498.75 275.460405 
L 495 274.233132 
L 491.25 273.278587 
L 489.973145 273 
L 487.5 272.483865 
L 483.75 271.91495 
L 480 271.291853 
L 476.25 270.505371 
L 472.5 270.004958 
L 472.459717 270 
L 468.75 269.525156 
L 465 269.045156 
L 461.25 268.505371 
L 457.5 268.148996 
L 453.75 268.148996 
L 450 267.863281 
L 447.482096 267 
L 446.25 266.658804 
L 442.553711 267 
L 442.5 267.006138 
L 438.75 269.170247 
L 438.271297 270 
L 435 272.758499 
L 434.492298 273 
L 431.25 274.81157 
L 429.182447 273 
L 429.333392 270 
L 431.25 267.515019 
L 431.511111 267 
L 431.714633 264 
L 431.480875 261 
L 431.25 259.394531 
L 427.5 258.304297 
L 423.75 259.803683 
L 422.815377 261 
L 421.232986 264 
L 420 265.0349 
L 418.482478 264 
L 416.333462 261 
L 416.25 260.840495 
L 415.430627 258 
L 416.25 256.654502 
L 416.984475 255 
L 418.246419 252 
L 417.399715 249 
L 416.813299 246 
L 416.25 244.347656 
L 415.302429 243 
L 413.736572 240 
L 412.5 238.92081 
L 408.75 237.240685 
L 408.098145 237 
L 405 236.070557 
L 401.25 235.208594 
L 397.5 234.408594 
L 393.75 234.008594 
L 390 234.008594 
L 386.25 234.009208 
L 382.5 234.223493 
L 378.75 234.383057 
L 375 234.008057 
L 374.919434 234 
L 371.25 233.633057 
L 367.5 233.258057 
L 363.75 232.883057 
L 360 232.408594 
L 356.25 231.945557 
L 352.5 231.536994 
L 348.75 231.008057 
L 348.669434 231 
L 345 230.633057 
L 341.25 230.258057 
L 337.5 230.070557 
L 333.75 230.070557 
L 330 229.883057 
L 326.25 229.695557 
L 322.5 229.508057 
L 318.75 229.408594 
L 315 229.408594 
L 311.25 229.508057 
L 307.5 229.508057 
L 303.75 229.419347 
L 300 229.242877 
L 296.25 229.340495 
L 292.5 229.595818 
L 288.75 229.948759 
L 285 230.340495 
L 281.25 230.673828 
L 278.803711 231 
L 277.5 231.173828 
L 273.75 231.796258 
L 270 232.427837 
L 266.25 232.956445 
L 262.5 233.375206 
L 258.75 233.556445 
L 255 233.856445 
L 253.205566 234 
L 251.25 234.164679 
L 247.5 234.638363 
L 243.75 235.007161 
L 240 235.419347 
L 236.25 235.508057 
L 232.5 235.595818 
L 228.75 236.258057 
L 225 236.808594 
L 221.411133 237 
L 221.25 237.009208 
L 217.5 237.208594 
L 213.75 237.383057 
L 210 237.713465 
L 206.25 238.133057 
L 202.5 238.508057 
L 198.75 238.772289 
L 195 238.840495 
L 191.25 238.840495 
L 187.5 238.901521 
L 183.75 238.956445 
L 180 239.148996 
L 176.25 239.460405 
L 172.5 239.733132 
L 168.830566 240 
L 168.75 240.005859 
L 165 240.142223 
L 161.25 240.148996 
L 157.5 240.006445 
L 157.338867 240 
L 153.75 239.863281 
L 150 239.863281 
L 146.411133 240 
L 146.25 240.006138 
L 142.5 240.278587 
L 138.75 240.551314 
L 135 240.824041 
L 131.25 241.148996 
L 127.5 241.43471 
L 123.75 241.806445 
L 120 242.059416 
L 116.25 242.106445 
L 112.5 242.106445 
L 108.75 242.106445 
L 105 242.217311 
L 101.25 242.375206 
L 97.5 242.507161 
L 93.75 242.507161 
L 90 242.654642 
L 86.330566 243 
L 86.25 243.006785 
L 82.5 243.306445 
L 78.75 243.480469 
L 75 243.383057 
L 71.25 243.184053 
L 69.946289 243 
L 67.5 242.733132 
L 63.75 242.720424 
L 60 241.863281 
L 56.25 240.312891 
L 55.410278 243 
L 56.25 244.414268 
L 57.887441 246 
L 56.25 246.836914 
L 52.5 246.133237 
L 51.989258 246 
L 48.75 244.611747 
L 46.541415 246 
L 45.153223 249 
L 45 249.180262 
L 44.361572 249 
L 41.25 248.49371 
L 38.330776 246 
L 37.5 245.278085 
L 35.268093 243 
L 33.75 240.957475 
L 30.978361 240 
L 30 239.428035 
L 26.25 238.349273 
L 22.5 238.316528 
L 18.75 237.704297 
L 16.863491 237 
L 15 236.051314 
L 11.25 234.889936 
L 7.5 234.260742 
L 3.75 234.536994 
L 0 235.419347 
L -1 235.693003 
M 427.5 276.005156 
L 427.498508 276 
L 427.5 275.995842 
L 427.506445 276 
L 427.5 276.005156 
z
" clip-path="url(#p2574dc703d)" style="fill: none; stroke: #000000"/>
    <path d="M 720 480.521484 
L 716.25 480.875558 
L 712.5 481.521484 
L 708.75 480.042969 
L 708.732096 480 
L 707.712624 477 
L 707.030806 474 
L 705 471.021484 
L 704.959717 471 
L 701.25 470.086839 
L 697.5 469.509208 
L 693.75 468.932993 
L 690.717773 468 
L 690 467.641113 
L 686.25 466.014323 
L 683.397217 465 
L 682.5 464.589844 
L 678.75 463.516113 
L 675 462.766113 
L 672.446289 462 
L 671.25 461.425781 
L 668.217773 459 
L 667.5 458.641113 
L 663.75 456.347656 
L 663.261108 456 
L 660 453.391113 
L 659.511108 453 
L 656.25 450.912891 
L 654.823608 450 
L 652.5 448.141113 
L 651.073608 447 
L 648.75 445.141113 
L 647.119838 444 
L 645 442.812891 
L 641.762695 441 
L 641.25 440.738991 
L 637.5 438.912891 
L 635.598145 438 
L 633.75 437.112891 
L 630 435.011719 
L 629.973145 435 
L 626.25 433.6253 
L 622.948608 432 
L 622.5 431.589844 
L 619.667358 429 
L 618.75 428.466264 
L 615 426.557173 
L 613.905552 426 
L 611.25 424.512891 
L 609.148763 423 
L 607.5 421.68099 
L 605.136108 420 
L 603.75 419.014323 
L 601.232096 417 
L 600 416.193537 
L 596.25 414.260742 
L 595.761108 414 
L 592.5 412.394531 
L 589.667358 411 
L 588.75 410.412891 
L 585 408.014323 
L 584.979858 408 
L 582.06543 405 
L 581.25 403.825781 
L 579.982096 402 
L 577.5 399.766113 
L 576.648763 399 
L 573.75 397.394531 
L 570.917358 396 
L 570 395.580636 
L 566.25 393.86635 
L 564.354858 393 
L 562.5 392.010742 
L 560.910052 391.16277 
M 541.220272 379.258657 
L 540 378.557173 
L 538.905552 378 
L 536.25 376.512891 
L 533.54841 375 
L 532.5 374.510742 
L 528.75 372.829901 
L 526.848145 372 
L 525 371.193537 
L 521.25 369.284446 
L 520.598145 369 
L 517.5 367.648082 
L 513.75 366.011719 
L 513.723145 366 
L 510 364.375355 
L 506.848145 363 
L 506.25 362.738991 
L 502.5 361.375355 
L 499.348145 360 
L 498.75 359.738991 
L 495 357.510742 
L 494.233887 357 
L 491.25 354.829901 
L 490.212624 354 
L 487.5 351.829901 
L 486.358887 351 
L 483.75 349.102628 
L 481.854858 348 
L 480 346.92081 
L 476.25 345.510742 
L 474.717773 345 
L 472.5 344.014323 
L 468.75 342.612891 
L 466.834717 342 
L 465 341.266113 
L 461.25 340.014323 
L 457.5 339.012891 
L 457.338867 339 
L 453.75 338.68099 
L 450 338.712891 
L 448.205566 339 
L 446.25 339.260742 
L 442.5 339.557173 
L 438.75 340.347656 
L 435 341.161272 
L 431.25 341.347656 
L 428.803711 342 
L 427.5 342.446987 
L 423.75 344.112891 
L 422.363892 345 
L 420 346.512891 
L 416.282227 348 
L 416.25 348.018415 
L 412.5 349.225781 
L 410.282227 351 
L 408.75 351.437779 
L 405 352.080636 
L 401.25 353.510742 
L 397.5 353.712891 
L 394.674072 351 
L 393.75 350.556445 
L 393.166375 351 
L 392.93457 354 
L 390 356.112891 
L 387.782227 357 
L 386.25 357.291853 
L 382.5 357.010742 
L 382.338867 357 
L 378.75 356.521484 
L 375 355.648082 
L 371.25 354.011719 
L 371.226981 354 
L 367.5 352.695557 
L 366.087036 351 
L 366.360549 348 
L 366.716512 345 
L 367.5 343.495703 
L 368.804392 342 
L 369.343675 339 
L 367.5 337.610564 
L 363.75 338.106445 
L 360 338.36635 
L 357.782227 339 
L 356.25 339.510742 
L 355.824382 339 
L 354.364929 336 
L 352.5 334.743627 
L 348.75 333.446987 
L 348.563756 333 
L 345 331.336914 
L 341.258057 333 
L 341.25 333.016113 
L 341.088867 333 
L 337.5 332.794922 
L 333.75 332.608594 
L 330 331.92081 
L 326.25 332.008594 
L 322.5 330.702224 
L 320.869838 330 
L 318.75 328.812891 
L 315.040283 330 
L 315 330.009916 
L 314.946289 330 
L 311.25 329.112891 
L 307.5 329.408594 
L 303.803711 330 
L 303.75 330.010742 
L 303.696289 330 
L 300 329.193537 
L 296.25 329.712891 
L 292.661133 330 
L 292.5 330.012891 
L 288.75 331.102628 
L 285 331.375355 
L 281.25 331.102628 
L 277.5 331.102628 
L 273.75 331.102628 
L 270 331.212891 
L 266.25 331.014323 
L 262.5 331.014323 
L 258.75 331.212891 
L 255 331.375355 
L 251.25 331.102628 
L 247.5 330.829901 
L 243.75 330.260742 
L 241.794434 330 
L 240 329.779147 
L 236.25 329.779147 
L 232.5 329.779147 
L 228.75 329.580636 
L 225 329.580636 
L 221.25 329.820557 
L 220.053711 330 
L 217.5 330.408594 
L 213.75 330.945557 
L 210 331.608594 
L 206.25 332.208594 
L 202.540283 333 
L 202.5 333.008057 
L 198.75 333.760742 
L 195 334.260742 
L 191.25 334.85607 
L 187.5 335.466264 
L 183.75 335.712891 
L 180 335.712891 
L 176.25 335.68099 
L 172.661133 336 
L 172.5 336.012891 
L 172.338867 336 
L 168.75 335.641113 
L 165 335.112891 
L 161.25 334.760742 
L 157.5 334.85607 
L 153.75 335.208594 
L 150 335.820557 
L 149.282227 336 
L 146.25 336.808594 
L 142.5 337.883057 
L 139.308733 339 
L 138.75 339.223493 
L 135 340.394531 
L 131.25 341.548377 
L 129.415283 342 
L 127.5 342.408594 
L 123.75 343.080636 
L 120 343.723493 
L 116.25 344.580636 
L 114.782227 345 
L 112.5 345.702224 
L 108.75 346.6253 
L 105 347.548377 
L 103.165283 348 
L 101.25 348.510742 
L 97.5 348.347656 
L 93.75 348.557173 
L 90 349.375355 
L 86.25 350.466264 
L 82.580566 351 
L 82.5 351.016113 
L 78.75 351.766113 
L 75 353.161272 
L 73.776855 354 
L 71.25 355.732701 
L 69.401855 357 
L 67.5 358.304129 
L 65.026855 360 
L 63.75 361.225781 
L 61.901855 363 
L 60 364.141113 
L 56.282227 366 
L 56.25 366.018415 
L 52.5 368.021484 
L 51.032227 369 
L 48.75 370.141113 
L 45.651855 372 
L 45 372.347656 
L 41.25 373.648082 
L 37.5 374.712891 
L 33.75 374.466264 
L 30 374.712891 
L 29.102783 375 
L 26.25 376.825781 
L 24.782227 378 
L 22.5 379.825781 
L 21.276855 381 
L 18.75 383.425781 
L 18.032227 384 
L 15 386.021484 
L 13.532227 387 
L 11.25 388.304129 
L 9.130162 390 
L 7.5 391.521484 
L 5.651855 393 
L 3.75 394.141113 
L 1.426392 396 
L 0 397.825781 
L -1 398.785781 
M 348.75 322.708147 
L 349.232138 321 
L 350.482731 318 
L 348.75 315.001315 
L 345 316.537882 
L 343.752558 318 
L 345 319.612079 
L 347.255371 321 
L 348.75 322.708147 
z
" clip-path="url(#p2574dc703d)" style="fill: none; stroke: #000000"/>
    <path d="M 321.973633 690.771332 
L 322.5 690.574219 
L 326.25 689.974219 
L 330 687.957031 
L 331.196289 687 
L 333.75 685.774219 
L 336.522217 684 
L 337.5 683.217773 
L 348.75 676.467773 
L 350.217773 675 
L 350.544434 672 
L 348.75 671.042969 
L 346.196289 669 
L 345 668.282227 
L 339.294434 666 
L 338.397217 663 
L 337.5 661.564453 
L 333.75 660.032227 
L 330 660.032227 
L 326.25 660.625781 
L 322.5 660.782227 
L 318.75 661.532227 
L 315 663.021484 
L 311.088867 663 
L 307.5 662.042969 
L 300 658.042969 
L 296.25 657.064453 
L 292.5 659.042969 
L 288.75 660.021484 
L 284.838867 660 
L 282.446289 657 
L 285 654.957031 
L 286.794434 654 
L 288.669434 651 
L 285 648.064453 
L 281.169434 648 
L 277.5 646.825781 
L 266.25 646.021484 
L 258.75 646.521484 
L 255 648.042969 
L 251.25 649.225781 
L 247.5 649.225781 
L 243.75 648.521484 
L 240 647.589844 
L 232.5 646.521484 
L 228.75 646.521484 
L 225 647.425781 
L 223.803711 648 
L 221.25 648.68099 
L 217.523019 651 
L 217.661133 654 
L 217.446289 654 
L 213.75 652.225781 
L 210 652.042969 
L 206.25 652.304129 
L 203.397217 651 
L 206.25 649.858887 
L 209.967773 648 
L 206.25 646.648082 
L 202.5 647.68099 
L 201.782227 648 
L 198.75 649.516113 
L 187.338867 651 
L 183.75 650.589844 
L 180 649.532227 
L 177.446289 648 
L 176.25 647.641113 
L 168.75 649.102628 
L 165 649.347656 
L 161.25 650.266113 
L 157.5 651.875558 
L 153.75 653.021484 
L 150 654.064453 
L 146.330566 657 
L 146.25 663.064453 
L 142.5 666.042969 
L 138.75 666.064453 
L 135.080566 669 
L 135.161133 675 
L 137.553711 678 
L 137.282227 681 
L 137.852783 684 
L 138.032227 687 
L 138.75 688.435547 
L 140.705566 690 
L 139.727783 693 
L 141.303711 696 
L 142.5 696.574219 
L 148.803711 699 
L 150 699.574219 
L 153.75 700.978516 
L 157.5 700.858887 
L 161.25 701.233887 
L 163.803711 702 
L 166.303711 705 
L 168.75 706.957031 
L 172.5 707.374219 
L 180 708.574219 
L 183.911133 708 
L 195 712.435547 
L 198.75 712.957031 
L 206.25 711.957031 
L 210.161133 714 
L 217.5 715.174219 
L 221.25 715.978516 
L 225 715.978516 
L 228.75 715.774219 
L 232.5 715.174219 
L 236.25 713.974219 
L 240 713.974219 
L 255 711.478516 
L 255.897217 711 
L 258.75 709.174219 
L 262.5 708.574219 
L 266.25 709.478516 
L 270 708.978516 
L 273.75 707.974219 
L 277.5 707.374219 
L 281.25 707.374219 
L 285 706.174219 
L 288.75 705.574219 
L 292.5 704.374219 
L 296.25 702.957031 
L 297.446289 702 
L 300 700.467773 
L 301.05583 699.623109 
L 301.05583 699.623109 
" clip-path="url(#p2574dc703d)" style="fill: none; stroke: #000000"/>
    <path clip-path="url(#p2574dc703d)" style="fill: none; stroke: #000000"/>
    <path clip-path="url(#p2574dc703d)" style="fill: none; stroke: #000000"/>
    <path clip-path="url(#p2574dc703d)" style="fill: none; stroke: #000000"/>
    <path clip-path="url(#p2574dc703d)" style="fill: none; stroke: #000000"/>
    <path clip-path="url(#p2574dc703d)" style="fill: none; stroke: #000000"/>
    <path clip-path="url(#p2574dc703d)" style="fill: none; stroke: #000000"/>
    <path clip-path="url(#p2574dc703d)" style="fill: none; stroke: #000000"/>
   </g>
   <g id="patch_3">
    <path d="M 0 720 
L 0 720 
L 0 0 
L 720 0 
L 720 720 
L 0 720 
z
" style="fill: none; stroke: #000000; stroke-width: 0.8; stroke-linejoin: miter; stroke-linecap: square"/>
   </g>
   <g id="text_1">
    <g clip-path="url(#p2574dc703d)">
     <!-- 1320 -->
     <g transform="translate(694.72039 129.555554) rotate(-303.253048) scale(0.08 -0.08)">
      <defs>
       <path id="MS-Gothic-31" d="M 1375 50 
L 1375 2000 
L 1375 3925 
L 625 3925 
L 625 4225 
Q 1500 4225 1650 4925 
L 1950 4925 
L 1950 50 
L 1375 50 
z
" transform="scale(0.015625)"/>
       <path id="MS-Gothic-33" d="M 850 1500 
Q 825 950 1075 700 
Q 1250 525 1550 525 
Q 1800 525 2025 750 
Q 2250 975 2250 1500 
Q 2250 1900 1975 2175 
Q 1775 2375 1375 2350 
L 1375 2775 
Q 1775 2800 1975 3000 
Q 2175 3200 2175 3600 
Q 2175 4100 1950 4325 
Q 1800 4475 1575 4475 
Q 1350 4475 1200 4325 
Q 950 4075 925 3575 
L 375 3575 
Q 400 4225 800 4625 
Q 1100 4925 1575 4925 
Q 2075 4925 2375 4625 
Q 2725 4275 2725 3700 
Q 2725 3175 2450 2900 
Q 2200 2650 1975 2575 
Q 2300 2475 2475 2300 
Q 2825 1950 2825 1450 
Q 2825 800 2425 400 
Q 2075 50 1550 50 
Q 975 50 650 375 
Q 275 750 275 1500 
L 850 1500 
z
" transform="scale(0.015625)"/>
       <path id="MS-Gothic-32" d="M 2850 525 
L 2850 50 
L 300 50 
L 300 450 
Q 875 1525 1725 2500 
Q 2200 3050 2200 3650 
Q 2200 4075 1975 4300 
Q 1825 4450 1575 4450 
Q 1375 4450 1175 4250 
Q 950 4025 950 3325 
L 400 3325 
Q 425 4225 825 4625 
Q 1125 4925 1625 4925 
Q 2100 4925 2425 4600 
Q 2775 4250 2775 3625 
Q 2775 2900 2100 2125 
Q 1375 1300 900 525 
L 2850 525 
z
" transform="scale(0.015625)"/>
       <path id="MS-Gothic-30" d="M 200 2500 
Q 200 3975 800 4575 
Q 1150 4925 1575 4925 
Q 2000 4925 2350 4575 
Q 2950 3975 2950 2500 
Q 2950 1000 2350 400 
Q 2000 50 1575 50 
Q 1150 50 800 400 
Q 200 1000 200 2500 
z
M 2375 2500 
Q 2375 3825 1900 4300 
Q 1750 4450 1575 4450 
Q 1400 4450 1250 4300 
Q 775 3800 775 2500 
Q 775 1150 1250 675 
Q 1400 525 1575 525 
Q 1750 525 1900 675 
Q 2375 1150 2375 2500 
z
" transform="scale(0.015625)"/>
      </defs>
      <use xlink:href="#MS-Gothic-31"/>
      <use xlink:href="#MS-Gothic-33" transform="translate(50 0)"/>
      <use xlink:href="#MS-Gothic-32" transform="translate(100 0)"/>
      <use xlink:href="#MS-Gothic-30" transform="translate(150 0)"/>
     </g>
    </g>
   </g>
   <g id="text_2">
    <g clip-path="url(#p2574dc703d)">
     <!-- 1350 -->
     <g transform="translate(685.445436 39.697971) rotate(-39.406559) scale(0.08 -0.08)">
      <defs>
       <path id="MS-Gothic-35" d="M 850 1425 
Q 850 925 1100 675 
Q 1250 525 1525 525 
Q 1750 525 1950 725 
Q 2250 1025 2250 1725 
Q 2250 2375 2000 2625 
Q 1850 2775 1650 2775 
Q 1200 2775 925 2250 
L 425 2250 
L 575 4925 
L 2725 4925 
L 2725 4450 
L 1050 4450 
L 950 2825 
Q 1275 3200 1775 3200 
Q 2150 3200 2425 2925 
Q 2825 2525 2825 1725 
Q 2825 875 2350 400 
Q 2000 50 1500 50 
Q 975 50 675 350 
Q 300 725 275 1425 
L 850 1425 
z
" transform="scale(0.015625)"/>
      </defs>
      <use xlink:href="#MS-Gothic-31"/>
      <use xlink:href="#MS-Gothic-33" transform="translate(50 0)"/>
      <use xlink:href="#MS-Gothic-35" transform="translate(100 0)"/>
      <use xlink:href="#MS-Gothic-30" transform="translate(150 0)"/>
     </g>
    </g>
   </g>
   <g id="text_3">
    <g clip-path="url(#p2574dc703d)">
     <!-- 1380 -->
     <g transform="translate(607.351782 111.322599) rotate(-299.718869) scale(0.08 -0.08)">
      <defs>
       <path id="MS-Gothic-38" d="M 1575 2325 
Q 1300 2325 1100 2125 
Q 850 1875 850 1450 
Q 850 950 1100 700 
Q 1300 500 1575 500 
Q 1850 500 2050 700 
Q 2300 950 2300 1450 
Q 2300 1875 2050 2125 
Q 1850 2325 1575 2325 
z
M 2075 2550 
Q 2300 2475 2475 2300 
Q 2875 1900 2875 1450 
Q 2875 775 2475 375 
Q 2150 50 1575 50 
Q 1000 50 675 375 
Q 275 775 275 1450 
Q 275 1900 675 2300 
Q 850 2475 1075 2550 
Q 875 2625 750 2750 
Q 400 3100 400 3575 
L 400 3600 
Q 400 4225 775 4600 
Q 1100 4925 1575 4925 
Q 2050 4925 2375 4600 
Q 2750 4225 2750 3600 
L 2750 3575 
Q 2750 3100 2400 2750 
Q 2275 2625 2075 2550 
z
M 1575 4475 
Q 1325 4475 1150 4300 
Q 950 4100 950 3600 
L 950 3575 
Q 950 3125 1150 2925 
Q 1325 2750 1575 2750 
Q 1825 2750 2000 2925 
Q 2200 3125 2200 3575 
L 2200 3600 
Q 2200 4100 2000 4300 
Q 1825 4475 1575 4475 
z
" transform="scale(0.015625)"/>
      </defs>
      <use xlink:href="#MS-Gothic-31"/>
      <use xlink:href="#MS-Gothic-33" transform="translate(50 0)"/>
      <use xlink:href="#MS-Gothic-38" transform="translate(100 0)"/>
      <use xlink:href="#MS-Gothic-30" transform="translate(150 0)"/>
     </g>
    </g>
   </g>
   <g id="text_4">
    <g clip-path="url(#p2574dc703d)">
     <!-- 1410 -->
     <g transform="translate(588.556344 154.854451) rotate(-318.568647) scale(0.08 -0.08)">
      <defs>
       <path id="MS-Gothic-34" d="M 1875 50 
L 1875 625 
L 1875 1200 
L 200 1200 
L 200 1675 
L 1875 4925 
L 2450 4925 
L 2450 1675 
L 2975 1675 
L 2975 1200 
L 2450 1200 
L 2450 50 
L 1875 50 
z
M 1875 1675 
L 1875 3875 
L 750 1675 
L 1875 1675 
z
" transform="scale(0.015625)"/>
      </defs>
      <use xlink:href="#MS-Gothic-31"/>
      <use xlink:href="#MS-Gothic-34" transform="translate(50 0)"/>
      <use xlink:href="#MS-Gothic-31" transform="translate(100 0)"/>
      <use xlink:href="#MS-Gothic-30" transform="translate(150 0)"/>
     </g>
    </g>
   </g>
   <g id="text_5">
    <g clip-path="url(#p2574dc703d)">
     <!-- 1410 -->
     <g transform="translate(-68.307251 35.756598) rotate(-350.778638) scale(0.08 -0.08)">
      <use xlink:href="#MS-Gothic-31"/>
      <use xlink:href="#MS-Gothic-34" transform="translate(50 0)"/>
      <use xlink:href="#MS-Gothic-31" transform="translate(100 0)"/>
      <use xlink:href="#MS-Gothic-30" transform="translate(150 0)"/>
     </g>
    </g>
   </g>
   <g id="text_6">
    <g clip-path="url(#p2574dc703d)">
     <!-- 1440 -->
     <g transform="translate(622.434151 224.33554) rotate(-337.702322) scale(0.08 -0.08)">
      <use xlink:href="#MS-Gothic-31"/>
      <use xlink:href="#MS-Gothic-34" transform="translate(50 0)"/>
      <use xlink:href="#MS-Gothic-34" transform="translate(100 0)"/>
      <use xlink:href="#MS-Gothic-30" transform="translate(150 0)"/>
     </g>
    </g>
   </g>
   <g id="text_7">
    <g clip-path="url(#p2574dc703d)">
     <!-- 1470 -->
     <g transform="translate(385.375298 172.21666) rotate(-346.720229) scale(0.08 -0.08)">
      <defs>
       <path id="MS-Gothic-37" d="M 1025 50 
L 2250 4450 
L 400 4450 
L 400 4925 
L 2775 4925 
L 2775 4400 
L 1600 50 
L 1025 50 
z
" transform="scale(0.015625)"/>
      </defs>
      <use xlink:href="#MS-Gothic-31"/>
      <use xlink:href="#MS-Gothic-34" transform="translate(50 0)"/>
      <use xlink:href="#MS-Gothic-37" transform="translate(100 0)"/>
      <use xlink:href="#MS-Gothic-30" transform="translate(150 0)"/>
     </g>
    </g>
   </g>
   <g id="text_8">
    <g clip-path="url(#p2574dc703d)">
     <!-- 1500 -->
     <g transform="translate(629.142933 325.439896) rotate(-336.418211) scale(0.08 -0.08)">
      <use xlink:href="#MS-Gothic-31"/>
      <use xlink:href="#MS-Gothic-35" transform="translate(50 0)"/>
      <use xlink:href="#MS-Gothic-30" transform="translate(100 0)"/>
      <use xlink:href="#MS-Gothic-30" transform="translate(150 0)"/>
     </g>
    </g>
   </g>
   <g id="text_9">
    <g clip-path="url(#p2574dc703d)">
     <!-- 1530 -->
     <g transform="translate(543.094674 382.898676) rotate(-328.365737) scale(0.08 -0.08)">
      <use xlink:href="#MS-Gothic-31"/>
      <use xlink:href="#MS-Gothic-35" transform="translate(50 0)"/>
      <use xlink:href="#MS-Gothic-33" transform="translate(100 0)"/>
      <use xlink:href="#MS-Gothic-30" transform="translate(150 0)"/>
     </g>
    </g>
   </g>
   <g id="text_10">
    <g clip-path="url(#p2574dc703d)">
     <!-- 1560 -->
     <g transform="translate(304.60707 700.120294) rotate(-19.97977) scale(0.08 -0.08)">
      <defs>
       <path id="MS-Gothic-36" d="M 2225 3800 
Q 2225 4175 2050 4350 
Q 1950 4450 1800 4450 
Q 1600 4450 1450 4300 
Q 1025 3875 925 2625 
Q 1275 3200 1775 3200 
Q 2150 3200 2450 2900 
Q 2850 2500 2850 1675 
Q 2850 775 2425 350 
Q 2125 50 1650 50 
Q 1225 50 875 400 
Q 350 925 350 2425 
Q 350 3900 1075 4625 
Q 1375 4925 1825 4925 
Q 2200 4925 2425 4700 
Q 2775 4350 2800 3800 
L 2225 3800 
z
M 1675 2750 
Q 1450 2750 1275 2575 
Q 975 2275 975 1775 
Q 975 1000 1325 650 
Q 1475 500 1675 500 
Q 1875 500 2050 675 
Q 2275 900 2275 1675 
Q 2275 2350 2025 2600 
Q 1875 2750 1675 2750 
z
" transform="scale(0.015625)"/>
      </defs>
      <use xlink:href="#MS-Gothic-31"/>
      <use xlink:href="#MS-Gothic-35" transform="translate(50 0)"/>
      <use xlink:href="#MS-Gothic-36" transform="translate(100 0)"/>
      <use xlink:href="#MS-Gothic-30" transform="translate(150 0)"/>
     </g>
    </g>
   </g>
  </g>
 </g>
 <defs>
  <clipPath id="p2574dc703d">
   <path d="M 0 720 
L 0 720 
L 0 0 
L 720 0 
L 720 720 
z
"/>
  </clipPath>
 </defs>
</svg>
