<?xml version="1.0" encoding="utf-8" standalone="no"?>
<!DOCTYPE svg PUBLIC "-//W3C//DTD SVG 1.1//EN"
  "http://www.w3.org/Graphics/SVG/1.1/DTD/svg11.dtd">
<svg xmlns:xlink="http://www.w3.org/1999/xlink" width="720pt" height="720pt" viewBox="0 0 720 720" xmlns="http://www.w3.org/2000/svg" version="1.1">
 <metadata>
  <rdf:RDF xmlns:dc="http://purl.org/dc/elements/1.1/" xmlns:cc="http://creativecommons.org/ns#" xmlns:rdf="http://www.w3.org/1999/02/22-rdf-syntax-ns#">
   <cc:Work>
    <dc:type rdf:resource="http://purl.org/dc/dcmitype/StillImage"/>
    <dc:date>2026-03-20T18:58:50.683710</dc:date>
    <dc:format>image/svg+xml</dc:format>
    <dc:creator>
     <cc:Agent>
      <dc:title>Matplotlib v3.10.8, https://matplotlib.org/</dc:title>
     </cc:Agent>
    </dc:creator>
   </cc:Work>
  </rdf:RDF>
 </metadata>
 <defs>
  <style type="text/css">*{stroke-linejoin: round; stroke-linecap: butt}</style>
 </defs>
 <g id="figure_1">
  <g id="patch_1">
   <path d="M 0 720 
L 720 720 
L 720 0 
L 0 0 
L 0 720 
z
" style="fill: none"/>
  </g>
  <g id="axes_1">
   <g id="patch_2">
    <path d="M 0 720 
L 0 720 
L 0 0 
L 720 0 
L 720 720 
L 0 720 
z
" style="fill: none"/>
   </g>
   <g id="LineCollection_1">
    <path d="M 74.482759 720 
L 74.482759 720 
L 74.482759 720 
L 58.123278 713.358173 
L 43.114958 704.394911 
L 24.718704 693.182355 
L 3.291232 682.510041 
L 0 681.001321 
" clip-path="url(#pacb5b21ce9)" style="fill: none; stroke: #000000; stroke-width: 1.5"/>
    <path d="M 261.07332 674.614657 
L 259.33191 681.435189 
L 259.33191 681.435189 
L 253.608739 688.52363 
L 253.608739 688.52363 
L 243.890236 695.434615 
L 243.890236 695.434615 
L 229.00616 703.905789 
L 211.956644 710.989291 
L 194.814157 714.655411 
L 194.814157 714.655411 
L 172.799787 717.904621 
L 148.965517 720 
L 148.965517 720 
" clip-path="url(#pacb5b21ce9)" style="fill: none; stroke: #000000; stroke-width: 1.5"/>
    <path d="M 193.706111 672.746313 
L 193.706111 672.746313 
L 193.706111 672.746313 
L 193.706111 672.746313 
L 193.706111 672.746313 
L 193.706111 672.746313 
L 193.706111 672.746313 
L 193.706111 672.746313 
L 193.706111 672.746313 
L 193.706111 672.746313 
L 193.706111 672.746313 
L 193.706111 672.746313 
L 193.706111 672.746313 
L 193.706111 672.746313 
L 193.706111 672.746313 
L 193.706111 672.746313 
L 193.706111 672.746313 
L 193.706111 672.746313 
L 193.706111 672.746313 
L 193.706111 672.746313 
L 193.706111 672.746313 
L 193.706111 672.746313 
L 193.706111 672.746313 
L 193.706112 672.746313 
L 193.706111 672.746312 
L 193.706112 672.746314 
L 193.70611 672.74631 
L 193.706113 672.746318 
L 193.706108 672.746302 
L 193.706116 672.746336 
L 193.706106 672.746266 
L 193.706114 672.746409 
L 193.706124 672.746117 
L 193.70605 672.746712 
L 193.706312 672.745499 
L 193.705546 672.747967 
L 193.707598 672.74296 
L 193.702411 672.753121 
L 193.71518 672.732637 
L 193.685011 672.774269 
L 193.756883 672.691738 
L 193.596609 672.863535 
L 192.59621 672.517538 
L 192.239922 671.801713 
L 192.905429 671.170443 
L 195.635284 670.674717 
L 195.635284 670.674717 
L 200.263582 671.466838 
L 203.41086 673.220501 
L 203.41086 673.220501 
L 203.951751 675.705105 
L 203.951751 675.705105 
L 199.954902 679.090979 
L 191.529424 681.3172 
L 179.412092 681.828435 
L 165.033742 680.135419 
L 153.691838 676.916031 
L 145.912089 673.300595 
L 140.314915 668.511326 
L 137.727004 662.311581 
L 138.818923 656.388968 
L 143.358039 651.131422 
L 150.714289 647.429161 
L 150.714289 647.429161 
L 166.798729 642.978613 
L 166.798729 642.978613 
L 181.94738 639.974475 
L 196.593324 638.722001 
L 196.593324 638.722001 
L 213.47716 639.537314 
L 213.47716 639.537314 
L 236.226687 642.384049 
L 259.228066 645.283258 
L 270.936222 646.762712 
L 281.093053 649.212903 
L 289.867893 653.730037 
L 296.91622 660.347207 
L 301.189374 667.177354 
L 303.146209 674.643383 
L 301.843801 681.306959 
L 301.843801 681.306959 
L 297.013326 687.944158 
L 297.013326 687.944158 
L 288.679583 694.542722 
L 288.679583 694.542722 
L 268.889781 707.813213 
L 248.275862 720 
L 248.275862 720 
" clip-path="url(#pacb5b21ce9)" style="fill: none; stroke: #000000; stroke-width: 1.5"/>
    <path d="M 202.64192 630.628066 
L 218.18361 625.89219 
L 229.967974 620.736907 
L 241.765476 616.290413 
L 241.765476 616.290413 
L 254.317886 613.873777 
L 265.566251 613.468375 
L 276.654523 615.368049 
L 286.725665 619.627367 
L 286.725665 619.627367 
L 305.14195 631.567949 
L 320.307757 644.924156 
L 329.712989 655.508917 
L 335.208481 663.498235 
L 338.272133 670.589796 
L 338.624337 678.110722 
L 338.624337 678.110722 
L 335.311119 687.105227 
L 335.311119 687.105227 
L 327.807606 697.444971 
L 327.807606 697.444971 
L 313.811787 710.066894 
L 297.931034 720 
L 297.931034 720 
L 297.931034 720 
" clip-path="url(#pacb5b21ce9)" style="fill: none; stroke: #000000; stroke-width: 1.5"/>
    <path d="M 344.166488 594.496529 
L 343.033735 595.126889 
L 341.336739 595.630777 
L 341.336739 595.630777 
L 340.316188 593.378668 
L 340.316188 593.378668 
L 342.469439 592.247662 
L 344.750042 593.549823 
L 343.001602 595.150677 
L 340.986291 594.696571 
L 340.986291 594.696571 
L 342.152197 592.884481 
L 343.954069 593.665384 
L 343.656357 594.7134 
L 341.590824 595.321574 
L 340.071857 594.860517 
L 340.071857 594.860517 
L 341.363768 592.329095 
L 343.715186 592.308486 
L 344.867645 594.598656 
L 342.211051 595.218425 
L 340.506782 594.783687 
L 340.506782 594.783687 
L 341.754996 592.579457 
L 343.940797 592.848604 
L 344.365318 594.712454 
L 341.975834 595.24585 
L 340.358124 594.856265 
L 340.358124 594.856265 
L 340.955397 592.570911 
L 340.955397 592.570911 
L 343.323722 592.238901 
L 345.044517 594.061877 
L 342.669084 595.342693 
L 342.669084 595.342693 
L 340.636952 594.296142 
L 340.636952 594.296142 
L 342.186882 592.662942 
L 344.199703 593.485283 
L 343.590428 594.929235 
L 341.512297 595.117798 
L 341.512297 595.117798 
L 341.573478 593.113848 
L 341.573478 593.113848 
L 343.585705 593.201952 
L 344.104033 594.277986 
L 341.76673 595.309693 
L 340.147027 594.622283 
L 340.147027 594.622283 
L 341.62715 592.368715 
L 343.975028 592.574271 
L 344.342186 594.883717 
L 342.238967 595.208016 
L 340.620399 595.126096 
L 340.620399 595.126096 
L 340.606925 592.83571 
L 340.606925 592.83571 
L 342.935289 592.178162 
L 344.950188 593.9285 
L 342.646375 595.191228 
L 340.757493 594.666844 
L 340.757493 594.666844 
L 342.015603 592.739093 
L 344.023948 593.267703 
L 344.038541 594.73503 
L 341.838616 595.316008 
L 341.838616 595.316008 
L 340.175157 594.534323 
L 340.175157 594.534323 
L 341.710695 592.382512 
L 344.069419 592.683844 
L 344.146145 594.946239 
L 340.775239 595.390741 
L 340.775239 595.390741 
L 340.205157 593.114166 
L 340.205157 593.114166 
L 342.52235 592.068483 
L 344.963153 593.412073 
L 342.93637 595.212479 
L 340.893582 594.564401 
L 340.893582 594.564401 
L 342.187723 592.835031 
L 344.015852 593.625819 
L 343.689178 594.76131 
L 341.623592 595.315943 
L 340.104476 594.897121 
L 340.104476 594.897121 
L 341.353594 592.347129 
L 343.703692 592.318951 
L 344.843557 594.599089 
L 342.222349 595.214906 
L 340.51794 594.794881 
L 340.51794 594.794881 
L 341.753092 592.585491 
L 343.936734 592.853038 
L 344.363999 594.707195 
L 341.974002 595.246248 
L 340.355944 594.852987 
L 340.355944 594.852987 
L 340.961026 592.568303 
L 340.961026 592.568303 
L 343.316359 592.235625 
L 344.92658 594.277216 
L 342.425559 595.199485 
L 340.634884 594.725895 
L 340.634884 594.725895 
L 341.892015 592.659887 
L 343.987064 593.043171 
L 344.27115 594.690134 
L 341.970385 595.32896 
L 341.970385 595.32896 
L 340.23777 594.430651 
L 340.23777 594.430651 
L 341.86689 592.418844 
L 344.051242 592.737085 
L 344.674383 594.678484 
L 342.277112 595.457791 
L 342.277112 595.457791 
L 340.34018 593.730952 
L 342.382898 592.389899 
L 344.4711 593.197512 
L 343.856225 595.132281 
L 341.864017 595.30594 
L 340.355857 595.252691 
L 340.355857 595.252691 
L 341.1791 592.47193 
L 343.563088 592.326747 
L 345.114426 593.976344 
L 343.056297 595.552855 
L 343.056297 595.552855 
L 340.76821 594.063266 
L 340.76821 594.063266 
L 342.46518 592.747051 
L 344.15247 593.815735 
L 343.508909 594.901325 
L 341.554805 595.345786 
L 340.074323 595.009682 
L 340.074323 595.009682 
L 340.2852 592.59443 
L 340.2852 592.59443 
L 342.81418 591.843419 
L 345.324557 593.430766 
L 342.718482 595.285955 
L 340.710127 594.420881 
L 340.710127 594.420881 
L 342.174349 592.718925 
L 344.108069 593.388329 
L 343.970882 594.794378 
L 341.849406 595.382642 
L 341.849406 595.382642 
L 340.116254 594.282741 
L 340.116254 594.282741 
L 341.896941 592.334305 
L 344.100348 592.664773 
L 344.749006 594.724287 
L 342.731255 595.562778 
L 341.185669 596.058075 
L 340.003557 596.078765 
L 338.819241 595.790211 
L 338.819241 595.790211 
L 337.712143 594.611692 
L 337.712143 594.611692 
L 338.373894 591.739931 
L 338.373894 591.739931 
L 342.141655 590.390579 
L 344.84578 590.75524 
L 347.541705 593.814552 
L 350.199095 599.030856 
L 350.199095 599.030856 
L 352.451521 607.077363 
L 352.451521 607.077363 
L 355.809482 617.292011 
L 361.111743 628.104153 
L 361.111743 628.104153 
L 378.163741 649.587409 
L 382.072264 656.568147 
L 383.332427 664.3322 
L 381.557229 672.459923 
L 381.557229 672.459923 
L 372.690683 690.428428 
L 361.361469 706.212662 
L 347.586207 720 
L 347.586207 720 
" clip-path="url(#pacb5b21ce9)" style="fill: none; stroke: #000000; stroke-width: 1.5"/>
    <path d="M 392.919187 634.095841 
L 402.635839 641.714246 
L 408.645453 647.530538 
L 412.807482 654.889176 
L 413.552567 664.305983 
L 410.787121 674.020938 
L 410.787121 674.020938 
L 404.361862 684.806739 
L 404.361862 684.806739 
L 389.000093 702.76943 
L 372.413793 720 
L 372.413793 720 
" clip-path="url(#pacb5b21ce9)" style="fill: none; stroke: #000000; stroke-width: 1.5"/>
    <path d="M 436.062105 648.74509 
L 439.99077 656.528656 
L 441.010127 666.291564 
L 437.944008 677.912362 
L 431.878124 687.488679 
L 431.878124 687.488679 
L 415.58393 704.572101 
L 397.241379 720 
L 397.241379 720 
" clip-path="url(#pacb5b21ce9)" style="fill: none; stroke: #000000; stroke-width: 1.5"/>
    <path d="M 461.624311 654.721541 
L 462.468445 662.148933 
L 462.468445 662.148933 
L 460.459246 671.6195 
L 460.459246 671.6195 
L 453.695086 685.052213 
L 453.695086 685.052213 
L 439.104572 703.369736 
L 422.068966 720 
L 422.068966 720 
" clip-path="url(#pacb5b21ce9)" style="fill: none; stroke: #000000; stroke-width: 1.5"/>
    <path d="M 267.204727 604.939003 
L 288.167481 601.229762 
L 298.099272 600.017053 
L 303.909544 599.140853 
L 309.023112 597.15849 
L 312.709782 593.672932 
L 312.709782 593.672932 
L 321.01659 586.470725 
L 331.233394 582.797748 
L 345.678015 582.369554 
L 362.609293 585.152854 
L 380.278901 590.512693 
L 380.278901 590.512693 
L 400.037149 598.777487 
L 418.327686 608.351555 
L 430.612135 615.0902 
L 444.209897 619.87747 
L 444.209897 619.87747 
L 467.266639 625.187312 
L 481.571573 628.894824 
L 491.103847 632.234204 
L 497.671657 635.868365 
L 501.708085 639.747561 
L 504.283971 645.179268 
L 504.283971 645.179268 
L 504.1285 653.210474 
L 504.1285 653.210474 
L 500.220222 662.391429 
L 500.220222 662.391429 
L 492.406995 674.416266 
L 485.511323 686.710083 
L 485.511323 686.710083 
L 485.511323 686.710083 
L 478.50848 702.316727 
L 471.724138 720 
L 471.724138 720 
L 471.724138 720 
" clip-path="url(#pacb5b21ce9)" style="fill: none; stroke: #000000; stroke-width: 1.5"/>
    <path d="M 520.194364 617.201685 
L 533.895816 619.985945 
L 543.930225 623.801691 
L 550.67907 627.832282 
L 554.685844 632.148892 
L 555.85457 636.801331 
L 554.050828 642.215829 
L 554.050828 642.215829 
L 550.182493 648.266252 
L 546.813462 654.625121 
L 546.813462 654.625121 
L 545.174076 663.549427 
L 545.174076 663.549427 
L 545.174076 663.549427 
L 544.430786 680.441113 
L 543.327469 691.896594 
L 539.25258 703.394879 
L 532.0988 712.430813 
L 521.37931 720 
L 521.37931 720 
L 521.37931 720 
" clip-path="url(#pacb5b21ce9)" style="fill: none; stroke: #000000; stroke-width: 1.5"/>
    <path d="M 559.918441 622.416472 
L 565.688703 626.009602 
L 568.999392 630.71538 
L 569.135487 636.711327 
L 566.186 643.620482 
L 566.186 643.620482 
L 562.822633 651.2294 
L 561.785408 659.129655 
L 561.785408 659.129655 
L 563.371796 668.403339 
L 563.371796 668.403339 
L 565.92866 678.670843 
L 566.487437 688.039417 
L 564.159699 697.323736 
L 564.159699 697.323736 
L 557.834364 707.761332 
L 557.834364 707.761332 
L 546.206897 720 
L 546.206897 720 
L 546.206897 720 
" clip-path="url(#pacb5b21ce9)" style="fill: none; stroke: #000000; stroke-width: 1.5"/>
    <path d="M 584.349194 620.992776 
L 589.536732 624.92729 
L 591.630748 629.66067 
L 591.630748 629.66067 
L 590.625564 637.178394 
L 586.974997 644.234065 
L 583.816466 651.848819 
L 583.769876 659.558784 
L 583.769876 659.558784 
L 586.799733 668.354698 
L 586.799733 668.354698 
L 590.651786 677.20005 
L 592.341161 685.176188 
L 591.280652 693.456784 
L 591.280652 693.456784 
L 586.403453 702.804146 
L 586.403453 702.804146 
L 571.034483 720 
L 571.034483 720 
" clip-path="url(#pacb5b21ce9)" style="fill: none; stroke: #000000; stroke-width: 1.5"/>
    <path d="M 0 614.111469 
L 5.09648 611.232257 
L 19.167938 602.626126 
L 34.634781 595.401766 
L 48.621939 591.360092 
L 48.621939 591.360092 
L 70.51968 586.447178 
L 94.107054 582.82472 
L 117.830989 580.354629 
L 135.310312 578.314949 
L 152.088081 577.428836 
L 152.088081 577.428836 
L 169.639253 578.154049 
L 180.100316 578.626339 
L 187.911158 578.036009 
L 193.44887 576.37088 
L 198.750697 572.712787 
L 198.750697 572.712787 
L 206.817709 562.119761 
L 211.721004 552.789665 
L 213.814395 547.712766 
L 214.623689 544.200041 
L 213.878067 540.430809 
L 210.774234 536.503414 
L 210.774234 536.503414 
L 205.813652 532.100845 
L 205.813652 532.100845 
L 197.981956 525.642632 
L 197.981956 525.642632 
L 185.947971 516.259018 
L 174.37113 506.90138 
L 164.964642 496.318463 
L 164.964642 496.318463 
L 155.478946 483.674497 
L 147.8145 474.69913 
L 141.127391 465.371806 
L 137.530763 455.075581 
L 136.757027 447.750336 
L 138.066553 440.113856 
L 142.326533 433.723476 
L 142.326533 433.723476 
L 149.322183 427.980093 
L 149.322183 427.980093 
L 169.383918 415.495184 
L 179.950663 409.090229 
L 191.791008 403.464584 
L 191.791008 403.464584 
L 204.330739 400.137933 
L 218.370509 394.598347 
L 218.370509 394.598347 
L 237.111518 384.269155 
L 258.804971 374.740894 
L 274.311405 368.718368 
L 289.62555 363.66066 
L 305.129124 361.856696 
L 305.129124 361.856696 
L 328.642566 363.758604 
L 352.240357 366.993739 
L 365.890495 368.396578 
L 376.898009 368.385356 
L 386.929866 365.948247 
L 386.929866 365.948247 
L 399.003986 359.725184 
L 399.003986 359.725184 
L 411.159939 352.788157 
L 424.559331 347.875816 
L 424.559331 347.875816 
L 438.232463 345.343435 
L 448.620244 344.812881 
L 458.90259 346.470112 
L 458.90259 346.470112 
L 475.960922 353.605911 
L 489.853077 362.699364 
L 502.084003 373.894167 
L 502.084003 373.894167 
L 513.955737 388.254079 
L 523.184792 402.632768 
L 529.806232 417.759997 
L 529.806232 417.759997 
L 535.478966 433.412464 
L 542.966315 448.533692 
L 542.966315 448.533692 
L 550.698537 462.172038 
L 554.873125 471.86854 
L 556.801261 480.442101 
L 556.249314 487.520221 
L 552.395708 494.548803 
L 552.395708 494.548803 
L 542.659297 505.590289 
L 534.983825 515.314124 
L 530.316162 524.225968 
L 528.156938 535.206674 
L 529.575228 546.551598 
L 534.147644 557.153355 
L 534.147644 557.153355 
L 542.898402 568.197912 
L 542.898402 568.197912 
L 558.486295 580.789938 
L 572.484816 588.845966 
L 589.206411 594.926436 
L 589.206411 594.926436 
L 612.332524 600.580602 
L 624.862751 603.896575 
L 633.120376 606.885089 
L 638.451241 610.196725 
L 641.332797 613.91105 
L 642.364031 619.372557 
L 642.364031 619.372557 
L 641.754585 627.168608 
L 641.754585 627.168608 
L 639.045869 648.864256 
L 635.068594 668.0883 
L 635.068594 668.0883 
L 630.382223 684.614106 
L 626.447898 695.613174 
L 619.506158 706.291856 
L 609.044342 714.610002 
L 595.862069 720 
L 595.862069 720 
L 595.862069 720 
" clip-path="url(#pacb5b21ce9)" style="fill: none; stroke: #000000; stroke-width: 1.5"/>
    <path d="M 720 617.942654 
L 714.52863 636.750464 
L 711.136465 650.78489 
L 709.960085 666.266227 
L 709.960085 666.266227 
L 710.142021 677.704786 
L 708.848309 687.172924 
L 705.511117 695.09218 
L 699.402429 700.546456 
L 699.402429 700.546456 
L 688.431015 704.938215 
L 688.431015 704.938215 
L 667.201202 711.273458 
L 645.517241 720 
L 645.517241 720 
" clip-path="url(#pacb5b21ce9)" style="fill: none; stroke: #000000; stroke-width: 1.5"/>
    <path d="M 444.766916 334.794067 
L 456.105638 332.184375 
L 467.071288 331.885626 
L 477.889427 333.941237 
L 477.889427 333.941237 
L 489.58091 338.711137 
L 489.58091 338.711137 
L 505.406809 347.997541 
L 519.80153 359.678094 
L 519.80153 359.678094 
L 534.331878 375.034212 
L 548.446923 394.289303 
L 560.979723 414.679016 
L 574.537694 434.366322 
L 586.518599 448.759338 
L 596.161952 461.034335 
L 603.342522 473.885412 
L 606.9382 484.019805 
L 608.20416 494.823961 
L 608.20416 494.823961 
L 606.207304 507.132978 
L 601.23654 518.9553 
L 597.331512 526.650084 
L 595.446144 534.24217 
L 596.595353 542.130385 
L 600.858638 549.563785 
L 600.858638 549.563785 
L 608.427903 556.187093 
L 608.427903 556.187093 
L 620.119793 562.368833 
L 620.119793 562.368833 
L 639.437341 570.121472 
L 662.336949 576.750863 
L 685.494902 580.232478 
L 697.28343 581.62427 
L 706.547246 583.709574 
L 713.200176 586.907806 
L 717.290993 590.530794 
L 720 595.862069 
L 720 595.862069 
L 720 595.862069 
L 720 595.862069 
" clip-path="url(#pacb5b21ce9)" style="fill: none; stroke: #000000; stroke-width: 1.5"/>
    <path d="M 619.746313 461.321829 
L 627.48313 474.958497 
L 633.08887 489.976709 
L 633.08887 489.976709 
L 636.377954 504.228862 
L 639.154302 514.68592 
L 642.847283 522.495011 
L 648.421549 528.01463 
L 648.421549 528.01463 
L 657.792936 532.660695 
L 657.792936 532.660695 
L 680.158528 539.434 
L 700.119844 543.882376 
L 720 546.206897 
L 720 546.206897 
L 720 546.206897 
" clip-path="url(#pacb5b21ce9)" style="fill: none; stroke: #000000; stroke-width: 1.5"/>
    <path d="M 551.354123 353.185712 
L 568.097899 370.270722 
L 583.211086 388.87813 
L 597.717458 407.985047 
L 612.821665 426.617992 
L 628.761573 444.539503 
L 644.194705 462.762217 
L 657.804137 482.27522 
L 664.583043 492.978869 
L 672.466629 502.52051 
L 682.216038 509.366616 
L 682.216038 509.366616 
L 696.881 515.366058 
L 696.881 515.366058 
L 720 521.37931 
L 720 521.37931 
" clip-path="url(#pacb5b21ce9)" style="fill: none; stroke: #000000; stroke-width: 1.5"/>
    <path d="M 112.89381 558.342323 
L 116.496984 554.478334 
L 118.733458 548.406742 
L 118.669872 541.02711 
L 118.669872 541.02711 
L 116.360532 532.502214 
L 116.360532 532.502214 
L 109.25052 513.226383 
L 102.99314 490.268389 
L 97.312817 467.057783 
L 93.273608 453.161643 
L 91.413284 443.36268 
L 91.966543 434.444879 
L 95.588166 426.190571 
L 95.588166 426.190571 
L 102.602913 417.787167 
L 102.602913 417.787167 
L 118.596131 400.041153 
L 129.678695 387.106278 
L 142.155571 376.049509 
L 142.155571 376.049509 
L 162.525005 363.677117 
L 178.628136 355.15406 
L 195.283451 343.266405 
L 214.76863 330.327294 
L 236.389722 320.436473 
L 258.847515 312.223146 
L 281.660859 305.182004 
L 304.836537 299.168188 
L 324.149666 294.856785 
L 343.49519 289.008187 
L 361.495035 283.612518 
L 379.677507 281.2524 
L 379.677507 281.2524 
L 403.538865 281.493985 
L 427.174264 283.764356 
L 450.083958 287.109498 
L 472.631536 292.92697 
L 495.359845 300.420113 
L 517.523267 308.154047 
L 539.47885 317.538933 
L 558.049163 328.223626 
L 577.051716 342.606457 
L 594.009575 359.376245 
L 609.151895 377.902087 
L 622.830886 397.600081 
L 637.081872 416.831538 
L 653.270396 434.472083 
L 668.643116 448.668453 
L 685.658671 465.308431 
L 695.991343 477.510198 
L 706.89367 488.255997 
L 720 496.551724 
L 720 496.551724 
L 720 496.551724 
" clip-path="url(#pacb5b21ce9)" style="fill: none; stroke: #000000; stroke-width: 1.5"/>
    <path d="M 637.111576 386.895219 
L 651.27575 405.64549 
L 667.05667 423.605112 
L 684.845011 439.649841 
L 702.947604 454.999009 
L 720 471.724138 
L 720 471.724138 
" clip-path="url(#pacb5b21ce9)" style="fill: none; stroke: #000000; stroke-width: 1.5"/>
    <path d="M 538.907969 296.996969 
L 560.705345 306.875328 
L 581.724384 318.369166 
L 601.684996 331.523882 
L 620.261857 346.579134 
L 637.61313 363.080808 
L 654.047802 380.443296 
L 668.042995 397.69117 
L 683.495227 415.89193 
L 701.238881 431.938493 
L 720 446.896552 
L 720 446.896552 
" clip-path="url(#pacb5b21ce9)" style="fill: none; stroke: #000000; stroke-width: 1.5"/>
    <path d="M 615.73797 327.540387 
L 635.01893 341.695203 
L 653.43142 356.982396 
L 670.939909 372.22544 
L 687.876577 389.055535 
L 702.618803 405.706135 
L 720 422.068966 
L 720 422.068966 
" clip-path="url(#pacb5b21ce9)" style="fill: none; stroke: #000000; stroke-width: 1.5"/>
    <path d="M 598.136736 296.528122 
L 619.484379 307.440848 
L 640.351933 319.246653 
L 660.844322 331.660064 
L 681.002826 344.609678 
L 700.819903 358.06119 
L 720 372.413793 
L 720 372.413793 
" clip-path="url(#pacb5b21ce9)" style="fill: none; stroke: #000000; stroke-width: 1.5"/>
    <path d="M 0 211.54756 
L 14.749518 201.184448 
L 30.415342 191.490331 
L 43.789487 185.28084 
L 55.619363 180.264897 
L 62.806292 176.034743 
L 70.200029 171.589536 
L 79.105543 169.016803 
L 79.105543 169.016803 
L 93.669806 167.343093 
L 93.669806 167.343093 
L 117.030116 164.538486 
L 138.401636 159.204927 
L 151.724996 154.374162 
L 163.573593 150.619772 
L 175.975108 149.493362 
L 175.975108 149.493362 
L 190.35159 151.583711 
L 190.35159 151.583711 
L 207.552256 155.356261 
L 224.589551 156.965386 
L 224.589551 156.965386 
L 248.540444 156.110383 
L 272.499691 154.995157 
L 296.450537 155.656498 
L 320.250732 158.364508 
L 343.834276 162.673339 
L 367.050739 168.583273 
L 389.710224 176.342474 
L 409.215251 183.211212 
L 432.36851 188.558211 
L 448.904005 191.008193 
L 466.208766 195.727625 
L 466.208766 195.727625 
L 487.761964 205.864012 
L 508.533487 217.813555 
L 529.223694 229.920192 
L 546.884264 240.380735 
L 568.185679 251.150164 
L 590.268903 260.433229 
L 612.07559 270.43157 
L 633.815012 280.591979 
L 655.610659 290.629892 
L 677.337158 300.813122 
L 698.835408 311.462881 
L 720 322.758621 
L 720 322.758621 
" clip-path="url(#pacb5b21ce9)" style="fill: none; stroke: #000000; stroke-width: 1.5"/>
    <path d="M 0 175.813861 
L 5.975929 170.206077 
L 23.688843 154.021603 
L 42.042342 138.675996 
L 60.893956 125.721377 
L 76.507473 117.308571 
L 93.76305 110.988722 
L 93.76305 110.988722 
L 116.390667 103.803981 
L 131.275417 97.935325 
L 146.701132 93.291323 
L 146.701132 93.291323 
L 166.334807 90.653106 
L 166.334807 90.653106 
L 190.156705 89.733012 
L 213.763079 90.445046 
L 232.726564 92.876031 
L 251.586349 98.075048 
L 251.586349 98.075048 
L 273.692861 107.109243 
L 295.9522 115.73288 
L 318.883308 122.702957 
L 342.0021 129.114789 
L 365.143817 135.446117 
L 388.401028 141.332394 
L 411.944516 145.630762 
L 435.199506 149.413203 
L 458.209938 155.602921 
L 480.553373 164.131685 
L 502.582884 173.578673 
L 524.122214 184.07489 
L 544.982857 195.871572 
L 565.560573 208.199079 
L 586.436505 219.961924 
L 607.933649 230.560166 
L 629.872076 240.272617 
L 652.110543 249.275336 
L 674.580626 257.682342 
L 697.198265 265.656048 
L 720 273.103448 
L 720 273.103448 
" clip-path="url(#pacb5b21ce9)" style="fill: none; stroke: #000000; stroke-width: 1.5"/>
    <path d="M 0 90.614028 
L 9.169174 84.242741 
L 29.036444 70.820618 
L 48.598819 57.029344 
L 67.653244 42.516815 
L 81.876194 32.536964 
L 96.425104 24.778543 
L 111.950927 19.91177 
L 111.950927 19.91177 
L 135.493452 17.089861 
L 154.85837 16.694363 
L 174.271045 18.291442 
L 174.271045 18.291442 
L 197.724751 23.101891 
L 221.176555 28.121019 
L 244.834587 32.099493 
L 268.409517 36.452137 
L 291.142376 42.389303 
L 313.476932 50.878871 
L 335.069426 61.306571 
L 356.739109 71.58144 
L 378.866737 80.833471 
L 401.49386 88.725842 
L 424.654762 94.916455 
L 448.068954 100.161626 
L 471.381266 105.385485 
L 488.592711 109.993545 
L 505.134656 116.648072 
L 519.464304 125.580816 
L 519.464304 125.580816 
L 537.521635 141.140573 
L 554.946909 157.397123 
L 572.313466 173.861581 
L 590.213883 189.746133 
L 609.405495 204.009572 
L 629.890558 216.243465 
L 651.555926 226.424573 
L 673.890784 235.155901 
L 696.726386 242.480311 
L 720 248.275862 
L 720 248.275862 
" clip-path="url(#pacb5b21ce9)" style="fill: none; stroke: #000000; stroke-width: 1.5"/>
    <path d="M 279.037864 0 
L 292.104734 3.375814 
L 315.450623 8.65058 
L 331.507787 12.428793 
L 347.0033 18.252052 
L 347.0033 18.252052 
L 366.407826 28.416256 
L 381.446195 35.794357 
L 397.729823 40.842587 
L 397.729823 40.842587 
L 421.375867 44.400381 
L 445.207572 47.028986 
L 468.853824 50.90785 
L 491.961577 56.797371 
L 509.0944 63.054102 
L 526.71098 72.99894 
L 541.079554 84.551045 
L 553.231103 97.890649 
L 553.231103 97.890649 
L 567.336403 117.272309 
L 581.871791 136.155432 
L 598.011834 153.702951 
L 615.395146 170.143969 
L 634.135078 185.035738 
L 653.241152 197.999072 
L 674.349206 209.187175 
L 696.777092 217.512933 
L 720 223.448276 
L 720 223.448276 
" clip-path="url(#pacb5b21ce9)" style="fill: none; stroke: #000000; stroke-width: 1.5"/>
    <path d="M 561.090498 0 
L 567.704855 10.068166 
L 579.179895 30.756924 
L 589.813263 52.195241 
L 600.681429 73.53509 
L 611.522579 94.888836 
L 622.332169 116.263983 
L 633.060646 135.641913 
L 644.678281 152.267436 
L 661.425547 169.115659 
L 677.471355 180.908132 
L 697.258371 191.311866 
L 720 198.62069 
L 720 198.62069 
" clip-path="url(#pacb5b21ce9)" style="fill: none; stroke: #000000; stroke-width: 1.5"/>
    <path d="M 720 0.471297 
L 706.318161 1.254317 
L 693.703561 2.435235 
L 680.310595 5.860894 
L 669.486554 11.513668 
L 661.753076 17.766266 
L 655.374576 26.896294 
L 652.222482 37.363009 
L 652.222482 37.363009 
L 651.25516 51.177066 
L 651.25516 51.177066 
L 651.593666 74.143781 
L 653.025391 92.703548 
L 656.813173 109.87668 
L 663.595385 126.256683 
L 672.374461 140.017774 
L 684.506776 152.902536 
L 698.612985 163.09992 
L 698.612985 163.09992 
L 720 173.793103 
L 720 173.793103 
" clip-path="url(#pacb5b21ce9)" style="fill: none; stroke: #000000; stroke-width: 1.5"/>
    <path d="M 720 50.802713 
L 719.878045 50.886313 
L 711.443654 58.214223 
L 704.687078 68.458079 
L 701.365121 77.95422 
L 700.320467 86.552843 
L 701.911121 95.053937 
L 701.911121 95.053937 
L 706.511198 104.329299 
L 706.511198 104.329299 
L 720 124.137931 
L 720 124.137931 
" clip-path="url(#pacb5b21ce9)" style="fill: none; stroke: #000000; stroke-width: 1.5"/>
    <path d="M 720 24.827586 
L 720 24.827586 
L 720 24.827586 
L 706.434419 30.552568 
L 694.297811 39.400118 
L 694.297811 39.400118 
L 686.992262 48.140053 
L 682.039575 58.387231 
L 678.967955 69.48971 
L 677.256046 85.772832 
L 679.105337 100.937544 
L 684.046167 114.258443 
L 692.005652 127.130385 
" clip-path="url(#pacb5b21ce9)" style="fill: none; stroke: #000000; stroke-width: 1.5"/>
    <path d="M 620.689655 0 
L 620.689655 0 
L 620.689655 0 
L 617.512683 10.946563 
L 616.837838 20.971237 
L 618.089074 35.956135 
L 621.731572 51.80114 
L 627.078345 70.397289 
" clip-path="url(#pacb5b21ce9)" style="fill: none; stroke: #000000; stroke-width: 1.5"/>
    <path d="M 471.724138 0 
L 471.724138 0 
L 493.757644 9.499306 
L 493.757644 9.499306 
L 512.755653 16.360776 
L 531.704439 21.815286 
L 531.704439 21.815286 
L 543.159463 26.913577 
L 553.844571 35.101481 
L 562.10881 44.175302 
L 572.015367 57.250897 
" clip-path="url(#pacb5b21ce9)" style="fill: none; stroke: #000000; stroke-width: 1.5"/>
    <path d="M 397.241379 0 
L 397.241379 0 
L 397.241379 0 
L 412.699434 3.565023 
L 428.711702 4.942298 
L 452.30652 8.10188 
L 452.30652 8.10188 
L 468.699042 13.492577 
L 484.129893 20.591394 
L 505.947606 30.402007 
L 527.531335 40.373175 
L 547.788437 52.653674 
L 547.788437 52.653674 
L 561.241574 64.075402 
L 572.437008 75.756036 
L 587.088163 94.572229 
L 598.207586 111.994165 
" clip-path="url(#pacb5b21ce9)" style="fill: none; stroke: #000000; stroke-width: 1.5"/>
    <path d="M 347.586207 0 
L 347.586207 0 
L 347.586207 0 
L 360.894087 5.254761 
L 372.611997 12.390927 
L 389.31961 21.717115 
L 406.119966 27.098338 
L 422.50641 28.961147 
L 438.937869 30.064781 
L 459.15423 34.309939 
" clip-path="url(#pacb5b21ce9)" style="fill: none; stroke: #000000; stroke-width: 1.5"/>
    <path d="M 124.137931 0 
L 124.137931 0 
L 148.012038 1.449229 
L 169.735977 1.576778 
L 169.735977 1.576778 
L 187.659188 3.716336 
L 204.891765 8.035703 
" clip-path="url(#pacb5b21ce9)" style="fill: none; stroke: #000000; stroke-width: 1.5"/>
    <path d="M 0 59.781966 
L 7.038748 54.401203 
L 25.627518 39.275871 
L 43.795849 23.650002 
L 58.287934 11.464524 
L 74.482759 0 
L 74.482759 0 
L 74.482759 0 
" clip-path="url(#pacb5b21ce9)" style="fill: none; stroke: #000000; stroke-width: 1.5"/>
    <path d="M 0 124.137931 
L 0 124.137931 
L 20.613542 111.89557 
L 41.510052 100.128098 
L 62.453146 88.451277 
L 83.437431 76.877519 
L 104.386437 65.260844 
L 126.131392 55.379688 
L 126.131392 55.379688 
L 141.728779 51.357981 
L 157.910451 50.077499 
L 175.134401 51.307127 
L 194.676657 53.646005 
L 218.395822 57.016411 
L 242.005584 61.244429 
L 265.348675 66.637497 
L 288.110446 74.061014 
L 310.251646 83.236509 
L 332.229606 92.79967 
L 354.352735 102.040234 
L 376.834148 110.33651 
L 399.876983 116.915658 
L 423.30778 122.05683 
L 446.675941 127.460598 
L 469.124988 135.63272 
L 487.59215 144.596276 
L 508.64631 156.011859 
" clip-path="url(#pacb5b21ce9)" style="fill: none; stroke: #000000; stroke-width: 1.5"/>
    <path d="M 0 248.275862 
L 0 248.275862 
L 21.886748 238.621979 
L 21.886748 238.621979 
L 39.774418 233.718651 
L 58.513417 232.015361 
L 75.674085 233.870266 
L 91.658072 237.248942 
L 115.255119 240.748959 
L 139.009562 243.678643 
L 162.744888 246.840985 
L 186.549044 247.889746 
L 207.932728 245.638917 
L 231.317361 241.303258 
L 254.788814 236.678255 
L 278.397545 232.789866 
L 302.243962 230.714366 
L 326.138209 231.463401 
L 349.105213 234.815806 
L 349.105213 234.815806 
L 366.894257 239.890255 
L 384.107443 246.059517 
L 407.070425 252.690108 
L 429.978331 259.422463 
L 451.971964 268.664446 
L 472.346015 278.466621 
" clip-path="url(#pacb5b21ce9)" style="fill: none; stroke: #000000; stroke-width: 1.5"/>
    <path d="M 0 297.931034 
L 0 297.931034 
L 0 297.931034 
L 10.062821 288.950955 
L 21.582332 282.774045 
L 34.588608 279.141951 
L 48.734093 278.257321 
L 63.548078 279.639873 
L 84.436436 284.759979 
L 84.436436 284.759979 
L 95.595179 290.872702 
L 104.055926 298.198922 
L 104.055926 298.198922 
L 111.900075 303.266768 
L 120.236806 305.437636 
L 132.163264 306.825303 
L 154.942051 308.47053 
L 178.730991 308.98362 
L 178.730991 308.98362 
L 197.155156 307.151891 
L 214.805477 303.239384 
L 237.048659 295.689618 
L 259.168743 287.262025 
L 282.109186 280.692574 
L 305.381997 275.863686 
L 328.963256 271.657287 
L 352.419392 268.283723 
L 352.419392 268.283723 
" clip-path="url(#pacb5b21ce9)" style="fill: none; stroke: #000000; stroke-width: 1.5"/>
    <path d="M 0 559.326279 
L 1.421765 555.069953 
L 5.104004 541.881895 
L 5.104004 541.881895 
L 9.729592 524.440893 
L 17.291231 507.227232 
L 23.122163 497.762121 
L 27.99165 488.055294 
L 29.472156 477.64986 
L 29.472156 477.64986 
L 27.908621 463.934469 
L 27.908621 463.934469 
L 22.008874 440.793785 
L 15.681174 417.657995 
L 10.585027 394.254828 
L 5.688845 370.847574 
L 0 347.586207 
L 0 347.586207 
" clip-path="url(#pacb5b21ce9)" style="fill: none; stroke: #000000; stroke-width: 1.5"/>
    <path d="M 0 500.170461 
L 0.119842 499.953481 
L 5.430086 489.29586 
L 9.111543 476.451606 
L 9.317392 463.679889 
L 9.317392 463.679889 
L 6.009224 445.299163 
L 6.009224 445.299163 
L 0 422.068966 
L 0 422.068966 
" clip-path="url(#pacb5b21ce9)" style="fill: none; stroke: #000000; stroke-width: 1.5"/>
    <path d="M 125.942016 711.989641 
L 125.942016 711.989641 
L 106.378846 706.413191 
L 91.587879 700.750891 
L 77.650149 692.974609 
L 77.650149 692.974609 
L 59.26702 678.23261 
L 50.085463 669.835463 
L 41.983338 662.40818 
L 41.983338 662.40818 
L 33.458302 653.951053 
L 29.942522 650.636389 
L 27.400411 648.663588 
L 23.514466 646.635807 
L 23.514466 646.635807 
L 15.924992 644.874761 
L 15.924992 644.874761 
L 8.071417 644.681797 
L 8.071417 644.681797 
L 0 645.517241 
L 0 645.517241 
L 0 645.517241 
" clip-path="url(#pacb5b21ce9)" style="fill: none; stroke: #000000; stroke-width: 1.5"/>
    <path d="M 206.847381 695.008879 
L 206.847381 695.008879 
L 183.832399 700.48318 
L 166.166729 702.435006 
L 150.711909 702.367125 
L 137.286967 700.143761 
L 124.137931 695.172414 
L 124.137931 695.172414 
L 124.137931 695.172414 
" clip-path="url(#pacb5b21ce9)" style="fill: none; stroke: #000000; stroke-width: 1.5"/>
    <path d="M 696.996749 610.870493 
L 696.687909 619.406916 
L 696.687909 619.406916 
L 693.824094 631.484755 
L 693.824094 631.484755 
L 688.435069 654.531332 
L 685.537689 668.030252 
L 681.874803 679.953136 
L 677.665846 687.887402 
L 670.344828 695.172414 
L 670.344828 695.172414 
" clip-path="url(#pacb5b21ce9)" style="fill: none; stroke: #000000; stroke-width: 1.5"/>
    <path d="M 2.505739 334.094236 
L 3.773354 323.546527 
L 7.917487 313.190063 
L 15.105676 304.511574 
L 24.827586 297.931034 
L 24.827586 297.931034 
L 24.827586 297.931034 
L 36.287795 294.136582 
L 47.496135 293.581611 
L 59.699447 295.605443 
L 73.55048 300.738819 
" clip-path="url(#pacb5b21ce9)" style="fill: none; stroke: #000000; stroke-width: 1.5"/>
    <path d="M 65.994132 348.215156 
L 66.564771 348.334877 
L 66.58687 347.811636 
L 66.102401 347.966155 
L 66.328797 348.356308 
L 66.634352 348.014853 
L 66.289523 347.848857 
L 66.192271 348.234899 
L 66.549336 348.175074 
L 66.547876 347.645303 
L 65.366077 348.011878 
L 66.849654 348.659762 
L 66.590547 347.443649 
L 65.713799 348.108518 
L 66.580256 348.478636 
L 66.705946 347.754743 
L 66.020358 347.868016 
L 66.25265 348.469987 
L 66.746877 348.020943 
L 66.27499 347.737444 
L 66.088169 348.294492 
L 66.615161 348.234272 
L 66.520484 347.724886 
L 65.633847 348.030577 
L 66.772179 348.706922 
L 66.637272 347.399908 
L 65.651804 348.078181 
L 66.57465 348.520766 
L 66.741333 347.747581 
L 66.005158 347.834521 
L 66.224468 348.498088 
L 66.798453 347.986515 
L 66.232093 347.697211 
L 66.056685 348.352008 
L 66.706594 348.162517 
L 66.413772 347.73226 
L 66.057304 348.164917 
L 66.506931 348.316959 
L 66.579206 347.869629 
L 66.160795 347.952532 
L 66.308061 348.31002 
L 66.598292 348.048368 
L 66.32695 347.872147 
L 66.207923 348.190953 
L 66.510239 348.177349 
L 66.457443 347.91161 
L 66.222971 348.053764 
L 66.389337 348.215045 
L 66.507292 348.008669 
L 66.305327 347.971771 
L 66.303626 348.172162 
L 66.481696 348.099947 
L 66.392654 347.963947 
L 66.282665 348.094887 
L 66.417189 348.146493 
L 66.66704 347.868637 
L 67.559908 348.271471 
L 68.643178 349.969063 
L 68.681553 354.445606 
L 65.786081 360.142328 
L 60.899112 364.79628 
L 54.833683 367.905699 
L 48.521572 368.979998 
L 43.359306 367.400359 
L 43.359306 367.400359 
L 38.042924 362.175565 
L 38.042924 362.175565 
L 30.504062 352.256014 
L 30.504062 352.256014 
L 25.579635 346.130646 
L 21.87712 338.758099 
L 21.709323 331.238685 
L 24.827586 322.758621 
L 24.827586 322.758621 
L 24.827586 322.758621 
L 30.956725 315.820847 
L 38.019679 311.888723 
" clip-path="url(#pacb5b21ce9)" style="fill: none; stroke: #000000; stroke-width: 1.5"/>
    <path d="M 0 573.664451 
L 4.771574 569.83486 
L 14.207162 561.617263 
L 20.061941 554.754463 
L 24.827586 546.206897 
L 24.827586 546.206897 
L 34.105888 524.133295 
L 34.105888 524.133295 
L 40.371027 507.94766 
L 40.371027 507.94766 
L 43.058024 496.084913 
L 43.058024 496.084913 
L 43.145568 484.78754 
L 41.091313 473.746877 
" clip-path="url(#pacb5b21ce9)" style="fill: none; stroke: #000000; stroke-width: 1.5"/>
    <path d="M 80.128811 679.521342 
L 74.482759 670.344828 
L 74.482759 670.344828 
L 74.482759 670.344828 
L 70.857288 660.028064 
L 70.857288 660.028064 
L 69.199899 651.842152 
L 69.868397 643.33222 
L 72.694597 635.373395 
L 78.182921 627.368091 
L 86.492154 620.000067 
L 97.753825 613.714338 
L 109.815853 609.212092 
L 128.569802 604.781081 
L 128.569802 604.781081 
L 141.284552 603.98776 
L 153.92314 604.795839 
L 172.202937 605.710423 
L 172.202937 605.710423 
L 188.604722 605.040685 
L 205.885456 602.794584 
L 225.431499 598.021746 
L 225.431499 598.021746 
L 239.909173 591.79324 
L 253.601499 584.020564 
L 253.601499 584.020564 
L 264.29804 579.143808 
L 276.951081 576.423181 
L 289.578859 575.451516 
L 309.399675 574.793254 
" clip-path="url(#pacb5b21ce9)" style="fill: none; stroke: #000000; stroke-width: 1.5"/>
    <path d="M 106.927308 680.038928 
L 99.310345 670.344828 
L 99.310345 670.344828 
L 99.310345 670.344828 
L 95.603695 661.437351 
L 95.408518 653.115676 
L 95.408518 653.115676 
L 98.31799 646.702957 
L 103.487594 640.739205 
L 113.159502 631.845291 
L 129.329165 620.703887 
L 129.329165 620.703887 
L 140.590746 615.620582 
L 152.484754 612.5732 
L 165.317428 610.352029 
" clip-path="url(#pacb5b21ce9)" style="fill: none; stroke: #000000; stroke-width: 1.5"/>
    <path d="M 613.613413 612.89185 
L 619.669796 615.234192 
L 622.677194 616.979188 
L 623.781962 620.290187 
L 623.781962 620.290187 
L 623.604319 625.618057 
L 623.604319 625.618057 
L 623.604319 625.618057 
L 621.124633 646.521644 
L 620.689655 670.344828 
L 620.689655 670.344828 
L 619.819076 682.616446 
" clip-path="url(#pacb5b21ce9)" style="fill: none; stroke: #000000; stroke-width: 1.5"/>
    <path d="M 347.586207 49.655172 
L 369.095676 60.229249 
L 391.391307 68.981547 
L 414.193837 76.314367 
L 437.447024 81.997214 
L 461.08782 85.800475 
" clip-path="url(#pacb5b21ce9)" style="fill: none; stroke: #000000; stroke-width: 1.5"/>
    <path d="M 42.776179 196.057792 
L 49.655172 198.62069 
L 49.655172 198.62069 
L 49.655172 198.62069 
L 61.965676 204.117571 
L 73.739475 206.818377 
L 90.449078 208.589092 
L 112.64782 208.321746 
L 135.515767 205.542349 
L 158.826587 202.111242 
L 182.510161 198.797387 
L 206.193091 195.054289 
L 229.844095 191.294509 
L 253.604661 188.207217 
L 277.48514 186.07431 
L 301.417106 185.500803 
L 325.283065 187.480009 
L 348.876158 191.730964 
L 372.113484 197.668707 
L 394.392874 206.112996 
L 394.392874 206.112996 
L 410.751001 211.767434 
L 427.605529 215.275991 
L 450.978531 220.328104 
L 473.48014 228.306473 
L 492.814123 238.860375 
L 510.090292 250.551942 
L 530.028938 263.865935 
L 550.428943 276.434191 
" clip-path="url(#pacb5b21ce9)" style="fill: none; stroke: #000000; stroke-width: 1.5"/>
    <path d="M 132.094018 75.505904 
L 153.61677 69.433516 
L 177.181755 66.395636 
L 201.005331 66.733029 
L 224.693691 70.054275 
L 248.275862 74.482759 
" clip-path="url(#pacb5b21ce9)" style="fill: none; stroke: #000000; stroke-width: 1.5"/>
    <path d="M 74.482759 148.965517 
L 74.482759 148.965517 
L 74.482759 148.965517 
L 90.106676 141.58726 
L 107.371227 136.824011 
L 125.110589 134.5167 
L 146.826451 131.107951 
L 146.826451 131.107951 
L 162.751156 129.082345 
L 179.241741 129.721513 
L 196.993644 132.267493 
L 220.576687 135.827933 
" clip-path="url(#pacb5b21ce9)" style="fill: none; stroke: #000000; stroke-width: 1.5"/>
    <path d="M 74.482759 322.758621 
L 74.482759 322.758621 
L 74.482759 322.758621 
L 91.419732 323.329759 
L 107.235781 325.789435 
L 130.382275 330.37181 
L 130.382275 330.37181 
L 146.985369 332.040024 
L 164.285917 330.999569 
L 180.976346 327.469619 
L 198.128771 321.887494 
" clip-path="url(#pacb5b21ce9)" style="fill: none; stroke: #000000; stroke-width: 1.5"/>
    <path d="M 83.816585 494.70102 
L 75.773957 479.904213 
L 67.777286 462.272338 
L 64.003854 448.204897 
L 62.525109 436.67764 
L 63.443989 425.025523 
L 63.443989 425.025523 
L 67.589845 411.087011 
L 74.482759 397.241379 
L 74.482759 397.241379 
L 74.482759 397.241379 
L 79.207322 390.662296 
L 83.504902 385.887247 
L 89.212111 381.075271 
L 89.212111 381.075271 
L 97.433227 375.595077 
L 109.539704 368.885994 
L 126.88294 361.860641 
L 142.873594 355.391404 
" clip-path="url(#pacb5b21ce9)" style="fill: none; stroke: #000000; stroke-width: 1.5"/>
    <path d="M 103.357194 557.374907 
L 106.056413 554.583301 
L 106.743456 551.792115 
L 105.156746 547.889554 
L 101.111528 543.741131 
L 101.111528 543.741131 
L 94.69881 538.178169 
L 94.69881 538.178169 
L 85.576538 529.53572 
L 74.482759 521.37931 
L 74.482759 521.37931 
L 74.482759 521.37931 
L 68.073084 516.243206 
L 63.680618 509.996888 
" clip-path="url(#pacb5b21ce9)" style="fill: none; stroke: #000000; stroke-width: 1.5"/>
    <path d="M 41.836118 567.825265 
L 56.141638 563.218637 
L 66.354355 559.864844 
L 73.112974 556.885939 
L 76.674416 554.099651 
L 77.778758 551.466462 
L 77.176962 549.200771 
L 74.482759 546.206897 
L 74.482759 546.206897 
L 74.482759 546.206897 
L 74.482759 546.206897 
L 68.289502 540.14748 
" clip-path="url(#pacb5b21ce9)" style="fill: none; stroke: #000000; stroke-width: 1.5"/>
    <path d="M 99.310345 223.448276 
L 123.206228 225.540873 
L 146.989228 228.68011 
L 170.813677 230.630811 
L 170.813677 230.630811 
L 189.847905 229.183961 
L 208.561628 225.715945 
L 232.200619 221.888053 
L 256.044425 219.196484 
" clip-path="url(#pacb5b21ce9)" style="fill: none; stroke: #000000; stroke-width: 1.5"/>
    <path d="M 331.457165 557.73527 
L 346.047618 555.579718 
L 359.474346 553.943301 
L 372.562337 555.143553 
L 372.562337 555.143553 
L 391.011241 561.040009 
L 408.512385 570.257265 
L 408.512385 570.257265 
L 426.738276 583.093886 
L 446.896552 595.862069 
L 468.473242 605.871318 
L 468.473242 605.871318 
" clip-path="url(#pacb5b21ce9)" style="fill: none; stroke: #000000; stroke-width: 1.5"/>
    <path d="M 450.292475 454.73375 
L 450.581753 456.94896 
L 448.19475 457.196819 
L 448.970831 454.449946 
L 450.812444 455.720183 
L 449.854612 457.591179 
L 447.64373 455.917716 
L 450.06984 454.631964 
L 450.610928 456.749492 
L 448.476218 457.348176 
L 448.602627 454.546205 
L 450.780698 455.395746 
L 450.163846 457.496404 
L 447.651628 456.33533 
L 449.838948 454.555367 
L 450.651075 456.541332 
L 448.797281 457.475773 
L 448.233486 454.770237 
L 450.666427 455.099082 
L 450.395116 457.33341 
L 447.766084 456.717185 
L 449.575493 454.486436 
L 450.71803 456.29374 
L 449.163242 457.572918 
L 447.922755 455.122427 
L 450.480523 454.868852 
L 450.52909 457.129189 
L 447.973401 457.015599 
L 449.268062 454.441933 
L 450.785628 455.99876 
L 449.544523 457.613756 
L 447.722497 455.544542 
L 450.262214 454.717317 
L 450.586515 456.921319 
L 448.231817 457.220425 
L 448.921203 454.456714 
L 450.812746 455.674818 
L 449.899925 457.582863 
L 447.640793 455.969824 
L 450.042859 454.625819 
L 450.609409 456.726398 
L 448.517246 457.365378 
L 448.541062 454.568155 
L 450.772874 455.340246 
L 450.203548 457.482297 
L 447.669866 456.32359 
L 449.852097 454.598938 
L 450.60588 456.554251 
L 448.959907 457.532594 
L 447.777872 455.106835 
L 450.49295 454.577683 
L 451.070125 456.880442 
L 449.424691 458.33056 
L 446.878759 457.448678 
L 445.846 455.228336 
L 446.801048 452.576817 
L 450.349804 450.973218 
L 450.349804 450.973218 
L 453.77823 453.013756 
L 453.77823 453.013756 
L 455.151328 457.312721 
L 454.195804 461.020239 
L 450.219591 464.097172 
L 443.851659 464.901644 
L 443.851659 464.901644 
L 436.235816 463.582775 
L 430.788052 461.075576 
L 427.458445 457.728501 
L 426.14459 453.888358 
L 426.819801 448.735811 
L 426.819801 448.735811 
L 430.041125 441.473222 
L 430.041125 441.473222 
L 436.523236 431.266075 
L 444.872616 422.238404 
L 444.872616 422.238404 
L 454.662541 414.338313 
L 462.42037 409.268009 
L 468.288556 407.2198 
L 474.312129 407.678521 
L 478.406015 411.578265 
L 479.730715 417.712321 
L 479.730715 417.712321 
L 478.059332 426.932064 
L 475.920532 435.164207 
L 475.906983 443.106686 
L 475.906983 443.106686 
L 477.598391 456.67413 
L 477.598391 456.67413 
L 478.83432 467.762274 
L 478.657353 476.803513 
L 476.008902 484.923787 
L 476.008902 484.923787 
L 470.200513 492.973299 
L 470.200513 492.973299 
L 464.353209 499.329955 
L 460.126144 505.532951 
L 458.524332 512.507506 
L 459.560736 519.903664 
L 459.560736 519.903664 
L 463.101505 529.912976 
L 463.101505 529.912976 
L 472.652875 551.881313 
L 479.527986 566.209363 
L 486.336499 577.415771 
L 495.618475 586.638671 
L 507.039144 592.887692 
L 521.37931 595.862069 
L 521.37931 595.862069 
L 545.141242 598.815854 
L 545.141242 598.815854 
" clip-path="url(#pacb5b21ce9)" style="fill: none; stroke: #000000; stroke-width: 1.5"/>
    <path d="M 582.133923 498.744743 
L 582.133923 498.744743 
L 576.152323 513.921804 
L 572.175283 526.237276 
L 570.735775 538.239812 
L 571.735471 547.827027 
L 576.30502 557.411593 
L 583.943273 564.617476 
L 583.943273 564.617476 
L 595.862069 571.034483 
L 595.862069 571.034483 
" clip-path="url(#pacb5b21ce9)" style="fill: none; stroke: #000000; stroke-width: 1.5"/>
    <path d="M 39.793648 258.866312 
L 53.430888 257.082171 
L 67.867604 257.668686 
L 67.867604 257.668686 
L 90.718782 263.253599 
L 107.263616 268.67783 
L 124.137931 273.103448 
L 124.137931 273.103448 
L 147.935153 275.959461 
L 171.836709 278.050536 
L 195.75572 279.498946 
L 195.75572 279.498946 
L 211.924293 278.387006 
L 228.115425 274.506993 
L 245.432862 268.911812 
" clip-path="url(#pacb5b21ce9)" style="fill: none; stroke: #000000; stroke-width: 1.5"/>
    <path d="M 157.410288 523.972472 
L 147.697811 517.77716 
L 139.767685 510.226374 
L 139.767685 510.226374 
L 132.945435 498.74793 
L 132.945435 498.74793 
L 125.092404 476.98552 
L 117.756021 454.265331 
L 115.111516 445.961777 
L 114.422191 437.447059 
L 117.634867 429.207473 
L 124.137931 422.068966 
L 124.137931 422.068966 
L 141.974496 406.216596 
L 159.572213 390.387912 
L 159.572213 390.387912 
" clip-path="url(#pacb5b21ce9)" style="fill: none; stroke: #000000; stroke-width: 1.5"/>
    <path d="M 213.577721 577.104274 
L 223.448276 571.034483 
L 223.448276 571.034483 
L 223.448276 571.034483 
L 229.900575 566.364075 
L 229.900575 566.364075 
L 234.816033 562.906518 
L 238.229386 560.266762 
L 239.891086 558.628208 
L 240.563 557.340725 
L 240.406999 556.203916 
L 239.509679 555.022182 
L 237.989364 553.646686 
L 236.650329 552.386827 
" clip-path="url(#pacb5b21ce9)" style="fill: none; stroke: #000000; stroke-width: 1.5"/>
    <path d="M 409.034255 489.074313 
L 406.037915 498.584186 
L 406.010384 508.809162 
L 406.010384 508.809162 
L 409.280966 520.489975 
L 409.280966 520.489975 
L 416.926773 534.308149 
L 416.926773 534.308149 
L 431.374596 552.865253 
L 446.896552 571.034483 
L 446.896552 571.034483 
" clip-path="url(#pacb5b21ce9)" style="fill: none; stroke: #000000; stroke-width: 1.5"/>
    <path d="M 509.410222 91.76278 
L 509.410222 91.76278 
L 524.280947 100.335109 
L 537.490859 111.819267 
L 537.490859 111.819267 
L 549.946086 127.173565 
L 559.063883 138.586372 
L 571.034483 148.965517 
L 571.034483 148.965517 
L 589.57805 164.046805 
L 605.242522 178.191801 
" clip-path="url(#pacb5b21ce9)" style="fill: none; stroke: #000000; stroke-width: 1.5"/>
    <path d="M 148.965517 173.793103 
L 148.965517 173.793103 
L 165.658853 170.231103 
L 183.738602 169.619222 
L 201.586913 170.676466 
L 225.457847 171.054065 
L 249.398717 169.586033 
" clip-path="url(#pacb5b21ce9)" style="fill: none; stroke: #000000; stroke-width: 1.5"/>
    <path d="M 284.723292 420.711965 
L 282.674246 419.781783 
L 281.181795 418.616175 
L 281.011515 417.720004 
L 282.078884 417.031795 
L 284.307344 416.386263 
L 287.687255 415.617228 
L 292.970686 414.2857 
L 298.981919 412.338977 
L 298.981919 412.338977 
L 315.224613 405.943459 
L 324.507389 402.30335 
L 334.106644 400.594461 
L 343.531649 401.887647 
L 343.531649 401.887647 
L 355.682709 407.07571 
L 365.902926 414.050327 
L 374.701744 422.739116 
L 374.701744 422.739116 
L 383.509937 433.935447 
L 387.561811 439.860747 
L 391.168432 447.02222 
L 392.911906 454.548956 
L 392.272441 462.149991 
L 388.823207 469.290041 
L 388.823207 469.290041 
L 382.295734 478.824852 
L 377.521065 487.720058 
L 375.011088 497.669783 
L 375.011088 497.669783 
L 374.564266 513.04423 
L 375.544723 522.601642 
L 379.243064 532.116875 
L 385.991322 539.226802 
L 385.991322 539.226802 
L 397.241379 546.206897 
L 397.241379 546.206897 
L 397.241379 546.206897 
" clip-path="url(#pacb5b21ce9)" style="fill: none; stroke: #000000; stroke-width: 1.5"/>
    <path d="M 513.857214 437.468581 
L 517.673239 460.915408 
L 519.477984 471.192743 
L 519.694433 480.385265 
L 516.90077 488.23182 
L 510.841573 494.671139 
L 510.841573 494.671139 
L 503.419865 501.480929 
L 497.577843 509.10896 
L 494.258563 518.127714 
L 494.258563 518.127714 
L 493.608062 529.820906 
L 493.608062 529.820906 
L 496.551724 546.206897 
L 496.551724 546.206897 
L 496.551724 546.206897 
" clip-path="url(#pacb5b21ce9)" style="fill: none; stroke: #000000; stroke-width: 1.5"/>
    <path d="M 165.80729 475.806345 
L 164.287899 467.607572 
L 164.635379 460.490373 
L 167.986753 452.902306 
L 173.793103 446.896552 
L 173.793103 446.896552 
L 173.793103 446.896552 
L 173.793103 446.896552 
L 183.723093 440.991909 
L 194.149588 437.880359 
L 208.415459 435.952886 
L 228.49259 436.894537 
L 245.565179 440.534407 
L 267.975837 447.080646 
L 267.975837 447.080646 
L 285.567158 454.896178 
L 285.567158 454.896178 
L 297.860346 462.518764 
L 297.860346 462.518764 
L 303.577702 467.025309 
L 307.900962 471.191087 
L 310.882819 476.251767 
L 312.485494 482.71921 
L 313.743041 493.374224 
L 313.143809 506.486794 
L 308.959467 518.250315 
L 303.032289 527.073454 
L 303.032289 527.073454 
L 296.340935 533.210852 
L 287.944135 536.966938 
L 279.192774 538.542057 
L 267.390798 539.310025 
" clip-path="url(#pacb5b21ce9)" style="fill: none; stroke: #000000; stroke-width: 1.5"/>
    <path d="M 284.543298 518.849761 
L 276.703322 522.820861 
L 276.703322 522.820861 
L 266.068462 524.823155 
L 266.068462 524.823155 
L 247.600663 525.426844 
L 235.95272 524.718227 
L 223.448276 521.37931 
L 223.448276 521.37931 
L 223.448276 521.37931 
L 214.112009 515.589327 
L 207.851044 507.804457 
L 203.986371 498.197809 
L 203.986371 498.197809 
L 203.342935 490.60804 
L 205.428693 484.359916 
L 209.87635 479.876126 
L 216.410121 477.136322 
L 224.859819 476.233804 
L 235.078965 477.218444 
L 248.08053 481.370517 
L 258.635269 488.816926 
L 258.635269 488.816926 
L 263.126188 495.847099 
L 263.126188 495.847099 
L 264.055583 501.526283 
L 262.821103 505.811056 
" clip-path="url(#pacb5b21ce9)" style="fill: none; stroke: #000000; stroke-width: 1.5"/>
    <path d="M 198.62069 422.068966 
L 220.092424 411.82998 
L 240.902384 402.087849 
L 240.902384 402.087849 
L 257.894154 395.081279 
L 278.234113 390.262546 
L 278.234113 390.262546 
L 291.151519 386.962489 
" clip-path="url(#pacb5b21ce9)" style="fill: none; stroke: #000000; stroke-width: 1.5"/>
    <path d="M 416.593284 431.156439 
L 416.593284 431.156439 
L 425.43507 413.933849 
L 431.675793 402.134998 
L 439.852944 391.224192 
L 447.133291 384.873724 
L 455.489308 380.646106 
L 465.77655 379.841334 
L 477.079904 383.715267 
L 486.376162 390.823127 
L 492.881238 399.335073 
L 496.850199 409.234336 
L 498.069428 420.236693 
L 498.069428 420.236693 
L 496.400532 440.088516 
L 495.096378 455.83137 
L 496.551724 471.724138 
L 496.551724 471.724138 
L 496.551724 471.724138 
L 496.965623 479.854562 
" clip-path="url(#pacb5b21ce9)" style="fill: none; stroke: #000000; stroke-width: 1.5"/>
    <path d="M 207.953462 382.986137 
L 207.953462 382.986137 
L 223.448276 372.413793 
L 223.448276 372.413793 
L 242.731653 358.506811 
L 262.75951 346.035953 
L 262.75951 346.035953 
L 276.018857 340.372704 
L 289.072413 337.642885 
L 305.025186 336.397349 
L 327.947307 335.329052 
L 350.738254 333.397133 
L 350.738254 333.397133 
L 369.191282 330.076032 
L 369.191282 330.076032 
L 380.807414 325.477182 
L 391.703138 318.516679 
L 404.456195 311.908055 
L 416.972398 308.140691 
L 431.187577 305.296692 
" clip-path="url(#pacb5b21ce9)" style="fill: none; stroke: #000000; stroke-width: 1.5"/>
    <path d="M 367.638065 398.078097 
L 377.634605 400.11966 
L 387.876065 400.0728 
L 397.241379 397.241379 
L 397.241379 397.241379 
L 397.241379 397.241379 
L 408.443831 390.026295 
L 417.148623 382.888554 
L 417.148623 382.888554 
L 431.605024 373.261895 
" clip-path="url(#pacb5b21ce9)" style="fill: none; stroke: #000000; stroke-width: 1.5"/>
   </g>
   <g id="patch_3">
    <path d="M 41.406029 703.353315 
Q 38.515301 701.59141 37.056594 700.702325 
" clip-path="url(#pacb5b21ce9)" style="fill: none; stroke: #000000; stroke-width: 1.5; stroke-linecap: round"/>
    <path d="M 39.431266 704.491908 
L 37.056594 700.702325 
L 41.513063 701.076337 
z
" clip-path="url(#pacb5b21ce9)" style="stroke: #000000; stroke-width: 1.5; stroke-linecap: round"/>
   </g>
   <g id="patch_4">
    <path d="M 210.002166 711.407279 
Q 207.671113 711.905801 206.980027 712.053598 
" clip-path="url(#pacb5b21ce9)" style="fill: none; stroke: #000000; stroke-width: 1.5; stroke-linecap: round"/>
    <path d="M 211.309841 713.172842 
L 206.980027 712.053598 
L 210.473311 709.261293 
z
" clip-path="url(#pacb5b21ce9)" style="stroke: #000000; stroke-width: 1.5; stroke-linecap: round"/>
   </g>
   <g id="patch_5">
    <path d="M 215.462745 639.785778 
Q 219.164777 640.249027 221.202736 640.504045 
" clip-path="url(#pacb5b21ce9)" style="fill: none; stroke: #000000; stroke-width: 1.5; stroke-linecap: round"/>
    <path d="M 217.482021 638.02286 
L 221.202736 640.504045 
L 216.985359 641.991906 
z
" clip-path="url(#pacb5b21ce9)" style="stroke: #000000; stroke-width: 1.5; stroke-linecap: round"/>
   </g>
   <g id="patch_6">
    <path d="M 306.641499 632.88857 
Q 308.933154 634.906782 309.966247 635.816606 
" clip-path="url(#pacb5b21ce9)" style="fill: none; stroke: #000000; stroke-width: 1.5; stroke-linecap: round"/>
    <path d="M 308.286234 631.672024 
L 309.966247 635.816606 
L 305.642574 634.673867 
z
" clip-path="url(#pacb5b21ce9)" style="stroke: #000000; stroke-width: 1.5; stroke-linecap: round"/>
   </g>
   <g id="patch_7">
    <path d="M 343.563088 592.326747 
Q 343.950923 592.739146 343.189847 591.929865 
" clip-path="url(#pacb5b21ce9)" style="fill: none; stroke: #000000; stroke-width: 1.5; stroke-linecap: round"/>
    <path d="M 341.906474 587.64583 
L 343.189847 591.929865 
L 338.992595 590.386141 
z
" clip-path="url(#pacb5b21ce9)" style="stroke: #000000; stroke-width: 1.5; stroke-linecap: round"/>
   </g>
   <g id="patch_8">
    <path d="M 409.762781 675.740452 
Q 409.180448 676.717989 409.456406 676.254749 
" clip-path="url(#pacb5b21ce9)" style="fill: none; stroke: #000000; stroke-width: 1.5; stroke-linecap: round"/>
    <path d="M 413.221777 673.84187 
L 409.456406 676.254749 
L 409.785325 671.794726 
z
" clip-path="url(#pacb5b21ce9)" style="stroke: #000000; stroke-width: 1.5; stroke-linecap: round"/>
   </g>
   <g id="patch_9">
    <path d="M 430.499721 688.933847 
Q 427.804472 691.759643 426.266714 693.371885 
" clip-path="url(#pacb5b21ce9)" style="fill: none; stroke: #000000; stroke-width: 1.5; stroke-linecap: round"/>
    <path d="M 430.474739 691.857775 
L 426.266714 693.371885 
L 427.580241 689.096999 
z
" clip-path="url(#pacb5b21ce9)" style="stroke: #000000; stroke-width: 1.5; stroke-linecap: round"/>
   </g>
   <g id="patch_10">
    <path d="M 452.450119 686.615195 
Q 450.046842 689.632366 448.688435 691.337765 
" clip-path="url(#pacb5b21ce9)" style="fill: none; stroke: #000000; stroke-width: 1.5; stroke-linecap: round"/>
    <path d="M 452.744975 689.455086 
L 448.688435 691.337765 
L 449.616216 686.962925 
z
" clip-path="url(#pacb5b21ce9)" style="stroke: #000000; stroke-width: 1.5; stroke-linecap: round"/>
   </g>
   <g id="patch_11">
    <path d="M 420.082179 609.313984 
Q 421.399784 610.036757 421.247031 609.952965 
" clip-path="url(#pacb5b21ce9)" style="fill: none; stroke: #000000; stroke-width: 1.5; stroke-linecap: round"/>
    <path d="M 418.70191 606.275689 
L 421.247031 609.952965 
L 416.778138 609.782696 
z
" clip-path="url(#pacb5b21ce9)" style="stroke: #000000; stroke-width: 1.5; stroke-linecap: round"/>
   </g>
   <g id="patch_12">
    <path d="M 546.452444 656.590386 
Q 546.403621 656.856168 546.657799 655.472499 
" clip-path="url(#pacb5b21ce9)" style="fill: none; stroke: #000000; stroke-width: 1.5; stroke-linecap: round"/>
    <path d="M 549.347588 651.899679 
L 546.657799 655.472499 
L 545.413417 651.176976 
z
" clip-path="url(#pacb5b21ce9)" style="stroke: #000000; stroke-width: 1.5; stroke-linecap: round"/>
   </g>
   <g id="patch_13">
    <path d="M 563.855578 670.346043 
Q 564.011171 670.970852 563.761513 669.968311 
" clip-path="url(#pacb5b21ce9)" style="fill: none; stroke: #000000; stroke-width: 1.5; stroke-linecap: round"/>
    <path d="M 564.735663 665.603562 
L 563.761513 669.968311 
L 560.854204 666.570142 
z
" clip-path="url(#pacb5b21ce9)" style="stroke: #000000; stroke-width: 1.5; stroke-linecap: round"/>
   </g>
   <g id="patch_14">
    <path d="M 587.599109 670.190281 
Q 587.763596 670.567986 587.258485 669.408116 
" clip-path="url(#pacb5b21ce9)" style="fill: none; stroke: #000000; stroke-width: 1.5; stroke-linecap: round"/>
    <path d="M 587.495069 664.942242 
L 587.258485 669.408116 
L 583.827737 666.539325 
z
" clip-path="url(#pacb5b21ce9)" style="stroke: #000000; stroke-width: 1.5; stroke-linecap: round"/>
   </g>
   <g id="patch_15">
    <path d="M 354.229891 367.198206 
Q 355.653635 367.344525 355.409115 367.319396 
" clip-path="url(#pacb5b21ce9)" style="fill: none; stroke: #000000; stroke-width: 1.5; stroke-linecap: round"/>
    <path d="M 351.634538 364.920945 
L 355.409115 367.319396 
L 351.225608 368.899987 
z
" clip-path="url(#pacb5b21ce9)" style="stroke: #000000; stroke-width: 1.5; stroke-linecap: round"/>
   </g>
   <g id="patch_16">
    <path d="M 708.071043 689.017399 
Q 708.014465 689.151661 708.609136 687.740488 
" clip-path="url(#pacb5b21ce9)" style="fill: none; stroke: #000000; stroke-width: 1.5; stroke-linecap: round"/>
    <path d="M 712.005499 684.831069 
L 708.609136 687.740488 
L 708.319419 683.277746 
z
" clip-path="url(#pacb5b21ce9)" style="stroke: #000000; stroke-width: 1.5; stroke-linecap: round"/>
   </g>
   <g id="patch_17">
    <path d="M 597.138411 462.781906 
Q 597.957146 464.247197 597.957859 464.248473 
" clip-path="url(#pacb5b21ce9)" style="fill: none; stroke: #000000; stroke-width: 1.5; stroke-linecap: round"/>
    <path d="M 597.752703 459.781045 
L 597.957859 464.248473 
L 594.260823 461.732142 
z
" clip-path="url(#pacb5b21ce9)" style="stroke: #000000; stroke-width: 1.5; stroke-linecap: round"/>
   </g>
   <g id="patch_18">
    <path d="M 650.213003 528.902781 
Q 650.765565 529.176726 649.815595 528.705758 
" clip-path="url(#pacb5b21ce9)" style="fill: none; stroke: #000000; stroke-width: 1.5; stroke-linecap: round"/>
    <path d="M 647.120205 525.137162 
L 649.815595 528.705758 
L 645.343485 528.720912 
z
" clip-path="url(#pacb5b21ce9)" style="stroke: #000000; stroke-width: 1.5; stroke-linecap: round"/>
   </g>
   <g id="patch_19">
    <path d="M 630.055831 446.067702 
Q 632.619423 449.094671 634.099168 450.841884 
" clip-path="url(#pacb5b21ce9)" style="fill: none; stroke: #000000; stroke-width: 1.5; stroke-linecap: round"/>
    <path d="M 633.040239 446.496925 
L 634.099168 450.841884 
L 629.987843 449.082051 
z
" clip-path="url(#pacb5b21ce9)" style="stroke: #000000; stroke-width: 1.5; stroke-linecap: round"/>
   </g>
   <g id="patch_20">
    <path d="M 345.406795 288.435161 
Q 347.993961 287.659626 348.974699 287.365638 
" clip-path="url(#pacb5b21ce9)" style="fill: none; stroke: #000000; stroke-width: 1.5; stroke-linecap: round"/>
    <path d="M 344.568866 286.598415 
L 348.974699 287.365638 
L 345.717421 290.429971 
z
" clip-path="url(#pacb5b21ce9)" style="stroke: #000000; stroke-width: 1.5; stroke-linecap: round"/>
   </g>
   <g id="patch_21">
    <path d="M 668.539756 424.942826 
Q 671.501657 427.614401 673.218242 429.162727 
" clip-path="url(#pacb5b21ce9)" style="fill: none; stroke: #000000; stroke-width: 1.5; stroke-linecap: round"/>
    <path d="M 671.587545 424.998495 
L 673.218242 429.162727 
L 668.908439 427.968746 
z
" clip-path="url(#pacb5b21ce9)" style="stroke: #000000; stroke-width: 1.5; stroke-linecap: round"/>
   </g>
   <g id="patch_22">
    <path d="M 621.712739 347.958974 
Q 624.600171 350.705024 626.272371 352.295345 
" clip-path="url(#pacb5b21ce9)" style="fill: none; stroke: #000000; stroke-width: 1.5; stroke-linecap: round"/>
    <path d="M 624.75216 348.089521 
L 626.272371 352.295345 
L 621.995585 350.98802 
z
" clip-path="url(#pacb5b21ce9)" style="stroke: #000000; stroke-width: 1.5; stroke-linecap: round"/>
   </g>
   <g id="patch_23">
    <path d="M 654.938193 358.294206 
Q 657.806394 360.791287 659.409737 362.187171 
" clip-path="url(#pacb5b21ce9)" style="fill: none; stroke: #000000; stroke-width: 1.5; stroke-linecap: round"/>
    <path d="M 657.706127 358.052233 
L 659.409737 362.187171 
L 655.07962 361.069095 
z
" clip-path="url(#pacb5b21ce9)" style="stroke: #000000; stroke-width: 1.5; stroke-linecap: round"/>
   </g>
   <g id="patch_24">
    <path d="M 642.060466 320.281609 
Q 645.472613 322.348541 647.450356 323.546573 
" clip-path="url(#pacb5b21ce9)" style="fill: none; stroke: #000000; stroke-width: 1.5; stroke-linecap: round"/>
    <path d="M 645.065328 319.7635 
L 647.450356 323.546573 
L 642.99288 323.184751 
z
" clip-path="url(#pacb5b21ce9)" style="stroke: #000000; stroke-width: 1.5; stroke-linecap: round"/>
   </g>
   <g id="patch_25">
    <path d="M 368.945483 169.232083 
Q 372.716258 170.523295 374.900423 171.27121 
" clip-path="url(#pacb5b21ce9)" style="fill: none; stroke: #000000; stroke-width: 1.5; stroke-linecap: round"/>
    <path d="M 371.764058 168.08323 
L 374.900423 171.27121 
L 370.46822 171.867514 
z
" clip-path="url(#pacb5b21ce9)" style="stroke: #000000; stroke-width: 1.5; stroke-linecap: round"/>
   </g>
   <g id="patch_26">
    <path d="M 343.931518 129.642657 
Q 347.789507 130.698162 350.029891 131.311108 
" clip-path="url(#pacb5b21ce9)" style="fill: none; stroke: #000000; stroke-width: 1.5; stroke-linecap: round"/>
    <path d="M 346.699464 128.326438 
L 350.029891 131.311108 
L 345.643899 132.184647 
z
" clip-path="url(#pacb5b21ce9)" style="stroke: #000000; stroke-width: 1.5; stroke-linecap: round"/>
   </g>
   <g id="patch_27">
    <path d="M 358.583979 72.352819 
Q 362.272907 73.895238 364.414588 74.790721 
" clip-path="url(#pacb5b21ce9)" style="fill: none; stroke: #000000; stroke-width: 1.5; stroke-linecap: round"/>
    <path d="M 361.495706 71.402487 
L 364.414588 74.790721 
L 359.952672 75.092886 
z
" clip-path="url(#pacb5b21ce9)" style="stroke: #000000; stroke-width: 1.5; stroke-linecap: round"/>
   </g>
   <g id="patch_28">
    <path d="M 510.836274 64.037417 
Q 513.498257 65.540148 514.699822 66.218451 
" clip-path="url(#pacb5b21ce9)" style="fill: none; stroke: #000000; stroke-width: 1.5; stroke-linecap: round"/>
    <path d="M 512.199713 62.510426 
L 514.699822 66.218451 
L 510.233336 65.993723 
z
" clip-path="url(#pacb5b21ce9)" style="stroke: #000000; stroke-width: 1.5; stroke-linecap: round"/>
   </g>
   <g id="patch_29">
    <path d="M 623.299984 118.012065 
Q 625.014117 121.108156 625.915946 122.737052 
" clip-path="url(#pacb5b21ce9)" style="fill: none; stroke: #000000; stroke-width: 1.5; stroke-linecap: round"/>
    <path d="M 625.72822 118.268858 
L 625.915946 122.737052 
L 622.228755 120.206316 
z
" clip-path="url(#pacb5b21ce9)" style="stroke: #000000; stroke-width: 1.5; stroke-linecap: round"/>
   </g>
   <g id="patch_30">
    <path d="M 651.747814 76.142037 
Q 651.951738 78.785538 652.026674 79.756956 
" clip-path="url(#pacb5b21ce9)" style="fill: none; stroke: #000000; stroke-width: 1.5; stroke-linecap: round"/>
    <path d="M 653.713098 75.614979 
L 652.026674 79.756956 
L 649.724947 75.92263 
z
" clip-path="url(#pacb5b21ce9)" style="stroke: #000000; stroke-width: 1.5; stroke-linecap: round"/>
   </g>
   <g id="patch_31">
    <path d="M 700.68784 88.51623 
Q 700.717513 88.674813 700.438742 87.184952 
" clip-path="url(#pacb5b21ce9)" style="fill: none; stroke: #000000; stroke-width: 1.5; stroke-linecap: round"/>
    <path d="M 701.668946 82.885348 
L 700.438742 87.184952 
L 697.737181 83.621027 
z
" clip-path="url(#pacb5b21ce9)" style="stroke: #000000; stroke-width: 1.5; stroke-linecap: round"/>
   </g>
   <g id="patch_32">
    <path d="M 681.506391 60.314443 
Q 681.27189 61.162055 681.484565 60.393333 
" clip-path="url(#pacb5b21ce9)" style="fill: none; stroke: #000000; stroke-width: 1.5; stroke-linecap: round"/>
    <path d="M 684.478732 57.071442 
L 681.484565 60.393333 
L 680.623552 56.004865 
z
" clip-path="url(#pacb5b21ce9)" style="stroke: #000000; stroke-width: 1.5; stroke-linecap: round"/>
   </g>
   <g id="patch_33">
    <path d="M 617.004323 22.965078 
Q 617.150604 24.716954 617.157338 24.797595 
" clip-path="url(#pacb5b21ce9)" style="fill: none; stroke: #000000; stroke-width: 1.5; stroke-linecap: round"/>
    <path d="M 618.817561 20.645046 
L 617.157338 24.797595 
L 614.831433 20.977887 
z
" clip-path="url(#pacb5b21ce9)" style="stroke: #000000; stroke-width: 1.5; stroke-linecap: round"/>
   </g>
   <g id="patch_34">
    <path d="M 514.675513 16.913418 
Q 517.491863 17.72412 518.696604 18.070911 
" clip-path="url(#pacb5b21ce9)" style="fill: none; stroke: #000000; stroke-width: 1.5; stroke-linecap: round"/>
    <path d="M 515.405935 15.042463 
L 518.696604 18.070911 
L 514.299444 18.886377 
z
" clip-path="url(#pacb5b21ce9)" style="stroke: #000000; stroke-width: 1.5; stroke-linecap: round"/>
   </g>
   <g id="patch_35">
    <path d="M 507.762937 31.240647 
Q 511.341716 32.893958 513.398055 33.843937 
" clip-path="url(#pacb5b21ce9)" style="fill: none; stroke: #000000; stroke-width: 1.5; stroke-linecap: round"/>
    <path d="M 510.605594 30.350778 
L 513.398055 33.843937 
L 508.928051 33.98201 
z
" clip-path="url(#pacb5b21ce9)" style="stroke: #000000; stroke-width: 1.5; stroke-linecap: round"/>
   </g>
   <g id="patch_36">
    <path d="M 391.226877 22.328021 
Q 393.520637 23.062721 394.217275 23.285857 
" clip-path="url(#pacb5b21ce9)" style="fill: none; stroke: #000000; stroke-width: 1.5; stroke-linecap: round"/>
    <path d="M 391.017991 20.161024 
L 394.217275 23.285857 
L 389.797838 23.970384 
z
" clip-path="url(#pacb5b21ce9)" style="stroke: #000000; stroke-width: 1.5; stroke-linecap: round"/>
   </g>
   <g id="patch_37">
    <path d="M 150.014183 1.460985 
Q 153.442607 1.481114 155.194008 1.491397 
" clip-path="url(#pacb5b21ce9)" style="fill: none; stroke: #000000; stroke-width: 1.5; stroke-linecap: round"/>
    <path d="M 151.205819 -0.532053 
L 155.194008 1.491397 
L 151.182334 3.467878 
z
" clip-path="url(#pacb5b21ce9)" style="stroke: #000000; stroke-width: 1.5; stroke-linecap: round"/>
   </g>
   <g id="patch_38">
    <path d="M 27.142285 37.973079 
Q 30.167457 35.371247 31.921152 33.862963 
" clip-path="url(#pacb5b21ce9)" style="fill: none; stroke: #000000; stroke-width: 1.5; stroke-linecap: round"/>
    <path d="M 27.584371 34.954901 
L 31.921152 33.862963 
L 30.192634 37.987551 
z
" clip-path="url(#pacb5b21ce9)" style="stroke: #000000; stroke-width: 1.5; stroke-linecap: round"/>
   </g>
   <g id="patch_39">
    <path d="M 243.951791 61.69407 
Q 247.838602 62.592059 250.091405 63.112535 
" clip-path="url(#pacb5b21ce9)" style="fill: none; stroke: #000000; stroke-width: 1.5; stroke-linecap: round"/>
    <path d="M 246.644278 60.263445 
L 250.091405 63.112535 
L 245.743857 64.160783 
z
" clip-path="url(#pacb5b21ce9)" style="stroke: #000000; stroke-width: 1.5; stroke-linecap: round"/>
   </g>
   <g id="patch_40">
    <path d="M 233.280001 240.916524 
Q 237.185895 240.146875 239.446378 239.701451 
" clip-path="url(#pacb5b21ce9)" style="fill: none; stroke: #000000; stroke-width: 1.5; stroke-linecap: round"/>
    <path d="M 235.135182 238.512506 
L 239.446378 239.701451 
L 235.908504 242.43704 
z
" clip-path="url(#pacb5b21ce9)" style="stroke: #000000; stroke-width: 1.5; stroke-linecap: round"/>
   </g>
   <g id="patch_41">
    <path d="M 156.942854 308.513684 
Q 160.892108 308.598863 163.164701 308.64788 
" clip-path="url(#pacb5b21ce9)" style="fill: none; stroke: #000000; stroke-width: 1.5; stroke-linecap: round"/>
    <path d="M 159.208758 306.562091 
L 163.164701 308.64788 
L 159.122505 310.561161 
z
" clip-path="url(#pacb5b21ce9)" style="stroke: #000000; stroke-width: 1.5; stroke-linecap: round"/>
   </g>
   <g id="patch_42">
    <path d="M 27.413855 461.993838 
Q 26.43385 458.149947 25.868158 455.931124 
" clip-path="url(#pacb5b21ce9)" style="fill: none; stroke: #000000; stroke-width: 1.5; stroke-linecap: round"/>
    <path d="M 24.918346 460.301233 
L 25.868158 455.931124 
L 28.794358 459.313039 
z
" clip-path="url(#pacb5b21ce9)" style="stroke: #000000; stroke-width: 1.5; stroke-linecap: round"/>
   </g>
   <g id="patch_43">
    <path d="M 8.96283 461.709885 
Q 8.490421 459.085101 8.315074 458.110848 
" clip-path="url(#pacb5b21ce9)" style="fill: none; stroke: #000000; stroke-width: 1.5; stroke-linecap: round"/>
    <path d="M 7.055238 462.401864 
L 8.315074 458.110848 
L 10.991984 461.693327 
z
" clip-path="url(#pacb5b21ce9)" style="stroke: #000000; stroke-width: 1.5; stroke-linecap: round"/>
   </g>
   <g id="patch_44">
    <path d="M 76.090545 691.723915 
Q 73.055275 689.289838 71.328329 687.904947 
" clip-path="url(#pacb5b21ce9)" style="fill: none; stroke: #000000; stroke-width: 1.5; stroke-linecap: round"/>
    <path d="M 73.197637 691.967666 
L 71.328329 687.904947 
L 75.70009 688.847132 
z
" clip-path="url(#pacb5b21ce9)" style="stroke: #000000; stroke-width: 1.5; stroke-linecap: round"/>
   </g>
   <g id="patch_45">
    <path d="M 164.163187 702.426206 
Q 162.300414 702.418024 162.114677 702.417208 
" clip-path="url(#pacb5b21ce9)" style="fill: none; stroke: #000000; stroke-width: 1.5; stroke-linecap: round"/>
    <path d="M 166.105854 704.434758 
L 162.114677 702.417208 
L 166.123423 700.434796 
z
" clip-path="url(#pacb5b21ce9)" style="stroke: #000000; stroke-width: 1.5; stroke-linecap: round"/>
   </g>
   <g id="patch_46">
    <path d="M 688.0156 656.485643 
Q 687.710553 657.906862 687.757448 657.688374 
" clip-path="url(#pacb5b21ce9)" style="fill: none; stroke: #000000; stroke-width: 1.5; stroke-linecap: round"/>
    <path d="M 690.552345 654.197163 
L 687.757448 657.688374 
L 686.641418 653.35773 
z
" clip-path="url(#pacb5b21ce9)" style="stroke: #000000; stroke-width: 1.5; stroke-linecap: round"/>
   </g>
   <g id="patch_47">
    <path d="M 26.727362 297.302022 
Q 27.694296 296.981873 27.069174 297.188849 
" clip-path="url(#pacb5b21ce9)" style="fill: none; stroke: #000000; stroke-width: 1.5; stroke-linecap: round"/>
    <path d="M 22.643268 296.547482 
L 27.069174 297.188849 
L 23.900537 300.344754 
z
" clip-path="url(#pacb5b21ce9)" style="stroke: #000000; stroke-width: 1.5; stroke-linecap: round"/>
   </g>
   <g id="patch_48">
    <path d="M 46.608408 368.394575 
Q 46.274424 368.292377 47.544091 368.680891 
" clip-path="url(#pacb5b21ce9)" style="fill: none; stroke: #000000; stroke-width: 1.5; stroke-linecap: round"/>
    <path d="M 50.783816 371.763777 
L 47.544091 368.680891 
L 51.954235 367.938843 
z
" clip-path="url(#pacb5b21ce9)" style="stroke: #000000; stroke-width: 1.5; stroke-linecap: round"/>
   </g>
   <g id="patch_49">
    <path d="M 25.603421 544.361143 
Q 27.147427 540.687865 28.041585 538.560614 
" clip-path="url(#pacb5b21ce9)" style="fill: none; stroke: #000000; stroke-width: 1.5; stroke-linecap: round"/>
    <path d="M 24.647862 541.473112 
L 28.041585 538.560614 
L 28.335349 543.023092 
z
" clip-path="url(#pacb5b21ce9)" style="stroke: #000000; stroke-width: 1.5; stroke-linecap: round"/>
   </g>
   <g id="patch_50">
    <path d="M 155.91803 604.895648 
Q 158.491 605.02438 159.389015 605.06931 
" clip-path="url(#pacb5b21ce9)" style="fill: none; stroke: #000000; stroke-width: 1.5; stroke-linecap: round"/>
    <path d="M 155.493952 602.871929 
L 159.389015 605.06931 
L 155.294072 606.866932 
z
" clip-path="url(#pacb5b21ce9)" style="stroke: #000000; stroke-width: 1.5; stroke-linecap: round"/>
   </g>
   <g id="patch_51">
    <path d="M 104.958687 639.386444 
Q 105.903411 638.517713 105.613672 638.784146 
" clip-path="url(#pacb5b21ce9)" style="fill: none; stroke: #000000; stroke-width: 1.5; stroke-linecap: round"/>
    <path d="M 101.315541 640.019489 
L 105.613672 638.784146 
L 104.023068 642.963856 
z
" clip-path="url(#pacb5b21ce9)" style="stroke: #000000; stroke-width: 1.5; stroke-linecap: round"/>
   </g>
   <g id="patch_52">
    <path d="M 623.368519 627.605837 
Q 622.984404 630.843901 622.797844 632.41659 
" clip-path="url(#pacb5b21ce9)" style="fill: none; stroke: #000000; stroke-width: 1.5; stroke-linecap: round"/>
    <path d="M 625.255115 628.680038 
L 622.797844 632.41659 
L 621.282965 628.208842 
z
" clip-path="url(#pacb5b21ce9)" style="stroke: #000000; stroke-width: 1.5; stroke-linecap: round"/>
   </g>
   <g id="patch_53">
    <path d="M 393.298013 69.594704 
Q 397.092591 70.814961 399.290639 71.521808 
" clip-path="url(#pacb5b21ce9)" style="fill: none; stroke: #000000; stroke-width: 1.5; stroke-linecap: round"/>
    <path d="M 396.094971 68.393278 
L 399.290639 71.521808 
L 394.870414 72.201225 
z
" clip-path="url(#pacb5b21ce9)" style="stroke: #000000; stroke-width: 1.5; stroke-linecap: round"/>
   </g>
   <g id="patch_54">
    <path d="M 303.412734 185.666301 
Q 307.384278 185.995661 309.684509 186.186419 
" clip-path="url(#pacb5b21ce9)" style="fill: none; stroke: #000000; stroke-width: 1.5; stroke-linecap: round"/>
    <path d="M 305.863486 183.862676 
L 309.684509 186.186419 
L 305.5329 187.848992 
z
" clip-path="url(#pacb5b21ce9)" style="stroke: #000000; stroke-width: 1.5; stroke-linecap: round"/>
   </g>
   <g id="patch_55">
    <path d="M 179.179655 66.423931 
Q 183.136981 66.479975 185.417424 66.512271 
" clip-path="url(#pacb5b21ce9)" style="fill: none; stroke: #000000; stroke-width: 1.5; stroke-linecap: round"/>
    <path d="M 181.446146 64.455829 
L 185.417424 66.512271 
L 181.389503 68.455428 
z
" clip-path="url(#pacb5b21ce9)" style="stroke: #000000; stroke-width: 1.5; stroke-linecap: round"/>
   </g>
   <g id="patch_56">
    <path d="M 127.085481 134.2067 
Q 130.540237 133.664405 132.338229 133.382174 
" clip-path="url(#pacb5b21ce9)" style="fill: none; stroke: #000000; stroke-width: 1.5; stroke-linecap: round"/>
    <path d="M 128.076473 132.026654 
L 132.338229 133.382174 
L 128.69676 135.978267 
z
" clip-path="url(#pacb5b21ce9)" style="stroke: #000000; stroke-width: 1.5; stroke-linecap: round"/>
   </g>
   <g id="patch_57">
    <path d="M 132.372538 330.571784 
Q 134.534338 330.788993 135.027488 330.838543 
" clip-path="url(#pacb5b21ce9)" style="fill: none; stroke: #000000; stroke-width: 1.5; stroke-linecap: round"/>
    <path d="M 131.247473 328.448671 
L 135.027488 330.838543 
L 130.847582 332.428632 
z
" clip-path="url(#pacb5b21ce9)" style="stroke: #000000; stroke-width: 1.5; stroke-linecap: round"/>
   </g>
   <g id="patch_58">
    <path d="M 68.480068 409.298842 
Q 69.311967 407.627826 69.396462 407.458104 
" clip-path="url(#pacb5b21ce9)" style="fill: none; stroke: #000000; stroke-width: 1.5; stroke-linecap: round"/>
    <path d="M 65.823398 410.147568 
L 69.396462 407.458104 
L 69.404195 411.930233 
z
" clip-path="url(#pacb5b21ce9)" style="stroke: #000000; stroke-width: 1.5; stroke-linecap: round"/>
   </g>
   <g id="patch_59">
    <path d="M 93.248957 536.804577 
Q 92.417965 536.017294 92.804413 536.383415 
" clip-path="url(#pacb5b21ce9)" style="fill: none; stroke: #000000; stroke-width: 1.5; stroke-linecap: round"/>
    <path d="M 94.332662 540.586326 
L 92.804413 536.383415 
L 97.083691 537.682562 
z
" clip-path="url(#pacb5b21ce9)" style="stroke: #000000; stroke-width: 1.5; stroke-linecap: round"/>
   </g>
   <g id="patch_60">
    <path d="M 68.185914 559.057572 
Q 68.959789 558.716482 68.199063 559.051777 
" clip-path="url(#pacb5b21ce9)" style="fill: none; stroke: #000000; stroke-width: 1.5; stroke-linecap: round"/>
    <path d="M 63.732187 558.834931 
L 68.199063 559.051777 
L 65.345461 562.49517 
z
" clip-path="url(#pacb5b21ce9)" style="stroke: #000000; stroke-width: 1.5; stroke-linecap: round"/>
   </g>
   <g id="patch_61">
    <path d="M 172.807252 230.479274 
Q 175.571638 230.269144 176.663798 230.186126 
" clip-path="url(#pacb5b21ce9)" style="fill: none; stroke: #000000; stroke-width: 1.5; stroke-linecap: round"/>
    <path d="M 172.523715 228.495056 
L 176.663798 230.186126 
L 172.826893 232.48355 
z
" clip-path="url(#pacb5b21ce9)" style="stroke: #000000; stroke-width: 1.5; stroke-linecap: round"/>
   </g>
   <g id="patch_62">
    <path d="M 392.784429 561.973887 
Q 395.389024 563.345638 396.50978 563.935902 
" clip-path="url(#pacb5b21ce9)" style="fill: none; stroke: #000000; stroke-width: 1.5; stroke-linecap: round"/>
    <path d="M 393.902596 560.302365 
L 396.50978 563.935902 
L 392.03864 563.841527 
z
" clip-path="url(#pacb5b21ce9)" style="stroke: #000000; stroke-width: 1.5; stroke-linecap: round"/>
   </g>
   <g id="patch_63">
    <path d="M 470.285629 407.371886 
Q 470.792986 407.410523 469.628134 407.321814 
" clip-path="url(#pacb5b21ce9)" style="fill: none; stroke: #000000; stroke-width: 1.5; stroke-linecap: round"/>
    <path d="M 465.791551 405.023851 
L 469.628134 407.321814 
L 465.487813 409.012302 
z
" clip-path="url(#pacb5b21ce9)" style="stroke: #000000; stroke-width: 1.5; stroke-linecap: round"/>
   </g>
   <g id="patch_64">
    <path d="M 570.943231 540.229346 
Q 570.985634 540.635992 570.854107 539.37463 
" clip-path="url(#pacb5b21ce9)" style="fill: none; stroke: #000000; stroke-width: 1.5; stroke-linecap: round"/>
    <path d="M 572.428475 535.188777 
L 570.854107 539.37463 
L 568.450046 535.603623 
z
" clip-path="url(#pacb5b21ce9)" style="stroke: #000000; stroke-width: 1.5; stroke-linecap: round"/>
   </g>
   <g id="patch_65">
    <path d="M 126.122001 273.341566 
Q 130.084429 273.817115 132.381754 274.092827 
" clip-path="url(#pacb5b21ce9)" style="fill: none; stroke: #000000; stroke-width: 1.5; stroke-linecap: round"/>
    <path d="M 128.648573 271.630439 
L 132.381754 274.092827 
L 128.171935 275.601939 
z
" clip-path="url(#pacb5b21ce9)" style="stroke: #000000; stroke-width: 1.5; stroke-linecap: round"/>
   </g>
   <g id="patch_66">
    <path d="M 117.147837 452.355676 
Q 117.094142 452.187079 117.549366 453.61645 
" clip-path="url(#pacb5b21ce9)" style="fill: none; stroke: #000000; stroke-width: 1.5; stroke-linecap: round"/>
    <path d="M 116.85752 458.034747 
L 117.549366 453.61645 
L 120.668896 456.820905 
z
" clip-path="url(#pacb5b21ce9)" style="stroke: #000000; stroke-width: 1.5; stroke-linecap: round"/>
   </g>
   <g id="patch_67">
    <path d="M 231.535061 565.21437 
Q 231.946683 564.924833 230.986608 565.600154 
" clip-path="url(#pacb5b21ce9)" style="fill: none; stroke: #000000; stroke-width: 1.5; stroke-linecap: round"/>
    <path d="M 226.564263 566.26563 
L 230.986608 565.600154 
L 228.865582 569.537316 
z
" clip-path="url(#pacb5b21ce9)" style="stroke: #000000; stroke-width: 1.5; stroke-linecap: round"/>
   </g>
   <g id="patch_68">
    <path d="M 410.249759 522.240862 
Q 411.192535 523.94473 411.323377 524.181199 
" clip-path="url(#pacb5b21ce9)" style="fill: none; stroke: #000000; stroke-width: 1.5; stroke-linecap: round"/>
    <path d="M 411.136776 519.712957 
L 411.323377 524.181199 
L 407.636823 521.649535 
z
" clip-path="url(#pacb5b21ce9)" style="stroke: #000000; stroke-width: 1.5; stroke-linecap: round"/>
   </g>
   <g id="patch_69">
    <path d="M 551.194886 128.736696 
Q 552.225251 130.026411 552.208842 130.005873 
" clip-path="url(#pacb5b21ce9)" style="fill: none; stroke: #000000; stroke-width: 1.5; stroke-linecap: round"/>
    <path d="M 551.27471 125.632385 
L 552.208842 130.005873 
L 548.149573 128.129086 
z
" clip-path="url(#pacb5b21ce9)" style="stroke: #000000; stroke-width: 1.5; stroke-linecap: round"/>
   </g>
   <g id="patch_70">
    <path d="M 185.738693 169.737697 
Q 188.201672 169.883592 188.990534 169.93032 
" clip-path="url(#pacb5b21ce9)" style="fill: none; stroke: #000000; stroke-width: 1.5; stroke-linecap: round"/>
    <path d="M 185.115796 167.697294 
L 188.990534 169.93032 
L 184.879271 171.690295 
z
" clip-path="url(#pacb5b21ce9)" style="stroke: #000000; stroke-width: 1.5; stroke-linecap: round"/>
   </g>
   <g id="patch_71">
    <path d="M 384.639635 435.587472 
Q 385.087755 436.242784 384.589233 435.513767 
" clip-path="url(#pacb5b21ce9)" style="fill: none; stroke: #000000; stroke-width: 1.5; stroke-linecap: round"/>
    <path d="M 383.982273 431.083011 
L 384.589233 435.513767 
L 380.680452 433.340881 
z
" clip-path="url(#pacb5b21ce9)" style="stroke: #000000; stroke-width: 1.5; stroke-linecap: round"/>
   </g>
   <g id="patch_72">
    <path d="M 515.530942 489.687584 
Q 515.386684 489.840891 516.391684 488.772843 
" clip-path="url(#pacb5b21ce9)" style="fill: none; stroke: #000000; stroke-width: 1.5; stroke-linecap: round"/>
    <path d="M 520.589373 487.23031 
L 516.391684 488.772843 
L 517.67627 484.489172 
z
" clip-path="url(#pacb5b21ce9)" style="stroke: #000000; stroke-width: 1.5; stroke-linecap: round"/>
   </g>
   <g id="patch_73">
    <path d="M 269.801108 447.891584 
Q 272.37246 449.033993 273.411212 449.495493 
" clip-path="url(#pacb5b21ce9)" style="fill: none; stroke: #000000; stroke-width: 1.5; stroke-linecap: round"/>
    <path d="M 270.567779 446.043698 
L 273.411212 449.495493 
L 268.943717 449.699163 
z
" clip-path="url(#pacb5b21ce9)" style="stroke: #000000; stroke-width: 1.5; stroke-linecap: round"/>
   </g>
   <g id="patch_74">
    <path d="M 207.104717 505.949267 
Q 206.885235 505.403689 207.291668 506.413982 
" clip-path="url(#pacb5b21ce9)" style="fill: none; stroke: #000000; stroke-width: 1.5; stroke-linecap: round"/>
    <path d="M 206.929074 510.871395 
L 207.291668 506.413982 
L 210.640042 509.378504 
z
" clip-path="url(#pacb5b21ce9)" style="stroke: #000000; stroke-width: 1.5; stroke-linecap: round"/>
   </g>
   <g id="patch_75">
    <path d="M 242.748413 401.326637 
Q 245.14957 400.336519 246.000314 399.985714 
" clip-path="url(#pacb5b21ce9)" style="fill: none; stroke: #000000; stroke-width: 1.5; stroke-linecap: round"/>
    <path d="M 241.539939 399.661591 
L 246.000314 399.985714 
L 243.064791 403.35954 
z
" clip-path="url(#pacb5b21ce9)" style="stroke: #000000; stroke-width: 1.5; stroke-linecap: round"/>
   </g>
   <g id="patch_76">
    <path d="M 478.670889 384.931724 
Q 479.403827 385.492124 478.804515 385.033894 
" clip-path="url(#pacb5b21ce9)" style="fill: none; stroke: #000000; stroke-width: 1.5; stroke-linecap: round"/>
    <path d="M 476.841699 381.015517 
L 478.804515 385.033894 
L 474.412124 384.19312 
z
" clip-path="url(#pacb5b21ce9)" style="stroke: #000000; stroke-width: 1.5; stroke-linecap: round"/>
   </g>
   <g id="patch_77">
    <path d="M 307.020239 336.304369 
Q 310.752564 336.130422 312.809656 336.03455 
" clip-path="url(#pacb5b21ce9)" style="fill: none; stroke: #000000; stroke-width: 1.5; stroke-linecap: round"/>
    <path d="M 308.720883 334.222939 
L 312.809656 336.03455 
L 308.907103 338.218602 
z
" clip-path="url(#pacb5b21ce9)" style="stroke: #000000; stroke-width: 1.5; stroke-linecap: round"/>
   </g>
   <g id="patch_78">
    <path d="M 398.923388 396.15806 
Q 400.042891 395.437029 399.752469 395.62408 
" clip-path="url(#pacb5b21ce9)" style="fill: none; stroke: #000000; stroke-width: 1.5; stroke-linecap: round"/>
    <path d="M 395.306651 396.108544 
L 399.752469 395.62408 
L 397.47255 399.471413 
z
" clip-path="url(#pacb5b21ce9)" style="stroke: #000000; stroke-width: 1.5; stroke-linecap: round"/>
   </g>
   <g id="patch_79">
    <path d="M 0 720 
L 0 720 
L 0 0 
L 720 0 
L 720 720 
L 0 720 
z
" style="fill: none; stroke: #000000; stroke-width: 0.8; stroke-linejoin: miter; stroke-linecap: square"/>
   </g>
  </g>
 </g>
 <defs>
  <clipPath id="pacb5b21ce9">
   <path d="M 0 720 
L 0 720 
L 0 0 
L 720 0 
L 720 720 
z
"/>
  </clipPath>
 </defs>
</svg>
