<?xml version="1.0" encoding="utf-8" standalone="no"?>
<!DOCTYPE svg PUBLIC "-//W3C//DTD SVG 1.1//EN"
  "http://www.w3.org/Graphics/SVG/1.1/DTD/svg11.dtd">
<svg xmlns:xlink="http://www.w3.org/1999/xlink" width="720pt" height="720pt" viewBox="0 0 720 720" xmlns="http://www.w3.org/2000/svg" version="1.1">
 <metadata>
  <rdf:RDF xmlns:dc="http://purl.org/dc/elements/1.1/" xmlns:cc="http://creativecommons.org/ns#" xmlns:rdf="http://www.w3.org/1999/02/22-rdf-syntax-ns#">
   <cc:Work>
    <dc:type rdf:resource="http://purl.org/dc/dcmitype/StillImage"/>
    <dc:date>2026-03-20T18:58:56.860545</dc:date>
    <dc:format>image/svg+xml</dc:format>
    <dc:creator>
     <cc:Agent>
      <dc:title>Matplotlib v3.10.8, https://matplotlib.org/</dc:title>
     </cc:Agent>
    </dc:creator>
   </cc:Work>
  </rdf:RDF>
 </metadata>
 <defs>
  <style type="text/css">*{stroke-linejoin: round; stroke-linecap: butt}</style>
 </defs>
 <g id="figure_1">
  <g id="patch_1">
   <path d="M 0 720 
L 720 720 
L 720 0 
L 0 0 
L 0 720 
z
" style="fill: none"/>
  </g>
  <g id="axes_1">
   <g id="patch_2">
    <path d="M 0 720 
L 0 720 
L 0 0 
L 720 0 
L 720 720 
L 0 720 
z
" style="fill: none"/>
   </g>
   <g id="LineCollection_1">
    <path d="M 74.482759 720 
L 74.482759 720 
L 54.281281 707.281249 
L 37.902396 693.5306 
L 37.902396 693.5306 
L 32.723298 688.772138 
L 27.858939 685.080816 
L 23.808535 683.325569 
L 19.452718 682.95631 
L 13.825701 683.944021 
L 5.290055 687.285979 
L 0 689.66229 
" clip-path="url(#p48f893d282)" style="fill: none; stroke: #000000; stroke-width: 1.5"/>
    <path d="M 99.310345 720 
L 99.310345 720 
L 80.627771 705.954064 
L 80.627771 705.954064 
L 70.669266 693.971257 
L 70.669266 693.971257 
L 67.224866 685.66627 
L 67.012909 677.120418 
L 69.789315 669.044201 
L 75.055733 661.22313 
L 82.13857 654.485031 
L 92.178724 647.57608 
L 106.510142 640.181076 
L 123.718017 633.369016 
L 145.663409 627.04549 
L 169.133439 623.446904 
L 190.375415 623.140208 
L 214.29006 623.87187 
L 238.235012 624.013857 
L 262.190201 623.28265 
L 285.922897 620.625761 
L 309.454886 616.677373 
L 333.057631 613.070581 
L 356.536344 608.603498 
L 379.453178 602.007626 
L 379.453178 602.007626 
L 395.268311 594.711118 
L 408.755063 586.105102 
L 408.755063 586.105102 
L 423.697996 574.219289 
L 437.651022 559.365325 
L 449.209282 544.242886 
L 461.923951 524.005214 
L 472.335872 502.962929 
L 472.335872 502.962929 
L 478.017204 487.039839 
L 478.017204 487.039839 
L 480.218996 472.706116 
L 479.356987 458.285871 
L 475.646155 444.415654 
L 470.214756 430.213897 
L 462.345117 407.739295 
L 462.345117 407.739295 
L 459.295707 393.248481 
L 459.295707 393.248481 
L 459.546915 381.270794 
L 462.692939 369.451457 
L 467.813416 356.494092 
L 477.084776 334.434685 
L 487.933587 313.560108 
L 487.933587 313.560108 
L 497.409732 300.489229 
L 508.022716 289.42032 
L 524.83546 274.05295 
L 543.104104 258.515935 
L 562.043686 244.125697 
L 580.457691 229.410369 
L 596.499628 214.223961 
L 596.499628 214.223961 
L 609.31795 204.711484 
L 622.484462 197.404769 
L 642.755258 184.813965 
L 660.776142 173.131405 
L 682.252953 162.699268 
L 703.57977 155.992768 
L 720 152.151028 
" clip-path="url(#p48f893d282)" style="fill: none; stroke: #000000; stroke-width: 1.5"/>
    <path d="M 208.606184 690.966591 
L 208.606184 690.966591 
L 208.606184 690.966591 
L 208.606184 690.966591 
L 208.606184 690.966591 
L 208.606184 690.966591 
L 208.606184 690.966591 
L 208.606184 690.966591 
L 208.606184 690.966591 
L 208.606184 690.966591 
L 208.606184 690.966591 
L 208.606184 690.966591 
L 208.606184 690.966591 
L 208.606184 690.966591 
L 208.606184 690.966591 
L 208.606184 690.966591 
L 208.606184 690.966591 
L 208.606184 690.966591 
L 208.606184 690.966591 
L 208.606184 690.966591 
L 208.606184 690.966591 
L 208.606184 690.966591 
L 208.606184 690.96659 
L 208.606184 690.966591 
L 208.606184 690.96659 
L 208.606184 690.966591 
L 208.606182 690.96659 
L 208.606186 690.96659 
L 208.606182 690.966593 
L 208.606182 690.966586 
L 208.606193 690.966595 
L 208.606165 690.96659 
L 208.606209 690.96658 
L 208.606169 690.966619 
L 208.606156 690.966546 
L 208.606295 690.966632 
L 208.605969 690.966603 
L 208.606445 690.96645 
L 208.606075 690.966922 
L 208.605774 690.966104 
L 208.607533 690.966975 
L 208.603774 690.966882 
L 208.608855 690.964818 
L 208.605637 690.970405 
L 208.600534 690.961395 
L 208.622272 690.96995 
L 208.579517 690.971581 
L 208.632697 690.944582 
L 208.607721 691.009962 
L 208.531704 690.912091 
L 208.796918 690.992165 
L 208.315673 691.037693 
L 208.850025 690.688964 
L 208.699375 691.448253 
L 207.078656 691.340768 
L 206.322671 689.858722 
L 208.831861 688.039954 
L 213.211682 687.651179 
L 217.293599 688.739173 
L 219.921921 690.544344 
L 221.962537 693.897113 
L 221.57939 699.076622 
L 221.57939 699.076622 
L 217.640233 704.028449 
L 217.640233 704.028449 
L 209.845413 708.622763 
L 209.845413 708.622763 
L 196.550417 713.439581 
L 196.550417 713.439581 
L 173.793103 720 
L 173.793103 720 
" clip-path="url(#p48f893d282)" style="fill: none; stroke: #000000; stroke-width: 1.5"/>
    <path d="M 207.833853 680.900784 
L 218.781265 678.779745 
L 229.737383 679.245529 
L 238.391354 681.370862 
L 244.799882 684.676194 
L 248.805199 688.557742 
L 251.481825 694.037504 
L 251.151678 700.712355 
L 251.151678 700.712355 
L 247.092247 706.71513 
L 247.092247 706.71513 
L 238.357714 712.725648 
L 238.357714 712.725648 
L 223.448276 720 
L 223.448276 720 
L 223.448276 720 
" clip-path="url(#p48f893d282)" style="fill: none; stroke: #000000; stroke-width: 1.5"/>
    <path d="M 263.728591 671.026758 
L 278.185183 672.935279 
L 292.454555 673.27977 
L 292.454555 673.27977 
L 310.629062 671.102008 
L 310.629062 671.102008 
L 321.715128 669.268285 
L 330.473336 668.828555 
L 337.922914 670.631875 
L 344.294957 675.086589 
L 344.294957 675.086589 
L 353.699617 689.187216 
L 356.532008 695.255713 
L 357.0765 700.945318 
L 357.0765 700.945318 
L 353.913882 706.850362 
L 353.913882 706.850362 
L 346.468993 713.324159 
L 335.673698 718.203914 
L 322.758621 720 
L 322.758621 720 
L 322.758621 720 
" clip-path="url(#p48f893d282)" style="fill: none; stroke: #000000; stroke-width: 1.5"/>
    <path d="M 446.896552 720 
L 446.896552 720 
L 423.501679 715.104201 
L 423.501679 715.104201 
L 406.517995 710.910372 
L 390.645947 704.556434 
L 390.645947 704.556434 
L 384.616669 701.662752 
L 384.616669 701.662752 
L 379.907885 700.513224 
L 375.863165 701.91066 
L 371.775065 705.33955 
L 365.690562 710.086757 
" clip-path="url(#p48f893d282)" style="fill: none; stroke: #000000; stroke-width: 1.5"/>
    <path d="M 496.551724 720 
L 496.551724 720 
L 473.792221 712.486774 
L 451.848929 703.254944 
L 430.859465 692.256132 
L 430.859465 692.256132 
L 417.314922 682.635541 
L 405.833756 669.822813 
L 405.833756 669.822813 
L 404.614142 666.568062 
L 404.673327 664.393199 
L 405.878992 661.951406 
L 408.836287 658.642328 
L 415.104748 652.933505 
L 415.104748 652.933505 
L 422.761395 646.242819 
L 431.094746 638.023698 
L 441.929693 625.517355 
L 441.929693 625.517355 
L 452.163553 610.63105 
L 459.872231 594.340466 
L 459.872231 594.340466 
L 468.770844 577.037266 
L 478.456077 560.626245 
L 489.705229 539.472394 
L 501.060578 518.384127 
L 511.160478 496.791494 
L 511.160478 496.791494 
L 513.97732 484.751689 
L 513.717832 472.21093 
L 511.262664 460.039283 
L 505.711484 442.294764 
L 496.701863 420.336106 
L 496.701863 420.336106 
L 490.655163 403.751462 
L 490.655163 403.751462 
L 488.323116 389.819949 
L 489.207566 375.435028 
L 492.422127 362.60995 
L 498.776793 346.949737 
" clip-path="url(#p48f893d282)" style="fill: none; stroke: #000000; stroke-width: 1.5"/>
    <path d="M 720 707.430692 
L 715.599865 708.014097 
L 691.850298 710.351225 
L 668.217416 713.583779 
L 644.539241 717.320389 
L 620.689655 720 
L 620.689655 720 
" clip-path="url(#p48f893d282)" style="fill: none; stroke: #000000; stroke-width: 1.5"/>
    <path d="M 720 670.344828 
L 720 670.344828 
L 696.974091 676.996119 
L 673.733363 682.60866 
L 650.024157 686.138718 
L 626.214956 689.086718 
L 602.433811 691.882452 
L 578.690399 694.638908 
L 554.871054 697.155979 
L 531.001212 697.514065 
L 507.445876 695.211223 
L 483.987941 690.716964 
L 483.987941 690.716964 
L 467.020972 684.963168 
L 467.020972 684.963168 
L 453.64122 677.541889 
L 453.64122 677.541889 
L 444.242744 669.54933 
L 444.242744 669.54933 
L 440.291902 662.996058 
L 439.300829 656.149073 
L 440.760496 648.303114 
L 444.339151 639.190665 
" clip-path="url(#p48f893d282)" style="fill: none; stroke: #000000; stroke-width: 1.5"/>
    <path d="M 720 620.689655 
L 720 620.689655 
L 720 620.689655 
L 707.891711 618.673431 
L 707.891711 618.673431 
L 700.505638 613.75034 
L 695.822671 606.461024 
L 693.467374 597.358654 
L 693.00854 586.146699 
L 694.848958 572.080995 
L 697.770778 555.890421 
L 697.770778 555.890421 
L 698.610159 546.243769 
L 698.610159 546.243769 
L 697.180763 538.963958 
L 693.936421 533.478679 
L 687.904558 526.777766 
L 678.247829 518.335299 
L 663.926406 506.122148 
L 646.199692 490.3623 
L 646.199692 490.3623 
L 634.355682 477.815357 
L 624.952008 462.853931 
L 619.095773 448.237829 
L 613.507663 430.617108 
L 608.116729 407.432055 
L 607.064006 386.586703 
L 609.3338 368.592303 
L 614.498456 350.670717 
L 622.425841 332.98003 
L 634.057422 315.532573 
L 634.057422 315.532573 
L 641.780377 307.764008 
L 652.241051 299.969213 
L 652.241051 299.969213 
L 660.030308 292.533606 
L 666.397315 283.26246 
L 673.139646 272.192613 
L 673.139646 272.192613 
L 673.139646 272.192613 
L 679.650308 265.0333 
L 687.791776 260.014903 
L 699.896874 255.057524 
L 717.335681 250.029505 
L 720 249.395171 
" clip-path="url(#p48f893d282)" style="fill: none; stroke: #000000; stroke-width: 1.5"/>
    <path d="M 720 496.551724 
L 720 496.551724 
L 699.347209 484.342459 
L 679.822249 470.726622 
L 679.822249 470.726622 
L 668.489832 459.026477 
L 659.752077 445.962233 
L 651.83301 428.532614 
L 647.410452 411.409422 
L 645.032485 393.414408 
L 645.032485 393.414408 
L 645.034598 375.424623 
L 648.383079 357.335548 
L 653.953355 341.824742 
L 661.94782 325.675765 
" clip-path="url(#p48f893d282)" style="fill: none; stroke: #000000; stroke-width: 1.5"/>
    <path d="M 720 471.724138 
L 720 471.724138 
L 720 471.724138 
L 704.378975 460.780494 
L 704.378975 460.780494 
L 695.566125 451.319942 
L 689.36736 441.09921 
L 677.70421 420.587182 
L 677.70421 420.587182 
L 669.912662 403.93291 
L 664.941272 385.959015 
L 663.323559 368.7549 
L 664.858346 351.730673 
L 668.903199 336.31922 
" clip-path="url(#p48f893d282)" style="fill: none; stroke: #000000; stroke-width: 1.5"/>
    <path d="M 720 422.068966 
L 720 422.068966 
L 706.294906 403.135654 
L 706.294906 403.135654 
L 699.279372 390.527747 
L 694.755812 377.495302 
L 692.208365 360.411961 
L 693.27472 345.419213 
L 696.977964 330.651033 
L 703.969476 314.763332 
L 703.969476 314.763332 
L 709.819891 306.377028 
L 709.819891 306.377028 
L 714.611012 302.337936 
L 720 299.100441 
" clip-path="url(#p48f893d282)" style="fill: none; stroke: #000000; stroke-width: 1.5"/>
    <path d="M 634.929481 665.011215 
L 619.381605 665.592327 
L 603.535656 664.609156 
L 591.375937 661.629612 
L 582.241843 657.594212 
L 575.906269 652.858572 
L 571.121476 646.117127 
L 571.121476 646.117127 
L 567.802681 635.982857 
L 567.802681 635.982857 
L 566.893273 623.398277 
L 569.113483 610.697423 
L 569.113483 610.697423 
L 574.676439 597.755864 
L 574.676439 597.755864 
L 586.049327 576.7404 
L 597.931698 555.929702 
L 606.039701 543.003716 
L 612.195448 531.97382 
L 615.251788 523.306566 
L 615.724924 513.299963 
L 612.693339 504.620788 
L 612.693339 504.620788 
L 604.915004 492.262309 
L 604.915004 492.262309 
L 592.758846 471.740035 
L 584.781006 453.46554 
L 578.924076 434.158769 
L 576.288412 414.618479 
L 576.288412 414.618479 
L 576.40994 391.887591 
L 579.150332 370.966644 
L 585.42667 348.882344 
L 595.399541 327.145265 
L 607.7492 306.61744 
L 620.446393 286.795899 
L 626.793371 277.064217 
L 634.186449 268.191105 
L 634.186449 268.191105 
L 634.186449 268.191105 
L 651.864532 253.421882 
L 669.293881 241.7482 
L 687.054541 232.379728 
L 703.03949 226.608621 
L 720 223.448276 
L 720 223.448276 
L 720 223.448276 
" clip-path="url(#p48f893d282)" style="fill: none; stroke: #000000; stroke-width: 1.5"/>
    <path d="M 616.614956 256.201591 
L 616.614956 256.201591 
L 631.066444 242.447969 
L 650.424616 228.599496 
L 671.442736 217.131697 
L 689.507548 208.288463 
L 704.385989 202.305201 
L 720 198.62069 
L 720 198.62069 
L 720 198.62069 
" clip-path="url(#p48f893d282)" style="fill: none; stroke: #000000; stroke-width: 1.5"/>
    <path d="M 0 537.919573 
L 16.227129 539.387402 
L 40.06662 541.785689 
L 63.910367 544.371466 
L 87.701847 547.363984 
L 111.36073 551.247299 
L 134.923954 555.691201 
L 158.42852 560.423551 
L 181.909827 565.261429 
L 205.489191 569.654527 
L 229.188052 573.414629 
L 252.990914 576.154161 
L 276.904881 576.773499 
L 300.859251 575.753806 
L 324.783888 574.105935 
L 343.069318 572.06776 
L 360.36253 568.080381 
L 376.368082 561.380342 
L 376.368082 561.380342 
L 393.884293 551.274981 
L 410.032574 539.096107 
L 423.226287 525.535514 
L 435.388501 507.695017 
L 445.066367 485.928345 
L 449.272762 473.151516 
L 451.50458 459.112782 
L 450.274706 445.108997 
L 450.274706 445.108997 
L 445.092396 427.939743 
L 445.092396 427.939743 
L 437.79852 411.004222 
L 433.460256 400.085774 
L 431.343139 390.317737 
L 432.141144 380.940695 
L 432.141144 380.940695 
L 437.183513 366.166265 
L 442.015997 349.612481 
L 445.095686 337.510368 
L 450.830328 325.693948 
L 450.830328 325.693948 
L 466.177293 307.715805 
L 483.458608 291.316141 
L 501.018253 275.037089 
L 518.305851 258.416037 
L 531.349146 245.706564 
L 544.32107 230.981787 
L 544.32107 230.981787 
L 556.132075 214.803439 
L 571.820973 196.971637 
L 590.048043 181.512728 
L 609.25024 167.211986 
L 625.613318 155.949751 
L 643.221115 146.645692 
L 643.221115 146.645692 
L 665.234491 137.141402 
L 683.431454 130.189411 
L 701.509391 125.669756 
L 720 124.137931 
L 720 124.137931 
L 720 124.137931 
" clip-path="url(#p48f893d282)" style="fill: none; stroke: #000000; stroke-width: 1.5"/>
    <path d="M 631.050017 128.825633 
L 651.977379 117.253798 
L 667.803472 109.348172 
L 683.657729 103.119712 
L 700.128303 99.782824 
L 700.128303 99.782824 
L 720 99.310345 
L 720 99.310345 
L 720 99.310345 
" clip-path="url(#p48f893d282)" style="fill: none; stroke: #000000; stroke-width: 1.5"/>
    <path d="M 54.316382 0 
L 65.829785 17.082289 
L 79.418736 36.818085 
L 88.916285 50.35909 
L 97.804359 66.174726 
L 97.804359 66.174726 
L 106.1455 88.482979 
L 113.992488 111.132741 
L 120.740077 129.060727 
L 126.182253 148.015709 
L 128.367638 167.858046 
L 128.367638 167.858046 
L 128.048653 191.773935 
L 126.89397 215.381776 
L 124.623476 239.124164 
L 122.236068 252.576703 
L 121.094218 265.464024 
L 122.76723 277.834968 
L 126.676092 288.201673 
L 133.546941 297.841761 
L 133.546941 297.841761 
L 145.929785 309.650552 
L 145.929785 309.650552 
L 155.319463 317.767032 
L 166.726576 326.126933 
L 177.96127 331.022555 
L 177.96127 331.022555 
L 199.193617 339.381433 
L 213.764297 346.740315 
L 227.712242 356.52552 
L 227.712242 356.52552 
L 240.585983 367.604069 
L 253.830303 377.32241 
L 267.471509 384.253408 
L 278.665394 387.894625 
L 289.575946 389.275477 
L 300.473258 387.790788 
L 300.473258 387.790788 
L 312.684058 382.566196 
L 312.684058 382.566196 
L 325.442386 373.319697 
L 334.98728 363.178504 
L 342.352532 350.880952 
L 342.352532 350.880952 
L 348.16906 335.209971 
L 351.396227 317.279234 
L 351.396648 304.083697 
L 352.131432 288.614619 
L 355.316935 276.659369 
L 360.245868 266.550097 
L 369.007901 257.792747 
L 380.193896 252.236883 
L 380.193896 252.236883 
L 398.126065 246.090009 
L 416.303004 238.864453 
L 428.791805 233.428669 
L 442.466067 230.042438 
L 442.466067 230.042438 
L 464.588232 226.998084 
L 482.626933 223.369968 
L 493.839277 219.815971 
L 505.470461 213.628469 
L 505.470461 213.628469 
L 517.771902 203.272299 
L 517.771902 203.272299 
L 534.499698 186.237948 
L 550.424323 168.372461 
L 566.6555 150.771469 
L 584.28723 134.587829 
L 602.945024 119.588748 
L 621.522551 104.477143 
L 638.141863 90.939731 
L 649.982105 82.626662 
L 663.342354 76.031673 
L 677.592202 72.544969 
L 677.592202 72.544969 
L 696.206275 71.819412 
L 696.206275 71.819412 
L 720 74.482759 
L 720 74.482759 
" clip-path="url(#p48f893d282)" style="fill: none; stroke: #000000; stroke-width: 1.5"/>
    <path d="M 151.417391 0 
L 152.156102 1.184218 
L 164.730468 21.615359 
L 178.026093 41.534603 
L 186.061107 52.567274 
L 192.240742 63.117951 
L 195.944416 74.645319 
L 196.733746 86.869853 
L 196.733746 86.869853 
L 194.547288 101.487076 
L 194.547288 101.487076 
L 191.037541 123.987472 
L 190.418312 145.686098 
L 192.078518 163.477132 
L 194.943867 176.742027 
L 200.340492 190.038024 
L 200.340492 190.038024 
L 211.43079 207.185807 
L 219.868994 217.610501 
L 230.384231 226.745968 
L 242.604006 233.077583 
L 255.32361 236.513749 
L 267.08524 237.225192 
L 278.080475 235.594503 
L 288.329718 231.466212 
L 288.329718 231.466212 
L 299.108132 223.96929 
L 299.108132 223.96929 
L 310.692408 212.828325 
L 320.53808 203.161053 
L 331.430832 195.432924 
L 331.430832 195.432924 
L 344.320694 188.216241 
L 357.896849 179.300099 
L 357.896849 179.300099 
L 376.317341 164.317609 
L 393.336051 151.797946 
L 414.143565 140.205877 
L 436.241392 131.211486 
L 458.48081 122.325383 
L 479.858198 111.620385 
L 500.560722 99.69214 
L 519.755122 89.704884 
L 538.737888 79.691364 
L 557.972784 65.747113 
L 570.930222 55.192839 
L 587.504452 45.415617 
L 604.279079 39.195597 
L 619.576859 35.88298 
L 635.620845 35.129802 
L 635.620845 35.129802 
L 659.305994 37.574107 
L 682.993368 41.148382 
L 701.468633 44.292917 
L 720 49.655172 
L 720 49.655172 
L 720 49.655172 
" clip-path="url(#p48f893d282)" style="fill: none; stroke: #000000; stroke-width: 1.5"/>
    <path d="M 491.838622 77.66063 
L 511.280079 63.626323 
L 530.558607 49.361812 
L 550.17589 35.594665 
L 570.914549 23.784077 
L 591.738551 15.371831 
L 610.592849 10.60475 
L 630.384365 8.742273 
L 649.716 9.983152 
L 649.716 9.983152 
L 673.415188 13.609809 
L 696.875367 18.488204 
L 720 24.827586 
L 720 24.827586 
" clip-path="url(#p48f893d282)" style="fill: none; stroke: #000000; stroke-width: 1.5"/>
    <path d="M 187.88715 0 
L 192.643008 7.193384 
L 206.060897 27.076872 
L 217.270528 43.068771 
L 224.798958 55.052258 
L 230.652436 69.532532 
L 233.355838 87.116592 
L 232.827353 103.42919 
L 229.514172 120.0057 
L 229.514172 120.0057 
L 226.595332 130.76668 
L 225.532972 139.915436 
L 227.51477 150.43648 
L 231.883602 158.571084 
L 237.391099 164.113491 
L 244.383078 167.051996 
L 244.383078 167.051996 
L 253.8485 167.002252 
L 253.8485 167.002252 
L 265.980183 162.673544 
L 277.192776 155.041209 
L 277.192776 155.041209 
L 287.876523 146.458054 
L 299.978901 139.736705 
L 299.978901 139.736705 
L 316.641708 134.793423 
L 316.641708 134.793423 
L 332.535983 130.62582 
L 347.64791 124.012928 
L 347.64791 124.012928 
L 368.891604 112.901668 
L 390.273174 102.065844 
L 411.794737 91.576138 
L 433.549422 81.542231 
L 454.930205 70.768823 
L 475.233791 58.101238 
L 493.92636 43.223349 
L 509.311899 29.297986 
L 524.096138 17.445669 
L 539.63555 8.44857 
L 554.690469 2.766933 
L 571.034483 0 
L 571.034483 0 
L 571.034483 0 
" clip-path="url(#p48f893d282)" style="fill: none; stroke: #000000; stroke-width: 1.5"/>
    <path d="M 328.624659 0 
L 337.479911 14.088761 
L 346.554183 31.712631 
L 346.554183 31.712631 
L 351.364559 43.196166 
L 355.270941 50.8078 
L 360.69219 56.030801 
L 360.69219 56.030801 
L 369.861294 59.425567 
L 369.861294 59.425567 
L 383.555614 59.893343 
L 383.555614 59.893343 
L 400.979724 56.627146 
L 400.979724 56.627146 
L 423.560622 49.241445 
L 437.971983 43.155422 
L 447.514945 37.891356 
L 455.722381 30.84717 
L 461.817329 21.766925 
L 461.817329 21.766925 
L 471.724138 0 
L 471.724138 0 
" clip-path="url(#p48f893d282)" style="fill: none; stroke: #000000; stroke-width: 1.5"/>
    <path d="M 397.241379 0 
L 397.241379 0 
L 397.241379 0 
L 398.672312 9.05846 
L 398.672312 9.05846 
L 400.710903 15.040807 
L 403.782009 18.04879 
L 406.738402 18.230574 
L 409.886038 16.683767 
L 412.373118 13.600475 
L 412.412984 10.806175 
L 411.084125 10.039273 
L 409.871904 10.747798 
L 409.934685 11.382282 
L 410.220425 11.263932 
L 410.196314 11.141359 
L 410.139936 11.169426 
L 410.146628 11.192712 
L 410.157553 11.186347 
L 410.155842 11.181948 
L 410.153734 11.183365 
L 410.154147 11.184188 
L 410.154551 11.183878 
L 410.154455 11.183726 
L 410.154378 11.183793 
L 410.1544 11.18382 
L 410.154414 11.183806 
L 410.154409 11.183801 
L 410.154407 11.183804 
L 410.154408 11.183805 
L 410.154408 11.183804 
L 410.154408 11.183804 
L 410.154408 11.183804 
L 410.154408 11.183804 
L 410.154408 11.183804 
L 410.154408 11.183804 
L 410.154408 11.183804 
L 410.154408 11.183804 
L 410.154408 11.183804 
L 410.154408 11.183804 
L 410.154408 11.183804 
L 410.154408 11.183804 
L 410.154408 11.183804 
L 410.154408 11.183804 
L 410.154408 11.183804 
L 410.154408 11.183804 
L 410.154408 11.183804 
L 410.154408 11.183804 
L 410.154408 11.183804 
L 410.154408 11.183804 
L 410.154408 11.183804 
L 410.154408 11.183804 
L 410.154408 11.183804 
L 410.154408 11.183804 
L 410.154408 11.183804 
L 410.154408 11.183804 
L 410.154408 11.183804 
L 410.154408 11.183804 
L 410.154408 11.183804 
L 410.154408 11.183804 
L 410.154408 11.183804 
L 410.154408 11.183804 
L 410.154408 11.183804 
L 410.154408 11.183804 
L 410.154408 11.183804 
L 410.154408 11.183804 
L 410.154408 11.183804 
L 410.154408 11.183804 
" clip-path="url(#p48f893d282)" style="fill: none; stroke: #000000; stroke-width: 1.5"/>
    <path d="M 297.931034 0 
L 297.931034 0 
L 312.161655 19.2591 
L 324.062582 39.698992 
L 333.378059 57.184624 
L 333.378059 57.184624 
L 338.148458 63.02157 
L 344.803005 66.734342 
L 352.468466 68.320056 
L 362.426356 68.562 
L 376.295003 67.245127 
L 395.20205 63.636901 
" clip-path="url(#p48f893d282)" style="fill: none; stroke: #000000; stroke-width: 1.5"/>
    <path d="M 273.103448 0 
L 273.103448 0 
L 285.43752 20.574426 
L 297.505464 41.30565 
L 307.786782 62.634272 
L 307.786782 62.634272 
L 314.261969 77.9984 
L 314.261969 77.9984 
L 317.511092 83.519458 
L 317.511092 83.519458 
L 322.164084 87.857057 
L 328.049472 89.571865 
L 334.135493 89.344525 
L 343.606365 87.496571 
" clip-path="url(#p48f893d282)" style="fill: none; stroke: #000000; stroke-width: 1.5"/>
    <path d="M 223.448276 0 
L 223.448276 0 
L 238.329112 18.803482 
L 251.480621 38.804488 
L 261.930132 60.234918 
L 268.365541 81.639599 
L 270.84907 102.019036 
L 270.84907 102.019036 
L 271.62441 109.439725 
L 271.62441 109.439725 
L 273.552829 115.079724 
L 273.552829 115.079724 
L 276.792161 118.129628 
L 281.589341 119.453216 
L 288.292565 119.649461 
L 298.961186 118.668343 
" clip-path="url(#p48f893d282)" style="fill: none; stroke: #000000; stroke-width: 1.5"/>
    <path d="M 99.310345 0 
L 99.310345 0 
L 115.374303 17.800774 
L 130.666222 36.178197 
L 144.229031 55.789075 
L 144.229031 55.789075 
L 151.370134 69.292992 
L 155.956518 85.244304 
L 157.457906 100.048965 
L 157.897426 118.577074 
L 158.331271 142.536605 
L 159.138866 166.502915 
L 160.393536 190.428993 
L 162.900983 214.195034 
L 167.280652 237.604012 
L 167.280652 237.604012 
L 170.374989 248.773484 
L 170.374989 248.773484 
L 174.638345 256.51139 
L 180.639038 262.201399 
L 189.478156 267.715657 
L 201.948119 273.266674 
L 219.725744 278.708837 
L 240.426583 284.703535 
L 262.808964 292.29286 
L 262.808964 292.29286 
L 280.69068 297.626958 
L 280.69068 297.626958 
L 291.104184 298.614056 
L 301.056764 296.293028 
L 310.054885 291.431812 
L 319.004992 283.746921 
L 327.26777 273.505245 
" clip-path="url(#p48f893d282)" style="fill: none; stroke: #000000; stroke-width: 1.5"/>
    <path d="M 24.827586 0 
L 24.827586 0 
L 24.827586 0 
L 37.556037 12.565664 
L 47.920981 26.633763 
L 58.738244 44.203911 
L 71.436927 64.494228 
L 83.371746 85.110065 
" clip-path="url(#p48f893d282)" style="fill: none; stroke: #000000; stroke-width: 1.5"/>
    <path d="M 0 24.827586 
L 0 24.827586 
L 14.151397 44.054194 
L 24.265232 62.957281 
L 34.192551 84.753482 
L 44.987277 106.051744 
L 56.240634 127.058621 
L 66.241886 148.052192 
L 75.961422 169.067843 
L 75.961422 169.067843 
L 79.230118 180.613456 
L 79.259704 191.716578 
L 77.548014 205.518102 
L 77.548014 205.518102 
L 74.772538 220.337308 
L 74.772538 220.337308 
L 70.762432 230.138802 
L 64.936849 237.682874 
L 56.135194 246.714008 
L 56.135194 246.714008 
L 46.319369 258.228297 
L 46.319369 258.228297 
L 39.870713 269.917788 
L 36.595478 282.759229 
L 36.70776 294.488553 
L 39.281128 307.043564 
L 44.890468 322.546747 
L 53.001973 340.364504 
L 62.615911 362.331136 
L 70.364206 384.954464 
L 76.653685 408.055816 
L 84.127929 430.744972 
L 94.525683 452.231428 
L 106.840608 470.422726 
L 106.840608 470.422726 
L 116.630363 480.280185 
L 127.528571 487.88349 
L 142.413398 495.33713 
L 159.54104 501.425759 
L 181.059441 506.920377 
L 204.570267 511.237933 
L 228.308368 514.512649 
L 252.13898 517.217995 
L 276.047153 519.027408 
L 299.984776 518.877883 
L 299.984776 518.877883 
L 318.481948 516.201621 
L 336.187159 510.596567 
L 353.677277 501.872061 
L 369.794661 490.332601 
L 384.16003 476.483043 
L 396.865258 459.759656 
L 396.865258 459.759656 
L 404.709971 445.87695 
L 404.709971 445.87695 
L 406.978102 437.740775 
L 406.096181 430.070067 
L 402.184486 422.242792 
L 396.901961 414.186172 
L 396.901961 414.186172 
L 392.077354 403.637439 
L 390.231885 392.317277 
L 391.842031 382.602385 
L 395.921055 374.180499 
L 401.762007 364.829751 
L 401.762007 364.829751 
L 408.141193 351.663785 
L 412.414984 337.48231 
L 417.115566 317.123702 
L 417.115566 317.123702 
L 418.203452 306.02823 
L 418.203452 306.02823 
L 417.539592 297.63177 
L 417.539592 297.63177 
L 417.832975 293.471076 
L 419.406803 291.263755 
L 422.69708 289.660716 
L 427.515938 288.499782 
L 437.491851 286.943562 
L 452.173688 283.680604 
L 452.173688 283.680604 
L 464.481591 279.090477 
L 477.084198 272.35626 
" clip-path="url(#p48f893d282)" style="fill: none; stroke: #000000; stroke-width: 1.5"/>
    <path d="M 0 49.655172 
L 0 49.655172 
L 11.553209 70.630964 
L 21.255587 92.548485 
L 30.058156 114.810407 
L 30.058156 114.810407 
L 35.678721 133.041793 
L 35.678721 133.041793 
L 37.168124 147.498361 
L 35.613358 161.446306 
L 31.054309 176.062989 
L 23.836345 190.437063 
L 14.010142 208.073142 
L 3.134845 229.105738 
L 0 235.543594 
" clip-path="url(#p48f893d282)" style="fill: none; stroke: #000000; stroke-width: 1.5"/>
    <path d="M 0 99.310345 
L 0 99.310345 
L 8.55613 121.698483 
L 8.55613 121.698483 
L 11.846077 136.691164 
L 12.007678 151.915182 
L 9.324481 167.163039 
L 4.622932 183.381003 
L 0 197.825116 
" clip-path="url(#p48f893d282)" style="fill: none; stroke: #000000; stroke-width: 1.5"/>
    <path d="M 0 297.931034 
L 0 297.931034 
L 4.473916 321.449362 
L 10.267877 344.660069 
L 16.225168 367.861292 
L 21.693973 391.146278 
L 25.238726 414.806176 
L 29.168992 438.399979 
L 35.711723 461.387909 
L 35.711723 461.387909 
L 41.153584 474.524261 
L 41.153584 474.524261 
L 47.239092 483.791425 
L 55.217985 491.245108 
L 65.706197 497.918863 
L 79.53932 504.396136 
L 99.053058 511.131969 
L 122.145908 516.362387 
L 145.795831 519.63365 
L 169.623461 522.199078 
" clip-path="url(#p48f893d282)" style="fill: none; stroke: #000000; stroke-width: 1.5"/>
    <path d="M 0 372.413793 
L 0 372.413793 
L 0 372.413793 
L 2.785941 390.697172 
L 2.998364 409.817577 
L 3.133249 433.650599 
L 3.133249 433.650599 
L 5.968871 452.619398 
L 11.788339 470.393678 
L 11.788339 470.393678 
" clip-path="url(#p48f893d282)" style="fill: none; stroke: #000000; stroke-width: 1.5"/>
    <path d="M 0 496.551724 
L 0 496.551724 
L 0 496.551724 
L 10.658941 503.728345 
L 21.234453 508.561802 
L 37.42153 514.005396 
L 58.90686 519.693554 
L 82.252056 525.063129 
" clip-path="url(#p48f893d282)" style="fill: none; stroke: #000000; stroke-width: 1.5"/>
    <path d="M 0 571.034483 
L 0 571.034483 
L 23.875029 569.692323 
L 45.590455 570.029123 
L 69.578336 570.645745 
L 93.529131 572.000945 
L 117.386004 574.431982 
" clip-path="url(#p48f893d282)" style="fill: none; stroke: #000000; stroke-width: 1.5"/>
    <path d="M 0 595.862069 
L 0 595.862069 
L 23.813503 593.261858 
L 47.699272 593.788563 
L 68.726857 598.315962 
L 86.387083 603.144513 
L 109.838994 606.468962 
L 131.447516 607.771948 
L 155.169859 607.976228 
L 179.073871 607.745813 
" clip-path="url(#p48f893d282)" style="fill: none; stroke: #000000; stroke-width: 1.5"/>
    <path d="M 159.382108 707.521564 
L 153.26968 702.482875 
L 148.965517 695.172414 
L 148.965517 695.172414 
L 148.965517 695.172414 
L 146.782499 685.267637 
L 147.988963 676.062681 
L 152.62973 667.835333 
L 159.308723 661.993831 
L 168.271032 657.766619 
L 178.907096 655.353441 
L 193.538125 652.392938 
L 216.931218 647.542716 
L 240.565174 643.594201 
L 264.298066 640.385535 
L 288.013446 637.100328 
" clip-path="url(#p48f893d282)" style="fill: none; stroke: #000000; stroke-width: 1.5"/>
    <path d="M 287.428908 684.435229 
L 293.260083 687.040177 
L 296.476062 689.506636 
L 297.749938 691.707722 
L 297.931034 695.172414 
L 297.931034 695.172414 
L 297.931034 695.172414 
L 297.931034 695.172414 
L 297.931034 695.172414 
L 295.86799 698.951503 
L 293.263387 701.27076 
L 288.341559 703.926645 
L 280.546835 706.81305 
L 267.207589 710.994633 
" clip-path="url(#p48f893d282)" style="fill: none; stroke: #000000; stroke-width: 1.5"/>
    <path d="M 313.225018 690.374244 
L 322.758621 695.172414 
L 322.758621 695.172414 
L 322.758621 695.172414 
L 322.758621 695.172414 
L 325.789922 698.055065 
L 326.4344 700.356861 
L 325.39795 702.933633 
L 322.201244 705.124872 
L 316.533337 706.849185 
L 307.352882 708.06094 
L 295.04305 708.459241 
" clip-path="url(#p48f893d282)" style="fill: none; stroke: #000000; stroke-width: 1.5"/>
    <path d="M 720 637.198174 
L 709.753602 641.060739 
L 695.172414 645.517241 
L 695.172414 645.517241 
L 672.208718 651.986544 
L 672.208718 651.986544 
L 656.343518 655.637979 
L 640.533158 656.570399 
L 620.641264 655.934863 
L 620.641264 655.934863 
L 604.928824 653.475158 
L 604.928824 653.475158 
L 594.016857 649.011523 
L 594.016857 649.011523 
L 587.704963 643.468851 
L 584.260593 636.372481 
" clip-path="url(#p48f893d282)" style="fill: none; stroke: #000000; stroke-width: 1.5"/>
    <path d="M 78.098875 0 
L 85.846526 9.986471 
L 99.310345 24.827586 
L 99.310345 24.827586 
L 99.310345 24.827586 
L 112.807504 39.645161 
L 123.460231 55.830454 
L 123.460231 55.830454 
L 129.868331 70.827686 
L 134.084958 86.690307 
" clip-path="url(#p48f893d282)" style="fill: none; stroke: #000000; stroke-width: 1.5"/>
    <path d="M 47.454546 145.713082 
L 47.454546 145.713082 
L 46.844344 160.149096 
L 46.844344 160.149096 
L 43.03583 183.47672 
L 40.196592 196.812216 
L 37.468148 206.728759 
L 32.333949 216.107251 
L 24.827586 223.448276 
L 24.827586 223.448276 
L 24.827586 223.448276 
L 16.473819 232.195711 
L 11.05611 241.440942 
L 5.605674 255.24579 
L 1.85798 271.968815 
L 0 284.910869 
" clip-path="url(#p48f893d282)" style="fill: none; stroke: #000000; stroke-width: 1.5"/>
    <path d="M 24.827586 322.758621 
L 24.827586 322.758621 
L 32.897165 345.334317 
L 40.961115 367.898591 
L 47.947011 390.812387 
L 53.774059 414.074665 
L 60.695481 436.964524 
L 69.890836 459.042038 
L 69.890836 459.042038 
L 76.880916 472.7519 
L 76.880916 472.7519 
L 83.674932 481.574383 
L 91.589821 487.989849 
L 103.225779 494.76296 
" clip-path="url(#p48f893d282)" style="fill: none; stroke: #000000; stroke-width: 1.5"/>
    <path d="M 0 637.510912 
L 8.667983 644.915783 
L 16.62149 653.197958 
L 21.598005 661.039432 
L 24.827586 670.344828 
L 24.827586 670.344828 
L 24.827586 670.344828 
L 24.827586 670.344828 
L 25.085762 673.894607 
L 24.648168 676.100718 
L 23.255768 678.082282 
L 20.556722 679.815801 
L 15.461816 681.931815 
" clip-path="url(#p48f893d282)" style="fill: none; stroke: #000000; stroke-width: 1.5"/>
    <path d="M 566.699862 681.870561 
L 543.510234 678.517604 
L 520.001941 675.179389 
L 496.551724 670.344828 
L 496.551724 670.344828 
L 483.971506 665.49328 
L 483.971506 665.49328 
L 475.896138 659.259388 
L 470.78668 650.557692 
L 469.272781 641.344053 
L 470.717981 632.353432 
L 474.64088 624.195065 
L 480.058748 615.178691 
L 491.441116 594.2345 
L 502.8049 573.112383 
L 515.402695 552.75725 
L 529.405208 533.351961 
L 529.405208 533.351961 
L 540.117639 517.704215 
L 540.117639 517.704215 
L 544.954798 506.724265 
L 546.877302 494.751955 
L 545.739962 482.701201 
L 542.101715 471.398351 
L 537.161231 458.090035 
L 531.13099 435.599214 
L 528.025683 412.053896 
L 526.941479 389.633167 
L 526.941479 389.633167 
L 527.935552 370.620678 
L 531.76139 352.169491 
L 538.597933 332.936028 
L 548.394378 313.382648 
L 561.779949 293.720607 
L 561.779949 293.720607 
L 570.554833 284.373375 
L 570.554833 284.373375 
L 578.28863 278.826775 
L 578.28863 278.826775 
L 585.613861 276.080241 
L 593.780501 275.644899 
L 601.018433 274.995048 
L 601.018433 274.995048 
L 607.945788 272.852762 
" clip-path="url(#p48f893d282)" style="fill: none; stroke: #000000; stroke-width: 1.5"/>
    <path d="M 682.163984 628.245985 
L 676.277924 625.664788 
L 670.344828 620.689655 
L 670.344828 620.689655 
L 670.344828 620.689655 
L 665.38117 611.098707 
L 663.695673 601.627366 
L 663.634548 589.382108 
L 665.297579 572.238346 
L 665.297579 572.238346 
L 668.998267 555.66868 
L 668.998267 555.66868 
L 672.312496 544.051673 
L 672.312496 544.051673 
L 672.737586 536.870749 
" clip-path="url(#p48f893d282)" style="fill: none; stroke: #000000; stroke-width: 1.5"/>
    <path d="M 30.215957 609.203168 
L 40.300125 613.911527 
L 49.655172 620.689655 
L 49.655172 620.689655 
L 49.655172 620.689655 
L 57.705005 626.31643 
L 66.813639 629.584294 
L 77.074297 630.827752 
L 89.110568 630.336346 
L 104.75552 628.139468 
L 127.962902 624.134864 
" clip-path="url(#p48f893d282)" style="fill: none; stroke: #000000; stroke-width: 1.5"/>
    <path d="M 155.725346 720 
L 149.803967 717.355647 
L 140.424005 711.246232 
L 133.266368 702.424491 
L 128.544883 691.877285 
L 126.698997 680.45862 
L 127.337468 671.549116 
L 130.506468 662.897825 
L 130.506468 662.897825 
L 137.341501 654.546668 
L 137.341501 654.546668 
L 148.965517 645.517241 
L 148.965517 645.517241 
L 148.965517 645.517241 
L 160.066698 640.495993 
" clip-path="url(#p48f893d282)" style="fill: none; stroke: #000000; stroke-width: 1.5"/>
    <path d="M 322.758621 645.517241 
L 346.518862 643.73554 
L 367.441703 644.198217 
L 367.441703 644.198217 
L 381.948931 645.260969 
L 381.948931 645.260969 
L 393.991412 649.357467 
L 393.991412 649.357467 
L 400.810676 652.052336 
L 400.810676 652.052336 
L 406.067365 652.595611 
" clip-path="url(#p48f893d282)" style="fill: none; stroke: #000000; stroke-width: 1.5"/>
    <path d="M 534.81492 657.335689 
L 528.05752 652.646296 
L 521.37931 645.517241 
L 521.37931 645.517241 
L 521.37931 645.517241 
L 518.278879 637.068174 
L 518.589527 629.528684 
L 521.444989 620.226817 
L 526.577403 609.57229 
L 526.577403 609.57229 
L 535.898841 596.541707 
L 545.198261 586.234094 
L 545.198261 586.234094 
L 555.990185 570.289833 
L 564.374244 555.15398 
L 575.521944 533.971197 
L 575.521944 533.971197 
L 580.805892 521.48759 
L 580.805892 521.48759 
L 582.715439 512.248945 
L 581.953317 503.154389 
L 579.153559 493.096074 
L 573.951191 478.657859 
L 565.732393 456.215144 
" clip-path="url(#p48f893d282)" style="fill: none; stroke: #000000; stroke-width: 1.5"/>
    <path d="M 657.717643 631.416122 
L 650.983933 627.055379 
L 645.517241 620.689655 
L 645.517241 620.689655 
L 645.517241 620.689655 
L 641.329922 610.313084 
L 640.411101 600.641384 
L 641.353515 588.071042 
L 644.361324 571.067164 
L 644.361324 571.067164 
L 648.952531 555.568872 
L 653.462604 539.885466 
L 653.462604 539.885466 
L 653.780736 531.317159 
L 651.694789 522.830607 
L 647.233588 512.762685 
" clip-path="url(#p48f893d282)" style="fill: none; stroke: #000000; stroke-width: 1.5"/>
    <path d="M 473.460529 208.888632 
L 485.387349 202.270203 
L 485.387349 202.270203 
L 500.354716 190.319533 
L 500.354716 190.319533 
L 517.509404 173.714956 
L 534.804023 157.378283 
L 552.695447 141.588176 
L 570.742743 125.792842 
L 588.462331 109.70936 
L 605.061127 92.598905 
L 620.689655 74.482759 
L 620.689655 74.482759 
L 628.355648 67.605296 
" clip-path="url(#p48f893d282)" style="fill: none; stroke: #000000; stroke-width: 1.5"/>
    <path d="M 248.275862 74.482759 
L 248.275862 74.482759 
L 251.560247 98.162925 
L 252.211669 118.235716 
L 252.211669 118.235716 
L 252.843 126.261309 
L 255.432594 132.025831 
L 260.025352 133.78567 
" clip-path="url(#p48f893d282)" style="fill: none; stroke: #000000; stroke-width: 1.5"/>
    <path d="M 170.807968 63.449575 
L 173.793103 74.482759 
L 173.793103 74.482759 
L 174.681719 98.346649 
L 173.75468 120.515804 
L 172.762356 144.481135 
L 172.762368 168.470027 
L 174.584107 192.32661 
" clip-path="url(#p48f893d282)" style="fill: none; stroke: #000000; stroke-width: 1.5"/>
    <path d="M 74.482759 273.103448 
L 74.482759 273.103448 
L 74.482759 273.103448 
L 70.757218 284.942511 
L 70.19681 298.227105 
L 72.265219 309.886356 
L 77.077967 324.233519 
L 84.007883 340.840806 
L 92.896437 363.115799 
L 101.599235 385.462404 
L 111.129465 407.397203 
L 121.939937 428.726532 
L 134.074793 449.3332 
L 148.407171 468.424131 
L 148.407171 468.424131 
L 158.345617 477.447688 
" clip-path="url(#p48f893d282)" style="fill: none; stroke: #000000; stroke-width: 1.5"/>
    <path d="M 377.428332 624.792767 
L 397.241379 620.689655 
L 397.241379 620.689655 
L 419.510942 612.099077 
L 419.510942 612.099077 
L 428.032882 606.227903 
L 434.458499 598.362302 
L 439.636723 589.300484 
" clip-path="url(#p48f893d282)" style="fill: none; stroke: #000000; stroke-width: 1.5"/>
    <path d="M 595.158668 629.339642 
L 595.862069 620.689655 
L 595.862069 620.689655 
L 601.639439 597.550157 
L 609.897006 575.340861 
L 609.897006 575.340861 
L 618.646341 559.524026 
L 629.122479 544.451066 
L 629.122479 544.451066 
" clip-path="url(#p48f893d282)" style="fill: none; stroke: #000000; stroke-width: 1.5"/>
    <path d="M 588.384903 247.732609 
L 602.033795 238.209466 
L 602.033795 238.209466 
L 620.689655 223.448276 
L 640.320312 209.747188 
L 659.932715 196.066785 
" clip-path="url(#p48f893d282)" style="fill: none; stroke: #000000; stroke-width: 1.5"/>
    <path d="M 328.383795 253.535011 
L 340.428844 243.990558 
L 340.428844 243.990558 
L 357.427216 234.920899 
L 357.427216 234.920899 
L 369.976145 229.104479 
L 383.126805 220.776132 
L 383.126805 220.776132 
L 401.678496 206.14604 
L 419.278997 192.56451 
L 437.32765 180.260803 
L 458.533713 169.576625 
L 480.19766 159.593566 
L 501.340076 148.400162 
L 521.442493 137.605429 
L 541.409535 124.500317 
L 556.318696 113.121628 
L 571.034483 99.310345 
L 571.034483 99.310345 
L 585.682044 80.468793 
L 585.682044 80.468793 
L 594.651075 68.039592 
L 594.651075 68.039592 
" clip-path="url(#p48f893d282)" style="fill: none; stroke: #000000; stroke-width: 1.5"/>
    <path d="M 52.455461 72.335217 
L 63.220598 93.682202 
L 74.785037 114.669019 
L 82.418646 128.978445 
L 89.301315 139.463782 
L 99.310345 148.965517 
L 99.310345 148.965517 
L 99.310345 148.965517 
L 105.648294 155.87089 
L 109.085053 163.231008 
L 111.588886 173.767975 
" clip-path="url(#p48f893d282)" style="fill: none; stroke: #000000; stroke-width: 1.5"/>
    <path d="M 110.663381 194.266365 
L 110.663381 194.266365 
L 107.44683 217.338192 
L 104.431497 233.082367 
L 99.310345 248.275862 
L 99.310345 248.275862 
L 99.310345 248.275862 
L 93.465915 265.1258 
L 91.485894 282.070631 
L 93.490987 299.147643 
L 97.766525 314.349148 
L 105.560066 337.009433 
L 113.921925 359.481425 
L 123.223877 381.516606 
L 134.889172 402.326501 
L 134.889172 402.326501 
L 144.565699 419.55802 
L 154.541788 437.572223 
L 167.904542 454.443214 
L 181.821628 466.536415 
L 197.297772 475.854054 
L 212.933408 482.6786 
L 235.188664 489.632652 
L 257.665801 494.104016 
L 281.470371 496.375442 
L 281.470371 496.375442 
L 301.568133 495.823188 
L 301.568133 495.823188 
L 318.4226 492.662291 
L 334.171137 486.971301 
L 349.623608 477.796711 
" clip-path="url(#p48f893d282)" style="fill: none; stroke: #000000; stroke-width: 1.5"/>
    <path d="M 198.62069 595.862069 
L 222.527676 597.910845 
L 246.442292 599.78805 
L 270.391274 601.037215 
L 294.281847 601.540645 
L 318.173897 601.194954 
L 318.173897 601.194954 
L 337.696284 599.207012 
L 357.399665 594.489113 
" clip-path="url(#p48f893d282)" style="fill: none; stroke: #000000; stroke-width: 1.5"/>
    <path d="M 500.606685 652.659374 
L 495.451735 645.088976 
L 492.891494 635.228343 
L 493.9324 625.516001 
L 493.9324 625.516001 
L 498.289329 612.943375 
L 498.289329 612.943375 
L 509.002838 591.569096 
L 521.37931 571.034483 
L 534.546127 551.002598 
" clip-path="url(#p48f893d282)" style="fill: none; stroke: #000000; stroke-width: 1.5"/>
    <path d="M 555.051893 428.159217 
L 552.578325 404.464474 
L 552.797106 383.383836 
L 555.522605 363.490432 
L 561.057958 344.510744 
L 561.057958 344.510744 
L 571.034483 322.758621 
" clip-path="url(#p48f893d282)" style="fill: none; stroke: #000000; stroke-width: 1.5"/>
    <path d="M 301.597209 202.785621 
L 301.597209 202.785621 
L 304.260538 193.017217 
L 308.482858 184.159646 
L 308.482858 184.159646 
L 316.362113 174.362542 
L 316.362113 174.362542 
L 328.903181 163.637951 
L 328.903181 163.637951 
L 347.586207 148.965517 
" clip-path="url(#p48f893d282)" style="fill: none; stroke: #000000; stroke-width: 1.5"/>
    <path d="M 142.623466 217.628035 
L 143.360812 241.438879 
L 143.344361 253.159132 
L 144.695818 263.202073 
L 148.965517 273.103448 
L 148.965517 273.103448 
L 148.965517 273.103448 
L 156.457434 281.809824 
L 165.257317 287.787364 
L 176.877249 292.95144 
L 193.216223 297.648382 
L 212.629205 302.14237 
L 235.473027 309.185308 
L 257.851969 316.95235 
L 257.851969 316.95235 
L 272.839818 319.864201 
L 286.732724 320.147528 
L 303.513423 317.280365 
L 303.513423 317.280365 
L 312.836882 312.865069 
L 320.955716 306.076866 
L 328.898196 297.201976 
L 328.898196 297.201976 
" clip-path="url(#p48f893d282)" style="fill: none; stroke: #000000; stroke-width: 1.5"/>
    <path d="M 135.755888 327.635811 
L 148.965517 347.586207 
L 148.965517 347.586207 
L 160.54007 359.80787 
L 172.423559 368.548661 
L 172.423559 368.548661 
L 184.127677 378.633178 
L 193.351104 390.298176 
L 203.349759 405.259715 
L 216.951959 424.991751 
L 230.944697 444.448045 
L 230.944697 444.448045 
L 239.736165 454.199968 
L 250.602497 461.974013 
L 262.680605 467.253566 
L 276.649892 470.858971 
L 294.468221 473.437725 
L 294.468221 473.437725 
L 311.425655 473.583635 
L 327.776241 470.606872 
L 327.776241 470.606872 
" clip-path="url(#p48f893d282)" style="fill: none; stroke: #000000; stroke-width: 1.5"/>
    <path d="M 148.965517 372.413793 
L 148.965517 372.413793 
L 164.29446 390.618942 
L 177.019635 410.7121 
L 188.269223 430.260374 
L 201.589478 449.896974 
L 201.589478 449.896974 
" clip-path="url(#p48f893d282)" style="fill: none; stroke: #000000; stroke-width: 1.5"/>
    <path d="M 151.777414 536.645552 
L 175.197237 541.377983 
L 198.62069 546.206897 
L 222.26347 550.279581 
L 245.844129 554.693171 
L 269.55234 557.650493 
L 293.41441 558.126911 
L 317.26545 556.156253 
L 340.802504 551.875952 
L 363.436159 544.398056 
L 381.96882 534.759046 
L 398.85735 522.139073 
L 412.185697 508.210067 
L 423.084653 491.819362 
L 430.288126 476.093801 
L 430.288126 476.093801 
" clip-path="url(#p48f893d282)" style="fill: none; stroke: #000000; stroke-width: 1.5"/>
    <path d="M 198.62069 322.758621 
L 220.745369 331.893721 
L 241.748788 343.207614 
L 261.380541 354.596744 
L 261.380541 354.596744 
L 274.636063 359.852438 
L 289.004857 362.18396 
L 302.409939 361.260341 
L 302.409939 361.260341 
L 312.291368 358.016831 
L 320.955047 351.978649 
L 327.80133 344.18039 
" clip-path="url(#p48f893d282)" style="fill: none; stroke: #000000; stroke-width: 1.5"/>
    <path d="M 213.707581 361.349102 
L 223.448276 372.413793 
L 223.448276 372.413793 
L 238.971571 390.532995 
L 255.181616 404.757924 
L 255.181616 404.757924 
L 263.68507 411.022636 
L 263.68507 411.022636 
L 269.779391 414.758559 
L 269.779391 414.758559 
L 273.763077 416.31299 
L 273.763077 416.31299 
L 276.335782 416.616644 
L 277.96688 416.443717 
L 279.708873 415.724142 
L 281.912834 414.282745 
L 285.871277 411.331523 
" clip-path="url(#p48f893d282)" style="fill: none; stroke: #000000; stroke-width: 1.5"/>
    <path d="M 197.957803 366.72116 
L 197.957803 366.72116 
L 208.377141 378.597305 
L 208.377141 378.597305 
L 223.448276 397.241379 
L 239.626566 414.883373 
L 256.587265 431.598387 
L 274.817586 446.744348 
L 274.817586 446.744348 
L 285.52243 452.553746 
L 296.310828 455.553919 
L 296.310828 455.553919 
L 305.76305 455.751326 
L 313.735466 453.004393 
L 320.340191 446.798862 
L 323.8253 439.4273 
L 323.8253 439.4273 
L 324.790409 432.926652 
L 322.750486 427.501834 
L 318.195306 423.947328 
L 312.35589 421.084218 
" clip-path="url(#p48f893d282)" style="fill: none; stroke: #000000; stroke-width: 1.5"/>
    <path d="M 445.641183 246.286119 
L 445.641183 246.286119 
L 457.858671 245.982365 
L 471.724138 248.275862 
L 471.724138 248.275862 
L 471.724138 248.275862 
L 480.038499 249.3809 
L 487.77037 248.325494 
L 496.273555 244.837999 
L 504.209832 239.494395 
L 514.005467 230.613304 
L 524.611956 217.716605 
" clip-path="url(#p48f893d282)" style="fill: none; stroke: #000000; stroke-width: 1.5"/>
    <path d="M 367.929645 457.196678 
L 372.413793 446.896552 
L 372.413793 446.896552 
L 372.413793 446.896552 
L 375.862711 430.350957 
L 375.862711 430.350957 
L 377.217357 413.281998 
L 378.009254 397.508456 
L 378.009254 397.508456 
L 380.223378 387.019953 
L 384.562104 377.852957 
" clip-path="url(#p48f893d282)" style="fill: none; stroke: #000000; stroke-width: 1.5"/>
    <path d="M 368.298901 357.126758 
L 373.560135 345.236053 
L 373.560135 345.236053 
L 376.57837 331.308656 
L 376.57837 331.308656 
L 378.851598 311.082143 
L 380.393709 298.761812 
L 383.39563 288.290742 
L 387.503242 281.049373 
L 393.013026 275.843343 
L 400.412758 272.826598 
L 400.412758 272.826598 
L 410.697235 271.71139 
L 422.068966 273.103448 
L 422.068966 273.103448 
L 422.068966 273.103448 
" clip-path="url(#p48f893d282)" style="fill: none; stroke: #000000; stroke-width: 1.5"/>
    <path d="M 346.616332 456.272009 
L 351.89595 445.828508 
L 353.785169 436.740014 
L 353.563901 430.222321 
L 351.782567 425.713742 
L 347.586207 422.068966 
L 347.586207 422.068966 
L 347.586207 422.068966 
L 347.586207 422.068966 
L 338.178635 416.139552 
L 332.0503 409.260313 
L 332.0503 409.260313 
L 330.837022 403.551916 
L 333.256126 396.448088 
L 337.071187 389.780665 
L 348.844094 371.284321 
L 348.844094 371.284321 
" clip-path="url(#p48f893d282)" style="fill: none; stroke: #000000; stroke-width: 1.5"/>
   </g>
   <g id="patch_3">
    <path d="M 52.74776 705.993804 
Q 50.185165 703.842416 48.906991 702.769344 
" clip-path="url(#p48f893d282)" style="fill: none; stroke: #000000; stroke-width: 1.5; stroke-linecap: round"/>
    <path d="M 50.684545 706.873037 
L 48.906991 702.769344 
L 53.256478 703.809516 
z
" clip-path="url(#p48f893d282)" style="stroke: #000000; stroke-width: 1.5; stroke-linecap: round"/>
   </g>
   <g id="patch_4">
    <path d="M 462.809829 522.214873 
Q 464.525838 518.746852 465.498096 516.781939 
" clip-path="url(#p48f893d282)" style="fill: none; stroke: #000000; stroke-width: 1.5; stroke-linecap: round"/>
    <path d="M 461.931583 519.480084 
L 465.498096 516.781939 
L 465.516705 521.254036 
z
" clip-path="url(#p48f893d282)" style="stroke: #000000; stroke-width: 1.5; stroke-linecap: round"/>
   </g>
   <g id="patch_5">
    <path d="M 215.916086 705.044672 
Q 215.688997 705.17852 216.906676 704.460813 
" clip-path="url(#p48f893d282)" style="fill: none; stroke: #000000; stroke-width: 1.5; stroke-linecap: round"/>
    <path d="M 221.368187 704.152722 
L 216.906676 704.460813 
L 219.33711 700.706749 
z
" clip-path="url(#p48f893d282)" style="stroke: #000000; stroke-width: 1.5; stroke-linecap: round"/>
   </g>
   <g id="patch_6">
    <path d="M 249.68216 690.353113 
Q 249.912836 690.825368 249.40746 689.79073 
" clip-path="url(#p48f893d282)" style="fill: none; stroke: #000000; stroke-width: 1.5; stroke-linecap: round"/>
    <path d="M 249.448949 685.318786 
L 249.40746 689.79073 
L 245.854798 687.074373 
z
" clip-path="url(#p48f893d282)" style="stroke: #000000; stroke-width: 1.5; stroke-linecap: round"/>
   </g>
   <g id="patch_7">
    <path d="M 339.562595 671.778181 
Q 340.335765 672.318706 339.734463 671.898334 
" clip-path="url(#p48f893d282)" style="fill: none; stroke: #000000; stroke-width: 1.5; stroke-linecap: round"/>
    <path d="M 337.602092 667.967304 
L 339.734463 671.898334 
L 335.310216 671.245613 
z
" clip-path="url(#p48f893d282)" style="stroke: #000000; stroke-width: 1.5; stroke-linecap: round"/>
   </g>
   <g id="patch_8">
    <path d="M 404.661864 710.167321 
Q 402.549636 709.321749 401.994337 709.09945 
" clip-path="url(#p48f893d282)" style="fill: none; stroke: #000000; stroke-width: 1.5; stroke-linecap: round"/>
    <path d="M 404.964532 712.442792 
L 401.994337 709.09945 
L 406.451128 708.729298 
z
" clip-path="url(#p48f893d282)" style="stroke: #000000; stroke-width: 1.5; stroke-linecap: round"/>
   </g>
   <g id="patch_9">
    <path d="M 469.78524 575.318436 
Q 471.191849 572.935025 471.746089 571.9959 
" clip-path="url(#p48f893d282)" style="fill: none; stroke: #000000; stroke-width: 1.5; stroke-linecap: round"/>
    <path d="M 467.990655 574.424216 
L 471.746089 571.9959 
L 471.435481 576.457237 
z
" clip-path="url(#p48f893d282)" style="stroke: #000000; stroke-width: 1.5; stroke-linecap: round"/>
   </g>
   <g id="patch_10">
    <path d="M 689.86839 710.622314 
Q 685.94274 711.159273 683.67867 711.468957 
" clip-path="url(#p48f893d282)" style="fill: none; stroke: #000000; stroke-width: 1.5; stroke-linecap: round"/>
    <path d="M 687.912808 712.908425 
L 683.67867 711.468957 
L 687.370728 708.945327 
z
" clip-path="url(#p48f893d282)" style="stroke: #000000; stroke-width: 1.5; stroke-linecap: round"/>
   </g>
   <g id="patch_11">
    <path d="M 576.698669 694.849381 
Q 572.734882 695.268248 570.43886 695.510876 
" clip-path="url(#p48f893d282)" style="fill: none; stroke: #000000; stroke-width: 1.5; stroke-linecap: round"/>
    <path d="M 574.626888 697.079449 
L 570.43886 695.510876 
L 574.206535 693.101597 
z
" clip-path="url(#p48f893d282)" style="stroke: #000000; stroke-width: 1.5; stroke-linecap: round"/>
   </g>
   <g id="patch_12">
    <path d="M 618.491395 446.332072 
Q 617.698599 443.832188 617.412769 442.930892 
" clip-path="url(#p48f893d282)" style="fill: none; stroke: #000000; stroke-width: 1.5; stroke-linecap: round"/>
    <path d="M 616.715522 447.34834 
L 617.412769 442.930892 
L 620.528379 446.139158 
z
" clip-path="url(#p48f893d282)" style="stroke: #000000; stroke-width: 1.5; stroke-linecap: round"/>
   </g>
   <g id="patch_13">
    <path d="M 651.333097 426.597058 
Q 650.727684 424.253031 650.541657 423.532771 
" clip-path="url(#p48f893d282)" style="fill: none; stroke: #000000; stroke-width: 1.5; stroke-linecap: round"/>
    <path d="M 649.605492 427.905825 
L 650.541657 423.532771 
L 653.478401 426.905535 
z
" clip-path="url(#p48f893d282)" style="stroke: #000000; stroke-width: 1.5; stroke-linecap: round"/>
   </g>
   <g id="patch_14">
    <path d="M 676.857717 418.777819 
Q 675.75667 416.424356 675.366289 415.589923 
" clip-path="url(#p48f893d282)" style="fill: none; stroke: #000000; stroke-width: 1.5; stroke-linecap: round"/>
    <path d="M 675.249773 420.060541 
L 675.366289 415.589923 
L 678.872874 418.365507 
z
" clip-path="url(#p48f893d282)" style="stroke: #000000; stroke-width: 1.5; stroke-linecap: round"/>
   </g>
   <g id="patch_15">
    <path d="M 692.35025 358.417077 
Q 692.474917 356.664283 692.480605 356.584314 
" clip-path="url(#p48f893d282)" style="fill: none; stroke: #000000; stroke-width: 1.5; stroke-linecap: round"/>
    <path d="M 690.201863 360.432344 
L 692.480605 356.584314 
L 694.191784 360.716126 
z
" clip-path="url(#p48f893d282)" style="stroke: #000000; stroke-width: 1.5; stroke-linecap: round"/>
   </g>
   <g id="patch_16">
    <path d="M 584.199031 451.547118 
Q 583.316233 448.637064 582.920279 447.331842 
" clip-path="url(#p48f893d282)" style="fill: none; stroke: #000000; stroke-width: 1.5; stroke-linecap: round"/>
    <path d="M 582.167597 451.740183 
L 582.920279 447.331842 
L 585.995342 450.578993 
z
" clip-path="url(#p48f893d282)" style="stroke: #000000; stroke-width: 1.5; stroke-linecap: round"/>
   </g>
   <g id="patch_17">
    <path d="M 652.182112 227.64058 
Q 655.679746 225.732218 657.705204 224.627098 
" clip-path="url(#p48f893d282)" style="fill: none; stroke: #000000; stroke-width: 1.5; stroke-linecap: round"/>
    <path d="M 653.235937 224.787268 
L 657.705204 224.627098 
L 655.15178 228.298614 
z
" clip-path="url(#p48f893d282)" style="stroke: #000000; stroke-width: 1.5; stroke-linecap: round"/>
   </g>
   <g id="patch_18">
    <path d="M 445.691781 484.028665 
Q 446.118231 482.733332 446.020251 483.030944 
" clip-path="url(#p48f893d282)" style="fill: none; stroke: #000000; stroke-width: 1.5; stroke-linecap: round"/>
    <path d="M 442.869715 486.204919 
L 446.020251 483.030944 
L 446.66911 487.455758 
z
" clip-path="url(#p48f893d282)" style="stroke: #000000; stroke-width: 1.5; stroke-linecap: round"/>
   </g>
   <g id="patch_19">
    <path d="M 669.665264 108.616754 
Q 671.766512 107.791263 672.306842 107.57899 
" clip-path="url(#p48f893d282)" style="fill: none; stroke: #000000; stroke-width: 1.5; stroke-linecap: round"/>
    <path d="M 667.852532 107.180097 
L 672.306842 107.57899 
L 669.315142 110.903103 
z
" clip-path="url(#p48f893d282)" style="stroke: #000000; stroke-width: 1.5; stroke-linecap: round"/>
   </g>
   <g id="patch_20">
    <path d="M 314.300652 381.394581 
Q 315.87151 380.256115 316.084442 380.101793 
" clip-path="url(#p48f893d282)" style="fill: none; stroke: #000000; stroke-width: 1.5; stroke-linecap: round"/>
    <path d="M 311.671942 380.829697 
L 316.084442 380.101793 
L 314.019265 384.068536 
z
" clip-path="url(#p48f893d282)" style="stroke: #000000; stroke-width: 1.5; stroke-linecap: round"/>
   </g>
   <g id="patch_21">
    <path d="M 359.450628 178.036317 
Q 362.503121 175.553542 364.254578 174.128976 
" clip-path="url(#p48f893d282)" style="fill: none; stroke: #000000; stroke-width: 1.5; stroke-linecap: round"/>
    <path d="M 359.88944 175.101379 
L 364.254578 174.128976 
L 362.413417 178.204529 
z
" clip-path="url(#p48f893d282)" style="stroke: #000000; stroke-width: 1.5; stroke-linecap: round"/>
   </g>
   <g id="patch_22">
    <path d="M 593.676456 14.881855 
Q 596.450182 14.180552 597.598022 13.890335 
" clip-path="url(#p48f893d282)" style="fill: none; stroke: #000000; stroke-width: 1.5; stroke-linecap: round"/>
    <path d="M 593.229806 12.931848 
L 597.598022 13.890335 
L 594.210303 16.809815 
z
" clip-path="url(#p48f893d282)" style="stroke: #000000; stroke-width: 1.5; stroke-linecap: round"/>
   </g>
   <g id="patch_23">
    <path d="M 318.578047 134.2857 
Q 320.616377 133.751234 321.032495 133.642124 
" clip-path="url(#p48f893d282)" style="fill: none; stroke: #000000; stroke-width: 1.5; stroke-linecap: round"/>
    <path d="M 316.656026 132.722058 
L 321.032495 133.642124 
L 317.670561 136.59126 
z
" clip-path="url(#p48f893d282)" style="stroke: #000000; stroke-width: 1.5; stroke-linecap: round"/>
   </g>
   <g id="patch_24">
    <path d="M 385.525185 59.524142 
Q 387.913697 59.076409 388.653868 58.937662 
" clip-path="url(#p48f893d282)" style="fill: none; stroke: #000000; stroke-width: 1.5; stroke-linecap: round"/>
    <path d="M 384.353858 57.708875 
L 388.653868 58.937662 
L 385.090832 61.640397 
z
" clip-path="url(#p48f893d282)" style="stroke: #000000; stroke-width: 1.5; stroke-linecap: round"/>
   </g>
   <g id="patch_25">
    <path d="M 402.141486 16.441987 
Q 402.193971 16.493393 401.048353 15.371321 
" clip-path="url(#p48f893d282)" style="fill: none; stroke: #000000; stroke-width: 1.5; stroke-linecap: round"/>
    <path d="M 399.590163 11.143594 
L 401.048353 15.371321 
L 396.791256 14.001237 
z
" clip-path="url(#p48f893d282)" style="stroke: #000000; stroke-width: 1.5; stroke-linecap: round"/>
   </g>
   <g id="patch_26">
    <path d="M 325.001862 41.46207 
Q 326.391745 44.070951 326.993099 45.199724 
" clip-path="url(#p48f893d282)" style="fill: none; stroke: #000000; stroke-width: 1.5; stroke-linecap: round"/>
    <path d="M 326.877481 40.729083 
L 326.993099 45.199724 
L 323.347215 42.609834 
z
" clip-path="url(#p48f893d282)" style="stroke: #000000; stroke-width: 1.5; stroke-linecap: round"/>
   </g>
   <g id="patch_27">
    <path d="M 298.372699 43.104732 
Q 300.074348 46.634807 301.047777 48.654189 
" clip-path="url(#p48f893d282)" style="fill: none; stroke: #000000; stroke-width: 1.5; stroke-linecap: round"/>
    <path d="M 301.112479 44.182521 
L 301.047777 48.654189 
L 297.509264 45.919426 
z
" clip-path="url(#p48f893d282)" style="stroke: #000000; stroke-width: 1.5; stroke-linecap: round"/>
   </g>
   <g id="patch_28">
    <path d="M 262.505957 62.150156 
Q 263.538586 65.584764 264.088354 67.413337 
" clip-path="url(#p48f893d282)" style="fill: none; stroke: #000000; stroke-width: 1.5; stroke-linecap: round"/>
    <path d="M 264.851971 63.006877 
L 264.088354 67.413337 
L 261.021356 64.158567 
z
" clip-path="url(#p48f893d282)" style="stroke: #000000; stroke-width: 1.5; stroke-linecap: round"/>
   </g>
   <g id="patch_29">
    <path d="M 160.603204 192.416266 
Q 161.020469 196.371183 161.261773 198.658305 
" clip-path="url(#p48f893d282)" style="fill: none; stroke: #000000; stroke-width: 1.5; stroke-linecap: round"/>
    <path d="M 162.831042 194.470538 
L 161.261773 198.658305 
L 158.85312 194.89023 
z
" clip-path="url(#p48f893d282)" style="stroke: #000000; stroke-width: 1.5; stroke-linecap: round"/>
   </g>
   <g id="patch_30">
    <path d="M 48.970752 28.338874 
Q 50.625544 31.026701 51.401111 32.286431 
" clip-path="url(#p48f893d282)" style="fill: none; stroke: #000000; stroke-width: 1.5; stroke-linecap: round"/>
    <path d="M 51.007144 27.831682 
L 51.401111 32.286431 
L 47.600931 29.928756 
z
" clip-path="url(#p48f893d282)" style="stroke: #000000; stroke-width: 1.5; stroke-linecap: round"/>
   </g>
   <g id="patch_31">
    <path d="M 129.320129 488.78062 
Q 131.250194 489.747108 131.680712 489.962692 
" clip-path="url(#p48f893d282)" style="fill: none; stroke: #000000; stroke-width: 1.5; stroke-linecap: round"/>
    <path d="M 128.999589 486.383365 
L 131.680712 489.962692 
L 127.208577 489.959994 
z
" clip-path="url(#p48f893d282)" style="stroke: #000000; stroke-width: 1.5; stroke-linecap: round"/>
   </g>
   <g id="patch_32">
    <path d="M 35.883441 135.028865 
Q 36.050999 136.655228 36.046686 136.613369 
" clip-path="url(#p48f893d282)" style="fill: none; stroke: #000000; stroke-width: 1.5; stroke-linecap: round"/>
    <path d="M 37.626222 132.429463 
L 36.046686 136.613369 
L 33.647283 132.839397 
z
" clip-path="url(#p48f893d282)" style="stroke: #000000; stroke-width: 1.5; stroke-linecap: round"/>
   </g>
   <g id="patch_33">
    <path d="M 11.867342 138.69452 
Q 11.886485 140.497888 11.887827 140.6243 
" clip-path="url(#p48f893d282)" style="fill: none; stroke: #000000; stroke-width: 1.5; stroke-linecap: round"/>
    <path d="M 13.845257 136.603297 
L 11.887827 140.6243 
L 9.845482 136.645754 
z
" clip-path="url(#p48f893d282)" style="stroke: #000000; stroke-width: 1.5; stroke-linecap: round"/>
   </g>
   <g id="patch_34">
    <path d="M 29.716083 440.322187 
Q 30.804861 444.147618 31.434557 446.360058 
" clip-path="url(#p48f893d282)" style="fill: none; stroke: #000000; stroke-width: 1.5; stroke-linecap: round"/>
    <path d="M 32.263185 441.965359 
L 31.434557 446.360058 
L 28.415975 443.060336 
z
" clip-path="url(#p48f893d282)" style="stroke: #000000; stroke-width: 1.5; stroke-linecap: round"/>
   </g>
   <g id="patch_35">
    <path d="M 3.009676 411.816269 
Q 3.032081 415.775164 3.044996 418.057035 
" clip-path="url(#p48f893d282)" style="fill: none; stroke: #000000; stroke-width: 1.5; stroke-linecap: round"/>
    <path d="M 5.022326 414.04578 
L 3.044996 418.057035 
L 1.02239 414.068418 
z
" clip-path="url(#p48f893d282)" style="stroke: #000000; stroke-width: 1.5; stroke-linecap: round"/>
   </g>
   <g id="patch_36">
    <path d="M 39.354475 514.517136 
Q 42.793621 515.427637 44.611569 515.908931 
" clip-path="url(#p48f893d282)" style="fill: none; stroke: #000000; stroke-width: 1.5; stroke-linecap: round"/>
    <path d="M 41.256645 512.951825 
L 44.611569 515.908931 
L 40.232929 516.818607 
z
" clip-path="url(#p48f893d282)" style="stroke: #000000; stroke-width: 1.5; stroke-linecap: round"/>
   </g>
   <g id="patch_37">
    <path d="M 47.590422 570.080533 
Q 51.589475 570.183331 53.912032 570.243034 
" clip-path="url(#p48f893d282)" style="fill: none; stroke: #000000; stroke-width: 1.5; stroke-linecap: round"/>
    <path d="M 49.964747 568.140906 
L 53.912032 570.243034 
L 49.861958 572.139585 
z
" clip-path="url(#p48f893d282)" style="stroke: #000000; stroke-width: 1.5; stroke-linecap: round"/>
   </g>
   <g id="patch_38">
    <path d="M 88.365265 603.424932 
Q 92.246764 603.975158 94.467812 604.290005 
" clip-path="url(#p48f893d282)" style="fill: none; stroke: #000000; stroke-width: 1.5; stroke-linecap: round"/>
    <path d="M 90.788111 601.74839 
L 94.467812 604.290005 
L 90.2267 605.708797 
z
" clip-path="url(#p48f893d282)" style="stroke: #000000; stroke-width: 1.5; stroke-linecap: round"/>
   </g>
   <g id="patch_39">
    <path d="M 195.494213 651.987371 
Q 199.387067 651.180243 201.637795 650.713587 
" clip-path="url(#p48f893d282)" style="fill: none; stroke: #000000; stroke-width: 1.5; stroke-linecap: round"/>
    <path d="M 197.315059 649.567309 
L 201.637795 650.713587 
L 198.12713 653.484009 
z
" clip-path="url(#p48f893d282)" style="stroke: #000000; stroke-width: 1.5; stroke-linecap: round"/>
   </g>
   <g id="patch_40">
    <path d="M 291.501815 702.221328 
Q 291.152144 702.410015 292.278358 701.802295 
" clip-path="url(#p48f893d282)" style="fill: none; stroke: #000000; stroke-width: 1.5; stroke-linecap: round"/>
    <path d="M 296.748319 701.662848 
L 292.278358 701.802295 
L 294.848777 698.142658 
z
" clip-path="url(#p48f893d282)" style="stroke: #000000; stroke-width: 1.5; stroke-linecap: round"/>
   </g>
   <g id="patch_41">
    <path d="M 320.288879 705.706659 
Q 319.828085 705.846844 320.971737 705.498918 
" clip-path="url(#p48f893d282)" style="fill: none; stroke: #000000; stroke-width: 1.5; stroke-linecap: round"/>
    <path d="M 325.380671 706.248119 
L 320.971737 705.498918 
L 324.216458 702.421291 
z
" clip-path="url(#p48f893d282)" style="stroke: #000000; stroke-width: 1.5; stroke-linecap: round"/>
   </g>
   <g id="patch_42">
    <path d="M 654.347924 655.75567 
Q 652.390085 655.871134 652.106388 655.887865 
" clip-path="url(#p48f893d282)" style="fill: none; stroke: #000000; stroke-width: 1.5; stroke-linecap: round"/>
    <path d="M 656.217196 657.648904 
L 652.106388 655.887865 
L 655.981704 653.655842 
z
" clip-path="url(#p48f893d282)" style="stroke: #000000; stroke-width: 1.5; stroke-linecap: round"/>
   </g>
   <g id="patch_43">
    <path d="M 100.658084 26.307173 
Q 102.684718 28.532071 103.582025 29.517161 
" clip-path="url(#p48f893d282)" style="fill: none; stroke: #000000; stroke-width: 1.5; stroke-linecap: round"/>
    <path d="M 102.366981 25.213248 
L 103.582025 29.517161 
L 99.409868 27.906848 
z
" clip-path="url(#p48f893d282)" style="stroke: #000000; stroke-width: 1.5; stroke-linecap: round"/>
   </g>
   <g id="patch_44">
    <path d="M 30.902682 217.506992 
Q 30.457119 217.942741 31.210542 217.205914 
" clip-path="url(#p48f893d282)" style="fill: none; stroke: #000000; stroke-width: 1.5; stroke-linecap: round"/>
    <path d="M 35.468667 215.83903 
L 31.210542 217.205914 
L 32.67191 212.979283 
z
" clip-path="url(#p48f893d282)" style="stroke: #000000; stroke-width: 1.5; stroke-linecap: round"/>
   </g>
   <g id="patch_45">
    <path d="M 54.352816 415.988673 
Q 55.504613 419.797784 56.171009 422.001627 
" clip-path="url(#p48f893d282)" style="fill: none; stroke: #000000; stroke-width: 1.5; stroke-linecap: round"/>
    <path d="M 56.927657 417.593965 
L 56.171009 422.001627 
L 53.098868 418.751712 
z
" clip-path="url(#p48f893d282)" style="stroke: #000000; stroke-width: 1.5; stroke-linecap: round"/>
   </g>
   <g id="patch_46">
    <path d="M 17.693093 654.886478 
Q 17.865333 655.157876 17.138942 654.013306 
" clip-path="url(#p48f893d282)" style="fill: none; stroke: #000000; stroke-width: 1.5; stroke-linecap: round"/>
    <path d="M 16.684224 649.564347 
L 17.138942 654.013306 
L 13.306945 651.707705 
z
" clip-path="url(#p48f893d282)" style="stroke: #000000; stroke-width: 1.5; stroke-linecap: round"/>
   </g>
   <g id="patch_47">
    <path d="M 545.271617 504.751289 
Q 545.435557 503.730359 545.333604 504.365266 
" clip-path="url(#p48f893d282)" style="fill: none; stroke: #000000; stroke-width: 1.5; stroke-linecap: round"/>
    <path d="M 542.72471 507.997575 
L 545.333604 504.365266 
L 546.674115 508.631767 
z
" clip-path="url(#p48f893d282)" style="stroke: #000000; stroke-width: 1.5; stroke-linecap: round"/>
   </g>
   <g id="patch_48">
    <path d="M 663.827404 587.394001 
Q 664.050217 585.097074 664.111109 584.469363 
" clip-path="url(#p48f893d282)" style="fill: none; stroke: #000000; stroke-width: 1.5; stroke-linecap: round"/>
    <path d="M 661.734245 588.257571 
L 664.111109 584.469363 
L 665.715557 588.643778 
z
" clip-path="url(#p48f893d282)" style="stroke: #000000; stroke-width: 1.5; stroke-linecap: round"/>
   </g>
   <g id="patch_49">
    <path d="M 68.800139 629.825032 
Q 69.378861 629.895165 68.292714 629.763538 
" clip-path="url(#p48f893d282)" style="fill: none; stroke: #000000; stroke-width: 1.5; stroke-linecap: round"/>
    <path d="M 64.56238 627.296838 
L 68.292714 629.763538 
L 64.081153 631.267785 
z
" clip-path="url(#p48f893d282)" style="stroke: #000000; stroke-width: 1.5; stroke-linecap: round"/>
   </g>
   <g id="patch_50">
    <path d="M 126.842092 678.461812 
Q 126.858777 678.22898 126.755589 679.668908 
" clip-path="url(#p48f893d282)" style="fill: none; stroke: #000000; stroke-width: 1.5; stroke-linecap: round"/>
    <path d="M 124.47479 683.51572 
L 126.755589 679.668908 
L 128.464559 683.801634 
z
" clip-path="url(#p48f893d282)" style="stroke: #000000; stroke-width: 1.5; stroke-linecap: round"/>
   </g>
   <g id="patch_51">
    <path d="M 348.518689 643.779763 
Q 351.751695 643.851256 353.30806 643.885673 
" clip-path="url(#p48f893d282)" style="fill: none; stroke: #000000; stroke-width: 1.5; stroke-linecap: round"/>
    <path d="M 349.353254 641.797729 
L 353.30806 643.885673 
L 349.264822 645.796751 
z
" clip-path="url(#p48f893d282)" style="stroke: #000000; stroke-width: 1.5; stroke-linecap: round"/>
   </g>
   <g id="patch_52">
    <path d="M 556.958364 568.541967 
Q 558.086239 566.505798 558.401501 565.936653 
" clip-path="url(#p48f893d282)" style="fill: none; stroke: #000000; stroke-width: 1.5; stroke-linecap: round"/>
    <path d="M 554.713775 568.466609 
L 558.401501 565.936653 
L 558.21283 570.404808 
z
" clip-path="url(#p48f893d282)" style="stroke: #000000; stroke-width: 1.5; stroke-linecap: round"/>
   </g>
   <g id="patch_53">
    <path d="M 641.702321 586.099157 
Q 642.105872 583.817783 642.217305 583.187823 
" clip-path="url(#p48f893d282)" style="fill: none; stroke: #000000; stroke-width: 1.5; stroke-linecap: round"/>
    <path d="M 639.551138 586.778304 
L 642.217305 583.187823 
L 643.489989 587.475046 
z
" clip-path="url(#p48f893d282)" style="stroke: #000000; stroke-width: 1.5; stroke-linecap: round"/>
   </g>
   <g id="patch_54">
    <path d="M 554.200123 140.271255 
Q 557.208813 137.637993 558.955531 136.109232 
" clip-path="url(#p48f893d282)" style="fill: none; stroke: #000000; stroke-width: 1.5; stroke-linecap: round"/>
    <path d="M 554.628355 137.238634 
L 558.955531 136.109232 
L 557.262746 140.248614 
z
" clip-path="url(#p48f893d282)" style="stroke: #000000; stroke-width: 1.5; stroke-linecap: round"/>
   </g>
   <g id="patch_55">
    <path d="M 251.624976 100.157462 
Q 251.723035 103.179049 251.766698 104.524467 
" clip-path="url(#p48f893d282)" style="fill: none; stroke: #000000; stroke-width: 1.5; stroke-linecap: round"/>
    <path d="M 253.635902 100.4617 
L 251.766698 104.524467 
L 249.638007 100.591444 
z
" clip-path="url(#p48f893d282)" style="stroke: #000000; stroke-width: 1.5; stroke-linecap: round"/>
   </g>
   <g id="patch_56">
    <path d="M 173.671946 122.51389 
Q 173.506514 126.509184 173.410464 128.828863 
" clip-path="url(#p48f893d282)" style="fill: none; stroke: #000000; stroke-width: 1.5; stroke-linecap: round"/>
    <path d="M 175.574237 124.91503 
L 173.410464 128.828863 
L 171.577661 124.749545 
z
" clip-path="url(#p48f893d282)" style="stroke: #000000; stroke-width: 1.5; stroke-linecap: round"/>
   </g>
   <g id="patch_57">
    <path d="M 93.622025 364.978926 
Q 95.07288 368.70436 95.915139 370.867069 
" clip-path="url(#p48f893d282)" style="fill: none; stroke: #000000; stroke-width: 1.5; stroke-linecap: round"/>
    <path d="M 96.327208 366.413958 
L 95.915139 370.867069 
L 92.599892 367.865547 
z
" clip-path="url(#p48f893d282)" style="stroke: #000000; stroke-width: 1.5; stroke-linecap: round"/>
   </g>
   <g id="patch_58">
    <path d="M 399.108956 619.96923 
Q 402.808146 618.542252 404.942665 617.718852 
" clip-path="url(#p48f893d282)" style="fill: none; stroke: #000000; stroke-width: 1.5; stroke-linecap: round"/>
    <path d="M 400.490899 617.292492 
L 404.942665 617.718852 
L 401.930517 621.024448 
z
" clip-path="url(#p48f893d282)" style="stroke: #000000; stroke-width: 1.5; stroke-linecap: round"/>
   </g>
   <g id="patch_59">
    <path d="M 602.335969 595.676789 
Q 603.704346 591.996447 604.488273 589.888021 
" clip-path="url(#p48f893d282)" style="fill: none; stroke: #000000; stroke-width: 1.5; stroke-linecap: round"/>
    <path d="M 601.219662 592.940263 
L 604.488273 589.888021 
L 604.9689 594.334255 
z
" clip-path="url(#p48f893d282)" style="stroke: #000000; stroke-width: 1.5; stroke-linecap: round"/>
   </g>
   <g id="patch_60">
    <path d="M 622.331135 222.302616 
Q 625.59788 220.022612 627.489405 218.702435 
" clip-path="url(#p48f893d282)" style="fill: none; stroke: #000000; stroke-width: 1.5; stroke-linecap: round"/>
    <path d="M 623.064652 219.351708 
L 627.489405 218.702435 
L 625.353971 222.631802 
z
" clip-path="url(#p48f893d282)" style="stroke: #000000; stroke-width: 1.5; stroke-linecap: round"/>
   </g>
   <g id="patch_61">
    <path d="M 460.350502 168.739423 
Q 463.949092 167.081141 466.024569 166.124731 
" clip-path="url(#p48f893d282)" style="fill: none; stroke: #000000; stroke-width: 1.5; stroke-linecap: round"/>
    <path d="M 461.5547 165.982376 
L 466.024569 166.124731 
L 463.228764 169.615214 
z
" clip-path="url(#p48f893d282)" style="stroke: #000000; stroke-width: 1.5; stroke-linecap: round"/>
   </g>
   <g id="patch_62">
    <path d="M 75.726192 116.433243 
Q 76.692933 118.245426 76.870318 118.577941 
" clip-path="url(#p48f893d282)" style="fill: none; stroke: #000000; stroke-width: 1.5; stroke-linecap: round"/>
    <path d="M 76.752206 114.107365 
L 76.870318 118.577941 
L 73.22299 115.990086 
z
" clip-path="url(#p48f893d282)" style="stroke: #000000; stroke-width: 1.5; stroke-linecap: round"/>
   </g>
   <g id="patch_63">
    <path d="M 135.869582 404.07237 
Q 137.309684 406.636838 137.928638 407.739043 
" clip-path="url(#p48f893d282)" style="fill: none; stroke: #000000; stroke-width: 1.5; stroke-linecap: round"/>
    <path d="M 137.713936 403.272064 
L 137.928638 407.739043 
L 134.226233 405.230617 
z
" clip-path="url(#p48f893d282)" style="stroke: #000000; stroke-width: 1.5; stroke-linecap: round"/>
   </g>
   <g id="patch_64">
    <path d="M 272.38896 601.079311 
Q 276.3646 601.163087 278.663562 601.211532 
" clip-path="url(#p48f893d282)" style="fill: none; stroke: #000000; stroke-width: 1.5; stroke-linecap: round"/>
    <path d="M 274.706585 599.127705 
L 278.663562 601.211532 
L 274.622314 603.126817 
z
" clip-path="url(#p48f893d282)" style="stroke: #000000; stroke-width: 1.5; stroke-linecap: round"/>
   </g>
   <g id="patch_65">
    <path d="M 499.185173 611.156097 
Q 500.968012 607.599195 501.999372 605.541551 
" clip-path="url(#p48f893d282)" style="fill: none; stroke: #000000; stroke-width: 1.5; stroke-linecap: round"/>
    <path d="M 498.419018 608.221302 
L 501.999372 605.541551 
L 501.994961 610.013685 
z
" clip-path="url(#p48f893d282)" style="stroke: #000000; stroke-width: 1.5; stroke-linecap: round"/>
   </g>
   <g id="patch_66">
    <path d="M 553.067926 381.407123 
Q 553.478199 378.41254 553.660834 377.079486 
" clip-path="url(#p48f893d282)" style="fill: none; stroke: #000000; stroke-width: 1.5; stroke-linecap: round"/>
    <path d="M 551.136396 380.770992 
L 553.660834 377.079486 
L 555.099375 381.31394 
z
" clip-path="url(#p48f893d282)" style="stroke: #000000; stroke-width: 1.5; stroke-linecap: round"/>
   </g>
   <g id="patch_67">
    <path d="M 317.88382 173.061243 
Q 319.498838 171.680147 319.839296 171.389003 
" clip-path="url(#p48f893d282)" style="fill: none; stroke: #000000; stroke-width: 1.5; stroke-linecap: round"/>
    <path d="M 315.499447 172.468684 
L 319.839296 171.389003 
L 318.099132 175.508691 
z
" clip-path="url(#p48f893d282)" style="stroke: #000000; stroke-width: 1.5; stroke-linecap: round"/>
   </g>
   <g id="patch_68">
    <path d="M 195.164157 298.099317 
Q 198.067933 298.771524 199.337866 299.065506 
" clip-path="url(#p48f893d282)" style="fill: none; stroke: #000000; stroke-width: 1.5; stroke-linecap: round"/>
    <path d="M 195.89198 296.214914 
L 199.337866 299.065506 
L 194.989861 300.111859 
z
" clip-path="url(#p48f893d282)" style="stroke: #000000; stroke-width: 1.5; stroke-linecap: round"/>
   </g>
   <g id="patch_69">
    <path d="M 218.11859 426.6139 
Q 220.448492 429.853529 221.799214 431.731649 
" clip-path="url(#p48f893d282)" style="fill: none; stroke: #000000; stroke-width: 1.5; stroke-linecap: round"/>
    <path d="M 221.087425 427.316521 
L 221.799214 431.731649 
L 217.840038 429.652003 
z
" clip-path="url(#p48f893d282)" style="stroke: #000000; stroke-width: 1.5; stroke-linecap: round"/>
   </g>
   <g id="patch_70">
    <path d="M 165.364729 392.308906 
Q 167.474679 395.640535 168.687345 397.555343 
" clip-path="url(#p48f893d282)" style="fill: none; stroke: #000000; stroke-width: 1.5; stroke-linecap: round"/>
    <path d="M 168.236852 393.105955 
L 168.687345 397.555343 
L 164.857538 395.246104 
z
" clip-path="url(#p48f893d282)" style="stroke: #000000; stroke-width: 1.5; stroke-linecap: round"/>
   </g>
   <g id="patch_71">
    <path d="M 295.40879 557.962128 
Q 299.377852 557.63419 301.675558 557.444346 
" clip-path="url(#p48f893d282)" style="fill: none; stroke: #000000; stroke-width: 1.5; stroke-linecap: round"/>
    <path d="M 297.524455 555.78051 
L 301.675558 557.444346 
L 297.853827 559.766926 
z
" clip-path="url(#p48f893d282)" style="stroke: #000000; stroke-width: 1.5; stroke-linecap: round"/>
   </g>
   <g id="patch_72">
    <path d="M 263.241363 355.334543 
Q 264.694953 355.910878 264.589562 355.869091 
" clip-path="url(#p48f893d282)" style="fill: none; stroke: #000000; stroke-width: 1.5; stroke-linecap: round"/>
    <path d="M 261.608327 352.535589 
L 264.589562 355.869091 
L 260.134019 356.253978 
z
" clip-path="url(#p48f893d282)" style="stroke: #000000; stroke-width: 1.5; stroke-linecap: round"/>
   </g>
   <g id="patch_73">
    <path d="M 240.473454 391.850954 
Q 243.022176 394.087554 244.310375 395.217997 
" clip-path="url(#p48f893d282)" style="fill: none; stroke: #000000; stroke-width: 1.5; stroke-linecap: round"/>
    <path d="M 242.623021 391.076399 
L 244.310375 395.217997 
L 239.984684 394.082921 
z
" clip-path="url(#p48f893d282)" style="stroke: #000000; stroke-width: 1.5; stroke-linecap: round"/>
   </g>
   <g id="patch_74">
    <path d="M 258.125004 432.875957 
Q 261.145983 435.385822 262.877017 436.823985 
" clip-path="url(#p48f893d282)" style="fill: none; stroke: #000000; stroke-width: 1.5; stroke-linecap: round"/>
    <path d="M 261.078398 432.729481 
L 262.877017 436.823985 
L 258.522242 435.806178 
z
" clip-path="url(#p48f893d282)" style="stroke: #000000; stroke-width: 1.5; stroke-linecap: round"/>
   </g>
   <g id="patch_75">
    <path d="M 489.617986 247.567713 
Q 489.893833 247.454577 488.618061 247.977822 
" clip-path="url(#p48f893d282)" style="fill: none; stroke: #000000; stroke-width: 1.5; stroke-linecap: round"/>
    <path d="M 484.158307 247.645265 
L 488.618061 247.977822 
L 485.676163 251.346091 
z
" clip-path="url(#p48f893d282)" style="stroke: #000000; stroke-width: 1.5; stroke-linecap: round"/>
   </g>
   <g id="patch_76">
    <path d="M 376.021128 428.354856 
Q 376.201402 426.083344 376.248997 425.483627 
" clip-path="url(#p48f893d282)" style="fill: none; stroke: #000000; stroke-width: 1.5; stroke-linecap: round"/>
    <path d="M 373.938809 429.31286 
L 376.248997 425.483627 
L 377.926271 429.629318 
z
" clip-path="url(#p48f893d282)" style="stroke: #000000; stroke-width: 1.5; stroke-linecap: round"/>
   </g>
   <g id="patch_77">
    <path d="M 379.099706 309.099941 
Q 379.236827 308.00445 379.165659 308.573024 
" clip-path="url(#p48f893d282)" style="fill: none; stroke: #000000; stroke-width: 1.5; stroke-linecap: round"/>
    <path d="M 376.684349 312.293656 
L 379.165659 308.573024 
L 380.653378 312.790451 
z
" clip-path="url(#p48f893d282)" style="stroke: #000000; stroke-width: 1.5; stroke-linecap: round"/>
   </g>
   <g id="patch_78">
    <path d="M 336.847039 414.644795 
Q 336.646541 414.419731 337.561583 415.446892 
" clip-path="url(#p48f893d282)" style="fill: none; stroke: #000000; stroke-width: 1.5; stroke-linecap: round"/>
    <path d="M 338.728933 419.763986 
L 337.561583 415.446892 
L 341.715667 417.103268 
z
" clip-path="url(#p48f893d282)" style="stroke: #000000; stroke-width: 1.5; stroke-linecap: round"/>
   </g>
   <g id="patch_79">
    <path d="M 0 720 
L 0 720 
L 0 0 
L 720 0 
L 720 720 
L 0 720 
z
" style="fill: none; stroke: #000000; stroke-width: 0.8; stroke-linejoin: miter; stroke-linecap: square"/>
   </g>
  </g>
 </g>
 <defs>
  <clipPath id="p48f893d282">
   <path d="M 0 720 
L 0 720 
L 0 0 
L 720 0 
L 720 720 
z
"/>
  </clipPath>
 </defs>
</svg>
