<?xml version="1.0" encoding="utf-8" standalone="no"?>
<!DOCTYPE svg PUBLIC "-//W3C//DTD SVG 1.1//EN"
  "http://www.w3.org/Graphics/SVG/1.1/DTD/svg11.dtd">
<svg xmlns:xlink="http://www.w3.org/1999/xlink" width="720pt" height="720pt" viewBox="0 0 720 720" xmlns="http://www.w3.org/2000/svg" version="1.1">
 <metadata>
  <rdf:RDF xmlns:dc="http://purl.org/dc/elements/1.1/" xmlns:cc="http://creativecommons.org/ns#" xmlns:rdf="http://www.w3.org/1999/02/22-rdf-syntax-ns#">
   <cc:Work>
    <dc:type rdf:resource="http://purl.org/dc/dcmitype/StillImage"/>
    <dc:date>2026-03-20T18:58:47.656321</dc:date>
    <dc:format>image/svg+xml</dc:format>
    <dc:creator>
     <cc:Agent>
      <dc:title>Matplotlib v3.10.8, https://matplotlib.org/</dc:title>
     </cc:Agent>
    </dc:creator>
   </cc:Work>
  </rdf:RDF>
 </metadata>
 <defs>
  <style type="text/css">*{stroke-linejoin: round; stroke-linecap: butt}</style>
 </defs>
 <g id="figure_1">
  <g id="patch_1">
   <path d="M 0 720 
L 720 720 
L 720 0 
L 0 0 
L 0 720 
z
" style="fill: none"/>
  </g>
  <g id="axes_1">
   <g id="patch_2">
    <path d="M 0 720 
L 0 720 
L 0 0 
L 720 0 
L 720 720 
L 0 720 
z
" style="fill: none"/>
   </g>
   <g id="LineCollection_1">
    <path d="M 74.482759 720 
L 74.482759 720 
L 52.536063 710.322711 
L 30.918939 699.924195 
L 30.918939 699.924195 
L 16.194949 693.622166 
L 0 687.989099 
" clip-path="url(#p0cf9b337dc)" style="fill: none; stroke: #000000; stroke-width: 1.5"/>
    <path d="M 182.872774 660.840499 
L 182.872774 660.840499 
L 182.872774 660.840499 
L 182.872774 660.840499 
L 182.872774 660.840499 
L 182.872774 660.840499 
L 182.872774 660.840499 
L 182.872774 660.840499 
L 182.872774 660.840499 
L 182.872774 660.840499 
L 182.872774 660.840499 
L 182.872774 660.840499 
L 182.872774 660.840499 
L 182.872774 660.840499 
L 182.872774 660.840499 
L 182.872774 660.840499 
L 182.872774 660.840499 
L 182.872774 660.840499 
L 182.872774 660.840499 
L 182.872774 660.840499 
L 182.872774 660.840499 
L 182.872774 660.840499 
L 182.872774 660.840499 
L 182.872774 660.840499 
L 182.872774 660.840499 
L 182.872774 660.840499 
L 182.872774 660.840499 
L 182.872774 660.840499 
L 182.872774 660.840499 
L 182.872774 660.840499 
L 182.872774 660.840499 
L 182.872774 660.840499 
L 182.872774 660.840499 
L 182.872774 660.840499 
L 182.872774 660.840499 
L 182.872774 660.840499 
L 182.872776 660.840495 
L 182.87279 660.840484 
L 182.872852 660.840452 
L 182.873081 660.840386 
L 182.873779 660.840352 
L 182.875432 660.840938 
L 182.87747 660.845097 
L 182.870303 660.864448 
L 182.799141 660.937239 
L 182.414223 661.170398 
L 180.980358 661.59975 
L 179.31274 661.335309 
L 178.168153 660.048102 
L 178.237895 657.666564 
L 180.026105 654.433904 
L 184.342068 649.769935 
L 190.980804 644.320061 
L 190.980804 644.320061 
L 203.06475 637.457325 
L 216.525761 633.582403 
L 227.7074 632.812905 
L 237.16792 634.281869 
L 246.050806 638.629732 
L 246.050806 638.629732 
L 256.035237 647.238692 
L 262.211075 654.070212 
L 265.626784 659.447049 
L 266.906946 664.235656 
L 266.149961 669.976076 
L 266.149961 669.976076 
L 261.700323 678.018603 
L 261.700323 678.018603 
L 251.659706 688.435947 
L 251.659706 688.435947 
L 233.396285 700.490809 
L 215.18613 708.658278 
L 195.679253 714.22195 
L 171.939964 716.638386 
L 148.01185 717.778715 
L 124.137931 720 
L 124.137931 720 
" clip-path="url(#p0cf9b337dc)" style="fill: none; stroke: #000000; stroke-width: 1.5"/>
    <path d="M 293.58031 650.244112 
L 300.921251 653.545811 
L 305.678117 657.382025 
L 308.010583 661.431239 
L 308.26482 666.616432 
L 305.932047 672.568693 
L 305.932047 672.568693 
L 298.641896 682.928441 
L 298.641896 682.928441 
L 284.814463 696.865445 
L 269.01251 708.104985 
L 269.01251 708.104985 
L 248.275862 720 
L 248.275862 720 
" clip-path="url(#p0cf9b337dc)" style="fill: none; stroke: #000000; stroke-width: 1.5"/>
    <path d="M 316.460952 636.579004 
L 335.59159 642.332764 
L 345.880563 646.792538 
L 353.086945 651.005961 
L 357.945872 655.789798 
L 360.495451 661.846692 
L 360.516814 670.329514 
L 356.863873 679.590208 
L 350.218009 686.833006 
L 350.218009 686.833006 
L 338.134394 695.782732 
L 338.134394 695.782732 
L 318.112168 707.851002 
L 297.931034 720 
L 297.931034 720 
" clip-path="url(#p0cf9b337dc)" style="fill: none; stroke: #000000; stroke-width: 1.5"/>
    <path d="M 135.810528 567.678882 
L 134.487739 573.229858 
L 136.720291 577.152044 
L 136.720291 577.152044 
L 141.818365 580.566552 
L 141.818365 580.566552 
L 157.220914 587.267411 
L 171.112229 592.969084 
L 187.289213 598.929089 
L 187.289213 598.929089 
L 209.902514 604.387589 
L 225.844475 606.617779 
L 241.146515 610.244436 
L 241.146515 610.244436 
L 241.146515 610.244436 
L 260.825231 616.929049 
L 283.790172 621.924105 
L 307.556527 624.951101 
L 326.506553 627.907984 
L 344.515713 632.937438 
L 344.515713 632.937438 
L 362.671847 638.491153 
L 374.734197 640.811923 
L 382.891848 642.610052 
L 388.528965 645.220732 
L 392.530865 649.593378 
L 392.530865 649.593378 
L 394.162478 655.726376 
L 394.162478 655.726376 
L 393.453071 665.840176 
L 393.453071 665.840176 
L 389.281991 678.655226 
L 381.913896 690.363781 
L 381.913896 690.363781 
L 366.691824 705.68565 
L 347.586207 720 
L 347.586207 720 
" clip-path="url(#p0cf9b337dc)" style="fill: none; stroke: #000000; stroke-width: 1.5"/>
    <path d="M 366.322001 629.417977 
L 387.639528 630.937175 
L 396.464188 630.748224 
L 403.675188 631.205848 
L 409.681825 633.853574 
L 414.885171 640.003481 
L 417.463535 649.647596 
L 416.655361 659.568875 
L 416.655361 659.568875 
L 412.25202 672.05837 
L 412.25202 672.05837 
L 402.423862 688.441192 
L 389.431513 703.198159 
L 389.431513 703.198159 
L 372.413793 720 
L 372.413793 720 
" clip-path="url(#p0cf9b337dc)" style="fill: none; stroke: #000000; stroke-width: 1.5"/>
    <path d="M 0 193.608695 
L 16.602838 192.383734 
L 27.233246 191.59458 
L 35.802379 191.828062 
L 42.573071 193.783538 
L 48.807212 197.836613 
L 48.807212 197.836613 
L 58.174671 204.441011 
L 70.089447 208.145484 
L 70.089447 208.145484 
L 93.543848 210.808326 
L 117.456452 212.467474 
L 141.364094 214.375534 
L 165.242379 216.425698 
L 184.501645 218.889433 
L 202.699841 223.543549 
L 219.729382 230.906948 
L 219.729382 230.906948 
L 239.796329 243.308236 
L 258.387245 258.270864 
L 272.683962 272.616357 
L 284.625275 287.77206 
L 294.11188 304.53876 
L 294.11188 304.53876 
L 302.814435 326.810649 
L 310.414741 349.549394 
L 318.365592 372.183967 
L 326.328776 394.815787 
L 333.975597 417.558442 
L 342.316476 440.017656 
L 350.440648 461.656235 
L 355.09024 477.702843 
L 357.112636 489.661309 
L 356.698175 501.943172 
L 352.996173 513.51518 
L 352.996173 513.51518 
L 346.596953 524.466431 
L 341.841653 532.365089 
L 339.81377 538.028889 
L 339.813955 542.0429 
L 342.625786 545.647375 
L 342.625786 545.647375 
L 350.219063 549.993183 
L 354.610301 554.341421 
L 355.532531 557.555391 
L 354.535938 560.021235 
L 352.401466 562.342043 
L 348.703507 565.574705 
L 348.703507 565.574705 
L 341.82503 570.266035 
L 334.74684 574.711501 
L 330.629016 578.585428 
L 328.727159 583.289996 
L 329.157453 588.808439 
L 331.460244 593.891462 
L 335.956653 598.293101 
L 335.956653 598.293101 
L 342.49702 601.244074 
L 342.49702 601.244074 
L 356.655268 604.974836 
L 356.655268 604.974836 
L 380.156835 607.847562 
L 400.219695 608.077367 
L 418.510411 609.641589 
L 435.541596 613.489624 
L 446.115148 617.271745 
L 455.238223 622.201682 
L 462.353021 628.769463 
L 466.734306 636.028465 
L 468.782114 645.012065 
L 467.440428 654.448996 
L 467.440428 654.448996 
L 462.416812 664.11817 
L 462.416812 664.11817 
L 452.109092 675.757784 
L 452.109092 675.757784 
L 434.554078 691.140814 
L 416.409052 705.964389 
L 397.241379 720 
L 397.241379 720 
" clip-path="url(#p0cf9b337dc)" style="fill: none; stroke: #000000; stroke-width: 1.5"/>
    <path d="M 536.452524 720 
L 526.266028 713.459428 
L 512.181428 705.463825 
L 499.522938 700.936036 
L 485.299865 699.520704 
L 485.299865 699.520704 
L 465.793982 702.204312 
L 443.811831 709.983505 
L 422.068966 720 
L 422.068966 720 
" clip-path="url(#p0cf9b337dc)" style="fill: none; stroke: #000000; stroke-width: 1.5"/>
    <path d="M 645.517241 720 
L 645.517241 720 
L 645.517241 720 
L 632.798607 714.003056 
L 619.679814 711.012654 
L 605.719042 709.996865 
L 589.195674 708.628495 
L 589.195674 708.628495 
L 578.831158 704.911399 
L 570.265471 697.606713 
L 563.956625 689.152314 
L 563.956625 689.152314 
L 558.035786 682.995351 
L 550.238423 678.564441 
L 541.735924 676.334443 
L 531.479022 675.816682 
L 519.234654 677.236092 
L 504.46263 679.68863 
L 504.46263 679.68863 
" clip-path="url(#p0cf9b337dc)" style="fill: none; stroke: #000000; stroke-width: 1.5"/>
    <path d="M 695.172414 720 
L 695.172414 720 
L 695.172414 720 
L 681.671229 716.498469 
L 669.820532 710.129197 
L 658.655594 702.317434 
L 658.655594 702.317434 
L 658.655594 702.317434 
L 649.88 697.983121 
L 639.145458 695.699593 
L 626.922945 693.795191 
L 626.922945 693.795191 
L 615.144824 690.046627 
L 615.144824 690.046627 
L 607.449012 684.723244 
L 603.195864 677.199076 
L 603.643734 668.836626 
L 604.113817 662.78819 
L 602.850705 659.116677 
L 599.877215 656.393912 
L 595.187631 654.712737 
L 588.120554 653.71316 
L 577.241256 653.225337 
L 563.008409 653.92373 
L 546.17595 657.025412 
" clip-path="url(#p0cf9b337dc)" style="fill: none; stroke: #000000; stroke-width: 1.5"/>
    <path d="M 720 695.172414 
L 720 695.172414 
L 708.967136 674.407705 
L 708.967136 674.407705 
L 704.849753 661.231354 
L 704.849753 661.231354 
L 703.926092 650.089289 
L 703.926092 650.089289 
L 705.647814 641.18638 
L 709.278903 632.977831 
L 715.895746 623.438883 
L 720 618.413787 
" clip-path="url(#p0cf9b337dc)" style="fill: none; stroke: #000000; stroke-width: 1.5"/>
    <path d="M 659.155577 660.150458 
L 659.155577 660.150458 
L 659.155577 660.150458 
L 659.155577 660.150458 
L 659.155577 660.150458 
L 659.155577 660.150458 
L 659.155577 660.150458 
L 659.155577 660.150458 
L 659.155577 660.150458 
L 659.155577 660.150458 
L 659.155577 660.150458 
L 659.155577 660.150458 
L 659.155577 660.150458 
L 659.155577 660.150458 
L 659.155577 660.150458 
L 659.155577 660.150458 
L 659.155577 660.150458 
L 659.155577 660.150458 
L 659.155577 660.150458 
L 659.155577 660.150458 
L 659.155577 660.150458 
L 659.155577 660.150458 
L 659.155577 660.150458 
L 659.155577 660.150458 
L 659.155577 660.150458 
L 659.155577 660.150458 
L 659.155577 660.150458 
L 659.155577 660.150458 
L 659.155577 660.150458 
L 659.155577 660.150458 
L 659.155577 660.150458 
L 659.155577 660.150458 
L 659.155577 660.150458 
L 659.155577 660.150458 
L 659.155577 660.150458 
L 659.155577 660.150458 
L 659.155577 660.150458 
L 659.155577 660.150458 
L 659.155577 660.150458 
L 659.155577 660.150458 
L 659.155577 660.150458 
L 659.155577 660.150458 
L 659.155577 660.150459 
L 659.155577 660.150462 
L 659.155575 660.150476 
L 659.155559 660.150526 
L 659.155483 660.150705 
L 659.155157 660.151337 
L 659.153838 660.153506 
L 659.148765 660.160789 
L 659.129936 660.184669 
L 659.062238 660.261016 
L 658.826269 660.498341 
L 658.031322 661.217509 
L 656.629906 661.949104 
L 655.206357 661.974447 
L 654.024881 660.97713 
L 653.32685 658.404788 
L 653.615032 653.760844 
L 655.524858 646.144801 
L 659.365016 638.356449 
L 664.969778 632.53352 
L 664.969778 632.53352 
L 672.989745 626.832499 
L 672.989745 626.832499 
L 692.688176 614.768005 
L 705.917867 607.171208 
L 720 595.862069 
L 720 595.862069 
L 720 595.862069 
" clip-path="url(#p0cf9b337dc)" style="fill: none; stroke: #000000; stroke-width: 1.5"/>
    <path d="M 416.441414 584.09247 
L 439.405031 580.102543 
L 462.854485 576.603086 
L 486.628272 574.852149 
L 504.256228 573.373288 
L 522.396254 569.50031 
L 522.396254 569.50031 
L 545.622021 564.111917 
L 568.728711 560.713579 
L 585.488453 558.815713 
L 603.621128 558.177568 
L 620.550776 560.260125 
L 620.550776 560.260125 
L 642.369699 564.10367 
L 666.182347 565.797757 
L 687.643501 566.173177 
L 703.707108 567.554327 
L 720 571.034483 
L 720 571.034483 
L 720 571.034483 
" clip-path="url(#p0cf9b337dc)" style="fill: none; stroke: #000000; stroke-width: 1.5"/>
    <path d="M 610.236403 543.476081 
L 610.236403 543.476081 
L 626.411395 545.023727 
L 626.411395 545.023727 
L 649.442193 548.94862 
L 672.51552 551.000298 
L 696.345049 549.760621 
L 720 546.206897 
L 720 546.206897 
" clip-path="url(#p0cf9b337dc)" style="fill: none; stroke: #000000; stroke-width: 1.5"/>
    <path d="M 251.561562 226.569593 
L 271.813677 239.310784 
L 290.664298 253.996448 
L 307.897006 270.546894 
L 323.819069 288.35419 
L 335.730984 302.722484 
L 349.2413 317.276964 
L 349.2413 317.276964 
L 366.066676 333.842004 
L 381.395544 351.429567 
L 388.659411 361.02907 
L 395.472359 372.840366 
L 395.472359 372.840366 
L 401.547985 386.475688 
L 407.234932 396.460798 
L 412.089276 404.694607 
L 414.270332 412.505151 
L 414.270332 412.505151 
L 414.809409 423.577454 
L 418.101745 436.717986 
L 425.26789 449.312521 
L 425.26789 449.312521 
L 437.440819 469.855427 
L 446.70445 488.054474 
L 453.23303 499.199402 
L 461.475949 508.611956 
L 461.475949 508.611956 
L 473.749429 517.253307 
L 473.749429 517.253307 
L 492.818896 526.293122 
L 515.596952 533.079933 
L 536.402033 536.244545 
L 553.580424 536.732827 
L 570.078792 534.2368 
L 570.078792 534.2368 
L 593.296351 529.887407 
L 616.869268 526.568999 
L 640.471824 524.218145 
L 664.358239 524.16881 
L 685.893413 525.184761 
L 702.820603 524.673317 
L 720 521.37931 
L 720 521.37931 
L 720 521.37931 
" clip-path="url(#p0cf9b337dc)" style="fill: none; stroke: #000000; stroke-width: 1.5"/>
    <path d="M 325.764453 260.378571 
L 344.788276 274.789202 
L 364.776441 287.656173 
L 384.973052 300.114364 
L 401.004543 310.564651 
L 415.031761 322.219945 
L 415.031761 322.219945 
L 432.354912 338.785636 
L 449.654921 355.379327 
L 467.167324 371.759218 
L 480.337302 384.860562 
L 490.543514 397.830915 
L 496.507699 408.093833 
L 500.458029 419.606489 
L 500.458029 419.606489 
L 502.255538 433.029241 
L 502.255538 433.029241 
L 502.613647 444.853906 
L 503.930755 456.042517 
L 508.161395 466.171287 
L 508.161395 466.171287 
L 519.069023 479.719884 
L 535.183508 492.280711 
L 547.499995 499.10457 
L 562.101843 503.986509 
L 562.101843 503.986509 
L 585.619238 506.720414 
L 609.466262 506.593347 
L 633.196159 504.366427 
L 656.840299 501.193696 
L 680.631792 499.306214 
L 700.452318 498.823201 
L 720 496.551724 
L 720 496.551724 
L 720 496.551724 
" clip-path="url(#p0cf9b337dc)" style="fill: none; stroke: #000000; stroke-width: 1.5"/>
    <path d="M 420.846458 293.986733 
L 420.846458 293.986733 
L 440.299756 307.803001 
L 458.606785 323.233101 
L 475.851201 339.865666 
L 492.739881 356.907742 
L 508.325199 372.54145 
L 523.824925 390.687297 
L 534.718378 406.579322 
L 548.348331 424.093445 
L 562.450555 440.727098 
L 573.985782 454.863072 
L 586.706177 466.384851 
L 597.132457 473.262762 
L 609.224602 477.846626 
L 609.224602 477.846626 
L 624.723175 479.887359 
L 624.723175 479.887359 
L 648.553224 479.507992 
L 672.340019 477.169344 
L 696.160959 474.401215 
L 720 471.724138 
L 720 471.724138 
" clip-path="url(#p0cf9b337dc)" style="fill: none; stroke: #000000; stroke-width: 1.5"/>
    <path d="M 0 93.032631 
L 19.22783 88.430081 
L 40.05461 84.205985 
L 60.715267 82.189051 
L 82.678345 83.307858 
L 105.970819 88.350096 
L 128.616401 96.09598 
L 150.404221 105.967335 
L 171.508114 117.241473 
L 193.174558 127.357274 
L 215.174529 136.883801 
L 236.489245 147.791447 
L 256.804936 160.410275 
L 275.807316 174.966598 
L 293.669965 190.952186 
L 311.277855 207.204865 
L 324.437633 219.296677 
L 338.600105 230.625282 
L 354.13222 239.250162 
L 354.13222 239.250162 
L 376.589437 247.437518 
L 399.802677 253.499724 
L 419.608574 258.447687 
L 442.120498 266.366314 
L 463.419493 277.250152 
L 483.645315 289.964909 
L 502.644218 304.443821 
L 520.443758 320.44178 
L 537.725715 337.066605 
L 555.155506 353.546275 
L 571.697756 370.869354 
L 587.4183 388.875128 
L 603.641167 406.307953 
L 620.399437 422.479011 
L 635.959354 435.233272 
L 646.323998 442.034138 
L 659.020444 447.29835 
L 672.105557 448.954296 
L 672.105557 448.954296 
L 696.065024 448.555725 
L 720 446.896552 
L 720 446.896552 
" clip-path="url(#p0cf9b337dc)" style="fill: none; stroke: #000000; stroke-width: 1.5"/>
    <path d="M 489.991082 280.738806 
L 510.086414 293.700033 
L 529.183447 308.103893 
L 547.097831 323.971418 
L 564.227034 340.776485 
L 579.441828 356.154754 
L 597.321724 371.997974 
L 616.898247 385.752084 
L 636.819171 399.032264 
L 651.758119 408.94965 
L 664.625063 416.0234 
L 678.719598 420.567321 
L 678.719598 420.567321 
L 696.021333 422.427642 
L 696.021333 422.427642 
L 720 422.068966 
L 720 422.068966 
" clip-path="url(#p0cf9b337dc)" style="fill: none; stroke: #000000; stroke-width: 1.5"/>
    <path d="M 513.217499 273.068216 
L 533.965017 285.053506 
L 553.96041 298.230661 
L 572.655864 313.156677 
L 589.94384 329.722842 
L 604.177433 344.421751 
L 622.135875 360.081909 
L 642.017203 373.389774 
L 662.399294 386.046765 
L 673.307944 392.439661 
L 684.332568 397.038371 
L 696.141934 398.774306 
L 696.141934 398.774306 
L 720 397.241379 
L 720 397.241379 
" clip-path="url(#p0cf9b337dc)" style="fill: none; stroke: #000000; stroke-width: 1.5"/>
    <path d="M 571.682645 287.373432 
L 591.192842 301.19635 
L 609.32128 316.829228 
L 626.916293 333.071587 
L 645.483124 348.188753 
L 663.125614 359.736699 
L 677.041009 366.914962 
L 690.911203 371.732428 
L 705.218868 373.67955 
L 720 372.413793 
L 720 372.413793 
L 720 372.413793 
" clip-path="url(#p0cf9b337dc)" style="fill: none; stroke: #000000; stroke-width: 1.5"/>
    <path d="M 145.173273 0 
L 150.042297 2.090233 
L 171.717142 12.330715 
L 192.75342 23.837385 
L 213.49511 35.861025 
L 234.379035 47.633263 
L 255.198921 59.457418 
L 273.338061 71.356044 
L 288.378786 83.924221 
L 301.64937 98.777639 
L 301.64937 98.777639 
L 315.723025 118.17548 
L 329.471029 137.793813 
L 340.687512 152.708688 
L 355.301029 167.44605 
L 374.938744 180.914815 
L 396.292447 191.76077 
L 418.292337 201.285871 
L 440.910864 209.14355 
L 463.884469 216.007581 
L 486.602497 223.642086 
L 509.0302 232.127847 
L 531.425533 240.731418 
L 553.886511 249.158729 
L 576.180409 257.920347 
L 597.789183 268.069201 
L 618.70353 279.688516 
L 638.848347 292.604403 
L 657.07913 304.643259 
L 678.26421 315.438989 
L 690.649255 320.903949 
L 699.977698 324.436988 
L 709.92966 325.296462 
L 720 322.758621 
L 720 322.758621 
L 720 322.758621 
" clip-path="url(#p0cf9b337dc)" style="fill: none; stroke: #000000; stroke-width: 1.5"/>
    <path d="M 644.186311 272.372373 
L 660.14558 280.239659 
L 676.097605 285.190751 
L 676.097605 285.190751 
L 699.339912 290.497764 
L 709.656409 293.219832 
L 720 297.931034 
L 720 297.931034 
L 720 297.931034 
L 720 297.931034 
" clip-path="url(#p0cf9b337dc)" style="fill: none; stroke: #000000; stroke-width: 1.5"/>
    <path d="M 550.445947 222.435265 
L 573.716583 228.185172 
L 597.141134 233.14051 
L 620.4446 238.297338 
L 643.496256 244.429061 
L 663.24941 249.398199 
L 681.896353 251.810981 
L 701.454455 251.407687 
L 720 248.275862 
L 720 248.275862 
L 720 248.275862 
" clip-path="url(#p0cf9b337dc)" style="fill: none; stroke: #000000; stroke-width: 1.5"/>
    <path d="M 608.765108 225.235553 
L 632.475564 228.452247 
L 656.149172 231.686217 
L 670.549501 233.397013 
L 683.913955 233.418029 
L 697.198023 230.557586 
L 697.198023 230.557586 
L 720 223.448276 
L 720 223.448276 
" clip-path="url(#p0cf9b337dc)" style="fill: none; stroke: #000000; stroke-width: 1.5"/>
    <path d="M 255.774357 0 
L 277.749952 5.538984 
L 299.890571 10.920332 
L 315.288009 15.300436 
L 327.852144 20.694472 
L 339.866916 29.276301 
L 349.559117 40.39422 
L 349.559117 40.39422 
L 359.523856 56.989343 
L 359.523856 56.989343 
L 369.071883 76.138894 
L 378.80215 92.908209 
L 391.558385 108.8848 
L 409.452363 124.614187 
L 429.105725 138.328243 
L 449.616745 150.719614 
L 470.752978 162.044637 
L 492.402791 172.308093 
L 514.603029 181.385431 
L 537.239236 189.246297 
L 560.42387 195.199964 
L 584.051113 199.074109 
L 607.927078 201.242458 
L 631.878777 202.095581 
L 655.824558 201.544047 
L 669.791329 200.608858 
L 685.002732 197.649044 
L 700.147024 190.727137 
L 710.525915 183.58338 
L 720 173.793103 
L 720 173.793103 
L 720 173.793103 
" clip-path="url(#p0cf9b337dc)" style="fill: none; stroke: #000000; stroke-width: 1.5"/>
    <path d="M 720 99.310345 
L 720 99.310345 
L 714.054291 76.115884 
L 714.054291 76.115884 
L 708.122288 59.928792 
L 698.957809 45.045215 
L 687.923943 33.742015 
L 675.905293 25.618772 
L 662.133412 18.965005 
L 643.690578 12.274585 
L 620.880133 5.300798 
L 602.950879 0 
" clip-path="url(#p0cf9b337dc)" style="fill: none; stroke: #000000; stroke-width: 1.5"/>
    <path d="M 388.618704 0 
L 389.315187 1.037138 
L 402.408981 21.075559 
L 413.856095 41.985622 
L 424.001883 63.628906 
L 435.166944 84.770887 
L 445.759372 101.46276 
L 458.352521 116.585093 
L 458.352521 116.585093 
L 476.169452 132.182957 
L 495.842472 145.442797 
L 515.236412 156.565502 
L 535.062313 165.652677 
L 558.006811 171.988438 
L 581.732355 175.021716 
L 605.660766 175.608474 
L 629.565891 174.048035 
L 648.025687 171.327546 
L 662.720133 167.677127 
L 675.014108 162.614936 
L 686.024049 155.181764 
L 693.499143 147.423616 
L 699.10803 137.694426 
L 701.553882 126.752944 
L 701.553882 126.752944 
L 701.050831 111.233311 
L 697.287641 96.202307 
L 697.287641 96.202307 
L 690.863929 80.55125 
L 681.337993 64.484631 
L 670.408782 51.702781 
L 657.081719 40.573773 
L 657.081719 40.573773 
L 636.376758 28.827529 
L 614.426158 19.235472 
L 592.522649 10.479286 
L 571.034483 0 
L 571.034483 0 
" clip-path="url(#p0cf9b337dc)" style="fill: none; stroke: #000000; stroke-width: 1.5"/>
    <path d="M 650.078447 66.912276 
L 650.078447 66.912276 
L 629.689761 54.66725 
L 607.79811 45.04181 
L 585.449313 36.424849 
L 563.465344 27.031061 
L 542.719455 15.758043 
L 532.2487 8.971381 
L 521.37931 0 
L 521.37931 0 
L 521.37931 0 
" clip-path="url(#p0cf9b337dc)" style="fill: none; stroke: #000000; stroke-width: 1.5"/>
    <path d="M 471.724138 0 
L 471.724138 0 
L 471.724138 0 
L 471.724138 0 
L 467.582496 3.000318 
L 465.114696 5.665862 
L 462.575088 9.994855 
L 460.131357 16.479386 
L 457.674221 27.096496 
L 457.674221 27.096496 
L 457.719266 36.588916 
L 459.611586 47.783945 
L 464.147107 61.430906 
L 471.371078 74.529978 
L 481.33891 88.564353 
L 481.33891 88.564353 
L 489.619875 98.009122 
L 489.619875 98.009122 
L 499.678821 105.077051 
L 509.446574 110.375867 
L 529.462028 122.644797 
L 548.824961 135.96227 
L 548.824961 135.96227 
L 563.478607 144.075936 
L 577.945848 148.986934 
L 577.945848 148.986934 
L 593.253867 151.71081 
L 608.571801 151.127924 
L 622.279657 147.003585 
L 633.013849 140.129063 
L 641.423795 130.425565 
L 645.545572 119.277916 
L 645.695931 108.986658 
L 642.738548 99.551555 
L 637.263281 90.749583 
L 628.833769 82.23679 
L 618.398974 75.58297 
L 606.730776 69.731934 
" clip-path="url(#p0cf9b337dc)" style="fill: none; stroke: #000000; stroke-width: 1.5"/>
    <path d="M 347.586207 0 
L 347.586207 0 
L 347.586207 0 
L 356.527348 6.103388 
L 363.152604 13.788201 
L 368.798064 24.542268 
L 373.28905 36.045911 
L 383.242971 57.696366 
L 395.71621 76.399326 
" clip-path="url(#p0cf9b337dc)" style="fill: none; stroke: #000000; stroke-width: 1.5"/>
    <path d="M 223.448276 0 
L 223.448276 0 
L 244.516115 11.48092 
L 266.393221 20.951359 
L 287.298298 27.561508 
L 287.298298 27.561508 
L 304.795554 34.125187 
L 304.795554 34.125187 
L 317.585037 41.967303 
L 328.460476 52.36652 
L 337.786111 64.860505 
L 346.940183 80.859361 
L 357.705699 101.31889 
L 357.705699 101.31889 
L 368.303168 117.545561 
L 381.742956 132.02913 
L 396.378746 144.222442 
" clip-path="url(#p0cf9b337dc)" style="fill: none; stroke: #000000; stroke-width: 1.5"/>
    <path d="M 74.482759 0 
L 74.482759 0 
L 97.814626 5.222115 
L 121.04724 10.572546 
L 144.067633 16.869795 
L 166.315049 25.474891 
" clip-path="url(#p0cf9b337dc)" style="fill: none; stroke: #000000; stroke-width: 1.5"/>
    <path d="M 0 24.827586 
L 0 24.827586 
L 23.703635 22.004743 
L 47.466594 20.547933 
L 71.317352 20.100108 
L 95.166189 20.608927 
L 118.949661 22.624831 
" clip-path="url(#p0cf9b337dc)" style="fill: none; stroke: #000000; stroke-width: 1.5"/>
    <path d="M 0 74.482759 
L 0 74.482759 
L 22.270119 65.589546 
L 45.146112 58.507141 
L 45.146112 58.507141 
L 64.220295 55.192316 
L 83.814874 55.122934 
L 103.042665 57.909889 
L 124.575103 64.290677 
L 144.074623 72.849444 
L 164.73418 84.838311 
L 183.990698 97.94915 
L 204.589022 109.970965 
L 223.949351 120.026354 
L 244.701147 132.018419 
L 264.403341 145.617457 
L 283.033135 160.693513 
L 300.985164 176.609937 
" clip-path="url(#p0cf9b337dc)" style="fill: none; stroke: #000000; stroke-width: 1.5"/>
    <path d="M 0 124.137931 
L 0 124.137931 
L 23.511314 119.90666 
L 43.946992 117.987426 
L 67.791299 115.761122 
L 67.791299 115.761122 
L 85.331173 115.658273 
L 103.607934 118.806052 
L 119.905815 123.765914 
L 142.457003 131.918827 
L 164.527197 141.295448 
L 186.336094 151.268439 
L 208.128049 161.292575 
L 229.785845 171.602516 
L 250.968754 182.769547 
L 271.118828 195.642808 
" clip-path="url(#p0cf9b337dc)" style="fill: none; stroke: #000000; stroke-width: 1.5"/>
    <path d="M 0 173.793103 
L 0 173.793103 
L 0 173.793103 
L 16.706006 169.603953 
L 32.148412 163.498585 
L 54.12111 154.463984 
L 76.875951 147.676433 
L 97.758079 144.913697 
L 97.758079 144.913697 
L 111.6973 145.358981 
L 125.332418 148.515824 
L 139.553943 153.385152 
" clip-path="url(#p0cf9b337dc)" style="fill: none; stroke: #000000; stroke-width: 1.5"/>
    <path d="M 0 223.448276 
L 0 223.448276 
L 22.64262 231.356524 
L 45.480822 238.376952 
L 68.90963 243.153808 
L 92.445181 247.73399 
L 115.941565 252.587916 
L 139.590078 256.481576 
L 163.394441 259.381922 
L 186.735232 264.044937 
L 186.735232 264.044937 
L 202.397209 270.17994 
L 216.691085 279.14747 
L 228.865742 290.178789 
L 240.576743 304.108626 
L 252.552575 322.864752 
L 261.721635 342.558179 
L 269.55687 364.723305 
L 276.847884 387.578299 
L 285.058072 409.946942 
L 294.167701 431.80492 
L 302.902889 452.661505 
L 302.902889 452.661505 
L 305.992577 464.058478 
L 304.512297 474.347844 
L 299.49315 483.362068 
L 291.366242 493.254561 
L 278.458829 504.680477 
L 265.406109 513.666763 
L 265.406109 513.666763 
L 265.406109 513.666763 
L 257.605268 521.906666 
L 250.806427 530.23856 
L 243.357342 535.507372 
L 235.724588 538.590082 
L 225.737192 540.999894 
L 212.062698 545.436527 
L 200.539268 551.917064 
L 200.539268 551.917064 
L 192.509719 554.646818 
L 183.814183 555.487646 
L 171.120333 555.136709 
L 171.120333 555.136709 
L 155.467217 553.722418 
L 141.281803 552.745164 
L 141.281803 552.745164 
L 123.883533 553.914108 
L 123.883533 553.914108 
L 115.433775 556.171751 
L 109.685098 559.118006 
L 107.16094 561.584213 
L 106.558792 563.635352 
L 107.370102 565.583615 
L 109.608098 567.934964 
" clip-path="url(#p0cf9b337dc)" style="fill: none; stroke: #000000; stroke-width: 1.5"/>
    <path d="M 0 248.275862 
L 0 248.275862 
L 21.160042 259.504393 
L 42.744558 269.489345 
L 65.587233 276.111525 
L 87.731502 280.961148 
L 110.891253 286.585431 
L 134.302441 290.884234 
L 157.841448 295.012709 
L 157.841448 295.012709 
L 176.920763 300.871068 
L 176.920763 300.871068 
L 191.83167 308.262804 
L 205.014403 318.2522 
L 216.30362 330.186328 
L 227.160191 345.528651 
L 235.987348 363.205832 
L 243.316815 381.01531 
L 243.316815 381.01531 
L 251.435754 396.366914 
" clip-path="url(#p0cf9b337dc)" style="fill: none; stroke: #000000; stroke-width: 1.5"/>
    <path d="M 0 273.103448 
L 0 273.103448 
L 19.206429 287.470808 
L 38.878922 300.84546 
L 38.878922 300.84546 
L 54.823987 308.256314 
L 70.896707 312.984579 
L 92.630995 318.330614 
L 116.078328 323.063681 
L 139.671009 326.495979 
L 139.671009 326.495979 
L 158.222645 330.443434 
L 176.007518 338.035568 
L 191.270365 347.851079 
L 191.270365 347.851079 
L 200.623777 356.621144 
L 207.456739 367.647585 
L 211.88958 378.959473 
L 211.88958 378.959473 
L 216.387135 388.573383 
L 216.387135 388.573383 
L 222.391392 396.115472 
L 229.960054 402.341962 
" clip-path="url(#p0cf9b337dc)" style="fill: none; stroke: #000000; stroke-width: 1.5"/>
    <path d="M 0 297.931034 
L 0 297.931034 
L 18.200187 313.520458 
L 36.415579 328.359383 
L 36.415579 328.359383 
L 48.791717 334.356052 
L 60.949123 337.561417 
L 84.295192 343.051109 
L 107.69371 347.963307 
L 130.608442 353.065336 
L 130.608442 353.065336 
L 142.453626 358.112755 
L 151.783979 365.417704 
L 160.60131 375.693965 
L 169.04049 389.259799 
L 169.04049 389.259799 
L 173.884346 399.692883 
L 173.884346 399.692883 
L 176.646502 404.252484 
L 180.59194 406.991915 
L 187.229009 409.332675 
L 196.261918 410.4799 
L 207.87492 411.588588 
L 226.820868 414.626011 
L 248.799369 420.664649 
L 248.799369 420.664649 
L 258.823831 424.858122 
" clip-path="url(#p0cf9b337dc)" style="fill: none; stroke: #000000; stroke-width: 1.5"/>
    <path d="M 0 322.758621 
L 0 322.758621 
L 16.124684 340.497757 
L 32.7378 357.299625 
L 51.027211 372.182972 
L 51.027211 372.182972 
L 62.895693 378.748708 
L 75.166316 381.793922 
L 88.525697 383.821532 
L 88.525697 383.821532 
L 105.280769 388.414822 
L 121.595746 396.857783 
L 134.813806 404.900419 
L 151.575825 412.177616 
L 151.575825 412.177616 
L 164.226939 415.456488 
L 177.020753 416.978326 
L 177.020753 416.978326 
" clip-path="url(#p0cf9b337dc)" style="fill: none; stroke: #000000; stroke-width: 1.5"/>
    <path d="M 0 347.586207 
L 0 347.586207 
L 16.856254 364.590055 
L 35.094622 379.941208 
L 55.038251 392.245323 
L 73.471513 400.792814 
L 94.646494 411.132417 
L 94.646494 411.132417 
L 104.785972 416.839196 
L 104.785972 416.839196 
L 112.164472 419.668932 
L 112.164472 419.668932 
L 119.710302 420.16428 
L 127.731446 419.282891 
" clip-path="url(#p0cf9b337dc)" style="fill: none; stroke: #000000; stroke-width: 1.5"/>
    <path d="M 0 397.241379 
L 0 397.241379 
L 0 397.241379 
L 0 397.241379 
L 6.367664 397.478772 
L 11.866298 399.241981 
L 21.862413 404.25689 
L 33.736648 413.604387 
L 33.736648 413.604387 
L 40.242315 423.343007 
L 44.78005 433.143853 
L 44.78005 433.143853 
L 49.034443 441.548223 
L 49.034443 441.548223 
L 52.251779 447.375822 
L 52.251779 447.375822 
L 53.411968 451.289534 
L 52.904865 453.819857 
L 50.804525 456.611748 
L 46.223673 459.389012 
L 39.050977 460.828124 
L 29.48245 460.619469 
L 17.526617 458.019088 
L 5.50783 451.96156 
L 0 448.033737 
" clip-path="url(#p0cf9b337dc)" style="fill: none; stroke: #000000; stroke-width: 1.5"/>
    <path d="M 250.349721 506.460916 
L 250.349721 506.460916 
L 239.718519 506.29938 
L 229.485802 507.875486 
L 229.485802 507.875486 
L 213.360493 513.275917 
L 196.100727 521.302595 
L 196.100727 521.302595 
L 185.142404 527.232731 
L 173.693161 531.049815 
L 173.693161 531.049815 
L 160.399826 531.844668 
L 160.399826 531.844668 
L 141.761741 530.419878 
L 124.930358 527.101447 
L 108.751657 521.653231 
L 108.751657 521.653231 
L 98.675327 517.154832 
L 89.293301 513.978471 
L 78.96096 513.361071 
L 78.96096 513.361071 
L 68.41533 514.791912 
L 57.781216 515.115012 
L 57.781216 515.115012 
L 57.781216 515.115012 
L 37.646169 511.787107 
L 26.597682 509.878874 
L 16.990536 507.812944 
L 7.654673 503.238023 
L 0 496.551724 
L 0 496.551724 
L 0 496.551724 
" clip-path="url(#p0cf9b337dc)" style="fill: none; stroke: #000000; stroke-width: 1.5"/>
    <path d="M 0 595.862069 
L 0 595.862069 
L 0 595.862069 
L 13.034908 583.7575 
L 25.7654 575.564433 
L 25.7654 575.564433 
L 36.971752 569.771022 
L 36.971752 569.771022 
L 46.698518 567.475453 
L 57.167267 567.354086 
L 76.925286 566.896351 
L 76.925286 566.896351 
L 86.65492 566.331437 
" clip-path="url(#p0cf9b337dc)" style="fill: none; stroke: #000000; stroke-width: 1.5"/>
    <path d="M 0 620.689655 
L 0 620.689655 
L 22.805687 613.575313 
L 45.380541 606.015281 
L 67.724833 597.932127 
L 90.185991 589.876153 
L 90.185991 589.876153 
L 104.985903 585.49617 
L 104.985903 585.49617 
L 114.404417 583.741202 
L 123.381182 583.463297 
L 132.73794 584.260711 
L 132.73794 584.260711 
" clip-path="url(#p0cf9b337dc)" style="fill: none; stroke: #000000; stroke-width: 1.5"/>
    <path d="M 0 645.517241 
L 0 645.517241 
L 0 645.517241 
L 18.298929 642.7329 
L 35.439213 642.289229 
L 35.439213 642.289229 
L 51.381491 640.553817 
L 51.381491 640.553817 
L 61.983085 637.020067 
L 71.326841 630.540482 
L 79.556913 622.518188 
L 79.556913 622.518188 
L 90.474635 613.41234 
" clip-path="url(#p0cf9b337dc)" style="fill: none; stroke: #000000; stroke-width: 1.5"/>
    <path d="M 104.629923 720 
L 92.816751 715.730895 
L 70.922691 706.19809 
L 49.655172 695.172414 
L 49.655172 695.172414 
L 38.829362 688.916197 
L 38.829362 688.916197 
" clip-path="url(#p0cf9b337dc)" style="fill: none; stroke: #000000; stroke-width: 1.5"/>
    <path d="M 207.074115 697.056765 
L 184.001709 702.876343 
L 160.25735 705.018771 
L 142.318864 704.82685 
L 121.977393 702.10065 
L 99.310345 695.172414 
L 99.310345 695.172414 
" clip-path="url(#p0cf9b337dc)" style="fill: none; stroke: #000000; stroke-width: 1.5"/>
    <path d="M 682.865187 180.702504 
L 695.172414 173.793103 
L 695.172414 173.793103 
L 695.172414 173.793103 
L 704.539856 165.593636 
L 704.539856 165.593636 
L 710.962569 156.557417 
L 714.765841 145.92149 
L 716.633039 135.040458 
L 717.504169 117.808513 
L 717.504169 117.808513 
" clip-path="url(#p0cf9b337dc)" style="fill: none; stroke: #000000; stroke-width: 1.5"/>
    <path d="M 578.654227 54.54583 
L 563.811076 50.419282 
L 549.44355 44.687997 
L 549.44355 44.687997 
L 539.226143 39.930464 
L 528.494359 37.17 
L 528.494359 37.17 
L 519.176855 36.933435 
L 510.255932 35.8188 
L 502.847765 31.922716 
L 496.551724 24.827586 
L 496.551724 24.827586 
L 496.551724 24.827586 
L 488.372755 12.270889 
L 480.064816 0 
" clip-path="url(#p0cf9b337dc)" style="fill: none; stroke: #000000; stroke-width: 1.5"/>
    <path d="M 18.652944 679.524951 
L 18.382809 676.452689 
L 20.102988 673.642274 
L 24.827586 670.344828 
L 24.827586 670.344828 
L 24.827586 670.344828 
L 38.56877 663.564381 
L 49.05112 658.948768 
L 65.977488 650.170388 
L 82.417113 638.973353 
" clip-path="url(#p0cf9b337dc)" style="fill: none; stroke: #000000; stroke-width: 1.5"/>
    <path d="M 106.700896 678.124714 
L 99.310345 670.344828 
L 99.310345 670.344828 
L 99.310345 670.344828 
L 97.13842 664.212556 
L 97.795691 659.475655 
L 100.828925 654.238196 
L 106.630325 648.641504 
L 115.086342 642.132424 
L 130.734068 630.288526 
L 130.734068 630.288526 
L 142.288199 622.905813 
L 157.012042 617.463455 
L 171.229501 614.592348 
L 188.353085 613.231192 
L 207.319766 613.140223 
" clip-path="url(#p0cf9b337dc)" style="fill: none; stroke: #000000; stroke-width: 1.5"/>
    <path d="M 160.03611 664.741443 
L 157.697341 665.540716 
L 155.28786 666.737273 
L 152.86053 668.102494 
L 148.965517 670.344828 
L 148.965517 670.344828 
L 148.965517 670.344828 
L 148.965517 670.344828 
L 148.965517 670.344828 
L 142.022391 672.593212 
L 135.257626 672.553584 
L 126.282395 669.960993 
L 126.282395 669.960993 
L 121.428135 666.168893 
L 119.818273 661.871377 
" clip-path="url(#p0cf9b337dc)" style="fill: none; stroke: #000000; stroke-width: 1.5"/>
    <path d="M 189.844539 658.615495 
L 194.170108 658.525708 
L 197.405591 659.266162 
L 199.49126 660.758715 
L 200.367404 663.020785 
L 200.166581 665.74135 
L 198.62069 670.344828 
L 198.62069 670.344828 
L 198.62069 670.344828 
L 198.62069 670.344828 
L 194.429173 675.880931 
L 188.994129 679.509075 
" clip-path="url(#p0cf9b337dc)" style="fill: none; stroke: #000000; stroke-width: 1.5"/>
    <path d="M 637.444824 158.005217 
L 650.068595 152.260905 
L 658.880124 146.307492 
L 665.24465 139.819722 
L 669.051061 132.653734 
L 670.344828 124.137931 
L 670.344828 124.137931 
L 670.344828 124.137931 
L 668.640255 107.857926 
L 668.640255 107.857926 
L 664.485182 94.36625 
" clip-path="url(#p0cf9b337dc)" style="fill: none; stroke: #000000; stroke-width: 1.5"/>
    <path d="M 198.62069 49.655172 
L 218.382245 63.240297 
L 238.29306 76.602795 
L 257.159238 91.352322 
L 274.884177 107.484726 
L 291.593143 124.652488 
L 307.718186 142.342725 
" clip-path="url(#p0cf9b337dc)" style="fill: none; stroke: #000000; stroke-width: 1.5"/>
    <path d="M 114.429999 38.6958 
L 132.064458 42.844927 
L 148.965517 49.655172 
L 148.965517 49.655172 
L 169.609973 61.754886 
L 189.309339 75.389485 
" clip-path="url(#p0cf9b337dc)" style="fill: none; stroke: #000000; stroke-width: 1.5"/>
    <path d="M 450.306713 600.906219 
L 472.190431 602.638999 
L 489.59145 603.845257 
L 497.112875 604.482162 
L 505.510271 606.102777 
L 514.488673 611.141378 
L 521.544612 617.835056 
L 526.156471 624.892406 
L 527.885421 632.101181 
L 526.435122 638.758245 
L 521.37931 645.517241 
L 521.37931 645.517241 
L 521.37931 645.517241 
L 509.270146 654.890294 
" clip-path="url(#p0cf9b337dc)" style="fill: none; stroke: #000000; stroke-width: 1.5"/>
    <path d="M 556.334374 583.797568 
L 556.334374 583.797568 
L 578.530872 590.748867 
L 594.7366 596.728123 
L 612.550225 601.035915 
L 624.475963 602.455692 
L 633.263036 603.873994 
L 639.496612 606.229409 
L 643.620238 609.427435 
L 645.755636 613.42894 
L 646.187091 616.651182 
L 645.517241 620.689655 
L 645.517241 620.689655 
L 645.517241 620.689655 
L 645.517241 620.689655 
L 645.517241 620.689655 
L 644.109256 623.59289 
L 642.982215 625.150985 
L 641.349291 626.403875 
L 638.905 627.24247 
L 634.345149 627.933995 
L 634.345149 627.933995 
L 627.15744 629.021709 
L 627.15744 629.021709 
L 627.15744 629.021709 
L 620.369017 630.434568 
L 611.405492 633.056295 
" clip-path="url(#p0cf9b337dc)" style="fill: none; stroke: #000000; stroke-width: 1.5"/>
    <path d="M 527.242087 55.03672 
L 512.875075 55.852677 
L 503.106029 56.404975 
L 503.106029 56.404975 
L 497.822148 56.259001 
L 493.595184 56.173753 
L 491.034231 58.188806 
L 490.865422 62.41799 
L 492.551408 67.312807 
L 496.551724 74.482759 
L 496.551724 74.482759 
L 496.551724 74.482759 
" clip-path="url(#p0cf9b337dc)" style="fill: none; stroke: #000000; stroke-width: 1.5"/>
    <path d="M 47.035736 181.055106 
L 60.520326 177.33657 
L 66.970684 175.021931 
L 74.482759 173.793103 
L 74.482759 173.793103 
L 74.482759 173.793103 
L 74.482759 173.793103 
L 87.851495 176.257622 
L 99.48107 180.08313 
L 99.48107 180.08313 
L 117.583054 184.700254 
L 135.234856 187.186013 
L 159.083036 189.313951 
L 182.739576 191.665145 
L 205.918939 196.462867 
L 226.138727 203.424757 
" clip-path="url(#p0cf9b337dc)" style="fill: none; stroke: #000000; stroke-width: 1.5"/>
    <path d="M 491.30738 311.805877 
L 508.333232 328.6487 
L 525.400076 345.500869 
L 543.042701 361.766154 
L 558.178994 376.735338 
L 572.132181 394.314702 
L 586.632459 413.293859 
L 602.996456 430.763008 
L 620.689655 446.896552 
L 620.689655 446.896552 
L 631.45715 453.540048 
" clip-path="url(#p0cf9b337dc)" style="fill: none; stroke: #000000; stroke-width: 1.5"/>
    <path d="M 561.067919 131.276924 
L 571.713558 134.301641 
L 571.713558 134.301641 
L 583.373695 135.111058 
L 592.358499 134.099977 
L 599.106611 131.734234 
L 604.557297 127.394665 
L 607.775657 120.308527 
L 607.15555 112.366169 
L 603.17102 105.33806 
L 595.862069 99.310345 
L 595.862069 99.310345 
L 595.862069 99.310345 
L 585.25629 94.616744 
L 573.988168 93.517662 
L 563.829661 95.527141 
L 551.381097 101.219826 
L 551.381097 101.219826 
L 550.110999 105.070769 
L 551.079342 108.686447 
" clip-path="url(#p0cf9b337dc)" style="fill: none; stroke: #000000; stroke-width: 1.5"/>
    <path d="M 126.891603 506.559366 
L 126.891603 506.559366 
L 117.334995 492.819933 
L 109.163419 478.229187 
L 109.163419 478.229187 
L 102.399209 462.023199 
L 100.115283 454.909086 
L 99.310345 446.896552 
L 99.310345 446.896552 
L 99.310345 446.896552 
L 99.310345 446.896552 
L 99.310345 446.896552 
L 100.619602 442.678827 
L 102.753322 439.799349 
L 106.999875 436.379918 
" clip-path="url(#p0cf9b337dc)" style="fill: none; stroke: #000000; stroke-width: 1.5"/>
    <path d="M 331.63709 505.352298 
L 331.63709 505.352298 
L 320.995457 520.614032 
L 313.188169 531.252614 
L 309.420979 538.038894 
L 307.495558 546.075728 
L 307.495558 546.075728 
L 306.125933 556.404959 
L 302.329696 564.392265 
L 297.815516 569.729336 
L 293.315606 572.396334 
L 293.315606 572.396334 
L 293.315606 572.396334 
L 288.331267 574.607592 
L 288.331267 574.607592 
L 282.395746 576.813722 
L 278.026187 577.707941 
L 273.810613 578.0142 
L 273.810613 578.0142 
L 267.152246 577.216283 
L 262.313607 576.019543 
L 257.938582 575.393054 
L 253.364925 575.908041 
L 248.655611 578.546115 
L 245.930526 583.564107 
L 246.27523 589.346813 
L 248.275862 595.862069 
L 248.275862 595.862069 
L 248.275862 595.862069 
L 248.275862 595.862069 
L 251.932168 601.631627 
L 256.213059 605.790466 
" clip-path="url(#p0cf9b337dc)" style="fill: none; stroke: #000000; stroke-width: 1.5"/>
    <path d="M 229.234529 567.792555 
L 219.806185 571.650515 
L 219.806185 571.650515 
L 219.806185 571.650515 
L 214.234152 574.473609 
L 211.29056 575.517959 
L 209.297785 576.07652 
L 207.774004 576.400561 
L 206.489965 576.528662 
L 205.198934 576.337606 
L 203.587617 575.828476 
L 201.444988 574.95855 
L 197.209154 573.314538 
L 186.673786 570.746889 
L 186.673786 570.746889 
L 173.793103 571.034483 
L 173.793103 571.034483 
L 173.793103 571.034483 
L 167.72108 572.355806 
L 163.586101 574.813552 
L 162.192815 577.457331 
L 162.668994 580.356698 
" clip-path="url(#p0cf9b337dc)" style="fill: none; stroke: #000000; stroke-width: 1.5"/>
    <path d="M 363.109802 582.07896 
L 367.277991 580.749811 
L 370.241376 578.399053 
L 371.851011 575.531569 
L 372.413793 571.034483 
L 372.413793 571.034483 
L 372.413793 571.034483 
L 372.413793 571.034483 
L 372.305175 565.652203 
L 373.317568 561.453998 
L 375.853506 558.252151 
L 380.244359 555.848503 
L 387.352982 553.773615 
L 398.197477 551.619049 
L 412.991669 551.215119 
L 426.805958 551.941475 
L 450.20775 552.666375 
L 473.94404 553.672258 
L 497.478521 556.710267 
L 497.478521 556.710267 
L 511.771704 557.669546 
L 526.260232 556.515961 
" clip-path="url(#p0cf9b337dc)" style="fill: none; stroke: #000000; stroke-width: 1.5"/>
    <path d="M 493.886978 490.915502 
L 505.469374 500.686928 
L 505.469374 500.686928 
L 520.839094 508.947651 
L 520.839094 508.947651 
L 539.686391 516.077561 
L 554.996438 520.052476 
L 571.034483 521.37931 
L 571.034483 521.37931 
" clip-path="url(#p0cf9b337dc)" style="fill: none; stroke: #000000; stroke-width: 1.5"/>
    <path d="M 351.543251 124.528866 
L 360.854773 137.574693 
L 372.413793 148.965517 
L 372.413793 148.965517 
L 391.833014 162.953847 
L 412.524081 174.996481 
L 434.195743 185.159252 
" clip-path="url(#p0cf9b337dc)" style="fill: none; stroke: #000000; stroke-width: 1.5"/>
    <path d="M 228.345586 483.586318 
L 228.345586 483.586318 
L 214.089148 480.596119 
L 199.049387 477.895487 
L 183.487108 477.056376 
L 183.487108 477.056376 
L 169.520347 477.94125 
L 160.01974 478.172149 
L 153.9401 477.157185 
L 150.716853 475.563597 
L 148.965517 471.724138 
L 148.965517 471.724138 
L 148.965517 471.724138 
L 148.965517 471.724138 
L 148.965517 471.724138 
L 150.166877 465.98042 
L 151.969988 462.15866 
L 156.383423 455.413128 
L 156.383423 455.413128 
L 162.052324 448.753972 
L 170.846708 441.869864 
L 170.846708 441.869864 
L 176.121399 438.46871 
L 179.499869 436.249392 
" clip-path="url(#p0cf9b337dc)" style="fill: none; stroke: #000000; stroke-width: 1.5"/>
    <path d="M 198.969829 492.109598 
L 176.6978 494.924177 
L 163.489636 496.837646 
L 148.965517 496.551724 
L 148.965517 496.551724 
L 148.965517 496.551724 
L 141.715363 494.142011 
L 136.715643 489.70511 
L 134.119949 483.774388 
L 133.819032 476.4479 
L 135.982355 467.880481 
" clip-path="url(#p0cf9b337dc)" style="fill: none; stroke: #000000; stroke-width: 1.5"/>
    <path d="M 515.157181 412.891733 
L 523.107216 430.830019 
L 527.133208 443.632109 
L 530.744076 454.236733 
L 537.183839 464.053832 
L 546.206897 471.724138 
L 546.206897 471.724138 
L 546.206897 471.724138 
L 562.289633 480.82685 
L 562.289633 480.82685 
" clip-path="url(#p0cf9b337dc)" style="fill: none; stroke: #000000; stroke-width: 1.5"/>
    <path d="M 322.758621 173.793103 
L 341.237699 189.049543 
L 361.254996 202.09917 
L 382.317553 212.107752 
L 404.358751 219.889754 
L 427.322526 226.802046 
L 450.156877 234.024745 
L 472.54394 242.484173 
L 494.692055 251.649561 
" clip-path="url(#p0cf9b337dc)" style="fill: none; stroke: #000000; stroke-width: 1.5"/>
    <path d="M 341.621613 386.74072 
L 348.585603 409.700005 
L 356.289958 432.394657 
L 365.194355 454.628858 
L 372.288089 473.948099 
L 375.631168 487.050313 
L 376.871343 499.22038 
L 375.789905 510.597425 
L 372.413793 521.37931 
L 372.413793 521.37931 
L 372.413793 521.37931 
L 369.510111 529.076748 
L 369.510111 529.076748 
" clip-path="url(#p0cf9b337dc)" style="fill: none; stroke: #000000; stroke-width: 1.5"/>
    <path d="M 387.642457 462.679343 
L 394.507616 482.09702 
L 399.663711 496.453026 
L 405.173099 506.900354 
L 412.324671 515.247714 
L 422.068966 521.37931 
L 422.068966 521.37931 
L 443.952992 530.81729 
L 443.952992 530.81729 
" clip-path="url(#p0cf9b337dc)" style="fill: none; stroke: #000000; stroke-width: 1.5"/>
    <path d="M 214.775963 443.09224 
L 214.775963 443.09224 
L 214.775963 443.09224 
L 214.775963 443.09224 
L 214.775963 443.09224 
L 214.775963 443.09224 
L 214.775963 443.09224 
L 214.775963 443.09224 
L 214.775963 443.09224 
L 214.775963 443.09224 
L 214.775963 443.09224 
L 214.775963 443.09224 
L 214.775963 443.09224 
L 214.775963 443.09224 
L 214.775963 443.09224 
L 214.775963 443.09224 
L 214.775963 443.09224 
L 214.775963 443.09224 
L 214.775963 443.09224 
L 214.775963 443.09224 
L 214.775963 443.09224 
L 214.775963 443.09224 
L 214.775963 443.09224 
L 214.775963 443.09224 
L 214.775963 443.09224 
L 214.775963 443.09224 
L 214.775963 443.09224 
L 214.775963 443.09224 
L 214.775963 443.09224 
L 214.775963 443.09224 
L 214.775963 443.09224 
L 214.775963 443.09224 
L 214.775963 443.09224 
L 214.775963 443.09224 
L 214.775963 443.09224 
L 214.775963 443.09224 
L 214.775963 443.09224 
L 214.775964 443.092241 
L 214.775965 443.092243 
L 214.775968 443.092246 
L 214.775975 443.092254 
L 214.775991 443.092271 
L 214.776028 443.09231 
L 214.77611 443.092399 
L 214.776296 443.092598 
L 214.776719 443.093048 
L 214.77768 443.094063 
L 214.779862 443.096354 
L 214.784823 443.101525 
L 214.796124 443.113206 
L 214.821979 443.139645 
L 214.881728 443.19972 
L 215.022801 443.337431 
L 215.370973 443.659004 
L 216.29986 444.43515 
L 216.899244 445.315101 
L 217.822137 446.968028 
L 217.822137 446.968028 
L 218.40159 448.847218 
L 218.472796 449.556383 
L 218.110984 449.798272 
L 217.157369 449.803234 
L 215.254257 449.600598 
L 211.745627 449.108078 
L 205.196853 448.057214 
L 198.62069 446.896552 
L 198.62069 446.896552 
L 198.62069 446.896552 
L 191.704409 445.368861 
L 191.704409 445.368861 
" clip-path="url(#p0cf9b337dc)" style="fill: none; stroke: #000000; stroke-width: 1.5"/>
    <path d="M 373.081716 382.388505 
L 380.309444 405.255756 
L 387.445034 423.997621 
L 396.914574 441.74377 
L 396.914574 441.74377 
L 406.211006 457.645079 
L 413.551929 474.145359 
L 413.551929 474.145359 
L 422.068966 496.551724 
L 422.068966 496.551724 
L 427.338171 505.730641 
" clip-path="url(#p0cf9b337dc)" style="fill: none; stroke: #000000; stroke-width: 1.5"/>
    <path d="M 238.747539 445.247047 
L 248.58461 453.942988 
L 255.207916 463.611389 
L 257.773771 469.583823 
L 258.300779 475.25786 
L 258.300779 475.25786 
L 255.397913 478.718298 
L 255.397913 478.718298 
L 248.951274 478.615187 
L 248.951274 478.615187 
L 244.089489 476.482162 
L 240.51996 473.342199 
L 240.819174 469.502662 
L 242.901115 468.782025 
L 244.6946 469.302607 
L 248.275862 471.724138 
L 248.275862 471.724138 
L 249.936562 473.993067 
L 249.739941 474.962293 
L 248.305902 475.6194 
L 245.979252 475.041658 
L 242.92272 472.163189 
L 242.92272 472.163189 
L 244.540723 470.912288 
L 244.540723 470.912288 
L 247.595163 472.199337 
L 247.595163 472.199337 
L 248.973802 474.307241 
L 248.380812 475.08917 
L 246.588795 474.981066 
L 243.95462 473.229959 
L 243.95462 473.229959 
L 244.640797 470.951452 
L 244.640797 470.951452 
L 247.797514 472.352122 
L 249.019362 474.716704 
L 248.123261 475.226659 
L 245.995316 474.797363 
L 243.409513 472.30444 
L 243.409513 472.30444 
L 245.197657 471.311745 
L 245.197657 471.311745 
L 248.913805 473.383289 
L 248.922682 474.969896 
L 247.64694 475.25759 
L 245.247584 474.425751 
L 243.396044 470.943077 
L 243.396044 470.943077 
L 246.084467 471.2669 
L 249.026805 474.205392 
L 247.953707 475.267468 
L 245.972251 474.788264 
L 243.318856 472.120323 
L 245.252319 471.305084 
L 245.252319 471.305084 
L 248.958785 473.433045 
L 248.910491 474.996068 
L 247.594372 475.260192 
L 245.165526 474.38078 
L 243.445116 470.78303 
L 243.445116 470.78303 
L 246.215806 471.26174 
L 249.023586 474.241255 
L 247.989769 475.248054 
L 246.020553 474.799032 
L 243.366109 472.219261 
L 243.366109 472.219261 
L 245.224434 471.31084 
L 245.224434 471.31084 
L 248.938183 473.411674 
L 248.914912 474.984197 
L 247.616538 475.258597 
L 245.200627 474.399749 
L 243.423614 470.851713 
L 243.423614 470.851713 
L 246.159592 471.264172 
L 249.022561 474.225651 
L 247.97057 475.255565 
L 245.995313 474.791702 
L 243.344881 472.169371 
L 243.344881 472.169371 
L 245.243525 471.311495 
L 245.243525 471.311495 
L 248.962679 473.439006 
L 248.908751 474.997703 
L 247.58903 475.259885 
L 245.157928 474.37615 
L 243.451311 470.768166 
L 243.451311 470.768166 
L 246.229783 471.262334 
L 249.023826 474.245298 
L 247.994846 475.246128 
L 246.027193 474.801008 
L 243.371702 472.232301 
L 243.371702 472.232301 
L 245.219268 471.310368 
L 245.219268 471.310368 
L 248.93145 473.403961 
L 248.916808 474.980455 
L 247.624426 475.258299 
L 245.212805 474.406491 
L 243.416165 470.875474 
L 243.416165 470.875474 
L 246.139873 471.264797 
L 249.023105 474.220251 
L 247.965098 475.258537 
L 245.987957 474.790073 
L 243.337703 472.154288 
L 243.337703 472.154288 
L 245.247736 471.310537 
L 245.247736 471.310537 
L 248.965758 473.442144 
L 248.908147 474.999475 
L 247.585805 475.260139 
L 245.152798 474.373377 
L 243.454659 470.758105 
L 243.454659 470.758105 
L 246.238136 471.262028 
L 249.024354 474.247666 
L 247.998195 475.245164 
L 246.03151 474.802472 
L 243.374969 472.240598 
L 243.374969 472.240598 
L 245.215432 471.309702 
L 245.215432 471.309702 
L 248.925605 473.397268 
L 248.918423 474.977268 
L 247.631185 475.258041 
L 245.223225 474.412246 
L 243.409996 470.895798 
L 243.409996 470.895798 
L 246.123167 471.265415 
L 249.023862 474.215723 
L 247.960997 475.261138 
L 245.982387 474.789067 
L 243.3318 472.142623 
L 243.3318 472.142623 
L 245.250323 471.309326 
L 245.250323 471.309326 
L 248.966258 473.44236 
L 248.908201 474.999837 
L 247.585489 475.260271 
L 245.152166 474.373114 
L 243.454877 470.75686 
L 243.454877 470.75686 
L 246.23892 471.261831 
L 249.024481 474.247872 
L 247.998566 475.245112 
L 246.031979 474.802663 
L 243.375254 472.241466 
L 243.375254 472.241466 
L 245.214932 471.309572 
L 245.214932 471.309572 
L 248.924706 473.396245 
L 248.918661 474.976788 
L 247.632202 475.258 
L 245.224793 474.413109 
L 243.409088 470.898856 
L 243.409088 470.898856 
L 246.120672 471.265518 
L 249.023997 474.215051 
L 247.960429 475.261531 
L 245.98161 474.788947 
L 243.330934 472.140975 
L 243.330934 472.140975 
L 245.250631 471.309116 
L 245.250631 471.309116 
L 248.966166 473.442201 
L 248.908253 474.999801 
L 247.585631 475.260284 
L 245.152362 474.373238 
L 243.454704 470.757243 
L 243.454704 470.757243 
L 246.238545 471.261807 
L 249.024472 474.247762 
L 247.998425 475.245163 
L 246.031796 474.802607 
L 243.375102 472.241109 
L 245.215079 471.309591 
L 245.215079 471.309591 
L 248.924903 473.396473 
L 248.918604 474.976898 
L 247.631968 475.258008 
L 245.224432 474.41291 
L 243.409298 470.898153 
L 243.409298 470.898153 
L 246.121248 471.265496 
L 249.023965 474.215206 
L 247.960558 475.26144 
L 245.981787 474.788973 
L 243.331134 472.141352 
L 245.250563 471.309166 
L 245.250563 471.309166 
L 248.966195 473.442248 
L 248.966195 473.442248 
" clip-path="url(#p0cf9b337dc)" style="fill: none; stroke: #000000; stroke-width: 1.5"/>
    <path d="M 441.228131 406.455148 
L 447.644428 412.076761 
L 453.136321 419.902275 
L 453.136321 419.902275 
L 460.036928 441.218677 
L 464.177941 455.97288 
L 471.724138 471.724138 
L 471.724138 471.724138 
" clip-path="url(#p0cf9b337dc)" style="fill: none; stroke: #000000; stroke-width: 1.5"/>
   </g>
   <g id="patch_3">
    <path d="M 50.733756 709.455744 
Q 47.129935 707.722193 45.037405 706.715621 
" clip-path="url(#p0cf9b337dc)" style="fill: none; stroke: #000000; stroke-width: 1.5; stroke-linecap: round"/>
    <path d="M 47.775073 710.251886 
L 45.037405 706.715621 
L 49.509018 706.647246 
z
" clip-path="url(#p0cf9b337dc)" style="stroke: #000000; stroke-width: 1.5; stroke-linecap: round"/>
   </g>
   <g id="patch_4">
    <path d="M 260.310423 679.460652 
Q 259.189215 680.623928 259.231827 680.579717 
" clip-path="url(#p0cf9b337dc)" style="fill: none; stroke: #000000; stroke-width: 1.5; stroke-linecap: round"/>
    <path d="M 263.447711 679.08763 
L 259.231827 680.579717 
L 260.567687 676.311758 
z
" clip-path="url(#p0cf9b337dc)" style="stroke: #000000; stroke-width: 1.5; stroke-linecap: round"/>
   </g>
   <g id="patch_5">
    <path d="M 297.234172 684.34732 
Q 295.184211 686.413525 294.315416 687.289205 
" clip-path="url(#p0cf9b337dc)" style="fill: none; stroke: #000000; stroke-width: 1.5; stroke-linecap: round"/>
    <path d="M 298.552442 685.858259 
L 294.315416 687.289205 
L 295.712875 683.041016 
z
" clip-path="url(#p0cf9b337dc)" style="stroke: #000000; stroke-width: 1.5; stroke-linecap: round"/>
   </g>
   <g id="patch_6">
    <path d="M 355.510686 681.064938 
Q 355.201952 681.401403 356.027057 680.502187 
" clip-path="url(#p0cf9b337dc)" style="fill: none; stroke: #000000; stroke-width: 1.5; stroke-linecap: round"/>
    <path d="M 360.205057 678.907097 
L 356.027057 680.502187 
L 357.257785 676.202733 
z
" clip-path="url(#p0cf9b337dc)" style="stroke: #000000; stroke-width: 1.5; stroke-linecap: round"/>
   </g>
   <g id="patch_7">
    <path d="M 285.771669 622.176478 
Q 289.728957 622.680497 292.022633 622.97263 
" clip-path="url(#p0cf9b337dc)" style="fill: none; stroke: #000000; stroke-width: 1.5; stroke-linecap: round"/>
    <path d="M 288.307375 620.483281 
L 292.022633 622.97263 
L 287.801999 624.451227 
z
" clip-path="url(#p0cf9b337dc)" style="stroke: #000000; stroke-width: 1.5; stroke-linecap: round"/>
   </g>
   <g id="patch_8">
    <path d="M 415.989915 661.456325 
Q 415.554101 662.692453 415.675913 662.346951 
" clip-path="url(#p0cf9b337dc)" style="fill: none; stroke: #000000; stroke-width: 1.5; stroke-linecap: round"/>
    <path d="M 418.89213 659.239549 
L 415.675913 662.346951 
L 415.119722 657.909536 
z
" clip-path="url(#p0cf9b337dc)" style="stroke: #000000; stroke-width: 1.5; stroke-linecap: round"/>
   </g>
   <g id="patch_9">
    <path d="M 334.67101 419.430957 
Q 336.059833 423.170596 336.864798 425.338099 
" clip-path="url(#p0cf9b337dc)" style="fill: none; stroke: #000000; stroke-width: 1.5; stroke-linecap: round"/>
    <path d="M 337.347096 420.892046 
L 336.864798 425.338099 
L 333.597334 422.284628 
z
" clip-path="url(#p0cf9b337dc)" style="stroke: #000000; stroke-width: 1.5; stroke-linecap: round"/>
   </g>
   <g id="patch_10">
    <path d="M 483.314037 699.793913 
Q 480.422228 700.191766 479.191821 700.361045 
" clip-path="url(#p0cf9b337dc)" style="fill: none; stroke: #000000; stroke-width: 1.5; stroke-linecap: round"/>
    <path d="M 483.427085 701.797199 
L 479.191821 700.361045 
L 482.881903 697.834526 
z
" clip-path="url(#p0cf9b337dc)" style="stroke: #000000; stroke-width: 1.5; stroke-linecap: round"/>
   </g>
   <g id="patch_11">
    <path d="M 577.310832 703.614889 
Q 576.691694 703.086897 577.348611 703.647106 
" clip-path="url(#p0cf9b337dc)" style="fill: none; stroke: #000000; stroke-width: 1.5; stroke-linecap: round"/>
    <path d="M 579.094427 707.764402 
L 577.348611 703.647106 
L 581.689938 704.720831 
z
" clip-path="url(#p0cf9b337dc)" style="stroke: #000000; stroke-width: 1.5; stroke-linecap: round"/>
   </g>
   <g id="patch_12">
    <path d="M 613.5027 688.910729 
Q 613.221592 688.71628 614.319719 689.475881 
" clip-path="url(#p0cf9b337dc)" style="fill: none; stroke: #000000; stroke-width: 1.5; stroke-linecap: round"/>
    <path d="M 616.471613 693.396258 
L 614.319719 689.475881 
L 618.747157 690.106591 
z
" clip-path="url(#p0cf9b337dc)" style="stroke: #000000; stroke-width: 1.5; stroke-linecap: round"/>
   </g>
   <g id="patch_13">
    <path d="M 704.684459 659.237424 
Q 704.618868 658.4462 704.691826 659.326293 
" clip-path="url(#p0cf9b337dc)" style="fill: none; stroke: #000000; stroke-width: 1.5; stroke-linecap: round"/>
    <path d="M 703.029124 663.47785 
L 704.691826 659.326293 
L 707.01545 663.147389 
z
" clip-path="url(#p0cf9b337dc)" style="stroke: #000000; stroke-width: 1.5; stroke-linecap: round"/>
   </g>
   <g id="patch_14">
    <path d="M 674.694602 625.788343 
Q 677.913771 623.816732 679.702802 622.721023 
" clip-path="url(#p0cf9b337dc)" style="fill: none; stroke: #000000; stroke-width: 1.5; stroke-linecap: round"/>
    <path d="M 675.247149 623.104631 
L 679.702802 622.721023 
L 677.336297 626.51571 
z
" clip-path="url(#p0cf9b337dc)" style="stroke: #000000; stroke-width: 1.5; stroke-linecap: round"/>
   </g>
   <g id="patch_15">
    <path d="M 547.59929 563.821117 
Q 551.398393 563.262377 553.538292 562.947658 
" clip-path="url(#p0cf9b337dc)" style="fill: none; stroke: #000000; stroke-width: 1.5; stroke-linecap: round"/>
    <path d="M 549.28985 561.550969 
L 553.538292 562.947658 
L 549.871876 565.508398 
z
" clip-path="url(#p0cf9b337dc)" style="stroke: #000000; stroke-width: 1.5; stroke-linecap: round"/>
   </g>
   <g id="patch_16">
    <path d="M 651.433506 549.125687 
Q 655.211097 549.46159 657.318228 549.648956 
" clip-path="url(#p0cf9b337dc)" style="fill: none; stroke: #000000; stroke-width: 1.5; stroke-linecap: round"/>
    <path d="M 653.511089 547.302535 
L 657.318228 549.648956 
L 653.156807 551.286814 
z
" clip-path="url(#p0cf9b337dc)" style="stroke: #000000; stroke-width: 1.5; stroke-linecap: round"/>
   </g>
   <g id="patch_17">
    <path d="M 426.28874 451.035296 
Q 428.310781 454.447671 429.477891 456.417274 
" clip-path="url(#p0cf9b337dc)" style="fill: none; stroke: #000000; stroke-width: 1.5; stroke-linecap: round"/>
    <path d="M 429.159368 451.956495 
L 429.477891 456.417274 
L 425.718155 453.995625 
z
" clip-path="url(#p0cf9b337dc)" style="stroke: #000000; stroke-width: 1.5; stroke-linecap: round"/>
   </g>
   <g id="patch_18">
    <path d="M 502.316126 435.02985 
Q 502.345107 435.98677 502.323321 435.267409 
" clip-path="url(#p0cf9b337dc)" style="fill: none; stroke: #000000; stroke-width: 1.5; stroke-linecap: round"/>
    <path d="M 504.20132 431.2087 
L 502.323321 435.267409 
L 500.203153 431.329784 
z
" clip-path="url(#p0cf9b337dc)" style="stroke: #000000; stroke-width: 1.5; stroke-linecap: round"/>
   </g>
   <g id="patch_19">
    <path d="M 549.64115 425.618332 
Q 551.875019 428.253194 553.024374 429.608864 
" clip-path="url(#p0cf9b337dc)" style="fill: none; stroke: #000000; stroke-width: 1.5; stroke-linecap: round"/>
    <path d="M 551.96318 425.264458 
L 553.024374 429.608864 
L 548.912133 427.851175 
z
" clip-path="url(#p0cf9b337dc)" style="stroke: #000000; stroke-width: 1.5; stroke-linecap: round"/>
   </g>
   <g id="patch_20">
    <path d="M 356.010051 239.934773 
Q 359.747166 241.297235 361.908675 242.085269 
" clip-path="url(#p0cf9b337dc)" style="fill: none; stroke: #000000; stroke-width: 1.5; stroke-linecap: round"/>
    <path d="M 358.835681 238.83616 
L 361.908675 242.085269 
L 357.465592 242.594198 
z
" clip-path="url(#p0cf9b337dc)" style="stroke: #000000; stroke-width: 1.5; stroke-linecap: round"/>
   </g>
   <g id="patch_21">
    <path d="M 580.936912 357.479535 
Q 583.912313 360.116011 585.632528 361.640279 
" clip-path="url(#p0cf9b337dc)" style="fill: none; stroke: #000000; stroke-width: 1.5; stroke-linecap: round"/>
    <path d="M 583.965122 357.49061 
L 585.632528 361.640279 
L 581.312349 360.484402 
z
" clip-path="url(#p0cf9b337dc)" style="stroke: #000000; stroke-width: 1.5; stroke-linecap: round"/>
   </g>
   <g id="patch_22">
    <path d="M 605.68347 345.735048 
Q 608.66654 348.336352 610.385637 349.835442 
" clip-path="url(#p0cf9b337dc)" style="fill: none; stroke: #000000; stroke-width: 1.5; stroke-linecap: round"/>
    <path d="M 608.685351 345.699137 
L 610.385637 349.835442 
L 606.056421 348.713888 
z
" clip-path="url(#p0cf9b337dc)" style="stroke: #000000; stroke-width: 1.5; stroke-linecap: round"/>
   </g>
   <g id="patch_23">
    <path d="M 628.468817 334.335656 
Q 631.558531 336.85131 633.347747 338.308095 
" clip-path="url(#p0cf9b337dc)" style="fill: none; stroke: #000000; stroke-width: 1.5; stroke-linecap: round"/>
    <path d="M 631.508653 334.231609 
L 633.347747 338.308095 
L 628.983102 337.333479 
z
" clip-path="url(#p0cf9b337dc)" style="stroke: #000000; stroke-width: 1.5; stroke-linecap: round"/>
   </g>
   <g id="patch_24">
    <path d="M 398.126666 192.554916 
Q 401.789823 194.140922 403.913984 195.060601 
" clip-path="url(#p0cf9b337dc)" style="fill: none; stroke: #000000; stroke-width: 1.5; stroke-linecap: round"/>
    <path d="M 401.037904 191.635961 
L 403.913984 195.060601 
L 399.448624 195.306682 
z
" clip-path="url(#p0cf9b337dc)" style="stroke: #000000; stroke-width: 1.5; stroke-linecap: round"/>
   </g>
   <g id="patch_25">
    <path d="M 678.046759 285.63581 
Q 681.90753 286.517356 684.13333 287.025582 
" clip-path="url(#p0cf9b337dc)" style="fill: none; stroke: #000000; stroke-width: 1.5; stroke-linecap: round"/>
    <path d="M 680.678905 284.185344 
L 684.13333 287.025582 
L 679.788485 288.084979 
z
" clip-path="url(#p0cf9b337dc)" style="stroke: #000000; stroke-width: 1.5; stroke-linecap: round"/>
   </g>
   <g id="patch_26">
    <path d="M 622.377765 238.811558 
Q 626.206868 239.830097 628.415276 240.417532 
" clip-path="url(#p0cf9b337dc)" style="fill: none; stroke: #000000; stroke-width: 1.5; stroke-linecap: round"/>
    <path d="M 625.063816 237.456499 
L 628.415276 240.417532 
L 624.035574 241.32208 
z
" clip-path="url(#p0cf9b337dc)" style="stroke: #000000; stroke-width: 1.5; stroke-linecap: round"/>
   </g>
   <g id="patch_27">
    <path d="M 658.135546 231.922204 
Q 659.748308 232.113804 659.69573 232.107558 
" clip-path="url(#p0cf9b337dc)" style="fill: none; stroke: #000000; stroke-width: 1.5; stroke-linecap: round"/>
    <path d="M 655.959609 229.649632 
L 659.69573 232.107558 
L 655.487717 233.621699 
z
" clip-path="url(#p0cf9b337dc)" style="stroke: #000000; stroke-width: 1.5; stroke-linecap: round"/>
   </g>
   <g id="patch_28">
    <path d="M 451.378958 151.663827 
Q 454.902609 153.551838 456.948033 154.647798 
" clip-path="url(#p0cf9b337dc)" style="fill: none; stroke: #000000; stroke-width: 1.5; stroke-linecap: round"/>
    <path d="M 454.36683 150.995759 
L 456.948033 154.647798 
L 452.47768 154.521537 
z
" clip-path="url(#p0cf9b337dc)" style="stroke: #000000; stroke-width: 1.5; stroke-linecap: round"/>
   </g>
   <g id="patch_29">
    <path d="M 686.266097 32.621499 
Q 684.917946 31.710302 684.959245 31.738215 
" clip-path="url(#p0cf9b337dc)" style="fill: none; stroke: #000000; stroke-width: 1.5; stroke-linecap: round"/>
    <path d="M 687.153322 35.63514 
L 684.959245 31.738215 
L 689.393231 32.321109 
z
" clip-path="url(#p0cf9b337dc)" style="stroke: #000000; stroke-width: 1.5; stroke-linecap: round"/>
   </g>
   <g id="patch_30">
    <path d="M 607.653833 175.478374 
Q 611.634227 175.218549 613.941132 175.067962 
" clip-path="url(#p0cf9b337dc)" style="fill: none; stroke: #000000; stroke-width: 1.5; stroke-linecap: round"/>
    <path d="M 609.819351 173.332761 
L 613.941132 175.067962 
L 610.079902 177.324266 
z
" clip-path="url(#p0cf9b337dc)" style="stroke: #000000; stroke-width: 1.5; stroke-linecap: round"/>
   </g>
   <g id="patch_31">
    <path d="M 583.611054 35.639357 
Q 579.952693 34.076133 577.836493 33.171877 
" clip-path="url(#p0cf9b337dc)" style="fill: none; stroke: #000000; stroke-width: 1.5; stroke-linecap: round"/>
    <path d="M 580.728896 36.582742 
L 577.836493 33.171877 
L 582.300627 32.904473 
z
" clip-path="url(#p0cf9b337dc)" style="stroke: #000000; stroke-width: 1.5; stroke-linecap: round"/>
   </g>
   <g id="patch_32">
    <path d="M 550.574383 136.930918 
Q 552.48753 137.99022 552.933513 138.237159 
" clip-path="url(#p0cf9b337dc)" style="fill: none; stroke: #000000; stroke-width: 1.5; stroke-linecap: round"/>
    <path d="M 550.402924 134.549868 
L 552.933513 138.237159 
L 548.465326 138.049256 
z
" clip-path="url(#p0cf9b337dc)" style="stroke: #000000; stroke-width: 1.5; stroke-linecap: round"/>
   </g>
   <g id="patch_33">
    <path d="M 374.123809 37.861568 
Q 375.777251 41.457917 376.730152 43.530541 
" clip-path="url(#p0cf9b337dc)" style="fill: none; stroke: #000000; stroke-width: 1.5; stroke-linecap: round"/>
    <path d="M 376.876412 39.060797 
L 376.730152 43.530541 
L 373.242113 40.731687 
z
" clip-path="url(#p0cf9b337dc)" style="stroke: #000000; stroke-width: 1.5; stroke-linecap: round"/>
   </g>
   <g id="patch_34">
    <path d="M 319.032087 43.350988 
Q 320.305477 44.568618 320.366772 44.627229 
" clip-path="url(#p0cf9b337dc)" style="fill: none; stroke: #000000; stroke-width: 1.5; stroke-linecap: round"/>
    <path d="M 318.857967 40.417299 
L 320.366772 44.627229 
L 316.093545 43.308315 
z
" clip-path="url(#p0cf9b337dc)" style="stroke: #000000; stroke-width: 1.5; stroke-linecap: round"/>
   </g>
   <g id="patch_35">
    <path d="M 99.762967 5.670815 
Q 103.622128 6.559573 105.847017 7.071961 
" clip-path="url(#p0cf9b337dc)" style="fill: none; stroke: #000000; stroke-width: 1.5; stroke-linecap: round"/>
    <path d="M 102.397898 4.225283 
L 105.847017 7.071961 
L 101.500203 8.12325 
z
" clip-path="url(#p0cf9b337dc)" style="stroke: #000000; stroke-width: 1.5; stroke-linecap: round"/>
   </g>
   <g id="patch_36">
    <path d="M 49.466774 20.510377 
Q 53.428615 20.435989 55.7137 20.393084 
" clip-path="url(#p0cf9b337dc)" style="fill: none; stroke: #000000; stroke-width: 1.5; stroke-linecap: round"/>
    <path d="M 51.67686 18.468528 
L 55.7137 20.393084 
L 51.751951 22.467823 
z
" clip-path="url(#p0cf9b337dc)" style="stroke: #000000; stroke-width: 1.5; stroke-linecap: round"/>
   </g>
   <g id="patch_37">
    <path d="M 145.802137 73.851931 
Q 149.240103 75.847003 151.227559 77.000337 
" clip-path="url(#p0cf9b337dc)" style="fill: none; stroke: #000000; stroke-width: 1.5; stroke-linecap: round"/>
    <path d="M 148.771727 73.262839 
L 151.227559 77.000337 
L 146.764062 76.722504 
z
" clip-path="url(#p0cf9b337dc)" style="stroke: #000000; stroke-width: 1.5; stroke-linecap: round"/>
   </g>
   <g id="patch_38">
    <path d="M 121.785998 124.445655 
Q 125.545539 125.804839 127.727933 126.593838 
" clip-path="url(#p0cf9b337dc)" style="fill: none; stroke: #000000; stroke-width: 1.5; stroke-linecap: round"/>
    <path d="M 124.646205 123.353012 
L 127.727933 126.593838 
L 123.286236 127.114725 
z
" clip-path="url(#p0cf9b337dc)" style="stroke: #000000; stroke-width: 1.5; stroke-linecap: round"/>
   </g>
   <g id="patch_39">
    <path d="M 56.034938 153.893107 
Q 59.807899 152.767669 61.973781 152.121607 
" clip-path="url(#p0cf9b337dc)" style="fill: none; stroke: #000000; stroke-width: 1.5; stroke-linecap: round"/>
    <path d="M 57.568988 151.348434 
L 61.973781 152.121607 
L 58.712366 155.181538 
z
" clip-path="url(#p0cf9b337dc)" style="stroke: #000000; stroke-width: 1.5; stroke-linecap: round"/>
   </g>
   <g id="patch_40">
    <path d="M 270.164751 366.628818 
Q 271.380246 370.439006 272.08605 372.651473 
" clip-path="url(#p0cf9b337dc)" style="fill: none; stroke: #000000; stroke-width: 1.5; stroke-linecap: round"/>
    <path d="M 272.775757 368.232842 
L 272.08605 372.651473 
L 268.964969 369.448529 
z
" clip-path="url(#p0cf9b337dc)" style="stroke: #000000; stroke-width: 1.5; stroke-linecap: round"/>
   </g>
   <g id="patch_41">
    <path d="M 136.270729 291.229449 
Q 140.187865 291.91647 142.453164 292.313778 
" clip-path="url(#p0cf9b337dc)" style="fill: none; stroke: #000000; stroke-width: 1.5; stroke-linecap: round"/>
    <path d="M 138.858806 289.65284 
L 142.453164 292.313778 
L 138.167799 293.592702 
z
" clip-path="url(#p0cf9b337dc)" style="stroke: #000000; stroke-width: 1.5; stroke-linecap: round"/>
   </g>
   <g id="patch_42">
    <path d="M 118.056865 323.351521 
Q 121.975837 323.921659 124.235228 324.250359 
" clip-path="url(#p0cf9b337dc)" style="fill: none; stroke: #000000; stroke-width: 1.5; stroke-linecap: round"/>
    <path d="M 120.56483 321.69533 
L 124.235228 324.250359 
L 119.988966 325.65366 
z
" clip-path="url(#p0cf9b337dc)" style="stroke: #000000; stroke-width: 1.5; stroke-linecap: round"/>
   </g>
   <g id="patch_43">
    <path d="M 132.450576 353.850299 
Q 133.572304 354.328284 133.151209 354.148849 
" clip-path="url(#p0cf9b337dc)" style="fill: none; stroke: #000000; stroke-width: 1.5; stroke-linecap: round"/>
    <path d="M 130.255385 350.740888 
L 133.151209 354.148849 
L 128.687346 354.420732 
z
" clip-path="url(#p0cf9b337dc)" style="stroke: #000000; stroke-width: 1.5; stroke-linecap: round"/>
   </g>
   <g id="patch_44">
    <path d="M 77.146087 382.094401 
Q 78.506953 382.300945 78.209755 382.255838 
" clip-path="url(#p0cf9b337dc)" style="fill: none; stroke: #000000; stroke-width: 1.5; stroke-linecap: round"/>
    <path d="M 74.555157 379.67826 
L 78.209755 382.255838 
L 73.954933 383.63297 
z
" clip-path="url(#p0cf9b337dc)" style="stroke: #000000; stroke-width: 1.5; stroke-linecap: round"/>
   </g>
   <g id="patch_45">
    <path d="M 56.851875 393.086299 
Q 59.647884 394.382806 60.922451 394.973823 
" clip-path="url(#p0cf9b337dc)" style="fill: none; stroke: #000000; stroke-width: 1.5; stroke-linecap: round"/>
    <path d="M 58.13495 391.476704 
L 60.922451 394.973823 
L 56.452256 395.105552 
z
" clip-path="url(#p0cf9b337dc)" style="stroke: #000000; stroke-width: 1.5; stroke-linecap: round"/>
   </g>
   <g id="patch_46">
    <path d="M 50.000587 443.29821 
Q 50.321849 443.880116 49.832559 442.993859 
" clip-path="url(#p0cf9b337dc)" style="fill: none; stroke: #000000; stroke-width: 1.5; stroke-linecap: round"/>
    <path d="M 49.650166 438.525444 
L 49.832559 442.993859 
L 46.148391 440.458724 
z
" clip-path="url(#p0cf9b337dc)" style="stroke: #000000; stroke-width: 1.5; stroke-linecap: round"/>
   </g>
   <g id="patch_47">
    <path d="M 123.038367 526.464314 
Q 120.888355 525.740293 120.327696 525.551489 
" clip-path="url(#p0cf9b337dc)" style="fill: none; stroke: #000000; stroke-width: 1.5; stroke-linecap: round"/>
    <path d="M 123.480238 528.723473 
L 120.327696 525.551489 
L 124.756808 524.932646 
z
" clip-path="url(#p0cf9b337dc)" style="stroke: #000000; stroke-width: 1.5; stroke-linecap: round"/>
   </g>
   <g id="patch_48">
    <path d="M 38.914256 569.312581 
Q 39.400593 569.197802 38.25472 569.468235 
" clip-path="url(#p0cf9b337dc)" style="fill: none; stroke: #000000; stroke-width: 1.5; stroke-linecap: round"/>
    <path d="M 33.902279 568.44049 
L 38.25472 569.468235 
L 34.82106 572.333541 
z
" clip-path="url(#p0cf9b337dc)" style="stroke: #000000; stroke-width: 1.5; stroke-linecap: round"/>
   </g>
   <g id="patch_49">
    <path d="M 47.25984 605.335436 
Q 50.964728 603.995175 53.092583 603.225413 
" clip-path="url(#p0cf9b337dc)" style="fill: none; stroke: #000000; stroke-width: 1.5; stroke-linecap: round"/>
    <path d="M 48.650782 602.705412 
L 53.092583 603.225413 
L 50.011501 606.466853 
z
" clip-path="url(#p0cf9b337dc)" style="stroke: #000000; stroke-width: 1.5; stroke-linecap: round"/>
   </g>
   <g id="patch_50">
    <path d="M 37.428106 642.072726 
Q 39.424622 641.855393 39.753936 641.819545 
" clip-path="url(#p0cf9b337dc)" style="fill: none; stroke: #000000; stroke-width: 1.5; stroke-linecap: round"/>
    <path d="M 35.560993 640.264157 
L 39.753936 641.819545 
L 35.99386 644.240667 
z
" clip-path="url(#p0cf9b337dc)" style="stroke: #000000; stroke-width: 1.5; stroke-linecap: round"/>
   </g>
   <g id="patch_51">
    <path d="M 69.149532 705.278835 
Q 65.608321 703.442972 63.555974 702.378978 
" clip-path="url(#p0cf9b337dc)" style="fill: none; stroke: #000000; stroke-width: 1.5; stroke-linecap: round"/>
    <path d="M 66.186616 705.995568 
L 63.555974 702.378978 
L 68.027631 702.444418 
z
" clip-path="url(#p0cf9b337dc)" style="stroke: #000000; stroke-width: 1.5; stroke-linecap: round"/>
   </g>
   <g id="patch_52">
    <path d="M 158.255912 704.997358 
Q 155.770569 704.970768 154.962182 704.962119 
" clip-path="url(#p0cf9b337dc)" style="fill: none; stroke: #000000; stroke-width: 1.5; stroke-linecap: round"/>
    <path d="M 158.940556 707.004797 
L 154.962182 704.962119 
L 158.983349 703.005026 
z
" clip-path="url(#p0cf9b337dc)" style="stroke: #000000; stroke-width: 1.5; stroke-linecap: round"/>
   </g>
   <g id="patch_53">
    <path d="M 711.635755 154.674837 
Q 711.913476 153.898185 711.626521 154.70066 
" clip-path="url(#p0cf9b337dc)" style="fill: none; stroke: #000000; stroke-width: 1.5; stroke-linecap: round"/>
    <path d="M 708.396472 157.793682 
L 711.626521 154.70066 
L 712.16291 159.140512 
z
" clip-path="url(#p0cf9b337dc)" style="stroke: #000000; stroke-width: 1.5; stroke-linecap: round"/>
   </g>
   <g id="patch_54">
    <path d="M 526.497101 37.119291 
Q 526.165714 37.110878 527.510838 37.145029 
" clip-path="url(#p0cf9b337dc)" style="fill: none; stroke: #000000; stroke-width: 1.5; stroke-linecap: round"/>
    <path d="M 531.458787 39.24591 
L 527.510838 37.145029 
L 531.560311 35.247199 
z
" clip-path="url(#p0cf9b337dc)" style="stroke: #000000; stroke-width: 1.5; stroke-linecap: round"/>
   </g>
   <g id="patch_55">
    <path d="M 50.823925 658.029352 
Q 53.282182 656.754448 54.251692 656.251639 
" clip-path="url(#p0cf9b337dc)" style="fill: none; stroke: #000000; stroke-width: 1.5; stroke-linecap: round"/>
    <path d="M 49.780045 656.317761 
L 54.251692 656.251639 
L 51.621602 659.86863 
z
" clip-path="url(#p0cf9b337dc)" style="stroke: #000000; stroke-width: 1.5; stroke-linecap: round"/>
   </g>
   <g id="patch_56">
    <path d="M 132.418105 629.212481 
Q 133.62323 628.442445 133.415161 628.575395 
" clip-path="url(#p0cf9b337dc)" style="fill: none; stroke: #000000; stroke-width: 1.5; stroke-linecap: round"/>
    <path d="M 128.967623 629.043807 
L 133.415161 628.575395 
L 131.121368 632.414472 
z
" clip-path="url(#p0cf9b337dc)" style="stroke: #000000; stroke-width: 1.5; stroke-linecap: round"/>
   </g>
   <g id="patch_57">
    <path d="M 140.024011 672.581506 
Q 139.33201 672.577452 140.317031 672.583222 
" clip-path="url(#p0cf9b337dc)" style="fill: none; stroke: #000000; stroke-width: 1.5; stroke-linecap: round"/>
    <path d="M 144.305246 674.60662 
L 140.317031 672.583222 
L 144.328678 670.606688 
z
" clip-path="url(#p0cf9b337dc)" style="stroke: #000000; stroke-width: 1.5; stroke-linecap: round"/>
   </g>
   <g id="patch_58">
    <path d="M 199.531014 667.633991 
Q 199.462325 667.83854 199.927507 666.453283 
" clip-path="url(#p0cf9b337dc)" style="fill: none; stroke: #000000; stroke-width: 1.5; stroke-linecap: round"/>
    <path d="M 203.096818 663.298055 
L 199.927507 666.453283 
L 199.304911 662.024697 
z
" clip-path="url(#p0cf9b337dc)" style="stroke: #000000; stroke-width: 1.5; stroke-linecap: round"/>
   </g>
   <g id="patch_59">
    <path d="M 666.183243 138.052718 
Q 666.197373 138.026117 665.42479 139.48059 
" clip-path="url(#p0cf9b337dc)" style="fill: none; stroke: #000000; stroke-width: 1.5; stroke-linecap: round"/>
    <path d="M 661.782084 142.074949 
L 665.42479 139.48059 
L 665.314653 143.95137 
z
" clip-path="url(#p0cf9b337dc)" style="stroke: #000000; stroke-width: 1.5; stroke-linecap: round"/>
   </g>
   <g id="patch_60">
    <path d="M 239.870615 77.836123 
Q 243.010144 80.290598 244.828466 81.712157 
" clip-path="url(#p0cf9b337dc)" style="fill: none; stroke: #000000; stroke-width: 1.5; stroke-linecap: round"/>
    <path d="M 242.909029 77.67288 
L 244.828466 81.712157 
L 240.445382 80.824141 
z
" clip-path="url(#p0cf9b337dc)" style="stroke: #000000; stroke-width: 1.5; stroke-linecap: round"/>
   </g>
   <g id="patch_61">
    <path d="M 150.691769 50.666928 
Q 154.127221 52.680447 156.115818 53.845963 
" clip-path="url(#p0cf9b337dc)" style="fill: none; stroke: #000000; stroke-width: 1.5; stroke-linecap: round"/>
    <path d="M 153.676166 50.097883 
L 156.115818 53.845963 
L 151.653563 53.548836 
z
" clip-path="url(#p0cf9b337dc)" style="stroke: #000000; stroke-width: 1.5; stroke-linecap: round"/>
   </g>
   <g id="patch_62">
    <path d="M 507.252905 607.080728 
Q 507.753135 607.361453 506.79087 606.821438 
" clip-path="url(#p0cf9b337dc)" style="fill: none; stroke: #000000; stroke-width: 1.5; stroke-linecap: round"/>
    <path d="M 504.281407 603.119737 
L 506.79087 606.821438 
L 502.323831 606.607988 
z
" clip-path="url(#p0cf9b337dc)" style="stroke: #000000; stroke-width: 1.5; stroke-linecap: round"/>
   </g>
   <g id="patch_63">
    <path d="M 614.538818 601.27266 
Q 615.534328 601.391177 614.864546 601.311438 
" clip-path="url(#p0cf9b337dc)" style="fill: none; stroke: #000000; stroke-width: 1.5; stroke-linecap: round"/>
    <path d="M 611.129028 598.852596 
L 614.864546 601.311438 
L 610.656161 602.824548 
z
" clip-path="url(#p0cf9b337dc)" style="stroke: #000000; stroke-width: 1.5; stroke-linecap: round"/>
   </g>
   <g id="patch_64">
    <path d="M 501.106514 56.349736 
Q 500.785301 56.340862 502.1405 56.378301 
" clip-path="url(#p0cf9b337dc)" style="fill: none; stroke: #000000; stroke-width: 1.5; stroke-linecap: round"/>
    <path d="M 506.083743 58.488001 
L 502.1405 56.378301 
L 506.194206 54.489527 
z
" clip-path="url(#p0cf9b337dc)" style="stroke: #000000; stroke-width: 1.5; stroke-linecap: round"/>
   </g>
   <g id="patch_65">
    <path d="M 137.228997 187.363947 
Q 141.197583 187.718058 143.495754 187.923121 
" clip-path="url(#p0cf9b337dc)" style="fill: none; stroke: #000000; stroke-width: 1.5; stroke-linecap: round"/>
    <path d="M 139.689334 185.575533 
L 143.495754 187.923121 
L 139.333832 189.559704 
z
" clip-path="url(#p0cf9b337dc)" style="stroke: #000000; stroke-width: 1.5; stroke-linecap: round"/>
   </g>
   <g id="patch_66">
    <path d="M 559.424084 378.304004 
Q 561.667151 381.130003 562.867605 382.642433 
" clip-path="url(#p0cf9b337dc)" style="fill: none; stroke: #000000; stroke-width: 1.5; stroke-linecap: round"/>
    <path d="M 561.947351 378.266004 
L 562.867605 382.642433 
L 558.814309 380.752778 
z
" clip-path="url(#p0cf9b337dc)" style="stroke: #000000; stroke-width: 1.5; stroke-linecap: round"/>
   </g>
   <g id="patch_67">
    <path d="M 606.169145 110.6263 
Q 606.160305 110.610707 606.978575 112.054013 
" clip-path="url(#p0cf9b337dc)" style="fill: none; stroke: #000000; stroke-width: 1.5; stroke-linecap: round"/>
    <path d="M 607.211511 116.520078 
L 606.978575 112.054013 
L 610.691189 114.547303 
z
" clip-path="url(#p0cf9b337dc)" style="stroke: #000000; stroke-width: 1.5; stroke-linecap: round"/>
   </g>
   <g id="patch_68">
    <path d="M 108.392207 476.381483 
Q 107.472403 474.177776 107.198571 473.521719 
" clip-path="url(#p0cf9b337dc)" style="fill: none; stroke: #000000; stroke-width: 1.5; stroke-linecap: round"/>
    <path d="M 106.893626 477.983446 
L 107.198571 473.521719 
L 110.584986 476.442711 
z
" clip-path="url(#p0cf9b337dc)" style="stroke: #000000; stroke-width: 1.5; stroke-linecap: round"/>
   </g>
   <g id="patch_69">
    <path d="M 296.095091 570.748994 
Q 295.830326 570.905914 297.008259 570.207779 
" clip-path="url(#p0cf9b337dc)" style="fill: none; stroke: #000000; stroke-width: 1.5; stroke-linecap: round"/>
    <path d="M 301.46901 569.88887 
L 297.008259 570.207779 
L 299.429583 566.447833 
z
" clip-path="url(#p0cf9b337dc)" style="stroke: #000000; stroke-width: 1.5; stroke-linecap: round"/>
   </g>
   <g id="patch_70">
    <path d="M 195.26721 572.841253 
Q 194.577054 572.67305 195.516257 572.90195 
" clip-path="url(#p0cf9b337dc)" style="fill: none; stroke: #000000; stroke-width: 1.5; stroke-linecap: round"/>
    <path d="M 198.928931 575.792219 
L 195.516257 572.90195 
L 199.876076 571.905971 
z
" clip-path="url(#p0cf9b337dc)" style="stroke: #000000; stroke-width: 1.5; stroke-linecap: round"/>
   </g>
   <g id="patch_71">
    <path d="M 428.802766 552.003329 
Q 432.657393 552.122731 434.835772 552.190209 
" clip-path="url(#p0cf9b337dc)" style="fill: none; stroke: #000000; stroke-width: 1.5; stroke-linecap: round"/>
    <path d="M 430.899613 550.067322 
L 434.835772 552.190209 
L 430.775767 554.065404 
z
" clip-path="url(#p0cf9b337dc)" style="stroke: #000000; stroke-width: 1.5; stroke-linecap: round"/>
   </g>
   <g id="patch_72">
    <path d="M 522.71186 509.656117 
Q 525.552659 510.730787 526.824893 511.212072 
" clip-path="url(#p0cf9b337dc)" style="fill: none; stroke: #000000; stroke-width: 1.5; stroke-linecap: round"/>
    <path d="M 523.791303 507.926142 
L 526.824893 511.212072 
L 522.375995 511.667386 
z
" clip-path="url(#p0cf9b337dc)" style="stroke: #000000; stroke-width: 1.5; stroke-linecap: round"/>
   </g>
   <g id="patch_73">
    <path d="M 374.037593 150.135196 
Q 377.269153 152.462999 379.139945 153.810595 
" clip-path="url(#p0cf9b337dc)" style="fill: none; stroke: #000000; stroke-width: 1.5; stroke-linecap: round"/>
    <path d="M 377.063289 149.84985 
L 379.139945 153.810595 
L 374.725356 153.095473 
z
" clip-path="url(#p0cf9b337dc)" style="stroke: #000000; stroke-width: 1.5; stroke-linecap: round"/>
   </g>
   <g id="patch_74">
    <path d="M 167.520952 477.989842 
Q 167.146194 477.99895 168.447992 477.967312 
" clip-path="url(#p0cf9b337dc)" style="fill: none; stroke: #000000; stroke-width: 1.5; stroke-linecap: round"/>
    <path d="M 172.495404 479.869536 
L 168.447992 477.967312 
L 172.398219 475.870717 
z
" clip-path="url(#p0cf9b337dc)" style="stroke: #000000; stroke-width: 1.5; stroke-linecap: round"/>
   </g>
   <g id="patch_75">
    <path d="M 161.493278 496.798345 
Q 159.859317 496.766179 159.902081 496.767021 
" clip-path="url(#p0cf9b337dc)" style="fill: none; stroke: #000000; stroke-width: 1.5; stroke-linecap: round"/>
    <path d="M 163.861942 498.845362 
L 159.902081 496.767021 
L 163.940671 494.846137 
z
" clip-path="url(#p0cf9b337dc)" style="stroke: #000000; stroke-width: 1.5; stroke-linecap: round"/>
   </g>
   <g id="patch_76">
    <path d="M 527.777628 445.524682 
Q 528.035568 446.282217 527.75295 445.452207 
" clip-path="url(#p0cf9b337dc)" style="fill: none; stroke: #000000; stroke-width: 1.5; stroke-linecap: round"/>
    <path d="M 528.356902 441.02104 
L 527.75295 445.452207 
L 524.570388 442.310346 
z
" clip-path="url(#p0cf9b337dc)" style="stroke: #000000; stroke-width: 1.5; stroke-linecap: round"/>
   </g>
   <g id="patch_77">
    <path d="M 406.273333 220.46606 
Q 410.101657 221.618418 412.324103 222.287393 
" clip-path="url(#p0cf9b337dc)" style="fill: none; stroke: #000000; stroke-width: 1.5; stroke-linecap: round"/>
    <path d="M 409.07033 219.219338 
L 412.324103 222.287393 
L 407.917395 223.049578 
z
" clip-path="url(#p0cf9b337dc)" style="stroke: #000000; stroke-width: 1.5; stroke-linecap: round"/>
   </g>
   <g id="patch_78">
    <path d="M 365.884505 456.508428 
Q 366.96763 459.458237 367.472704 460.833767 
" clip-path="url(#p0cf9b337dc)" style="fill: none; stroke: #000000; stroke-width: 1.5; stroke-linecap: round"/>
    <path d="M 367.971408 456.389524 
L 367.472704 460.833767 
L 364.216532 457.768258 
z
" clip-path="url(#p0cf9b337dc)" style="stroke: #000000; stroke-width: 1.5; stroke-linecap: round"/>
   </g>
   <g id="patch_79">
    <path d="M 400.595841 498.220603 
Q 401.039913 499.062687 400.701704 498.42135 
" clip-path="url(#p0cf9b337dc)" style="fill: none; stroke: #000000; stroke-width: 1.5; stroke-linecap: round"/>
    <path d="M 400.604939 493.950261 
L 400.701704 498.42135 
L 397.066774 495.816109 
z
" clip-path="url(#p0cf9b337dc)" style="stroke: #000000; stroke-width: 1.5; stroke-linecap: round"/>
   </g>
   <g id="patch_80">
    <path d="M 209.772681 448.791484 
Q 209.121961 448.687065 210.127108 448.848358 
" clip-path="url(#p0cf9b337dc)" style="fill: none; stroke: #000000; stroke-width: 1.5; stroke-linecap: round"/>
    <path d="M 213.759701 451.456857 
L 210.127108 448.848358 
L 214.393463 447.507383 
z
" clip-path="url(#p0cf9b337dc)" style="stroke: #000000; stroke-width: 1.5; stroke-linecap: round"/>
   </g>
   <g id="patch_81">
    <path d="M 397.924563 443.471329 
Q 399.238268 445.718389 399.705553 446.517668 
" clip-path="url(#p0cf9b337dc)" style="fill: none; stroke: #000000; stroke-width: 1.5; stroke-linecap: round"/>
    <path d="M 399.413301 442.055091 
L 399.705553 446.517668 
L 395.960141 444.073923 
z
" clip-path="url(#p0cf9b337dc)" style="stroke: #000000; stroke-width: 1.5; stroke-linecap: round"/>
   </g>
   <g id="patch_82">
    <path d="M 247.596791 472.721773 
Q 247.611798 472.737795 246.480343 471.529837 
" clip-path="url(#p0cf9b337dc)" style="fill: none; stroke: #000000; stroke-width: 1.5; stroke-linecap: round"/>
    <path d="M 245.205555 467.243239 
L 246.480343 471.529837 
L 242.286193 469.977709 
z
" clip-path="url(#p0cf9b337dc)" style="stroke: #000000; stroke-width: 1.5; stroke-linecap: round"/>
   </g>
   <g id="patch_83">
    <path d="M 453.752086 421.80441 
Q 454.861404 425.231161 455.454212 427.062382 
" clip-path="url(#p0cf9b337dc)" style="fill: none; stroke: #000000; stroke-width: 1.5; stroke-linecap: round"/>
    <path d="M 456.125045 422.640846 
L 455.454212 427.062382 
L 452.319483 423.872793 
z
" clip-path="url(#p0cf9b337dc)" style="stroke: #000000; stroke-width: 1.5; stroke-linecap: round"/>
   </g>
   <g id="patch_84">
    <path d="M 0 720 
L 0 720 
L 0 0 
L 720 0 
L 720 720 
L 0 720 
z
" style="fill: none; stroke: #000000; stroke-width: 0.8; stroke-linejoin: miter; stroke-linecap: square"/>
   </g>
  </g>
 </g>
 <defs>
  <clipPath id="p0cf9b337dc">
   <path d="M 0 720 
L 0 720 
L 0 0 
L 720 0 
L 720 720 
z
"/>
  </clipPath>
 </defs>
</svg>
