<?xml version="1.0" encoding="utf-8" standalone="no"?>
<!DOCTYPE svg PUBLIC "-//W3C//DTD SVG 1.1//EN"
  "http://www.w3.org/Graphics/SVG/1.1/DTD/svg11.dtd">
<svg xmlns:xlink="http://www.w3.org/1999/xlink" width="720pt" height="720pt" viewBox="0 0 720 720" xmlns="http://www.w3.org/2000/svg" version="1.1">
 <metadata>
  <rdf:RDF xmlns:dc="http://purl.org/dc/elements/1.1/" xmlns:cc="http://creativecommons.org/ns#" xmlns:rdf="http://www.w3.org/1999/02/22-rdf-syntax-ns#">
   <cc:Work>
    <dc:type rdf:resource="http://purl.org/dc/dcmitype/StillImage"/>
    <dc:date>2026-03-20T18:58:42.134789</dc:date>
    <dc:format>image/svg+xml</dc:format>
    <dc:creator>
     <cc:Agent>
      <dc:title>Matplotlib v3.10.8, https://matplotlib.org/</dc:title>
     </cc:Agent>
    </dc:creator>
   </cc:Work>
  </rdf:RDF>
 </metadata>
 <defs>
  <style type="text/css">*{stroke-linejoin: round; stroke-linecap: butt}</style>
 </defs>
 <g id="figure_1">
  <g id="patch_1">
   <path d="M 0 720 
L 720 720 
L 720 0 
L 0 0 
L 0 720 
z
" style="fill: none"/>
  </g>
  <g id="axes_1">
   <g id="patch_2">
    <path d="M 0 720 
L 0 720 
L 0 0 
L 720 0 
L 720 720 
L 0 720 
z
" style="fill: none"/>
   </g>
   <g id="GeoContourSet_1">
    <path clip-path="url(#pcfd54f8f54)" style="fill: none; stroke: #000000"/>
    <path clip-path="url(#pcfd54f8f54)" style="fill: none; stroke: #000000"/>
    <path clip-path="url(#pcfd54f8f54)" style="fill: none; stroke: #000000"/>
    <path clip-path="url(#pcfd54f8f54)" style="fill: none; stroke: #000000"/>
    <path clip-path="url(#pcfd54f8f54)" style="fill: none; stroke: #000000"/>
    <path d="M 720 37.274931 
L 716.25 37.295147 
L 713.443848 36 
L 712.5 35.507558 
L 708.75 35.479614 
L 705 35.78853 
L 701.25 34.333845 
L 697.5 33.690988 
L 693.75 33.644922 
L 690 33.905273 
L 686.25 34.333845 
L 682.5 35.243075 
L 680.418457 36 
L 678.75 36.606712 
L 675 36.744141 
L 671.25 36.604614 
L 667.5 36.193359 
L 665.203857 36 
L 663.75 35.854614 
L 662.296143 36 
L 660 36.193359 
L 656.25 36.746373 
L 652.5 36.746373 
L 648.75 36.303356 
L 646.664429 36 
L 645 35.757901 
L 641.25 35.133691 
L 637.5 34.537435 
L 633.75 33.870768 
L 630 33.483691 
L 626.25 33.033691 
L 625.969238 33 
L 622.5 32.603516 
L 619.030762 33 
L 618.75 33.039637 
L 615 33.745519 
L 611.25 34.370768 
L 607.5 35.088096 
L 603.75 35.603516 
L 601.148071 36 
L 600 36.159732 
L 596.25 36.439719 
L 592.5 36.783691 
L 588.75 37.451402 
L 585 38.157284 
L 581.25 38.204102 
L 577.5 37.614412 
L 573.75 36.88923 
L 570 36.159732 
L 569.343959 36 
L 566.25 35.174944 
L 562.5 34.174944 
L 558.75 33.483691 
L 555.726929 33 
L 555 32.863166 
L 551.25 32.333755 
L 547.5 31.804343 
L 543.75 31.456517 
L 540 30.933691 
L 536.25 30.351254 
L 532.5 30.193359 
L 528.75 30.460658 
L 525 30.986953 
L 521.25 30.712447 
L 517.5 30.033691 
L 517.394714 30 
L 513.75 28.704102 
L 510 27.783691 
L 506.25 27.183691 
L 504.719238 27 
L 502.5 26.719675 
L 498.75 26.479614 
L 495 26.510225 
L 491.25 26.460658 
L 487.5 26.894265 
L 487.176921 27 
L 483.75 27.986953 
L 481.935748 27 
L 480 25.537435 
L 478.495988 24 
L 476.25 21.417114 
L 472.5 21.051833 
L 468.75 22.044922 
L 465 22.451402 
L 461.25 22.870768 
L 457.5 23.433691 
L 453.75 23.87757 
L 452.296143 24 
L 450 24.204102 
L 446.25 24.604614 
L 442.5 25.354614 
L 438.75 25.980813 
L 435 26.174944 
L 431.25 26.153076 
L 427.5 25.87207 
L 423.75 25.524065 
L 420 25.183027 
L 416.25 24.892704 
L 412.5 24.437029 
L 409.859619 24 
L 408.75 23.847824 
L 405 23.402171 
L 401.25 22.92951 
L 397.5 22.570123 
L 393.75 22.264615 
L 390 21.802734 
L 386.25 21.266953 
L 384.164429 21 
L 382.5 20.80978 
L 378.75 20.426953 
L 375 19.985819 
L 371.25 20.037435 
L 367.5 20.686696 
L 366.390381 21 
L 363.75 21.551036 
L 360 22.174944 
L 356.25 22.083691 
L 352.5 22.833691 
L 348.75 23.609442 
L 346.980286 24 
L 345 24.576083 
L 341.25 25.032087 
L 337.5 24.870768 
L 333.75 25.444922 
L 331.040771 24 
L 330 23.167383 
L 327.537065 21 
L 326.25 19.741536 
L 322.5 18.879439 
L 319.476929 18 
L 318.75 17.612305 
L 315 15.134766 
L 314.859619 15 
L 311.976929 12 
L 311.25 11.741536 
L 307.5 9.112305 
L 307.219238 9 
L 303.75 7.334766 
L 300 7.209229 
L 296.25 6.967383 
L 292.5 7.267383 
L 288.75 6.741536 
L 285 7.556152 
L 281.25 7.970348 
L 277.5 7.267383 
L 273.75 7.056152 
L 270 7.556152 
L 266.25 7.667218 
L 262.5 7.667218 
L 258.75 7.205679 
L 255 6.97491 
L 251.25 6.744141 
L 247.5 6.07487 
L 247.331543 6 
L 243.75 4.697621 
L 240 3.07487 
L 239.789429 3 
L 236.25 2.056152 
L 232.5 1.436448 
L 228.75 0.306152 
L 228.239746 0 
L 226.746933 -0.895688 
M 210 127.274931 
L 207.74231 126 
L 206.25 125.044922 
L 204.119873 123 
L 202.5 121.985819 
L 198.75 121.403076 
L 195.512132 120 
L 197.359619 117 
L 197.219238 114 
L 195 112.668457 
L 192.219238 111 
L 193.272531 108 
L 195 107.255859 
L 198.665771 105 
L 198.75 104.948167 
L 202.5 103.270386 
L 206.25 102.943848 
L 210 102.258464 
L 210.726929 102 
L 213.75 101.395386 
L 217.5 100.069799 
L 221.25 99.21147 
L 221.831543 99 
L 225 97.189453 
L 226.486816 96 
L 227.74231 93 
L 228.75 91.387695 
L 229.696156 90 
L 230.037065 87 
L 229.582214 84 
L 228.75 82.224609 
L 228.36731 81 
L 228.75 79.775391 
L 229.489746 78 
L 232.394714 75 
L 232.5 74.915771 
L 234.92981 72 
L 236.25 70.591797 
L 238.040771 69 
L 240 67.040771 
L 241.156413 66 
L 243.75 64.755078 
L 247.040771 63 
L 247.5 62.591797 
L 250.739746 60 
L 251.25 59.717398 
L 255 57.594727 
L 256.300964 57 
L 258.75 55.955078 
L 262.5 55.372128 
L 266.25 54.380441 
L 269.578857 54 
L 270 53.948167 
L 273.75 53.523298 
L 277.5 53.693848 
L 281.25 53.094727 
L 285 52.548598 
L 288.75 52.016309 
L 292.5 51.253627 
L 293.451102 51 
L 296.25 50.318529 
L 300 49.589468 
L 303.75 49.016309 
L 307.5 48.555078 
L 311.25 48.943848 
L 315 50.540771 
L 315.765381 51 
L 318.75 53.387695 
L 321.046143 54 
L 322.5 54.166155 
L 326.25 54.754009 
L 330 55.166309 
L 333.75 56.175062 
L 335.38269 57 
L 336.122483 60 
L 335.926921 63 
L 337.5 64.887695 
L 339.585571 66 
L 341.25 66.213047 
L 345 66.846924 
L 348.399594 69 
L 348.75 69.484197 
L 349.831009 72 
L 350.278076 75 
L 349.722595 78 
L 348.75 78.982833 
L 345 80.510225 
L 343.843587 81 
L 341.25 81.533538 
L 337.5 83.066953 
L 336.285095 84 
L 333.75 86.56178 
L 333.434615 87 
L 333.75 87.92513 
L 334.502977 90 
L 335.090969 93 
L 335.040109 96 
L 335.040109 99 
L 333.75 100.970348 
L 330 101.883691 
L 326.25 101.246688 
L 322.5 99.985174 
L 318.75 99.444922 
L 315 101.405273 
L 314.199407 102 
L 311.25 103.804343 
L 308.709229 105 
L 307.5 105.644922 
L 303.75 107.157284 
L 301.760254 108 
L 300 108.667044 
L 296.25 109.333645 
L 292.5 109.772307 
L 288.75 109.804343 
L 285 109.537435 
L 281.25 109.704102 
L 278.130574 110.227877 
M 258.541004 118.847017 
L 255 119.186953 
L 251.25 119.426953 
L 247.5 119.691623 
L 246.199036 120 
L 243.75 120.746373 
L 240 121.233691 
L 236.25 121.946953 
L 232.5 122.244922 
L 230.140381 123 
L 228.75 123.256686 
L 225 124.368063 
L 221.71346 126 
L 221.25 126.266953 
L 217.5 127.631208 
L 213.75 127.803356 
L 210 127.274931 
M 168.75 111.834229 
L 168.387292 111 
L 168.75 110.165771 
L 170.418457 111 
L 168.75 111.834229 
z
" clip-path="url(#pcfd54f8f54)" style="fill: none; stroke: #000000"/>
    <path d="M 720 137.128756 
L 716.25 135.97491 
L 713.081543 135 
L 712.5 134.78853 
L 708.75 133.444922 
L 705 132.056152 
L 704.719238 132 
L 701.25 131.243075 
L 697.5 130.867383 
L 693.75 130.267383 
L 690 129.606712 
L 686.25 129.056152 
L 685.828857 129 
L 682.5 128.556152 
L 678.75 128.128756 
L 675 127.976702 
L 671.25 127.667218 
L 667.5 127.205679 
L 663.75 126.282602 
L 662.831543 126 
L 660 125.128756 
L 656.25 124.056152 
L 653.081543 123 
L 652.5 122.844922 
L 648.75 122.157284 
L 645 121.627872 
L 641.25 120.744141 
L 638.226929 120 
L 637.5 119.806152 
L 633.75 118.806152 
L 630 117.667383 
L 627.914429 117 
L 626.25 116.515803 
L 622.5 114.556152 
L 618.75 114.417114 
L 615 116.190988 
L 611.25 115.244922 
L 608.656413 114 
L 607.5 113.359525 
L 603.75 111.97491 
L 600 111.282602 
L 596.25 111.051833 
L 595.407715 111 
L 592.5 110.821064 
L 588.75 110.844922 
L 585 110.245991 
L 581.25 110.204102 
L 577.5 109.870768 
L 573.75 109.614412 
L 570 109.533691 
L 566.25 109.317801 
L 562.5 109.278076 
L 562.496221 109.277824 
M 539.825889 107.20364 
L 536.25 106.333845 
L 532.5 105.039637 
L 532.394714 105 
L 528.75 103.939719 
L 525.834229 105 
L 525 105.247179 
L 524.073079 105 
L 521.25 103.548131 
L 517.5 103.930201 
L 516.19022 102 
L 514.904225 99 
L 513.912383 96 
L 513.75 95.802734 
L 510.111835 93 
L 510 92.92951 
L 506.25 91.348307 
L 502.802623 90 
L 502.5 89.873186 
L 501.548898 90 
L 498.75 90.540477 
L 495 90.033691 
L 491.25 91.153076 
L 487.5 91.603516 
L 483.75 92.564378 
L 480 92.733691 
L 477.780762 93 
L 476.25 93.131208 
L 472.5 93.174944 
L 471.581543 93 
L 468.75 92.244922 
L 465.918457 93 
L 465 93.193359 
L 461.25 93.667044 
L 457.5 94.09846 
L 453.75 94.533691 
L 450 95.088096 
L 446.25 95.719675 
L 444.918457 96 
L 442.5 96.509149 
L 438.75 97.456517 
L 435 98.204102 
L 432.015381 99 
L 431.25 99.216108 
L 427.5 100.451402 
L 424.50839 102 
L 423.75 102.444922 
L 420.064791 105 
L 420 105.042114 
L 416.25 106.772307 
L 412.5 107.116253 
L 408.75 107.174944 
L 405 107.870768 
L 404.75769 108 
L 401.25 110.405273 
L 400.702226 111 
L 397.787018 114 
L 397.5 114.244922 
L 394.056152 117 
L 393.75 117.216108 
L 390.46346 120 
L 390 120.417114 
L 387.281173 123 
L 386.25 123.824938 
L 383.790109 126 
L 382.5 127.140728 
L 380.397252 129 
L 378.75 130.257901 
L 375.755768 132 
L 375 132.439719 
L 371.25 134.564378 
L 370.744367 135 
L 367.5 137.344317 
L 366.706009 138 
L 363.75 140.702637 
L 363.460897 141 
L 360.699724 144 
L 360 144.505607 
L 356.25 146.863431 
L 356.048251 147 
L 353.133691 150 
L 352.5 150.487455 
L 348.75 152.488351 
L 347.556152 153 
L 345 154.095494 
L 341.25 155.505994 
L 339.872483 156 
L 337.5 157.072775 
L 333.75 158.906953 
L 333.568268 159 
L 330 160.903076 
L 327.468637 162 
L 326.25 162.528076 
L 322.5 164.186953 
L 320.806152 165 
L 318.75 165.986953 
L 315 167.906953 
L 314.806152 168 
L 311.25 169.641301 
L 308.490143 171 
L 307.5 171.551036 
L 303.75 173.546953 
L 302.738735 174 
L 300 175.394265 
L 296.32019 177 
L 296.25 177.032087 
L 292.5 178.653076 
L 288.75 179.910532 
L 288.485662 180 
L 285 181.136068 
L 281.25 182.488351 
L 279.872483 183 
L 277.5 183.822461 
L 273.75 185.122461 
L 271.399449 186 
L 270 186.505607 
L 266.25 187.708557 
L 262.5 188.666877 
L 260.926921 189 
L 258.75 189.489807 
L 255 190.052307 
L 251.25 190.608054 
L 247.5 191.313936 
L 244.260254 192 
L 243.75 192.108054 
L 240 192.990407 
L 236.25 193.990681 
L 232.853253 195 
L 232.5 195.114807 
L 228.75 196.431583 
L 225 197.685384 
L 224.115143 198 
L 221.25 199.018717 
L 217.5 200.045239 
L 213.75 200.531725 
L 210 200.632662 
L 206.25 200.709585 
L 202.5 200.701943 
L 198.75 200.612806 
L 195 200.369563 
L 191.25 200.102051 
L 187.5 199.647824 
L 183.75 198.958557 
L 180.264338 198 
L 180 197.906953 
L 176.25 196.466953 
L 172.72367 195 
L 172.5 194.922461 
L 168.75 193.622461 
L 165 192.222461 
L 164.443848 192 
L 161.25 190.580512 
L 157.5 189.489807 
L 155.718883 189 
L 153.75 188.458557 
L 150 186.962109 
L 147.895386 186 
L 146.25 185.439869 
L 142.5 184.486456 
L 138.75 183.601318 
L 137.131066 183 
L 135 181.891846 
L 132.297363 180 
L 131.25 179.137466 
L 127.5 177.533538 
L 126.271459 177 
L 123.75 175.631208 
L 120.578206 174 
L 120 173.653076 
L 116.25 171.866953 
L 113.583691 174 
L 112.5 174.585779 
L 110.994873 174 
L 109.693848 171 
L 108.75 170.370768 
L 106.980286 171 
L 105 171.269656 
L 101.25 173.12072 
L 100.173798 174 
L 97.5 176.444615 
L 96.960042 177 
L 94.642067 180 
L 93.75 181.038042 
L 92.291788 183 
L 90 185.512478 
L 86.25 183.985174 
L 85.46961 186 
L 82.5 187.721162 
L 80.961005 186 
L 81.170277 183 
L 79.805481 180 
L 80.279837 177 
L 82.375175 174 
L 82.5 173.815111 
L 85.590502 171 
L 86.25 170.374497 
L 87.475139 168 
L 88.556631 165 
L 90 162.489793 
L 90.266696 162 
L 92.545291 159 
L 93.75 157.778674 
L 94.6744 156 
L 95.980595 153 
L 97.5 150.750712 
L 98.151998 150 
L 99.366226 147 
L 100.735655 144 
L 101.25 142.858154 
L 102.540385 141 
L 103.085619 138 
L 102.204157 135 
L 104.351603 132 
L 104.776069 129 
L 103.872286 126 
L 101.816309 123 
L 101.25 122.403886 
L 98.767727 120 
L 100.359442 117 
L 101.25 115.432617 
L 103.040771 114 
L 103.57409 111 
L 105 108.290771 
L 105.107693 108 
L 105 107.870768 
L 101.25 106.072775 
L 98.877517 105 
L 101.25 102.756925 
L 101.943848 102 
L 103.289921 99 
L 102.301374 96 
L 104.887993 93 
L 105 92.863932 
L 107.761649 90 
L 108.055326 87 
L 108.389948 84 
L 108.75 83.254481 
L 109.947693 81 
L 111.695094 78 
L 112.5 76.302379 
L 113.246155 75 
L 112.5 72.612305 
L 112.258301 72 
L 108.75 69.681471 
L 105 69.216108 
L 102.703857 69 
L 101.25 68.224609 
L 100.693848 66 
L 101.25 65.443848 
L 103.541107 63 
L 101.41154 60 
L 103.332694 57 
L 103.598078 54 
L 105 51.532617 
L 105.256066 51 
L 105 50.619559 
L 102.453206 48 
L 101.862219 45 
L 102.68077 42 
L 102.28132 39 
L 102.997437 36 
L 103.471924 33 
L 103.616309 30 
L 103.086714 27 
L 102.464905 24 
L 101.552623 21 
L 101.25 20.334229 
L 99.791107 18 
L 97.5 16.666992 
L 93.75 15.025916 
L 93.697357 15 
L 92.618408 12 
L 90 10.533691 
L 87.443848 9 
L 86.25 7.806152 
L 84.656336 6 
L 82.5 3.744141 
L 81.400701 3 
L 78.75 1.627872 
L 76.71516 0 
L 75.46516 -1 
M 60 195.280384 
L 59.79709 195 
L 60 194.750769 
L 60.36285 195 
L 60 195.280384 
z
M 513.75 111.224973 
L 513.545046 111 
L 513.75 109.387695 
L 514.052307 111 
L 513.75 111.224973 
" clip-path="url(#pcfd54f8f54)" style="fill: none; stroke: #000000"/>
    <path d="M 720 237.351254 
L 716.25 236.403886 
L 712.5 236.104614 
L 708.75 237.282602 
L 705 237.048131 
L 701.25 238.244922 
L 697.5 238.644922 
L 693.75 237.979614 
L 682.078857 237 
L 678.75 236.644922 
L 675 235.644922 
L 671.25 234.244922 
L 663.75 233.044922 
L 660 232.729614 
L 648.75 232.09846 
L 645 231.667044 
L 641.25 230.719675 
L 637.5 229.370768 
L 632.831543 228 
L 626.25 226.451402 
L 622.5 225.824938 
L 615 224.87757 
L 611.25 224.133691 
L 607.5 223.233691 
L 602.984619 222 
L 588.75 218.719675 
L 573.75 214.772307 
L 569.043329 213.573137 
M 547.09934 206.563906 
L 543.75 205.537435 
L 525 200.590294 
L 521.25 200.306152 
L 517.5 199.806152 
L 513.75 198.97491 
L 506.25 196.667218 
L 498.75 193.976702 
L 493.272531 192 
L 491.25 191.128756 
L 486.989746 189 
L 483.75 187.205679 
L 480 185.619559 
L 476.25 184.644922 
L 468.75 183.444922 
L 465 183.039637 
L 457.5 183.048131 
L 453.75 183.216108 
L 450 183.844922 
L 446.25 184.317801 
L 441.390381 186 
L 438.75 186.844922 
L 435 187.205679 
L 427.5 187.383691 
L 423.75 188.510225 
L 420 189.229614 
L 416.25 191.244922 
L 412.5 191.644922 
L 407.780762 192 
L 405 192.370768 
L 397.5 193.614412 
L 393.75 194.133691 
L 390 195.183691 
L 386.25 196.533691 
L 382.5 198.174944 
L 378.75 199.983691 
L 375 202.032087 
L 370.886536 204 
L 367.5 205.083691 
L 356.25 207.870768 
L 352.5 208.930201 
L 348.75 209.603516 
L 345 210.528076 
L 337.5 212.333609 
L 330 214.317801 
L 326.25 214.939719 
L 322.25769 216 
L 318.75 217.530629 
L 315 219.420601 
L 311.25 220.641301 
L 307.5 221.546953 
L 303.75 222.303356 
L 300 223.466953 
L 296.25 225.126684 
L 292.5 226.222461 
L 287.20302 228 
L 281.25 230.053994 
L 273.75 231.699156 
L 270 232.521057 
L 266.25 233.177307 
L 258.75 234.114807 
L 255 234.408833 
L 250.407715 234 
L 246.530762 234 
L 240 234.504698 
L 232.5 235.122995 
L 225 236.017278 
L 217.5 236.709585 
L 210 236.747692 
L 202.5 236.12632 
L 195 236.32497 
L 187.5 236.386153 
L 183.75 236.369563 
L 176.25 236.045239 
L 165 235.801995 
L 161.25 235.558752 
L 150 235.216846 
L 146.25 234.965101 
L 142.5 234.585779 
L 131.25 233.833557 
L 127.5 233.441091 
L 123.75 232.896057 
L 116.25 232.047824 
L 108.75 230.92951 
L 105 229.92951 
L 99.193848 228 
L 93.75 226.111328 
L 90 224.843348 
L 86.25 223.819252 
L 67.5 218.12632 
L 63.75 216.585779 
L 60 214.639833 
L 56.25 212.912686 
L 52.29126 213 
L 48.75 211.219252 
L 45 208.315509 
L 41.25 208.946352 
L 39.953846 210 
L 38.327424 213 
L 37.5 213.608984 
L 36.14066 213 
L 35.006576 210 
L 33.75 208.315509 
L 33.372098 207 
L 34.005335 204 
L 36.295443 201 
L 37.5 200.260169 
L 41.25 198.611432 
L 41.818511 198 
L 45 195.176646 
L 49.067596 195 
L 52.552831 189 
L 52.664985 186 
L 52.5 182.987522 
L 54.784982 177 
L 56.25 174.920087 
L 59.166347 174 
L 60 172.563552 
L 63.75 172.777539 
L 67.5 170.903739 
L 67.979391 168 
L 67.5 167.384055 
L 60 164.96123 
L 56.25 164.951538 
L 54.385871 162 
L 54.539985 159 
L 56.738907 156 
L 57.708252 153 
L 60 150.599121 
L 60.340042 150 
L 60.275503 144 
L 60 142.806152 
L 58.645386 141 
L 56.608887 138 
L 56.25 136.959229 
L 55.218827 135 
L 52.5 133.410532 
L 51.695749 132 
L 52.122116 129 
L 48.566309 126 
L 46.852835 123 
L 44.786095 120 
L 44.228943 117 
L 44.039103 114 
L 45 112.155078 
L 45.424661 111 
L 45 109.980813 
L 43.246155 108 
L 42.707886 105 
L 41.25 101.243075 
L 40.016309 99 
L 37.5 96.483691 
L 36.788689 96 
L 33.75 94.278076 
L 32.551804 93 
L 32.551804 90 
L 33.200351 87 
L 32.066309 84 
L 31.494571 81 
L 30.350406 78 
L 29.53654 75 
L 28.28654 72 
L 26.25 67.810547 
L 25.529896 66 
L 23.957886 63 
L 21.41154 60 
L 18.75 56.821064 
L 15.884857 54 
L 11.193848 48 
L 7.435209 45 
L 2.994232 42 
L 1.203206 39 
L -0.052643 36 
L -1 35.181829 
L -1 35.181829 
" clip-path="url(#pcfd54f8f54)" style="fill: none; stroke: #000000"/>
    <path d="M 720 322.354614 
L 716.25 322.844922 
L 712.5 323.190988 
L 708.75 323.359525 
L 705 323.556152 
L 701.671143 324 
L 701.25 324.051833 
L 697.5 324.333984 
L 693.75 324.084229 
L 693.328857 324 
L 690 323.239118 
L 686.25 322.408203 
L 682.5 321.07487 
L 682.359619 321 
L 678.75 319.844922 
L 675 318.644922 
L 672.984619 318 
L 671.25 317.56178 
L 667.5 316.614412 
L 663.75 316.044922 
L 660 316.556152 
L 656.25 317.741536 
L 652.5 317.167383 
L 648.75 316.152166 
L 645 315.744141 
L 641.25 315.92199 
L 637.5 315.537435 
L 635.484619 315 
L 633.75 313.810547 
L 631.109619 312 
L 630 311.667114 
L 626.25 310.09846 
L 623.332214 309 
L 622.5 308.686696 
L 618.75 307.274931 
L 616.040771 306 
L 615 305.405273 
L 611.49231 303 
L 611.25 302.78853 
L 608.511265 300 
L 607.5 299.128756 
L 603.75 297.783691 
L 600 297.88923 
L 596.25 298.603516 
L 592.5 299.507558 
L 591.084229 300 
L 588.75 301.037435 
L 585 302.821064 
L 584.273071 303 
L 581.25 303.806152 
L 577.5 304.897987 
L 573.75 304.444922 
L 570.363464 303 
L 570 302.870768 
L 566.25 301.724949 
L 562.5 300.84881 
L 560.165771 300 
L 558.75 299.190988 
L 555 297.244922 
L 553.851929 297 
L 551.25 296.359525 
L 547.5 294.806152 
L 545.772531 294 
L 543.75 293.128756 
L 540 291.905273 
L 536.25 291.745519 
L 532.5 292.044922 
L 528.75 292.976702 
L 525 293.537435 
L 521.25 293.245991 
L 517.5 292.844922 
L 513.75 292.697621 
L 510 292.267383 
L 506.25 291.741536 
L 503.469238 291 
L 502.5 290.78853 
L 498.75 290.515803 
L 495 290.167383 
L 491.25 289.741536 
L 487.5 289.697621 
L 483.75 289.644922 
L 480 289.980813 
L 476.390381 291 
L 476.25 291.044922 
L 472.5 292.204102 
L 468.75 292.451402 
L 465 292.762416 
L 461.25 293.515803 
L 457.5 293.306152 
L 453.75 291.690988 
L 452.238464 291 
L 450 290.104614 
L 446.25 288.367383 
L 445.92198 288 
L 442.766309 285 
L 442.5 284.686696 
L 438.75 283.644922 
L 435 284.405273 
L 431.530762 285 
L 431.25 285.056152 
L 427.5 286.567383 
L 423.75 287.408203 
L 420 287.167383 
L 418.265381 288 
L 416.25 289.07487 
L 412.5 288.84881 
L 408.75 289.07487 
L 405 289.644922 
L 401.25 289.381975 
L 397.5 288.745519 
L 396.281363 288 
L 393.75 286.987455 
L 391.218637 288 
L 390 288.506953 
L 386.25 288.037435 
L 382.5 289.298623 
L 378.75 289.976702 
L 375 290.104614 
L 371.25 289.917114 
L 367.5 289.976702 
L 363.75 289.870768 
L 360 290.028076 
L 356.25 290.768427 
L 355.140381 291 
L 352.5 291.603516 
L 348.75 292.121538 
L 345 292.533691 
L 341.25 292.306152 
L 337.5 291.056152 
L 337.078857 291 
L 333.75 290.644922 
L 330 290.686696 
L 326.25 290.844922 
L 322.5 290.292114 
L 318.75 290.104614 
L 315 289.917114 
L 311.25 289.542114 
L 307.5 289.119559 
L 303.75 288.644922 
L 300 288.048131 
L 296.25 288.044922 
L 292.5 288.244922 
L 288.75 288.444922 
L 285 288.644922 
L 281.25 288.844922 
L 277.5 288.844922 
L 273.75 288.051833 
L 273.609619 288 
L 270 286.980813 
L 266.25 287.133691 
L 262.5 287.583691 
L 258.75 287.88923 
L 257.296143 288 
L 255 288.183691 
L 251.25 288.551036 
L 247.5 288.94234 
L 243.75 289.333645 
L 240 289.464079 
L 236.25 289.466953 
L 232.5 289.603516 
L 228.75 288.644922 
L 227.819824 288 
L 225 286.666992 
L 221.25 285.633691 
L 218.986816 285 
L 217.5 284.56178 
L 213.75 283.683691 
L 210 283.174944 
L 206.25 282.333691 
L 204.859619 282 
L 202.5 281.507558 
L 198.75 280.724949 
L 195 279.903076 
L 191.25 279.028076 
L 191.081543 279 
L 187.5 278.469401 
L 183.75 277.845494 
L 180 277.30978 
L 176.25 276.747373 
L 172.5 276.126684 
L 171.734619 276 
L 168.75 275.552307 
L 165 275.111328 
L 161.25 274.722461 
L 157.5 273.986953 
L 154.415771 273 
L 153.75 272.795147 
L 150 271.295147 
L 146.993408 270 
L 146.25 269.762109 
L 142.5 268.991417 
L 138.75 268.441846 
L 135 268.066846 
L 131.25 267.632662 
L 127.5 267.248047 
L 123.75 267.087472 
L 120 267.01567 
L 116.25 267.01567 
L 115.969238 267 
L 112.5 266.768717 
L 108.75 266.352051 
L 105 266.094201 
L 101.25 265.992045 
L 97.5 265.891846 
L 93.75 265.784524 
L 90 265.524065 
L 86.25 264.384055 
L 85.259857 264 
L 82.5 263.369176 
L 78.75 262.775518 
L 78.385193 264 
L 78.75 266.011649 
L 79.356882 267 
L 81.006738 270 
L 82.039819 273 
L 82.303041 276 
L 82.5 276.294582 
L 84.045313 279 
L 82.5 281.786177 
L 78.75 279.688984 
L 77.827253 279 
L 75.251204 276 
L 75 275.634359 
L 73.429852 273 
L 71.81651 270 
L 71.25 268.967692 
L 69.479077 267 
L 67.5 264.012714 
L 67.478403 264 
L 63.75 262.469392 
L 62.005096 261 
L 60.428716 258 
L 60 257.178461 
L 57.704073 255 
L 56.25 254.043126 
L 53.317735 252 
L 52.5 251.018717 
L 48.75 249.948993 
L 45 251.731414 
L 41.25 250.373186 
L 40.068159 249 
L 37.5 246.721342 
L 36.725121 246 
L 34.067596 243 
L 33.75 242.344317 
L 30.617507 240 
L 30 239.641846 
L 26.25 237.091846 
L 26.058655 237 
L 22.5 235.201943 
L 21.036095 234 
L 18.75 231.256686 
L 18.551374 231 
L 16.666443 228 
L 15 225.778076 
L 14.166347 225 
L 11.25 222.822461 
L 9.435748 222 
L 7.5 220.946953 
L 4.734442 219 
L 3.75 218.422461 
L 1.154506 216 
L 0.063211 213 
L 0 212.806152 
L -1 211.406152 
M -1 187.213672 
L 0 186.594727 
L 0.800593 186 
L 0 184.959229 
L -1 184.82208 
M 352.5 319.056152 
L 352.319974 318 
L 352.5 316.591797 
L 352.877197 318 
L 352.5 319.056152 
z
" clip-path="url(#pcfd54f8f54)" style="fill: none; stroke: #000000"/>
    <path d="M 720 397.121538 
L 716.25 398.612806 
L 712.5 398.660271 
L 710.531117 399 
L 705 400.856223 
L 697.537412 401.821358 
M 675.150578 406.910695 
L 675 406.940355 
L 671.25 408.422461 
L 663.75 409.666898 
L 659.584612 411 
L 656.25 411.565874 
L 652.5 412.368063 
L 648.75 413.528076 
L 646.727469 414 
L 637.5 415.464079 
L 633.75 415.844922 
L 626.25 415.946953 
L 622.5 416.306953 
L 618.75 417.029297 
L 615 417.528076 
L 611.25 418.528076 
L 606.667786 420 
L 600 421.746373 
L 581.25 425.245991 
L 577.5 426.174944 
L 573.75 426.903076 
L 570 426.866953 
L 566.25 426.303356 
L 562.5 425.903076 
L 558.75 426.048131 
L 555 426.806152 
L 551.25 427.333845 
L 547.5 428.044922 
L 540 430.548131 
L 536.25 431.870768 
L 532.5 432.032087 
L 528.75 432.051833 
L 525 433.804343 
L 521.25 434.719675 
L 517.5 435.290166 
L 511.453857 435 
L 506.25 434.583691 
L 502.209229 435 
L 498.75 437.128756 
L 496.727469 438 
L 495 438.537435 
L 491.25 439.174944 
L 487.5 439.530629 
L 480 439.533691 
L 476.25 439.746373 
L 468.75 440.507558 
L 463.546143 441 
L 461.25 441.146953 
L 457.078857 441 
L 453.75 440.733691 
L 450 440.317801 
L 442.5 439.833691 
L 438.75 439.627872 
L 435 439.274931 
L 431.25 439.274931 
L 420 440.537435 
L 416.25 440.733691 
L 412.5 440.637993 
L 408.75 440.306953 
L 405 439.691623 
L 401.25 439.322461 
L 390 438.699156 
L 386.25 437.898862 
L 382.5 436.653076 
L 378.75 435.866953 
L 371.25 435.166992 
L 367.5 435.193359 
L 363.75 435.392578 
L 356.25 436.244922 
L 352.5 436.548131 
L 348.75 436.627872 
L 345 437.088096 
L 341.25 437.746373 
L 337.5 438.216108 
L 333.75 438.229614 
L 330 437.704102 
L 326.25 436.917114 
L 322.5 436.333845 
L 318.75 436.436448 
L 315 437.709229 
L 311.25 437.644922 
L 307.5 436.106953 
L 303.75 435.420601 
L 300 435.94234 
L 296.25 437.076083 
L 292.5 437.403886 
L 281.25 436.976702 
L 277.5 437.07487 
L 273.75 437.534766 
L 270 437.224609 
L 266.25 434.224609 
L 264.859619 432 
L 262.5 430.112305 
L 260.414429 429 
L 258.75 428.334229 
L 255 428.167383 
L 251.25 427.548131 
L 246.665771 426 
L 243.75 423.667383 
L 243.154122 423 
L 239.975935 420 
L 238.824557 417 
L 238.402405 411 
L 237.837982 408 
L 237.134857 405 
L 236.613464 402 
L 236.25 401.534766 
L 234.92981 399 
L 233.682507 396 
L 236.25 393.877539 
L 238.185748 393 
L 239.568133 390 
L 238.985118 387 
L 235.359442 381 
L 234.135471 378 
L 232.443848 375 
L 228.697357 372 
L 225 369.509149 
L 223.488464 369 
L 221.25 367.897987 
L 213.75 365.088096 
L 210 364.939719 
L 206.25 365.704102 
L 202.5 365.088096 
L 198.75 366.193359 
L 195 363.982833 
L 191.144714 363 
L 187.5 361.333845 
L 184.906413 360 
L 183.75 359.537435 
L 180 357.88923 
L 176.25 356.583691 
L 172.5 355.083691 
L 170.24231 354 
L 168.75 353.157284 
L 165 350.863166 
L 161.25 349.09846 
L 157.5 347.686696 
L 151.790771 345 
L 150 344.044922 
L 146.25 341.510225 
L 142.42981 339 
L 138.75 337.140728 
L 135 335.537435 
L 130.319824 333 
L 127.5 331.274931 
L 125.037065 330 
L 123.75 329.128756 
L 121.443848 327 
L 112.453206 321 
L 108.685209 318 
L 105 316.083691 
L 101.149126 321 
L 99.152722 324 
L 97.5 325.867839 
L 93.75 326.78089 
L 90 326.271057 
L 86.25 324.824938 
L 85.637741 324 
L 82.5 314.510225 
L 78.75 311.619559 
L 75 309.183691 
L 71.129674 309 
L 67.5 308.50424 
L 63.75 308.602051 
L 60 308.556152 
L 58.990992 306 
L 56.25 302.679763 
L 51.07409 300 
L 48.75 298.641301 
L 41.25 295.87207 
L 36.943848 294 
L 33.75 292.333645 
L 26.25 290.34881 
L 23.020386 288 
L 22.5 287.243075 
L 21.266309 285 
L 18.479866 282 
L 15 279.94234 
L 11.25 278.278076 
L 7.5 275.906953 
L 3.75 274.174944 
L -1 272.392894 
L -1 272.392894 
" clip-path="url(#pcfd54f8f54)" style="fill: none; stroke: #000000"/>
    <path d="M 720 455.174944 
L 717.292786 456 
L 716.25 456.317801 
L 712.5 456.979614 
L 708.75 457.354614 
L 705 457.804343 
L 701.25 458.204102 
L 697.5 458.583691 
L 694.030762 459 
L 693.75 459.033691 
L 690 459.712447 
L 686.25 460.666992 
L 682.5 461.768427 
L 681.548898 462 
L 678.75 462.681471 
L 675 463.394265 
L 671.25 463.939719 
L 667.5 464.507558 
L 665.140381 465 
L 663.75 465.303356 
L 660 466.278076 
L 656.25 467.306953 
L 653.843587 468 
L 652.5 468.386953 
L 648.75 469.466953 
L 645 470.403076 
L 642.441755 471 
L 641.25 471.278076 
L 637.5 472.20321 
L 633.75 473.028076 
L 633.678465 473.044842 
M 611.410407 478.944658 
L 611.25 478.987455 
L 607.593587 480 
L 607.5 480.024957 
L 603.75 480.802734 
L 600 481.641301 
L 596.25 482.448993 
L 593.691755 483 
L 592.5 483.247179 
L 588.75 484.024957 
L 585 484.87207 
L 581.25 485.906953 
L 580.926921 486 
L 577.5 486.948993 
L 573.75 488.028076 
L 570 488.903076 
L 569.584612 489 
L 566.25 489.811906 
L 562.5 490.803356 
L 558.75 491.757901 
L 557.640381 492 
L 555 492.603516 
L 551.25 493.257901 
L 547.5 493.803356 
L 543.75 494.403886 
L 540.210571 495 
L 540 495.035465 
L 536.25 495.569049 
L 532.5 496.298623 
L 528.75 497.076083 
L 525 497.903076 
L 524.584612 498 
L 521.25 498.84881 
L 517.5 499.666992 
L 513.75 500.621538 
L 511.668457 501 
L 510 501.333691 
L 506.25 502.233691 
L 502.5 503.133691 
L 498.890381 504 
L 498.75 504.035465 
L 495 505.083691 
L 491.25 505.983691 
L 487.5 506.88923 
L 487.015381 507 
L 483.75 507.746373 
L 480 508.317801 
L 476.25 508.833691 
L 472.5 509.403886 
L 468.75 509.733691 
L 465 509.883691 
L 462.092285 510 
L 461.25 510.039637 
L 460.828857 510 
L 457.5 509.667114 
L 453.75 509.870768 
L 453.023071 510 
L 450 510.509149 
L 446.25 511.298623 
L 442.5 512.133691 
L 438.75 512.88923 
L 438.023071 513 
L 435 513.509149 
L 431.25 514.233691 
L 427.5 514.683691 
L 423.75 515.56178 
L 421.668457 516 
L 420 516.333691 
L 416.25 516.417114 
L 412.5 516.537435 
L 408.75 516.229614 
L 405 516.933691 
L 401.25 517.394265 
L 397.5 517.803356 
L 393.75 517.746373 
L 390 517.870768 
L 386.25 517.772307 
L 382.5 517.542114 
L 378.75 517.444922 
L 375 516.745519 
L 371.25 516.569049 
L 367.5 516.282602 
L 366.351929 516 
L 363.75 515.537435 
L 360.280762 516 
L 360 516.048131 
L 356.25 517.044922 
L 352.5 518.359525 
L 349.898071 519 
L 348.75 519.183691 
L 345 519.420601 
L 341.25 520.456517 
L 337.5 521.485174 
L 335.477469 522 
L 333.75 522.420601 
L 330 523.653076 
L 326.25 524.757901 
L 325.417786 525 
L 322.5 525.84881 
L 318.75 527.174944 
L 316.343587 528 
L 315 528.439719 
L 311.25 529.121538 
L 307.5 530.032087 
L 304.676921 531 
L 303.75 531.370768 
L 300 532.704102 
L 296.25 533.704102 
L 292.921143 534 
L 292.5 534.032087 
L 288.75 534.317801 
L 285 534.712447 
L 281.25 535.174944 
L 277.5 535.666992 
L 273.75 536.028076 
L 270 536.733691 
L 269.048898 537 
L 266.25 537.746373 
L 262.5 538.683691 
L 258.75 539.076083 
L 255 539.485174 
L 252.168457 540 
L 251.25 540.229614 
L 247.5 541.044922 
L 243.75 541.444922 
L 240 541.897987 
L 236.25 542.190988 
L 232.5 541.917114 
L 228.75 541.729614 
L 225 541.167114 
L 221.25 540.745519 
L 217.5 540.569049 
L 213.75 540.537435 
L 210 540.667044 
L 206.25 540.653076 
L 202.5 540.247179 
L 200.414429 540 
L 198.75 539.746373 
L 195 538.939719 
L 191.25 538.121538 
L 187.823079 537 
L 187.5 536.88923 
L 183.75 535.537435 
L 180.605247 534 
L 180 533.704102 
L 176.25 532.119559 
L 173.451102 531 
L 172.5 530.733691 
L 168.75 530.333755 
L 165 530.333755 
L 161.25 530.292114 
L 157.5 530.104614 
L 153.75 529.917114 
L 150 529.444922 
L 146.25 528.905273 
L 142.5 528.244922 
L 141.734619 528 
L 138.75 526.567383 
L 135 525.061257 
L 134.719238 525 
L 131.25 524.405273 
L 127.5 524.806152 
L 126.530762 525 
L 123.75 525.606712 
L 120 525.333984 
L 118.469238 525 
L 116.25 524.408203 
L 112.5 523.07487 
L 109.476929 522 
L 108.75 521.66769 
L 105.415388 519 
L 105 518.612305 
L 102.201102 516 
L 101.25 514.934766 
L 99.522531 513 
L 97.5 510.734766 
L 96.843959 510 
L 93.75 507.524833 
L 92.984619 507 
L 90 504.953404 
L 88.609619 504 
L 86.25 502.741536 
L 82.984619 501 
L 82.5 500.741536 
L 78.75 498.408203 
L 77.984619 498 
L 75 496.408203 
L 72.359619 495 
L 71.25 494.239118 
L 67.984619 492 
L 67.5 491.612305 
L 64.234619 489 
L 63.75 488.66769 
L 60 486.524833 
L 59.081543 486 
L 56.25 484.381975 
L 53.831543 483 
L 52.5 482.112305 
L 49.859619 480 
L 48.75 479.467383 
L 45 477.741536 
L 43.609619 477 
L 41.25 475.741536 
L 38.800964 474 
L 37.5 472.810547 
L 33.75 471.408203 
L 32.984619 471 
L 30 469.209229 
L 27.984619 468 
L 26.25 466.612305 
L 24.522531 465 
L 22.823079 462 
L 22.5 459.673828 
L 22.359619 459 
L 20.236816 456 
L 18.75 454.334766 
L 15.969238 453 
L 15 452.534766 
L 11.25 450.918457 
L 9.719238 450 
L 7.5 448.224609 
L 6.351929 447 
L 3.75 444.918457 
L 1.453857 444 
L -0 443.224609 
L -1 442.424609 
" clip-path="url(#pcfd54f8f54)" style="fill: none; stroke: #000000"/>
    <path d="M 452.445243 721 
L 452.558245 720 
L 453.75 718.331543 
L 455.081543 717 
L 456.308245 714 
L 457.5 711.775391 
L 458.081543 711 
L 458.609619 708 
L 458.239746 705 
L 459.489746 702 
L 461.144714 699 
L 461.25 698.663086 
L 462.201102 696 
L 463.488464 693 
L 465 691.065234 
L 466.331543 690 
L 468.75 688.065234 
L 470.081543 687 
L 470.831543 684 
L 472.331543 681 
L 472.5 680.865234 
L 476.081543 678 
L 476.25 677.865234 
L 479.234619 675 
L 480 673.775391 
L 481.331543 672 
L 483.75 669.581543 
L 484.331543 669 
L 487.359619 666 
L 487.5 665.865234 
L 490.484619 663 
L 491.25 662.265234 
L 494.081543 660 
L 495 659.387695 
L 497.984619 657 
L 498.75 656.387695 
L 501.734619 654 
L 502.5 653.265234 
L 504.522531 651 
L 506.25 649.065234 
L 507.581543 648 
L 510 645.581543 
L 510.726929 645 
L 513.469238 642 
L 513.75 641.326172 
L 516.657715 639 
L 513.75 636.673828 
L 512.907715 636 
L 510 634.836914 
L 506.25 634.224609 
L 503.953857 633 
L 502.5 632.418457 
L 498.75 632.224609 
L 495.842285 633 
L 495 633.224609 
L 491.25 633.224609 
L 490.828857 633 
L 488.953857 630 
L 487.5 628.836914 
L 485.969238 627 
L 483.75 624.336914 
L 483.469238 624 
L 480.969238 621 
L 480 620.224609 
L 476.25 619.668457 
L 472.5 618.918457 
L 468.75 618.612305 
L 465 618.112305 
L 464.157715 618 
L 461.25 616.836914 
L 458.953857 615 
L 457.5 614.224609 
L 453.75 612.224609 
L 453.328857 612 
L 450 611.112305 
L 446.25 610.810547 
L 442.5 610.584229 
L 438.75 610.697621 
L 435 611.167383 
L 432.398071 612 
L 431.25 612.333984 
L 430.675964 612 
L 429.719238 609 
L 427.5 608.408203 
L 423.75 607.408203 
L 420 606.459229 
L 416.25 606.067383 
L 412.5 606.333984 
L 410.969238 606 
L 408.75 605.467383 
L 405 604.844922 
L 401.25 604.542114 
L 397.5 604.444922 
L 393.75 604.697621 
L 390.765381 606 
L 390 606.262416 
L 386.25 606.306152 
L 384.719238 606 
L 382.5 605.644922 
L 378.75 605.167383 
L 376.148071 606 
L 375 606.918457 
L 372.703857 606 
L 371.25 605.833845 
L 370.926921 606 
L 367.5 608.741536 
L 366.773071 609 
L 363.75 609.604614 
L 360 609.306152 
L 356.25 609.905273 
L 352.5 609.967383 
L 349.476929 609 
L 348.75 608.863166 
L 348.386536 609 
L 345 610.444922 
L 341.355286 612 
L 341.25 612.044922 
L 337.5 612.408203 
L 333.75 613.436448 
L 330 614.510225 
L 328.265381 615 
L 326.25 615.690988 
L 322.5 616.306152 
L 318.75 616.584229 
L 315 616.584229 
L 311.25 617.167383 
L 307.5 617.467383 
L 303.75 617.767383 
L 300 617.515803 
L 296.25 617.056152 
L 292.5 617.306152 
L 289.030762 618 
L 288.75 618.067383 
L 285 618.806152 
L 281.25 620.056152 
L 279.227469 621 
L 277.5 621.806152 
L 273.75 622.556152 
L 270 623.467383 
L 268.335571 624 
L 266.25 624.834229 
L 262.5 625.959229 
L 259.030762 627 
L 258.75 627.061257 
L 255 627.667383 
L 251.25 627.967383 
L 247.5 627.834229 
L 243.75 627.524833 
L 240 627.112305 
L 236.25 627.112305 
L 235.407715 627 
L 232.5 626.534766 
L 228.75 626.612305 
L 225 626.112305 
L 221.25 626.239118 
L 217.921143 627 
L 217.5 627.112305 
L 216.657715 627 
L 213.75 626.612305 
L 210 626.112305 
L 206.25 625.334766 
L 202.5 624.224609 
L 198.75 624.134766 
L 198.328857 624 
L 195 623.408203 
L 191.25 623.78853 
L 189.796143 624 
L 187.5 624.408203 
L 183.75 624.741536 
L 180 625.267383 
L 176.25 626.709229 
L 174.796143 627 
L 172.5 627.459229 
L 171.228436 627.554955 
M 148.534664 629.398829 
L 146.530762 630 
L 146.25 630.084229 
L 142.5 630.612305 
L 138.75 631.810547 
L 135 631.741536 
L 131.25 631.567383 
L 127.5 632.07487 
L 123.75 632.334229 
L 120 632.07487 
L 116.25 631.810547 
L 112.5 631.424893 
L 108.75 630.834229 
L 105 630.459229 
L 101.25 630.606712 
L 97.5 630.408203 
L 93.75 630.834229 
L 90 632.292114 
L 88.426921 633 
L 86.25 633.979614 
L 82.5 634.870768 
L 78.75 635.619559 
L 77.640381 636 
L 75 637.267383 
L 71.25 637.867383 
L 68.418457 639 
L 67.5 639.367383 
L 63.75 640.408203 
L 60 641.741536 
L 58.546143 642 
L 56.25 642.408203 
L 52.5 643.152166 
L 48.75 643.567383 
L 45 644.467383 
L 44.048898 645 
L 41.25 646.119559 
L 37.5 646.867383 
L 33.75 647.66769 
L 33.168457 648 
L 30.105286 651 
L 30 651.224609 
L 27.398071 654 
L 26.25 654.612305 
L 23.265381 657 
L 22.5 657.524833 
L 18.75 657.918457 
L 15 657.134766 
L 11.25 657.096261 
L 7.5 657.524833 
L 3.75 658.381975 
L 0 659.112305 
L -1 659.245638 
M 720 633.612305 
L 716.25 635.418457 
L 715.280762 636 
L 712.5 636.953404 
L 708.75 637.741536 
L 705.210571 639 
L 705 639.096261 
L 701.47006 640.496911 
M 681.119618 651.039071 
L 678.75 652.934766 
L 677.418457 654 
L 675 656.418457 
L 673.546143 657 
L 671.25 658.224609 
L 669.918457 660 
L 667.780762 663 
L 667.5 663.224609 
L 663.75 663.336914 
L 660.421143 666 
L 660 666.224609 
L 656.25 668.418457 
L 652.5 668.534766 
L 651.046143 669 
L 648.75 669.918457 
L 646.148071 672 
L 645 673.224609 
L 641.671143 675 
L 641.25 675.336914 
L 637.5 677.224609 
L 634.592285 678 
L 633.75 678.673828 
L 630 680.224609 
L 628.546143 681 
L 630 682.163086 
L 633.75 683.326172 
L 634.171143 684 
L 636.046143 687 
L 637.5 689.326172 
L 637.710571 690 
L 641.25 692.831543 
L 641.671143 693 
L 643.335571 696 
L 641.460571 699 
L 641.25 699.336914 
L 639.030762 702 
L 637.921143 705 
L 639.918457 708 
L 638.418457 711 
L 638.890381 714 
L 637.780762 717 
L 637.5 717.673828 
L 633.75 719.418457 
L 632.296143 720 
L 632.086914 721 
M 670.726929 721 
L 670.101929 720 
L 671.25 718.163086 
L 674.157715 717 
L 671.25 714.673828 
L 667.5 714.673828 
L 666.530762 717 
L 664.030762 720 
L 663.75 720.673828 
L 663.712935 721 
M 651.300964 721 
L 650.519714 720 
L 648.75 717.168457 
L 648.328857 717 
L 648.75 716.663086 
L 650.969238 714 
L 652.5 713.081543 
L 656.25 713.663086 
L 656.671143 714 
L 660 715.775391 
L 663.75 714.775391 
L 666.657715 714 
L 667.5 713.326172 
L 671.25 713.663086 
L 674.578857 711 
L 675 710.775391 
L 678.75 709.163086 
L 682.5 710.326172 
L 683.342285 711 
L 684.796143 714 
L 686.25 714.33231 
L 690 715.693848 
L 693.75 716.165771 
L 695.418457 717 
L 695.709229 720 
L 696.112305 721 
M 682.5 720.775391 
L 683.469238 720 
L 682.915388 717 
L 682.5 715.836914 
L 679.592285 717 
L 679.592285 720 
L 682.5 720.775391 
z
M 705 717.734766 
L 703.469238 717 
L 705 716.081543 
L 705.574036 717 
L 705 717.734766 
M 697.5 714.224609 
L 697.359619 714 
L 697.5 713.326172 
L 697.921143 714 
L 697.5 714.224609 
z
M 633.75 712.065234 
L 635.969238 711 
L 633.75 709.934766 
L 632.085571 711 
L 633.75 712.065234 
z
" clip-path="url(#pcfd54f8f54)" style="fill: none; stroke: #000000"/>
    <path clip-path="url(#pcfd54f8f54)" style="fill: none; stroke: #000000"/>
    <path clip-path="url(#pcfd54f8f54)" style="fill: none; stroke: #000000"/>
    <path clip-path="url(#pcfd54f8f54)" style="fill: none; stroke: #000000"/>
    <path clip-path="url(#pcfd54f8f54)" style="fill: none; stroke: #000000"/>
    <path clip-path="url(#pcfd54f8f54)" style="fill: none; stroke: #000000"/>
    <path clip-path="url(#pcfd54f8f54)" style="fill: none; stroke: #000000"/>
    <path clip-path="url(#pcfd54f8f54)" style="fill: none; stroke: #000000"/>
    <path clip-path="url(#pcfd54f8f54)" style="fill: none; stroke: #000000"/>
   </g>
   <g id="patch_3">
    <path d="M 0 720 
L 0 720 
L 0 0 
L 720 0 
L 720 720 
L 0 720 
z
" style="fill: none; stroke: #000000; stroke-width: 0.8; stroke-linejoin: miter; stroke-linecap: square"/>
   </g>
   <g id="text_1">
    <g clip-path="url(#pcfd54f8f54)">
     <!-- 1350 -->
     <g transform="translate(208.065081 -6.372165) rotate(-339.699865) scale(0.08 -0.08)">
      <defs>
       <path id="MS-Gothic-31" d="M 1375 50 
L 1375 2000 
L 1375 3925 
L 625 3925 
L 625 4225 
Q 1500 4225 1650 4925 
L 1950 4925 
L 1950 50 
L 1375 50 
z
" transform="scale(0.015625)"/>
       <path id="MS-Gothic-33" d="M 850 1500 
Q 825 950 1075 700 
Q 1250 525 1550 525 
Q 1800 525 2025 750 
Q 2250 975 2250 1500 
Q 2250 1900 1975 2175 
Q 1775 2375 1375 2350 
L 1375 2775 
Q 1775 2800 1975 3000 
Q 2175 3200 2175 3600 
Q 2175 4100 1950 4325 
Q 1800 4475 1575 4475 
Q 1350 4475 1200 4325 
Q 950 4075 925 3575 
L 375 3575 
Q 400 4225 800 4625 
Q 1100 4925 1575 4925 
Q 2075 4925 2375 4625 
Q 2725 4275 2725 3700 
Q 2725 3175 2450 2900 
Q 2200 2650 1975 2575 
Q 2300 2475 2475 2300 
Q 2825 1950 2825 1450 
Q 2825 800 2425 400 
Q 2075 50 1550 50 
Q 975 50 650 375 
Q 275 750 275 1500 
L 850 1500 
z
" transform="scale(0.015625)"/>
       <path id="MS-Gothic-35" d="M 850 1425 
Q 850 925 1100 675 
Q 1250 525 1525 525 
Q 1750 525 1950 725 
Q 2250 1025 2250 1725 
Q 2250 2375 2000 2625 
Q 1850 2775 1650 2775 
Q 1200 2775 925 2250 
L 425 2250 
L 575 4925 
L 2725 4925 
L 2725 4450 
L 1050 4450 
L 950 2825 
Q 1275 3200 1775 3200 
Q 2150 3200 2425 2925 
Q 2825 2525 2825 1725 
Q 2825 875 2350 400 
Q 2000 50 1500 50 
Q 975 50 675 350 
Q 300 725 275 1425 
L 850 1425 
z
" transform="scale(0.015625)"/>
       <path id="MS-Gothic-30" d="M 200 2500 
Q 200 3975 800 4575 
Q 1150 4925 1575 4925 
Q 2000 4925 2350 4575 
Q 2950 3975 2950 2500 
Q 2950 1000 2350 400 
Q 2000 50 1575 50 
Q 1150 50 800 400 
Q 200 1000 200 2500 
z
M 2375 2500 
Q 2375 3825 1900 4300 
Q 1750 4450 1575 4450 
Q 1400 4450 1250 4300 
Q 775 3800 775 2500 
Q 775 1150 1250 675 
Q 1400 525 1575 525 
Q 1750 525 1900 675 
Q 2375 1150 2375 2500 
z
" transform="scale(0.015625)"/>
      </defs>
      <use xlink:href="#MS-Gothic-31"/>
      <use xlink:href="#MS-Gothic-33" transform="translate(50 0)"/>
      <use xlink:href="#MS-Gothic-35" transform="translate(100 0)"/>
      <use xlink:href="#MS-Gothic-30" transform="translate(150 0)"/>
     </g>
    </g>
   </g>
   <g id="text_2">
    <g clip-path="url(#pcfd54f8f54)">
     <!-- 1350 -->
     <g transform="translate(264.041771 123.634094) rotate(-27.062656) scale(0.08 -0.08)">
      <use xlink:href="#MS-Gothic-31"/>
      <use xlink:href="#MS-Gothic-33" transform="translate(50 0)"/>
      <use xlink:href="#MS-Gothic-35" transform="translate(100 0)"/>
      <use xlink:href="#MS-Gothic-30" transform="translate(150 0)"/>
     </g>
    </g>
   </g>
   <g id="text_3">
    <g clip-path="url(#pcfd54f8f54)">
     <!-- 1380 -->
     <g transform="translate(543.026004 108.986461) rotate(-354.001123) scale(0.08 -0.08)">
      <defs>
       <path id="MS-Gothic-38" d="M 1575 2325 
Q 1300 2325 1100 2125 
Q 850 1875 850 1450 
Q 850 950 1100 700 
Q 1300 500 1575 500 
Q 1850 500 2050 700 
Q 2300 950 2300 1450 
Q 2300 1875 2050 2125 
Q 1850 2325 1575 2325 
z
M 2075 2550 
Q 2300 2475 2475 2300 
Q 2875 1900 2875 1450 
Q 2875 775 2475 375 
Q 2150 50 1575 50 
Q 1000 50 675 375 
Q 275 775 275 1450 
Q 275 1900 675 2300 
Q 850 2475 1075 2550 
Q 875 2625 750 2750 
Q 400 3100 400 3575 
L 400 3600 
Q 400 4225 775 4600 
Q 1100 4925 1575 4925 
Q 2050 4925 2375 4600 
Q 2750 4225 2750 3600 
L 2750 3575 
Q 2750 3100 2400 2750 
Q 2275 2625 2075 2550 
z
M 1575 4475 
Q 1325 4475 1150 4300 
Q 950 4100 950 3600 
L 950 3575 
Q 950 3125 1150 2925 
Q 1325 2750 1575 2750 
Q 1825 2750 2000 2925 
Q 2200 3125 2200 3575 
L 2200 3600 
Q 2200 4100 2000 4300 
Q 1825 4475 1575 4475 
z
" transform="scale(0.015625)"/>
      </defs>
      <use xlink:href="#MS-Gothic-31"/>
      <use xlink:href="#MS-Gothic-33" transform="translate(50 0)"/>
      <use xlink:href="#MS-Gothic-38" transform="translate(100 0)"/>
      <use xlink:href="#MS-Gothic-30" transform="translate(150 0)"/>
     </g>
    </g>
   </g>
   <g id="text_4">
    <g clip-path="url(#pcfd54f8f54)">
     <!-- 1410 -->
     <g transform="translate(549.693583 210.00878) rotate(-342.298973) scale(0.08 -0.08)">
      <defs>
       <path id="MS-Gothic-34" d="M 1875 50 
L 1875 625 
L 1875 1200 
L 200 1200 
L 200 1675 
L 1875 4925 
L 2450 4925 
L 2450 1675 
L 2975 1675 
L 2975 1200 
L 2450 1200 
L 2450 50 
L 1875 50 
z
M 1875 1675 
L 1875 3875 
L 750 1675 
L 1875 1675 
z
" transform="scale(0.015625)"/>
      </defs>
      <use xlink:href="#MS-Gothic-31"/>
      <use xlink:href="#MS-Gothic-34" transform="translate(50 0)"/>
      <use xlink:href="#MS-Gothic-31" transform="translate(100 0)"/>
      <use xlink:href="#MS-Gothic-30" transform="translate(150 0)"/>
     </g>
    </g>
   </g>
   <g id="text_5">
    <g clip-path="url(#pcfd54f8f54)">
     <!-- 1440 -->
     <g transform="translate(-77.805261 71.214531) rotate(-315.454934) scale(0.08 -0.08)">
      <use xlink:href="#MS-Gothic-31"/>
      <use xlink:href="#MS-Gothic-34" transform="translate(50 0)"/>
      <use xlink:href="#MS-Gothic-34" transform="translate(100 0)"/>
      <use xlink:href="#MS-Gothic-30" transform="translate(150 0)"/>
     </g>
    </g>
   </g>
   <g id="text_6">
    <g clip-path="url(#pcfd54f8f54)">
     <!-- 1470 -->
     <g transform="translate(678.991922 408.202204) rotate(-12.468362) scale(0.08 -0.08)">
      <defs>
       <path id="MS-Gothic-37" d="M 1025 50 
L 2250 4450 
L 400 4450 
L 400 4925 
L 2775 4925 
L 2775 4400 
L 1600 50 
L 1025 50 
z
" transform="scale(0.015625)"/>
      </defs>
      <use xlink:href="#MS-Gothic-31"/>
      <use xlink:href="#MS-Gothic-34" transform="translate(50 0)"/>
      <use xlink:href="#MS-Gothic-37" transform="translate(100 0)"/>
      <use xlink:href="#MS-Gothic-30" transform="translate(150 0)"/>
     </g>
    </g>
   </g>
   <g id="text_7">
    <g clip-path="url(#pcfd54f8f54)">
     <!-- 1500 -->
     <g transform="translate(615.451052 480.396278) rotate(-15.191523) scale(0.08 -0.08)">
      <use xlink:href="#MS-Gothic-31"/>
      <use xlink:href="#MS-Gothic-35" transform="translate(50 0)"/>
      <use xlink:href="#MS-Gothic-30" transform="translate(100 0)"/>
      <use xlink:href="#MS-Gothic-30" transform="translate(150 0)"/>
     </g>
    </g>
   </g>
   <g id="text_8">
    <g clip-path="url(#pcfd54f8f54)">
     <!-- 1530 -->
     <g transform="translate(-105.102079 727.113858) rotate(-44.944859) scale(0.08 -0.08)">
      <use xlink:href="#MS-Gothic-31"/>
      <use xlink:href="#MS-Gothic-35" transform="translate(50 0)"/>
      <use xlink:href="#MS-Gothic-33" transform="translate(100 0)"/>
      <use xlink:href="#MS-Gothic-30" transform="translate(150 0)"/>
     </g>
    </g>
   </g>
   <g id="text_9">
    <g clip-path="url(#pcfd54f8f54)">
     <!-- 1530 -->
     <g transform="translate(151.976984 630.07037) rotate(-3.677667) scale(0.08 -0.08)">
      <use xlink:href="#MS-Gothic-31"/>
      <use xlink:href="#MS-Gothic-35" transform="translate(50 0)"/>
      <use xlink:href="#MS-Gothic-33" transform="translate(100 0)"/>
      <use xlink:href="#MS-Gothic-30" transform="translate(150 0)"/>
     </g>
    </g>
   </g>
   <g id="text_10">
    <g clip-path="url(#pcfd54f8f54)">
     <!-- 1530 -->
     <g transform="translate(685.117801 651.076084) rotate(-28.567572) scale(0.08 -0.08)">
      <use xlink:href="#MS-Gothic-31"/>
      <use xlink:href="#MS-Gothic-35" transform="translate(50 0)"/>
      <use xlink:href="#MS-Gothic-33" transform="translate(100 0)"/>
      <use xlink:href="#MS-Gothic-30" transform="translate(150 0)"/>
     </g>
    </g>
   </g>
  </g>
 </g>
 <defs>
  <clipPath id="pcfd54f8f54">
   <path d="M 0 720 
L 0 720 
L 0 0 
L 720 0 
L 720 720 
z
"/>
  </clipPath>
 </defs>
</svg>
