<?xml version="1.0" encoding="utf-8" standalone="no"?>
<!DOCTYPE svg PUBLIC "-//W3C//DTD SVG 1.1//EN"
  "http://www.w3.org/Graphics/SVG/1.1/DTD/svg11.dtd">
<svg xmlns:xlink="http://www.w3.org/1999/xlink" width="720pt" height="720pt" viewBox="0 0 720 720" xmlns="http://www.w3.org/2000/svg" version="1.1">
 <metadata>
  <rdf:RDF xmlns:dc="http://purl.org/dc/elements/1.1/" xmlns:cc="http://creativecommons.org/ns#" xmlns:rdf="http://www.w3.org/1999/02/22-rdf-syntax-ns#">
   <cc:Work>
    <dc:type rdf:resource="http://purl.org/dc/dcmitype/StillImage"/>
    <dc:date>2026-03-20T18:58:54.526730</dc:date>
    <dc:format>image/svg+xml</dc:format>
    <dc:creator>
     <cc:Agent>
      <dc:title>Matplotlib v3.10.8, https://matplotlib.org/</dc:title>
     </cc:Agent>
    </dc:creator>
   </cc:Work>
  </rdf:RDF>
 </metadata>
 <defs>
  <style type="text/css">*{stroke-linejoin: round; stroke-linecap: butt}</style>
 </defs>
 <g id="figure_1">
  <g id="patch_1">
   <path d="M 0 720 
L 720 720 
L 720 0 
L 0 0 
L 0 720 
z
" style="fill: none"/>
  </g>
  <g id="axes_1">
   <g id="patch_2">
    <path d="M 0 720 
L 0 720 
L 0 0 
L 720 0 
L 720 720 
L 0 720 
z
" style="fill: none"/>
   </g>
   <g id="GeoContourSet_1">
    <path clip-path="url(#pb26784ffd8)" style="fill: none; stroke: #000000"/>
    <path clip-path="url(#pb26784ffd8)" style="fill: none; stroke: #000000"/>
    <path clip-path="url(#pb26784ffd8)" style="fill: none; stroke: #000000"/>
    <path clip-path="url(#pb26784ffd8)" style="fill: none; stroke: #000000"/>
    <path clip-path="url(#pb26784ffd8)" style="fill: none; stroke: #000000"/>
    <path clip-path="url(#pb26784ffd8)" style="fill: none; stroke: #000000"/>
    <path d="M 720 34.034624 
L 718.686824 33 
L 720 31.547124 
" clip-path="url(#pb26784ffd8)" style="fill: none; stroke: #000000"/>
    <path d="M 720 124.29362 
L 716.25 121.016774 
L 712.5 117.79362 
L 708.75 114.487362 
L 708.232178 114 
L 704.857178 111 
L 693.75 100.455322 
L 682.5 88.552344 
L 675 80.205322 
L 671.25 76.152344 
L 670.221122 75 
L 665.674642 69 
L 663.75 67.152344 
L 662.206682 66 
L 660 64.546186 
L 656.25 63.970215 
L 652.5 62.871902 
L 648.75 60.629329 
L 646.80957 60 
L 648.435407 57 
L 648.75 53.928516 
L 645 49.298651 
L 643.626427 48 
L 641.25 45.94043 
L 633.75 40.571378 
L 630 38.38956 
L 622.5 34.44043 
L 618.75 32.252704 
L 614.740323 30 
L 607.5 25.44894 
L 600 21.63732 
L 588.75 16.877511 
L 583.898926 15 
L 581.25 14.021935 
L 577.5 12.868089 
L 573.75 12.44043 
L 570 12.44043 
L 566.25 12.69043 
L 562.5 12.63732 
L 555 12.207741 
L 551.25 12.753196 
L 547.5 13.025923 
L 543.75 12.94043 
L 540 12.69043 
L 536.25 12.69043 
L 532.5 13.098858 
L 528.75 14.021935 
L 526.984049 15 
L 525 15.952344 
L 521.25 16.546186 
L 517.5 16.546186 
L 513.75 17.330798 
L 510 17.251674 
L 502.5 17.823103 
L 498.75 17.823103 
L 495 17.364258 
L 491.25 17.044316 
L 487.5 17.149325 
L 483.75 17.664258 
L 480 16.680246 
L 476.25 14.69478 
L 472.5 13.19478 
L 453.75 9.595215 
L 450 8.970215 
L 438.937486 7.839413 
M 416.131493 4.629879 
L 407.648926 3 
L 405 2.491406 
L 397.5 1.467507 
L 389.770485 -1 
M 363.898717 -1 
L 363.75 -0.923828 
L 361.584778 0 
L 360 0.922053 
L 357.959159 3 
L 356.25 4.196411 
L 352.5 3.267263 
L 352.195399 3 
L 348.997581 -1 
L 348.997581 -1 
" clip-path="url(#pb26784ffd8)" style="fill: none; stroke: #000000"/>
    <path d="M 720 180.258911 
L 716.25 178.235005 
L 707.34645 173.02806 
M 687.566672 161.216329 
L 675 153.970215 
L 668.591309 150 
L 663.75 146.838485 
L 654.665222 141 
L 648.75 137.251674 
L 641.25 132.864258 
L 633.75 128.364258 
L 625.242397 123 
L 619.972581 120 
L 607.5 113.214258 
L 592.5 105.487362 
L 588.75 104.015008 
L 584.058505 102 
L 581.25 100.764258 
L 577.5 98.96596 
L 573.75 97.626953 
L 570 98.131406 
L 566.25 97.622102 
L 563.921984 96 
L 562.985742 93 
L 562.5 92.514258 
L 558.75 91.251674 
L 551.25 89.055876 
L 543.75 88.467507 
L 540 88.541324 
L 536.25 89.58724 
L 532.5 87.705322 
L 528.75 86.952344 
L 525 86.330798 
L 524.117025 87 
L 521.25 88.651406 
L 519.142822 90 
L 514.226074 96 
L 513.706055 96 
L 511.897339 93 
L 508.965219 90 
L 506.25 88.197557 
L 505.115219 87 
L 502.5 83.665005 
L 499.658634 81 
L 498.75 80.450781 
L 495 78.72447 
L 491.25 78.595215 
L 487.5 76.740234 
L 483.75 76.546186 
L 481.696472 75 
L 480 74.055876 
L 476.25 70.795007 
L 473.533871 69 
L 472.5 68.49307 
L 468.75 68.076172 
L 457.5 67.260184 
L 446.25 66.084635 
L 435 65.306858 
L 412.5 63.720215 
L 405 62.970215 
L 393.75 61.084635 
L 371.25 56.595215 
L 367.5 56.186311 
L 363.75 56.108817 
L 350.178223 57 
L 348.75 57.126953 
L 337.5 59.152344 
L 325.356445 60 
L 322.5 60.120271 
L 318.75 60.436061 
L 315 61.152344 
L 311.25 61.225535 
L 307.5 61.877511 
L 303.75 62.252068 
L 300 62.152344 
L 298.777419 63 
L 296.25 64.383429 
L 292.5 65.214258 
L 288.75 65.330798 
L 285 65.330798 
L 281.25 67.126953 
L 277.5 68.646587 
L 273.75 69.240234 
L 270 69.451406 
L 266.25 70.095215 
L 261.919556 72 
L 258.75 73.014258 
L 255 73.642822 
L 251.25 75.220215 
L 247.5 75.785689 
L 243.75 76.626953 
L 240 77.214258 
L 236.25 78.621094 
L 228.75 79.541324 
L 225 80.091797 
L 223.410645 81 
L 221.25 81.664814 
L 217.5 82.417969 
L 213.75 82.795898 
L 210 82.934044 
L 202.5 83.577615 
L 198.75 84.103871 
L 195 84.229789 
L 187.5 84.29362 
L 183.75 85.080322 
L 180 86.126953 
L 174.702148 87 
L 172.5 87.251674 
L 168.75 87.79362 
L 165 88.699219 
L 161.25 88.857113 
L 157.5 89.577615 
L 153.75 89.720215 
L 150 90.490659 
L 146.25 90.152344 
L 142.5 90.480469 
L 138.75 92.514258 
L 135 93.120271 
L 131.25 93.240234 
L 127.5 93.785689 
L 123.75 96.134421 
L 120 96.352344 
L 116.25 95.823103 
L 112.053223 96 
L 108.75 96.251674 
L 105 97.095215 
L 101.25 99.103871 
L 97.5 102.414258 
L 93.601074 105 
L 90 106.080322 
L 86.197438 108 
L 83.616028 111 
L 82.5 112.098858 
L 78.75 114.330322 
L 75 117.310892 
L 71.25 119.015008 
L 66.300921 120 
L 63.75 120.714258 
L 57.075806 123 
L 56.25 123.755022 
L 54.613037 126 
L 52.5 128.028516 
L 50.982056 129 
L 48.75 130.785645 
L 46.726074 132 
L 45 132.753196 
L 42.623573 135 
L 37.5 136.576172 
L 34.162903 138 
L 33.75 138.310892 
L 31.464258 141 
L 30.150339 144 
L 30 144.035156 
L 26.25 144.038731 
L 22.5 144.504916 
L 15 144.576521 
L 11.25 145.169422 
L 7.150269 147 
L -1 152.030523 
L -1 152.030523 
" clip-path="url(#pb26784ffd8)" style="fill: none; stroke: #000000"/>
    <path d="M 720 228.52908 
L 718.626427 228 
L 716.25 227.084635 
L 712.5 225.751302 
L 710.549504 225 
L 708.75 224.331613 
L 705 222.895583 
L 702.761043 222 
L 701.25 221.417969 
L 697.5 220.010968 
L 694.761963 219 
L 693.75 218.640191 
L 690 217.291406 
L 686.331232 216 
L 686.25 215.971406 
L 682.5 214.595215 
L 678.75 213.220215 
L 678.089355 213 
L 675 212.011406 
L 671.25 210.664814 
L 669.449463 210 
L 667.5 209.251406 
L 663.75 207.895583 
L 661.324463 207 
L 660 206.491406 
L 656.25 204.973524 
L 653.903111 204 
L 652.5 203.371406 
L 648.75 201.811406 
L 646.799504 201 
L 645 200.251406 
L 641.25 198.691406 
L 639.706682 198 
L 637.5 196.970215 
L 633.75 195.345215 
L 632.95335 195 
L 630 193.603871 
L 626.324463 192 
L 626.25 191.967507 
L 622.5 190.251674 
L 619.761963 189 
L 618.75 188.537388 
L 615 186.823103 
L 613.337966 186 
L 611.25 184.914258 
L 607.568735 183 
L 607.5 182.964258 
L 603.75 180.864258 
L 602.087966 180 
L 600 178.914258 
L 596.318735 177 
L 596.25 176.96596 
L 592.5 175.108817 
L 590.261043 174 
L 588.75 173.316746 
L 585 171.680246 
L 583.376687 171 
L 581.25 170.149325 
L 577.5 168.537388 
L 576.089355 168 
L 573.75 167.108817 
L 570 165.714258 
L 568.015951 165 
L 566.25 164.422053 
L 562.5 163.314258 
L 558.75 162.264258 
L 557.648926 162 
L 555 161.29362 
L 551.25 160.369715 
L 547.5 159.626953 
L 544.678711 159 
L 543.75 158.767822 
L 540 157.952344 
L 536.25 157.152344 
L 532.5 156.487362 
L 529.910889 156 
L 528.75 155.767822 
L 525 155.172903 
L 521.25 155.049429 
L 517.5 154.176172 
L 515.803598 153 
L 513.75 151.527074 
L 511.841157 150 
L 510 148.527074 
L 507.593198 147 
L 506.25 146.084635 
L 502.5 145.291406 
L 498.75 144.720215 
L 496.349284 144 
L 495 143.577615 
L 491.25 142.164258 
L 487.611694 141 
L 487.5 140.962377 
L 483.75 139.960286 
L 480 139.058416 
L 476.361694 138 
L 476.25 137.962377 
L 472.5 136.914258 
L 468.75 136.460286 
L 465 136.352344 
L 461.25 135.152344 
L 457.5 135.229789 
L 453.75 136.875925 
L 450 136.740234 
L 447.721122 135 
L 446.25 133.699219 
L 442.886963 132 
L 442.5 131.823103 
L 438.75 130.663225 
L 435 130.234654 
L 431.25 129.626953 
L 427.5 130.571378 
L 425.535645 132 
L 423.75 133.785645 
L 420 133.271126 
L 418.230535 132 
L 416.25 130.115815 
L 414.099731 129 
L 412.5 127.464258 
L 408.75 126.680246 
L 405 126.414258 
L 401.25 126.564258 
L 397.5 126.714258 
L 393.75 127.014258 
L 390 127.225535 
L 386.25 127.541324 
L 382.5 127.79362 
L 378.75 128.126953 
L 375 128.626953 
L 371.25 128.960286 
L 370.803223 129 
L 367.5 129.278166 
L 363.75 129.626953 
L 360 130.225535 
L 356.25 130.857113 
L 352.5 131.488692 
L 349.464111 132 
L 348.75 132.120271 
L 345 132.75185 
L 341.25 133.314258 
L 341.172572 133.325466 
M 318.409235 136.8542 
L 315 137.460286 
L 311.964111 138 
L 311.25 138.134421 
L 307.5 138.840303 
L 303.75 139.626953 
L 300 140.172903 
L 296.25 140.79362 
L 294.702148 141 
L 292.5 141.310892 
L 288.75 142.369715 
L 285 143.580322 
L 283.800921 144 
L 281.25 144.892822 
L 277.5 146.152344 
L 275.229492 147 
L 273.75 147.591797 
L 270 149.306083 
L 268.265206 150 
L 266.25 150.868089 
L 262.5 152.520368 
L 261.567383 153 
L 258.75 154.560397 
L 255.408064 156 
L 255 156.175781 
L 251.25 157.94043 
L 249.660645 159 
L 247.5 160.728516 
L 246.175537 162 
L 243.75 163.791166 
L 242.113037 165 
L 240 166.44894 
L 237.738037 168 
L 236.25 168.952344 
L 232.759677 171 
L 232.5 171.142822 
L 228.75 173.017822 
L 226.567383 174 
L 225 174.626953 
L 221.25 175.722656 
L 217.5 176.78148 
L 216.571289 177 
L 213.75 177.663833 
L 210 178.79362 
L 206.25 179.962377 
L 206.071289 180 
L 202.5 180.79362 
L 198.75 181.626953 
L 195 182.392822 
L 191.25 182.767822 
L 188.928223 183 
L 187.5 183.152344 
L 183.75 183.352344 
L 180 183.352344 
L 176.25 183.152344 
L 174.821777 183 
L 172.5 182.662287 
L 168.75 181.920573 
L 165 181.035645 
L 161.25 180.755022 
L 157.5 180.755022 
L 153.75 181.183594 
L 150 181.253906 
L 146.25 181.098858 
L 142.5 180.892822 
L 138.75 180.487362 
L 135.297852 180 
L 135 179.945012 
L 131.25 179.44043 
L 127.5 179.028516 
L 125.071289 180 
L 123.75 180.528516 
L 120 181.428516 
L 116.25 182.628516 
L 113.928223 183 
L 112.5 183.134421 
L 109.643555 183 
L 108.75 182.962377 
L 105 182.392822 
L 101.25 181.69043 
L 97.5 182.380859 
L 93.75 180.761719 
L 90 182.767822 
L 89.577859 183 
L 86.25 185.928516 
L 86.138306 186 
L 82.5 187.94043 
L 79.851074 189 
L 78.75 189.755022 
L 75 191.920573 
L 71.25 191.78148 
L 70.476074 192 
L 67.5 192.952344 
L 65.580322 195 
L 63.75 196.394531 
L 62.129094 198 
L 60 200.460286 
L 56.25 200.720215 
L 52.5 198.952344 
L 50.876687 198 
L 52.5 197.765817 
L 54.952251 195 
L 54.835289 192 
L 54.187148 189 
L 52.5 186.656738 
L 51.643385 186 
L 48.75 183.504456 
L 45 185.586451 
L 44.438756 186 
L 41.25 187.566406 
L 37.845215 189 
L 37.577201 192 
L 37.5 192.761719 
L 36.660645 195 
L 37.5 196.678711 
L 37.775269 198 
L 41.175537 201 
L 39.746662 204 
L 38.407483 207 
L 37.5 208.771406 
L 36.801935 210 
L 35.323838 213 
L 33.75 215.476172 
L 31.369066 213 
L 31.385825 210 
L 31.929285 207 
L 33.425337 204 
L 32.472303 201 
L 30 198.835569 
L 26.25 199.411551 
L 22.5 200.656356 
L 21.970215 201 
L 20.814258 204 
L 19.300537 207 
L 18.75 207.40655 
L 16.408691 210 
L 15 210.633911 
L 11.25 211.51915 
L 7.5 212.049429 
L 5.44043 213 
L 3.75 214.126953 
L 1.116028 216 
L 0 216.549429 
L -1 217.00329 
M 45 198.617327 
L 44.228341 198 
L 45 197.506138 
L 46.800537 198 
L 45 198.617327 
z
M 30 195.047656 
L 30.111694 195 
L 30 194.880859 
L 29.94043 195 
L 30 195.047656 
z
" clip-path="url(#pb26784ffd8)" style="fill: none; stroke: #000000"/>
    <path d="M 720 284.251406 
L 701.25 278.731406 
L 681.020508 273 
L 675 271.464258 
L 671.25 270.714258 
L 660 268.126953 
L 655.306222 267 
L 652.5 266.214258 
L 643.520508 264 
L 641.25 263.364258 
L 633.75 260.967507 
L 630 259.664572 
L 622.5 256.876598 
L 615 254.364258 
L 607.5 253.329627 
L 603.75 252.487362 
L 592.5 248.680246 
L 585 245.558416 
L 580.525002 243.554138 
M 559.388879 234.402567 
L 558.545968 234 
L 547.5 228.490659 
L 543.75 226.720215 
L 538.705444 225 
L 536.25 224.316746 
L 528.75 222.75185 
L 525 221.814258 
L 517.5 220.225535 
L 510 218.214258 
L 506.25 216.823103 
L 498.75 213.376598 
L 495 212.220215 
L 487.5 210.664814 
L 483.75 210.376172 
L 480 210.821411 
L 476.25 211.603871 
L 472.5 213.845215 
L 468.75 215.29362 
L 467.69043 216 
L 465 218.306083 
L 462.757975 216 
L 460.257975 213 
L 457.5 211.718876 
L 453.75 211.010968 
L 450 212.017822 
L 446.25 215.075597 
L 444.989816 213 
L 442.5 210.417969 
L 438.75 209.422053 
L 435 207.845215 
L 431.25 207.29362 
L 427.5 207.952344 
L 423.75 207.528516 
L 422.924194 207 
L 420 205.298651 
L 416.25 206.328516 
L 412.5 208.025923 
L 408.75 209.38956 
L 405 210.40655 
L 401.25 211.329627 
L 397.5 212.091797 
L 390.952148 213 
L 382.5 214.752344 
L 371.25 216.330322 
L 363.75 217.546186 
L 340.476074 222 
L 330 224.460286 
L 326.25 225.126953 
L 322.5 225.663833 
L 315 226.455322 
L 311.25 226.752344 
L 300 228.142822 
L 296.25 228.752344 
L 285 231.142822 
L 281.25 231.752344 
L 273.75 233.580322 
L 266.25 235.899127 
L 258.75 238.267822 
L 251.25 240.626953 
L 247.5 241.626953 
L 243.169556 243 
L 240 244.352344 
L 235.476074 246 
L 232.5 246.952344 
L 228.75 248.017822 
L 223.452148 249 
L 221.25 249.310892 
L 217.5 249.517822 
L 210 249.552344 
L 198.75 250.080322 
L 180 251.392822 
L 172.5 252.552344 
L 168.75 253.234654 
L 161.964111 255 
L 161.25 255.152344 
L 150 257.021935 
L 146.25 258.175781 
L 138.75 260.19043 
L 133.452148 261 
L 131.25 261.352344 
L 127.5 262.267822 
L 123.75 262.960286 
L 120 263.460286 
L 116.25 264.19043 
L 112.5 265.44894 
L 105 267.69043 
L 97.5 270.253906 
L 93.571289 273 
L 90 274.098858 
L 86.25 275.520368 
L 85.939128 276 
L 85.523387 279 
L 86.59406 282 
L 86.25 283.025923 
L 82.5 284.176172 
L 78.75 284.075597 
L 75 285.552344 
L 71.25 287.483474 
L 67.5 287.605009 
L 66.800537 288 
L 63.75 290.252704 
L 60 291.44043 
L 56.25 292.920573 
L 55.14604 294 
L 52.5 295.791166 
L 50.317383 297 
L 48.75 298.410645 
L 47.305131 300 
L 43.214222 303 
L 40.410645 306 
L 37.5 307.791166 
L 35.044556 309 
L 33.75 310.183594 
L 29.821289 312 
L 26.25 313.098858 
L 21.660645 315 
L 17.535645 318 
L 15 319.560397 
L 13.44043 321 
L 7.5 327.528516 
L 3.392803 333 
L -1 337.728516 
L -1 337.728516 
" clip-path="url(#pb26784ffd8)" style="fill: none; stroke: #000000"/>
    <path d="M 720 356.29362 
L 716.25 354.960286 
L 713.849284 354 
L 712.5 353.460286 
L 708.75 351.79362 
L 706.765951 351 
L 705 350.330798 
L 701.25 348.714258 
L 699.626687 348 
L 697.5 347.149325 
L 693.75 345.512962 
L 692.574463 345 
L 690 343.876598 
L 686.25 342.394531 
L 685.214355 342 
L 682.5 340.96596 
L 678.75 339.537388 
L 676.986694 339 
L 675 338.422053 
L 671.25 337.19478 
L 667.5 336.108817 
L 667.091936 336 
L 663.75 335.186311 
L 660 334.331143 
L 656.25 333.394531 
L 654.770508 333 
L 652.5 332.422053 
L 648.75 331.537388 
L 645 330.537388 
L 643.982155 330.227188 
M 621.856643 323.811262 
L 618.75 323.064258 
L 615 322.108817 
L 611.25 321.114258 
L 610.773926 321 
L 607.5 320.214258 
L 603.75 319.314258 
L 600 318.278166 
L 598.678711 318 
L 596.25 317.460286 
L 592.5 316.541324 
L 588.75 315.75185 
L 585.773926 315 
L 585 314.78148 
L 581.25 313.830322 
L 577.5 312.892822 
L 573.928711 312 
L 573.75 311.95795 
L 570 311.126953 
L 566.25 310.29362 
L 562.5 309.626953 
L 559.678711 309 
L 558.75 308.814258 
L 555 308.015008 
L 551.25 307.014258 
L 548.080444 306 
L 547.5 305.814258 
L 543.75 304.537388 
L 540 303.108817 
L 539.714355 303 
L 536.25 301.680246 
L 532.5 300.120271 
L 532.091936 300 
L 528.75 298.960286 
L 525 298.016774 
L 521.25 297.330322 
L 519.598389 297 
L 517.5 296.626953 
L 513.75 295.960286 
L 510 295.29362 
L 506.25 294.663833 
L 502.723389 294 
L 502.5 293.95795 
L 498.75 293.075597 
L 495 292.369715 
L 491.25 291.705322 
L 487.5 291.330322 
L 483.75 291.330322 
L 480 291.517822 
L 476.25 292.267822 
L 472.5 293.252068 
L 468.75 293.78148 
L 465 293.955322 
L 461.25 293.955322 
L 460.803223 294 
L 457.5 294.352344 
L 453.75 295.267822 
L 450 295.823103 
L 446.25 295.164258 
L 442.5 295.080322 
L 438.75 294.892822 
L 435 294.626953 
L 431.25 294.626953 
L 427.5 294.892822 
L 423.75 295.79362 
L 421.488037 297 
L 420 297.549429 
L 418.626427 297 
L 416.25 295.352344 
L 412.817383 297 
L 412.5 297.134421 
L 408.75 298.183594 
L 405 299.955322 
L 404.776611 300 
L 401.25 300.806083 
L 397.5 300.285695 
L 396.558505 300 
L 393.75 299.084635 
L 390 298.455322 
L 388.283691 300 
L 386.25 302.091797 
L 384.805131 303 
L 382.971889 306 
L 382.5 306.58724 
L 379.484049 309 
L 378.75 309.58724 
L 377.428711 309 
L 375 308.460286 
L 373.785645 309 
L 371.25 311.535645 
L 370.785645 312 
L 367.5 314.19043 
L 366.488037 315 
L 364.835111 318 
L 363.75 319.253906 
L 360 320.58724 
L 359.613037 321 
L 356.25 323.017822 
L 352.5 323.49307 
L 351.645076 321 
L 350.611556 318 
L 348.945199 315 
L 349.157527 312 
L 348.75 311.491406 
L 345 310.058416 
L 341.25 311.330798 
L 339.925537 312 
L 337.5 313.369715 
L 333.75 314.79362 
L 330 314.964258 
L 329.900716 315 
L 326.25 317.628516 
L 324.702148 318 
L 322.5 318.264258 
L 318.75 318.649325 
L 315 319.383429 
L 311.25 320.962377 
L 311.175537 321 
L 307.5 323.205322 
L 305.910645 324 
L 303.75 325.080322 
L 300 326.962377 
L 299.94043 327 
L 296.25 329.767822 
L 295.918318 330 
L 292.5 332.126953 
L 290.988957 333 
L 288.75 334.455322 
L 286.175537 336 
L 285 336.705322 
L 281.25 338.605009 
L 280.48695 339 
L 277.5 340.383429 
L 274.54665 342 
L 273.75 342.63732 
L 270 344.752344 
L 269.535645 345 
L 266.25 346.314258 
L 262.5 346.595215 
L 259.489746 348 
L 258.75 349.183594 
L 255 350.52908 
L 251.25 350.70805 
L 247.5 350.470215 
L 246.617025 351 
L 243.75 352.876598 
L 240 353.491406 
L 237.729492 354 
L 236.25 354.345215 
L 232.5 354.593956 
L 228.75 355.96596 
L 225 356.955322 
L 224.851074 357 
L 221.25 358.920573 
L 219.900716 360 
L 217.5 360.864258 
L 213.75 361.720215 
L 210 362.447181 
L 207.729492 363 
L 206.25 363.414258 
L 202.5 363.593956 
L 198.75 365.734654 
L 197.589111 366 
L 195 366.69043 
L 191.25 368.172903 
L 189.613037 369 
L 187.5 369.845215 
L 183.75 369.278166 
L 180 370.164258 
L 176.25 371.064258 
L 174.123313 372 
L 172.5 373.098858 
L 170.123573 375 
L 168.75 376.098858 
L 165 377.662287 
L 164.419556 378 
L 161.25 379.69043 
L 159.464222 381 
L 157.5 382.728516 
L 156.277419 384 
L 153.75 386.628516 
L 153.363037 387 
L 151.373573 390 
L 150 391.785645 
L 149.19043 393 
L 147.300379 396 
L 146.25 397.428516 
L 144.613037 399 
L 142.5 400.844105 
L 139.851074 402 
L 138.75 402.352344 
L 135 402.253906 
L 131.567383 405 
L 131.800537 408 
L 131.25 408.528516 
L 128.873573 411 
L 127.5 413.040737 
L 126.660645 414 
L 124.835111 417 
L 124.421735 420 
L 123.75 420.94043 
L 120.317383 423 
L 120 423.761719 
L 118.950806 426 
L 116.800537 429 
L 116.25 429.58724 
L 113.988037 432 
L 112.5 434.380859 
L 112.077859 435 
L 109.866028 438 
L 108.75 440.857031 
L 108.681265 441 
L 106.584778 444 
L 106.825358 447 
L 105.671735 450 
L 105.142822 453 
L 105.517822 456 
L 106.763306 459 
L 105 460.410645 
L 103.589355 459 
L 101.25 457.560397 
L 97.5 458.897879 
L 97.447438 459 
L 96.488037 462 
L 93.75 464.19043 
L 91.321289 465 
L 92.305131 468 
L 91.150716 471 
L 90 471.63732 
L 89.058505 471 
L 86.25 469.455322 
L 83.824463 468 
L 82.5 466.844105 
L 78.75 467.910645 
L 78.526611 468 
L 75 469.410645 
L 73.234049 471 
L 71.25 473.040737 
L 70.410645 474 
L 68.910645 477 
L 67.5 479.257031 
L 67.035645 480 
L 65.317383 483 
L 64.107056 486 
L 63.75 486.761719 
L 62.910645 489 
L 61.479492 492 
L 61.150716 495 
L 60.941495 498 
L 60.863037 501 
L 61.543318 504 
L 62.19043 507 
L 63.050537 510 
L 61.763306 513 
L 60 514.880859 
L 58.601074 516 
L 57.351074 519 
L 56.25 520.057031 
L 52.5 520.183594 
L 48.75 520.183594 
L 45 521.380859 
L 43.839111 522 
L 41.25 523.657031 
L 38.660889 522 
L 37.5 521.380859 
L 33.75 519.253906 
L 32.646659 522 
L 32.845215 525 
L 32.850248 528 
L 33.15046 531 
L 33.75 533.238281 
L 34.464111 534 
L 33.75 534.761719 
L 32.817383 537 
L 31.101074 540 
L 30 540.330322 
L 26.25 541.552344 
L 24.162034 543 
L 23.050537 546 
L 22.5 546.352344 
L 18.75 548.514258 
L 17.64604 549 
L 15 550.552344 
L 13.492025 552 
L 11.25 554.935014 
L 7.5 554.955322 
L 3.75 552.44043 
L 3.337097 552 
L 1.841157 549 
L 1.154349 546 
L 0 544.432884 
L -1 544.431719 
M 41.25 531.326451 
L 40.297852 531 
L 41.25 530.673549 
L 45 530.619141 
L 45.219727 531 
L 45 531.253906 
L 41.25 531.326451 
z
" clip-path="url(#pb26784ffd8)" style="fill: none; stroke: #000000"/>
    <path clip-path="url(#pb26784ffd8)" style="fill: none; stroke: #000000"/>
    <path clip-path="url(#pb26784ffd8)" style="fill: none; stroke: #000000"/>
    <path clip-path="url(#pb26784ffd8)" style="fill: none; stroke: #000000"/>
    <path clip-path="url(#pb26784ffd8)" style="fill: none; stroke: #000000"/>
    <path clip-path="url(#pb26784ffd8)" style="fill: none; stroke: #000000"/>
    <path clip-path="url(#pb26784ffd8)" style="fill: none; stroke: #000000"/>
    <path clip-path="url(#pb26784ffd8)" style="fill: none; stroke: #000000"/>
    <path clip-path="url(#pb26784ffd8)" style="fill: none; stroke: #000000"/>
   </g>
   <g id="patch_3">
    <path d="M 0 720 
L 0 720 
L 0 0 
L 720 0 
L 720 720 
L 0 720 
z
" style="fill: none; stroke: #000000; stroke-width: 0.8; stroke-linejoin: miter; stroke-linecap: square"/>
   </g>
   <g id="text_1">
    <g clip-path="url(#pb26784ffd8)">
     <!-- 1410 -->
     <g transform="translate(419.212657 7.864103) rotate(-351.649066) scale(0.08 -0.08)">
      <defs>
       <path id="MS-Gothic-31" d="M 1375 50 
L 1375 2000 
L 1375 3925 
L 625 3925 
L 625 4225 
Q 1500 4225 1650 4925 
L 1950 4925 
L 1950 50 
L 1375 50 
z
" transform="scale(0.015625)"/>
       <path id="MS-Gothic-34" d="M 1875 50 
L 1875 625 
L 1875 1200 
L 200 1200 
L 200 1675 
L 1875 4925 
L 2450 4925 
L 2450 1675 
L 2975 1675 
L 2975 1200 
L 2450 1200 
L 2450 50 
L 1875 50 
z
M 1875 1675 
L 1875 3875 
L 750 1675 
L 1875 1675 
z
" transform="scale(0.015625)"/>
       <path id="MS-Gothic-30" d="M 200 2500 
Q 200 3975 800 4575 
Q 1150 4925 1575 4925 
Q 2000 4925 2350 4575 
Q 2950 3975 2950 2500 
Q 2950 1000 2350 400 
Q 2000 50 1575 50 
Q 1150 50 800 400 
Q 200 1000 200 2500 
z
M 2375 2500 
Q 2375 3825 1900 4300 
Q 1750 4450 1575 4450 
Q 1400 4450 1250 4300 
Q 775 3800 775 2500 
Q 775 1150 1250 675 
Q 1400 525 1575 525 
Q 1750 525 1900 675 
Q 2375 1150 2375 2500 
z
" transform="scale(0.015625)"/>
      </defs>
      <use xlink:href="#MS-Gothic-31"/>
      <use xlink:href="#MS-Gothic-34" transform="translate(50 0)"/>
      <use xlink:href="#MS-Gothic-31" transform="translate(100 0)"/>
      <use xlink:href="#MS-Gothic-30" transform="translate(150 0)"/>
     </g>
    </g>
   </g>
   <g id="text_2">
    <g clip-path="url(#pb26784ffd8)">
     <!-- 1410 -->
     <g transform="translate(-105.796562 141.787807) rotate(-333.22182) scale(0.08 -0.08)">
      <use xlink:href="#MS-Gothic-31"/>
      <use xlink:href="#MS-Gothic-34" transform="translate(50 0)"/>
      <use xlink:href="#MS-Gothic-31" transform="translate(100 0)"/>
      <use xlink:href="#MS-Gothic-30" transform="translate(150 0)"/>
     </g>
    </g>
   </g>
   <g id="text_3">
    <g clip-path="url(#pb26784ffd8)">
     <!-- 1440 -->
     <g transform="translate(689.326083 165.112038) rotate(-328.904842) scale(0.08 -0.08)">
      <use xlink:href="#MS-Gothic-31"/>
      <use xlink:href="#MS-Gothic-34" transform="translate(50 0)"/>
      <use xlink:href="#MS-Gothic-34" transform="translate(100 0)"/>
      <use xlink:href="#MS-Gothic-30" transform="translate(150 0)"/>
     </g>
    </g>
   </g>
   <g id="text_4">
    <g clip-path="url(#pb26784ffd8)">
     <!-- 1440 -->
     <g transform="translate(-168.172214 106.226053) rotate(-50.052292) scale(0.08 -0.08)">
      <use xlink:href="#MS-Gothic-31"/>
      <use xlink:href="#MS-Gothic-34" transform="translate(50 0)"/>
      <use xlink:href="#MS-Gothic-34" transform="translate(100 0)"/>
      <use xlink:href="#MS-Gothic-30" transform="translate(150 0)"/>
     </g>
    </g>
   </g>
   <g id="text_5">
    <g clip-path="url(#pb26784ffd8)">
     <!-- 1470 -->
     <g transform="translate(322.286874 138.803978) rotate(-9.164742) scale(0.08 -0.08)">
      <defs>
       <path id="MS-Gothic-37" d="M 1025 50 
L 2250 4450 
L 400 4450 
L 400 4925 
L 2775 4925 
L 2775 4400 
L 1600 50 
L 1025 50 
z
" transform="scale(0.015625)"/>
      </defs>
      <use xlink:href="#MS-Gothic-31"/>
      <use xlink:href="#MS-Gothic-34" transform="translate(50 0)"/>
      <use xlink:href="#MS-Gothic-37" transform="translate(100 0)"/>
      <use xlink:href="#MS-Gothic-30" transform="translate(150 0)"/>
     </g>
    </g>
   </g>
   <g id="text_6">
    <g clip-path="url(#pb26784ffd8)">
     <!-- 1500 -->
     <g transform="translate(561.629711 238.166197) rotate(-337.387921) scale(0.08 -0.08)">
      <defs>
       <path id="MS-Gothic-35" d="M 850 1425 
Q 850 925 1100 675 
Q 1250 525 1525 525 
Q 1750 525 1950 725 
Q 2250 1025 2250 1725 
Q 2250 2375 2000 2625 
Q 1850 2775 1650 2775 
Q 1200 2775 925 2250 
L 425 2250 
L 575 4925 
L 2725 4925 
L 2725 4450 
L 1050 4450 
L 950 2825 
Q 1275 3200 1775 3200 
Q 2150 3200 2425 2925 
Q 2825 2525 2825 1725 
Q 2825 875 2350 400 
Q 2000 50 1500 50 
Q 975 50 675 350 
Q 300 725 275 1425 
L 850 1425 
z
" transform="scale(0.015625)"/>
      </defs>
      <use xlink:href="#MS-Gothic-31"/>
      <use xlink:href="#MS-Gothic-35" transform="translate(50 0)"/>
      <use xlink:href="#MS-Gothic-30" transform="translate(100 0)"/>
      <use xlink:href="#MS-Gothic-30" transform="translate(150 0)"/>
     </g>
    </g>
   </g>
   <g id="text_7">
    <g clip-path="url(#pb26784ffd8)">
     <!-- 1530 -->
     <g transform="translate(624.526267 327.203016) rotate(-343.623919) scale(0.08 -0.08)">
      <defs>
       <path id="MS-Gothic-33" d="M 850 1500 
Q 825 950 1075 700 
Q 1250 525 1550 525 
Q 1800 525 2025 750 
Q 2250 975 2250 1500 
Q 2250 1900 1975 2175 
Q 1775 2375 1375 2350 
L 1375 2775 
Q 1775 2800 1975 3000 
Q 2175 3200 2175 3600 
Q 2175 4100 1950 4325 
Q 1800 4475 1575 4475 
Q 1350 4475 1200 4325 
Q 950 4075 925 3575 
L 375 3575 
Q 400 4225 800 4625 
Q 1100 4925 1575 4925 
Q 2075 4925 2375 4625 
Q 2725 4275 2725 3700 
Q 2725 3175 2450 2900 
Q 2200 2650 1975 2575 
Q 2300 2475 2475 2300 
Q 2825 1950 2825 1450 
Q 2825 800 2425 400 
Q 2075 50 1550 50 
Q 975 50 650 375 
Q 275 750 275 1500 
L 850 1500 
z
" transform="scale(0.015625)"/>
      </defs>
      <use xlink:href="#MS-Gothic-31"/>
      <use xlink:href="#MS-Gothic-35" transform="translate(50 0)"/>
      <use xlink:href="#MS-Gothic-33" transform="translate(100 0)"/>
      <use xlink:href="#MS-Gothic-30" transform="translate(150 0)"/>
     </g>
    </g>
   </g>
  </g>
 </g>
 <defs>
  <clipPath id="pb26784ffd8">
   <path d="M 0 720 
L 0 720 
L 0 0 
L 720 0 
L 720 720 
z
"/>
  </clipPath>
 </defs>
</svg>
