<?xml version="1.0" encoding="utf-8" standalone="no"?>
<!DOCTYPE svg PUBLIC "-//W3C//DTD SVG 1.1//EN"
  "http://www.w3.org/Graphics/SVG/1.1/DTD/svg11.dtd">
<svg xmlns:xlink="http://www.w3.org/1999/xlink" width="720pt" height="720pt" viewBox="0 0 720 720" xmlns="http://www.w3.org/2000/svg" version="1.1">
 <metadata>
  <rdf:RDF xmlns:dc="http://purl.org/dc/elements/1.1/" xmlns:cc="http://creativecommons.org/ns#" xmlns:rdf="http://www.w3.org/1999/02/22-rdf-syntax-ns#">
   <cc:Work>
    <dc:type rdf:resource="http://purl.org/dc/dcmitype/StillImage"/>
    <dc:date>2026-03-20T18:58:45.189401</dc:date>
    <dc:format>image/svg+xml</dc:format>
    <dc:creator>
     <cc:Agent>
      <dc:title>Matplotlib v3.10.8, https://matplotlib.org/</dc:title>
     </cc:Agent>
    </dc:creator>
   </cc:Work>
  </rdf:RDF>
 </metadata>
 <defs>
  <style type="text/css">*{stroke-linejoin: round; stroke-linecap: butt}</style>
 </defs>
 <g id="figure_1">
  <g id="patch_1">
   <path d="M 0 720 
L 720 720 
L 720 0 
L 0 0 
L 0 720 
z
" style="fill: none"/>
  </g>
  <g id="axes_1">
   <g id="patch_2">
    <path d="M 0 720 
L 0 720 
L 0 0 
L 720 0 
L 720 720 
L 0 720 
z
" style="fill: none"/>
   </g>
   <g id="GeoContourSet_1">
    <path clip-path="url(#p7b1f5c9720)" style="fill: none; stroke: #000000"/>
    <path clip-path="url(#p7b1f5c9720)" style="fill: none; stroke: #000000"/>
    <path clip-path="url(#p7b1f5c9720)" style="fill: none; stroke: #000000"/>
    <path clip-path="url(#p7b1f5c9720)" style="fill: none; stroke: #000000"/>
    <path d="M 423.75 163.438382 
L 420 158.261719 
L 417.818985 158.803212 
M 399.663497 151.168726 
L 398.275635 150 
L 397.5 149.172656 
L 390 145.87315 
L 386.25 142.715255 
L 382.5 138.64388 
L 381.963433 138 
L 380.720508 135 
L 381.170508 132 
L 381.930084 129 
L 383.01709 126 
L 383.455811 123 
L 383.074544 120 
L 382.274603 117 
L 381.01709 114 
L 378.75 110.372656 
L 377.664944 108 
L 375 100.96582 
L 374.358972 99 
L 372.666931 93 
L 371.25 88.972656 
L 370.495157 87 
L 370.213323 84 
L 370.989467 81 
L 375 73.621791 
L 376.01362 72 
L 377.415334 69 
L 378.75 65.671186 
L 379.983972 63 
L 383.356567 57 
L 385.407506 54 
L 386.25 52.974355 
L 390 49.518643 
L 393.75 47.26709 
L 397.735668 45 
L 401.855597 42 
L 406.592439 39 
L 408.75 37.785373 
L 412.724352 36 
L 416.25 34.835003 
L 420 34.103338 
L 423.75 34.570747 
L 427.5 36.136406 
L 431.25 38.126302 
L 435 40.681858 
L 436.271066 42 
L 437.563477 45 
L 438.75 47.01709 
L 439.469203 48 
L 442.5 51.35612 
L 445.916138 57 
L 444.985758 60 
L 446.25 63.80127 
L 446.98291 66 
L 445.904038 69 
L 445.743087 72 
L 446.25 72.770508 
L 450 73.71224 
L 453.75 73.305246 
L 457.5 76.44264 
L 458.655853 78 
L 461.819916 84 
L 462.095666 87 
L 461.25 88.256417 
L 459.21582 90 
L 461.25 93.064749 
L 468.75 93.006615 
L 470.959403 96 
L 468.75 97.405984 
L 462.543202 99 
L 461.25 100.106741 
L 458.499657 102 
L 459.490618 105 
L 459.094936 108 
L 461.25 110.194247 
L 461.738784 111 
L 462.274841 114 
L 461.25 117.294202 
L 459.17701 120 
L 457.921923 123 
L 457.5 123.119016 
L 456.07015 123 
L 453.75 121.922253 
L 450 122.472317 
L 449.201532 123 
L 445.749724 126 
L 441.289746 129 
L 438.75 130.991958 
L 437.818657 132 
L 437.870309 135 
L 438.226984 138 
L 439.155273 141 
L 441.039484 144 
L 442.5 144.685469 
L 444.195213 147 
L 444.426639 150 
L 442.5 151.38718 
L 439.82816 153 
L 439.15814 156 
L 438.75 156.80886 
L 435.205509 159 
L 435 159.372656 
L 433.827079 162 
L 431.25 164.886328 
L 427.5 164.990234 
L 423.75 163.438382 
L 423.75 163.438382 
" clip-path="url(#p7b1f5c9720)" style="fill: none; stroke: #000000"/>
    <path d="M 528.476119 -1 
L 527.680664 0 
L 526.832275 3 
L 525 4.599077 
L 521.25 6.258984 
L 517.1721 9 
L 514.82373 12 
L 513.717957 15 
L 513.525648 18 
L 514.053796 21 
L 514.884127 24 
L 515.229492 27 
L 513.96582 36 
L 514.21582 39 
L 514.186707 42 
L 514.763184 45 
L 515.689872 48 
L 517.5 51.915737 
L 518.328968 54 
L 520.086405 60 
L 520.479492 63 
L 520.076435 66 
L 519.222761 69 
L 518.25698 75 
L 517.926097 78 
L 515.930597 84 
L 516.51572 87 
L 516.782779 90 
L 515.306042 93 
L 515.307844 96 
L 513.75 96.687049 
L 510 98.064646 
L 509.135284 99 
L 506.25 101.070933 
L 505.50143 102 
L 504.154676 105 
L 501.951438 108 
L 501.396336 111 
L 501.58091 114 
L 501.540855 117 
L 501.753342 123 
L 500.992112 126 
L 498.75 129.143329 
L 495 132.257552 
L 490.923258 135 
L 487.5 138.223594 
L 485.383837 141 
L 483.738348 144 
L 482.953193 147 
L 481.594936 153 
L 480.719203 156 
L 479.405273 159 
L 478.153985 162 
L 477.139746 165 
L 476.25 168.61356 
L 475.379944 171 
L 474.119289 174 
L 473.141028 177 
L 472.3907 180 
L 471.795719 183 
L 471.813777 189 
L 469.487183 192 
L 468.75 192.714844 
L 466.131592 195 
L 465.362183 198 
L 465 201.28776 
L 463.947838 204 
L 461.25 205.604868 
L 458.292926 207 
L 453.75 208.106047 
L 449.884382 207 
L 446.25 205.230214 
L 442.5 205.202833 
L 441.191723 204 
L 438.75 200.738607 
L 435 200.452637 
L 427.5 201.196438 
L 426.896362 201 
L 423.75 200.149153 
L 420 197.10803 
L 416.25 196.804996 
L 412.5 199.189746 
L 408.75 200.752364 
L 405 200.826753 
L 401.25 199.66488 
L 393.75 197.711392 
L 386.25 196.453411 
L 382.5 195.988607 
L 378.75 195.351207 
L 375 194.286328 
L 371.25 192.842494 
L 369.515453 192 
L 367.5 191.216853 
L 363.481258 189 
L 359.131557 186 
L 356.25 184.207031 
L 354.845265 183 
L 355.511393 180 
L 355.951742 177 
L 353.500334 174 
L 351.940493 171 
L 349.476493 162 
L 348.396651 159 
L 343.733243 147 
L 341.52596 141.006559 
M 333.279388 119.497414 
L 332.344938 117 
L 330 112.042132 
L 327.718151 108 
L 326.120508 105 
L 324.320508 102 
L 322.5 98.621094 
L 321.217943 96 
L 318.6301 90 
L 317.518989 87 
L 316.268989 84 
L 314.9019 81 
L 313.6519 78 
L 311.25 74.622932 
L 307.5 73.086328 
L 303.75 75.039844 
L 300 75.266513 
L 299.60737 75 
L 300 74.022786 
L 301.338609 72 
L 302.586136 69 
L 303.75 66.616406 
L 304.17806 66 
L 303.75 64.71582 
L 302.720508 63 
L 301.494481 60 
L 303.75 58.060254 
L 305.460087 57 
L 305.222575 54 
L 305.729029 51 
L 309.060564 48 
L 311.643116 45 
L 311.050363 42 
L 310.892406 39 
L 311.25 38.682829 
L 313.485691 36 
L 315 34.822678 
L 317.073881 33 
L 317.883545 30 
L 319.402542 27 
L 322.5 24.168039 
L 322.90561 24 
L 325.560128 21 
L 323.920898 18 
L 324.105931 15 
L 325.215193 12 
L 322.5 9.827846 
L 321.775635 9 
L 320.011393 6 
L 323.500334 3 
L 326.25 1.182829 
L 328.443958 0 
L 328.569475 -1 
L 328.569475 -1 
" clip-path="url(#p7b1f5c9720)" style="fill: none; stroke: #000000"/>
    <path d="M 720 59.772656 
L 712.5 60.161865 
L 708.75 59.786865 
L 701.25 58.572656 
L 693.75 56.276142 
L 690 54.621094 
L 686.25 53.658984 
L 682.5 54.954427 
L 678.75 55.82373 
L 674.743652 57 
L 671.25 57.46582 
L 667.5 57.21582 
L 667.037528 57 
L 664.819336 54 
L 663.75 53.551897 
L 660 53.379492 
L 658.276367 54 
L 656.25 54.972656 
L 652.5 56.622932 
L 645 57.310547 
L 641.25 58.286865 
L 636.434326 60 
L 633.75 60.71582 
L 630 61.470703 
L 622.5 62.21582 
L 620.819615 63 
L 618.75 64.28776 
L 616.609701 66 
L 615 67.44873 
L 613.589755 69 
L 611.193034 72 
L 609.033901 75 
L 607.5 75.660757 
L 598.930664 81 
L 595.677665 84 
L 591.764832 87 
L 588.499253 90 
L 585 93.798549 
L 583.624093 96 
L 581.25 97.899275 
L 579.498846 99 
L 577.195522 102 
L 575.052665 105 
L 572.268254 108 
L 569.159807 111 
L 566.25 114.28776 
L 564.070522 117 
L 561.018254 120 
L 557.374093 123 
L 553.96582 126 
L 551.25 129.69873 
L 549.71582 132 
L 546.638184 138 
L 545.499332 141 
L 544.51249 144 
L 543.349365 147 
L 541.846517 150 
L 539.749253 153 
L 536.25 156.184989 
L 532.5 159.46582 
L 528.75 163.96582 
L 528.044877 165 
L 525 168.660757 
L 523.416138 171 
L 518.782057 177 
L 516.759127 180 
L 514.978638 183 
L 512.829492 186 
L 509.978638 189 
L 506.25 192.429492 
L 502.5 195.503906 
L 496.544362 199.246095 
M 480.129287 215.205819 
L 480 215.342494 
L 477.366455 219 
L 476.25 220.140209 
L 468.75 224.061663 
L 465 225.113024 
L 461.25 226.210674 
L 458.742232 228 
L 457.5 229.130859 
L 455.740095 231 
L 452.105455 234 
L 450 235.638217 
L 447.238607 237 
L 446.25 237.69784 
L 444.661168 237 
L 442.5 236.179489 
L 440.490784 234 
L 439.635334 231 
L 439.040597 228 
L 438.75 227.445224 
L 435 226.446716 
L 431.25 227.639017 
L 430.48291 228 
L 427.5 229.213387 
L 423.69873 228 
L 420 228.448331 
L 416.25 229.569319 
L 412.5 230.242676 
L 405 231.199825 
L 401.25 232.009997 
L 397.5 232.067733 
L 390 229.936849 
L 386.25 229.519815 
L 382.5 229.319035 
L 378.75 228.580193 
L 375 228.165189 
L 367.5 228.210724 
L 363.75 227.931797 
L 360 227.227252 
L 356.25 226.237544 
L 352.196204 225 
L 348.75 223.825738 
L 337.201742 219 
L 333.75 215.694754 
L 331.310783 213 
L 330 212.019027 
L 326.25 209.518433 
L 322.5 206.429253 
L 320.397761 204 
L 318.122261 201 
L 315 197.984225 
L 313.060254 195 
L 312.305908 192 
L 312.801608 189 
L 312.268602 186 
L 311.25 182.970703 
L 307.5 173.972656 
L 305.951742 171 
L 303.75 166.470703 
L 302.970082 165 
L 297.476216 156 
L 295.713609 153 
L 294.039459 150 
L 286.181472 138 
L 281.25 130.470703 
L 275.891856 123 
L 273.446204 120 
L 270 116.14388 
L 267.162511 114 
L 266.25 113.612183 
L 262.5 113.012823 
L 258.75 112.686736 
L 255 112.905273 
L 251.25 111.628209 
L 250.435655 111 
L 247.5 109.756664 
L 245.260254 108 
L 244.981567 105 
L 246.706836 102 
L 248.115784 99 
L 251.068909 96 
L 251.51746 93 
L 252.147034 90 
L 252.95723 87 
L 252.638014 84 
L 254.768764 81 
L 251.25 76.849365 
L 250.222575 75 
L 250.823903 69 
L 249.971642 66 
L 248.986816 63 
L 247.5 62.069124 
L 244.796032 60 
L 245.118408 57 
L 244.455123 54 
L 243.75 53.48291 
L 240 53.045424 
L 236.25 50.941406 
L 235.296766 48 
L 233.673565 45 
L 232.5 43.372656 
L 231.330123 42 
L 229.310128 39 
L 228.75 38.372656 
L 225 34.91705 
L 221.25 32.310547 
L 217.5 29.975873 
L 213.75 26.979492 
L 210 25.786328 
L 207.208862 24 
L 206.913319 21 
L 207.120056 18 
L 206.969147 15 
L 206.25 13.158984 
L 205.44515 12 
L 202.150635 9 
L 198.75 5.11356 
L 193.990767 -1 
L 193.990767 -1 
" clip-path="url(#p7b1f5c9720)" style="fill: none; stroke: #000000"/>
    <path d="M 720 176.786865 
L 719.391044 177 
L 712.5 180.161865 
L 705 183.184989 
L 699.526367 186 
L 693.75 189.508168 
L 688.664551 192 
L 686.25 192.96582 
L 681.789551 195 
L 678.75 195.972656 
L 675 197.411865 
L 667.5 198.503906 
L 660 199.35791 
L 652.5 200.460428 
L 648.75 201.112602 
L 645 201.879492 
L 641.25 203.09352 
L 637.5 204.452097 
L 633.75 205.64388 
L 629.935913 207 
L 608.039551 213 
L 603.75 213.895211 
L 592.5 216.14388 
L 581.25 219.172656 
L 577.5 220.286865 
L 570 222.349365 
L 562.5 225.161865 
L 555 228.972656 
L 551.19873 231 
L 547.5 232.55736 
L 536.25 236.721298 
L 525 240.540365 
L 517.5 242.786328 
L 517.028665 243 
L 513.75 244.651476 
L 510 246.07848 
L 502.5 246.086328 
L 498.75 246.386328 
L 495 246.896662 
L 487.5 248.436575 
L 480 250.681791 
L 476.225586 252 
L 472.5 253.564746 
L 468.729492 255 
L 465 256.553955 
L 461.25 257.157211 
L 457.5 258.076172 
L 453.75 260.515522 
L 452.791138 261 
L 450 262.140209 
L 446.25 263.325738 
L 442.5 265.520563 
L 441.193164 267 
L 438.75 269.155733 
L 437.0811 270 
L 435 270.753577 
L 433.173728 270 
L 431.25 265.571752 
L 427.5 266.456066 
L 423.75 266.419922 
L 422.036133 267 
L 420 267.995443 
L 416.25 268.599899 
L 412.938733 267 
L 410.935689 264 
L 410.156836 261 
L 409.590454 258 
L 408.75 256.789746 
L 405 255.283707 
L 397.5 256.737997 
L 393.75 256.724219 
L 390 256.164997 
L 386.25 256.060845 
L 382.5 256.071716 
L 378.75 255.756664 
L 375 254.879054 
L 371.25 254.883452 
L 367.5 254.729646 
L 363.75 254.392543 
L 360 253.722882 
L 345 250.168428 
L 333.75 247.361225 
L 329.684197 246 
L 325.491817 243 
L 319.046766 240 
L 312.431472 237 
L 311.25 236.416805 
L 307.086077 234 
L 300 228.91256 
L 298.8593 228 
L 295.686223 225 
L 284.800363 213 
L 279.076742 207 
L 273.75 200.980469 
L 265.013665 191.70983 
M 250.122082 174.132621 
L 240 161.477214 
L 235.157878 156 
L 232.5 152.64388 
L 228.75 148.479492 
L 223.820508 144 
L 216.896362 138 
L 212.580123 135 
L 210 133.486328 
L 208.258209 132 
L 205.713433 129 
L 202.5 125.572064 
L 198.75 124.154895 
L 196.838181 123 
L 195.522034 120 
L 199.253165 117 
L 199.508545 114 
L 198.609248 111 
L 196.070928 108 
L 196.493755 105 
L 195 102.477214 
L 192.315674 102 
L 191.25 101.317969 
L 190.670508 99 
L 191.25 98.227344 
L 192.690093 96 
L 192.660245 93 
L 191.25 92.269991 
L 189.057395 90 
L 187.5 88.55736 
L 183.287528 87 
L 180 86.199558 
L 176.25 84.935902 
L 168.75 83.979492 
L 165 83.276142 
L 162.154823 81 
L 161.25 80.638071 
L 160.893555 81 
L 158.592122 84 
L 157.5 84.380481 
L 155.657043 84 
L 154.768602 81 
L 153.75 80.07194 
L 151.956975 78 
L 151.883269 75 
L 150 72.775949 
L 146.25 72.556091 
L 145.68687 72 
L 146.968515 69 
L 148.851788 66 
L 150 63.387817 
L 150.310254 63 
L 150.421721 60 
L 150 59.622932 
L 148.672921 57 
L 148.213433 54 
L 146.000453 51 
L 142.5 48.296202 
L 141.523881 48 
L 138.75 45.28776 
L 137.670898 45 
L 135 44.826753 
L 131.176425 45 
L 129.194137 42 
L 126.840069 36 
L 123.75 31.211167 
L 119.328918 27 
L 118.486041 24 
L 116.78418 21 
L 116.25 20.417259 
L 114.294864 18 
L 112.338135 15 
L 108.75 12.873698 
L 105 14.491455 
L 101.25 14.66459 
L 97.28418 12 
L 93.75 10.303594 
L 90 10.351207 
L 88.202022 9 
L 87.142406 6 
L 86.25 4.862183 
L 82.5 6.11772 
L 82.297668 6 
L 78.75 3.328814 
L 78.598102 3 
L 77.365112 0 
L 76.323446 -1 
L 76.323446 -1 
" clip-path="url(#p7b1f5c9720)" style="fill: none; stroke: #000000"/>
    <path d="M 720 268.583834 
L 716.25 267.858984 
L 712.5 267.71582 
L 708.75 268.122296 
L 705 268.814603 
L 701.25 269.772656 
L 699.829102 270 
L 697.5 270.372656 
L 693.75 270.724365 
L 690 270.827846 
L 686.25 271.029492 
L 682.5 271.73291 
L 679.96582 273 
L 678.75 273.810547 
L 675 275.477214 
L 672.059326 276 
L 671.25 276.10791 
L 667.5 276.526811 
L 663.75 276.977214 
L 660 277.661865 
L 656.25 278.446461 
L 653.309326 279 
L 652.5 279.152344 
L 648.75 279.911865 
L 645 280.740579 
L 641.25 281.977214 
L 641.203391 282 
L 637.5 284.036865 
L 635.894775 285 
L 633.75 286.211167 
L 630 287.810547 
L 629.526367 288 
L 626.25 289.572656 
L 624.019775 291 
L 622.5 291.911865 
L 618.75 293.772656 
L 618.217163 294 
L 615 295.372656 
L 611.609701 297 
L 611.25 297.161865 
L 607.5 299.172656 
L 605.94873 300 
L 603.75 301.034697 
L 600 302.599365 
L 598.664551 303 
L 596.25 303.724365 
L 592.5 304.71582 
L 588.75 305.958984 
L 588.685913 306 
L 585 308.94873 
L 584.943034 309 
L 581.5443 312 
L 581.25 312.28776 
L 577.859701 315 
L 577.5 315.431641 
L 574.748186 318 
L 573.75 318.931641 
L 571.533901 321 
L 570 321.954427 
L 567.443034 324 
L 566.25 324.954427 
L 564.332275 327 
L 562.5 328.46582 
L 560.19873 330 
L 558.75 330.96582 
L 555.976119 333 
L 555 333.71582 
L 551.57373 336 
L 551.25 336.21582 
L 547.5 338.276142 
L 545.819615 339 
L 543.75 339.827846 
L 540 340.772656 
L 536.25 341.504729 
L 533.897461 342 
L 532.5 342.254084 
L 528.75 342.85791 
L 525 343.286515 
L 521.25 343.873698 
L 517.5 344.786328 
L 516.355329 345 
L 513.75 345.634341 
L 510 345.911865 
L 506.25 345.517969 
L 505.9557 345 
L 504.693958 342 
L 506.25 340.245916 
L 507.085675 339 
L 509.19515 336 
L 510 335.318244 
L 512.345843 333 
L 513.75 331.185397 
L 514.667271 330 
L 515.125907 327 
L 514.105225 324 
L 514.590193 321 
L 516.306966 318 
L 515.501154 315 
L 513.75 313.899275 
L 510 313.684989 
L 506.25 313.849365 
L 502.5 314.172656 
L 498.75 314.09352 
L 495 314.14388 
L 491.25 314.224365 
L 487.5 313.899275 
L 483.75 313.211167 
L 480 313.083676 
L 476.25 313.083676 
L 472.5 313.14388 
L 468.75 312.972656 
L 466.92627 312 
L 465 310.07373 
L 462.852539 309 
L 461.25 308.622932 
L 457.5 308.188939 
L 453.75 308.346834 
L 450 308.662623 
L 446.25 308.708629 
L 442.5 308.621094 
L 442.233582 309 
L 438.75 311.123326 
L 435 311.224365 
L 431.25 310.572656 
L 429.143764 309 
L 427.5 306.954427 
L 425.966099 306 
L 423.75 304.96582 
L 420 303.199219 
L 416.25 303.35791 
L 412.5 303.823594 
L 411.111986 306 
L 408.75 308.057552 
L 407.235352 309 
L 405 310.026063 
L 403.299189 309 
L 403.705867 306 
L 403.536213 303 
L 403.985041 300 
L 403.810254 297 
L 401.25 294.374099 
L 400.825877 294 
L 397.5 292.587529 
L 396.102284 291 
L 394.520538 288 
L 393.75 285.986328 
L 392.068759 285 
L 390 284.372239 
L 386.25 284.448331 
L 384.429492 285 
L 382.5 285.677015 
L 378.75 285.399769 
L 376.001587 285 
L 375 284.86918 
L 371.25 283.553955 
L 367.5 282.501912 
L 365.042725 282 
L 363.75 281.741455 
L 360 281.511797 
L 356.25 281.199808 
L 352.5 280.803955 
L 348.75 280.088266 
L 345 279.366455 
L 344.04403 279 
L 341.25 277.804415 
L 337.5 276.481425 
L 334.55127 276 
L 333.75 275.885533 
L 330 275.671247 
L 326.25 275.556179 
L 322.5 275.482827 
L 318.75 275.344899 
L 315 275.07804 
L 311.25 274.525345 
L 307.5 273.721704 
L 304.85805 273 
L 303.75 272.645424 
L 300 271.223231 
L 296.941923 270 
L 296.25 269.686328 
L 292.5 268.020339 
L 290.324276 267 
L 288.75 266.069124 
L 285.619089 264 
L 285 263.572266 
L 281.276984 261 
L 281.25 260.981357 
L 277.5 258.526811 
L 276.73751 258 
L 273.75 255.935902 
L 272.395405 255 
L 270 253.344993 
L 268.150635 252 
L 266.25 250.61772 
L 264.131557 249 
L 262.5 247.808254 
L 260.024414 246 
L 258.75 245.069124 
L 255.917271 243 
L 255 242.329993 
L 251.810128 240 
L 251.25 239.590863 
L 247.702985 237 
L 247.5 236.844993 
L 243.75 234.123326 
L 243.588135 234 
L 240 231.266183 
L 239.682395 231 
L 236.25 228.123326 
L 236.109248 228 
L 232.848378 225 
L 232.5 224.679492 
L 229.587508 222 
L 228.75 221.266183 
L 226.046032 219 
L 225 218.123326 
L 222.213135 216 
L 221.25 215.229492 
L 218.716486 213 
L 217.5 211.87315 
L 215.565769 210 
L 213.75 208.241571 
L 212.409668 207 
L 210 204.879492 
L 209.04403 204 
L 206.25 201.429492 
L 205.820508 201 
L 205.324208 200.5037 
M 189.500239 183.781583 
L 188.673565 183 
L 187.5 181.837612 
L 185.644719 180 
L 183.75 178.029492 
L 182.720508 177 
L 180 174.279492 
L 179.708862 174 
L 176.598378 171 
L 176.25 170.679492 
L 173.337508 168 
L 172.5 167.229492 
L 170.177612 165 
L 168.75 163.694754 
L 166.815769 162 
L 165 160.40904 
L 163.391856 159 
L 161.25 157.208629 
L 159.739213 156 
L 157.5 154.208629 
L 155.989213 153 
L 153.75 151.208629 
L 152.3049 150 
L 150 148.072266 
L 148.448037 147 
L 146.25 145.481357 
L 143.853688 144 
L 142.5 143.291917 
L 138.75 141.254084 
L 138.05127 141 
L 135 140.357627 
L 131.25 140.835637 
L 130.749207 141 
L 127.5 141.784714 
L 123.75 141.133092 
L 120 142.641029 
L 118.760681 141 
L 120 138.620508 
L 121.10805 138 
L 123.75 136.027344 
L 124.243915 135 
L 123.75 134.299538 
L 120 134.403722 
L 116.995347 132 
L 117.824109 129 
L 118.105813 126 
L 118.19322 123 
L 116.25 121.244834 
L 114.527239 120 
L 113.302966 117 
L 112.5 115.122296 
L 111.09713 114 
L 109.338135 111 
L 108.75 110.504729 
L 105 110.372656 
L 104.411865 111 
L 102.579492 114 
L 101.25 115.10791 
L 99.588135 114 
L 97.5 112.481357 
L 96.368408 111 
L 94.808435 108 
L 93.75 107.133092 
L 91.510254 105 
L 91.406995 102 
L 92.910617 99 
L 93.413086 96 
L 93.121791 93 
L 92.015453 90 
L 90 89.143433 
L 86.25 88.864746 
L 82.5 88.741455 
L 78.75 88.815487 
L 75 89.433726 
L 72.543371 90 
L 71.25 90.279204 
L 67.5 91.45628 
L 65.886508 90 
L 64.454281 87 
L 63.75 85.353065 
L 63.553685 84 
L 63.75 83.26709 
L 64.589663 81 
L 66.126583 78 
L 67.5 75.484478 
L 67.688629 75 
L 67.650804 72 
L 67.5 71.504729 
L 64.796032 69 
L 63.75 68.458525 
L 60 66.791917 
L 57.660245 66 
L 56.25 65.48291 
L 52.5 63.551897 
L 51.05127 63 
L 48.75 62.031044 
L 45 60.349365 
L 43.835449 60 
L 41.25 59.172656 
L 37.5 57.972656 
L 34.894671 57 
L 33.75 56.46582 
L 30 54.572656 
L 28.210449 54 
L 26.25 53.477214 
L 22.5 52.64388 
L 18.75 51.911865 
L 15 51.161865 
L 14.190674 51 
L 11.25 50.372656 
L 7.5 49.474365 
L 3.75 48.349365 
L 2.003174 48 
L 0 47.572656 
L -1 47.30371 
M 491.25 351.911865 
L 487.602539 351 
L 491.25 350.438852 
L 492.389832 351 
L 491.25 351.911865 
z
" clip-path="url(#p7b1f5c9720)" style="fill: none; stroke: #000000"/>
    <path d="M 720 383.73768 
L 718.934326 384 
L 716.25 384.780895 
L 712.5 385.96582 
L 710.560913 387 
L 708.75 387.96582 
L 705.69873 390 
L 705 390.349365 
L 701.25 392.372656 
L 699.779663 393 
L 697.5 393.858226 
L 693.75 394.661865 
L 690 395.172656 
L 686.25 395.599365 
L 683.579102 396 
L 682.5 396.172656 
L 678.75 397.572656 
L 675.776367 399 
L 675 399.399275 
L 671.25 401.542132 
L 669.914551 402 
L 667.5 402.681756 
L 663.75 403.474365 
L 660 404.224365 
L 656.25 404.974365 
L 656.147461 405 
L 652.5 405.810547 
L 648.75 406.64388 
L 645 407.64388 
L 643.664551 408 
L 641.25 408.609992 
L 637.5 409.715255 
L 633.75 410.504729 
L 630 410.977214 
L 629.829102 411 
L 626.25 411.505285 
L 622.5 412.029492 
L 618.75 412.208629 
L 615 412.179492 
L 611.25 412.241571 
L 607.5 412.481357 
L 603.75 412.551897 
L 600 412.179492 
L 596.25 411.879492 
L 592.5 412.029492 
L 588.75 412.179492 
L 585 412.55736 
L 581.25 412.977214 
L 577.5 413.446461 
L 575.819615 414 
L 573.75 414.609992 
L 570 415.481357 
L 566.25 415.754084 
L 562.5 415.543594 
L 558.75 415.903594 
L 555 416.263594 
L 551.25 416.60791 
L 547.5 416.98291 
L 547.243652 417 
L 543.75 417.223594 
L 540 417.343594 
L 536.25 417.676532 
L 532.5 418.05678 
L 528.75 418.486328 
L 525 418.80678 
L 521.25 419.143594 
L 517.5 419.199558 
L 513.75 418.98291 
L 510 418.73291 
L 506.25 418.41695 
L 502.5 418.23291 
L 498.75 418.10791 
L 495 418.183594 
L 491.25 418.286515 
L 487.5 418.40904 
L 483.75 418.266183 
L 480 417.879492 
L 476.25 417.310547 
L 474.852539 417 
L 472.5 416.504729 
L 468.75 415.779492 
L 465 415.266183 
L 461.25 414.551897 
L 458.835449 414 
L 457.5 413.679492 
L 453.75 412.629492 
L 450 411.767887 
L 446.352539 411 
L 446.25 410.978413 
L 442.5 410.346834 
L 438.75 409.87315 
L 435 409.241571 
L 431.314087 408 
L 431.25 407.977214 
L 427.5 406.715255 
L 423.75 405.294202 
L 422.973633 405 
L 420 404.026811 
L 416.25 402.895211 
L 413.032837 402 
L 412.5 401.85791 
L 408.75 400.547385 
L 405.969543 399 
L 405 398.346834 
L 401.721335 396 
L 401.25 395.679492 
L 397.5 394.481357 
L 393.75 393.663175 
L 391.470337 393 
L 390 392.572266 
L 386.25 391.266183 
L 383.228427 390 
L 382.5 389.708629 
L 378.75 388.025645 
L 376.78418 387 
L 375 385.87315 
L 372.3831 384 
L 371.25 383.299538 
L 367.530159 381 
L 367.5 380.986769 
L 363.75 379.393433 
L 360.963135 378 
L 360 377.54676 
L 356.25 375.296202 
L 355.837027 375 
L 352.5 372.223594 
L 352.250453 372 
L 348.75 369.549683 
L 346.55127 369 
L 345 368.572064 
L 341.89209 366 
L 341.25 365.719815 
L 338.68853 363 
L 339.561964 360 
L 341.25 358.097124 
L 341.865733 357 
L 345 354.164694 
L 345.238953 354 
L 346.621676 351 
L 347.776498 348 
L 348.75 346.714072 
L 349.923648 345 
L 351.765589 342 
L 352.5 341.310292 
L 353.903258 339 
L 353.93264 336 
L 353.130697 333 
L 352.5 332.439381 
L 350.032057 333 
L 348.75 333.604868 
L 347.521362 333 
L 346.769132 330 
L 346.534104 327 
L 346.220025 324 
L 346.434675 321 
L 346.309353 318 
L 345.80185 315 
L 346.047884 312 
L 346.100687 309 
L 345.988246 306 
L 345 304.770182 
L 341.25 304.714531 
L 337.5 305.866455 
L 336.355329 306 
L 333.75 306.303955 
L 332.230225 306 
L 330 305.624383 
L 326.25 303.82194 
L 324.8801 303 
L 322.5 302.011343 
L 318.75 302.472882 
L 315.63521 303 
L 315 303.116455 
L 311.25 303.972882 
L 307.5 304.933134 
L 303.75 305.799784 
L 302.279663 306 
L 300 306.347377 
L 296.25 306.620785 
L 292.5 306.655273 
L 288.75 306.331138 
L 285.852539 306 
L 285 305.902567 
L 281.25 305.193819 
L 277.5 304.169389 
L 273.789438 303 
L 273.75 302.987183 
L 270 301.674683 
L 266.25 300.268433 
L 265.578918 300 
L 262.5 298.728705 
L 258.778483 297 
L 258.75 296.987183 
L 255 295.244834 
L 252.461194 294 
L 251.25 293.424683 
L 247.5 291.549683 
L 246.452985 291 
L 243.75 289.623935 
L 240.560128 288 
L 240 287.714844 
L 236.25 285.737183 
L 234.967943 285 
L 232.5 283.664407 
L 229.552612 282 
L 228.75 281.57194 
L 225 279.57194 
L 223.927612 279 
L 221.25 277.610536 
L 218.270508 276 
L 217.5 275.57194 
L 213.75 273.32194 
L 213.232596 273 
L 210 270.988607 
L 208.411168 270 
L 206.25 268.655273 
L 203.589739 267 
L 202.5 266.302567 
L 199.14209 264 
L 198.75 263.723231 
L 195.016539 261 
L 195 260.987571 
L 191.25 258.07848 
L 191.148834 258 
L 187.516022 255 
L 187.5 254.985857 
L 184.117584 252 
L 183.75 251.663923 
L 180.836334 249 
L 180 248.207031 
L 177.339739 246 
L 176.25 245.023594 
L 173.500552 243 
L 172.5 242.199558 
L 169.338135 240 
L 168.75 239.572266 
L 165 237.40904 
L 164.28418 237 
L 161.25 235.266183 
L 159.03418 234 
L 157.5 233.123326 
L 153.78418 231 
L 153.75 230.979492 
L 150 228.879492 
L 148.308669 228 
L 146.25 226.87315 
L 142.542725 225 
L 142.5 224.977214 
L 138.75 222.925781 
L 137.943973 222.552463 
M 117.046264 212.8545 
L 116.25 212.48291 
L 112.5 210.561148 
L 111.540142 210 
L 108.75 208.485352 
L 106.150635 207 
L 105 206.318142 
L 101.25 204.47064 
L 99.42627 204 
L 97.5 203.407302 
L 94.240112 201 
L 95.021362 198 
L 93.75 197.128209 
L 90 196.303594 
L 88.228813 195 
L 86.25 194.576626 
L 82.5 194.322345 
L 78.75 194.476418 
L 75 193.137997 
L 71.25 192.374442 
L 67.5 192.270919 
L 66.580811 192 
L 65.891856 189 
L 67.5 187.76709 
L 68.216388 186 
L 70.650922 183 
L 71.25 182.664022 
L 75 180.880078 
L 76.932604 180 
L 78.75 178.620643 
L 79.817653 177 
L 82.5 174.698624 
L 83.768555 174 
L 86.25 172.300992 
L 88.904598 171 
L 88.128287 168 
L 90 165.986294 
L 90.357532 165 
L 91.177787 162 
L 90 160.242583 
L 86.25 159.948331 
L 82.5 161.685507 
L 78.75 159.863621 
L 76.26709 159 
L 75 158.524841 
L 72.194621 156 
L 71.25 155.491494 
L 68.98291 156 
L 67.5 156.889746 
L 63.75 158.193819 
L 62.398735 156 
L 63.75 153.427936 
L 63.891025 153 
L 63.932248 150 
L 63.75 149.77347 
L 60.070287 147 
L 60 146.916751 
L 56.25 145.69784 
L 52.867584 144 
L 52.5 143.686328 
L 48.75 142.063594 
L 46.375907 141 
L 45 140.35791 
L 41.25 138.85791 
L 37.5 138.103594 
L 37.095337 138 
L 33.75 136.929492 
L 30 136.423594 
L 26.25 136.072266 
L 22.5 135.503906 
L 18.75 135.452097 
L 17.407837 135 
L 15 134.188939 
L 11.25 133.474365 
L 7.5 132.536865 
L 5.710449 132 
L 3.75 131.276142 
L 0 129.61356 
L -1 129.156417 
M 360 351.002809 
L 360.002453 351 
L 361.573181 348 
L 363.75 346.693909 
L 364.168249 345 
L 364.061985 342 
L 363.866637 339 
L 363.75 338.612183 
L 363.175456 339 
L 361.320975 342 
L 360 343.344993 
L 358.48291 345 
L 356.25 347.435902 
L 356.073719 348 
L 356.25 348.775635 
L 359.957275 351 
L 360 351.002809 
z
M 326.25 328.80678 
L 325.77808 327 
L 326.25 326.170658 
L 327.286677 327 
L 326.25 328.80678 
M 60 160.488607 
L 58.883545 159 
L 60 158.135648 
L 62.481011 159 
L 60 160.488607 
z
" clip-path="url(#p7b1f5c9720)" style="fill: none; stroke: #000000"/>
    <path d="M 720 444.112602 
L 708.75 447.526811 
L 699.204819 450.092857 
M 677.067717 456.438228 
L 675 457.138071 
L 667.904663 459 
L 660 460.984809 
L 648.75 463.903594 
L 644.109701 465 
L 637.5 466.783594 
L 618.75 471.561148 
L 600 475.09592 
L 596.25 475.310547 
L 592.5 475.810547 
L 588.75 475.980469 
L 585 476.551897 
L 581.164551 477 
L 577.5 477.764776 
L 570 479.123326 
L 558.75 481.15608 
L 551.25 482.503594 
L 547.5 483.092494 
L 536.25 484.484225 
L 525 486.23291 
L 521.25 486.98291 
L 513.75 488.026811 
L 506.25 488.572266 
L 502.243652 489 
L 498.75 489.254084 
L 491.25 489.551897 
L 487.5 490.025645 
L 483.75 490.73291 
L 480 491.069124 
L 476.25 490.715255 
L 472.5 489.452097 
L 465 488.810547 
L 461.25 487.286865 
L 457.5 486.681756 
L 453.75 486.64388 
L 446.25 485.979492 
L 442.5 485.551897 
L 431.25 484.694754 
L 427.5 484.266183 
L 416.25 483.429492 
L 397.5 480.328814 
L 396.626587 480 
L 393.75 478.158984 
L 391.680385 477 
L 390 476.504729 
L 378.75 475.64388 
L 375 474.681756 
L 372.930385 474 
L 371.25 473.327846 
L 365.966099 471 
L 360 468.911865 
L 348.75 465.429988 
L 345 464.045373 
L 337.5 460.814603 
L 333.75 458.958984 
L 329.001814 456 
L 325.251814 453 
L 322.095337 450 
L 318.75 446.57373 
L 313.17627 441 
L 311.25 439.28776 
L 310.042725 438 
L 303.75 431.962713 
L 300 428.96582 
L 295.9557 426 
L 285 418.599077 
L 281.25 415.71582 
L 277.5 413.045373 
L 272.03418 408 
L 270 404.689986 
L 267.35805 402 
L 266.25 401.11356 
L 262.5 398.411865 
L 258.75 397.484225 
L 255 397.873698 
L 252.624207 399 
L 251.25 399.517348 
L 243.75 402.739746 
L 240 403.034562 
L 236.25 402.726323 
L 234.661168 402 
L 228.75 399.988607 
L 226.525635 399 
L 228.75 397.305246 
L 232.5 396.893101 
L 234.18644 396 
L 236.25 395.053782 
L 243.75 393.375362 
L 244.947703 393 
L 247.5 391.706836 
L 252.739682 390 
L 255 387.811061 
L 256.375907 387 
L 253.885592 384 
L 255 383.172154 
L 257.715193 381 
L 256.53418 378 
L 255 376.849365 
L 247.5 375.207031 
L 243.75 372.676532 
L 240 371.468615 
L 236.25 370.486328 
L 232.5 370.442116 
L 228.75 370.989483 
L 225 370.664407 
L 221.25 370.819264 
L 216.789551 372 
L 213.75 372.455933 
L 211.723633 372 
L 211.900635 369 
L 212.615873 366 
L 210.572335 363 
L 210 362.753456 
L 206.25 360.21582 
L 206.14209 360 
L 206.25 359.907506 
L 210 358.065139 
L 211.894719 357 
L 216.312953 354 
L 217.5 353.194247 
L 221.25 351.69065 
L 222.037138 351 
L 226.264242 348 
L 228.75 345.613672 
L 236.25 346.53418 
L 237.603688 345 
L 236.25 344.386328 
L 232.5 344.64388 
L 228.75 343.158984 
L 227.30127 342 
L 225 341.031044 
L 221.25 340.310547 
L 217.5 338.972656 
L 213.75 337.172656 
L 210 335.772656 
L 202.5 332.372656 
L 191.25 326.358984 
L 179.595337 318 
L 174.716099 315 
L 172.5 313.96582 
L 165 310.972656 
L 157.5 308.224365 
L 153.75 307.034697 
L 150 305.974365 
L 141.723633 303 
L 138.75 301.661865 
L 127.5 299.224365 
L 123.75 298.286865 
L 119.352539 297 
L 116.25 296.172656 
L 112.5 295.814603 
L 108.75 296.21582 
L 105 295.46582 
L 100.92627 294 
L 96.626587 291 
L 93.75 289.684989 
L 90 288.660757 
L 86.25 286.46582 
L 78.75 285.310547 
L 77.585449 285 
L 75 283.871804 
L 71.25 283.431641 
L 68.565674 282 
L 67.5 280.863281 
L 66.102539 279 
L 63.75 278.411865 
L 60 278.621094 
L 56.25 278.358984 
L 52.5 278.689986 
L 48.75 276.858984 
L 47.556966 276 
L 45.667725 273 
L 45 272.506911 
L 41.25 273.258984 
L 37.5 270.858984 
L 36.605225 270 
L 33.75 267.891526 
L 26.000977 264 
L 21.828918 261 
L 18.75 257.978413 
L 15 256.470703 
L 12.855225 255 
L 11.25 254.188939 
L 5.890299 252 
L 3.75 250.972656 
L -0.63521 249 
L -1 248.708168 
L -1 248.708168 
" clip-path="url(#p7b1f5c9720)" style="fill: none; stroke: #000000"/>
    <path d="M 720 529.954427 
L 716.25 530.94873 
L 715.993652 531 
L 712.5 531.798549 
L 708.75 532.655692 
L 705 533.084263 
L 701.25 533.28776 
L 698.579102 534 
L 697.5 534.32373 
L 693.75 535.458984 
L 690 536.57373 
L 687.868652 537 
L 686.25 537.32373 
L 682.5 538.07373 
L 678.75 538.44873 
L 675 539.084263 
L 671.25 539.621094 
L 670.184326 540 
L 667.5 541.07373 
L 663.75 542.621094 
L 662.684326 543 
L 660 543.954427 
L 656.25 545.19873 
L 653.579102 546 
L 652.5 546.32373 
L 648.75 547.44873 
L 645 548.28776 
L 642.329102 549 
L 641.25 549.28776 
L 637.5 550.07373 
L 633.75 551.058984 
L 630 551.962713 
L 629.829102 552 
L 626.25 552.858984 
L 622.5 553.28776 
L 618.75 553.621094 
L 615 554.058984 
L 611.25 554.658984 
L 609.118652 555 
L 607.5 555.258984 
L 603.75 555.621094 
L 600 555.69873 
L 596.25 555.369978 
L 592.5 555.558984 
L 588.75 556.21582 
L 585 556.899275 
L 581.25 557.542132 
L 578.579102 558 
L 577.5 558.199219 
L 573.75 559.256417 
L 570 560.327846 
L 567.059326 561 
L 566.25 561.184989 
L 562.5 561.780895 
L 558.75 562.158984 
L 555 562.326349 
L 551.25 562.46582 
L 547.5 562.814603 
L 543.75 563.276142 
L 540 563.71582 
L 536.25 563.96582 
L 532.5 563.96582 
L 531.987305 564 
L 528.75 564.23544 
L 525 564.96582 
L 521.25 565.96582 
L 517.5 566.658984 
L 513.75 566.144531 
L 510 565.583834 
L 506.25 565.470703 
L 502.5 565.772656 
L 498.75 566.372656 
L 495 566.972656 
L 494.829102 567 
L 491.25 567.61356 
L 487.5 568.256417 
L 483.75 569.036865 
L 480 569.974365 
L 479.897461 570 
L 476.25 570.972656 
L 472.5 571.46582 
L 468.75 571.46582 
L 465 571.583834 
L 461.25 571.684989 
L 457.5 571.972656 
L 453.75 572.599365 
L 451.746826 573 
L 450 573.349365 
L 446.25 573.660757 
L 442.5 573.46582 
L 438.75 573.199219 
L 435 573.399275 
L 431.25 573.827846 
L 427.5 574.572656 
L 423.75 575.276142 
L 420 575.71582 
L 416.25 575.96582 
L 415.737305 576 
L 412.5 576.23544 
L 408.75 576.23544 
L 405 576.508168 
L 401.25 576.558984 
L 397.756348 576 
L 397.5 575.958984 
L 393.75 575.19873 
L 390 574.053622 
L 386.25 573.827846 
L 382.5 574.172656 
L 378.75 573.972656 
L 375 573.772656 
L 371.25 573.972656 
L 367.5 574.256417 
L 363.75 574.326349 
L 360 574.158984 
L 356.25 573.96582 
L 352.5 574.122296 
L 348.75 574.470703 
L 345.125702 574.955831 
M 322.340331 578.299826 
L 318.75 578.970703 
L 315 578.974365 
L 311.25 578.799403 
L 307.5 578.662623 
L 303.75 578.662623 
L 300 578.551897 
L 296.25 578.837612 
L 295.184326 579 
L 292.5 579.390447 
L 288.75 579.551897 
L 286.335449 579 
L 285 578.572656 
L 281.25 578.310547 
L 277.5 578.229492 
L 273.75 578.14388 
L 270 577.740579 
L 266.25 577.172656 
L 262.5 576.660757 
L 258.75 576.71582 
L 255 577.122296 
L 251.25 577.684989 
L 247.5 577.849365 
L 243.75 577.810547 
L 240 577.779492 
L 236.25 577.980469 
L 232.5 578.199558 
L 228.75 578.383594 
L 225 578.503594 
L 221.25 578.851732 
L 219.118652 579 
L 217.5 579.11772 
L 213.75 579.503906 
L 210 579.694754 
L 206.25 579.925781 
L 202.5 580.034697 
L 198.75 579.972656 
L 195 579.972656 
L 191.25 579.827846 
L 187.5 579.46582 
L 184.006348 579 
L 183.75 578.954427 
L 180 578.417259 
L 176.25 578.94873 
L 175.993652 579 
L 172.5 579.508168 
L 168.75 579.780895 
L 165 579.508168 
L 163.253174 579 
L 161.25 578.19873 
L 157.5 577.158984 
L 153.75 576.258984 
L 150.512695 576 
L 150 575.954427 
L 146.25 575.19873 
L 142.5 574.431641 
L 138.920898 573 
L 138.75 572.954427 
L 135 572.621094 
L 131.25 572.57373 
L 127.5 572.084263 
L 123.75 570.517969 
L 122.131348 570 
L 120 569.431641 
L 116.25 569.512835 
L 112.5 568.621094 
L 108.75 567.931641 
L 107.003174 567 
L 105 565.717969 
L 103.466099 564 
L 101.25 562.44873 
L 97.5 563.058984 
L 93.75 563.820518 
L 93.276367 564 
L 90 565.474365 
L 86.25 566.058984 
L 82.5 565.954427 
L 78.75 566.28776 
L 75 566.621094 
L 71.25 566.57373 
L 67.5 566.431641 
L 63.75 565.931641 
L 60 566.431641 
L 56.25 566.917969 
L 55.737305 567 
L 52.5 567.647461 
L 48.75 567.517969 
L 47.131348 567 
L 45 565.294922 
L 43.920898 564 
L 41.25 561.863281 
L 40.170898 561 
L 37.5 560.19873 
L 33.75 559.28776 
L 30 558.858984 
L 26.25 558.558984 
L 22.5 558.858984 
L 18.75 558.858984 
L 15 559.07373 
L 11.25 559.227121 
L 7.670898 558 
L 7.5 557.931641 
L 3.75 556.717969 
L 0.170898 555 
L 0 554.917969 
L -1 554.654948 
" clip-path="url(#p7b1f5c9720)" style="fill: none; stroke: #000000"/>
    <path clip-path="url(#p7b1f5c9720)" style="fill: none; stroke: #000000"/>
    <path clip-path="url(#p7b1f5c9720)" style="fill: none; stroke: #000000"/>
    <path clip-path="url(#p7b1f5c9720)" style="fill: none; stroke: #000000"/>
    <path clip-path="url(#p7b1f5c9720)" style="fill: none; stroke: #000000"/>
    <path clip-path="url(#p7b1f5c9720)" style="fill: none; stroke: #000000"/>
    <path clip-path="url(#p7b1f5c9720)" style="fill: none; stroke: #000000"/>
    <path clip-path="url(#p7b1f5c9720)" style="fill: none; stroke: #000000"/>
    <path clip-path="url(#p7b1f5c9720)" style="fill: none; stroke: #000000"/>
   </g>
   <g id="patch_3">
    <path d="M 0 720 
L 0 720 
L 0 0 
L 720 0 
L 720 720 
L 0 720 
z
" style="fill: none; stroke: #000000; stroke-width: 0.8; stroke-linejoin: miter; stroke-linecap: square"/>
   </g>
   <g id="text_1">
    <g clip-path="url(#p7b1f5c9720)">
     <!-- 1320 -->
     <g transform="translate(399.835481 157.290735) rotate(-330.498863) scale(0.08 -0.08)">
      <defs>
       <path id="MS-Gothic-31" d="M 1375 50 
L 1375 2000 
L 1375 3925 
L 625 3925 
L 625 4225 
Q 1500 4225 1650 4925 
L 1950 4925 
L 1950 50 
L 1375 50 
z
" transform="scale(0.015625)"/>
       <path id="MS-Gothic-33" d="M 850 1500 
Q 825 950 1075 700 
Q 1250 525 1550 525 
Q 1800 525 2025 750 
Q 2250 975 2250 1500 
Q 2250 1900 1975 2175 
Q 1775 2375 1375 2350 
L 1375 2775 
Q 1775 2800 1975 3000 
Q 2175 3200 2175 3600 
Q 2175 4100 1950 4325 
Q 1800 4475 1575 4475 
Q 1350 4475 1200 4325 
Q 950 4075 925 3575 
L 375 3575 
Q 400 4225 800 4625 
Q 1100 4925 1575 4925 
Q 2075 4925 2375 4625 
Q 2725 4275 2725 3700 
Q 2725 3175 2450 2900 
Q 2200 2650 1975 2575 
Q 2300 2475 2475 2300 
Q 2825 1950 2825 1450 
Q 2825 800 2425 400 
Q 2075 50 1550 50 
Q 975 50 650 375 
Q 275 750 275 1500 
L 850 1500 
z
" transform="scale(0.015625)"/>
       <path id="MS-Gothic-32" d="M 2850 525 
L 2850 50 
L 300 50 
L 300 450 
Q 875 1525 1725 2500 
Q 2200 3050 2200 3650 
Q 2200 4075 1975 4300 
Q 1825 4450 1575 4450 
Q 1375 4450 1175 4250 
Q 950 4025 950 3325 
L 400 3325 
Q 425 4225 825 4625 
Q 1125 4925 1625 4925 
Q 2100 4925 2425 4600 
Q 2775 4250 2775 3625 
Q 2775 2900 2100 2125 
Q 1375 1300 900 525 
L 2850 525 
z
" transform="scale(0.015625)"/>
       <path id="MS-Gothic-30" d="M 200 2500 
Q 200 3975 800 4575 
Q 1150 4925 1575 4925 
Q 2000 4925 2350 4575 
Q 2950 3975 2950 2500 
Q 2950 1000 2350 400 
Q 2000 50 1575 50 
Q 1150 50 800 400 
Q 200 1000 200 2500 
z
M 2375 2500 
Q 2375 3825 1900 4300 
Q 1750 4450 1575 4450 
Q 1400 4450 1250 4300 
Q 775 3800 775 2500 
Q 775 1150 1250 675 
Q 1400 525 1575 525 
Q 1750 525 1900 675 
Q 2375 1150 2375 2500 
z
" transform="scale(0.015625)"/>
      </defs>
      <use xlink:href="#MS-Gothic-31"/>
      <use xlink:href="#MS-Gothic-33" transform="translate(50 0)"/>
      <use xlink:href="#MS-Gothic-32" transform="translate(100 0)"/>
      <use xlink:href="#MS-Gothic-30" transform="translate(150 0)"/>
     </g>
    </g>
   </g>
   <g id="text_2">
    <g clip-path="url(#p7b1f5c9720)">
     <!-- 1350 -->
     <g transform="translate(332.199016 123.699228) rotate(-291.366043) scale(0.08 -0.08)">
      <defs>
       <path id="MS-Gothic-35" d="M 850 1425 
Q 850 925 1100 675 
Q 1250 525 1525 525 
Q 1750 525 1950 725 
Q 2250 1025 2250 1725 
Q 2250 2375 2000 2625 
Q 1850 2775 1650 2775 
Q 1200 2775 925 2250 
L 425 2250 
L 575 4925 
L 2725 4925 
L 2725 4450 
L 1050 4450 
L 950 2825 
Q 1275 3200 1775 3200 
Q 2150 3200 2425 2925 
Q 2825 2525 2825 1725 
Q 2825 875 2350 400 
Q 2000 50 1500 50 
Q 975 50 675 350 
Q 300 725 275 1425 
L 850 1425 
z
" transform="scale(0.015625)"/>
      </defs>
      <use xlink:href="#MS-Gothic-31"/>
      <use xlink:href="#MS-Gothic-33" transform="translate(50 0)"/>
      <use xlink:href="#MS-Gothic-35" transform="translate(100 0)"/>
      <use xlink:href="#MS-Gothic-30" transform="translate(150 0)"/>
     </g>
    </g>
   </g>
   <g id="text_3">
    <g clip-path="url(#p7b1f5c9720)">
     <!-- 1380 -->
     <g transform="translate(484.50579 214.549434) rotate(-46.226971) scale(0.08 -0.08)">
      <defs>
       <path id="MS-Gothic-38" d="M 1575 2325 
Q 1300 2325 1100 2125 
Q 850 1875 850 1450 
Q 850 950 1100 700 
Q 1300 500 1575 500 
Q 1850 500 2050 700 
Q 2300 950 2300 1450 
Q 2300 1875 2050 2125 
Q 1850 2325 1575 2325 
z
M 2075 2550 
Q 2300 2475 2475 2300 
Q 2875 1900 2875 1450 
Q 2875 775 2475 375 
Q 2150 50 1575 50 
Q 1000 50 675 375 
Q 275 775 275 1450 
Q 275 1900 675 2300 
Q 850 2475 1075 2550 
Q 875 2625 750 2750 
Q 400 3100 400 3575 
L 400 3600 
Q 400 4225 775 4600 
Q 1100 4925 1575 4925 
Q 2050 4925 2375 4600 
Q 2750 4225 2750 3600 
L 2750 3575 
Q 2750 3100 2400 2750 
Q 2275 2625 2075 2550 
z
M 1575 4475 
Q 1325 4475 1150 4300 
Q 950 4100 950 3600 
L 950 3575 
Q 950 3125 1150 2925 
Q 1325 2750 1575 2750 
Q 1825 2750 2000 2925 
Q 2200 3125 2200 3575 
L 2200 3600 
Q 2200 4100 2000 4300 
Q 1825 4475 1575 4475 
z
" transform="scale(0.015625)"/>
      </defs>
      <use xlink:href="#MS-Gothic-31"/>
      <use xlink:href="#MS-Gothic-33" transform="translate(50 0)"/>
      <use xlink:href="#MS-Gothic-38" transform="translate(100 0)"/>
      <use xlink:href="#MS-Gothic-30" transform="translate(150 0)"/>
     </g>
    </g>
   </g>
   <g id="text_4">
    <g clip-path="url(#p7b1f5c9720)">
     <!-- 1410 -->
     <g transform="translate(250.346668 178.554852) rotate(-310.29035) scale(0.08 -0.08)">
      <defs>
       <path id="MS-Gothic-34" d="M 1875 50 
L 1875 625 
L 1875 1200 
L 200 1200 
L 200 1675 
L 1875 4925 
L 2450 4925 
L 2450 1675 
L 2975 1675 
L 2975 1200 
L 2450 1200 
L 2450 50 
L 1875 50 
z
M 1875 1675 
L 1875 3875 
L 750 1675 
L 1875 1675 
z
" transform="scale(0.015625)"/>
      </defs>
      <use xlink:href="#MS-Gothic-31"/>
      <use xlink:href="#MS-Gothic-34" transform="translate(50 0)"/>
      <use xlink:href="#MS-Gothic-31" transform="translate(100 0)"/>
      <use xlink:href="#MS-Gothic-30" transform="translate(150 0)"/>
     </g>
    </g>
   </g>
   <g id="text_5">
    <g clip-path="url(#p7b1f5c9720)">
     <!-- 1440 -->
     <g transform="translate(190.278674 187.816021) rotate(-312.366688) scale(0.08 -0.08)">
      <use xlink:href="#MS-Gothic-31"/>
      <use xlink:href="#MS-Gothic-34" transform="translate(50 0)"/>
      <use xlink:href="#MS-Gothic-34" transform="translate(100 0)"/>
      <use xlink:href="#MS-Gothic-30" transform="translate(150 0)"/>
     </g>
    </g>
   </g>
   <g id="text_6">
    <g clip-path="url(#p7b1f5c9720)">
     <!-- 1470 -->
     <g transform="translate(119.164714 216.651004) rotate(-335.101619) scale(0.08 -0.08)">
      <defs>
       <path id="MS-Gothic-37" d="M 1025 50 
L 2250 4450 
L 400 4450 
L 400 4925 
L 2775 4925 
L 2775 4400 
L 1600 50 
L 1025 50 
z
" transform="scale(0.015625)"/>
      </defs>
      <use xlink:href="#MS-Gothic-31"/>
      <use xlink:href="#MS-Gothic-34" transform="translate(50 0)"/>
      <use xlink:href="#MS-Gothic-37" transform="translate(100 0)"/>
      <use xlink:href="#MS-Gothic-30" transform="translate(150 0)"/>
     </g>
    </g>
   </g>
   <g id="text_7">
    <g clip-path="url(#p7b1f5c9720)">
     <!-- 1500 -->
     <g transform="translate(681.047587 457.623815) rotate(-15.635548) scale(0.08 -0.08)">
      <use xlink:href="#MS-Gothic-31"/>
      <use xlink:href="#MS-Gothic-35" transform="translate(50 0)"/>
      <use xlink:href="#MS-Gothic-30" transform="translate(100 0)"/>
      <use xlink:href="#MS-Gothic-30" transform="translate(150 0)"/>
     </g>
    </g>
   </g>
   <g id="text_8">
    <g clip-path="url(#p7b1f5c9720)">
     <!-- 1530 -->
     <g transform="translate(326.250154 580.556664) rotate(-9.012074) scale(0.08 -0.08)">
      <use xlink:href="#MS-Gothic-31"/>
      <use xlink:href="#MS-Gothic-35" transform="translate(50 0)"/>
      <use xlink:href="#MS-Gothic-33" transform="translate(100 0)"/>
      <use xlink:href="#MS-Gothic-30" transform="translate(150 0)"/>
     </g>
    </g>
   </g>
  </g>
 </g>
 <defs>
  <clipPath id="p7b1f5c9720">
   <path d="M 0 720 
L 0 720 
L 0 0 
L 720 0 
L 720 720 
z
"/>
  </clipPath>
 </defs>
</svg>
