<?xml version="1.0" encoding="utf-8" standalone="no"?>
<!DOCTYPE svg PUBLIC "-//W3C//DTD SVG 1.1//EN"
  "http://www.w3.org/Graphics/SVG/1.1/DTD/svg11.dtd">
<svg xmlns:xlink="http://www.w3.org/1999/xlink" width="720pt" height="720pt" viewBox="0 0 720 720" xmlns="http://www.w3.org/2000/svg" version="1.1">
 <metadata>
  <rdf:RDF xmlns:dc="http://purl.org/dc/elements/1.1/" xmlns:cc="http://creativecommons.org/ns#" xmlns:rdf="http://www.w3.org/1999/02/22-rdf-syntax-ns#">
   <cc:Work>
    <dc:type rdf:resource="http://purl.org/dc/dcmitype/StillImage"/>
    <dc:date>2026-03-20T18:58:48.174319</dc:date>
    <dc:format>image/svg+xml</dc:format>
    <dc:creator>
     <cc:Agent>
      <dc:title>Matplotlib v3.10.8, https://matplotlib.org/</dc:title>
     </cc:Agent>
    </dc:creator>
   </cc:Work>
  </rdf:RDF>
 </metadata>
 <defs>
  <style type="text/css">*{stroke-linejoin: round; stroke-linecap: butt}</style>
 </defs>
 <g id="figure_1">
  <g id="patch_1">
   <path d="M 0 720 
L 720 720 
L 720 0 
L 0 0 
L 0 720 
z
" style="fill: none"/>
  </g>
  <g id="axes_1">
   <g id="patch_2">
    <path d="M 0 720 
L 0 720 
L 0 0 
L 720 0 
L 720 720 
L 0 720 
z
" style="fill: none"/>
   </g>
   <g id="GeoContourSet_1">
    <path clip-path="url(#pc205380b7e)" style="fill: none; stroke: #000000"/>
    <path clip-path="url(#pc205380b7e)" style="fill: none; stroke: #000000"/>
    <path clip-path="url(#pc205380b7e)" style="fill: none; stroke: #000000"/>
    <path d="M 585 141.108226 
L 584.233398 141 
L 581.25 140.522656 
L 577.5 140.020597 
L 573.75 139.34352 
L 570 138.461167 
L 568.492338 138 
L 566.25 137.27124 
L 562.5 135.796119 
L 561.030971 135 
L 558.75 133.722656 
L 556.05835 132 
L 555 130.93051 
L 553.362514 129 
L 551.25 126.849077 
L 550.563247 126 
L 549.239717 123 
L 548.763807 120 
L 549.80835 117 
L 551.25 115.154688 
L 552.191321 114 
L 555 111.753057 
L 555.941321 111 
L 558.75 109.332913 
L 561.978149 108 
L 562.5 107.743089 
L 566.25 106.358474 
L 570 105.435397 
L 573.537598 105 
L 573.75 104.972813 
L 577.468236 104.534129 
M 600.180898 102.7981 
L 603.75 104.166166 
L 605.255534 105 
L 607.5 107.486178 
L 608.021851 108 
L 610.599976 111 
L 611.25 111.832031 
L 613.056641 114 
L 614.257115 117 
L 612.469201 120 
L 612.690874 123 
L 613.989258 126 
L 614.349976 129 
L 614.115601 132 
L 612.547201 135 
L 611.25 136.16748 
L 609.321032 138 
L 607.5 139.383984 
L 605.123506 141 
L 603.75 141.644127 
L 600 142.522656 
L 596.25 142.202415 
L 592.5 141.505796 
L 588.75 141.215474 
L 585 141.108226 
" clip-path="url(#pc205380b7e)" style="fill: none; stroke: #000000"/>
    <path d="M 533.402628 150.705691 
L 532.212524 150 
L 528.75 147.22998 
L 525 148.959961 
L 524.783325 150 
L 521.25 152.660386 
L 517.5 151.071995 
L 516.475299 150 
L 515.059913 147 
L 514.302807 144 
L 511.86667 141 
L 506.25 134.842773 
L 504.203203 132 
L 503.347589 129 
L 502.150003 126 
L 501.781469 123 
L 500.556846 120 
L 499.18508 117 
L 498.75 115.54248 
L 497.997571 114 
L 496.968635 111 
L 498.852974 108 
L 499.278058 105 
L 500.915039 102 
L 502.040039 99 
L 501.040649 96 
L 501.193359 93 
L 502.915649 90 
L 504.453876 87 
L 506.25 83.864063 
L 511.48577 78 
L 513.75 75.886719 
L 515.412598 75 
L 517.5 74.392756 
L 521.25 74.094308 
L 525 74.024639 
L 528.75 73.432031 
L 532.5 71.932031 
L 536.25 70.132031 
L 540 68.693359 
L 543.871373 69 
L 547.5 70.847301 
L 551.25 70.847301 
L 555 68.947716 
L 558.75 67.754688 
L 571.662598 66 
L 573.75 65.666016 
L 577.5 65.295573 
L 581.25 65.295573 
L 585.766602 66 
L 588.75 66.954688 
L 592.5 68.665483 
L 593.649902 69 
L 596.25 69.48943 
L 600 68.951451 
L 603.75 69.116016 
L 607.5 70.45752 
L 609.873047 72 
L 611.25 73.790039 
L 615 75.178486 
L 618.75 75.70752 
L 622.5 75.866016 
L 623.943359 75 
L 626.25 73.935397 
L 627.580754 75 
L 627.633984 78 
L 629.445801 81 
L 630 81.443359 
L 633.844401 84 
L 637.584961 87 
L 641.25 88.954688 
L 647.570801 93 
L 649.758301 96 
L 651.489258 99 
L 653.632115 102 
L 656.25 105.154688 
L 659.057874 108 
L 661.297201 111 
L 662.215769 114 
L 663.293536 120 
L 664.198134 123 
L 663.75 124.935938 
L 663.306641 126 
L 661.922201 129 
L 661.594095 132 
L 660.756226 135 
L 660 136.209961 
L 658.721401 138 
L 655.774972 141 
L 648.75 147.41748 
L 644.334961 150 
L 641.25 151.298931 
L 637.5 153.303622 
L 633.75 155.02832 
L 626.25 157.914063 
L 622.5 159.131417 
L 618.75 160.222656 
L 615 161.08374 
L 608.419922 162 
L 607.5 162.108226 
L 600 162.61942 
L 592.5 162.852214 
L 585 162.852214 
L 581.25 162.76888 
L 577.5 162.461167 
L 562.5 160.608226 
L 558.75 159.838778 
L 554.808063 158.874866 
L 554.808063 158.874866 
" clip-path="url(#pc205380b7e)" style="fill: none; stroke: #000000"/>
    <path d="M 580.849609 -1 
L 581.25 -0.954241 
L 585 -0.097098 
L 585.283203 0 
L 588.75 1.188616 
L 592.5 2.045759 
L 595.283203 3 
L 596.25 3.331473 
L 600 4.617188 
L 603.75 5.902902 
L 604.033203 6 
L 607.5 7.188616 
L 611.25 8.47433 
L 612.184952 8.794885 
M 632.937073 18.714868 
L 633.75 19.040039 
L 637.5 20.902902 
L 637.783203 21 
L 641.25 22.040039 
L 645 23.540039 
L 645.919922 24 
L 648.75 25.415039 
L 651.391602 27 
L 652.5 27.760045 
L 655.766602 30 
L 656.25 30.331473 
L 660 32.902902 
L 660.141602 33 
L 663.75 35.47433 
L 664.407087 36 
L 667.5 38.886719 
L 667.594401 39 
L 670.959961 42 
L 671.25 42.257813 
L 673.453544 45 
L 675 46.018842 
L 678.75 46.83252 
L 680.695801 48 
L 681.008301 51 
L 682.209961 54 
L 682.5 54.290039 
L 685.209961 57 
L 686.25 57.924479 
L 688.584961 60 
L 690 61.415039 
L 691.584961 63 
L 693.75 65.47433 
L 694.209961 66 
L 696.895419 69 
L 697.5 69.760045 
L 699.133301 72 
L 701.25 74.902902 
L 701.310686 75 
L 702.917829 78 
L 704.257115 81 
L 705 83.080078 
L 705.353816 84 
L 707.258301 87 
L 708.75 89.386719 
L 709.078544 90 
L 710.056641 93 
L 710.806641 96 
L 711.615601 99 
L 712.108801 102 
L 712.5 103.773438 
L 712.828544 105 
L 713.724976 108 
L 714.314683 111 
L 714.535271 114 
L 714.314683 117 
L 713.43233 120 
L 712.5 122.535938 
L 712.338867 123 
L 712.16748 126 
L 712.5 127.330078 
L 712.91748 129 
L 712.939453 132 
L 712.755534 135 
L 712.5 136.226563 
L 712.16748 138 
L 711.41748 141 
L 710.47998 144 
L 708.992085 147 
L 708.75 147.459961 
L 707.930633 150 
L 707.66748 153 
L 706.373506 156 
L 705 158.668527 
L 704.792829 159 
L 701.633301 162 
L 701.25 162.262835 
L 697.5 164.619978 
L 697.084351 165 
L 693.803101 168 
L 693.75 168.048549 
L 690.521851 171 
L 690 171.371094 
L 686.25 173.53776 
L 685.383301 174 
L 682.5 175.456826 
L 679.445801 177 
L 678.75 177.303622 
L 675 178.667259 
L 671.25 179.758168 
L 669.919922 180 
L 667.5 180.40332 
L 663.75 181.02832 
L 660 181.40332 
L 656.25 181.939986 
L 652.5 182.507812 
L 648.75 182.90332 
L 647.783203 183 
L 645 183.27832 
L 641.25 183.52832 
L 637.5 183.942595 
L 633.75 184.530895 
L 630 185.704427 
L 628.891602 186 
L 626.25 186.507188 
L 622.5 186.774275 
L 618.75 186.774275 
L 615 186.774275 
L 611.25 186.881417 
L 607.5 186.881417 
L 603.75 186.954472 
L 600 187.05792 
L 596.25 187.05792 
L 592.5 186.954472 
L 588.75 186.69184 
L 585 186.256911 
L 583.330078 186 
L 581.25 185.69184 
L 577.5 185.059989 
L 573.75 184.417132 
L 570 183.881417 
L 566.25 183.452846 
L 563.080078 183 
L 562.5 182.929688 
L 558.75 182.293324 
L 555 181.384233 
L 551.25 180.293324 
L 550.241699 180 
L 547.5 179.247991 
L 543.75 178.21942 
L 540.193359 177 
L 540 176.931756 
L 536.25 175.608226 
L 532.5 174.20874 
L 531.943359 174 
L 528.75 172.80249 
L 525 171.699345 
L 522.741699 171 
L 521.25 170.506196 
L 517.5 168.833834 
L 515.693359 168 
L 513.75 167.222656 
L 510 165.437231 
L 509.366016 165 
L 506.25 162.507188 
L 505.703462 162 
L 502.714529 159 
L 502.5 158.758168 
L 499.582707 156 
L 498.75 155.212713 
L 496.496311 153 
L 495 151.530895 
L 493.440755 150 
L 491.25 148.02832 
L 489.847745 147 
L 487.5 145.032366 
L 486.37085 144 
L 484.05229 141 
L 483.75 140.408854 
L 482.459542 138 
L 481.388114 135 
L 480 133.20613 
L 479.147843 132 
L 476.25 129.333984 
L 475.786133 129 
L 472.5 127.107188 
L 470.193359 126 
L 468.75 125.307188 
L 465 125.787188 
L 464.762486 126 
L 461.939113 129 
L 461.25 129.633984 
L 460.193743 132 
L 457.5 133.676107 
L 455.461492 132 
L 456.553265 129 
L 456.806735 126 
L 457.5 125.005523 
L 461.046351 123 
L 461.25 122.696378 
L 463.496982 120 
L 462.915927 117 
L 463.226604 114 
L 463.733341 111 
L 463.47168 108 
L 462.800009 105 
L 462.090358 102 
L 462.29834 99 
L 465 96.406406 
L 465.396881 96 
L 465 94.548549 
L 463.7682 93 
L 461.25 91.15332 
L 459.428968 90 
L 457.5 87.556641 
L 457.1024 87 
L 455.415927 84 
L 454.039147 81 
L 453.75 80.334961 
L 452.7348 78 
L 451.593495 75 
L 450.452191 72 
L 450 70.613281 
L 449.423828 69 
L 448.597745 66 
L 447.843495 63 
L 447.1521 60 
L 446.865234 57 
L 446.994757 54 
L 446.923828 51 
L 447.036133 48 
L 446.797389 45 
L 446.411133 42 
L 446.411133 39 
L 446.420611 36 
L 446.665649 33 
L 447.260742 30 
L 447.626953 27 
L 447.741699 24 
L 448.218217 21 
L 448.366699 18 
L 448.559126 15 
L 449.165039 12 
L 449.488932 9 
L 450 7.160156 
L 450.322266 6 
L 450.831299 3 
L 450.950056 0 
L 450.82673 -1 
M 453.75 136.397686 
L 453.140271 135 
L 453.75 133.746902 
L 455.372314 135 
L 453.75 136.397686 
z
" clip-path="url(#pc205380b7e)" style="fill: none; stroke: #000000"/>
    <path d="M 720 200.590745 
L 719.395419 201 
L 716.25 202.845313 
L 712.5 204.645313 
L 708.75 203.821514 
L 708.60498 204 
L 705 207.645313 
L 701.25 209.129207 
L 697.016602 210 
L 693.75 210.97998 
L 690 211.804688 
L 686.25 212.334099 
L 682.5 212.66748 
L 678.75 212.68704 
L 675 213.03776 
L 667.5 214.083984 
L 663.75 214.889509 
L 660 215.246299 
L 656.25 214.871094 
L 652.5 214.93051 
L 640.658372 215.570453 
M 617.653468 215.300825 
L 607.5 214.347188 
L 603.75 214.203465 
L 585 212.809989 
L 577.5 212.025174 
L 562.5 209.917132 
L 558.75 209.381417 
L 551.25 207.989667 
L 547.081854 207 
L 540 204.469618 
L 538.559126 204 
L 536.25 202.804688 
L 532.040039 201 
L 528.75 198.975361 
L 526.108398 198 
L 521.25 196.833984 
L 517.5 195.745864 
L 515.738932 195 
L 513.75 194.31808 
L 510 192.60498 
L 509.069261 192 
L 502.5 188.31808 
L 498.679199 186 
L 491.25 182.603795 
L 487.5 180.603795 
L 486.619466 180 
L 483.507915 177 
L 480 173.871094 
L 475.728149 171 
L 471.693359 168 
L 468.75 166.141036 
L 467.155905 165 
L 465 163.16748 
L 463.83252 162 
L 461.25 159.245313 
L 460.790039 159 
L 457.5 157.746652 
L 453.75 157.939986 
L 450 156.783984 
L 448.911133 156 
L 446.25 154.964316 
L 444.970428 153 
L 444.48584 150 
L 442.76001 147 
L 442.788783 144 
L 442.5 142.382812 
L 440.995669 138 
L 438.75 135.41748 
L 437.557199 135 
L 435 134.612965 
L 431.25 132.509457 
L 429.905599 132 
L 431.25 131.308594 
L 433.006539 129 
L 434.406072 126 
L 435.404297 123 
L 437.275015 120 
L 435 116.940505 
L 431.25 114.922335 
L 430.43335 114 
L 431.25 113.077665 
L 432.099046 111 
L 431.25 109.587188 
L 423.75 108.41748 
L 420 107.191406 
L 414.737549 105 
L 412.5 103.698153 
L 408.75 101.167969 
L 405 98.408854 
L 398.915039 93 
L 392.990945 87 
L 390 83.742188 
L 384.127308 78 
L 378.679199 72 
L 376.286399 69 
L 373.679199 66 
L 371.189314 63 
L 369.314314 60 
L 367.116699 57 
L 363.75 53.334961 
L 360 50.408854 
L 356.25 48.367969 
L 355.330078 48 
L 348.643799 45 
L 345 42.408854 
L 344.080078 42 
L 341.25 40.584961 
L 337.5 41.47998 
L 333.75 43.628217 
L 330 44.516335 
L 326.25 43.548549 
L 324.165415 42 
L 324.744466 39 
L 322.5 37.098805 
L 318.75 38.822972 
L 318.007115 39 
L 315 39.990579 
L 313.59668 39 
L 314.662774 36 
L 315 35.690739 
L 317.703929 33 
L 318.468614 30 
L 319.94751 27 
L 322.5 24.183459 
L 322.869466 24 
L 324.556274 21 
L 322.5 18.367969 
L 321.988932 18 
L 321.155599 15 
L 316.572266 12 
L 315 10.584961 
L 313.018799 9 
L 311.25 7.867969 
L 309.304199 6 
L 307.914342 3 
L 307.5 2.668527 
L 303.75 0.834961 
L 297.308056 -1 
L 297.308056 -1 
" clip-path="url(#pc205380b7e)" style="fill: none; stroke: #000000"/>
    <path d="M 720 300.553594 
L 718.178968 300 
L 718.415039 297 
L 716.992885 294 
L 717.915415 288 
L 717.036133 285 
L 716.25 283.584961 
L 713.608398 282 
L 712.5 281.113281 
L 708.75 278.668527 
L 705.414342 276 
L 703.330078 270 
L 701.25 268.335938 
L 693.75 268.382812 
L 690 267.667969 
L 686.25 269.789062 
L 682.330078 270 
L 678.75 268.408854 
L 675 267.667969 
L 671.037598 267 
L 667.5 265.970881 
L 660 263.243608 
L 656.25 261.556641 
L 652.5 261.052284 
L 648.75 261.334517 
L 645 260.243608 
L 641.25 259.306641 
L 635.412598 258 
L 633.75 257.590745 
L 626.25 256.20613 
L 621.580078 255 
L 611.25 251.845313 
L 607.5 250.845313 
L 599.917065 249.196938 
M 577.614241 243.425179 
L 562.5 239.10498 
L 556.108398 237 
L 540 233.088405 
L 528.75 229.704427 
L 513.580078 225 
L 510 224.157629 
L 506.25 222.97998 
L 502.330078 222 
L 498.75 221.349077 
L 495 220.833984 
L 491.25 220.098805 
L 487.5 219.513822 
L 483.75 219.735938 
L 482.177734 222 
L 480 223.119978 
L 477.943726 225 
L 476.25 225.802951 
L 474.443359 225 
L 468.75 220.436899 
L 467.7348 219 
L 467.130784 216 
L 465.656072 213 
L 465.325462 210 
L 465 209.157629 
L 461.25 203.877878 
L 457.5 201.056641 
L 453.75 203.467969 
L 452.20752 201 
L 450 198.922335 
L 449.554554 198 
L 446.737945 195 
L 446.25 194.702097 
L 444.684761 192 
L 445.266677 186 
L 443.441321 183 
L 442.5 182.307188 
L 438.75 182.21845 
L 436.565163 180 
L 433.210306 177 
L 431.25 173.907188 
L 426.52002 171 
L 423.75 169.522656 
L 421.37085 168 
L 420 166.245312 
L 418.540649 165 
L 416.172763 162 
L 408.75 157.445312 
L 405 155.405692 
L 401.25 152.821514 
L 397.5 150.691406 
L 393.75 148.898438 
L 385.040039 144 
L 382.5 142.436899 
L 374.488932 138 
L 369.665039 135 
L 363.75 130.970881 
L 352.5 121.970881 
L 346.804199 117 
L 343.559126 114 
L 340.150036 111 
L 326.25 99.879972 
L 322.5 97.425426 
L 314.915039 93 
L 311.25 90.744591 
L 307.5 88.977121 
L 303.75 88.098805 
L 300 88.383984 
L 296.25 89.032366 
L 292.5 89.53776 
L 288.75 89.47998 
L 285 88.383984 
L 281.25 87.627187 
L 277.5 87.23856 
L 276.804199 87 
L 275.103149 84 
L 273.75 83.088405 
L 270 82.445313 
L 268.405905 81 
L 268.086381 78 
L 266.25 76.460938 
L 262.763672 75 
L 267.65963 69 
L 268.867885 66 
L 263.588492 60 
L 262.5 59.129207 
L 258.396184 57 
L 257.819261 54 
L 255.866699 51 
L 255 50.243608 
L 251.25 47.821514 
L 247.5 45.967969 
L 243.75 45.975361 
L 240 45.607244 
L 239.072266 45 
L 234.905599 42 
L 232.5 40.425426 
L 224.922763 36 
L 221.25 33.691406 
L 217.5 31.977121 
L 213.75 30.477121 
L 201.925049 27 
L 198.75 25.548549 
L 191.25 23.405692 
L 187.5 21.806641 
L 186.155599 21 
L 183.75 19.91748 
L 180 20.445312 
L 176.25 20.191406 
L 172.5 20.075521 
L 168.75 17.408854 
L 165 15.871094 
L 161.25 16.667668 
L 158.844401 18 
L 157.5 18.569393 
L 153.655599 18 
L 150 16.119978 
L 146.155599 15 
L 142.5 12.975361 
L 138.75 11.359976 
L 123.75 11.590745 
L 120 11.821514 
L 116.25 11.191406 
L 112.5 9.879972 
L 108.75 7.425426 
L 105 7.698153 
L 101.25 10.425426 
L 99.290039 9 
L 97.5 7.977121 
L 93.75 6.845313 
L 90 6.691406 
L 89.069261 6 
L 86.25 4.045313 
L 82.5 2.29248 
L 78.75 2.167969 
L 75 1.152699 
L 72.73577 0 
L 71.087333 -1 
L 71.087333 -1 
" clip-path="url(#pc205380b7e)" style="fill: none; stroke: #000000"/>
    <path d="M 720 341.871094 
L 716.25 342.704427 
L 712.5 343.204427 
L 708.75 343.141036 
L 705 342.871094 
L 699.162598 342 
L 697.5 341.719984 
L 693.75 341.246299 
L 690 340.275276 
L 680.771484 336 
L 673.415039 333 
L 671.25 332.03776 
L 663.75 328.35498 
L 660 326.863511 
L 648.75 323.445312 
L 641.25 322.845313 
L 637.5 321.477121 
L 633.75 319.436899 
L 630 317.306641 
L 621.925049 312 
L 615 308.056641 
L 610.483398 306 
L 602.557199 303 
L 592.5 298.762835 
L 589.842152 297.851573 
M 568.331465 289.622393 
L 558.75 286.045312 
L 555 284.821514 
L 551.25 283.334263 
L 543.75 281.191406 
L 534.580078 279 
L 532.5 278.405692 
L 525 276.645313 
L 521.25 275.590745 
L 517.5 274.436899 
L 510 272.556641 
L 506.25 271.056641 
L 498.75 268.645313 
L 491.25 266.47998 
L 487.5 265.03776 
L 483.75 263.10498 
L 479.905599 261 
L 476.25 259.35498 
L 472.216797 258 
L 468.75 257.405692 
L 467.449951 258 
L 465 258.783984 
L 461.037598 258 
L 457.5 256.742188 
L 455.540039 255 
L 453.75 254.204427 
L 450 254.65332 
L 449.388212 255 
L 446.25 256.094351 
L 444.820763 258 
L 442.5 260.623471 
L 441.77832 261 
L 438.75 263.69184 
L 437.938843 261 
L 438.354818 258 
L 438.75 256.706676 
L 439.850006 255 
L 440.861373 252 
L 441.421748 249 
L 441.70105 246 
L 441.401931 243 
L 442.5 240.824777 
L 442.764029 240 
L 442.975299 237 
L 443.438425 234 
L 443.072662 231 
L 442.5 229.533984 
L 441.516677 228 
L 440.339804 225 
L 439.647786 222 
L 438.75 220.756911 
L 435 221.136285 
L 432.226938 219 
L 431.25 217.983984 
L 429.872233 216 
L 429.082868 213 
L 427.5 210.667352 
L 423.75 207.033984 
L 423.693359 207 
L 420 204.53776 
L 416.25 203.66748 
L 412.5 203.245313 
L 408.75 202.645313 
L 405 201.845313 
L 401.25 200.845312 
L 393.75 199.119978 
L 382.5 195.905692 
L 375 192.975361 
L 371.25 191.556641 
L 365.987549 189 
L 360 185.789062 
L 348.75 179.167969 
L 340.675049 174 
L 333.75 169.867969 
L 326.155599 165 
L 313.487549 156 
L 303.75 149.167969 
L 300 146.789062 
L 295.206299 144 
L 288.75 139.970881 
L 277.5 134.306641 
L 273.75 132.607244 
L 262.5 128.590745 
L 258.75 127.306641 
L 249.665039 123 
L 247.5 121.91748 
L 243.75 120.889509 
L 240 121.410757 
L 236.25 121.704427 
L 232.405599 120 
L 228.75 119.150958 
L 225 119.622656 
L 221.25 117.919922 
L 221.050017 117 
L 221.966016 114 
L 221.25 111.954241 
L 220.322266 111 
L 217.5 107.845313 
L 213.75 107.243608 
L 210 105.459961 
L 206.25 104.334961 
L 202.439314 102 
L 200.23577 99 
L 195.950056 96 
L 195 94.935938 
L 193.487549 93 
L 189.737549 90 
L 187.5 87.954241 
L 186.108398 87 
L 183.75 85.584961 
L 180 83.742188 
L 176.25 82.075521 
L 168.75 79.408854 
L 165 78.834961 
L 161.25 77.767969 
L 157.5 79.867969 
L 153.75 80.306641 
L 150 79.056641 
L 146.25 77.306641 
L 142.5 76.436899 
L 138.75 75.742188 
L 135 75.334517 
L 131.25 74.467969 
L 127.5 74.556641 
L 123.75 75.06179 
L 120 74.806641 
L 116.25 73.698153 
L 112.075195 72 
L 108.75 71.408854 
L 105 71.556641 
L 101.25 71.556641 
L 97.5 70.898438 
L 93.537598 69 
L 90 67.584961 
L 86.25 67.408854 
L 84.488932 66 
L 82.5 63.954241 
L 78.75 63.075521 
L 75.094401 66 
L 75.97998 69 
L 76.344401 72 
L 75 73.613281 
L 74.069261 72 
L 70.896184 69 
L 69.162598 66 
L 63.75 64.209961 
L 61.330078 63 
L 60 62.556641 
L 56.25 62.467969 
L 48.75 61.152699 
L 44.575195 60 
L 41.25 59.516335 
L 33.75 59.334961 
L 30 59.075521 
L 26.25 59.075521 
L 22.5 59.334961 
L 15 60.084961 
L 7.5 61.613281 
L 3.75 62.535938 
L 2.783203 63 
L 0 63.667969 
L -1 63.704948 
L -1 63.704948 
" clip-path="url(#pc205380b7e)" style="fill: none; stroke: #000000"/>
    <path d="M 720 384.645313 
L 716.25 384.905692 
L 712.5 384.262835 
L 708.75 384.477121 
L 705 384.97998 
L 701.25 385.445313 
L 697.5 385.977121 
L 693.75 386.191406 
L 690 386.10498 
L 686.25 385.91748 
L 682.5 385.981158 
L 678.75 385.233984 
L 675.322266 384 
L 675 383.845312 
L 671.25 382.119978 
L 669.072266 381 
L 667.5 379.970881 
L 665.036399 378 
L 663.75 377.245312 
L 660 375.79248 
L 657.73577 375 
L 656.25 374.306641 
L 652.5 372.06179 
L 652.330078 372 
L 648.75 371.045313 
L 645 370.445313 
L 641.25 369.691406 
L 638.225098 369 
L 637.5 368.821514 
L 633.75 367.436899 
L 630 366.052284 
L 629.858398 366 
L 626.25 364.667668 
L 622.5 363.477121 
L 620.830078 363 
L 618.75 362.359976 
L 615 361.445312 
L 611.25 360.845313 
L 607.5 360.048549 
L 607.330078 360 
L 603.75 358.898438 
L 600 357.806641 
L 597.983398 357 
L 596.25 356.306641 
L 592.5 355.056641 
L 589.330078 354 
L 588.75 353.789063 
L 585 352.306641 
L 581.25 351.056641 
L 581.108398 351 
L 577.5 349.556641 
L 573.75 348.306641 
L 572.830078 348 
L 570 347.056641 
L 566.25 345.806641 
L 563.830078 345 
L 562.5 344.556641 
L 558.75 343.306641 
L 555 342.052284 
L 554.858398 342 
L 551.25 340.556641 
L 547.5 339.306641 
L 546.733398 339 
L 543.75 337.698153 
L 540 336.334517 
L 539.233398 336 
L 536.25 334.698153 
L 532.5 333.056641 
L 532.358398 333 
L 528.75 331.425426 
L 525.483398 330 
L 525 329.789062 
L 521.25 328.306641 
L 517.983398 327 
L 517.5 326.789062 
L 513.75 325.425426 
L 510.483398 324 
L 510 323.806641 
L 506.25 322.556641 
L 502.5 321.306641 
L 501.580078 321 
L 498.75 320.056641 
L 495 318.744591 
L 492.580078 318 
L 491.25 317.590745 
L 487.5 316.436899 
L 483.75 315.262835 
L 482.830078 315 
L 480 314.191406 
L 476.25 313.045313 
L 472.5 312.04248 
L 472.358398 312 
L 468.75 310.91748 
L 465 310.098805 
L 461.25 309.22998 
L 460.100098 309 
L 457.5 308.47998 
L 453.75 308.129207 
L 450 307.425426 
L 446.25 306.067969 
L 446.108398 306 
L 442.5 305.27832 
L 441.823425 306 
L 438.806641 309 
L 438.75 309.035773 
L 438.628627 309 
L 435 306.967969 
L 434.363178 306 
L 433.203876 303 
L 431.25 300.967969 
L 430.538258 300 
L 428.655599 297 
L 427.5 296.167969 
L 423.75 296.915551 
L 423.682824 297 
L 420.379528 300 
L 420 300.20874 
L 417.51888 303 
L 416.25 303.801398 
L 414.053861 303 
L 413.088672 300 
L 414.878991 297 
L 416.25 296.004215 
L 417.965319 294 
L 418.728215 291 
L 420 288.165737 
L 420.041434 288 
L 420.318388 285 
L 420.667475 282 
L 420.955179 279 
L 421.376953 276 
L 420 275.427187 
L 416.25 273.23856 
L 413.3212 276 
L 412.5 276.867188 
L 411.6788 276 
L 411.895106 273 
L 412.5 271.45752 
L 413.41095 270 
L 413.283343 267 
L 413.397786 264 
L 413.498419 261 
L 413.438812 258 
L 413.246565 255 
L 412.5 252.834961 
L 412.212082 252 
L 411.097745 249 
L 408.75 246.569393 
L 407.021484 246 
L 405 245.334099 
L 401.25 244.451746 
L 397.5 243.922335 
L 393.75 243.41748 
L 390.966797 243 
L 390 242.863511 
L 386.25 242.29248 
L 382.5 241.445312 
L 378.75 240.645313 
L 375.725098 240 
L 375 239.845313 
L 371.25 238.845313 
L 367.5 238.045313 
L 363.75 237.045312 
L 363.580078 237 
L 360 235.977121 
L 356.25 234.691406 
L 354.233398 234 
L 352.5 233.405692 
L 348.75 232.045313 
L 345.950056 231 
L 345 230.645313 
L 341.25 229.445312 
L 337.5 228.245312 
L 336.733398 228 
L 333.75 226.977121 
L 330 225.645313 
L 328.487549 225 
L 326.25 223.977121 
L 322.5 222.477121 
L 321.456299 222 
L 318.75 220.762835 
L 315 219.048549 
L 314.893799 219 
L 311.25 217.20613 
L 308.800049 216 
L 307.5 215.359976 
L 303.75 213.513822 
L 302.706299 213 
L 300 211.667668 
L 296.988932 210 
L 296.25 209.619978 
L 292.5 207.691406 
L 291.155599 207 
L 288.75 205.667668 
L 285.738932 204 
L 285 203.590745 
L 281.25 201.806641 
L 279.521484 201 
L 277.5 199.970881 
L 273.75 198.367969 
L 272.830078 198 
L 270 196.970881 
L 266.25 195.334517 
L 265.483398 195 
L 262.5 193.698153 
L 258.75 192.06179 
L 258.608398 192 
L 255 190.425426 
L 251.25 189.06179 
L 251.037598 189 
L 247.5 187.867969 
L 243.75 186.556641 
L 242.706299 186 
L 240 184.556641 
L 237.405599 183 
L 236.25 182.306641 
L 232.5 180.056641 
L 232.378627 180 
L 228.75 178.306641 
L 225.950056 177 
L 225 176.556641 
L 221.25 175.056641 
L 218.608398 174 
L 217.5 173.556641 
L 213.75 172.056641 
L 211.108398 171 
L 210 170.590745 
L 207.08058 169.512806 
M 185.874904 160.534475 
L 183.75 159.607244 
L 182.080078 159 
L 180 158.243608 
L 176.25 156.879972 
L 173.830078 156 
L 172.5 155.516335 
L 168.75 153.967969 
L 165.725098 153 
L 165 152.767969 
L 161.25 151.567969 
L 157.5 150.367969 
L 155.966797 150 
L 153.75 149.467969 
L 150 148.567969 
L 146.25 147.667969 
L 143.466797 147 
L 142.5 146.742188 
L 138.75 145.742188 
L 135 144.834961 
L 131.25 144.084961 
L 130.400391 144 
L 127.5 143.709961 
L 123.75 142.811384 
L 120 143.113281 
L 116.25 142.584961 
L 112.5 142.667668 
L 109.407087 144 
L 108.75 144.408854 
L 105 145.898438 
L 101.25 144.169922 
L 100.966797 144 
L 97.5 143.405692 
L 95.766602 144 
L 93.75 144.645313 
L 90 144.825247 
L 86.25 144.367969 
L 82.5 144.513822 
L 78.75 144.113281 
L 78.325195 144 
L 75 142.226563 
L 71.25 142.226563 
L 69.587402 144 
L 70.471722 147 
L 70.3608 150 
L 67.5 151.485609 
L 65.575462 150 
L 63.75 148.539631 
L 61.752838 147 
L 60 144.027188 
L 59.95752 144 
L 56.25 141.52832 
L 55.41581 141 
L 52.5 138.783984 
L 50.718217 138 
L 48.75 136.667668 
L 45 135.806641 
L 41.25 135.691406 
L 37.5 136.152699 
L 33.75 135.879972 
L 30 136.152699 
L 26.25 136.556641 
L 22.5 136.762835 
L 18.75 137.668527 
L 15 137.535938 
L 11.25 136.382813 
L 7.5 137.075521 
L 3.75 137.709961 
L 3.024902 138 
L 0 138.967969 
L -1 139.287969 
M 93.75 165.7481 
L 93.356823 165 
L 93.75 164.23112 
L 94.441992 165 
L 93.75 165.7481 
z
" clip-path="url(#pc205380b7e)" style="fill: none; stroke: #000000"/>
    <path d="M 720 443.056641 
L 716.25 443.306641 
L 712.5 443.516335 
L 708.75 443.306641 
L 705 443.243608 
L 701.25 443.742188 
L 697.5 443.767969 
L 694.599609 444 
L 693.75 444.075521 
L 690 444.067969 
L 686.25 444.067969 
L 682.5 444.556641 
L 678.75 445.056641 
L 675 445.306641 
L 671.25 445.667668 
L 667.5 445.970881 
L 663.75 446.075521 
L 660 445.959961 
L 656.25 445.584961 
L 652.5 444.954241 
L 648.75 444.097098 
L 648.325195 444 
L 645 443.516335 
L 641.25 443.467969 
L 637.5 443.075521 
L 633.75 442.075521 
L 630.725098 441 
L 630 440.613281 
L 626.25 439.113281 
L 624.162598 438 
L 622.5 437.334961 
L 618.75 436.209961 
L 615 435.097098 
L 614.716797 435 
L 611.25 433.959961 
L 607.5 433.075521 
L 603.75 432.075521 
L 603.466797 432 
L 600 430.811384 
L 596.25 429.52567 
L 595.330078 429 
L 592.5 427.113281 
L 588.75 426.459961 
L 585 426.067969 
L 581.25 426.306641 
L 577.5 426.06179 
L 577.075195 426 
L 573.75 424.935938 
L 570 423.735938 
L 568.466797 423 
L 566.25 421.935938 
L 562.5 420.169922 
L 562.287598 420 
L 558.75 417.735938 
L 557.600098 417 
L 555 415.335938 
L 552.216797 414 
L 551.25 413.535938 
L 547.5 411.735937 
L 545.966797 411 
L 543.75 409.226563 
L 542.216797 408 
L 540 405.339844 
L 539.716797 405 
L 536.25 403.959961 
L 532.5 403.209961 
L 528.75 402.459961 
L 527.216797 402 
L 525 401.467969 
L 521.25 400.867969 
L 517.5 400.075521 
L 513.75 399.075521 
L 513.466797 399 
L 510 397.959961 
L 506.25 396.459961 
L 505.100098 396 
L 502.5 394.959961 
L 498.75 393.52567 
L 497.600098 393 
L 495 391.613281 
L 491.975098 390 
L 491.25 389.419922 
L 488.830078 387 
L 487.5 385.935938 
L 485.080078 384 
L 483.75 383.408854 
L 480 381.52567 
L 478.850098 381 
L 476.25 380.075521 
L 472.5 378.408854 
L 471.733398 378 
L 468.75 376.698153 
L 465 375.075521 
L 464.858398 375 
L 461.25 373.556641 
L 457.914342 372 
L 457.5 371.806641 
L 453.75 369.967969 
L 451.733398 369 
L 450 368.167969 
L 446.25 366.459961 
L 445.100098 366 
L 442.5 364.959961 
L 438.75 363.52567 
L 437.600098 363 
L 435 362.075521 
L 431.25 360.459961 
L 430.100098 360 
L 427.5 359.243608 
L 423.75 358.20613 
L 420 357.905692 
L 416.25 357.607244 
L 412.5 357.408854 
L 408.75 357.367969 
L 405 357.067969 
L 404.575195 357 
L 401.25 356.239955 
L 397.983398 354 
L 397.5 353.668527 
L 393.75 353.613281 
L 391.572266 351 
L 390 349.742188 
L 387.641602 351 
L 386.25 352.113281 
L 382.5 352.382812 
L 379.475098 351 
L 382.5 350.032031 
L 384.453876 348 
L 382.5 346.983984 
L 378.75 346.935938 
L 375 347.668527 
L 374.274902 348 
L 372.399902 351 
L 371.25 351.408854 
L 368.950195 351 
L 367.5 350.863511 
L 366.049805 351 
L 363.75 351.216452 
L 363.591393 351 
L 363.75 349.160156 
L 363.920611 348 
L 365.476817 345 
L 365.586625 342 
L 366.444689 339 
L 366.290253 336 
L 366.566016 333 
L 367.5 330.924479 
L 367.766677 330 
L 367.62085 327 
L 367.5 324.679688 
L 363.75 325.839844 
L 362.830078 324 
L 360 321.169922 
L 357.169922 324 
L 356.25 324.735938 
L 352.712402 327 
L 352.5 327.169922 
L 348.75 329.191406 
L 347.998047 327 
L 348.75 325.38528 
L 350.12085 324 
L 348.857422 321 
L 351.057943 318 
L 351.329418 315 
L 351.991182 312 
L 352.5 310.84668 
L 355.138114 309 
L 355.069057 306 
L 355.662977 303 
L 354.233398 300 
L 352.5 299.69184 
L 348.75 299.899117 
L 347.299805 300 
L 345 300.183984 
L 341.25 300.603795 
L 337.5 301.20613 
L 333.75 301.567969 
L 331.572266 300 
L 330 298.970881 
L 326.25 299.668527 
L 323.655599 297 
L 323.331299 294 
L 322.5 292.935938 
L 319.475098 291 
L 318.75 290.613281 
L 315 289.335938 
L 311.25 288.113281 
L 310.966797 288 
L 307.5 286.613281 
L 303.75 285.613281 
L 302.216797 285 
L 300 284.334961 
L 296.25 283.382812 
L 292.5 282.52567 
L 290.200195 282 
L 288.75 281.668527 
L 285 280.382813 
L 281.25 279.097098 
L 280.966797 279 
L 277.5 277.811384 
L 273.75 276.52567 
L 272.216797 276 
L 270 275.239955 
L 266.25 273.954241 
L 263.466797 273 
L 262.5 272.668527 
L 258.75 271.382812 
L 255 270.097098 
L 254.716797 270 
L 251.25 268.613281 
L 247.5 267.097098 
L 247.287598 267 
L 243.75 265.382813 
L 240.725098 264 
L 240 263.668527 
L 236.25 261.954241 
L 234.580078 261 
L 232.5 259.811384 
L 228.75 258.097098 
L 228.537598 258 
L 225 256.382812 
L 221.25 255.459961 
L 220.100098 255 
L 217.5 253.959961 
L 213.75 252.52567 
L 212.600098 252 
L 210 250.811384 
L 206.25 249.097098 
L 205.966797 249 
L 202.5 247.811384 
L 198.75 246.459961 
L 197.216797 246 
L 195 245.334961 
L 191.25 244.382813 
L 187.5 243.52567 
L 183.75 243.097098 
L 182.900391 243 
L 180 242.668527 
L 176.25 242.239955 
L 172.5 242.239955 
L 168.75 241.382812 
L 165 240.954241 
L 161.25 240.52567 
L 157.5 240.097098 
L 156.650391 240 
L 153.75 239.668527 
L 150 239.668527 
L 147.099609 240 
L 146.25 240.097098 
L 142.5 240.459961 
L 138.75 240.459961 
L 135 240.459961 
L 131.25 240.459961 
L 127.5 240.097098 
L 123.75 240.084961 
L 122.900391 240 
L 120 239.709961 
L 116.25 239.709961 
L 112.5 239.334961 
L 108.75 239.075521 
L 105 238.742188 
L 101.25 238.408854 
L 97.5 238.209961 
L 93.75 237.834961 
L 90 237.52567 
L 86.25 237.52567 
L 82.5 237.742188 
L 78.75 237.459961 
L 75 237.097098 
L 71.25 237.097098 
L 67.5 237.097098 
L 63.75 237.459961 
L 60 237.742188 
L 56.25 237.097098 
L 55.825195 237 
L 52.5 236.467969 
L 48.75 236.167969 
L 45 235.306641 
L 41.25 234.06179 
L 38.364258 237 
L 37.5 239.419922 
L 34.475098 237 
L 33.75 236.709961 
L 30 235.556641 
L 26.25 234.067969 
L 25.966797 234 
L 22.5 233.405692 
L 18.75 232.267969 
L 16.48577 231 
L 15 230.075521 
L 11.25 228.097098 
L 10.966797 228 
L 7.5 226.959961 
L 3.75 225.52567 
L 2.216797 225 
L 0 224.334961 
L -1 224.434961 
M 360 304.924479 
L 360.6984 303 
L 360 301.762835 
L 357.834961 303 
L 360 304.924479 
z
" clip-path="url(#pc205380b7e)" style="fill: none; stroke: #000000"/>
    <path d="M 720 514.742188 
L 716.25 515.334961 
L 712.5 516.084961 
L 701.25 517.382812 
L 697.5 517.382812 
L 693.75 517.959961 
L 690 518.408854 
L 686.25 519.097098 
L 675 522.459961 
L 671.25 522.954241 
L 667.5 523.811384 
L 663.75 524.334961 
L 656.25 525.097098 
L 648.75 525.954241 
L 645 525.954241 
L 641.25 524.668527 
L 637.5 524.467969 
L 633.75 525.367969 
L 630 526.075521 
L 624.033203 528 
L 622.5 528.408854 
L 618.75 529.584961 
L 611.25 531.084961 
L 607.5 531.459961 
L 600 532.584961 
L 592.5 533.113281 
L 588.75 533.535938 
L 585 534.113281 
L 573.75 535.613281 
L 570 535.613281 
L 566.25 535.335938 
L 562.5 534.919922 
L 558.992091 534.18655 
M 535.981023 534.613281 
L 528.75 534.613281 
L 525 534.135938 
L 521.25 534.135938 
L 517.5 534.52567 
L 506.25 534.613281 
L 491.25 536.613281 
L 487.5 537.613281 
L 480 538.613281 
L 476.25 538.613281 
L 472.5 538.335938 
L 468.325195 537 
L 465 535.226562 
L 460.400391 534 
L 457.5 533.535938 
L 453.75 533.419922 
L 446.25 531.919922 
L 443.950195 531 
L 442.5 530.226563 
L 435 528.226562 
L 427.5 528.169922 
L 423.75 528.735938 
L 419.575195 528 
L 416.25 526.226562 
L 411.650391 525 
L 408.75 524.419922 
L 405 523.935938 
L 401.25 523.613281 
L 397.5 523.113281 
L 393.325195 522 
L 390 520.935938 
L 386.25 519.919922 
L 383.950195 519 
L 382.5 517.839844 
L 380.966797 516 
L 378.75 514.935938 
L 375 514.382813 
L 371.25 514.935938 
L 367.5 516.169922 
L 363.75 516.169922 
L 362.900391 516 
L 360 515.535938 
L 356.25 516.169922 
L 355.400391 516 
L 352.5 514.839844 
L 351.350098 513 
L 348.75 510.919922 
L 347.830078 510 
L 345 505.226563 
L 343.850098 504 
L 341.25 502.335938 
L 337.5 500.535938 
L 333.580078 498 
L 331.108398 495 
L 329.787598 492 
L 327.912598 489 
L 326.25 487.226562 
L 322.5 484.226563 
L 314.716797 480 
L 311.037598 477 
L 307.5 473.226563 
L 305.830078 471 
L 302.080078 468 
L 297.580078 462 
L 296.037598 459 
L 294.162598 456 
L 292.5 454.226563 
L 290.966797 453 
L 290.200195 450 
L 289.716797 447 
L 288.466797 444 
L 288.325195 441 
L 286.450195 438 
L 282.700195 435 
L 281.25 434.226563 
L 278.466797 432 
L 278.225098 429 
L 277.5 427.839844 
L 275.966797 426 
L 273.75 424.226563 
L 266.25 420.226562 
L 265.400391 420 
L 258.75 417.226563 
L 255 417.226563 
L 254.150391 417 
L 251.25 416.419922 
L 247.5 416.226563 
L 243.75 413.226563 
L 240 411.919922 
L 236.25 410.419922 
L 228.75 406.226562 
L 227.216797 405 
L 226.662598 402 
L 225 400.935938 
L 222.580078 399 
L 221.25 398.334961 
L 214.716797 396 
L 213.75 395.419922 
L 210 394.669922 
L 206.25 393.226563 
L 202.5 393.919922 
L 197.900391 393 
L 195 392.226562 
L 191.25 390.919922 
L 186.650391 390 
L 180 387.339844 
L 176.25 387.339844 
L 172.5 387.169922 
L 172.075195 387 
L 168.75 385.226563 
L 165 384.339844 
L 164.150391 384 
L 161.25 381.679688 
L 157.5 381.679688 
L 154.599609 384 
L 153.75 384.339844 
L 150 384.679688 
L 147.099609 387 
L 146.25 387.339844 
L 142.924805 390 
L 142.5 390.169922 
L 138.75 390.226563 
L 135 390.679687 
L 131.25 390.339844 
L 130.825195 390 
L 125.200195 387 
L 123.75 385.839844 
L 116.25 385.839844 
L 114.716797 384 
L 114.233398 381 
L 115.057199 378 
L 116.143799 375 
L 116.664342 372 
L 117.822266 369 
L 117.983398 366 
L 116.975098 363 
L 116.25 362.419922 
L 112.5 361.226562 
L 108.75 360.226562 
L 101.25 360.169922 
L 93.75 360.226562 
L 90 361.226562 
L 86.25 361.226562 
L 82.5 360.339844 
L 78.75 360.226562 
L 75 360.226562 
L 71.25 360.339844 
L 67.5 361.226562 
L 63.75 361.226562 
L 59.150391 360 
L 51.650391 357 
L 48.75 356.419922 
L 45 357.169922 
L 44.150391 357 
L 41.25 356.226563 
L 37.5 354.339844 
L 37.216797 354 
L 33.325195 351 
L 25.825195 348 
L 22.075195 345 
L 15 342.169922 
L 14.150391 342 
L 11.25 341.226563 
L 7.5 341.226563 
L 4.716797 339 
L 3.75 338.613281 
L 1.790039 336 
L 0 333.954241 
L -1 333.736027 
L -1 333.736027 
" clip-path="url(#pc205380b7e)" style="fill: none; stroke: #000000"/>
    <path clip-path="url(#pc205380b7e)" style="fill: none; stroke: #000000"/>
    <path clip-path="url(#pc205380b7e)" style="fill: none; stroke: #000000"/>
    <path clip-path="url(#pc205380b7e)" style="fill: none; stroke: #000000"/>
    <path clip-path="url(#pc205380b7e)" style="fill: none; stroke: #000000"/>
    <path clip-path="url(#pc205380b7e)" style="fill: none; stroke: #000000"/>
    <path clip-path="url(#pc205380b7e)" style="fill: none; stroke: #000000"/>
    <path clip-path="url(#pc205380b7e)" style="fill: none; stroke: #000000"/>
    <path clip-path="url(#pc205380b7e)" style="fill: none; stroke: #000000"/>
   </g>
   <g id="patch_3">
    <path d="M 0 720 
L 0 720 
L 0 0 
L 720 0 
L 720 720 
L 0 720 
z
" style="fill: none; stroke: #000000; stroke-width: 0.8; stroke-linejoin: miter; stroke-linecap: square"/>
   </g>
   <g id="text_1">
    <g clip-path="url(#pc205380b7e)">
     <!-- 1290 -->
     <g transform="translate(581.040608 105.577276) rotate(-5.640756) scale(0.08 -0.08)">
      <defs>
       <path id="MS-Gothic-31" d="M 1375 50 
L 1375 2000 
L 1375 3925 
L 625 3925 
L 625 4225 
Q 1500 4225 1650 4925 
L 1950 4925 
L 1950 50 
L 1375 50 
z
" transform="scale(0.015625)"/>
       <path id="MS-Gothic-32" d="M 2850 525 
L 2850 50 
L 300 50 
L 300 450 
Q 875 1525 1725 2500 
Q 2200 3050 2200 3650 
Q 2200 4075 1975 4300 
Q 1825 4450 1575 4450 
Q 1375 4450 1175 4250 
Q 950 4025 950 3325 
L 400 3325 
Q 425 4225 825 4625 
Q 1125 4925 1625 4925 
Q 2100 4925 2425 4600 
Q 2775 4250 2775 3625 
Q 2775 2900 2100 2125 
Q 1375 1300 900 525 
L 2850 525 
z
" transform="scale(0.015625)"/>
       <path id="MS-Gothic-39" d="M 2250 4625 
Q 2825 4050 2825 2550 
Q 2825 1025 2150 350 
Q 1850 50 1400 50 
Q 1025 50 800 275 
Q 400 675 375 1175 
L 950 1175 
Q 950 850 1175 625 
Q 1275 525 1450 525 
Q 1625 525 1775 675 
Q 2150 1050 2250 2250 
Q 1975 1675 1400 1675 
Q 1025 1675 725 1975 
Q 325 2375 325 3300 
Q 325 4150 775 4600 
Q 1100 4925 1525 4925 
Q 1950 4925 2250 4625 
z
M 1875 4325 
Q 1725 4475 1500 4475 
Q 1350 4475 1175 4300 
Q 900 4025 900 3300 
Q 900 2525 1150 2275 
Q 1300 2125 1500 2125 
Q 1725 2125 1900 2300 
Q 2200 2600 2200 3200 
Q 2200 4000 1875 4325 
z
" transform="scale(0.015625)"/>
       <path id="MS-Gothic-30" d="M 200 2500 
Q 200 3975 800 4575 
Q 1150 4925 1575 4925 
Q 2000 4925 2350 4575 
Q 2950 3975 2950 2500 
Q 2950 1000 2350 400 
Q 2000 50 1575 50 
Q 1150 50 800 400 
Q 200 1000 200 2500 
z
M 2375 2500 
Q 2375 3825 1900 4300 
Q 1750 4450 1575 4450 
Q 1400 4450 1250 4300 
Q 775 3800 775 2500 
Q 775 1150 1250 675 
Q 1400 525 1575 525 
Q 1750 525 1900 675 
Q 2375 1150 2375 2500 
z
" transform="scale(0.015625)"/>
      </defs>
      <use xlink:href="#MS-Gothic-31"/>
      <use xlink:href="#MS-Gothic-32" transform="translate(50 0)"/>
      <use xlink:href="#MS-Gothic-39" transform="translate(100 0)"/>
      <use xlink:href="#MS-Gothic-30" transform="translate(150 0)"/>
     </g>
    </g>
   </g>
   <g id="text_2">
    <g clip-path="url(#pc205380b7e)">
     <!-- 1320 -->
     <g transform="translate(535.357117 155.312326) rotate(-339.817992) scale(0.08 -0.08)">
      <defs>
       <path id="MS-Gothic-33" d="M 850 1500 
Q 825 950 1075 700 
Q 1250 525 1550 525 
Q 1800 525 2025 750 
Q 2250 975 2250 1500 
Q 2250 1900 1975 2175 
Q 1775 2375 1375 2350 
L 1375 2775 
Q 1775 2800 1975 3000 
Q 2175 3200 2175 3600 
Q 2175 4100 1950 4325 
Q 1800 4475 1575 4475 
Q 1350 4475 1200 4325 
Q 950 4075 925 3575 
L 375 3575 
Q 400 4225 800 4625 
Q 1100 4925 1575 4925 
Q 2075 4925 2375 4625 
Q 2725 4275 2725 3700 
Q 2725 3175 2450 2900 
Q 2200 2650 1975 2575 
Q 2300 2475 2475 2300 
Q 2825 1950 2825 1450 
Q 2825 800 2425 400 
Q 2075 50 1550 50 
Q 975 50 650 375 
Q 275 750 275 1500 
L 850 1500 
z
" transform="scale(0.015625)"/>
      </defs>
      <use xlink:href="#MS-Gothic-31"/>
      <use xlink:href="#MS-Gothic-33" transform="translate(50 0)"/>
      <use xlink:href="#MS-Gothic-32" transform="translate(100 0)"/>
      <use xlink:href="#MS-Gothic-30" transform="translate(150 0)"/>
     </g>
    </g>
   </g>
   <g id="text_3">
    <g clip-path="url(#pc205380b7e)">
     <!-- 1350 -->
     <g transform="translate(614.202281 12.577422) rotate(-333.272318) scale(0.08 -0.08)">
      <defs>
       <path id="MS-Gothic-35" d="M 850 1425 
Q 850 925 1100 675 
Q 1250 525 1525 525 
Q 1750 525 1950 725 
Q 2250 1025 2250 1725 
Q 2250 2375 2000 2625 
Q 1850 2775 1650 2775 
Q 1200 2775 925 2250 
L 425 2250 
L 575 4925 
L 2725 4925 
L 2725 4450 
L 1050 4450 
L 950 2825 
Q 1275 3200 1775 3200 
Q 2150 3200 2425 2925 
Q 2825 2525 2825 1725 
Q 2825 875 2350 400 
Q 2000 50 1500 50 
Q 975 50 675 350 
Q 300 725 275 1425 
L 850 1425 
z
" transform="scale(0.015625)"/>
      </defs>
      <use xlink:href="#MS-Gothic-31"/>
      <use xlink:href="#MS-Gothic-33" transform="translate(50 0)"/>
      <use xlink:href="#MS-Gothic-35" transform="translate(100 0)"/>
      <use xlink:href="#MS-Gothic-30" transform="translate(150 0)"/>
     </g>
    </g>
   </g>
   <g id="text_4">
    <g clip-path="url(#pc205380b7e)">
     <!-- 1380 -->
     <g transform="translate(621.113905 218.445671) rotate(-359.165193) scale(0.08 -0.08)">
      <defs>
       <path id="MS-Gothic-38" d="M 1575 2325 
Q 1300 2325 1100 2125 
Q 850 1875 850 1450 
Q 850 950 1100 700 
Q 1300 500 1575 500 
Q 1850 500 2050 700 
Q 2300 950 2300 1450 
Q 2300 1875 2050 2125 
Q 1850 2325 1575 2325 
z
M 2075 2550 
Q 2300 2475 2475 2300 
Q 2875 1900 2875 1450 
Q 2875 775 2475 375 
Q 2150 50 1575 50 
Q 1000 50 675 375 
Q 275 775 275 1450 
Q 275 1900 675 2300 
Q 850 2475 1075 2550 
Q 875 2625 750 2750 
Q 400 3100 400 3575 
L 400 3600 
Q 400 4225 775 4600 
Q 1100 4925 1575 4925 
Q 2050 4925 2375 4600 
Q 2750 4225 2750 3600 
L 2750 3575 
Q 2750 3100 2400 2750 
Q 2275 2625 2075 2550 
z
M 1575 4475 
Q 1325 4475 1150 4300 
Q 950 4100 950 3600 
L 950 3575 
Q 950 3125 1150 2925 
Q 1325 2750 1575 2750 
Q 1825 2750 2000 2925 
Q 2200 3125 2200 3575 
L 2200 3600 
Q 2200 4100 2000 4300 
Q 1825 4475 1575 4475 
z
" transform="scale(0.015625)"/>
      </defs>
      <use xlink:href="#MS-Gothic-31"/>
      <use xlink:href="#MS-Gothic-33" transform="translate(50 0)"/>
      <use xlink:href="#MS-Gothic-38" transform="translate(100 0)"/>
      <use xlink:href="#MS-Gothic-30" transform="translate(150 0)"/>
     </g>
    </g>
   </g>
   <g id="text_5">
    <g clip-path="url(#pc205380b7e)">
     <!-- 1410 -->
     <g transform="translate(580.36429 246.867358) rotate(-345.62589) scale(0.08 -0.08)">
      <defs>
       <path id="MS-Gothic-34" d="M 1875 50 
L 1875 625 
L 1875 1200 
L 200 1200 
L 200 1675 
L 1875 4925 
L 2450 4925 
L 2450 1675 
L 2975 1675 
L 2975 1200 
L 2450 1200 
L 2450 50 
L 1875 50 
z
M 1875 1675 
L 1875 3875 
L 750 1675 
L 1875 1675 
z
" transform="scale(0.015625)"/>
      </defs>
      <use xlink:href="#MS-Gothic-31"/>
      <use xlink:href="#MS-Gothic-34" transform="translate(50 0)"/>
      <use xlink:href="#MS-Gothic-31" transform="translate(100 0)"/>
      <use xlink:href="#MS-Gothic-30" transform="translate(150 0)"/>
     </g>
    </g>
   </g>
   <g id="text_6">
    <g clip-path="url(#pc205380b7e)">
     <!-- 1410 -->
     <g transform="translate(-104.852262 9.258737) rotate(-46.846314) scale(0.08 -0.08)">
      <use xlink:href="#MS-Gothic-31"/>
      <use xlink:href="#MS-Gothic-34" transform="translate(50 0)"/>
      <use xlink:href="#MS-Gothic-31" transform="translate(100 0)"/>
      <use xlink:href="#MS-Gothic-30" transform="translate(150 0)"/>
     </g>
    </g>
   </g>
   <g id="text_7">
    <g clip-path="url(#pc205380b7e)">
     <!-- 1440 -->
     <g transform="translate(570.600469 293.496875) rotate(-338.805407) scale(0.08 -0.08)">
      <use xlink:href="#MS-Gothic-31"/>
      <use xlink:href="#MS-Gothic-34" transform="translate(50 0)"/>
      <use xlink:href="#MS-Gothic-34" transform="translate(100 0)"/>
      <use xlink:href="#MS-Gothic-30" transform="translate(150 0)"/>
     </g>
    </g>
   </g>
   <g id="text_8">
    <g clip-path="url(#pc205380b7e)">
     <!-- 1470 -->
     <g transform="translate(188.124723 164.188023) rotate(-336.692247) scale(0.08 -0.08)">
      <defs>
       <path id="MS-Gothic-37" d="M 1025 50 
L 2250 4450 
L 400 4450 
L 400 4925 
L 2775 4925 
L 2775 4400 
L 1600 50 
L 1025 50 
z
" transform="scale(0.015625)"/>
      </defs>
      <use xlink:href="#MS-Gothic-31"/>
      <use xlink:href="#MS-Gothic-34" transform="translate(50 0)"/>
      <use xlink:href="#MS-Gothic-37" transform="translate(100 0)"/>
      <use xlink:href="#MS-Gothic-30" transform="translate(150 0)"/>
     </g>
    </g>
   </g>
   <g id="text_9">
    <g clip-path="url(#pc205380b7e)">
     <!-- 1500 -->
     <g transform="translate(-149.367655 239.805502) rotate(-17.399713) scale(0.08 -0.08)">
      <use xlink:href="#MS-Gothic-31"/>
      <use xlink:href="#MS-Gothic-35" transform="translate(50 0)"/>
      <use xlink:href="#MS-Gothic-30" transform="translate(100 0)"/>
      <use xlink:href="#MS-Gothic-30" transform="translate(150 0)"/>
     </g>
    </g>
   </g>
   <g id="text_10">
    <g clip-path="url(#pc205380b7e)">
     <!-- 1530 -->
     <g transform="translate(539.580943 537.328337) rotate(-1.72869) scale(0.08 -0.08)">
      <use xlink:href="#MS-Gothic-31"/>
      <use xlink:href="#MS-Gothic-35" transform="translate(50 0)"/>
      <use xlink:href="#MS-Gothic-33" transform="translate(100 0)"/>
      <use xlink:href="#MS-Gothic-30" transform="translate(150 0)"/>
     </g>
    </g>
   </g>
  </g>
 </g>
 <defs>
  <clipPath id="pc205380b7e">
   <path d="M 0 720 
L 0 720 
L 0 0 
L 720 0 
L 720 720 
z
"/>
  </clipPath>
 </defs>
</svg>
