<?xml version="1.0" encoding="utf-8" standalone="no"?>
<!DOCTYPE svg PUBLIC "-//W3C//DTD SVG 1.1//EN"
  "http://www.w3.org/Graphics/SVG/1.1/DTD/svg11.dtd">
<svg xmlns:xlink="http://www.w3.org/1999/xlink" width="720pt" height="720pt" viewBox="0 0 720 720" xmlns="http://www.w3.org/2000/svg" version="1.1">
 <metadata>
  <rdf:RDF xmlns:dc="http://purl.org/dc/elements/1.1/" xmlns:cc="http://creativecommons.org/ns#" xmlns:rdf="http://www.w3.org/1999/02/22-rdf-syntax-ns#">
   <cc:Work>
    <dc:type rdf:resource="http://purl.org/dc/dcmitype/StillImage"/>
    <dc:date>2026-03-20T18:58:57.352203</dc:date>
    <dc:format>image/svg+xml</dc:format>
    <dc:creator>
     <cc:Agent>
      <dc:title>Matplotlib v3.10.8, https://matplotlib.org/</dc:title>
     </cc:Agent>
    </dc:creator>
   </cc:Work>
  </rdf:RDF>
 </metadata>
 <defs>
  <style type="text/css">*{stroke-linejoin: round; stroke-linecap: butt}</style>
 </defs>
 <g id="figure_1">
  <g id="patch_1">
   <path d="M 0 720 
L 720 720 
L 720 0 
L 0 0 
L 0 720 
z
" style="fill: none"/>
  </g>
  <g id="axes_1">
   <g id="patch_2">
    <path d="M 0 720 
L 0 720 
L 0 0 
L 720 0 
L 720 720 
L 0 720 
z
" style="fill: none"/>
   </g>
   <g id="GeoContourSet_1">
    <path clip-path="url(#pdfaf351e98)" style="fill: none; stroke: #000000"/>
    <path clip-path="url(#pdfaf351e98)" style="fill: none; stroke: #000000"/>
    <path clip-path="url(#pdfaf351e98)" style="fill: none; stroke: #000000"/>
    <path clip-path="url(#pdfaf351e98)" style="fill: none; stroke: #000000"/>
    <path clip-path="url(#pdfaf351e98)" style="fill: none; stroke: #000000"/>
    <path clip-path="url(#pdfaf351e98)" style="fill: none; stroke: #000000"/>
    <path clip-path="url(#pdfaf351e98)" style="fill: none; stroke: #000000"/>
    <path d="M 720 2.322471 
L 710.308961 -1 
M 574.551086 -1 
L 573.265869 0 
L 570 2.375178 
L 568.77267 3 
L 566.25 3.743524 
L 562.5 4.618164 
L 555 7.375103 
L 551.25 9.463623 
L 547.5 11.043344 
L 543.75 12.42796 
L 540 13.588623 
L 536.25 15.075963 
L 528.75 17.300998 
L 527.508352 18 
L 525 19.906348 
L 521.25 21.111945 
L 517.5 23.242762 
L 516.427246 24 
L 510 29.195435 
L 502.442563 36 
L 496.654941 42 
L 495 43.820435 
L 494.186507 45 
L 490.512772 51 
L 487.5 55.820435 
L 485.534058 57 
L 483.75 57.462891 
L 480 57.907785 
L 476.25 58.12207 
L 472.5 59.142415 
L 470.088043 60 
L 468.75 60.713623 
L 465 62.101283 
L 453.75 63.463623 
L 450 64.463623 
L 442.5 66.642134 
L 435 68.713623 
L 434.218972 69 
L 423.75 72.064453 
L 420 72.774114 
L 416.25 73.285078 
L 412.5 73.634332 
L 405.235013 73.808368 
M 382.306661 75.969259 
L 367.5 78.642134 
L 360 79.672712 
L 348.75 80.480366 
L 345 81.132935 
L 341.25 82.070435 
L 337.5 82.341797 
L 330 82.257935 
L 326.25 82.009068 
L 322.5 81.541797 
L 319.960327 81 
L 318.75 80.354492 
L 317.144664 78 
L 316.028442 75 
L 315.613665 72 
L 316.241648 69 
L 316.526255 66 
L 316.340942 63 
L 315 59.875279 
L 311.25 58.412695 
L 307.5 57.236328 
L 303.75 57.236328 
L 303.560093 57 
L 299.507024 54 
L 300 53.267578 
L 300.661377 51 
L 303.529011 48 
L 304.304873 45 
L 303.75 43.712695 
L 302.411957 42 
L 300 40.070435 
L 298.353178 39 
L 300.136414 36 
L 303.810628 30 
L 303.75 29.854492 
L 301.073914 27 
L 300.060628 24 
L 299.778442 21 
L 298.661957 18 
L 297.90911 12 
L 296.534783 9 
L 296.25 8.702073 
L 292.278442 6 
L 289.227295 3 
L 288.75 2.018136 
L 287.488665 0 
L 286.417236 -1 
L 286.417236 -1 
" clip-path="url(#pdfaf351e98)" style="fill: none; stroke: #000000"/>
    <path d="M 720 70.733043 
L 716.25 69.614215 
L 712.5 68.960316 
L 708.75 68.551225 
L 701.25 68.088623 
L 697.617079 67.671148 
M 674.748114 65.266148 
L 671.25 65.006682 
L 667.5 64.53688 
L 663.75 63.941797 
L 656.25 63.353346 
L 652.5 62.414862 
L 648.75 62.245078 
L 645 61.918563 
L 642.409058 63 
L 641.25 63.741797 
L 637.5 65.341797 
L 636.471558 66 
L 633.75 68.177246 
L 631.986956 69 
L 630 69.654527 
L 626.25 70.375103 
L 621.962077 72 
L 618.75 73.284831 
L 615 73.765078 
L 607.5 74.504883 
L 606.494293 75 
L 607.5 75.677529 
L 609.542914 78 
L 608.423517 81 
L 607.5 81.353346 
L 603.75 80.701172 
L 600.88623 81 
L 600.147705 84 
L 600 84.125115 
L 596.25 84.569661 
L 591.808384 87 
L 588.531738 90 
L 585 91.765869 
L 583.628743 93 
L 581.25 94.556996 
L 577.5 95.702073 
L 573.75 95.341797 
L 572.978668 96 
L 569.118478 99 
L 566.25 101.141797 
L 562.5 101.463623 
L 558.75 101.242762 
L 556.068115 102 
L 555 102.466087 
L 552.096558 105 
L 550.877592 108 
L 546.962077 111 
L 543.75 112.156348 
L 532.5 114.618164 
L 528.75 114.141797 
L 525 114.284831 
L 521.25 114.815569 
L 513.75 116.386998 
L 510 116.007935 
L 506.185805 117 
L 507.09089 123 
L 506.25 125.018136 
L 505.636335 126 
L 502.5 127.463623 
L 498.75 122.735652 
L 495 121.213623 
L 491.25 121.581806 
L 487.5 120.642134 
L 483.75 120.585629 
L 476.25 121.690892 
L 472.5 122.480366 
L 470.736956 123 
L 468.75 124.236328 
L 467.887334 126 
L 467.398204 129 
L 466.189372 132 
L 465 132.815569 
L 461.25 132.882935 
L 457.5 134.080497 
L 453.75 134.757935 
L 450 134.284831 
L 446.25 134.284831 
L 438.75 135.26984 
L 435 136.712695 
L 434.195435 138 
L 431.113586 141 
L 427.5 142.284831 
L 425.662319 144 
L 423.75 146.141797 
L 420 145.92796 
L 416.25 146.101283 
L 412.5 148.306348 
L 408.75 148.889821 
L 401.25 151.086689 
L 397.40079 153 
L 393.75 156.512695 
L 390.923517 159 
L 390 159.580497 
L 385.558384 162 
L 382.5 163.223354 
L 375 166.677246 
L 367.015869 171 
L 362.515869 174 
L 359.863586 177 
L 356.25 180.30385 
L 352.5 182.446708 
L 345 184.902995 
L 340.704346 186 
L 337.5 186.569661 
L 333.75 186.265869 
L 332.86377 186 
L 330 185.312695 
L 327.109131 183 
L 326.25 182.618164 
L 322.427246 183 
L 318.75 186.812695 
L 316.927246 189 
L 315 192.236328 
L 310.677246 198 
L 310.100621 201 
L 311.25 204.218262 
L 312.319899 207 
L 311.25 209.781738 
L 310.88623 210 
L 307.5 210.902995 
L 303.75 211.015869 
L 300 210.30385 
L 296.25 210.30385 
L 292.378743 213 
L 290.201242 216 
L 288.75 217.354492 
L 284.781738 219 
L 281.25 221.018136 
L 277.5 222.732422 
L 273.75 223.025391 
L 270 222.732422 
L 266.25 223.390869 
L 262.5 223.569661 
L 258.75 223.160993 
L 255 221.446708 
L 251.25 220.569661 
L 247.5 218.890869 
L 243.886414 216 
L 243.75 215.708984 
L 241.210327 213 
L 240 212.354492 
L 236.25 210.531738 
L 235.718262 210 
L 232.5 208.712695 
L 228.75 208.284268 
L 225 207.466087 
L 221.25 206.012695 
L 217.167664 204 
L 210 198.812695 
L 206.25 195.812695 
L 205.468562 195 
L 202.258301 192 
L 197.485574 189 
L 195 186.812695 
L 194.322754 186 
L 191.25 181.390869 
L 189.054565 177 
L 187.5 173.354492 
L 186.793652 171 
L 186.099666 168 
L 185.234281 162 
L 185.143652 156 
L 185.201721 144 
L 184.889221 141 
L 183.043652 132 
L 182.349666 129 
L 181.51219 126 
L 180.971603 123 
L 181.592814 120 
L 181.301967 117 
L 180 115.177246 
L 179.480627 114 
L 180 113.256476 
L 181.786377 111 
L 183.528442 108 
L 180.536957 105 
L 182.776878 102 
L 183.75 100.929565 
L 185.893962 99 
L 188.544279 96 
L 191.25 94.130593 
L 193.470808 93 
L 197.572754 90 
L 201.161957 87 
L 200.121257 84 
L 198.572754 81 
L 198.75 80.822754 
L 201.396332 78 
L 203.072754 75 
L 203.917236 72 
L 204.208832 69 
L 203.887724 63 
L 203.602295 60 
L 202.322754 57 
L 200.090942 54 
L 197.680101 51 
L 196.237793 48 
L 193.215942 45 
L 191.25 43.651925 
L 186.698914 42 
L 184.363665 39 
L 180 36.882935 
L 178.961253 36 
L 178.185628 33 
L 177.572754 30 
L 176.25 28.015869 
L 175.326483 27 
L 172.5 25.223354 
L 170.970808 24 
L 168.807437 21 
L 168.75 17.563477 
L 168.257024 15 
L 164.643962 12 
L 163.675858 9 
L 162.490082 6 
L 158.156087 -1 
L 158.156087 -1 
" clip-path="url(#pdfaf351e98)" style="fill: none; stroke: #000000"/>
    <path d="M 720 137.796155 
L 705 137.796155 
L 700.704346 138 
L 693.75 138.654527 
L 690 139.257935 
L 678.75 141.618164 
L 675 142.118164 
L 671.25 142.784831 
L 666.068115 144 
L 660 145.618164 
L 654.193115 147 
L 652.5 147.478056 
L 633.75 151.941797 
L 630 153.141797 
L 626.25 154.651925 
L 622.5 156.62515 
L 618.65079 159 
L 607.5 166.677246 
L 603.75 169.317458 
L 600 171.580497 
L 592.5 175.43764 
L 588.75 177.580497 
L 584.909058 180 
L 580.636335 183 
L 573.65079 189 
L 569.559881 192 
L 565.846558 195 
L 562.5 198.212695 
L 556.946245 204 
L 553.537154 207 
L 550.468972 210 
L 547.5 213.354492 
L 542.409058 222 
L 536.707764 231 
L 534.677246 234 
L 532.215217 237 
L 526.916247 243 
L 524.731038 246 
L 519.522705 252 
L 516.553452 255 
L 515.21821 256.21062 
M 497.5226 270.904068 
L 495 273.301585 
L 491.25 276.618164 
L 487.5 279.451497 
L 483.75 281.570435 
L 482.52267 282 
L 480 283.009068 
L 476.25 284.177246 
L 471.954346 285 
L 461.25 286.569661 
L 457.281738 288 
L 453.75 290.018136 
L 452.676086 291 
L 450 292.556996 
L 446.25 292.902995 
L 442.427246 294 
L 438.75 296.595703 
L 437.968972 297 
L 434.394836 300 
L 431.693115 303 
L 431.25 303.265869 
L 427.281738 306 
L 425.019836 309 
L 426.037154 312 
L 426.83913 315 
L 426.550669 318 
L 427.5 319.097005 
L 428.759335 321 
L 429.862276 324 
L 429.882935 327 
L 427.5 330.101283 
L 422.856038 333 
L 420 334.418171 
L 415.995194 336 
L 415.677246 339 
L 416.784058 342 
L 416.189372 345 
L 414.082987 348 
L 412.5 348.939579 
L 408.75 348.118164 
L 401.25 349.532998 
L 398.082608 351 
L 397.5 351.427246 
L 394.743478 354 
L 394.177246 357 
L 393.75 357.512695 
L 392.468262 357 
L 390 354.531738 
L 389.274041 357 
L 387.695435 360 
L 387.180813 363 
L 386.25 364.317458 
L 384.541168 366 
L 382.096558 369 
L 380.515869 372 
L 380.515869 375 
L 381.54541 378 
L 382.721558 381 
L 382.721558 384 
L 383.659058 387 
L 382.5 389.781738 
L 378.75 387.265869 
L 375 386.902995 
L 374.844099 387 
L 371.15079 390 
L 367.5 391.396824 
L 363.75 391.869407 
L 360 393.177246 
L 356.471558 396 
L 356.25 399.124721 
L 360 400.776646 
L 367.5 401.554922 
L 369.486956 402 
L 371.25 402.987305 
L 372.647705 405 
L 372.180813 408 
L 371.944866 417 
L 371.25 417.653174 
L 367.897391 420 
L 366.059647 423 
L 366.134151 426 
L 366.636353 429 
L 367.5 429.921224 
L 371.25 430.61432 
L 374.309397 429 
L 375 428.388323 
L 378.75 424.187425 
L 379.492141 423 
L 381.016789 420 
L 382.5 418.646896 
L 385.897455 414 
L 386.25 412.898717 
L 387.005171 411 
L 387.467984 408 
L 388.185628 405 
L 387.859131 402 
L 390 400.992532 
L 393.75 401.605619 
L 393.978882 402 
L 396.159058 405 
L 397.5 405.757238 
L 401.25 411.643652 
L 402.185059 414 
L 402.884046 417 
L 404.719516 420 
L 404.669565 423 
L 402.100256 426 
L 401.25 426.680205 
L 397.5 428.179433 
L 396.73899 429 
L 393.75 430.807974 
L 392.053019 432 
L 390 433.231812 
L 387.412407 435 
L 386.588623 438 
L 385.307839 441 
L 384.948033 444 
L 382.5 446.419233 
L 382.166451 447 
L 383.754534 450 
L 386.25 452.587891 
L 386.829529 453 
L 389.157453 456 
L 389.681803 459 
L 388.416304 462 
L 385.205721 465 
L 380.863615 468 
L 378.75 469.070898 
L 375.735779 471 
L 375 471.614215 
L 371.204529 474 
L 367.5 476.155362 
L 363.75 477.462891 
L 358.570692 480 
L 356.25 480.96398 
L 348.75 483.202308 
L 345 483.650499 
L 341.25 483.783584 
L 337.5 484.273701 
L 330 484.275613 
L 326.25 483.845446 
L 321.968262 483 
L 318.75 482.737285 
L 315 482.742539 
L 307.5 482.406956 
L 300 482.093794 
L 296.25 481.62207 
L 292.5 480.900691 
L 285 479.117913 
L 277.007024 477 
L 270 474.670898 
L 251.25 467.245757 
L 247.5 465.825963 
L 245.693207 465 
L 243.75 463.869407 
L 240.893962 462 
L 240 461.242762 
L 237.730539 459 
L 236.25 455.890869 
L 232.952174 450 
L 232.551967 447 
L 232.5 443.563477 
L 232.123018 441 
L 231.240665 438 
L 230.693207 435 
L 230.276255 432 
L 229.531028 429 
L 228.45459 426 
L 226.371257 423 
L 224.70459 420 
L 221.405901 417 
L 221.25 416.563477 
L 220.537923 414 
L 218.871257 411 
L 217.5 409.025391 
L 213.75 408.902995 
L 210 408.640869 
L 209.198914 408 
L 207.109131 405 
L 210 403.458203 
L 211.093652 402 
L 210.374216 399 
L 215.160298 396 
L 217.5 394.07765 
L 220.268962 393 
L 218.72733 390 
L 217.5 388.625391 
L 216.484131 387 
L 213.905901 384 
L 213.45459 381 
L 212.20459 378 
L 210 375.354492 
L 209.335327 375 
L 206.25 374.10245 
L 203.621937 372 
L 202.5 370.765869 
L 200.292664 369 
L 199.871937 366 
L 201.141639 363 
L 200.358312 360 
L 199.355164 357 
L 197.834473 354 
L 195 352.412695 
L 191.25 351.640869 
L 190.757024 351 
L 188.962846 348 
L 187.5 346.569661 
L 183.75 344.647905 
L 180 342.902995 
L 173.72733 339 
L 168.75 336.738814 
L 167.621257 336 
L 163.609131 333 
L 160.715942 330 
L 158.528442 327 
L 157.5 325.902995 
L 153.75 322.902995 
L 150.691616 321 
L 150 320.723354 
L 146.25 319.541797 
L 139.718262 318 
L 138.75 317.723354 
L 111.698914 306 
L 108.75 304.427246 
L 106.371257 303 
L 102.621257 300 
L 101.595808 297 
L 101.25 296.612695 
L 97.5 294.778498 
L 95.359131 294 
L 98.281028 291 
L 99.988665 288 
L 100.322754 285 
L 99.603178 282 
L 99.185093 279 
L 98.887724 276 
L 96.727295 270 
L 96.461253 267 
L 96.767964 264 
L 96.804565 261 
L 96.617065 258 
L 95.766253 252 
L 95.230539 249 
L 93.75 242.781738 
L 92.977295 240 
L 90 233.018136 
L 88.896332 231 
L 86.25 226.765869 
L 84.988665 225 
L 80.212846 219 
L 80.212846 216 
L 81.028442 213 
L 80.853178 210 
L 80.386385 207 
L 78.75 205.341797 
L 77.072754 204 
L 75 203.407785 
L 71.25 203.685449 
L 69.939372 204 
L 67.5 205.211274 
L 63.75 205.475749 
L 60 205.058999 
L 56.25 203.069948 
L 52.5 201.535217 
L 49.823914 201 
L 48.376465 201 
L 45 202.002048 
L 41.25 204.069283 
L 37.5 205.099206 
L 36.391152 204 
L 37.5 203.250911 
L 41.25 200.348561 
L 43.706403 198 
L 45 197.140526 
L 48.75 196.386927 
L 52.5 195.942362 
L 56.25 195.793426 
L 58.661057 195 
L 60 194.317286 
L 63.75 192.769555 
L 64.941661 192 
L 67.5 190.96897 
L 71.25 190.262341 
L 74.180435 189 
L 75 188.446087 
L 77.086368 186 
L 78.75 184.743034 
L 81.330149 183 
L 82.5 181.128238 
L 83.378546 180 
L 86.483577 177 
L 87.066087 174 
L 90 171.952168 
L 91.074796 171 
L 90 168.32315 
L 89.718307 168 
L 89.239171 165 
L 90 164.175608 
L 91.395073 162 
L 96.388704 156 
L 98.10215 150 
L 97.326792 147 
L 97.5 146.359131 
L 97.913883 144 
L 98.219508 141 
L 97.5 139.632935 
L 94.987793 138 
L 93.75 135.854492 
L 93.571981 135 
L 93.75 134.605619 
L 95.161377 132 
L 94.694824 129 
L 93.75 127.778996 
L 90 127.009068 
L 88.738665 126 
L 87.275709 123 
L 87.690353 120 
L 87.710045 117 
L 86.981423 114 
L 85.106423 111 
L 83.393962 108 
L 82.5 106.829723 
L 80.927582 105 
L 81.572754 102 
L 80.121257 99 
L 78.75 98.240535 
L 71.25 95.066291 
L 67.5 94.951497 
L 63.75 95.245078 
L 61.486816 93 
L 60.277139 90 
L 60 86.914922 
L 63.14108 84 
L 63.145274 78 
L 61.073914 75 
L 60 73.854492 
L 56.622408 69 
L 56.25 68.569661 
L 48.75 62.446708 
L 44.507024 60 
L 43.234131 57 
L 40.234131 54 
L 37.5 50.890869 
L 33.75 47.140869 
L 30 43.902995 
L 26.25 41.912695 
L 22.20459 39 
L 18.306885 36 
L 15 34.236328 
L 11.25 31.902995 
L 8.871257 30 
L 7.5 28.589565 
L 5.761414 27 
L 3.75 25.390869 
L 1.763044 24 
L -1 22.280773 
M 210 393.106348 
L 209.908321 393 
L 210 392.893652 
L 210.139931 393 
L 210 393.106348 
L 210 393.106348 
" clip-path="url(#pdfaf351e98)" style="fill: none; stroke: #000000"/>
    <path d="M 720 238.257935 
L 716.25 238.183938 
L 712.5 238.070435 
L 708.75 238.677246 
L 705 239.932843 
L 704.454346 240 
L 701.25 240.341797 
L 697.5 241.070435 
L 693.75 242.007935 
L 690 242.941797 
L 689.781738 243 
L 686.25 243.882935 
L 682.5 245.141797 
L 680.201242 246 
L 678.75 246.507935 
L 675 247.632935 
L 671.25 248.941797 
L 671.068115 249 
L 667.5 250.070435 
L 663.75 251.066291 
L 660.443115 252 
L 660 252.151925 
L 656.25 253.677246 
L 653.769836 255 
L 652.5 256.015869 
L 650.29541 258 
L 648.75 259.112695 
L 645.801086 261 
L 645 261.366211 
L 641.25 263.141797 
L 639.640869 264 
L 637.5 265.317458 
L 634.462077 267 
L 633.75 267.466087 
L 630.265869 270 
L 630 270.236328 
L 627.779192 273 
L 627.427246 276 
L 626.25 277.569661 
L 625.356038 279 
L 622.5 281.284831 
L 621.350621 282 
L 620.973745 285 
L 618.75 287.890869 
L 618.594099 288 
L 616.471558 291 
L 615.457764 294 
L 615 294.569661 
L 614.084473 294 
L 611.25 292.412695 
L 607.5 292.632935 
L 603.75 293.95405 
L 603.666053 294 
L 600 296.932843 
L 599.909058 297 
L 597.507935 300 
L 596.25 300.347016 
L 592.5 300.493677 
L 590.477295 300 
L 588.75 299.512293 
L 585 299.717352 
L 584.241675 300 
L 581.25 302.39334 
L 580.409694 303 
L 577.5 305.778289 
L 576.886335 306 
L 573.75 307.756348 
L 571.358361 309 
L 570 309.830997 
L 566.25 311.529855 
L 565.300669 312 
L 562.5 313.456348 
L 559.284058 315 
L 558.75 315.341797 
L 555 317.932843 
L 554.916053 318 
L 551.25 320.932843 
L 551.172049 321 
L 547.704515 324 
L 547.5 324.177246 
L 544.677246 327 
L 543.75 328.011541 
L 542.041168 330 
L 540 332.177246 
L 539.274041 333 
L 536.884918 336 
L 536.25 336.902995 
L 534.862276 339 
L 532.876982 342 
L 532.5 342.854492 
L 531.427246 345 
L 529.731038 348 
L 528.75 349.284268 
L 527.362276 351 
L 525 353.007935 
L 523.955721 354 
L 522.695435 357 
L 521.784668 360 
L 521.25 361.015869 
L 520.147705 363 
L 518.897705 366 
L 517.5 368.875279 
L 517.445435 369 
L 516.019461 372 
L 515.468878 375 
L 514.939372 378 
L 514.632935 381 
L 515.126604 384 
L 515.570435 387 
L 515.195435 390 
L 513.75 392.890869 
L 513.700395 393 
L 513.018577 396 
L 512.610779 399 
L 511.829529 402 
L 510.735779 405 
L 510.36281 408 
L 510.3277 411 
L 510.188491 414 
L 510 414.394381 
L 508.539955 417 
L 506.785112 420 
L 506.25 420.588623 
L 503.467642 423 
L 502.5 425.012695 
L 501.939031 426 
L 500.506348 429 
L 498.75 431.702073 
L 498.507935 432 
L 495 434.672712 
L 494.609486 435 
L 492.106348 438 
L 491.25 439.223354 
L 490.307839 441 
L 489.075963 444 
L 488.162071 447 
L 487.5 449.515869 
L 487.378967 450 
L 486.759731 453 
L 486.318172 456 
L 485.421475 459 
L 484.404026 462 
L 484.456348 465 
L 484.028639 468 
L 483.75 469.025391 
L 483.275334 471 
L 481.688796 474 
L 480 475.672712 
L 478.798576 477 
L 476.25 479.463623 
L 475.606348 480 
L 472.5 482.389498 
L 471.332864 483 
L 468.75 484.351037 
L 465 485.754534 
L 464.427246 486 
L 461.25 487.525078 
L 458.689372 489 
L 457.5 489.570898 
L 453.856348 492 
L 453.75 492.06077 
L 450 494.303174 
L 448.48516 495 
L 446.25 497.741797 
L 445.809881 498 
L 445.677246 501 
L 444.106038 504 
L 442.5 505.927246 
L 440.890869 507 
L 438.75 507.951497 
L 435 508.632935 
L 431.25 509.595703 
L 430.176086 510 
L 427.5 510.713623 
L 423.75 511.869407 
L 420 512.838623 
L 416.25 512.701172 
L 414.102173 513 
L 412.5 513.197191 
L 408.75 513.805078 
L 405 514.645078 
L 401.25 515.647391 
L 399.878743 516 
L 397.5 516.634332 
L 393.75 518.004534 
L 390.582608 519 
L 390 519.176791 
L 386.25 520.107826 
L 382.5 521.316467 
L 380.791168 522 
L 378.75 522.900929 
L 375 524.391192 
L 373.034058 525 
L 371.25 525.552482 
L 367.5 526.235652 
L 363.75 526.733043 
L 360 527.005078 
L 356.25 527.158729 
L 352.5 527.245757 
L 348.75 527.26844 
L 345 527.309082 
L 341.25 527.518999 
L 337.5 527.770898 
L 333.75 527.65955 
L 330 527.556102 
L 326.25 527.770898 
L 322.5 527.886087 
L 320.079346 528 
L 318.75 528.068611 
L 316.091309 528 
L 315 527.970898 
L 311.25 527.246271 
L 307.5 527.375056 
L 304.082336 528 
L 303.75 528.055972 
L 300 528.219647 
L 296.61377 528 
L 296.25 527.977614 
L 292.5 527.65208 
L 288.75 527.408837 
L 285 527.153174 
L 281.25 526.979213 
L 277.5 526.734804 
L 273.75 526.516076 
L 270 526.225749 
L 266.25 525.570898 
L 264.720808 525 
L 262.5 522.738814 
L 258.75 522.427734 
L 257.056885 522 
L 255 521.529855 
L 251.25 520.838623 
L 247.5 520.351037 
L 243.75 520.004883 
L 240 519.588623 
L 236.25 519.092476 
L 235.718262 519 
L 232.5 518.52322 
L 228.75 518.078776 
L 225 517.697191 
L 221.25 517.300998 
L 217.5 516.774114 
L 213.75 516.081806 
L 213.417664 516 
L 210 515.048998 
L 206.25 513.963623 
L 203.037923 513 
L 202.5 512.831607 
L 198.75 511.588623 
L 195 510.483781 
L 193.261414 510 
L 191.25 509.322471 
L 187.5 508.156348 
L 184.287923 507 
L 183.75 506.772174 
L 180 505.53688 
L 176.25 504.301585 
L 175.181885 504 
L 172.5 503.284831 
L 168.75 502.306348 
L 165 501.222911 
L 164.465942 501 
L 161.25 499.713623 
L 158.036957 498 
L 157.5 497.735652 
L 153.75 495.74465 
L 150 496.213623 
L 147.022705 498 
L 146.25 498.317913 
L 143.468262 498 
L 142.5 497.031738 
L 142.215217 498 
L 138.75 499.002701 
L 137.017391 498 
L 135 495.386998 
L 134.538241 495 
L 132.196548 492 
L 131.25 491.009766 
L 127.5 489.193359 
L 123.75 490.712695 
L 120 491.375178 
L 116.25 489.466087 
L 115.181885 489 
L 112.5 487.927246 
L 110.276255 486 
L 108.75 484.556996 
L 106.965942 483 
L 105 481.112695 
L 103.840942 480 
L 101.25 477.512695 
L 100.537923 477 
L 97.5 474.569661 
L 96.584473 474 
L 95.071636 472.941014 
M 77.365428 458.394755 
L 75 456.265869 
L 74.667664 456 
L 71.405901 453 
L 71.25 452.890869 
L 67.5 450.265869 
L 67.20459 450 
L 64.70459 447 
L 63.75 445.625391 
L 62.621257 444 
L 61.234131 441 
L 60 439.025391 
L 59.359131 438 
L 56.690119 435 
L 56.25 434.446708 
L 53.871257 432 
L 52.5 430.354492 
L 51.484131 429 
L 49.287923 426 
L 48.75 425.354492 
L 46.787923 423 
L 45 420.854492 
L 44.359131 420 
L 42.792664 417 
L 41.371257 414 
L 41.25 413.708984 
L 39.798758 411 
L 39.042664 408 
L 39.042664 405 
L 38.191616 402 
L 37.5 400.708984 
L 36.698914 399 
L 36.484131 396 
L 36.484131 393 
L 36.340942 390 
L 36.141639 387 
L 35.553755 384 
L 34.122408 381 
L 33.75 380.446708 
L 31.073914 378 
L 30 377.018136 
L 27.056885 375 
L 26.25 374.757935 
L 22.5 373.741797 
L 18.75 372.580497 
L 17.298758 372 
L 15 371.009766 
L 11.371257 369 
L 11.25 368.875279 
L 9.153442 366 
L 7.5 364.556996 
L 4.823914 363 
L 3.75 362.140869 
L 1.965942 360 
L 0 358.112695 
L -1 357.312695 
M 131.25 501.889498 
L 130.373979 501 
L 131.25 500.143446 
L 132.695435 501 
L 131.25 501.889498 
z
" clip-path="url(#pdfaf351e98)" style="fill: none; stroke: #000000"/>
    <path d="M 720 336.738814 
L 716.25 338.741797 
L 715.443115 339 
L 712.5 340.086689 
L 709.04541 342 
L 708.75 342.236328 
L 706.358361 345 
L 705 347.018136 
L 704.463043 348 
L 703.056793 351 
L 701.25 353.569661 
L 700.846558 354 
L 698.764426 357 
L 697.721558 360 
L 697.5 362.126953 
L 697.431793 363 
L 697.022705 366 
L 696.606038 369 
L 695.564372 372 
L 693.939907 375 
L 693.75 375.354492 
L 692.427246 378 
L 690.189907 381 
L 690 381.265869 
L 688.391688 384 
L 687.231038 387 
L 686.406394 390 
L 686.25 390.30385 
L 684.862276 393 
L 683.481038 396 
L 682.632935 399 
L 682.5 399.30385 
L 681.517029 402 
L 680.659074 405 
L 679.632935 408 
L 678.75 409.569661 
L 677.677246 411 
L 675 412.690892 
L 673.056793 414 
L 671.25 414.925078 
L 668.756104 417 
L 667.5 419.177246 
L 667.126021 420 
L 666.134151 423 
L 664.488231 426 
L 663.75 427.317458 
L 662.448033 429 
L 660.320435 432 
L 660 432.427246 
L 656.784058 435 
L 656.25 435.320435 
L 652.5 437.419233 
L 650.736956 438 
L 648.75 438.42796 
L 645 439.529855 
L 641.25 440.741797 
L 640.809881 441 
L 637.5 442.820435 
L 635.140869 444 
L 633.75 445.589565 
L 633.024041 447 
L 632.647705 450 
L 630.356038 453 
L 630 453.394381 
L 627.509335 456 
L 626.25 457.902995 
L 625.775334 459 
L 625.662319 462 
L 623.945435 465 
L 622.5 466.927246 
L 621.963623 468 
L 620.791168 471 
L 618.75 473.612695 
L 618.309881 474 
L 615 476.647905 
L 614.731038 477 
L 613.927246 480 
L 615 482.574609 
L 615.204515 483 
L 615 483.708984 
L 614.33913 486 
L 612.378743 489 
L 611.25 490.354492 
L 610.427246 492 
L 610.128063 495 
L 609.193115 498 
L 608.415527 501 
L 608.082608 504 
L 607.5 504.732422 
L 604.665527 507 
L 603.75 508.281738 
L 602.676086 510 
L 600 512.854492 
L 599.844099 513 
L 597.051086 516 
L 596.25 516.854492 
L 593.568115 519 
L 592.5 520.025391 
L 590.443115 522 
L 588.75 523.354492 
L 585 524.875279 
L 584.63623 525 
L 581.25 525.902995 
L 577.5 526.160993 
L 573.75 525.854492 
L 570.545654 525 
L 570 524.825391 
L 569.454346 525 
L 566.25 526.281738 
L 563.38623 528 
L 562.5 528.212695 
L 558.75 529.427246 
L 555 530.932843 
L 554.844099 531 
L 551.25 532.43764 
L 547.5 533.93764 
L 547.390869 534 
L 544.015869 537 
L 543.75 537.212695 
L 540 539.312695 
L 538.926086 540 
L 536.25 541.712695 
L 533.951242 543 
L 532.5 543.677246 
L 528.75 545.471304 
L 527.890869 546 
L 525 548.890869 
L 524.922049 549 
L 523.177246 552 
L 521.25 554.312695 
L 519.102173 555 
L 517.5 555.394381 
L 513.75 556.43764 
L 511.015869 558 
L 510 558.541797 
L 506.25 560.927246 
L 506.113586 561 
L 502.5 563.10245 
L 500.443115 564 
L 498.75 564.812695 
L 495 565.866211 
L 491.693115 567 
L 491.25 567.193359 
L 487.5 568.541797 
L 483.75 569.509068 
L 482.318115 570 
L 480 570.794782 
L 476.491699 573 
L 476.25 573.177246 
L 472.5 574.677246 
L 468.75 575.236328 
L 465 574.712695 
L 462.318115 576 
L 461.25 576.427246 
L 457.5 577.223354 
L 455.108361 579 
L 453.75 580.177246 
L 451.22733 579 
L 450 578.140869 
L 448.568115 579 
L 446.25 579.927246 
L 443.659058 582 
L 442.5 584.225391 
L 438.75 582.569661 
L 435 584.920632 
L 434.727173 585 
L 431.25 586.236328 
L 427.5 587.236328 
L 423.75 587.569661 
L 420 587.902995 
L 416.25 587.569661 
L 412.5 587.375178 
L 408.75 587.932843 
L 408.477173 588 
L 405 588.855919 
L 401.25 589.927246 
L 397.5 590.920632 
L 396.954346 591 
L 393.75 591.427246 
L 390 591.265869 
L 388.670654 591 
L 386.25 590.569661 
L 382.5 590.677246 
L 378.75 590.427246 
L 375 589.177246 
L 371.25 589.009068 
L 367.5 589.341797 
L 363.75 589.820435 
L 360 590.382935 
L 356.25 590.93764 
L 355.158691 591 
L 352.5 591.141797 
L 351.170654 591 
L 348.75 590.757935 
L 345 590.757935 
L 341.25 590.945435 
L 340.158691 591 
L 337.5 591.132935 
L 336.170654 591 
L 333.75 590.702073 
L 330 590.294782 
L 326.25 590.382935 
L 322.5 590.741797 
L 318.75 590.541797 
L 315 590.382935 
L 311.25 590.595703 
L 307.5 590.757935 
L 303.75 590.066291 
L 300 589.618164 
L 296.25 589.820435 
L 292.5 589.341797 
L 288.75 588.580497 
L 287.298758 588 
L 285 586.927246 
L 281.25 585.394381 
L 279.11377 585 
L 277.5 584.796155 
L 273.75 584.638261 
L 270 584.480366 
L 266.25 584.480366 
L 262.5 584.529855 
L 258.75 584.815569 
L 256.329346 585 
L 255 585.111945 
L 251.25 585.284831 
L 247.5 585.451497 
L 243.75 585.451497 
L 240 585.451497 
L 236.25 585.301585 
L 233.045654 585 
L 232.5 584.95405 
L 228.75 584.95405 
L 225 584.956348 
L 224.454346 585 
L 221.25 585.256348 
L 217.5 585.427734 
L 213.75 585.301585 
L 210.545654 585 
L 210 584.941797 
L 206.25 584.509068 
L 202.5 583.866211 
L 198.75 583.541797 
L 195 583.317458 
L 191.25 582.794782 
L 187.5 582.141797 
L 186.170654 582 
L 183.75 581.741797 
L 180 581.723354 
L 176.25 581.677246 
L 172.530083 581.181257 
M 149.778491 577.975357 
L 146.25 577.427246 
L 142.5 576.466087 
L 140.897827 576 
L 138.75 575.570435 
L 135 575.242762 
L 131.25 575.006682 
L 127.5 574.848787 
L 123.75 574.848787 
L 120 574.784831 
L 116.25 574.71335 
L 112.5 574.889821 
L 108.75 575.195435 
L 105 575.595703 
L 101.25 575.951497 
L 100.704346 576 
L 97.5 576.284831 
L 93.75 576.451497 
L 90 576.706348 
L 86.25 576.882935 
L 82.5 576.541797 
L 78.75 576.794782 
L 75 576.794782 
L 71.25 576.366211 
L 68.045654 576 
L 67.5 575.890869 
L 63.75 575.140869 
L 60 575.018136 
L 56.25 574.281738 
L 53.045654 573 
L 52.5 572.920632 
L 48.75 572.702073 
L 45 572.93764 
L 44.63623 573 
L 41.25 573.62515 
L 37.5 574.223354 
L 33.75 574.284268 
L 30 573.902995 
L 26.25 573.640869 
L 22.5 573.512695 
L 18.75 573.812695 
L 15 574.284268 
L 11.25 574.829723 
L 7.5 575.10245 
L 3.75 575.312695 
L 0 575.312695 
L -1 575.312695 
M 594.187693 455.977823 
L 596.25 455.359131 
L 599.620187 453 
L 596.25 450.30385 
L 592.5 451.063477 
L 592.015869 453 
L 591.531738 456 
L 588.75 458.225391 
L 588.377592 459 
L 588.507935 462 
L 588.75 462.553292 
L 589.876773 465 
L 588.75 467.854492 
L 588.65079 468 
L 586.015869 471 
L 586.738586 474 
L 588.75 474.858203 
L 591.136248 474.094604 
M 588.75 426.822754 
L 589.984131 426 
L 589.441616 423 
L 588.75 422.515869 
L 588.212077 423 
L 586.693115 426 
L 588.75 426.822754 
z
" clip-path="url(#pdfaf351e98)" style="fill: none; stroke: #000000"/>
    <path clip-path="url(#pdfaf351e98)" style="fill: none; stroke: #000000"/>
    <path clip-path="url(#pdfaf351e98)" style="fill: none; stroke: #000000"/>
    <path clip-path="url(#pdfaf351e98)" style="fill: none; stroke: #000000"/>
    <path clip-path="url(#pdfaf351e98)" style="fill: none; stroke: #000000"/>
    <path clip-path="url(#pdfaf351e98)" style="fill: none; stroke: #000000"/>
    <path clip-path="url(#pdfaf351e98)" style="fill: none; stroke: #000000"/>
    <path clip-path="url(#pdfaf351e98)" style="fill: none; stroke: #000000"/>
    <path clip-path="url(#pdfaf351e98)" style="fill: none; stroke: #000000"/>
   </g>
   <g id="patch_3">
    <path d="M 0 720 
L 0 720 
L 0 0 
L 720 0 
L 720 720 
L 0 720 
z
" style="fill: none; stroke: #000000; stroke-width: 0.8; stroke-linejoin: miter; stroke-linecap: square"/>
   </g>
   <g id="text_1">
    <g clip-path="url(#pdfaf351e98)">
     <!-- 1410 -->
     <g transform="translate(386.045466 77.995011) rotate(-5.724036) scale(0.08 -0.08)">
      <defs>
       <path id="MS-Gothic-31" d="M 1375 50 
L 1375 2000 
L 1375 3925 
L 625 3925 
L 625 4225 
Q 1500 4225 1650 4925 
L 1950 4925 
L 1950 50 
L 1375 50 
z
" transform="scale(0.015625)"/>
       <path id="MS-Gothic-34" d="M 1875 50 
L 1875 625 
L 1875 1200 
L 200 1200 
L 200 1675 
L 1875 4925 
L 2450 4925 
L 2450 1675 
L 2975 1675 
L 2975 1200 
L 2450 1200 
L 2450 50 
L 1875 50 
z
M 1875 1675 
L 1875 3875 
L 750 1675 
L 1875 1675 
z
" transform="scale(0.015625)"/>
       <path id="MS-Gothic-30" d="M 200 2500 
Q 200 3975 800 4575 
Q 1150 4925 1575 4925 
Q 2000 4925 2350 4575 
Q 2950 3975 2950 2500 
Q 2950 1000 2350 400 
Q 2000 50 1575 50 
Q 1150 50 800 400 
Q 200 1000 200 2500 
z
M 2375 2500 
Q 2375 3825 1900 4300 
Q 1750 4450 1575 4450 
Q 1400 4450 1250 4300 
Q 775 3800 775 2500 
Q 775 1150 1250 675 
Q 1400 525 1575 525 
Q 1750 525 1900 675 
Q 2375 1150 2375 2500 
z
" transform="scale(0.015625)"/>
      </defs>
      <use xlink:href="#MS-Gothic-31"/>
      <use xlink:href="#MS-Gothic-34" transform="translate(50 0)"/>
      <use xlink:href="#MS-Gothic-31" transform="translate(100 0)"/>
      <use xlink:href="#MS-Gothic-30" transform="translate(150 0)"/>
     </g>
    </g>
   </g>
   <g id="text_2">
    <g clip-path="url(#pdfaf351e98)">
     <!-- 1440 -->
     <g transform="translate(678.004188 67.419622) rotate(-353.247321) scale(0.08 -0.08)">
      <use xlink:href="#MS-Gothic-31"/>
      <use xlink:href="#MS-Gothic-34" transform="translate(50 0)"/>
      <use xlink:href="#MS-Gothic-34" transform="translate(100 0)"/>
      <use xlink:href="#MS-Gothic-30" transform="translate(150 0)"/>
     </g>
    </g>
   </g>
   <g id="text_3">
    <g clip-path="url(#pdfaf351e98)">
     <!-- 1470 -->
     <g transform="translate(501.563369 270.390739) rotate(-38.327917) scale(0.08 -0.08)">
      <defs>
       <path id="MS-Gothic-37" d="M 1025 50 
L 2250 4450 
L 400 4450 
L 400 4925 
L 2775 4925 
L 2775 4400 
L 1600 50 
L 1025 50 
z
" transform="scale(0.015625)"/>
      </defs>
      <use xlink:href="#MS-Gothic-31"/>
      <use xlink:href="#MS-Gothic-34" transform="translate(50 0)"/>
      <use xlink:href="#MS-Gothic-37" transform="translate(100 0)"/>
      <use xlink:href="#MS-Gothic-30" transform="translate(150 0)"/>
     </g>
    </g>
   </g>
   <g id="text_4">
    <g clip-path="url(#pdfaf351e98)">
     <!-- 1500 -->
     <g transform="translate(78.992674 461.869425) rotate(-320.358674) scale(0.08 -0.08)">
      <defs>
       <path id="MS-Gothic-35" d="M 850 1425 
Q 850 925 1100 675 
Q 1250 525 1525 525 
Q 1750 525 1950 725 
Q 2250 1025 2250 1725 
Q 2250 2375 2000 2625 
Q 1850 2775 1650 2775 
Q 1200 2775 925 2250 
L 425 2250 
L 575 4925 
L 2725 4925 
L 2725 4450 
L 1050 4450 
L 950 2825 
Q 1275 3200 1775 3200 
Q 2150 3200 2425 2925 
Q 2825 2525 2825 1725 
Q 2825 875 2350 400 
Q 2000 50 1500 50 
Q 975 50 675 350 
Q 300 725 275 1425 
L 850 1425 
z
" transform="scale(0.015625)"/>
      </defs>
      <use xlink:href="#MS-Gothic-31"/>
      <use xlink:href="#MS-Gothic-35" transform="translate(50 0)"/>
      <use xlink:href="#MS-Gothic-30" transform="translate(100 0)"/>
      <use xlink:href="#MS-Gothic-30" transform="translate(150 0)"/>
     </g>
    </g>
   </g>
   <g id="text_5">
    <g clip-path="url(#pdfaf351e98)">
     <!-- 1530 -->
     <g transform="translate(152.997378 580.514074) rotate(-353.001351) scale(0.08 -0.08)">
      <defs>
       <path id="MS-Gothic-33" d="M 850 1500 
Q 825 950 1075 700 
Q 1250 525 1550 525 
Q 1800 525 2025 750 
Q 2250 975 2250 1500 
Q 2250 1900 1975 2175 
Q 1775 2375 1375 2350 
L 1375 2775 
Q 1775 2800 1975 3000 
Q 2175 3200 2175 3600 
Q 2175 4100 1950 4325 
Q 1800 4475 1575 4475 
Q 1350 4475 1200 4325 
Q 950 4075 925 3575 
L 375 3575 
Q 400 4225 800 4625 
Q 1100 4925 1575 4925 
Q 2075 4925 2375 4625 
Q 2725 4275 2725 3700 
Q 2725 3175 2450 2900 
Q 2200 2650 1975 2575 
Q 2300 2475 2475 2300 
Q 2825 1950 2825 1450 
Q 2825 800 2425 400 
Q 2075 50 1550 50 
Q 975 50 650 375 
Q 275 750 275 1500 
L 850 1500 
z
" transform="scale(0.015625)"/>
      </defs>
      <use xlink:href="#MS-Gothic-31"/>
      <use xlink:href="#MS-Gothic-35" transform="translate(50 0)"/>
      <use xlink:href="#MS-Gothic-33" transform="translate(100 0)"/>
      <use xlink:href="#MS-Gothic-30" transform="translate(150 0)"/>
     </g>
    </g>
   </g>
   <g id="text_6">
    <g clip-path="url(#pdfaf351e98)">
     <!-- 1530 -->
     <g transform="translate(599.183795 473.313288) rotate(-80.496719) scale(0.08 -0.08)">
      <use xlink:href="#MS-Gothic-31"/>
      <use xlink:href="#MS-Gothic-35" transform="translate(50 0)"/>
      <use xlink:href="#MS-Gothic-33" transform="translate(100 0)"/>
      <use xlink:href="#MS-Gothic-30" transform="translate(150 0)"/>
     </g>
    </g>
   </g>
  </g>
 </g>
 <defs>
  <clipPath id="pdfaf351e98">
   <path d="M 0 720 
L 0 720 
L 0 0 
L 720 0 
L 720 720 
z
"/>
  </clipPath>
 </defs>
</svg>
