<?xml version="1.0" encoding="utf-8" standalone="no"?>
<!DOCTYPE svg PUBLIC "-//W3C//DTD SVG 1.1//EN"
  "http://www.w3.org/Graphics/SVG/1.1/DTD/svg11.dtd">
<svg xmlns:xlink="http://www.w3.org/1999/xlink" width="720pt" height="720pt" viewBox="0 0 720 720" xmlns="http://www.w3.org/2000/svg" version="1.1">
 <metadata>
  <rdf:RDF xmlns:dc="http://purl.org/dc/elements/1.1/" xmlns:cc="http://creativecommons.org/ns#" xmlns:rdf="http://www.w3.org/1999/02/22-rdf-syntax-ns#">
   <cc:Work>
    <dc:type rdf:resource="http://purl.org/dc/dcmitype/StillImage"/>
    <dc:date>2026-03-20T18:58:44.663986</dc:date>
    <dc:format>image/svg+xml</dc:format>
    <dc:creator>
     <cc:Agent>
      <dc:title>Matplotlib v3.10.8, https://matplotlib.org/</dc:title>
     </cc:Agent>
    </dc:creator>
   </cc:Work>
  </rdf:RDF>
 </metadata>
 <defs>
  <style type="text/css">*{stroke-linejoin: round; stroke-linecap: butt}</style>
 </defs>
 <g id="figure_1">
  <g id="patch_1">
   <path d="M 0 720 
L 720 720 
L 720 0 
L 0 0 
L 0 720 
z
" style="fill: none"/>
  </g>
  <g id="axes_1">
   <g id="patch_2">
    <path d="M 0 720 
L 0 720 
L 0 0 
L 720 0 
L 720 720 
L 0 720 
z
" style="fill: none"/>
   </g>
   <g id="LineCollection_1">
    <path d="M 74.482759 720 
L 74.482759 720 
L 74.482759 720 
L 56.00031 713.031661 
L 37.870448 709.00867 
L 14.300195 705.217734 
L 0 703.23773 
" clip-path="url(#p84a440c29d)" style="fill: none; stroke: #000000; stroke-width: 1.5"/>
    <path d="M 138.160724 658.747215 
L 140.86175 659.62942 
L 141.714436 661.367519 
L 139.398649 664.040603 
L 133.255709 666.02071 
L 126.687382 665.835228 
L 121.635047 663.961981 
L 119.195632 661.093789 
L 120.1729 657.70725 
L 124.735875 654.957858 
L 124.735875 654.957858 
L 138.474663 651.62796 
L 147.290978 650.547973 
L 155.149048 650.58861 
L 161.916396 652.583364 
L 166.928869 656.371041 
L 169.746725 661.147768 
L 170.51672 667.587364 
L 170.51672 667.587364 
L 169.166179 676.362306 
L 169.166179 676.362306 
L 165.904127 691.589022 
L 164.110483 699.822921 
L 163.589174 705.658077 
L 164.822155 710.554315 
L 168.299148 715.23991 
L 168.299148 715.23991 
L 173.793103 720 
L 173.793103 720 
L 173.793103 720 
" clip-path="url(#p84a440c29d)" style="fill: none; stroke: #000000; stroke-width: 1.5"/>
    <path d="M 190.277452 659.224417 
L 193.814969 665.515895 
L 193.814969 665.515895 
L 195.887697 674.240609 
L 199.24352 684.470745 
L 205.45554 692.744138 
L 205.45554 692.744138 
L 214.0954 702.279458 
L 219.664054 710.018074 
L 223.448276 720 
L 223.448276 720 
L 223.448276 720 
" clip-path="url(#p84a440c29d)" style="fill: none; stroke: #000000; stroke-width: 1.5"/>
    <path d="M 197.917237 646.241569 
L 209.965427 651.349343 
L 219.047933 657.164186 
L 226.81465 664.856248 
L 226.81465 664.856248 
L 234.085836 675.489614 
L 234.085836 675.489614 
L 242.269786 690.027622 
L 247.128883 700.847652 
L 249.292994 709.643692 
L 248.275862 720 
L 248.275862 720 
L 248.275862 720 
" clip-path="url(#p84a440c29d)" style="fill: none; stroke: #000000; stroke-width: 1.5"/>
    <path d="M 239.950946 643.817638 
L 239.950946 643.817638 
L 254.203642 653.165323 
L 262.114082 660.14527 
L 268.772679 668.600269 
L 268.772679 668.600269 
L 273.661908 679.0539 
L 273.661908 679.0539 
L 277.302653 690.735184 
L 278.906384 700.410325 
L 277.518875 710.868972 
L 273.103448 720 
L 273.103448 720 
L 273.103448 720 
" clip-path="url(#p84a440c29d)" style="fill: none; stroke: #000000; stroke-width: 1.5"/>
    <path d="M 265.2409 647.529523 
L 278.509319 655.697662 
L 286.079383 661.403526 
L 292.720766 668.685617 
L 292.720766 668.685617 
L 298.196063 678.208741 
L 298.196063 678.208741 
L 303.193056 688.608859 
L 309.332741 697.819671 
L 309.332741 697.819671 
L 315.92995 704.714131 
L 319.918146 709.311264 
L 322.08184 713.675169 
L 322.758621 720 
L 322.758621 720 
L 322.758621 720 
" clip-path="url(#p84a440c29d)" style="fill: none; stroke: #000000; stroke-width: 1.5"/>
    <path d="M 291.740607 641.812554 
L 305.215882 645.266207 
L 315.239532 648.657392 
L 325.176104 654.807111 
L 332.149544 662.280311 
L 332.149544 662.280311 
L 339.207904 672.335039 
L 347.999201 683.116933 
L 347.999201 683.116933 
L 358.446184 693.298459 
L 365.657874 701.768504 
L 370.25494 710.120332 
L 372.413793 720 
L 372.413793 720 
L 372.413793 720 
" clip-path="url(#p84a440c29d)" style="fill: none; stroke: #000000; stroke-width: 1.5"/>
    <path d="M 341.159403 636.155578 
L 350.902045 639.201036 
L 360.633873 644.881918 
L 360.633873 644.881918 
L 378.009872 660.714812 
L 389.219703 672.010976 
L 400.690836 684.71834 
L 409.302998 698.566815 
L 409.302998 698.566815 
L 414.86272 709.35359 
L 422.068966 720 
L 422.068966 720 
L 422.068966 720 
L 422.068966 720 
" clip-path="url(#p84a440c29d)" style="fill: none; stroke: #000000; stroke-width: 1.5"/>
    <path d="M 0 567.22686 
L 12.645069 573.359643 
L 34.087158 584.032692 
L 55.633591 594.491382 
L 75.212706 602.288069 
L 96.125091 607.668761 
L 119.895316 609.811272 
L 143.857598 609.581681 
L 167.794152 608.826094 
L 191.685398 607.970108 
L 214.802203 607.501104 
L 238.518795 608.913014 
L 261.859046 613.156693 
L 281.560027 617.726817 
L 301.389997 620.604119 
L 301.389997 620.604119 
L 325.333311 621.881223 
L 344.359052 623.349958 
L 358.162236 625.812024 
L 371.721648 630.613664 
L 371.721648 630.613664 
L 386.374506 638.791465 
L 386.374506 638.791465 
L 405.785712 652.245433 
L 424.765852 666.755726 
L 433.901637 674.046962 
L 440.56899 680.93658 
L 445.309588 689.881677 
L 445.309588 689.881677 
L 447.990285 698.519797 
L 452.159529 706.370091 
L 452.159529 706.370091 
L 459.868864 713.509873 
L 459.868864 713.509873 
L 471.724138 720 
L 471.724138 720 
L 471.724138 720 
" clip-path="url(#p84a440c29d)" style="fill: none; stroke: #000000; stroke-width: 1.5"/>
    <path d="M 546.206897 720 
L 546.206897 720 
L 546.206897 720 
L 546.206897 720 
L 549.479717 719.034696 
L 551.278561 718.34767 
L 552.828561 717.50162 
L 553.923163 716.637794 
L 554.648657 715.820871 
L 555.069421 715.186176 
L 555.311902 714.868087 
L 555.453941 714.705945 
L 555.538699 714.623279 
L 555.590312 714.581749 
L 555.622435 714.561556 
L 555.64289 714.552336 
L 555.656217 714.548644 
L 555.665097 714.547632 
L 555.671137 714.547833 
L 555.675321 714.548508 
L 555.678266 714.5493 
L 555.680366 714.55005 
L 555.681879 714.550697 
L 555.682979 714.551228 
L 555.683784 714.55165 
L 555.684375 714.55198 
L 555.684812 714.552234 
L 555.685135 714.552428 
L 555.685375 714.552575 
L 555.685553 714.552687 
L 555.685685 714.55277 
L 555.685784 714.552833 
L 555.685858 714.55288 
L 555.685912 714.552916 
L 555.685953 714.552942 
L 555.685984 714.552962 
L 555.686006 714.552977 
L 555.686023 714.552988 
L 555.686036 714.552996 
L 555.686045 714.553002 
L 555.686053 714.553007 
L 555.686058 714.55301 
L 555.686062 714.553013 
L 555.686065 714.553015 
L 555.686067 714.553016 
L 555.686068 714.553017 
L 555.68607 714.553018 
L 555.686071 714.553019 
L 555.686071 714.553019 
L 555.686072 714.553019 
L 555.686072 714.55302 
L 555.686072 714.55302 
L 555.686073 714.55302 
L 555.686073 714.55302 
L 555.686073 714.55302 
L 555.686073 714.55302 
L 555.686073 714.55302 
L 555.686073 714.55302 
L 555.686073 714.55302 
L 555.686073 714.55302 
L 555.686073 714.55302 
L 555.686073 714.55302 
L 555.686073 714.55302 
L 555.686073 714.55302 
L 555.686073 714.55302 
L 555.686073 714.55302 
L 555.686073 714.55302 
" clip-path="url(#p84a440c29d)" style="fill: none; stroke: #000000; stroke-width: 1.5"/>
    <path d="M 239.306039 586.927098 
L 263.026057 589.330482 
L 286.908106 591.200123 
L 310.860952 592.410413 
L 334.836454 593.007395 
L 358.651466 592.025391 
L 380.109845 589.793177 
L 403.747251 589.143481 
L 427.645401 590.322103 
L 451.546205 592.016875 
L 474.629589 595.530447 
L 498.277324 599.08961 
L 522.20042 600.300453 
L 544.96767 600.889381 
L 564.510781 602.373086 
L 581.956921 605.829533 
L 599.521595 612.16246 
L 613.776484 619.998787 
L 625.489639 626.368561 
L 638.873392 630.372007 
L 638.873392 630.372007 
L 656.464967 634.034235 
L 673.115348 639.781798 
L 673.115348 639.781798 
L 684.487168 645.411653 
L 692.364275 650.766993 
L 697.465159 656.40912 
L 699.774794 662.147149 
L 699.252177 669.245518 
L 699.252177 669.245518 
L 691.915732 684.434981 
L 683.868709 695.30636 
L 673.153978 703.849921 
L 659.619545 709.256544 
L 659.619545 709.256544 
L 643.000388 712.31151 
L 643.000388 712.31151 
L 619.475679 715.987014 
L 595.862069 720 
L 595.862069 720 
" clip-path="url(#p84a440c29d)" style="fill: none; stroke: #000000; stroke-width: 1.5"/>
    <path d="M 597.935741 585.560193 
L 612.772833 587.845291 
L 626.838268 592.346219 
L 626.838268 592.346219 
L 642.709982 598.484601 
L 657.727121 601.46931 
L 657.727121 601.46931 
L 670.011639 602.718494 
L 683.523405 605.235468 
L 683.523405 605.235468 
L 698.059768 611.21811 
L 698.059768 611.21811 
L 720 620.689655 
L 720 620.689655 
" clip-path="url(#p84a440c29d)" style="fill: none; stroke: #000000; stroke-width: 1.5"/>
    <path d="M 0 235.586839 
L 6.115376 242.986563 
L 19.293247 259.151833 
L 35.965644 275.939483 
L 52.93416 291.106166 
L 67.574697 306.199754 
L 76.260915 315.437744 
L 87.735518 324.347267 
L 87.735518 324.347267 
L 102.928148 332.234475 
L 114.992403 338.55774 
L 123.902345 345.047104 
L 131.351814 353.47192 
L 131.351814 353.47192 
L 140.09866 369.588939 
L 146.167956 387.447879 
L 146.167956 387.447879 
L 149.561211 403.131056 
L 153.974028 418.700036 
L 153.974028 418.700036 
L 158.661521 432.988884 
L 161.049814 446.375019 
L 162.300534 456.968517 
L 165.241254 467.411555 
L 165.241254 467.411555 
L 171.867813 484.067125 
L 175.475702 495.005639 
L 179.345905 505.461141 
L 186.426733 514.982663 
L 195.721208 521.958548 
L 195.721208 521.958548 
L 216.470123 533.867132 
L 237.538982 545.253649 
L 257.989198 554.819607 
L 280.299195 561.891267 
L 303.431567 566.412535 
L 327.087933 569.667692 
L 350.997295 571.386693 
L 374.969317 571.38011 
L 398.847241 569.611302 
L 422.754161 568.710727 
L 446.735252 568.853123 
L 470.703171 568.888487 
L 494.665712 569.533199 
L 518.638608 570.299252 
L 542.618211 570.195354 
L 566.589118 569.246456 
L 590.532087 567.726703 
L 614.414237 565.641465 
L 638.043936 564.096075 
L 661.45622 563.583045 
L 674.168372 563.387632 
L 687.424943 561.526565 
L 698.823687 557.055942 
L 698.823687 557.055942 
L 720 546.206897 
L 720 546.206897 
" clip-path="url(#p84a440c29d)" style="fill: none; stroke: #000000; stroke-width: 1.5"/>
    <path d="M 584.154072 558.125944 
L 608.006708 555.77691 
L 631.556752 551.951252 
L 654.750791 546.44648 
L 676.176195 540.336996 
L 698.57885 532.149036 
L 720 521.37931 
L 720 521.37931 
" clip-path="url(#p84a440c29d)" style="fill: none; stroke: #000000; stroke-width: 1.5"/>
    <path d="M 630.361042 530.206986 
L 653.445418 523.781823 
L 676.028269 515.758893 
L 698.132676 506.436873 
L 720 496.551724 
L 720 496.551724 
" clip-path="url(#p84a440c29d)" style="fill: none; stroke: #000000; stroke-width: 1.5"/>
    <path d="M 131.727554 321.521685 
L 149.562034 326.494068 
L 167.435314 332.277322 
L 180.316549 338.444648 
L 190.059653 344.963419 
L 198.406143 353.668048 
L 198.406143 353.668048 
L 205.890753 365.703928 
L 205.890753 365.703928 
L 215.336202 387.397068 
L 221.725996 407.485018 
L 229.300209 427.584309 
L 237.939549 443.467265 
L 237.939549 443.467265 
L 248.489948 462.015365 
L 255.221832 473.64971 
L 263.91723 484.175325 
L 274.779207 492.299109 
L 274.779207 492.299109 
L 295.974098 502.956317 
L 317.3048 513.274949 
L 333.242657 522.134169 
L 349.688591 529.182341 
L 349.688591 529.182341 
L 372.850472 534.832045 
L 396.579521 537.839461 
L 417.868882 539.420225 
L 441.702319 538.609695 
L 465.406647 535.356076 
L 489.13819 532.000368 
L 512.953691 529.174948 
L 536.635826 525.548719 
L 560.102296 520.615126 
L 583.605708 515.843201 
L 607.167197 511.426766 
L 630.480755 505.92293 
L 653.408564 498.889757 
L 675.958312 490.727951 
L 698.014945 481.328523 
L 720 471.724138 
L 720 471.724138 
" clip-path="url(#p84a440c29d)" style="fill: none; stroke: #000000; stroke-width: 1.5"/>
    <path d="M 0 190.848432 
L 8.050246 197.343427 
L 17.180553 206.086334 
L 17.180553 206.086334 
L 32.581973 222.672001 
L 42.853754 232.080827 
L 52.33463 238.805885 
L 62.834662 243.398333 
L 62.834662 243.398333 
L 76.139561 246.246686 
L 76.139561 246.246686 
L 98.596566 250.306609 
L 118.579108 256.181902 
L 140.066377 266.428422 
L 160.31026 279.122537 
L 180.05351 292.630596 
L 199.649532 306.328505 
L 218.702681 320.775688 
L 236.703243 336.540396 
L 253.93269 353.189934 
L 269.99293 368.344421 
L 283.390837 381.635074 
L 294.420664 395.599989 
L 294.420664 395.599989 
L 307.448297 415.659619 
L 320.719344 435.603444 
L 328.303347 445.563677 
L 337.7297 454.673981 
L 337.7297 454.673981 
L 351.340369 462.578807 
L 351.340369 462.578807 
L 373.599482 470.981776 
L 396.601434 477.78178 
L 419.821375 483.655908 
L 443.435223 487.495394 
L 467.310811 489.031117 
L 491.179056 488.128277 
L 514.903593 485.311834 
L 538.462055 481.209687 
L 561.912989 476.249176 
L 585.354626 471.120795 
L 608.721293 465.829507 
L 631.714769 459.304741 
L 654.160223 450.98193 
L 676.133449 441.427283 
L 697.935683 431.486979 
L 720 422.068966 
L 720 422.068966 
" clip-path="url(#p84a440c29d)" style="fill: none; stroke: #000000; stroke-width: 1.5"/>
    <path d="M 635.323615 432.515675 
L 655.362345 427.277511 
L 676.850387 417.629065 
L 698.42019 407.57132 
L 720 397.241379 
L 720 397.241379 
" clip-path="url(#p84a440c29d)" style="fill: none; stroke: #000000; stroke-width: 1.5"/>
    <path d="M 0 55.705524 
L 12.010659 59.504065 
L 35.048438 66.100847 
L 57.941773 72.995411 
L 79.619972 81.986046 
L 100.244663 94.028061 
L 118.72875 105.884668 
L 136.240474 118.094932 
L 153.57933 134.460261 
L 169.160391 152.685398 
L 183.657638 171.771616 
L 196.588383 191.933172 
L 208.362129 212.816043 
L 220.21157 233.615842 
L 232.402583 254.184225 
L 241.77986 270.086546 
L 253.956483 287.183045 
L 271.197011 303.554618 
L 290.388525 317.888147 
L 309.867065 331.710994 
L 328.868237 346.182183 
L 347.879623 360.732123 
L 367.864876 373.919653 
L 388.083054 386.789445 
L 401.517724 396.022054 
L 415.690088 404.441827 
L 415.690088 404.441827 
L 433.580496 411.443883 
L 433.580496 411.443883 
L 456.692215 417.432185 
L 472.661258 420.143071 
L 490.017514 420.818346 
L 490.017514 420.818346 
L 513.847054 419.025131 
L 537.633486 416.598896 
L 561.293828 413.777588 
L 584.876445 411.138453 
L 608.094096 407.73008 
L 630.832208 402.272728 
L 653.732233 396.06396 
L 675.822507 390.532235 
L 698.285011 382.501669 
L 720 372.413793 
L 720 372.413793 
" clip-path="url(#p84a440c29d)" style="fill: none; stroke: #000000; stroke-width: 1.5"/>
    <path d="M 617.698067 384.239023 
L 617.698067 384.239023 
L 637.280882 370.734608 
L 657.705392 358.404229 
L 678.458715 346.513942 
L 699.369421 334.892771 
L 720 322.758621 
L 720 322.758621 
" clip-path="url(#p84a440c29d)" style="fill: none; stroke: #000000; stroke-width: 1.5"/>
    <path d="M 445.81321 402.808884 
L 467.972299 405.668357 
L 491.835653 406.040696 
L 512.692703 403.732421 
L 528.818849 400.241964 
L 544.563397 394.489665 
L 544.563397 394.489665 
L 556.958253 387.806369 
L 567.509559 380.058725 
L 576.193288 370.612556 
L 576.193288 370.612556 
L 585.890659 359.127477 
L 598.000792 349.083995 
L 598.000792 349.083995 
L 610.192258 340.880444 
L 618.526883 334.319719 
L 625.828304 325.719635 
L 625.828304 325.719635 
L 633.263234 314.139459 
L 642.447869 303.607092 
L 653.763525 295.547894 
L 653.763525 295.547894 
L 674.406387 285.925709 
L 697.136265 279.45689 
L 720 273.103448 
L 720 273.103448 
" clip-path="url(#p84a440c29d)" style="fill: none; stroke: #000000; stroke-width: 1.5"/>
    <path d="M 577.220479 346.742492 
L 589.439188 334.029534 
L 601.560778 319.650704 
L 601.560778 319.650704 
L 612.208757 304.552611 
L 624.786828 289.955673 
L 638.087201 278.757838 
L 653.40346 269.620079 
L 653.40346 269.620079 
L 673.926799 261.050499 
L 696.785954 254.209864 
L 720 248.275862 
L 720 248.275862 
" clip-path="url(#p84a440c29d)" style="fill: none; stroke: #000000; stroke-width: 1.5"/>
    <path d="M 507.767635 384.491423 
L 519.058465 379.061829 
L 528.148762 371.301265 
L 528.148762 371.301265 
L 538.780734 358.257133 
L 538.780734 358.257133 
L 548.712868 341.535309 
L 548.712868 341.535309 
L 560.29346 320.62447 
L 573.651574 300.774662 
L 582.406177 289.557781 
L 593.912087 279.058529 
L 593.912087 279.058529 
L 612.747559 265.903715 
L 630.146957 255.595293 
L 652.121308 246.828254 
L 674.72871 239.120157 
L 697.195535 230.838334 
L 720 223.448276 
L 720 223.448276 
" clip-path="url(#p84a440c29d)" style="fill: none; stroke: #000000; stroke-width: 1.5"/>
    <path d="M 294.558691 302.087058 
L 294.558691 302.087058 
L 315.779165 312.913312 
L 337.698706 322.139576 
L 359.373466 330.604091 
L 373.470212 337.17094 
L 387.742804 345.37033 
L 387.742804 345.37033 
L 397.390756 352.247378 
L 407.227157 357.453234 
L 418.539247 359.957604 
L 418.539247 359.957604 
L 436.773439 360.679173 
L 436.773439 360.679173 
L 460.634386 360.807192 
L 471.294024 360.976752 
L 480.820004 360.029294 
L 488.278337 357.04486 
L 494.871626 351.2949 
L 494.871626 351.2949 
L 509.159173 333.696432 
L 523.027064 314.724024 
L 536.074327 294.630554 
L 545.318172 279.474269 
L 553.173009 268.221625 
L 562.694044 259.051977 
L 562.694044 259.051977 
L 578.467446 248.90725 
L 578.467446 248.90725 
L 599.300225 237.022038 
L 619.920538 224.742672 
L 641.105365 213.764668 
L 663.51658 205.717918 
L 680.848786 200.012901 
L 696.774738 192.579613 
L 708.957393 184.41642 
L 720 173.793103 
L 720 173.793103 
L 720 173.793103 
" clip-path="url(#p84a440c29d)" style="fill: none; stroke: #000000; stroke-width: 1.5"/>
    <path d="M 0 9.955719 
L 3.966474 11.592893 
L 26.486509 19.790572 
L 49.495649 26.562903 
L 72.400531 33.652732 
L 91.665116 41.351317 
L 112.285799 53.151096 
L 131.333802 67.438891 
L 149.891326 82.143621 
L 167.396975 98.278641 
L 182.909907 116.429558 
L 197.859436 135.195854 
L 212.438396 153.393244 
L 226.048377 173.063243 
L 238.20029 193.747752 
L 251.103676 213.933268 
L 265.309868 232.14795 
L 282.129001 249.107302 
L 297.410677 261.905068 
L 310.277461 271.004501 
L 322.486748 277.281086 
L 336.463614 281.068689 
L 336.463614 281.068689 
L 359.938272 282.583995 
L 381.52388 282.500749 
L 400.991685 281.223484 
L 419.712457 277.55512 
L 419.712457 277.55512 
L 442.822211 271.445427 
L 465.850486 265.227912 
L 487.808746 258.265298 
L 509.840967 249.378268 
L 530.769997 237.86924 
L 550.882345 224.853788 
L 571.260582 212.301478 
L 592.757062 201.739082 
L 614.690117 192.04587 
L 636.958517 183.339853 
L 648.16247 179.1773 
L 658.166493 173.804575 
L 666.354682 166.302656 
L 666.354682 166.302656 
L 674.55512 153.878945 
L 679.798089 144.888842 
L 686.73976 137.827007 
L 686.73976 137.827007 
L 697.520703 131.699401 
L 697.520703 131.699401 
L 720 124.137931 
L 720 124.137931 
" clip-path="url(#p84a440c29d)" style="fill: none; stroke: #000000; stroke-width: 1.5"/>
    <path d="M 509.732832 234.392296 
L 528.910447 220.381722 
L 547.375665 205.237437 
L 565.789406 190.387278 
L 585.233185 177.195962 
L 598.621225 169.350401 
L 609.106704 162.745474 
L 617.388121 155.255208 
L 623.351385 146.76443 
L 626.401425 138.810393 
L 626.918875 132.977129 
L 625.219121 128.131258 
L 620.167289 123.317012 
L 614.781881 117.180686 
L 613.338619 111.21376 
L 614.433562 106.680726 
L 618.695735 103.096283 
L 625.203716 101.877825 
L 625.203716 101.877825 
L 640.149308 103.081999 
L 640.149308 103.081999 
L 656.175337 104.625135 
L 672.304009 103.722598 
L 672.304009 103.722598 
L 696.086703 101.047402 
L 720 99.310345 
L 720 99.310345 
" clip-path="url(#p84a440c29d)" style="fill: none; stroke: #000000; stroke-width: 1.5"/>
    <path d="M 559.15987 184.375486 
L 571.942046 171.002283 
L 580.604213 160.708245 
L 586.589662 151.323853 
L 590.353285 141.548891 
L 591.328075 131.429055 
L 591.328075 131.429055 
L 589.424296 109.523515 
L 588.312651 97.410784 
L 588.747139 86.558055 
L 591.199916 77.423261 
L 595.888482 69.344308 
L 603.25868 63.161831 
L 612.449629 59.918542 
L 622.693716 59.627169 
L 622.693716 59.627169 
L 636.935134 62.203269 
L 636.935134 62.203269 
L 659.943906 68.086825 
L 678.038184 71.958532 
L 696.030917 73.567464 
L 696.030917 73.567464 
L 720 74.482759 
L 720 74.482759 
" clip-path="url(#p84a440c29d)" style="fill: none; stroke: #000000; stroke-width: 1.5"/>
    <path d="M 637.577197 44.204037 
L 637.577197 44.204037 
L 654.912189 48.232494 
L 672.123241 50.651739 
L 672.123241 50.651739 
L 696.07827 51.178949 
L 720 49.655172 
L 720 49.655172 
" clip-path="url(#p84a440c29d)" style="fill: none; stroke: #000000; stroke-width: 1.5"/>
    <path d="M 563.293654 136.027658 
L 563.293654 136.027658 
L 563.211439 112.559277 
L 562.011649 89.266355 
L 562.052321 72.529766 
L 563.373641 58.991746 
L 566.106883 48.370775 
L 571.389716 37.925803 
L 578.728089 29.801021 
L 587.141408 24.320746 
L 597.090113 21.443536 
L 597.090113 21.443536 
L 610.484327 21.063167 
L 610.484327 21.063167 
L 629.6599 23.679304 
L 629.6599 23.679304 
L 650.888264 27.750679 
L 672.551305 30.030929 
L 696.420416 28.940104 
L 720 24.827586 
L 720 24.827586 
" clip-path="url(#p84a440c29d)" style="fill: none; stroke: #000000; stroke-width: 1.5"/>
    <path d="M 601.96854 0 
L 613.67931 1.051639 
L 637.478613 3.940117 
L 656.535092 5.942752 
L 675.295664 5.56531 
L 675.295664 5.56531 
L 696.231148 2.589476 
L 720 0 
L 720 0 
" clip-path="url(#p84a440c29d)" style="fill: none; stroke: #000000; stroke-width: 1.5"/>
    <path d="M 497.139334 225.759857 
L 497.139334 225.759857 
L 511.089852 210.326031 
L 524.810051 191.087741 
L 532.743918 176.716593 
L 537.981416 164.188572 
L 540.846623 150.695933 
L 540.846623 150.695933 
L 541.393558 133.140513 
L 541.393558 133.140513 
L 541.192868 118.394683 
L 542.591681 104.314297 
L 542.591681 104.314297 
L 545.457448 84.077233 
L 545.342285 65.160912 
L 545.342285 65.160912 
L 544.169433 50.543167 
L 544.080013 38.715453 
L 546.581458 26.805664 
L 551.88264 16.273788 
L 560.478033 6.765116 
L 571.034483 0 
L 571.034483 0 
L 571.034483 0 
" clip-path="url(#p84a440c29d)" style="fill: none; stroke: #000000; stroke-width: 1.5"/>
    <path d="M 525.471368 152.690122 
L 525.717864 137.381824 
L 525.717864 137.381824 
L 523.870309 113.692134 
L 522.859488 90.414666 
L 521.776747 69.079506 
L 518.401901 50.188586 
L 515.724167 35.329466 
L 515.296547 22.31825 
L 517.003039 10.941457 
L 521.37931 0 
L 521.37931 0 
L 521.37931 0 
" clip-path="url(#p84a440c29d)" style="fill: none; stroke: #000000; stroke-width: 1.5"/>
    <path d="M 507.777873 102.012608 
L 507.479107 80.439411 
L 504.64028 56.739207 
L 499.425705 33.413316 
L 496.586318 20.972642 
L 495.31784 10.713107 
L 496.551724 0 
L 496.551724 0 
L 496.551724 0 
" clip-path="url(#p84a440c29d)" style="fill: none; stroke: #000000; stroke-width: 1.5"/>
    <path d="M 446.896552 0 
L 446.896552 0 
L 446.896552 0 
L 446.896552 0 
L 446.410721 4.089905 
L 444.949879 6.932071 
L 441.818575 10.005846 
L 436.275905 13.69667 
L 426.232919 20.023908 
L 415.384793 29.515384 
L 407.596829 38.22008 
L 401.179069 48.400575 
L 401.179069 48.400575 
L 397.450542 58.364304 
L 396.055276 69.169102 
L 397.082008 81.912231 
L 397.082008 81.912231 
L 399.617535 90.208216 
L 402.662467 94.468584 
L 405.354851 95.45203 
L 407.915427 94.108062 
L 410.206559 90.38249 
L 411.977945 84.111366 
L 412.748851 75.219725 
L 412.748851 75.219725 
L 411.609362 69.410419 
" clip-path="url(#p84a440c29d)" style="fill: none; stroke: #000000; stroke-width: 1.5"/>
    <path d="M 372.413793 0 
L 372.413793 0 
L 372.413793 0 
L 375.099596 12.128485 
L 374.897976 23.351592 
L 373.67524 37.749208 
L 374.185526 61.546404 
L 377.835307 81.517842 
L 384.405267 99.911314 
L 393.145431 116.77893 
L 393.145431 116.77893 
L 398.791846 125.068052 
L 398.791846 125.068052 
L 403.353335 129.289055 
L 407.209876 130.571683 
L 410.969918 129.351021 
L 413.783676 125.3617 
L 415.630827 119.186136 
" clip-path="url(#p84a440c29d)" style="fill: none; stroke: #000000; stroke-width: 1.5"/>
    <path d="M 322.758621 0 
L 322.758621 0 
L 322.758621 0 
L 332.423484 6.190258 
L 339.507525 14.109484 
L 345.564137 24.809539 
L 349.507494 37.657687 
L 350.515948 50.658533 
L 351.019832 64.644075 
L 354.494814 82.943069 
" clip-path="url(#p84a440c29d)" style="fill: none; stroke: #000000; stroke-width: 1.5"/>
    <path d="M 273.103448 0 
L 273.103448 0 
L 291.203373 15.679079 
L 308.977191 31.555738 
L 308.977191 31.555738 
L 319.533133 44.334981 
L 319.533133 44.334981 
L 326.473004 57.124015 
L 330.907611 71.131679 
L 334.903681 86.179707 
L 343.047434 107.301945 
L 352.752338 129.096189 
L 362.539891 150.969657 
L 362.539891 150.969657 
L 371.003633 166.15755 
L 371.003633 166.15755 
L 378.845151 175.301286 
L 389.074899 182.473884 
L 399.998683 187.061275 
L 414.401317 189.990476 
L 414.401317 189.990476 
L 425.179934 189.707699 
L 425.179934 189.707699 
L 432.862493 187.173697 
L 439.114712 182.397189 
L 444.458909 175.053814 
L 448.455669 165.609278 
L 451.235201 153.498613 
L 452.193997 136.71673 
L 450.171562 120.806835 
L 448.068157 102.526579 
L 448.170095 85.181665 
L 448.170095 85.181665 
L 447.601076 65.537324 
L 447.601076 65.537324 
L 444.829817 52.822342 
L 444.829817 52.822342 
L 439.968702 43.929119 
L 432.833536 37.815696 
" clip-path="url(#p84a440c29d)" style="fill: none; stroke: #000000; stroke-width: 1.5"/>
    <path d="M 248.275862 0 
L 248.275862 0 
L 265.063278 17.092524 
L 282.493794 33.540977 
L 298.487282 51.311073 
L 298.487282 51.311073 
L 307.607312 65.28855 
" clip-path="url(#p84a440c29d)" style="fill: none; stroke: #000000; stroke-width: 1.5"/>
    <path d="M 198.62069 0 
L 198.62069 0 
L 213.570144 18.686199 
L 230.189738 35.945959 
L 247.370813 52.689917 
L 263.980847 69.970366 
L 278.987784 88.595879 
L 291.725253 108.791007 
L 302.359096 129.260379 
L 313.193653 150.636728 
L 322.847671 172.534779 
L 322.847671 172.534779 
L 328.926348 185.452957 
L 328.926348 185.452957 
L 336.251597 195.065716 
L 345.894415 202.906395 
L 357.425331 208.680735 
L 371.20357 212.124562 
L 384.815387 213.44266 
L 408.650211 214.299778 
L 408.650211 214.299778 
L 422.3558 214.171179 
L 422.3558 214.171179 
L 431.014829 212.510457 
L 438.377878 208.468026 
L 445.063673 201.825227 
L 451.265254 193.186682 
" clip-path="url(#p84a440c29d)" style="fill: none; stroke: #000000; stroke-width: 1.5"/>
    <path d="M 173.793103 0 
L 173.793103 0 
L 189.838689 17.800111 
L 205.195575 36.203776 
L 221.070055 54.153045 
L 237.821872 71.316839 
L 254.162742 88.845667 
" clip-path="url(#p84a440c29d)" style="fill: none; stroke: #000000; stroke-width: 1.5"/>
    <path d="M 148.965517 0 
L 148.965517 0 
L 165.228078 17.621924 
L 181.378645 35.333908 
L 196.567517 53.885384 
L 212.420071 71.826201 
L 228.838638 89.278032 
" clip-path="url(#p84a440c29d)" style="fill: none; stroke: #000000; stroke-width: 1.5"/>
    <path d="M 124.137931 0 
L 124.137931 0 
L 140.776211 17.264431 
L 157.631483 34.297899 
L 173.810678 51.980942 
L 189.708287 69.945474 
L 205.653125 87.839816 
" clip-path="url(#p84a440c29d)" style="fill: none; stroke: #000000; stroke-width: 1.5"/>
    <path d="M 49.655172 0 
L 49.655172 0 
L 72.92357 5.84041 
L 72.92357 5.84041 
L 89.970885 12.151573 
L 105.485834 20.812757 
L 120.58742 33.000357 
" clip-path="url(#p84a440c29d)" style="fill: none; stroke: #000000; stroke-width: 1.5"/>
    <path d="M 0 99.310345 
L 0 99.310345 
L 22.886154 106.286524 
L 46.31315 110.934546 
L 69.961945 113.810092 
L 69.961945 113.810092 
L 85.239597 116.75628 
L 100.381524 122.440622 
" clip-path="url(#p84a440c29d)" style="fill: none; stroke: #000000; stroke-width: 1.5"/>
    <path d="M 0 148.965517 
L 0 148.965517 
L 0 148.965517 
L 15.776541 145.161183 
L 31.569704 143.632589 
L 52.13575 143.696517 
L 75.632066 146.987077 
L 95.760005 150.781443 
L 95.760005 150.781443 
L 107.685224 153.059909 
L 119.133846 158.560657 
L 128.9894 165.890759 
L 142.835562 177.730056 
L 159.632841 194.574632 
L 159.632841 194.574632 
L 170.502162 209.17885 
L 179.200669 224.778251 
L 189.920774 246.21157 
L 201.831842 266.90843 
L 216.249885 285.713399 
L 231.092665 300.475058 
L 247.458618 314.5631 
L 265.943526 329.812073 
L 284.071841 345.441916 
L 301.805872 361.57999 
L 319.789668 377.361184 
L 337.390097 393.360575 
L 355.57736 408.699723 
L 374.990909 422.762164 
L 395.392439 435.022167 
L 395.392439 435.022167 
L 411.594437 441.643979 
L 428.485087 445.839829 
L 449.247712 448.906308 
L 473.156236 450.197897 
L 497.141113 450.17488 
L 521.044038 448.706491 
L 544.902125 446.197743 
L 568.824061 444.309937 
L 592.765092 442.816916 
" clip-path="url(#p84a440c29d)" style="fill: none; stroke: #000000; stroke-width: 1.5"/>
    <path d="M 0 273.103448 
L 0 273.103448 
L 15.662699 291.256794 
L 31.324145 309.368911 
L 46.226537 327.994871 
L 46.226537 327.994871 
L 55.212666 342.049055 
L 61.561963 358.221955 
L 64.846763 374.729807 
L 64.846763 374.729807 
L 64.808033 387.624656 
L 62.526036 400.457041 
L 59.735545 418.01389 
L 57.878935 436.77599 
L 57.878935 436.77599 
L 53.89571 456.079672 
L 46.755443 474.728306 
L 46.755443 474.728306 
L 43.427973 484.013201 
L 43.427973 484.013201 
L 43.10077 492.560231 
L 46.218229 500.762808 
L 51.010717 506.967017 
L 58.515047 513.844728 
L 70.451689 522.392533 
L 86.834133 532.399055 
L 107.824886 543.942404 
L 107.824886 543.942404 
L 126.185101 551.543254 
L 144.037971 557.293365 
L 166.786229 563.789219 
L 189.940891 569.3077 
L 213.315448 574.162048 
L 236.650786 578.859636 
L 260.137794 582.729031 
" clip-path="url(#p84a440c29d)" style="fill: none; stroke: #000000; stroke-width: 1.5"/>
    <path d="M 0 297.931034 
L 0 297.931034 
L 14.38462 317.117923 
L 27.827661 336.931383 
L 27.827661 336.931383 
L 36.870047 353.839157 
L 36.870047 353.839157 
L 41.935847 369.03453 
L 43.866116 384.792974 
L 42.464603 400.172479 
" clip-path="url(#p84a440c29d)" style="fill: none; stroke: #000000; stroke-width: 1.5"/>
    <path d="M 0 343.202344 
L 3.925466 349.904454 
L 9.458328 362.040896 
L 12.208099 374.586338 
L 12.140267 387.584035 
L 9.130296 399.910042 
L 9.130296 399.910042 
L 0 422.068966 
L 0 422.068966 
" clip-path="url(#p84a440c29d)" style="fill: none; stroke: #000000; stroke-width: 1.5"/>
    <path d="M 0 521.37931 
L 0 521.37931 
L 22.018769 530.855111 
L 44.341843 539.560168 
L 66.43739 548.779506 
L 88.102816 558.922172 
L 88.102816 558.922172 
L 105.295202 565.417782 
L 124.10904 569.116727 
L 141.577842 571.054286 
" clip-path="url(#p84a440c29d)" style="fill: none; stroke: #000000; stroke-width: 1.5"/>
    <path d="M 0 620.689655 
L 0 620.689655 
L 0 620.689655 
L 5.058795 615.708879 
L 10.22709 612.772817 
L 17.582446 610.410597 
L 27.278752 609.046399 
L 39.717735 609.627937 
L 52.562789 612.324462 
L 67.254613 616.318572 
L 90.355928 620.972308 
" clip-path="url(#p84a440c29d)" style="fill: none; stroke: #000000; stroke-width: 1.5"/>
    <path d="M 160.454168 694.925247 
L 160.454168 694.925247 
L 154.479757 702.989715 
L 148.435254 708.314776 
L 142.992279 710.648732 
L 137.096391 711.413693 
L 129.512018 711.133281 
L 129.512018 711.133281 
L 119.904177 709.854765 
L 119.904177 709.854765 
L 96.790561 703.910657 
L 74.482759 695.172414 
L 53.128545 684.517531 
L 53.128545 684.517531 
L 41.588746 677.287505 
L 41.588746 677.287505 
L 35.814212 672.097603 
L 35.814212 672.097603 
L 32.795097 666.098285 
L 32.165227 659.486546 
L 33.216409 650.921849 
L 33.216409 650.921849 
L 36.477291 641.398092 
L 36.477291 641.398092 
L 40.84468 635.267698 
" clip-path="url(#p84a440c29d)" style="fill: none; stroke: #000000; stroke-width: 1.5"/>
    <path d="M 465.747926 667.700609 
L 465.747926 667.700609 
L 473.567316 677.498831 
L 483.047465 686.833892 
L 483.047465 686.833892 
L 496.551724 695.172414 
L 496.551724 695.172414 
L 516.927337 707.654842 
L 534.045794 720 
" clip-path="url(#p84a440c29d)" style="fill: none; stroke: #000000; stroke-width: 1.5"/>
    <path d="M 395.486554 618.519698 
L 395.486554 618.519698 
L 412.599803 624.591891 
L 431.312964 632.924507 
L 452.322544 643.38081 
L 465.491521 648.185748 
L 480.251894 654.393486 
L 491.99247 662.307152 
L 491.99247 662.307152 
L 501.687151 669.518577 
L 513.883273 675.4279 
L 523.69597 677.649896 
L 532.841605 679.938077 
L 539.594251 683.839094 
L 543.7068 688.209356 
L 546.206897 695.172414 
L 546.206897 695.172414 
L 546.206897 695.172414 
L 547.620162 701.93882 
L 550.094303 707.30488 
" clip-path="url(#p84a440c29d)" style="fill: none; stroke: #000000; stroke-width: 1.5"/>
    <path d="M 541.300739 674.215586 
L 541.300739 674.215586 
L 554.37772 679.761546 
L 562.204653 683.118711 
L 571.143435 684.945179 
L 571.143435 684.945179 
L 582.117983 686.376096 
L 589.231617 688.631437 
L 593.055215 690.933071 
L 595.862069 695.172414 
L 595.862069 695.172414 
L 595.862069 695.172414 
L 595.862069 695.172414 
L 595.862069 695.172414 
L 595.683525 698.789068 
L 594.23603 701.143346 
L 590.880893 703.800731 
L 585.60852 705.887277 
" clip-path="url(#p84a440c29d)" style="fill: none; stroke: #000000; stroke-width: 1.5"/>
    <path d="M 651.74481 692.340592 
L 651.74481 692.340592 
L 635.344926 693.162864 
L 628.720341 693.488506 
L 620.689655 695.172414 
L 620.689655 695.172414 
L 620.689655 695.172414 
L 620.689655 695.172414 
L 620.689655 695.172414 
L 613.207859 698.421956 
L 607.004051 701.681109 
L 607.004051 701.681109 
L 593.79496 707.326848 
L 593.79496 707.326848 
" clip-path="url(#p84a440c29d)" style="fill: none; stroke: #000000; stroke-width: 1.5"/>
    <path d="M 248.205713 118.522318 
L 261.64432 138.36194 
L 275.096116 158.182595 
L 287.691324 178.483762 
L 298.458659 195.732113 
L 309.649745 209.600518 
L 322.486907 221.195597 
L 337.105429 230.237738 
L 351.014676 235.814045 
L 366.325037 238.725363 
L 366.325037 238.725363 
L 390.131365 238.922232 
L 414.050601 238.422064 
L 424.78014 238.474176 
L 434.472124 237.019463 
L 443.183542 232.716143 
L 443.183542 232.716143 
L 451.357381 225.298082 
L 451.357381 225.298082 
L 465.268485 208.782983 
L 473.98899 196.644366 
L 480.971134 182.755498 
L 485.120103 166.44578 
L 485.896041 149.7352 
L 485.896041 149.7352 
L 484.636688 125.905712 
L 483.597634 101.962102 
L 483.935742 79.983493 
L 483.881142 62.110054 
L 481.463217 46.252317 
L 478.236818 35.78127 
L 471.724138 24.827586 
L 471.724138 24.827586 
L 471.724138 24.827586 
L 465.648677 17.953476 
L 465.648677 17.953476 
L 460.619929 13.18885 
" clip-path="url(#p84a440c29d)" style="fill: none; stroke: #000000; stroke-width: 1.5"/>
    <path d="M 222.234224 0 
L 230.674532 8.560531 
L 248.275862 24.827586 
L 266.041424 40.933032 
L 282.287411 58.493324 
" clip-path="url(#p84a440c29d)" style="fill: none; stroke: #000000; stroke-width: 1.5"/>
    <path d="M 0 169.761946 
L 8.843137 170.799706 
L 24.827586 173.793103 
L 24.827586 173.793103 
L 24.827586 173.793103 
L 37.986629 177.210471 
L 48.96031 179.441866 
L 60.516539 184.184592 
L 72.453792 191.140598 
L 86.949785 198.762094 
L 101.560675 207.786722 
L 121.171078 220.690302 
L 140.797994 234.204935 
L 140.797994 234.204935 
L 155.739469 246.167873 
L 170.001501 259.893939 
" clip-path="url(#p84a440c29d)" style="fill: none; stroke: #000000; stroke-width: 1.5"/>
    <path d="M 24.827586 372.413793 
L 24.827586 372.413793 
L 24.827586 372.413793 
L 26.432749 384.532473 
L 24.68568 396.893659 
L 21.212164 408.090144 
L 13.089789 430.594356 
L 13.089789 430.594356 
L 5.656333 446.631359 
L 0 457.547741 
" clip-path="url(#p84a440c29d)" style="fill: none; stroke: #000000; stroke-width: 1.5"/>
    <path d="M 83.059545 678.517152 
L 74.482759 670.344828 
L 74.482759 670.344828 
L 74.482759 670.344828 
L 66.793815 659.062418 
L 66.793815 659.062418 
L 63.107958 650.987565 
L 63.107958 650.987565 
L 62.07764 644.577869 
L 62.07764 644.577869 
L 63.113798 640.657916 
L 65.256163 638.335435 
L 69.278353 636.48423 
L 75.092131 635.787187 
L 83.287018 634.911956 
" clip-path="url(#p84a440c29d)" style="fill: none; stroke: #000000; stroke-width: 1.5"/>
    <path d="M 444.996281 615.556897 
L 444.996281 615.556897 
L 464.070308 622.717576 
L 487.040446 627.723757 
L 501.079168 629.638563 
L 514.212447 632.711736 
L 526.078599 638.057364 
L 526.078599 638.057364 
L 539.051115 645.506784 
L 552.344392 651.213546 
L 552.344392 651.213546 
L 575.143429 658.099726 
L 597.987914 663.769863 
L 620.689655 670.344828 
L 620.689655 670.344828 
L 628.966912 673.878697 
L 628.966912 673.878697 
L 634.174964 677.356923 
L 636.788602 680.593835 
" clip-path="url(#p84a440c29d)" style="fill: none; stroke: #000000; stroke-width: 1.5"/>
    <path d="M 0 27.971039 
L 6.952502 30.469152 
L 29.835001 37.555389 
L 51.60488 42.710215 
L 74.482759 49.655172 
" clip-path="url(#p84a440c29d)" style="fill: none; stroke: #000000; stroke-width: 1.5"/>
    <path d="M 38.707903 266.319957 
L 49.655172 273.103448 
L 49.655172 273.103448 
L 71.44218 280.892054 
L 94.023532 285.291964 
L 117.415002 289.336734 
L 140.13922 296.21886 
L 158.998858 304.153253 
" clip-path="url(#p84a440c29d)" style="fill: none; stroke: #000000; stroke-width: 1.5"/>
    <path d="M 549.568032 619.807796 
L 549.568032 619.807796 
L 567.570928 627.203829 
L 567.570928 627.203829 
L 581.825114 634.988521 
L 595.862069 645.517241 
L 595.862069 645.517241 
L 595.862069 645.517241 
L 595.862069 645.517241 
L 604.562244 651.259917 
L 613.700303 655.099353 
L 632.179582 662.560543 
L 632.179582 662.560543 
" clip-path="url(#p84a440c29d)" style="fill: none; stroke: #000000; stroke-width: 1.5"/>
    <path d="M 645.517241 471.724138 
L 667.710652 462.590151 
L 689.700211 452.992568 
L 711.274526 442.532718 
L 720 438.083376 
" clip-path="url(#p84a440c29d)" style="fill: none; stroke: #000000; stroke-width: 1.5"/>
    <path d="M 74.482759 422.068966 
L 74.482759 422.068966 
L 75.226399 446.056763 
L 75.226399 446.056763 
L 74.376321 462.262551 
L 72.039427 479.870996 
L 72.039427 479.870996 
L 72.062517 490.790553 
L 75.227703 501.49619 
" clip-path="url(#p84a440c29d)" style="fill: none; stroke: #000000; stroke-width: 1.5"/>
    <path d="M 0 535.802797 
L 12.45537 542.915481 
L 30.569733 551.825445 
L 30.569733 551.825445 
L 52.753218 560.926296 
L 74.482759 571.034483 
L 74.482759 571.034483 
" clip-path="url(#p84a440c29d)" style="fill: none; stroke: #000000; stroke-width: 1.5"/>
    <path d="M 322.758621 99.310345 
L 333.314474 120.839056 
L 343.453256 142.542878 
L 352.845287 164.555858 
L 352.845287 164.555858 
L 358.726426 175.940795 
L 358.726426 175.940795 
" clip-path="url(#p84a440c29d)" style="fill: none; stroke: #000000; stroke-width: 1.5"/>
    <path d="M 99.310345 347.586207 
L 99.310345 347.586207 
L 108.024988 357.842194 
L 113.692234 369.433091 
L 117.128578 382.813968 
L 117.634111 398.555536 
L 116.343168 412.824971 
L 115.933279 436.70764 
L 118.115966 460.481529 
L 122.701502 483.931986 
L 122.701502 483.931986 
L 127.084465 498.833475 
L 127.084465 498.833475 
L 131.348212 507.554225 
L 137.990278 514.995509 
L 146.684712 520.984367 
L 157.162125 527.047705 
L 177.49788 539.545582 
L 198.42851 550.880634 
" clip-path="url(#p84a440c29d)" style="fill: none; stroke: #000000; stroke-width: 1.5"/>
    <path d="M 94.45368 360.534299 
L 99.310345 372.413793 
L 99.310345 372.413793 
L 99.310345 372.413793 
L 101.417783 385.542044 
L 100.39105 398.965808 
L 98.465456 412.730051 
L 97.796565 432.748371 
L 98.177531 456.730174 
L 99.306105 480.557396 
L 99.306105 480.557396 
L 101.591928 494.633822 
L 101.591928 494.633822 
L 105.408893 504.715113 
L 111.857054 513.512029 
L 119.990963 520.048716 
L 129.750069 525.829371 
" clip-path="url(#p84a440c29d)" style="fill: none; stroke: #000000; stroke-width: 1.5"/>
    <path d="M 223.448276 124.137931 
L 238.300965 142.93975 
L 251.643271 162.835384 
L 264.306607 183.201287 
L 277.690335 203.083463 
L 292.886991 221.561142 
L 292.886991 221.561142 
L 306.844497 234.314166 
L 323.189704 244.697597 
L 339.473981 251.452873 
L 357.500355 255.486751 
" clip-path="url(#p84a440c29d)" style="fill: none; stroke: #000000; stroke-width: 1.5"/>
    <path d="M 375.096936 112.565142 
L 381.760759 127.442994 
L 388.20033 138.614469 
L 397.241379 148.965517 
L 397.241379 148.965517 
L 397.241379 148.965517 
L 405.613965 154.24473 
L 413.722158 155.75746 
L 422.29762 153.537919 
L 428.377984 148.181013 
L 431.622522 141.777694 
" clip-path="url(#p84a440c29d)" style="fill: none; stroke: #000000; stroke-width: 1.5"/>
    <path d="M 186.655375 460.515532 
L 186.655375 460.515532 
L 200.131542 474.335554 
L 211.245722 488.59113 
L 211.245722 488.59113 
L 222.181668 503.7178 
L 235.155223 517.260139 
L 235.155223 517.260139 
L 253.748813 532.165383 
L 273.103448 546.206897 
L 273.103448 546.206897 
L 285.614065 553.049988 
L 298.146959 557.664752 
" clip-path="url(#p84a440c29d)" style="fill: none; stroke: #000000; stroke-width: 1.5"/>
    <path d="M 280.303729 509.585457 
L 295.45366 520.892486 
L 309.321737 531.247714 
L 324.793544 539.084742 
L 324.793544 539.084742 
L 347.586207 546.206897 
" clip-path="url(#p84a440c29d)" style="fill: none; stroke: #000000; stroke-width: 1.5"/>
    <path d="M 150.075555 340.670389 
L 150.075555 340.670389 
L 160.734808 351.499956 
L 168.155119 361.269166 
L 173.793103 372.413793 
L 173.793103 372.413793 
L 180.721338 395.297081 
L 188.242959 417.819477 
L 188.242959 417.819477 
L 195.010447 429.979233 
L 204.142393 440.978226 
L 215.303494 454.059228 
L 215.303494 454.059228 
L 226.150133 470.820821 
" clip-path="url(#p84a440c29d)" style="fill: none; stroke: #000000; stroke-width: 1.5"/>
    <path d="M 372.413793 521.37931 
L 395.789906 526.419582 
L 418.053001 529.322349 
L 418.053001 529.322349 
L 435.654443 529.846552 
L 453.393766 527.733928 
L 474.074922 523.735255 
" clip-path="url(#p84a440c29d)" style="fill: none; stroke: #000000; stroke-width: 1.5"/>
    <path d="M 443.15994 337.872705 
L 459.286202 335.192587 
L 474.786708 329.866783 
L 474.786708 329.866783 
L 490.923395 322.854105 
L 502.376197 317.005383 
L 512.234247 309.294303 
L 512.234247 309.294303 
L 521.37931 297.931034 
L 521.37931 297.931034 
" clip-path="url(#p84a440c29d)" style="fill: none; stroke: #000000; stroke-width: 1.5"/>
    <path d="M 312.646406 292.603669 
L 323.609996 296.37279 
L 336.583593 297.652841 
L 336.583593 297.652841 
L 355.603476 295.832039 
L 377.233783 295.287889 
L 396.555266 297.669441 
L 417.111827 300.064005 
L 433.305689 299.760826 
L 446.857335 297.672324 
L 458.528985 296.087203 
L 469.254962 296.838788 
L 480.353782 297.414172 
L 491.270805 294.212506 
L 491.270805 294.212506 
L 506.626469 285.55279 
L 521.37931 273.103448 
L 521.37931 273.103448 
L 539.206514 257.582836 
L 557.778319 245.159481 
" clip-path="url(#p84a440c29d)" style="fill: none; stroke: #000000; stroke-width: 1.5"/>
    <path d="M 215.991405 350.311192 
L 215.991405 350.311192 
L 228.876257 367.626527 
L 240.835098 388.147482 
L 251.160814 409.649832 
L 261.934218 431.045692 
L 269.635707 445.613793 
L 277.631771 457.942055 
L 289.520029 469.694328 
L 303.309488 478.341528 
L 303.309488 478.341528 
L 325.145215 488.05797 
L 347.586207 496.551724 
L 370.074162 504.901408 
" clip-path="url(#p84a440c29d)" style="fill: none; stroke: #000000; stroke-width: 1.5"/>
    <path d="M 446.896552 248.275862 
L 446.896552 248.275862 
L 467.523845 236.470915 
L 483.057505 223.158301 
L 495.798804 207.272285 
L 504.437656 191.465182 
" clip-path="url(#p84a440c29d)" style="fill: none; stroke: #000000; stroke-width: 1.5"/>
    <path d="M 324.414618 396.915235 
L 334.92582 410.344673 
L 347.586207 422.068966 
L 347.586207 422.068966 
L 366.974465 436.167202 
L 366.974465 436.167202 
L 383.711208 445.889588 
" clip-path="url(#p84a440c29d)" style="fill: none; stroke: #000000; stroke-width: 1.5"/>
    <path d="M 380.303214 310.558805 
L 399.517924 314.827458 
L 399.517924 314.827458 
L 422.068966 322.758621 
L 422.068966 322.758621 
L 433.660623 325.432457 
L 444.250277 325.088057 
L 456.964375 322.328769 
" clip-path="url(#p84a440c29d)" style="fill: none; stroke: #000000; stroke-width: 1.5"/>
   </g>
   <g id="patch_3">
    <path d="M 54.04834 712.598522 
Q 51.469544 712.02629 50.527976 711.817358 
" clip-path="url(#p84a440c29d)" style="fill: none; stroke: #000000; stroke-width: 1.5; stroke-linecap: round"/>
    <path d="M 53.999733 714.636383 
L 50.527976 711.817358 
L 54.86625 710.731368 
z
" clip-path="url(#p84a440c29d)" style="stroke: #000000; stroke-width: 1.5; stroke-linecap: round"/>
   </g>
   <g id="patch_4">
    <path d="M 157.068886 651.154505 
Q 157.800804 651.370246 156.924097 651.111827 
" clip-path="url(#p84a440c29d)" style="fill: none; stroke: #000000; stroke-width: 1.5; stroke-linecap: round"/>
    <path d="M 153.652774 648.062491 
L 156.924097 651.111827 
L 152.521835 651.899284 
z
" clip-path="url(#p84a440c29d)" style="stroke: #000000; stroke-width: 1.5; stroke-linecap: round"/>
   </g>
   <g id="patch_5">
    <path d="M 200.443156 686.068463 
Q 200.795947 686.538323 200.141784 685.667085 
" clip-path="url(#p84a440c29d)" style="fill: none; stroke: #000000; stroke-width: 1.5; stroke-linecap: round"/>
    <path d="M 199.339411 681.267517 
L 200.141784 685.667085 
L 196.140706 683.669243 
z
" clip-path="url(#p84a440c29d)" style="stroke: #000000; stroke-width: 1.5; stroke-linecap: round"/>
   </g>
   <g id="patch_6">
    <path d="M 235.066871 677.232329 
Q 236.132459 679.125245 236.375372 679.556756 
" clip-path="url(#p84a440c29d)" style="fill: none; stroke: #000000; stroke-width: 1.5; stroke-linecap: round"/>
    <path d="M 236.156003 675.090003 
L 236.375372 679.556756 
L 232.670348 677.0522 
z
" clip-path="url(#p84a440c29d)" style="stroke: #000000; stroke-width: 1.5; stroke-linecap: round"/>
   </g>
   <g id="patch_7">
    <path d="M 269.618984 670.409747 
Q 269.994368 671.212354 269.659255 670.495852 
" clip-path="url(#p84a440c29d)" style="fill: none; stroke: #000000; stroke-width: 1.5; stroke-linecap: round"/>
    <path d="M 269.776265 666.025247 
L 269.659255 670.495852 
L 266.152977 667.719881 
z
" clip-path="url(#p84a440c29d)" style="stroke: #000000; stroke-width: 1.5; stroke-linecap: round"/>
   </g>
   <g id="patch_8">
    <path d="M 299.061021 680.008957 
Q 299.444679 680.807455 299.102042 680.094333 
" clip-path="url(#p84a440c29d)" style="fill: none; stroke: #000000; stroke-width: 1.5; stroke-linecap: round"/>
    <path d="M 299.172439 675.622752 
L 299.102042 680.094333 
L 295.567015 677.355067 
z
" clip-path="url(#p84a440c29d)" style="stroke: #000000; stroke-width: 1.5; stroke-linecap: round"/>
   </g>
   <g id="patch_9">
    <path d="M 340.472082 673.885463 
Q 341.406325 675.031244 341.280781 674.877274 
" clip-path="url(#p84a440c29d)" style="fill: none; stroke: #000000; stroke-width: 1.5; stroke-linecap: round"/>
    <path d="M 340.303088 670.513317 
L 341.280781 674.877274 
L 337.203 673.041055 
z
" clip-path="url(#p84a440c29d)" style="stroke: #000000; stroke-width: 1.5; stroke-linecap: round"/>
   </g>
   <g id="patch_10">
    <path d="M 379.419312 662.135106 
Q 380.813365 663.539896 381.026122 663.754291 
" clip-path="url(#p84a440c29d)" style="fill: none; stroke: #000000; stroke-width: 1.5; stroke-linecap: round"/>
    <path d="M 379.628194 659.506257 
L 381.026122 663.754291 
L 376.788937 662.323814 
z
" clip-path="url(#p84a440c29d)" style="stroke: #000000; stroke-width: 1.5; stroke-linecap: round"/>
   </g>
   <g id="patch_11">
    <path d="M 240.487559 609.27097 
Q 244.355314 609.974198 246.573068 610.377426 
" clip-path="url(#p84a440c29d)" style="fill: none; stroke: #000000; stroke-width: 1.5; stroke-linecap: round"/>
    <path d="M 242.995359 607.694145 
L 246.573068 610.377426 
L 242.279818 611.629625 
z
" clip-path="url(#p84a440c29d)" style="stroke: #000000; stroke-width: 1.5; stroke-linecap: round"/>
   </g>
   <g id="patch_12">
    <path d="M 551.278561 718.34767 
Q 551.666061 718.136158 550.581524 718.728141 
" clip-path="url(#p84a440c29d)" style="fill: none; stroke: #000000; stroke-width: 1.5; stroke-linecap: round"/>
    <path d="M 546.112285 718.889083 
L 550.581524 718.728141 
L 548.028734 722.400097 
z
" clip-path="url(#p84a440c29d)" style="stroke: #000000; stroke-width: 1.5; stroke-linecap: round"/>
   </g>
   <g id="patch_13">
    <path d="M 524.198669 600.352142 
Q 527.890036 600.447628 529.904914 600.499748 
" clip-path="url(#p84a440c29d)" style="fill: none; stroke: #000000; stroke-width: 1.5; stroke-linecap: round"/>
    <path d="M 525.957968 598.396982 
L 529.904914 600.499748 
L 525.854534 602.395644 
z
" clip-path="url(#p84a440c29d)" style="stroke: #000000; stroke-width: 1.5; stroke-linecap: round"/>
   </g>
   <g id="patch_14">
    <path d="M 659.715557 601.671509 
Q 660.796606 601.781439 660.209208 601.721707 
" clip-path="url(#p84a440c29d)" style="fill: none; stroke: #000000; stroke-width: 1.5; stroke-linecap: round"/>
    <path d="M 656.432061 599.327305 
L 660.209208 601.721707 
L 656.027397 603.306783 
z
" clip-path="url(#p84a440c29d)" style="stroke: #000000; stroke-width: 1.5; stroke-linecap: round"/>
   </g>
   <g id="patch_15">
    <path d="M 259.898293 555.424738 
Q 263.566406 556.58743 265.635857 557.243389 
" clip-path="url(#p84a440c29d)" style="fill: none; stroke: #000000; stroke-width: 1.5; stroke-linecap: round"/>
    <path d="M 262.427138 554.128245 
L 265.635857 557.243389 
L 261.218511 557.941278 
z
" clip-path="url(#p84a440c29d)" style="stroke: #000000; stroke-width: 1.5; stroke-linecap: round"/>
   </g>
   <g id="patch_16">
    <path d="M 633.501858 551.489609 
Q 637.354611 550.575213 639.575641 550.048084 
" clip-path="url(#p84a440c29d)" style="fill: none; stroke: #000000; stroke-width: 1.5; stroke-linecap: round"/>
    <path d="M 635.221909 549.025823 
L 639.575641 550.048084 
L 636.145593 552.917713 
z
" clip-path="url(#p84a440c29d)" style="stroke: #000000; stroke-width: 1.5; stroke-linecap: round"/>
   </g>
   <g id="patch_17">
    <path d="M 677.871203 514.981678 
Q 681.55626 513.427591 683.69606 512.52518 
" clip-path="url(#p84a440c29d)" style="fill: none; stroke: #000000; stroke-width: 1.5; stroke-linecap: round"/>
    <path d="M 679.233239 512.236692 
L 683.69606 512.52518 
L 680.787577 515.922344 
z
" clip-path="url(#p84a440c29d)" style="stroke: #000000; stroke-width: 1.5; stroke-linecap: round"/>
   </g>
   <g id="patch_18">
    <path d="M 374.834651 535.08352 
Q 378.783412 535.583985 381.068432 535.873588 
" clip-path="url(#p84a440c29d)" style="fill: none; stroke: #000000; stroke-width: 1.5; stroke-linecap: round"/>
    <path d="M 377.351644 533.386524 
L 381.068432 535.873588 
L 376.848708 537.35478 
z
" clip-path="url(#p84a440c29d)" style="stroke: #000000; stroke-width: 1.5; stroke-linecap: round"/>
   </g>
   <g id="patch_19">
    <path d="M 321.932118 437.196206 
Q 322.615966 438.094318 322.283851 437.658144 
" clip-path="url(#p84a440c29d)" style="fill: none; stroke: #000000; stroke-width: 1.5; stroke-linecap: round"/>
    <path d="M 321.451866 433.26408 
L 322.283851 437.658144 
L 318.269409 435.687293 
z
" clip-path="url(#p84a440c29d)" style="stroke: #000000; stroke-width: 1.5; stroke-linecap: round"/>
   </g>
   <g id="patch_20">
    <path d="M 678.664547 416.783144 
Q 682.245397 415.113435 684.306312 414.152455 
" clip-path="url(#p84a440c29d)" style="fill: none; stroke: #000000; stroke-width: 1.5; stroke-linecap: round"/>
    <path d="M 679.835846 414.030241 
L 684.306312 414.152455 
L 681.526261 417.6555 
z
" clip-path="url(#p84a440c29d)" style="stroke: #000000; stroke-width: 1.5; stroke-linecap: round"/>
   </g>
   <g id="patch_21">
    <path d="M 311.455908 332.921048 
Q 314.617901 335.329205 316.445715 336.721258 
" clip-path="url(#p84a440c29d)" style="fill: none; stroke: #000000; stroke-width: 1.5; stroke-linecap: round"/>
    <path d="M 314.475287 332.706608 
L 316.445715 336.721258 
L 312.051738 335.888811 
z
" clip-path="url(#p84a440c29d)" style="stroke: #000000; stroke-width: 1.5; stroke-linecap: round"/>
   </g>
   <g id="patch_22">
    <path d="M 659.440746 357.409985 
Q 662.894316 355.431318 664.892741 354.286351 
" clip-path="url(#p84a440c29d)" style="fill: none; stroke: #000000; stroke-width: 1.5; stroke-linecap: round"/>
    <path d="M 660.427775 354.539485 
L 664.892741 354.286351 
L 662.416269 358.010205 
z
" clip-path="url(#p84a440c29d)" style="stroke: #000000; stroke-width: 1.5; stroke-linecap: round"/>
   </g>
   <g id="patch_23">
    <path d="M 587.431035 357.849973 
Q 588.917929 356.616825 589.113948 356.454257 
" clip-path="url(#p84a440c29d)" style="fill: none; stroke: #000000; stroke-width: 1.5; stroke-linecap: round"/>
    <path d="M 584.758291 357.468283 
L 589.113948 356.454257 
L 587.311775 360.547198 
z
" clip-path="url(#p84a440c29d)" style="stroke: #000000; stroke-width: 1.5; stroke-linecap: round"/>
   </g>
   <g id="patch_24">
    <path d="M 626.316241 288.668031 
Q 628.112762 287.155506 628.626371 286.723089 
" clip-path="url(#p84a440c29d)" style="fill: none; stroke: #000000; stroke-width: 1.5; stroke-linecap: round"/>
    <path d="M 624.27834 287.769336 
L 628.626371 286.723089 
L 626.854549 290.829262 
z
" clip-path="url(#p84a440c29d)" style="stroke: #000000; stroke-width: 1.5; stroke-linecap: round"/>
   </g>
   <g id="patch_25">
    <path d="M 595.551454 277.913585 
Q 598.622163 275.768982 600.317949 274.584634 
" clip-path="url(#p84a440c29d)" style="fill: none; stroke: #000000; stroke-width: 1.5; stroke-linecap: round"/>
    <path d="M 595.893398 275.235284 
L 600.317949 274.584634 
L 598.183739 278.514665 
z
" clip-path="url(#p84a440c29d)" style="stroke: #000000; stroke-width: 1.5; stroke-linecap: round"/>
   </g>
   <g id="patch_26">
    <path d="M 510.339095 332.082203 
Q 512.62469 328.955322 513.920637 327.182361 
" clip-path="url(#p84a440c29d)" style="fill: none; stroke: #000000; stroke-width: 1.5; stroke-linecap: round"/>
    <path d="M 509.945546 329.231422 
L 513.920637 327.182361 
L 513.174832 331.59187 
z
" clip-path="url(#p84a440c29d)" style="stroke: #000000; stroke-width: 1.5; stroke-linecap: round"/>
   </g>
   <g id="patch_27">
    <path d="M 324.414709 277.803546 
Q 325.980045 278.227738 325.926712 278.213285 
" clip-path="url(#p84a440c29d)" style="fill: none; stroke: #000000; stroke-width: 1.5; stroke-linecap: round"/>
    <path d="M 322.589074 275.236681 
L 325.926712 278.213285 
L 321.542846 279.097433 
z
" clip-path="url(#p84a440c29d)" style="stroke: #000000; stroke-width: 1.5; stroke-linecap: round"/>
   </g>
   <g id="patch_28">
    <path d="M 624.067728 144.896319 
Q 624.114322 144.77481 623.560468 146.219175 
" clip-path="url(#p84a440c29d)" style="fill: none; stroke: #000000; stroke-width: 1.5; stroke-linecap: round"/>
    <path d="M 620.260903 149.237929 
L 623.560468 146.219175 
L 623.995732 150.670079 
z
" clip-path="url(#p84a440c29d)" style="stroke: #000000; stroke-width: 1.5; stroke-linecap: round"/>
   </g>
   <g id="patch_29">
    <path d="M 597.417942 68.061323 
Q 597.730551 67.799091 596.758306 68.614657 
" clip-path="url(#p84a440c29d)" style="fill: none; stroke: #000000; stroke-width: 1.5; stroke-linecap: round"/>
    <path d="M 592.4084 69.653077 
L 596.758306 68.614657 
L 594.979098 72.717634 
z
" clip-path="url(#p84a440c29d)" style="stroke: #000000; stroke-width: 1.5; stroke-linecap: round"/>
   </g>
   <g id="patch_30">
    <path d="M 674.120468 50.695695 
Q 678.109172 50.783479 680.421231 50.834364 
" clip-path="url(#p84a440c29d)" style="fill: none; stroke: #000000; stroke-width: 1.5; stroke-linecap: round"/>
    <path d="M 676.466205 48.746836 
L 680.421231 50.834364 
L 676.378193 52.745868 
z
" clip-path="url(#p84a440c29d)" style="stroke: #000000; stroke-width: 1.5; stroke-linecap: round"/>
   </g>
   <g id="patch_31">
    <path d="M 589.062655 23.765113 
Q 589.627658 23.601711 588.58163 23.904227 
" clip-path="url(#p84a440c29d)" style="fill: none; stroke: #000000; stroke-width: 1.5; stroke-linecap: round"/>
    <path d="M 584.183458 23.094238 
L 588.58163 23.904227 
L 585.294736 26.936771 
z
" clip-path="url(#p84a440c29d)" style="stroke: #000000; stroke-width: 1.5; stroke-linecap: round"/>
   </g>
   <g id="patch_32">
    <path d="M 658.536647 5.902483 
Q 661.226209 5.848372 662.239059 5.827995 
" clip-path="url(#p84a440c29d)" style="fill: none; stroke: #000000; stroke-width: 1.5; stroke-linecap: round"/>
    <path d="M 658.199638 3.908859 
L 662.239059 5.827995 
L 658.280098 7.908049 
z
" clip-path="url(#p84a440c29d)" style="stroke: #000000; stroke-width: 1.5; stroke-linecap: round"/>
   </g>
   <g id="patch_33">
    <path d="M 541.390601 116.404316 
Q 541.54272 114.873094 541.529048 115.010709 
" clip-path="url(#p84a440c29d)" style="fill: none; stroke: #000000; stroke-width: 1.5; stroke-linecap: round"/>
    <path d="M 539.143413 118.793399 
L 541.529048 115.010709 
L 543.123819 119.188831 
z
" clip-path="url(#p84a440c29d)" style="stroke: #000000; stroke-width: 1.5; stroke-linecap: round"/>
   </g>
   <g id="patch_34">
    <path d="M 522.758113 88.417099 
Q 522.588711 85.079059 522.504308 83.415915 
" clip-path="url(#p84a440c29d)" style="fill: none; stroke: #000000; stroke-width: 1.5; stroke-linecap: round"/>
    <path d="M 520.709614 87.512142 
L 522.504308 83.415915 
L 524.704473 87.309406 
z
" clip-path="url(#p84a440c29d)" style="stroke: #000000; stroke-width: 1.5; stroke-linecap: round"/>
   </g>
   <g id="patch_35">
    <path d="M 504.204247 54.788739 
Q 503.336487 50.907068 502.834606 48.662049 
" clip-path="url(#p84a440c29d)" style="fill: none; stroke: #000000; stroke-width: 1.5; stroke-linecap: round"/>
    <path d="M 501.755456 53.00203 
L 502.834606 48.662049 
L 505.659101 52.129358 
z
" clip-path="url(#p84a440c29d)" style="stroke: #000000; stroke-width: 1.5; stroke-linecap: round"/>
   </g>
   <g id="patch_36">
    <path d="M 400.47724 50.276072 
Q 400.246229 50.893402 400.602982 49.940052 
" clip-path="url(#p84a440c29d)" style="fill: none; stroke: #000000; stroke-width: 1.5; stroke-linecap: round"/>
    <path d="M 403.878025 46.894713 
L 400.602982 49.940052 
L 400.131736 45.492814 
z
" clip-path="url(#p84a440c29d)" style="stroke: #000000; stroke-width: 1.5; stroke-linecap: round"/>
   </g>
   <g id="patch_37">
    <path d="M 374.544623 63.511367 
Q 375.097516 66.536775 375.348921 67.912453 
" clip-path="url(#p84a440c29d)" style="fill: none; stroke: #000000; stroke-width: 1.5; stroke-linecap: round"/>
    <path d="M 376.597247 63.618075 
L 375.348921 67.912453 
L 372.662414 64.337166 
z
" clip-path="url(#p84a440c29d)" style="stroke: #000000; stroke-width: 1.5; stroke-linecap: round"/>
   </g>
   <g id="patch_38">
    <path d="M 346.150442 26.719823 
Q 346.550225 28.022386 346.457942 27.721712 
" clip-path="url(#p84a440c29d)" style="fill: none; stroke: #000000; stroke-width: 1.5; stroke-linecap: round"/>
    <path d="M 347.196268 23.310944 
L 346.457942 27.721712 
L 343.372323 24.48459 
z
" clip-path="url(#p84a440c29d)" style="stroke: #000000; stroke-width: 1.5; stroke-linecap: round"/>
   </g>
   <g id="patch_39">
    <path d="M 380.481012 176.448272 
Q 381.403426 177.095023 380.952689 176.778989 
" clip-path="url(#p84a440c29d)" style="fill: none; stroke: #000000; stroke-width: 1.5; stroke-linecap: round"/>
    <path d="M 378.825723 172.845032 
L 380.952689 176.778989 
L 376.529344 176.120188 
z
" clip-path="url(#p84a440c29d)" style="stroke: #000000; stroke-width: 1.5; stroke-linecap: round"/>
   </g>
   <g id="patch_40">
    <path d="M 266.51653 18.463898 
Q 269.41885 21.202697 271.101454 22.7905 
" clip-path="url(#p84a440c29d)" style="fill: none; stroke: #000000; stroke-width: 1.5; stroke-linecap: round"/>
    <path d="M 269.564903 18.590618 
L 271.101454 22.7905 
L 266.819617 21.499812 
z
" clip-path="url(#p84a440c29d)" style="stroke: #000000; stroke-width: 1.5; stroke-linecap: round"/>
   </g>
   <g id="patch_41">
    <path d="M 303.262417 131.042611 
Q 305.066457 134.601944 306.112314 136.665397 
" clip-path="url(#p84a440c29d)" style="fill: none; stroke: #000000; stroke-width: 1.5; stroke-linecap: round"/>
    <path d="M 306.087881 132.193328 
L 306.112314 136.665397 
L 302.519999 134.001701 
z
" clip-path="url(#p84a440c29d)" style="stroke: #000000; stroke-width: 1.5; stroke-linecap: round"/>
   </g>
   <g id="patch_42">
    <path d="M 206.519094 37.700279 
Q 209.162322 40.688975 210.694526 42.421437 
" clip-path="url(#p84a440c29d)" style="fill: none; stroke: #000000; stroke-width: 1.5; stroke-linecap: round"/>
    <path d="M 209.542726 38.100169 
L 210.694526 42.421437 
L 206.546431 40.750117 
z
" clip-path="url(#p84a440c29d)" style="stroke: #000000; stroke-width: 1.5; stroke-linecap: round"/>
   </g>
   <g id="patch_43">
    <path d="M 182.645003 36.880619 
Q 185.174071 39.969588 186.640732 41.760947 
" clip-path="url(#p84a440c29d)" style="fill: none; stroke: #000000; stroke-width: 1.5; stroke-linecap: round"/>
    <path d="M 185.654233 37.398973 
L 186.640732 41.760947 
L 182.559253 39.932963 
z
" clip-path="url(#p84a440c29d)" style="stroke: #000000; stroke-width: 1.5; stroke-linecap: round"/>
   </g>
   <g id="patch_44">
    <path d="M 158.980407 35.772205 
Q 161.674373 38.716573 163.236264 40.423642 
" clip-path="url(#p84a440c29d)" style="fill: none; stroke: #000000; stroke-width: 1.5; stroke-linecap: round"/>
    <path d="M 162.011677 36.122435 
L 163.236264 40.423642 
L 159.060546 38.822588 
z
" clip-path="url(#p84a440c29d)" style="stroke: #000000; stroke-width: 1.5; stroke-linecap: round"/>
   </g>
   <g id="patch_45">
    <path d="M 74.800606 6.535316 
Q 77.187613 7.41902 78.001888 7.720477 
" clip-path="url(#p84a440c29d)" style="fill: none; stroke: #000000; stroke-width: 1.5; stroke-linecap: round"/>
    <path d="M 74.945074 4.456141 
L 78.001888 7.720477 
L 73.55633 8.207326 
z
" clip-path="url(#p84a440c29d)" style="stroke: #000000; stroke-width: 1.5; stroke-linecap: round"/>
   </g>
   <g id="patch_46">
    <path d="M 48.296393 111.175696 
Q 52.224686 111.653352 54.48819 111.92858 
" clip-path="url(#p84a440c29d)" style="fill: none; stroke: #000000; stroke-width: 1.5; stroke-linecap: round"/>
    <path d="M 50.758845 109.460384 
L 54.48819 111.92858 
L 50.276026 113.431138 
z
" clip-path="url(#p84a440c29d)" style="stroke: #000000; stroke-width: 1.5; stroke-linecap: round"/>
   </g>
   <g id="patch_47">
    <path d="M 267.459382 331.119012 
Q 270.476123 333.719981 272.222717 335.225856 
" clip-path="url(#p84a440c29d)" style="fill: none; stroke: #000000; stroke-width: 1.5; stroke-linecap: round"/>
    <path d="M 270.499215 331.09917 
L 272.222717 335.225856 
L 267.887267 334.128646 
z
" clip-path="url(#p84a440c29d)" style="stroke: #000000; stroke-width: 1.5; stroke-linecap: round"/>
   </g>
   <g id="patch_48">
    <path d="M 43.351444 486.012238 
Q 43.346087 486.152172 43.404885 484.616282 
" clip-path="url(#p84a440c29d)" style="fill: none; stroke: #000000; stroke-width: 1.5; stroke-linecap: round"/>
    <path d="M 45.55644 480.695719 
L 43.404885 484.616282 
L 41.559368 480.542701 
z
" clip-path="url(#p84a440c29d)" style="stroke: #000000; stroke-width: 1.5; stroke-linecap: round"/>
   </g>
   <g id="patch_49">
    <path d="M 28.770312 338.693986 
Q 30.088676 341.15911 30.616145 342.145389 
" clip-path="url(#p84a440c29d)" style="fill: none; stroke: #000000; stroke-width: 1.5; stroke-linecap: round"/>
    <path d="M 30.493374 337.674938 
L 30.616145 342.145389 
L 26.966122 339.561335 
z
" clip-path="url(#p84a440c29d)" style="stroke: #000000; stroke-width: 1.5; stroke-linecap: round"/>
   </g>
   <g id="patch_50">
    <path d="M 12.197649 376.588669 
Q 12.191129 377.837946 12.193362 377.410194 
" clip-path="url(#p84a440c29d)" style="fill: none; stroke: #000000; stroke-width: 1.5; stroke-linecap: round"/>
    <path d="M 14.214209 373.420686 
L 12.193362 377.410194 
L 10.214264 373.399811 
z
" clip-path="url(#p84a440c29d)" style="stroke: #000000; stroke-width: 1.5; stroke-linecap: round"/>
   </g>
   <g id="patch_51">
    <path d="M 68.249013 549.627617 
Q 71.854366 551.315462 73.940868 552.292258 
" clip-path="url(#p84a440c29d)" style="fill: none; stroke: #000000; stroke-width: 1.5; stroke-linecap: round"/>
    <path d="M 71.166173 548.78497 
L 73.940868 552.292258 
L 69.47022 552.407641 
z
" clip-path="url(#p84a440c29d)" style="stroke: #000000; stroke-width: 1.5; stroke-linecap: round"/>
   </g>
   <g id="patch_52">
    <path d="M 41.677734 610.039394 
Q 42.930641 610.302413 42.542272 610.220884 
" clip-path="url(#p84a440c29d)" style="fill: none; stroke: #000000; stroke-width: 1.5; stroke-linecap: round"/>
    <path d="M 39.038499 607.441753 
L 42.542272 610.220884 
L 38.216703 611.356424 
z
" clip-path="url(#p84a440c29d)" style="stroke: #000000; stroke-width: 1.5; stroke-linecap: round"/>
   </g>
   <g id="patch_53">
    <path d="M 94.93067 703.182115 
Q 91.216243 701.727127 89.063341 700.883809 
" clip-path="url(#p84a440c29d)" style="fill: none; stroke: #000000; stroke-width: 1.5; stroke-linecap: round"/>
    <path d="M 92.058338 704.204952 
L 89.063341 700.883809 
L 93.517253 700.480497 
z
" clip-path="url(#p84a440c29d)" style="stroke: #000000; stroke-width: 1.5; stroke-linecap: round"/>
   </g>
   <g id="patch_54">
    <path d="M 498.255496 696.216172 
Q 501.64621 698.293378 503.606885 699.494519 
" clip-path="url(#p84a440c29d)" style="fill: none; stroke: #000000; stroke-width: 1.5; stroke-linecap: round"/>
    <path d="M 501.240812 695.699562 
L 503.606885 699.494519 
L 499.151276 699.110403 
z
" clip-path="url(#p84a440c29d)" style="stroke: #000000; stroke-width: 1.5; stroke-linecap: round"/>
   </g>
   <g id="patch_55">
    <path d="M 481.911511 655.512142 
Q 483.188282 656.372741 483.074415 656.29599 
" clip-path="url(#p84a440c29d)" style="fill: none; stroke: #000000; stroke-width: 1.5; stroke-linecap: round"/>
    <path d="M 480.875407 652.401845 
L 483.074415 656.29599 
L 478.639694 655.71871 
z
" clip-path="url(#p84a440c29d)" style="stroke: #000000; stroke-width: 1.5; stroke-linecap: round"/>
   </g>
   <g id="patch_56">
    <path d="M 573.128821 685.204043 
Q 573.889729 685.303255 572.987662 685.185638 
" clip-path="url(#p84a440c29d)" style="fill: none; stroke: #000000; stroke-width: 1.5; stroke-linecap: round"/>
    <path d="M 569.279817 682.685262 
L 572.987662 685.185638 
L 568.762654 686.651689 
z
" clip-path="url(#p84a440c29d)" style="stroke: #000000; stroke-width: 1.5; stroke-linecap: round"/>
   </g>
   <g id="patch_57">
    <path d="M 626.763646 693.898794 
Q 626.713386 693.909333 628.304482 693.575705 
" clip-path="url(#p84a440c29d)" style="fill: none; stroke: #000000; stroke-width: 1.5; stroke-linecap: round"/>
    <path d="M 632.629787 694.712252 
L 628.304482 693.575705 
L 631.808902 690.79739 
z
" clip-path="url(#p84a440c29d)" style="stroke: #000000; stroke-width: 1.5; stroke-linecap: round"/>
   </g>
   <g id="patch_58">
    <path d="M 436.262899 236.134845 
Q 436.649893 235.943675 435.533288 236.495263 
" clip-path="url(#p84a440c29d)" style="fill: none; stroke: #000000; stroke-width: 1.5; stroke-linecap: round"/>
    <path d="M 431.061204 236.473695 
L 435.533288 236.495263 
L 432.832784 240.059989 
z
" clip-path="url(#p84a440c29d)" style="stroke: #000000; stroke-width: 1.5; stroke-linecap: round"/>
   </g>
   <g id="patch_59">
    <path d="M 249.757048 26.170362 
Q 252.71877 28.855324 254.438008 30.413906 
" clip-path="url(#p84a440c29d)" style="fill: none; stroke: #000000; stroke-width: 1.5; stroke-linecap: round"/>
    <path d="M 252.817795 26.245583 
L 254.438008 30.413906 
L 250.131222 29.209082 
z
" clip-path="url(#p84a440c29d)" style="stroke: #000000; stroke-width: 1.5; stroke-linecap: round"/>
   </g>
   <g id="patch_60">
    <path d="M 88.651298 199.813058 
Q 90.603644 201.018953 91.12917 201.343552 
" clip-path="url(#p84a440c29d)" style="fill: none; stroke: #000000; stroke-width: 1.5; stroke-linecap: round"/>
    <path d="M 88.777012 197.539955 
L 91.12917 201.343552 
L 86.674998 200.94312 
z
" clip-path="url(#p84a440c29d)" style="stroke: #000000; stroke-width: 1.5; stroke-linecap: round"/>
   </g>
   <g id="patch_61">
    <path d="M 20.532986 409.971905 
Q 19.181339 413.71684 18.399035 415.884326 
" clip-path="url(#p84a440c29d)" style="fill: none; stroke: #000000; stroke-width: 1.5; stroke-linecap: round"/>
    <path d="M 21.638218 412.800871 
L 18.399035 415.884326 
L 17.875781 411.442906 
z
" clip-path="url(#p84a440c29d)" style="stroke: #000000; stroke-width: 1.5; stroke-linecap: round"/>
   </g>
   <g id="patch_62">
    <path d="M 65.964137 657.244787 
Q 65.872113 657.043185 66.47648 658.36721 
" clip-path="url(#p84a440c29d)" style="fill: none; stroke: #000000; stroke-width: 1.5; stroke-linecap: round"/>
    <path d="M 66.318049 662.836539 
L 66.47648 658.36721 
L 69.956884 661.175552 
z
" clip-path="url(#p84a440c29d)" style="stroke: #000000; stroke-width: 1.5; stroke-linecap: round"/>
   </g>
   <g id="patch_63">
    <path d="M 540.891273 646.296758 
Q 542.375696 646.934016 542.319071 646.909707 
" clip-path="url(#p84a440c29d)" style="fill: none; stroke: #000000; stroke-width: 1.5; stroke-linecap: round"/>
    <path d="M 539.432422 643.493971 
L 542.319071 646.909707 
L 537.854493 647.169585 
z
" clip-path="url(#p84a440c29d)" style="stroke: #000000; stroke-width: 1.5; stroke-linecap: round"/>
   </g>
   <g id="patch_64">
    <path d="M 31.782916 38.01663 
Q 35.280487 38.84481 37.146132 39.286571 
" clip-path="url(#p84a440c29d)" style="fill: none; stroke: #000000; stroke-width: 1.5; stroke-linecap: round"/>
    <path d="M 33.714595 36.418723 
L 37.146132 39.286571 
L 32.792932 40.311093 
z
" clip-path="url(#p84a440c29d)" style="stroke: #000000; stroke-width: 1.5; stroke-linecap: round"/>
   </g>
   <g id="patch_65">
    <path d="M 95.996616 285.633142 
Q 99.872858 286.303408 102.096573 286.687925 
" clip-path="url(#p84a440c29d)" style="fill: none; stroke: #000000; stroke-width: 1.5; stroke-linecap: round"/>
    <path d="M 98.49584 284.03562 
L 102.096573 286.687925 
L 97.814289 287.977128 
z
" clip-path="url(#p84a440c29d)" style="stroke: #000000; stroke-width: 1.5; stroke-linecap: round"/>
   </g>
   <g id="patch_66">
    <path d="M 583.425519 636.188939 
Q 585.334278 637.620645 585.901443 638.046059 
" clip-path="url(#p84a440c29d)" style="fill: none; stroke: #000000; stroke-width: 1.5; stroke-linecap: round"/>
    <path d="M 583.901626 634.045968 
L 585.901443 638.046059 
L 581.50148 637.245858 
z
" clip-path="url(#p84a440c29d)" style="stroke: #000000; stroke-width: 1.5; stroke-linecap: round"/>
   </g>
   <g id="patch_67">
    <path d="M 669.54401 461.789962 
Q 673.20992 460.189935 675.338803 459.260761 
" clip-path="url(#p84a440c29d)" style="fill: none; stroke: #000000; stroke-width: 1.5; stroke-linecap: round"/>
    <path d="M 670.872737 459.027825 
L 675.338803 459.260761 
L 672.472815 462.693852 
z
" clip-path="url(#p84a440c29d)" style="stroke: #000000; stroke-width: 1.5; stroke-linecap: round"/>
   </g>
   <g id="patch_68">
    <path d="M 75.121592 448.054791 
Q 75.013936 450.107135 74.994129 450.48473 
" clip-path="url(#p84a440c29d)" style="fill: none; stroke: #000000; stroke-width: 1.5; stroke-linecap: round"/>
    <path d="M 77.200916 446.594988 
L 74.994129 450.48473 
L 73.206408 446.385456 
z
" clip-path="url(#p84a440c29d)" style="stroke: #000000; stroke-width: 1.5; stroke-linecap: round"/>
   </g>
   <g id="patch_69">
    <path d="M 32.419259 552.584219 
Q 36.112987 554.099584 38.255158 554.978417 
" clip-path="url(#p84a440c29d)" style="fill: none; stroke: #000000; stroke-width: 1.5; stroke-linecap: round"/>
    <path d="M 35.313588 551.609862 
L 38.255158 554.978417 
L 33.795371 555.31054 
z
" clip-path="url(#p84a440c29d)" style="stroke: #000000; stroke-width: 1.5; stroke-linecap: round"/>
   </g>
   <g id="patch_70">
    <path d="M 334.159785 122.648591 
Q 335.847973 126.262451 336.826367 128.356872 
" clip-path="url(#p84a440c29d)" style="fill: none; stroke: #000000; stroke-width: 1.5; stroke-linecap: round"/>
    <path d="M 336.945445 123.886322 
L 336.826367 128.356872 
L 333.321373 125.57928 
z
" clip-path="url(#p84a440c29d)" style="stroke: #000000; stroke-width: 1.5; stroke-linecap: round"/>
   </g>
   <g id="patch_71">
    <path d="M 118.4994 462.442413 
Q 119.262481 466.344813 119.703724 468.601334 
" clip-path="url(#p84a440c29d)" style="fill: none; stroke: #000000; stroke-width: 1.5; stroke-linecap: round"/>
    <path d="M 120.898922 464.291867 
L 119.703724 468.601334 
L 116.97327 465.059495 
z
" clip-path="url(#p84a440c29d)" style="stroke: #000000; stroke-width: 1.5; stroke-linecap: round"/>
   </g>
   <g id="patch_72">
    <path d="M 97.828328 434.747831 
Q 97.891839 438.745871 97.928713 441.067072 
" clip-path="url(#p84a440c29d)" style="fill: none; stroke: #000000; stroke-width: 1.5; stroke-linecap: round"/>
    <path d="M 99.864926 437.035809 
L 97.928713 441.067072 
L 95.865431 437.099344 
z
" clip-path="url(#p84a440c29d)" style="stroke: #000000; stroke-width: 1.5; stroke-linecap: round"/>
   </g>
   <g id="patch_73">
    <path d="M 278.961052 204.628532 
Q 281.489933 207.703411 282.953548 209.483026 
" clip-path="url(#p84a440c29d)" style="fill: none; stroke: #000000; stroke-width: 1.5; stroke-linecap: round"/>
    <path d="M 281.957429 205.123239 
L 282.953548 209.483026 
L 278.868047 207.664049 
z
" clip-path="url(#p84a440c29d)" style="stroke: #000000; stroke-width: 1.5; stroke-linecap: round"/>
   </g>
   <g id="patch_74">
    <path d="M 389.518081 140.123155 
Q 390.461085 141.202795 390.300858 141.019352 
" clip-path="url(#p84a440c29d)" style="fill: none; stroke: #000000; stroke-width: 1.5; stroke-linecap: round"/>
    <path d="M 389.175812 136.691041 
L 390.300858 141.019352 
L 386.163182 139.322402 
z
" clip-path="url(#p84a440c29d)" style="stroke: #000000; stroke-width: 1.5; stroke-linecap: round"/>
   </g>
   <g id="patch_75">
    <path d="M 236.714524 518.510127 
Q 239.803099 520.986032 241.58316 522.412989 
" clip-path="url(#p84a440c29d)" style="fill: none; stroke: #000000; stroke-width: 1.5; stroke-linecap: round"/>
    <path d="M 239.713117 518.350608 
L 241.58316 522.412989 
L 237.21123 521.471594 
z
" clip-path="url(#p84a440c29d)" style="stroke: #000000; stroke-width: 1.5; stroke-linecap: round"/>
   </g>
   <g id="patch_76">
    <path d="M 311.108399 532.152723 
Q 313.189762 533.207008 313.775057 533.503481 
" clip-path="url(#p84a440c29d)" style="fill: none; stroke: #000000; stroke-width: 1.5; stroke-linecap: round"/>
    <path d="M 311.11047 529.911828 
L 313.775057 533.503481 
L 309.302982 533.480159 
z
" clip-path="url(#p84a440c29d)" style="stroke: #000000; stroke-width: 1.5; stroke-linecap: round"/>
   </g>
   <g id="patch_77">
    <path d="M 181.353955 397.19136 
Q 182.601108 400.925778 183.317032 403.069507 
" clip-path="url(#p84a440c29d)" style="fill: none; stroke: #000000; stroke-width: 1.5; stroke-linecap: round"/>
    <path d="M 183.946984 398.641962 
L 183.317032 403.069507 
L 180.152967 399.909018 
z
" clip-path="url(#p84a440c29d)" style="stroke: #000000; stroke-width: 1.5; stroke-linecap: round"/>
   </g>
   <g id="patch_78">
    <path d="M 420.051211 529.381859 
Q 422.454344 529.453429 423.18117 529.475075 
" clip-path="url(#p84a440c29d)" style="fill: none; stroke: #000000; stroke-width: 1.5; stroke-linecap: round"/>
    <path d="M 419.24248 527.356887 
L 423.18117 529.475075 
L 419.123405 531.355114 
z
" clip-path="url(#p84a440c29d)" style="stroke: #000000; stroke-width: 1.5; stroke-linecap: round"/>
   </g>
   <g id="patch_79">
    <path d="M 476.618632 329.070666 
Q 478.818736 328.114545 479.480753 327.826846 
" clip-path="url(#p84a440c29d)" style="fill: none; stroke: #000000; stroke-width: 1.5; stroke-linecap: round"/>
    <path d="M 475.015061 327.586849 
L 479.480753 327.826846 
L 476.60934 331.255401 
z
" clip-path="url(#p84a440c29d)" style="stroke: #000000; stroke-width: 1.5; stroke-linecap: round"/>
   </g>
   <g id="patch_80">
    <path d="M 435.280868 299.456423 
Q 436.694339 299.238587 436.450327 299.276193 
" clip-path="url(#p84a440c29d)" style="fill: none; stroke: #000000; stroke-width: 1.5; stroke-linecap: round"/>
    <path d="M 432.192367 297.908793 
L 436.450327 299.276193 
L 432.801632 301.86212 
z
" clip-path="url(#p84a440c29d)" style="stroke: #000000; stroke-width: 1.5; stroke-linecap: round"/>
   </g>
   <g id="patch_81">
    <path d="M 270.723062 447.290268 
Q 271.63478 448.695947 271.633914 448.694612 
" clip-path="url(#p84a440c29d)" style="fill: none; stroke: #000000; stroke-width: 1.5; stroke-linecap: round"/>
    <path d="M 271.135237 444.250367 
L 271.633914 448.694612 
L 267.779311 446.427007 
z
" clip-path="url(#p84a440c29d)" style="stroke: #000000; stroke-width: 1.5; stroke-linecap: round"/>
   </g>
   <g id="patch_82">
    <path d="M 469.044596 235.167605 
Q 471.40975 233.140628 472.501512 232.204968 
" clip-path="url(#p84a440c29d)" style="fill: none; stroke: #000000; stroke-width: 1.5; stroke-linecap: round"/>
    <path d="M 468.162824 233.289306 
L 472.501512 232.204968 
L 470.76577 236.326521 
z
" clip-path="url(#p84a440c29d)" style="stroke: #000000; stroke-width: 1.5; stroke-linecap: round"/>
   </g>
   <g id="patch_83">
    <path d="M 349.202684 423.244392 
Q 352.430984 425.591861 354.302915 426.953042 
" clip-path="url(#p84a440c29d)" style="fill: none; stroke: #000000; stroke-width: 1.5; stroke-linecap: round"/>
    <path d="M 352.244004 422.983044 
L 354.302915 426.953042 
L 349.89157 426.218172 
z
" clip-path="url(#p84a440c29d)" style="stroke: #000000; stroke-width: 1.5; stroke-linecap: round"/>
   </g>
   <g id="patch_84">
    <path d="M 401.403601 315.490647 
Q 405.156329 316.810475 407.326998 317.573896 
" clip-path="url(#p84a440c29d)" style="fill: none; stroke: #000000; stroke-width: 1.5; stroke-linecap: round"/>
    <path d="M 404.217122 314.360071 
L 407.326998 317.573896 
L 402.890013 318.133502 
z
" clip-path="url(#p84a440c29d)" style="stroke: #000000; stroke-width: 1.5; stroke-linecap: round"/>
   </g>
   <g id="patch_85">
    <path d="M 0 720 
L 0 720 
L 0 0 
L 720 0 
L 720 720 
L 0 720 
z
" style="fill: none; stroke: #000000; stroke-width: 0.8; stroke-linejoin: miter; stroke-linecap: square"/>
   </g>
  </g>
 </g>
 <defs>
  <clipPath id="p84a440c29d">
   <path d="M 0 720 
L 0 720 
L 0 0 
L 720 0 
L 720 720 
z
"/>
  </clipPath>
 </defs>
</svg>
