<?xml version="1.0" encoding="utf-8" standalone="no"?>
<!DOCTYPE svg PUBLIC "-//W3C//DTD SVG 1.1//EN"
  "http://www.w3.org/Graphics/SVG/1.1/DTD/svg11.dtd">
<svg xmlns:xlink="http://www.w3.org/1999/xlink" width="720pt" height="720pt" viewBox="0 0 720 720" xmlns="http://www.w3.org/2000/svg" version="1.1">
 <metadata>
  <rdf:RDF xmlns:dc="http://purl.org/dc/elements/1.1/" xmlns:cc="http://creativecommons.org/ns#" xmlns:rdf="http://www.w3.org/1999/02/22-rdf-syntax-ns#">
   <cc:Work>
    <dc:type rdf:resource="http://purl.org/dc/dcmitype/StillImage"/>
    <dc:date>2026-03-20T18:58:53.987698</dc:date>
    <dc:format>image/svg+xml</dc:format>
    <dc:creator>
     <cc:Agent>
      <dc:title>Matplotlib v3.10.8, https://matplotlib.org/</dc:title>
     </cc:Agent>
    </dc:creator>
   </cc:Work>
  </rdf:RDF>
 </metadata>
 <defs>
  <style type="text/css">*{stroke-linejoin: round; stroke-linecap: butt}</style>
 </defs>
 <g id="figure_1">
  <g id="patch_1">
   <path d="M 0 720 
L 720 720 
L 720 0 
L 0 0 
L 0 720 
z
" style="fill: none"/>
  </g>
  <g id="axes_1">
   <g id="patch_2">
    <path d="M 0 720 
L 0 720 
L 0 0 
L 720 0 
L 720 720 
L 0 720 
z
" style="fill: none"/>
   </g>
   <g id="LineCollection_1">
    <path d="M 74.482759 720 
L 74.482759 720 
L 52.983269 709.648404 
L 52.983269 709.648404 
L 39.123471 700.400992 
L 27.216519 687.935099 
L 19.523391 675.144483 
L 14.536297 660.022085 
L 13.596641 645.607022 
L 15.478731 632.243385 
L 19.523017 616.548767 
L 26.781117 593.775887 
L 35.120624 571.3609 
L 42.514494 548.719339 
L 49.360751 525.898934 
L 49.360751 525.898934 
L 52.010021 513.902634 
L 52.176993 501.270599 
L 51.697092 488.469814 
L 51.697092 488.469814 
L 53.18912 473.509275 
L 57.340809 458.918371 
L 63.132513 443.595159 
L 70.472722 421.110499 
L 77.642225 398.354545 
L 77.642225 398.354545 
L 85.323082 380.66895 
L 85.323082 380.66895 
L 94.449744 366.865341 
L 106.01828 355.105437 
L 119.685685 345.650209 
L 134.499815 338.134065 
L 155.339771 327.215929 
L 175.787291 315.212363 
L 197.243715 304.585421 
L 197.243715 304.585421 
L 212.950802 295.86773 
L 227.338296 286.636974 
L 247.688813 274.253178 
L 269.176586 263.848462 
L 289.388769 258.15522 
L 307.919578 254.539729 
L 330.623781 248.287536 
L 350.315837 240.260136 
L 372.530732 231.357551 
L 395.546608 224.707081 
L 419.101951 220.350235 
L 419.101951 220.350235 
L 436.097264 219.811996 
L 452.449144 222.107099 
L 471.330172 226.356446 
L 494.346787 231.86376 
L 516.777543 238.986451 
L 538.515007 247.147553 
L 560.724285 256.072854 
L 582.826376 265.220202 
L 605.179322 273.84315 
L 627.634335 282.236773 
L 650.055343 290.479725 
L 672.250106 299.336106 
L 694.064055 309.296556 
L 715.368678 320.239528 
L 720 322.815229 
" clip-path="url(#pd6cef27061)" style="fill: none; stroke: #000000; stroke-width: 1.5"/>
    <path d="M 302.388711 602.183433 
L 302.387833 602.156896 
L 302.387723 602.153434 
L 302.388525 602.177548 
L 302.389482 602.20647 
L 302.389561 602.209016 
L 302.388617 602.180611 
L 302.387641 602.151105 
L 302.38763 602.150591 
L 302.388638 602.180928 
L 302.389709 602.21334 
L 302.389666 602.212208 
L 302.388486 602.176699 
L 302.387419 602.1444 
L 302.387542 602.147917 
L 302.388793 602.185568 
L 302.389978 602.221445 
L 302.389764 602.21521 
L 302.388311 602.171468 
L 302.387165 602.136731 
L 302.387465 602.145578 
L 302.388998 602.191768 
L 302.390289 602.230937 
L 302.389845 602.217824 
L 302.388079 602.164667 
L 302.386869 602.128066 
L 302.387394 602.143791 
L 302.38925 602.199901 
L 302.390629 602.241991 
L 302.38987 602.219805 
L 302.387735 602.156036 
L 302.386466 602.118414 
L 302.387244 602.142848 
L 302.389428 602.21046 
L 302.390805 602.254853 
L 302.389543 602.220932 
L 302.386848 602.145423 
L 302.385342 602.10798 
L 302.386144 602.14336 
L 302.388299 602.224418 
L 302.389032 602.270332 
L 302.386222 602.221686 
L 302.381528 602.133786 
L 302.377834 602.098629 
L 302.37601 602.148359 
L 302.374414 602.246261 
L 302.368846 602.294133 
L 302.355695 602.229587 
L 302.335909 602.132504 
L 302.31165 602.107371 
L 302.282391 602.182567 
L 302.242662 602.311502 
L 302.179194 602.376707 
L 302.07481 602.317855 
L 301.917881 602.249995 
L 301.702502 602.292288 
L 301.41832 602.472188 
L 301.0263 602.744167 
L 301.0263 602.744167 
L 300.193413 602.614432 
L 298.906076 602.842075 
L 297.458887 603.154414 
L 295.748245 603.018623 
L 295.748245 603.018623 
L 293.54565 602.312485 
L 291.545513 601.698555 
L 290.101753 601.410996 
L 289.108626 601.556805 
L 288.26725 602.279863 
L 287.292646 603.899465 
L 285.690608 607.12719 
L 282.943778 612.221439 
L 277.95005 618.738147 
L 277.95005 618.738147 
L 269.371035 626.244669 
L 269.371035 626.244669 
L 258.165975 634.508209 
L 250.346377 640.973005 
L 242.439609 649.874547 
L 237.056982 660.538704 
L 237.056982 660.538704 
L 232.955138 673.1819 
L 227.817082 685.091139 
L 220.47544 694.647099 
L 209.98781 702.310208 
L 209.98781 702.310208 
L 192.517028 709.536561 
L 192.517028 709.536561 
L 172.456405 715.661301 
L 148.965517 720 
L 148.965517 720 
" clip-path="url(#pd6cef27061)" style="fill: none; stroke: #000000; stroke-width: 1.5"/>
    <path d="M 307.99124 610.761523 
L 307.99124 610.761523 
L 308.912572 620.314641 
L 308.453093 630.587048 
L 304.912492 640.399023 
L 304.912492 640.399023 
L 297.349076 653.626565 
L 291.564676 665.18582 
L 291.564676 665.18582 
L 285.260253 678.131646 
L 276.621028 689.315395 
L 276.621028 689.315395 
L 263.420644 700.125536 
L 263.420644 700.125536 
L 248.951015 709.558953 
L 236.891596 715.943016 
L 223.448276 720 
L 223.448276 720 
L 223.448276 720 
" clip-path="url(#pd6cef27061)" style="fill: none; stroke: #000000; stroke-width: 1.5"/>
    <path d="M 319.118127 582.230107 
L 328.196801 581.926822 
L 336.251206 584.370825 
L 342.970882 589.531493 
L 347.880623 597.260906 
L 347.880623 597.260906 
L 352.875758 617.329391 
L 354.391347 635.91976 
L 354.110301 646.11052 
L 351.614513 655.698202 
L 351.614513 655.698202 
L 345.783411 665.150625 
L 345.783411 665.150625 
L 331.857933 681.079732 
L 314.574759 696.256632 
L 294.40613 709.035073 
L 273.103448 720 
L 273.103448 720 
" clip-path="url(#pd6cef27061)" style="fill: none; stroke: #000000; stroke-width: 1.5"/>
    <path d="M 643.919962 386.047931 
L 648.751188 398.123267 
L 650.855432 410.728888 
L 649.988338 423.450143 
L 649.988338 423.450143 
L 644.74557 440.304066 
L 636.371851 455.459849 
L 636.371851 455.459849 
L 621.823767 474.416366 
L 609.6736 487.533703 
L 595.780257 499.422037 
L 595.780257 499.422037 
L 577.334138 512.671232 
L 569.663277 518.451464 
L 560.920477 523.857635 
L 560.920477 523.857635 
L 547.731657 526.276213 
L 537.443792 525.572824 
L 527.40575 522.176834 
L 527.40575 522.176834 
L 515.226489 514.344945 
L 508.118242 507.624607 
L 502.485501 499.462849 
L 502.485501 499.462849 
L 496.29739 488.496633 
L 487.027631 479.752516 
L 487.027631 479.752516 
L 466.790907 468.173683 
L 448.808327 459.857158 
L 434.315543 452.269009 
L 426.129933 446.544203 
L 419.716541 439.754325 
L 416.546779 432.949459 
L 415.955162 426.865339 
L 417.76604 420.162955 
L 417.76604 420.162955 
L 423.583137 409.097127 
L 423.583137 409.097127 
L 431.025238 396.285688 
L 440.550521 384.344868 
L 452.578383 370.415433 
L 462.032642 357.914158 
L 471.49068 348.123636 
L 481.872038 340.380284 
L 493.296426 335.036986 
L 493.296426 335.036986 
L 513.32487 328.771567 
L 532.366219 324.666552 
L 554.721846 323.468928 
L 575.807478 325.805474 
L 595.399518 330.825945 
L 616.507102 340.012784 
L 633.418818 350.582836 
L 647.548957 362.065686 
L 659.022069 374.448823 
L 667.363983 386.753073 
L 673.132164 399.464788 
L 676.212451 412.744099 
L 676.316015 426.772336 
L 672.435664 442.837267 
L 665.455629 457.008228 
L 665.455629 457.008228 
L 651.973472 476.722326 
L 637.914142 496.147144 
L 623.430949 515.232695 
L 613.842639 527.032536 
L 605.318031 535.835769 
L 594.089735 542.724794 
L 580.222137 546.951273 
L 580.222137 546.951273 
L 567.434906 548.496274 
L 553.518281 547.61253 
L 553.518281 547.61253 
L 540.458199 544.877956 
L 525.556943 543.730945 
L 525.556943 543.730945 
L 502.034001 544.805455 
L 480.892194 545.304143 
L 457.255375 546.57355 
L 433.74056 550.408368 
L 413.950763 554.363401 
L 402.377513 556.808681 
L 395.306667 558.863668 
L 390.782339 561.541109 
L 388.908761 564.812607 
L 389.249768 569.694569 
L 389.249768 569.694569 
L 390.909144 578.570945 
L 390.909144 578.570945 
L 390.769468 592.974041 
L 390.769468 592.974041 
L 388.9664 615.337996 
L 388.57121 637.028048 
L 388.104499 647.859214 
L 385.867136 657.613959 
L 380.505403 666.475164 
L 380.505403 666.475164 
L 368.064453 680.154121 
L 368.064453 680.154121 
L 351.038022 697.005441 
L 337.756245 709.050972 
L 322.758621 720 
L 322.758621 720 
L 322.758621 720 
" clip-path="url(#pd6cef27061)" style="fill: none; stroke: #000000; stroke-width: 1.5"/>
    <path d="M 511.144723 560.389958 
L 494.398241 564.120898 
L 476.530772 570.065282 
L 463.620286 576.592074 
L 454.908414 582.455518 
L 449.499544 587.650678 
L 445.393252 594.65075 
L 445.393252 594.65075 
L 439.941425 608.294045 
L 432.797156 618.648759 
L 427.466475 626.991069 
L 424.533306 636.296151 
L 424.533306 636.296151 
L 423.752193 647.699875 
L 421.760709 659.691923 
L 415.984623 671.096023 
L 415.984623 671.096023 
L 404.826445 685.347339 
L 404.826445 685.347339 
L 388.464216 702.336908 
L 372.413793 720 
L 372.413793 720 
" clip-path="url(#pd6cef27061)" style="fill: none; stroke: #000000; stroke-width: 1.5"/>
    <path d="M 716.915224 609.868051 
L 716.915229 609.868041 
L 716.915234 609.868029 
L 716.915241 609.868015 
L 716.915248 609.867997 
L 716.915258 609.867974 
L 716.915268 609.867947 
L 716.91528 609.867912 
L 716.915294 609.86787 
L 716.915308 609.867817 
L 716.915323 609.867752 
L 716.915337 609.86767 
L 716.915347 609.867569 
L 716.915351 609.867443 
L 716.915341 609.867285 
L 716.915308 609.867087 
L 716.915237 609.866838 
L 716.915106 609.866524 
L 716.914879 609.866127 
L 716.914505 609.865623 
L 716.913904 609.864979 
L 716.912958 609.864153 
L 716.911493 609.863088 
L 716.909248 609.861705 
L 716.905836 609.859898 
L 716.900687 609.85752 
L 716.892956 609.854367 
L 716.881397 609.850152 
L 716.864174 609.844472 
L 716.838581 609.836747 
L 716.800632 609.826147 
L 716.744455 609.811458 
L 716.661401 609.790889 
L 716.538716 609.761745 
L 716.357566 609.719887 
L 716.090086 609.658771 
L 715.694953 609.567663 
L 715.110765 609.428085 
L 714.246414 609.206208 
L 712.968659 608.83525 
L 711.093955 608.172039 
L 708.856388 607.211047 
L 706.622657 606.519145 
L 704.159572 606.379422 
L 701.467849 606.882868 
L 697.274161 608.280982 
L 697.274161 608.280982 
L 687.346171 610.909076 
L 687.346171 610.909076 
L 676.116646 611.72323 
L 676.116646 611.72323 
L 660.577201 611.353018 
L 644.109005 610.975311 
L 644.109005 610.975311 
L 624.356672 611.832131 
L 611.932123 612.946712 
L 601.950008 614.923692 
L 594.433049 617.789097 
L 586.364846 622.286552 
L 586.364846 622.286552 
L 578.452948 624.285064 
L 578.452948 624.285064 
L 560.154708 627.16573 
L 544.221801 628.341163 
L 530.453331 629.085141 
L 519.710525 629.053685 
L 512.820876 628.469894 
L 507.547053 628.828526 
L 502.673873 630.611208 
L 498.350275 634.273241 
L 498.350275 634.273241 
L 490.496056 642.640243 
L 481.956491 649.180204 
L 481.956491 649.180204 
L 474.591845 653.339125 
L 467.184802 658.250617 
L 461.99123 664.200525 
L 461.99123 664.200525 
L 449.512288 683.659346 
L 437.663995 702.300829 
L 422.068966 720 
L 422.068966 720 
" clip-path="url(#pd6cef27061)" style="fill: none; stroke: #000000; stroke-width: 1.5"/>
    <path d="M 497.093524 666.898466 
L 484.654113 687.26598 
L 476.155416 698.821678 
L 465.885347 708.061577 
L 465.885347 708.061577 
L 446.896552 720 
L 446.896552 720 
" clip-path="url(#pd6cef27061)" style="fill: none; stroke: #000000; stroke-width: 1.5"/>
    <path d="M 685.205069 634.01715 
L 685.205069 634.01715 
L 665.395172 646.651702 
L 645.962735 660.720548 
L 630.697261 671.551819 
L 615.597959 680.054933 
L 600.067609 685.820022 
L 600.067609 685.820022 
L 577.353232 692.328388 
L 554.60381 699.46626 
L 532.117358 707.398263 
L 515.257994 714.087126 
L 496.551724 720 
L 496.551724 720 
L 496.551724 720 
" clip-path="url(#pd6cef27061)" style="fill: none; stroke: #000000; stroke-width: 1.5"/>
    <path d="M 620.689655 720 
L 620.689655 720 
L 620.689655 720 
L 607.509683 715.259287 
L 594.968144 712.065906 
L 577.083332 709.912838 
L 577.083332 709.912838 
L 563.806156 710.335016 
L 550.249174 713.638736 
L 537.090311 719.024073 
L 534.948645 720 
" clip-path="url(#pd6cef27061)" style="fill: none; stroke: #000000; stroke-width: 1.5"/>
    <path d="M 720 695.172414 
L 720 695.172414 
L 720 695.172414 
L 710.095238 699.922839 
L 701.987888 701.018086 
L 693.491078 698.926393 
L 687.862532 692.30244 
L 687.862532 692.30244 
L 682.88138 689.411793 
L 677.515275 687.829927 
L 668.797495 686.830969 
L 668.797495 686.830969 
L 660.102413 687.717364 
L 651.965871 690.634644 
L 651.965871 690.634644 
L 647.487333 695.039885 
L 647.487333 695.039885 
L 646.782884 695.924614 
L 645.262079 697.086852 
L 641.180247 698.811451 
L 634.618438 700.809947 
L 619.545027 704.428866 
L 619.545027 704.428866 
" clip-path="url(#pd6cef27061)" style="fill: none; stroke: #000000; stroke-width: 1.5"/>
    <path d="M 720 571.034483 
L 720 571.034483 
L 720 571.034483 
L 707.55237 571.018764 
L 694.840887 572.572553 
L 679.576117 574.657292 
L 661.625768 575.287578 
L 638.043589 574.919655 
L 638.043589 574.919655 
L 638.043589 574.919655 
L 626.441787 573.373605 
L 613.988046 569.723991 
L 613.988046 569.723991 
L 602.906656 567.674056 
L 592.029847 567.815924 
L 576.480076 570.344958 
L 560.356734 575.026053 
L 538.70425 583.583813 
L 538.70425 583.583813 
L 530.039292 589.264353 
L 530.039292 589.264353 
L 524.652541 596.616018 
L 524.652541 596.616018 
L 521.484331 601.183733 
L 518.190853 604.22249 
L 513.299359 607.27156 
" clip-path="url(#pd6cef27061)" style="fill: none; stroke: #000000; stroke-width: 1.5"/>
    <path d="M 720 479.018053 
L 711.475271 490.740766 
L 705.582611 498.893467 
L 701.766624 505.868553 
L 700.619318 511.539516 
L 702.030286 517.13938 
L 702.030286 517.13938 
L 708.09738 524.759452 
L 714.272481 531.422683 
L 718.094238 538.28043 
L 720 546.206897 
L 720 546.206897 
L 720 546.206897 
" clip-path="url(#pd6cef27061)" style="fill: none; stroke: #000000; stroke-width: 1.5"/>
    <path d="M 619.696709 320.565247 
L 640.66578 332.150738 
L 660.904194 344.95902 
L 678.278181 357.831032 
L 693.268787 371.368687 
L 703.756155 383.389927 
L 711.930838 395.921926 
L 717.252674 408.45545 
L 720 422.068966 
L 720 422.068966 
L 720 422.068966 
" clip-path="url(#pd6cef27061)" style="fill: none; stroke: #000000; stroke-width: 1.5"/>
    <path d="M 0 319.152593 
L 1.200287 317.235692 
L 14.579691 297.337027 
L 29.549958 278.637117 
L 46.452706 261.890274 
L 60.294336 250.984926 
L 76.324681 241.710324 
L 76.324681 241.710324 
L 98.760679 233.63532 
L 122.160597 228.701624 
L 145.913032 225.717738 
L 169.626179 222.447975 
L 192.004033 218.174912 
L 212.881339 212.46812 
L 234.796802 203.507481 
L 255.797988 192.238702 
L 276.421281 180.153053 
L 297.314192 168.409164 
L 319.113189 158.56328 
L 338.523531 152.192217 
L 361.909222 147.751222 
L 385.788888 146.732977 
L 409.599537 145.768861 
L 425.296984 143.915575 
L 440.982845 143.543569 
L 440.982845 143.543569 
L 440.982845 143.543569 
L 464.637023 146.460554 
L 488.161053 151.037638 
L 511.311469 157.084168 
L 533.726679 165.403665 
L 555.260907 175.859021 
L 575.81058 188.147639 
L 595.248621 202.152395 
L 614.516576 216.370619 
L 634.767824 229.097212 
L 655.978477 240.262442 
L 677.541235 250.768717 
L 698.94544 261.592213 
L 720 273.103448 
L 720 273.103448 
" clip-path="url(#pd6cef27061)" style="fill: none; stroke: #000000; stroke-width: 1.5"/>
    <path d="M 139.261351 208.593646 
L 161.867922 203.961637 
L 184.551932 196.848862 
L 206.317993 187.137794 
L 227.006808 175.228712 
L 246.333068 161.177864 
L 265.537532 146.898953 
L 285.856995 134.460203 
L 307.552046 124.453357 
L 327.240223 117.035034 
L 347.671563 110.94156 
L 371.355671 107.686806 
L 395.307378 106.425044 
L 419.280307 105.807915 
L 439.912865 105.992042 
L 463.600538 108.455095 
L 481.804595 112.088672 
L 496.571504 114.135051 
L 513.30793 117.614282 
L 528.413798 124.245499 
L 528.413798 124.245499 
L 549.344446 135.893024 
L 570.118961 147.837683 
L 591.221068 159.210303 
L 612.601055 170.076395 
L 634.001504 180.897924 
L 655.431095 191.645846 
L 676.932978 202.279504 
L 698.469032 212.858187 
L 720 223.448276 
L 720 223.448276 
" clip-path="url(#pd6cef27061)" style="fill: none; stroke: #000000; stroke-width: 1.5"/>
    <path d="M 0 228.096579 
L 1.852702 226.024872 
L 17.511669 208.385736 
L 30.965616 192.263167 
L 39.395758 180.836378 
L 46.581658 168.530953 
L 46.581658 168.530953 
L 55.081642 154.252171 
L 63.551138 143.889974 
L 74.222817 135.346439 
L 86.968168 129.717937 
L 101.154718 127.462844 
L 101.154718 127.462844 
L 124.80821 128.43576 
L 147.874144 130.734687 
L 164.228266 131.679046 
L 178.561918 130.810536 
L 192.456763 127.558792 
L 192.456763 127.558792 
L 214.535098 118.87422 
L 236.593899 109.692659 
L 258.922576 101.157339 
L 280.894346 91.67101 
L 299.632496 82.176957 
L 318.365869 73.726762 
L 341.420709 67.753152 
L 365.114616 65.534433 
L 388.888719 66.389003 
L 412.689985 68.407877 
L 436.568038 69.534998 
L 460.515486 69.50198 
L 484.47777 69.46769 
L 500.298718 70.23278 
L 516.965654 73.613349 
L 516.965654 73.613349 
L 539.203297 82.125754 
L 560.463684 92.939964 
L 580.84135 105.384758 
L 600.303285 119.320014 
L 619.536884 133.585477 
L 639.356751 147.07168 
L 659.446014 160.09268 
L 679.548435 173.054076 
L 699.690466 185.9423 
L 720 198.62069 
L 720 198.62069 
" clip-path="url(#pd6cef27061)" style="fill: none; stroke: #000000; stroke-width: 1.5"/>
    <path d="M 377.13444 0 
L 382.12453 2.392251 
L 403.853429 12.528222 
L 422.942759 21.431125 
L 442.447471 29.047151 
L 465.785317 33.782607 
L 489.54009 36.78365 
L 513.233453 40.433243 
L 536.881061 44.267015 
L 560.624163 47.375018 
L 579.825425 49.97124 
L 596.142854 53.872511 
L 611.844566 60.611618 
L 611.844566 60.611618 
L 628.524937 71.547707 
L 628.524937 71.547707 
L 647.069372 86.735812 
L 664.8788 102.804715 
L 682.632419 118.936535 
L 701.060173 134.255445 
L 720 148.965517 
L 720 148.965517 
" clip-path="url(#pd6cef27061)" style="fill: none; stroke: #000000; stroke-width: 1.5"/>
    <path d="M 531.207112 17.392456 
L 555.004531 16.257638 
L 569.706657 15.337563 
L 585.50059 16.948568 
L 585.50059 16.948568 
L 608.111713 24.001196 
L 623.745953 30.993753 
L 640.232975 41.3657 
L 654.526473 54.66741 
L 654.526473 54.66741 
L 669.958285 72.848775 
L 685.440487 91.098615 
L 701.979265 108.374716 
L 720 124.137931 
L 720 124.137931 
" clip-path="url(#pd6cef27061)" style="fill: none; stroke: #000000; stroke-width: 1.5"/>
    <path d="M 642.769715 0 
L 649.905252 6.059216 
L 665.380958 20.87098 
L 680.041321 39.700902 
L 692.913871 59.912841 
L 705.709268 80.149121 
L 720 99.310345 
L 720 99.310345 
" clip-path="url(#pd6cef27061)" style="fill: none; stroke: #000000; stroke-width: 1.5"/>
    <path d="M 446.896552 0 
L 446.896552 0 
L 446.896552 0 
L 466.442588 4.912812 
L 486.356354 7.479455 
L 510.256389 9.131597 
L 534.065197 8.73976 
L 557.719899 6.389741 
L 557.719899 6.389741 
L 574.364839 6.098223 
L 591.07461 9.215477 
" clip-path="url(#pd6cef27061)" style="fill: none; stroke: #000000; stroke-width: 1.5"/>
    <path d="M 0 68.055836 
L 4.268257 66.496463 
L 26.693789 58.191112 
L 48.976114 49.421676 
L 71.413135 41.027272 
L 94.518341 34.82023 
L 118.161649 31.185607 
L 142.045353 29.454321 
L 161.815098 27.732033 
L 181.101199 23.7641 
L 181.101199 23.7641 
L 203.895098 16.575177 
L 226.930385 10.54123 
L 250.452072 6.331121 
L 274.099975 2.416469 
L 297.931034 0 
L 297.931034 0 
" clip-path="url(#pd6cef27061)" style="fill: none; stroke: #000000; stroke-width: 1.5"/>
    <path d="M 74.482759 0 
L 74.482759 0 
L 74.482759 0 
L 74.482759 0 
L 72.596492 2.924136 
L 72.302298 4.813409 
L 73.331609 6.762919 
L 76.299539 8.397027 
L 82.049712 9.391856 
L 90.737727 9.517737 
L 103.064239 8.68995 
L 118.547546 6.092535 
L 118.547546 6.092535 
L 130.459055 1.203972 
L 132.082964 0 
" clip-path="url(#pd6cef27061)" style="fill: none; stroke: #000000; stroke-width: 1.5"/>
    <path d="M 49.655172 0 
L 49.655172 0 
L 49.655172 0 
L 49.655172 0 
L 46.65191 3.923801 
L 45.88988 6.714444 
L 46.720121 9.674623 
L 49.761937 11.497134 
L 54.254487 12.202227 
L 63.894583 12.771911 
L 77.255839 12.758596 
L 77.255839 12.758596 
" clip-path="url(#pd6cef27061)" style="fill: none; stroke: #000000; stroke-width: 1.5"/>
    <path d="M 24.827586 0 
L 24.827586 0 
L 24.827586 0 
L 22.241938 12.536324 
L 22.666553 23.771537 
L 22.666553 23.771537 
L 24.313577 28.986718 
L 27.103777 32.209214 
L 31.186194 33.88667 
L 37.314677 34.241741 
L 46.224812 32.745532 
L 57.492286 29.576763 
" clip-path="url(#pd6cef27061)" style="fill: none; stroke: #000000; stroke-width: 1.5"/>
    <path d="M 0 99.310345 
L 0 99.310345 
L 22.979046 92.414301 
L 46.193757 86.599015 
L 69.926586 83.357763 
L 93.857576 82.254448 
L 117.777383 83.374713 
L 141.67218 85.223013 
L 165.570103 86.412586 
L 189.39518 86.347304 
L 189.39518 86.347304 
L 207.240215 84.350735 
L 225.474013 79.013569 
L 241.56855 73.314967 
L 262.126764 67.026731 
L 284.702155 59.258919 
L 307.554088 52.295446 
L 330.979509 47.78927 
L 354.205057 46.851382 
L 373.928924 49.238129 
L 392.991389 52.844046 
L 416.546073 56.98895 
L 440.217183 59.851177 
L 464.102207 60.88562 
L 488.018061 61.781722 
" clip-path="url(#pd6cef27061)" style="fill: none; stroke: #000000; stroke-width: 1.5"/>
    <path d="M 0 148.965517 
L 0 148.965517 
L 0 148.965517 
L 12.404426 134.434871 
L 26.070255 121.836069 
L 26.070255 121.836069 
L 38.521052 112.914483 
L 53.436819 106.171901 
L 67.166317 102.696068 
L 83.112319 100.748094 
L 104.091557 100.367284 
L 128.044313 101.624232 
L 151.996043 102.433415 
L 175.898014 101.109823 
L 199.546609 97.432353 
L 222.585787 91.16179 
" clip-path="url(#pd6cef27061)" style="fill: none; stroke: #000000; stroke-width: 1.5"/>
    <path d="M 0 248.275862 
L 0 248.275862 
L 0 248.275862 
L 12.787062 234.510406 
L 28.399352 222.910453 
L 43.714849 215.790631 
L 60.011322 211.293208 
L 76.672144 207.490174 
L 100.215134 203.634896 
L 121.996119 200.202947 
" clip-path="url(#pd6cef27061)" style="fill: none; stroke: #000000; stroke-width: 1.5"/>
    <path d="M 0 372.413793 
L 0 372.413793 
L 12.740471 352.145487 
L 25.011609 331.578358 
L 38.956319 312.096333 
L 54.447602 293.834919 
L 54.447602 293.834919 
L 67.900595 281.449597 
L 82.908265 270.472215 
L 103.102452 258.368582 
L 103.102452 258.368582 
L 118.819819 251.640642 
L 135.07315 246.452129 
L 158.109968 240.193884 
" clip-path="url(#pd6cef27061)" style="fill: none; stroke: #000000; stroke-width: 1.5"/>
    <path d="M 0 422.068966 
L 0 422.068966 
L 16.778563 405.027608 
L 16.778563 405.027608 
L 26.496969 392.372517 
L 34.021665 378.892736 
L 43.296933 360.569008 
L 55.928514 340.327087 
L 69.314043 323.190663 
L 84.641466 304.799389 
L 99.511736 286.123692 
L 99.511736 286.123692 
L 110.881406 272.378913 
L 110.881406 272.378913 
L 120.083933 264.321688 
" clip-path="url(#pd6cef27061)" style="fill: none; stroke: #000000; stroke-width: 1.5"/>
    <path d="M 0 471.724138 
L 0 471.724138 
L 12.467437 451.334567 
L 12.467437 451.334567 
L 21.046152 437.766423 
L 32.213772 425.21485 
L 43.34081 411.656569 
L 43.34081 411.656569 
L 49.127496 399.832304 
L 53.272152 387.555291 
" clip-path="url(#pd6cef27061)" style="fill: none; stroke: #000000; stroke-width: 1.5"/>
    <path d="M 0 571.034483 
L 0 571.034483 
L 0 571.034483 
L 7.42976 557.168229 
L 13.024516 541.585892 
L 13.024516 541.585892 
L 17.50724 531.224662 
L 24.551462 520.989421 
L 31.991334 510.090381 
L 31.991334 510.090381 
L 36.972744 498.608371 
" clip-path="url(#pd6cef27061)" style="fill: none; stroke: #000000; stroke-width: 1.5"/>
    <path d="M 177.432776 697.813831 
L 161.734594 703.611231 
L 146.961297 706.163766 
L 131.036078 705.771003 
L 114.751121 701.94831 
L 99.310345 695.172414 
L 99.310345 695.172414 
L 99.310345 695.172414 
L 86.701462 686.494476 
L 76.676687 675.094267 
L 71.249383 663.088196 
L 70.208794 651.475951 
L 72.483494 640.960751 
L 76.797023 629.066482 
L 84.727229 606.471277 
L 92.330789 583.79492 
L 99.262433 561.032863 
L 99.262433 561.032863 
L 101.822541 545.932669 
L 101.342173 530.1816 
L 98.653449 515.416716 
L 93.510893 492.057492 
L 93.510893 492.057492 
L 91.287638 475.302008 
L 91.287638 475.302008 
L 92.037397 460.42829 
L 95.582737 446.10059 
L 101.193028 430.62978 
L 109.778023 408.243115 
L 109.778023 408.243115 
L 117.973485 390.931095 
L 117.973485 390.931095 
L 125.761897 379.643508 
L 125.761897 379.643508 
L 134.772076 371.518465 
L 145.373261 365.767427 
L 158.202318 361.119096 
L 178.919147 355.349581 
L 201.948333 348.900606 
L 223.961259 339.681189 
L 242.191254 329.642711 
L 263.147399 318.006747 
L 284.083547 306.376396 
L 305.278183 295.209644 
L 326.798199 284.618513 
L 348.620626 274.700726 
L 370.910463 265.837586 
L 393.566574 257.979748 
L 416.798958 252.251739 
L 440.493556 248.64557 
L 464.27902 246.294873 
L 488.036843 245.446989 
L 488.036843 245.446989 
L 505.751255 246.669888 
" clip-path="url(#pd6cef27061)" style="fill: none; stroke: #000000; stroke-width: 1.5"/>
    <path d="M 707.308346 441.387772 
L 702.725695 457.12745 
L 695.172414 471.724138 
L 695.172414 471.724138 
L 681.109961 491.114655 
L 667.426079 510.51135 
L 667.426079 510.51135 
L 659.721733 525.547739 
L 659.721733 525.547739 
L 657.458681 532.608989 
L 657.458681 532.608989 
L 657.405374 538.950679 
L 657.405374 538.950679 
L 659.893848 543.862286 
L 662.95326 548.217345 
L 662.95326 548.217345 
L 664.09078 551.488631 
L 663.135397 553.939755 
L 660.007372 556.473052 
" clip-path="url(#pd6cef27061)" style="fill: none; stroke: #000000; stroke-width: 1.5"/>
    <path d="M 677.702012 0 
L 681.552001 5.107651 
L 695.172414 24.827586 
L 707.964114 45.131752 
L 720 64.400454 
" clip-path="url(#pd6cef27061)" style="fill: none; stroke: #000000; stroke-width: 1.5"/>
    <path d="M 105.532101 56.688013 
L 129.396434 55.794946 
L 153.307699 56.946636 
L 170.413704 57.534776 
L 184.557576 56.455426 
L 198.356095 52.96748 
L 198.356095 52.96748 
L 212.725224 46.567172 
L 212.725224 46.567172 
L 234.235189 36.226307 
L 256.770967 28.348471 
L 280.04788 22.633568 
L 303.669065 18.795239 
L 325.254005 17.570438 
L 349.067471 19.522583 
L 372.413793 24.827586 
" clip-path="url(#pd6cef27061)" style="fill: none; stroke: #000000; stroke-width: 1.5"/>
    <path d="M 57.362364 681.981063 
L 49.655172 670.344828 
L 49.655172 670.344828 
L 49.655172 670.344828 
L 45.232221 658.41316 
L 44.080439 645.530477 
L 45.27094 633.514984 
L 49.288032 610.787264 
L 54.741161 587.439399 
L 61.68718 564.579397 
L 70.439342 542.765558 
L 70.439342 542.765558 
L 73.267635 533.645816 
L 73.267635 533.645816 
L 73.175925 525.163712 
L 71.020572 516.438676 
L 66.935064 503.570608 
L 66.935064 503.570608 
L 63.468615 489.232281 
L 63.468615 489.232281 
L 62.93469 476.72842 
L 64.847615 464.358345 
" clip-path="url(#pd6cef27061)" style="fill: none; stroke: #000000; stroke-width: 1.5"/>
    <path d="M 106.637787 678.822295 
L 99.310345 670.344828 
L 99.310345 670.344828 
L 99.310345 670.344828 
L 95.192309 660.916927 
L 94.157905 650.651508 
L 95.827278 640.660947 
L 99.700023 628.401886 
L 105.893928 609.598272 
L 112.203949 586.962713 
L 112.203949 586.962713 
L 115.581061 568.009905 
L 116.500015 548.043441 
L 114.70231 527.471461 
" clip-path="url(#pd6cef27061)" style="fill: none; stroke: #000000; stroke-width: 1.5"/>
    <path d="M 146.729647 648.42138 
L 145.55642 647.839707 
L 145.695958 646.564399 
L 148.394579 645.225481 
L 148.394579 645.225481 
L 147.691975 647.829893 
L 147.691975 647.829893 
L 146.024665 648.035758 
L 145.829494 646.927976 
L 146.638918 645.677499 
L 148.775871 645.560825 
L 148.775871 645.560825 
L 147.292733 648.142147 
L 147.292733 648.142147 
L 145.810224 647.982795 
L 145.745446 646.812786 
L 146.663485 645.499482 
L 148.829833 645.404655 
L 148.829833 645.404655 
L 147.364092 648.181706 
L 147.364092 648.181706 
L 145.748624 648.129265 
L 145.58143 646.930787 
L 148.04477 645.17887 
L 148.206233 647.532664 
L 148.206233 647.532664 
L 146.092301 648.389803 
L 145.478992 647.399624 
L 146.009231 646.013874 
L 148.655948 645.276185 
L 148.655948 645.276185 
L 147.475789 648.019702 
L 147.475789 648.019702 
L 145.896087 648.023003 
L 145.761933 646.884462 
L 146.614626 645.596922 
L 148.795281 645.448084 
L 148.795281 645.448084 
L 147.342834 648.144627 
L 147.342834 648.144627 
L 145.804721 648.089984 
L 145.794624 646.628894 
L 147.669643 644.982932 
L 148.333767 647.355338 
L 148.333767 647.355338 
L 146.186212 648.375888 
L 145.527698 647.415576 
L 146.002635 646.093888 
L 148.654978 645.410197 
L 148.654978 645.410197 
L 147.398002 648.02468 
L 147.398002 648.02468 
L 145.921051 647.966928 
L 145.96034 646.598643 
L 147.226997 645.233042 
L 148.9385 646.072887 
L 148.9385 646.072887 
L 147.034723 648.455036 
L 147.034723 648.455036 
L 145.531493 648.255906 
L 145.64119 646.422173 
L 147.221874 644.720772 
L 148.450172 647.230761 
L 148.450172 647.230761 
L 146.232857 648.415052 
L 145.496375 647.500628 
L 145.94187 646.136001 
L 148.594842 645.250948 
L 148.594842 645.250948 
L 147.5517 648.001572 
L 147.5517 648.001572 
L 145.897427 648.119105 
L 145.747652 646.814416 
L 147.061026 645.200878 
L 148.736529 646.500018 
L 148.736529 646.500018 
L 146.783793 648.397447 
L 146.783793 648.397447 
L 145.583771 647.848634 
L 145.703244 646.593872 
L 148.378442 645.247695 
L 148.378442 645.247695 
L 147.754204 647.827685 
L 147.754204 647.827685 
L 146.001973 648.122355 
L 145.733238 647.005072 
L 147.913161 645.330429 
L 148.204679 647.355462 
L 148.204679 647.355462 
L 146.243927 648.175713 
L 145.764787 647.216574 
L 146.515031 645.815255 
L 148.748691 645.854902 
L 148.748691 645.854902 
L 147.16626 648.173389 
L 147.16626 648.173389 
L 145.811116 647.946166 
L 146.013186 646.400606 
L 147.283906 645.11795 
L 149.118574 645.829897 
L 149.118574 645.829897 
L 146.749005 648.367505 
L 145.619758 647.772881 
L 145.786001 646.5337 
L 148.405486 645.298044 
L 148.405486 645.298044 
L 147.843832 647.870657 
L 147.843832 647.870657 
L 145.923335 648.301747 
L 145.499386 647.221999 
L 146.156904 645.831436 
L 148.739434 645.350151 
L 147.485491 648.171172 
L 147.485491 648.171172 
L 145.73733 648.278693 
L 145.485577 646.95205 
L 146.753948 645.124041 
L 148.741214 646.489697 
L 148.741214 646.489697 
L 146.810686 648.407458 
L 146.810686 648.407458 
L 145.57118 647.884914 
L 145.659338 646.639402 
L 148.38141 645.265773 
L 148.38141 645.265773 
L 147.647879 647.824406 
L 147.647879 647.824406 
L 146.049082 647.961424 
L 145.908801 646.87666 
L 146.903949 645.55429 
L 148.830495 645.777121 
L 148.830495 645.777121 
L 147.18442 648.237389 
L 147.18442 648.237389 
L 145.739037 648.069723 
L 145.869163 646.45073 
L 147.305255 644.980029 
L 148.9934 646.286689 
L 148.9934 646.286689 
L 146.591418 648.435768 
L 145.534533 647.751575 
L 145.752199 646.457804 
L 148.461552 645.254338 
L 148.461552 645.254338 
L 147.587571 647.880706 
L 147.587571 647.880706 
L 146.011509 647.962152 
L 145.888477 646.859726 
L 146.843994 645.561024 
L 148.830405 645.69521 
L 148.830405 645.69521 
L 147.220719 648.218051 
L 147.220719 648.218051 
L 145.753372 648.076977 
L 145.853615 646.485397 
L 147.273186 645.000079 
L 148.953326 646.313877 
L 148.953326 646.313877 
L 146.593456 648.397835 
L 145.579158 647.69802 
L 145.827512 646.417513 
L 148.459352 645.272519 
L 148.459352 645.272519 
L 147.762929 647.932361 
L 147.762929 647.932361 
L 145.890739 648.275481 
L 145.509587 647.178937 
L 146.194722 645.791542 
L 148.757973 645.374217 
L 148.757973 645.374217 
L 147.501305 648.219334 
L 147.501305 648.219334 
L 145.694782 648.386334 
L 145.424474 646.888202 
L 147.611024 644.7697 
L 148.048069 647.50866 
L 148.048069 647.50866 
L 146.185126 648.1253 
L 145.814038 647.082911 
L 146.482605 645.860718 
L 148.696334 645.541115 
L 148.696334 645.541115 
L 147.320279 648.069101 
L 147.320279 648.069101 
L 145.893401 647.946284 
L 145.99263 646.527669 
L 147.250583 645.207246 
L 148.976124 645.996391 
L 148.976124 645.996391 
L 147.061627 648.465658 
L 147.061627 648.465658 
L 145.518984 648.295888 
L 145.583422 646.465907 
L 147.154375 644.709153 
L 148.672138 646.87753 
L 148.672138 646.87753 
L 146.38603 648.408708 
L 145.539495 647.576334 
L 145.905525 646.251209 
L 148.538869 645.265878 
L 148.538869 645.265878 
L 147.666866 648.003779 
L 147.666866 648.003779 
L 145.85289 648.253796 
L 145.527375 647.087426 
L 146.726129 645.2864 
L 148.727211 646.41845 
L 148.727211 646.41845 
L 146.841628 648.345151 
L 146.841628 648.345151 
L 145.643124 647.817792 
L 145.759878 646.603297 
L 148.37382 645.314259 
L 148.37382 645.314259 
L 147.884635 647.827778 
L 147.884635 647.827778 
L 145.950191 648.30097 
L 145.5133 647.229508 
L 146.159481 645.849209 
L 148.731002 645.356994 
L 148.731002 645.356994 
L 147.529477 648.198366 
L 147.529477 648.198366 
L 145.702818 648.376877 
L 145.388541 646.99467 
L 147.785793 644.87189 
L 148.012998 647.554896 
L 148.012998 647.554896 
L 146.158608 648.131345 
L 145.796524 647.078103 
L 146.459861 645.858749 
L 148.695805 645.51696 
L 148.695805 645.51696 
L 147.332261 648.066243 
L 147.332261 648.066243 
L 145.893487 647.956257 
L 145.982019 646.537859 
L 147.25456 645.20059 
L 148.964513 646.03798 
L 148.964513 646.03798 
L 147.045465 648.46975 
L 147.045465 648.46975 
L 145.516132 648.287404 
L 145.597935 646.446941 
L 147.178983 644.703325 
L 148.73034 646.808311 
L 148.73034 646.808311 
L 146.405557 648.435267 
L 145.512364 647.627145 
L 145.849506 646.288884 
L 148.521597 645.228573 
L 148.521597 645.228573 
L 147.606168 647.942279 
L 147.606168 647.942279 
L 145.944717 648.111627 
L 145.81471 646.762079 
L 147.556878 645.110217 
L 148.280441 647.248106 
L 148.280441 647.248106 
L 146.296205 648.170618 
L 145.786114 647.243209 
L 146.563812 645.807848 
L 148.727499 645.960342 
L 148.727499 645.960342 
L 147.124251 648.180028 
L 147.124251 648.180028 
L 145.809232 647.900602 
L 146.004854 646.424649 
L 147.105666 645.220343 
L 149.011371 645.656901 
L 149.011371 645.656901 
L 147.20291 648.388813 
L 147.20291 648.388813 
L 145.57497 648.302961 
L 145.484911 646.684766 
L 146.86718 644.880451 
L 148.825558 646.51617 
L 146.852973 648.552352 
L 146.852973 648.552352 
L 145.436679 648.235664 
L 145.640973 646.319479 
L 147.383236 644.594401 
L 148.894215 646.698948 
L 148.894215 646.698948 
L 146.402489 648.578579 
L 145.356524 647.895799 
L 145.765019 646.152101 
L 147.949124 644.533483 
L 148.800259 647.283321 
L 148.800259 647.283321 
L 146.426448 649.118448 
L 144.874829 648.733918 
L 145.071331 646.190844 
L 146.537038 644.253972 
L 149.125189 643.752415 
L 149.125189 643.752415 
L 150.188876 647.397891 
L 150.188876 647.397891 
L 147.543335 651.139388 
L 147.543335 651.139388 
L 143.434446 652.273207 
L 141.056389 651.026024 
L 140.25271 648.218473 
L 141.390596 643.670684 
L 141.390596 643.670684 
L 144.214975 638.631121 
L 147.260419 635.549724 
L 151.335701 634.55291 
L 151.335701 634.55291 
L 155.619666 636.843344 
L 155.619666 636.843344 
L 159.219893 642.282197 
L 160.269133 649.983288 
L 157.882327 657.167876 
L 157.882327 657.167876 
L 152.006812 664.599339 
L 144.366361 669.878511 
L 134.673065 671.986832 
L 124.137931 670.344828 
L 124.137931 670.344828 
L 117.650477 666.860993 
L 113.48111 661.746213 
L 113.48111 661.746213 
" clip-path="url(#pd6cef27061)" style="fill: none; stroke: #000000; stroke-width: 1.5"/>
    <path d="M 141.633384 628.8535 
L 145.560432 623.188184 
L 151.197243 619.2578 
L 151.197243 619.2578 
L 157.823649 616.461746 
L 162.706265 615.794417 
L 166.759807 616.566335 
L 171.165803 618.938103 
L 171.165803 618.938103 
L 177.204832 625.226977 
L 180.971409 633.876856 
L 180.971409 633.876856 
L 182.326081 645.072442 
L 179.940482 658.127931 
L 173.793103 670.344828 
L 173.793103 670.344828 
L 173.793103 670.344828 
L 166.657758 678.383961 
" clip-path="url(#pd6cef27061)" style="fill: none; stroke: #000000; stroke-width: 1.5"/>
    <path d="M 260.265899 624.803436 
L 252.128505 625.899215 
L 252.128505 625.899215 
L 241.480575 625.364861 
L 233.756364 624.551507 
L 227.720955 624.780919 
L 221.506133 626.561318 
L 216.898651 630.492626 
L 216.898651 630.492626 
L 213.067394 636.683834 
L 213.067394 636.683834 
L 208.258206 648.521381 
L 208.258206 648.521381 
L 198.62069 670.344828 
L 198.62069 670.344828 
L 191.432074 680.209753 
" clip-path="url(#pd6cef27061)" style="fill: none; stroke: #000000; stroke-width: 1.5"/>
    <path d="M 403.053054 661.582074 
L 397.241379 670.344828 
L 397.241379 670.344828 
L 380.383643 687.341689 
L 363.916626 704.67661 
L 350.321222 720 
" clip-path="url(#pd6cef27061)" style="fill: none; stroke: #000000; stroke-width: 1.5"/>
    <path d="M 639.55836 642.559173 
L 624.584129 652.286965 
L 606.90708 660.756574 
L 589.419454 665.101118 
L 571.034483 670.344828 
L 571.034483 670.344828 
L 549.182026 679.894247 
" clip-path="url(#pd6cef27061)" style="fill: none; stroke: #000000; stroke-width: 1.5"/>
    <path d="M 588.746157 223.347548 
L 607.717286 237.826733 
L 628.227538 250.124637 
L 649.34047 261.50564 
L 670.344828 273.103448 
" clip-path="url(#pd6cef27061)" style="fill: none; stroke: #000000; stroke-width: 1.5"/>
    <path d="M 310.399727 599.482367 
L 312.906661 599.077918 
L 315.384549 599.09487 
L 318.059281 599.768591 
L 320.756858 601.833141 
L 320.756858 601.833141 
L 322.999297 605.793602 
L 322.999297 605.793602 
L 324.842429 611.870439 
L 324.842429 611.870439 
L 326.591937 623.456651 
L 326.162073 634.408765 
L 322.758621 645.517241 
L 322.758621 645.517241 
" clip-path="url(#pd6cef27061)" style="fill: none; stroke: #000000; stroke-width: 1.5"/>
    <path d="M 379.942287 550.285284 
L 373.8626 551.374389 
L 370.496766 553.250119 
L 369.371216 556.278672 
L 370.858812 560.931887 
L 374.590171 566.779942 
L 374.590171 566.779942 
L 379.397313 574.03328 
L 382.571474 582.029865 
L 382.808469 588.649956 
L 380.374802 595.322781 
L 380.374802 595.322781 
L 380.374802 595.322781 
L 375.846714 603.270437 
L 372.474816 612.171659 
L 372.070275 621.573502 
L 372.070275 621.573502 
L 372.413793 645.517241 
L 372.413793 645.517241 
L 370.220375 654.851119 
" clip-path="url(#pd6cef27061)" style="fill: none; stroke: #000000; stroke-width: 1.5"/>
    <path d="M 456.541373 639.293697 
L 451.447843 641.030055 
L 446.896552 645.517241 
L 446.896552 645.517241 
L 446.896552 645.517241 
L 446.896552 645.517241 
L 435.007422 666.210957 
L 423.915143 687.316958 
L 423.915143 687.316958 
L 414.764781 702.616992 
L 403.617877 716.757591 
L 400.862589 720 
" clip-path="url(#pd6cef27061)" style="fill: none; stroke: #000000; stroke-width: 1.5"/>
    <path d="M 676.408486 605.543434 
L 676.408486 605.543434 
L 663.859956 601.732761 
L 663.859956 601.732761 
L 645.517241 595.862069 
L 645.517241 595.862069 
L 622.363821 589.770237 
L 599.149787 584.343387 
L 599.149787 584.343387 
" clip-path="url(#pd6cef27061)" style="fill: none; stroke: #000000; stroke-width: 1.5"/>
    <path d="M 567.064299 77.591987 
L 586.129259 84.508914 
L 607.265623 95.346768 
L 626.85411 109.063893 
L 645.517241 124.137931 
" clip-path="url(#pd6cef27061)" style="fill: none; stroke: #000000; stroke-width: 1.5"/>
    <path d="M 74.482759 347.586207 
L 74.482759 347.586207 
L 90.342004 329.662133 
L 107.125588 312.713308 
L 124.490108 296.380705 
L 143.748363 282.722533 
L 162.487137 274.095018 
L 183.298394 266.731938 
L 205.957557 259.563878 
L 228.823169 253.154505 
L 228.823169 253.154505 
L 247.547466 246.124051 
L 263.665926 238.926391 
L 286.027897 231.422994 
L 286.027897 231.422994 
L 302.677534 229.445979 
L 318.049392 229.526537 
L 318.049392 229.526537 
L 332.869769 228.441061 
L 348.420812 224.10764 
" clip-path="url(#pd6cef27061)" style="fill: none; stroke: #000000; stroke-width: 1.5"/>
    <path d="M 177.78391 608.061871 
L 183.054616 607.11339 
L 187.797313 606.089443 
L 191.719322 605.294581 
L 194.79782 605.215551 
L 197.696904 606.127888 
L 199.707123 608.401068 
L 200.501057 611.47389 
L 200.126472 615.346314 
L 198.62069 620.689655 
L 198.62069 620.689655 
L 198.62069 620.689655 
" clip-path="url(#pd6cef27061)" style="fill: none; stroke: #000000; stroke-width: 1.5"/>
    <path d="M 629.105847 433.340188 
L 620.689655 446.896552 
L 620.689655 446.896552 
L 605.513853 465.441491 
L 605.513853 465.441491 
L 591.224525 479.587227 
L 591.224525 479.587227 
L 580.44206 487.158132 
L 567.360445 492.282558 
L 555.301811 493.782964 
L 543.685425 492.849173 
L 531.686349 489.741788 
L 519.949998 484.955579 
" clip-path="url(#pd6cef27061)" style="fill: none; stroke: #000000; stroke-width: 1.5"/>
    <path d="M 460.546833 373.451555 
L 471.141318 365.268201 
L 480.396825 360.368403 
L 490.868796 357.593871 
L 490.868796 357.593871 
L 513.964301 355.58346 
L 537.105171 353.680039 
L 554.197682 352.2651 
L 568.527887 352.198015 
L 581.087301 354.065935 
L 593.002697 358.508042 
L 602.312165 364.636932 
L 610.146017 372.89777 
L 610.146017 372.89777 
L 616.706355 384.3905 
L 620.689655 397.241379 
L 620.689655 397.241379 
L 620.689655 397.241379 
L 621.241075 408.56872 
" clip-path="url(#pd6cef27061)" style="fill: none; stroke: #000000; stroke-width: 1.5"/>
    <path d="M 99.310345 148.965517 
L 99.310345 148.965517 
L 99.310345 148.965517 
L 110.42974 143.781537 
L 122.180905 141.039204 
L 135.511372 140.26125 
L 151.295331 141.653944 
L 170.055484 145.082242 
L 193.44438 147.910021 
L 193.44438 147.910021 
L 204.272116 146.697455 
L 214.643197 142.463697 
" clip-path="url(#pd6cef27061)" style="fill: none; stroke: #000000; stroke-width: 1.5"/>
    <path d="M 37.362356 196.837206 
L 45.199221 193.149868 
L 45.199221 193.149868 
L 57.79512 189.506093 
L 68.705569 185.644215 
L 68.705569 185.644215 
L 82.204391 179.481509 
L 89.8111 176.533194 
L 99.310345 173.793103 
L 99.310345 173.793103 
L 99.310345 173.793103 
L 117.491566 172.067843 
L 117.491566 172.067843 
L 126.720446 173.129739 
L 126.720446 173.129739 
L 132.501719 174.160229 
L 136.284738 174.576745 
L 138.887636 174.396941 
L 139.806862 173.914223 
L 140.215928 173.496531 
L 141.523049 172.705949 
L 143.505893 171.676576 
L 145.985091 170.616563 
L 148.496459 169.752862 
L 151.566362 169.576594 
L 156.327797 172.092878 
L 156.327797 172.092878 
L 159.777342 175.041261 
L 159.777342 175.041261 
L 165.614727 177.332699 
L 174.163422 179.608816 
L 174.163422 179.608816 
L 183.637868 180.022725 
L 193.117509 178.367113 
L 206.116898 174.122468 
" clip-path="url(#pd6cef27061)" style="fill: none; stroke: #000000; stroke-width: 1.5"/>
    <path d="M 146.692567 606.434705 
L 148.965517 595.862069 
L 148.965517 595.862069 
L 148.965517 595.862069 
L 152.05187 583.361015 
L 158.082007 571.326733 
L 164.376857 560.138868 
L 169.976623 545.245057 
L 169.976623 545.245057 
L 171.758979 535.840137 
L 171.758979 535.840137 
L 171.154823 527.913152 
L 168.646486 519.495171 
L 168.646486 519.495171 
L 167.070999 509.902824 
L 168.182403 500.596707 
L 170.381744 487.577387 
L 172.667126 465.531278 
L 172.667126 465.531278 
L 175.42232 451.372157 
L 181.199427 438.465667 
L 189.623247 428.040229 
L 200.086867 420.374385 
L 212.058824 415.068449 
L 226.656638 411.140722 
L 246.244272 407.62948 
L 269.612952 405.825643 
L 269.612952 405.825643 
L 285.112005 408.043312 
L 299.554686 413.672844 
L 299.554686 413.672844 
L 309.32746 417.937692 
L 309.32746 417.937692 
L 317.027442 418.63501 
L 325.351535 416.030061 
L 333.202145 411.481554 
L 347.131863 401.874199 
L 347.131863 401.874199 
L 358.85047 395.701097 
L 370.178507 392.58843 
L 384.187857 388.732999 
L 397.965852 383.009732 
L 419.313352 373.794727 
L 419.313352 373.794727 
L 428.283476 368.432829 
" clip-path="url(#pd6cef27061)" style="fill: none; stroke: #000000; stroke-width: 1.5"/>
    <path d="M 213.595513 595.029138 
L 213.595513 595.029138 
L 223.448276 595.862069 
L 223.448276 595.862069 
L 223.448276 595.862069 
L 234.670752 598.787896 
L 234.670752 598.787896 
L 241.88125 601.704463 
L 246.407185 603.954219 
L 249.093187 605.470757 
L 250.844202 606.655991 
L 251.647333 607.595037 
L 251.552724 608.090831 
L 251.276222 608.189018 
L 251.114327 608.1807 
L 251.046414 608.162033 
L 251.023892 608.150812 
L 251.018407 608.14594 
L 251.017926 608.144264 
L 251.018385 608.143831 
L 251.018762 608.143778 
L 251.018951 608.143805 
L 251.019024 608.143831 
L 251.019046 608.143844 
L 251.01905 608.143849 
L 251.01905 608.143851 
L 251.01905 608.143851 
L 251.019049 608.143851 
L 251.019049 608.143851 
L 251.019049 608.143851 
L 251.019049 608.143851 
L 251.019049 608.143851 
L 251.019049 608.143851 
L 251.019049 608.143851 
L 251.019049 608.143851 
L 251.019049 608.143851 
L 251.019049 608.143851 
L 251.019049 608.143851 
L 251.019049 608.143851 
L 251.019049 608.143851 
L 251.019049 608.143851 
L 251.019049 608.143851 
L 251.019049 608.143851 
L 251.019049 608.143851 
L 251.019049 608.143851 
L 251.019049 608.143851 
L 251.019049 608.143851 
L 251.019049 608.143851 
L 251.019049 608.143851 
L 251.019049 608.143851 
L 251.019049 608.143851 
L 251.019049 608.143851 
L 251.019049 608.143851 
L 251.019049 608.143851 
L 251.019049 608.143851 
L 251.019049 608.143851 
L 251.019049 608.143851 
L 251.019049 608.143851 
L 251.019049 608.143851 
L 251.019049 608.143851 
L 251.019049 608.143851 
L 251.019049 608.143851 
L 251.019049 608.143851 
L 251.019049 608.143851 
L 251.019049 608.143851 
L 251.019049 608.143851 
L 251.019049 608.143851 
L 251.019049 608.143851 
" clip-path="url(#pd6cef27061)" style="fill: none; stroke: #000000; stroke-width: 1.5"/>
    <path d="M 274.850948 575.639241 
L 275.269826 574.826648 
L 275.426966 575.225774 
L 275.026649 576.076941 
L 274.637362 576.358788 
L 274.779603 575.754793 
L 275.209581 574.936545 
L 275.407513 575.184737 
L 275.069952 575.991733 
L 274.641703 576.403144 
L 274.731105 575.852218 
L 275.151653 575.098764 
L 275.347387 575.227739 
L 275.08939 575.903028 
L 274.794039 576.14948 
L 274.835749 575.803889 
L 275.096706 575.342371 
L 275.221633 575.403112 
L 275.069878 575.810812 
L 274.80394 576.169981 
L 274.619374 576.100041 
L 274.619374 576.100041 
L 275.039238 575.20356 
L 275.38915 574.99023 
L 275.214462 575.741618 
L 274.766649 576.360395 
L 274.658911 576.100563 
L 275.002515 575.329277 
L 275.393358 574.885739 
L 275.279198 575.638609 
L 274.830834 576.281568 
L 274.678593 576.121993 
L 274.965236 575.429206 
L 275.275181 575.135298 
L 275.213162 575.621038 
L 274.915508 576.059247 
L 274.809134 575.96821 
L 274.982553 575.539425 
L 275.24911 575.130372 
L 275.396653 575.395968 
L 275.396653 575.395968 
L 274.932784 576.193689 
L 274.671889 576.220692 
L 274.880682 575.592292 
L 275.297741 574.771189 
L 275.438447 575.240305 
L 275.007701 576.116292 
L 274.642167 576.332096 
L 274.801449 575.717186 
L 275.226937 574.918955 
L 275.403671 575.214827 
L 275.052652 576.015168 
L 274.62172 576.419259 
L 274.733359 575.828455 
L 275.169478 575.06264 
L 275.356603 575.232413 
L 275.078661 575.929259 
L 274.781095 576.161649 
L 274.83624 575.790185 
L 275.101201 575.114357 
L 275.14126 574.36079 
L 274.817893 573.989772 
L 274.045677 574.058087 
L 272.322855 574.655245 
L 272.322855 574.655245 
L 266.598484 577.977277 
L 263.319791 580.762626 
L 262.249216 583.728008 
L 263.276687 587.06344 
L 266.91957 591.326609 
L 273.103448 595.862069 
L 273.103448 595.862069 
L 273.103448 595.862069 
L 273.103448 595.862069 
L 276.036489 598.068488 
L 277.131259 599.689319 
L 277.257072 602.71343 
L 274.738712 607.653954 
" clip-path="url(#pd6cef27061)" style="fill: none; stroke: #000000; stroke-width: 1.5"/>
    <path d="M 601.43706 390.166939 
L 602.608526 401.140856 
L 600.744589 412.002786 
L 595.862069 422.068966 
L 595.862069 422.068966 
L 581.865573 441.47025 
L 581.865573 441.47025 
L 570.335 454.022921 
L 570.335 454.022921 
L 559.402545 462.071876 
L 546.806405 467.324563 
L 533.871508 469.454923 
L 520.205496 468.725963 
" clip-path="url(#pd6cef27061)" style="fill: none; stroke: #000000; stroke-width: 1.5"/>
    <path d="M 404.723157 352.527933 
L 416.660373 344.676385 
L 427.437572 334.169066 
L 427.437572 334.169066 
L 437.194539 321.126806 
L 449.70025 308.178667 
L 467.487051 297.010264 
L 485.940607 289.392051 
L 505.213804 284.671058 
L 526.038924 283.108144 
L 549.693236 285.532333 
L 573.038315 290.702986 
L 595.862069 297.931034 
L 618.091698 306.89795 
" clip-path="url(#pd6cef27061)" style="fill: none; stroke: #000000; stroke-width: 1.5"/>
    <path d="M 495.763963 92.061858 
L 514.522338 94.936529 
L 533.714092 101.5924 
L 550.981959 110.956932 
L 550.981959 110.956932 
L 571.034483 124.137931 
" clip-path="url(#pd6cef27061)" style="fill: none; stroke: #000000; stroke-width: 1.5"/>
    <path d="M 351.168383 124.979223 
L 374.951343 122.721186 
L 398.945857 122.496736 
L 422.92323 123.051233 
L 446.896552 124.137931 
L 446.896552 124.137931 
" clip-path="url(#pd6cef27061)" style="fill: none; stroke: #000000; stroke-width: 1.5"/>
    <path d="M 124.137931 322.758621 
L 143.749265 309.476009 
L 164.294106 299.367731 
L 183.957459 290.959276 
L 205.525247 280.679065 
L 227.241177 270.804704 
" clip-path="url(#pd6cef27061)" style="fill: none; stroke: #000000; stroke-width: 1.5"/>
    <path d="M 115.315479 492.622349 
L 112.976171 477.789163 
L 113.49591 460.589601 
L 117.261173 445.048575 
L 117.261173 445.048575 
L 124.137931 422.068966 
L 124.137931 422.068966 
" clip-path="url(#pd6cef27061)" style="fill: none; stroke: #000000; stroke-width: 1.5"/>
    <path d="M 191.632904 578.606476 
L 198.62069 571.034483 
L 198.62069 571.034483 
L 207.180492 565.093536 
L 217.235031 561.696793 
L 217.235031 561.696793 
L 223.822895 561.683391 
L 223.822895 561.683391 
L 226.646366 562.660223 
L 227.87902 563.627996 
L 228.498436 565.055392 
L 228.272569 566.577317 
L 227.478441 568.009828 
L 226.380311 569.152463 
L 226.380311 569.152463 
L 225.785738 570.337483 
L 225.832206 570.501555 
L 225.57284 570.608606 
L 225.773738 570.637667 
L 225.814712 570.664237 
L 225.521185 570.655191 
L 225.534105 570.661068 
L 225.415343 570.660221 
L 225.877686 570.667888 
L 225.690994 570.664966 
" clip-path="url(#pd6cef27061)" style="fill: none; stroke: #000000; stroke-width: 1.5"/>
    <path d="M 491.568864 364.062181 
L 491.568864 364.062181 
L 506.834971 363.643721 
L 521.367529 362.291382 
L 533.261609 361.206822 
L 545.572747 362.74311 
L 555.316282 366.128769 
L 565.426691 371.636906 
L 572.514411 377.517727 
L 577.133638 383.936858 
L 579.184782 391.257745 
L 578.482898 399.590276 
L 578.482898 399.590276 
L 571.034483 422.068966 
L 571.034483 422.068966 
L 564.458179 433.082876 
L 555.958191 441.553366 
L 544.778991 448.196443 
L 532.876441 451.338793 
L 521.283939 451.210938 
L 509.586412 448.152726 
L 498.651679 442.435012 
L 488.325342 434.098217 
L 488.325342 434.098217 
L 482.70562 426.623484 
L 482.70562 426.623484 
L 480.623648 420.004401 
L 480.623648 420.004401 
L 481.162432 415.284633 
L 483.147296 411.967498 
L 486.944565 409.085038 
L 492.566914 407.047745 
L 500.020135 405.86999 
L 510.856776 404.467186 
L 523.972107 401.57598 
L 523.972107 401.57598 
L 529.260608 399.97916 
L 532.914939 399.458095 
L 534.721848 399.948509 
L 535.256076 401.449313 
L 534.530903 404.325753 
" clip-path="url(#pd6cef27061)" style="fill: none; stroke: #000000; stroke-width: 1.5"/>
    <path d="M 140.768967 408.624454 
L 148.965517 397.241379 
L 148.965517 397.241379 
L 148.965517 397.241379 
L 159.355122 388.506789 
L 170.433933 382.343943 
L 185.702223 376.764323 
L 202.443615 373.25696 
L 223.122094 368.935744 
L 246.051519 362.617795 
L 268.816176 355.828161 
L 291.088857 347.292921 
L 312.309701 336.478177 
L 332.320703 324.866456 
L 352.804174 315.037795 
L 372.493726 310.011636 
L 392.716317 305.601207 
L 415.916803 300.118057 
" clip-path="url(#pd6cef27061)" style="fill: none; stroke: #000000; stroke-width: 1.5"/>
    <path d="M 147.39522 543.847162 
L 147.322227 528.19913 
L 147.322227 528.19913 
L 146.333912 504.564103 
L 146.347184 480.893134 
L 145.042091 457.170551 
L 144.431889 442.645502 
L 145.291338 432.379616 
L 148.965517 422.068966 
L 148.965517 422.068966 
L 148.965517 422.068966 
L 148.965517 422.068966 
" clip-path="url(#pd6cef27061)" style="fill: none; stroke: #000000; stroke-width: 1.5"/>
    <path d="M 233.521969 510.275235 
L 232.16234 515.043247 
L 229.705557 517.659042 
L 225.621399 518.29154 
L 225.621399 518.29154 
L 218.771664 514.21033 
L 214.743168 507.893543 
L 213.992641 500.609787 
L 213.992641 500.609787 
L 216.430928 486.579016 
L 218.660428 475.242472 
L 219.043526 471.837586 
L 219.808971 469.563041 
L 222.061881 468.316901 
L 225.823027 469.099982 
L 225.823027 469.099982 
L 231.148829 473.720911 
L 231.148829 473.720911 
L 239.984973 488.67972 
L 244.87007 499.938046 
L 247.555127 513.090926 
L 247.555127 513.090926 
L 247.743908 529.560564 
L 248.275862 546.206897 
L 248.275862 546.206897 
L 248.275862 546.206897 
L 248.1563 552.336449 
L 246.251135 557.1173 
L 242.917601 560.949154 
L 238.191389 564.054944 
" clip-path="url(#pd6cef27061)" style="fill: none; stroke: #000000; stroke-width: 1.5"/>
    <path d="M 261.777215 505.300997 
L 262.118855 515.589239 
L 262.118855 515.589239 
L 261.109539 523.776114 
L 261.181775 530.806185 
L 263.079455 536.639547 
L 266.7954 541.59322 
L 273.103448 546.206897 
L 273.103448 546.206897 
L 273.103448 546.206897 
L 281.061554 548.792977 
L 288.77622 548.641365 
L 297.63989 546.091264 
L 307.607092 542.164998 
L 307.607092 542.164998 
L 316.193727 539.147805 
L 323.370477 537.303015 
L 327.580223 536.679896 
L 330.077364 536.562282 
L 331.998059 536.802268 
L 333.537418 537.366805 
L 334.918095 538.2615 
L 336.148646 539.265124 
L 337.21111 540.275635 
L 338.076011 541.343732 
L 338.076011 541.343732 
L 338.985485 542.069505 
L 339.768279 542.901833 
L 340.414272 543.840881 
L 340.414272 543.840881 
L 341.289952 544.433079 
L 342.023546 545.202534 
L 342.558858 546.256576 
L 342.558858 546.256576 
L 343.507176 546.962501 
L 345.246851 548.882319 
L 349.028219 553.143823 
L 355.478167 559.812231 
L 355.478167 559.812231 
" clip-path="url(#pd6cef27061)" style="fill: none; stroke: #000000; stroke-width: 1.5"/>
    <path d="M 247.407456 219.619661 
L 269.44615 210.266909 
L 291.163581 200.166996 
L 313.472419 191.683407 
L 336.567627 185.655306 
L 360.170223 181.632552 
L 383.958802 178.641177 
L 407.813291 176.178517 
L 431.742535 175.116713 
L 448.530449 175.639362 
L 467.776677 179.017088 
L 485.378925 185.502311 
L 485.378925 185.502311 
L 506.387591 196.737268 
L 526.501961 209.769831 
L 546.206897 223.448276 
" clip-path="url(#pd6cef27061)" style="fill: none; stroke: #000000; stroke-width: 1.5"/>
    <path d="M 193.348871 544.296391 
L 198.885066 540.583274 
L 202.385435 536.961835 
L 203.346981 532.627399 
L 201.855402 527.217933 
L 198.62069 521.37931 
L 198.62069 521.37931 
L 198.62069 521.37931 
L 194.231002 511.647001 
L 192.669933 501.465976 
L 191.781161 489.75514 
L 189.261431 466.794492 
L 189.261431 466.794492 
L 189.443792 456.670398 
L 189.443792 456.670398 
L 192.260974 448.317153 
L 197.740345 440.945851 
L 205.719085 434.804683 
" clip-path="url(#pd6cef27061)" style="fill: none; stroke: #000000; stroke-width: 1.5"/>
    <path d="M 448.29175 529.188867 
L 426.000088 522.802981 
L 402.789705 517.200383 
L 379.719418 511.334389 
L 363.635076 505.932091 
L 353.854409 502.919261 
L 344.442965 501.748875 
L 334.779325 503.669989 
L 326.764045 508.613693 
L 326.764045 508.613693 
L 318.810884 515.614002 
L 309.434927 521.496135 
L 303.890225 522.762321 
L 301.507277 522.524299 
L 297.931034 521.37931 
L 297.931034 521.37931 
L 297.931034 521.37931 
L 297.931034 521.37931 
L 297.931034 521.37931 
L 292.467516 519.142782 
L 288.874455 517.741141 
" clip-path="url(#pd6cef27061)" style="fill: none; stroke: #000000; stroke-width: 1.5"/>
    <path d="M 504.604039 533.145662 
L 491.412085 530.454993 
L 481.509611 527.130582 
L 471.724138 521.37931 
L 471.724138 521.37931 
L 453.183136 506.451508 
L 453.183136 506.451508 
L 438.534085 496.704771 
L 421.853082 489.496604 
L 404.392162 482.749679 
L 404.392162 482.749679 
L 388.216289 473.524027 
L 388.216289 473.524027 
L 376.037086 463.218788 
L 366.797258 450.765003 
L 366.797258 450.765003 
L 363.438627 441.813919 
L 362.699324 432.363009 
L 364.131836 422.715784 
L 364.131836 422.715784 
L 367.225133 414.91132 
" clip-path="url(#pd6cef27061)" style="fill: none; stroke: #000000; stroke-width: 1.5"/>
    <path d="M 340.667856 199.990142 
L 364.196619 195.758048 
L 388.013871 193.32005 
L 411.90177 191.178124 
L 434.526799 190.223977 
L 448.436797 190.955873 
L 460.136084 193.26491 
L 471.724138 198.62069 
L 471.724138 198.62069 
" clip-path="url(#pd6cef27061)" style="fill: none; stroke: #000000; stroke-width: 1.5"/>
    <path d="M 161.966969 434.436476 
L 166.445351 424.17901 
L 166.445351 424.17901 
L 174.219574 413.529687 
L 185.611037 403.778361 
L 198.62069 397.241379 
L 198.62069 397.241379 
L 221.40786 389.85451 
" clip-path="url(#pd6cef27061)" style="fill: none; stroke: #000000; stroke-width: 1.5"/>
    <path d="M 238.680155 425.279152 
L 248.629153 422.835534 
L 258.393775 421.287892 
L 268.213398 422.921541 
L 277.756929 427.876631 
L 285.271607 435.09716 
L 290.580107 444.16938 
L 290.580107 444.16938 
L 294.757972 456.814565 
L 294.757972 456.814565 
L 298.32661 472.012792 
L 299.794244 483.453825 
L 297.931034 496.551724 
L 297.931034 496.551724 
L 297.931034 496.551724 
L 295.703804 503.159805 
L 295.703804 503.159805 
" clip-path="url(#pd6cef27061)" style="fill: none; stroke: #000000; stroke-width: 1.5"/>
    <path d="M 215.193445 449.681366 
L 215.193445 449.681366 
L 223.448276 446.896552 
L 223.448276 446.896552 
L 223.448276 446.896552 
L 235.547326 446.34006 
L 246.084447 449.507425 
L 254.216989 455.737861 
L 259.035706 463.252135 
L 261.388346 472.380474 
L 262.72794 482.13494 
L 262.72794 482.13494 
" clip-path="url(#pd6cef27061)" style="fill: none; stroke: #000000; stroke-width: 1.5"/>
    <path d="M 418.141524 467.166842 
L 418.141524 467.166842 
L 407.329348 458.205525 
L 397.241379 446.896552 
L 397.241379 446.896552 
L 397.241379 446.896552 
L 389.675009 433.508351 
L 385.230359 419.034338 
L 385.230359 419.034338 
L 384.836423 411.724053 
L 386.65384 405.057618 
L 390.691778 399.250286 
L 396.405203 393.666217 
L 404.867558 386.818875 
L 404.867558 386.818875 
" clip-path="url(#pd6cef27061)" style="fill: none; stroke: #000000; stroke-width: 1.5"/>
    <path d="M 273.103448 372.413793 
L 296.498954 368.395838 
L 296.498954 368.395838 
L 315.175656 365.486814 
L 333.703667 361.261493 
L 356.200843 355.498029 
L 356.200843 355.498029 
L 366.395534 350.340082 
L 374.231646 343.28972 
L 374.231646 343.28972 
L 383.604531 336.517706 
L 393.886369 332.019832 
L 406.614154 326.331 
" clip-path="url(#pd6cef27061)" style="fill: none; stroke: #000000; stroke-width: 1.5"/>
   </g>
   <g id="patch_3">
    <path d="M 214.633324 294.788255 
Q 216.54799 293.559839 217.051139 293.237028 
" clip-path="url(#pd6cef27061)" style="fill: none; stroke: #000000; stroke-width: 1.5; stroke-linecap: round"/>
    <path d="M 212.604478 293.713687 
L 217.051139 293.237028 
L 214.76447 297.080352 
z
" clip-path="url(#pd6cef27061)" style="stroke: #000000; stroke-width: 1.5; stroke-linecap: round"/>
   </g>
   <g id="patch_4">
    <path d="M 236.439102 662.443209 
Q 236.031161 663.700614 236.140752 663.36282 
" clip-path="url(#pd6cef27061)" style="fill: none; stroke: #000000; stroke-width: 1.5; stroke-linecap: round"/>
    <path d="M 239.277524 660.17524 
L 236.140752 663.36282 
L 235.472752 658.940854 
z
" clip-path="url(#pd6cef27061)" style="stroke: #000000; stroke-width: 1.5; stroke-linecap: round"/>
   </g>
   <g id="patch_5">
    <path d="M 284.039034 679.712552 
Q 283.102557 680.924851 283.191303 680.809967 
" clip-path="url(#pd6cef27061)" style="fill: none; stroke: #000000; stroke-width: 1.5; stroke-linecap: round"/>
    <path d="M 287.219362 678.867099 
L 283.191303 680.809967 
L 284.053844 676.421798 
z
" clip-path="url(#pd6cef27061)" style="stroke: #000000; stroke-width: 1.5; stroke-linecap: round"/>
   </g>
   <g id="patch_6">
    <path d="M 350.565313 657.398992 
Q 350.15796 658.059326 350.631103 657.292345 
" clip-path="url(#pd6cef27061)" style="fill: none; stroke: #000000; stroke-width: 1.5; stroke-linecap: round"/>
    <path d="M 354.43338 654.938053 
L 350.631103 657.292345 
L 351.029035 652.837948 
z
" clip-path="url(#pd6cef27061)" style="stroke: #000000; stroke-width: 1.5; stroke-linecap: round"/>
   </g>
   <g id="patch_7">
    <path d="M 618.204054 341.073402 
Q 620.736993 342.656524 621.847805 343.350796 
" clip-path="url(#pd6cef27061)" style="fill: none; stroke: #000000; stroke-width: 1.5; stroke-linecap: round"/>
    <path d="M 619.515847 339.534781 
L 621.847805 343.350796 
L 617.395818 342.926754 
z
" clip-path="url(#pd6cef27061)" style="stroke: #000000; stroke-width: 1.5; stroke-linecap: round"/>
   </g>
   <g id="patch_8">
    <path d="M 431.72217 620.331071 
Q 431.465135 620.73332 432.111111 619.722392 
" clip-path="url(#pd6cef27061)" style="fill: none; stroke: #000000; stroke-width: 1.5; stroke-linecap: round"/>
    <path d="M 435.950231 617.428671 
L 432.111111 619.722392 
L 432.579606 615.274864 
z
" clip-path="url(#pd6cef27061)" style="stroke: #000000; stroke-width: 1.5; stroke-linecap: round"/>
   </g>
   <g id="patch_9">
    <path d="M 558.159205 627.312946 
Q 556.172289 627.459529 555.85788 627.482724 
" clip-path="url(#pd6cef27061)" style="fill: none; stroke: #000000; stroke-width: 1.5; stroke-linecap: round"/>
    <path d="M 559.994187 629.183008 
L 555.85788 627.482724 
L 559.699891 625.193849 
z
" clip-path="url(#pd6cef27061)" style="stroke: #000000; stroke-width: 1.5; stroke-linecap: round"/>
   </g>
   <g id="patch_10">
    <path d="M 483.469358 688.876894 
Q 482.528881 690.155663 482.582014 690.083418 
" clip-path="url(#pd6cef27061)" style="fill: none; stroke: #000000; stroke-width: 1.5; stroke-linecap: round"/>
    <path d="M 486.56309 688.04601 
L 482.582014 690.083418 
L 483.340734 685.676112 
z
" clip-path="url(#pd6cef27061)" style="stroke: #000000; stroke-width: 1.5; stroke-linecap: round"/>
   </g>
   <g id="patch_11">
    <path d="M 598.146092 686.370595 
Q 594.38887 687.447155 592.243825 688.061776 
" clip-path="url(#pd6cef27061)" style="fill: none; stroke: #000000; stroke-width: 1.5; stroke-linecap: round"/>
    <path d="M 596.639984 688.882622 
L 592.243825 688.061776 
L 595.538197 685.037357 
z
" clip-path="url(#pd6cef27061)" style="stroke: #000000; stroke-width: 1.5; stroke-linecap: round"/>
   </g>
   <g id="patch_12">
    <path d="M 592.981428 711.826735 
Q 590.49701 711.527648 589.677622 711.429005 
" clip-path="url(#pd6cef27061)" style="fill: none; stroke: #000000; stroke-width: 1.5; stroke-linecap: round"/>
    <path d="M 593.409903 713.892758 
L 589.677622 711.429005 
L 593.887993 709.921431 
z
" clip-path="url(#pd6cef27061)" style="stroke: #000000; stroke-width: 1.5; stroke-linecap: round"/>
   </g>
   <g id="patch_13">
    <path d="M 675.527383 687.602137 
Q 675.335202 687.580116 676.80917 687.749016 
" clip-path="url(#pd6cef27061)" style="fill: none; stroke: #000000; stroke-width: 1.5; stroke-linecap: round"/>
    <path d="M 680.555478 690.191387 
L 676.80917 687.749016 
L 681.010852 686.217392 
z
" clip-path="url(#pd6cef27061)" style="stroke: #000000; stroke-width: 1.5; stroke-linecap: round"/>
   </g>
   <g id="patch_14">
    <path d="M 612.021208 569.360148 
Q 611.216741 569.21133 612.061346 569.367573 
" clip-path="url(#pd6cef27061)" style="fill: none; stroke: #000000; stroke-width: 1.5; stroke-linecap: round"/>
    <path d="M 615.630807 572.061817 
L 612.061346 569.367573 
L 616.358418 568.128551 
z
" clip-path="url(#pd6cef27061)" style="stroke: #000000; stroke-width: 1.5; stroke-linecap: round"/>
   </g>
   <g id="patch_15">
    <path d="M 701.107783 513.478141 
Q 701.216292 513.908795 700.915051 512.713224 
" clip-path="url(#pd6cef27061)" style="fill: none; stroke: #000000; stroke-width: 1.5; stroke-linecap: round"/>
    <path d="M 701.877123 508.345798 
L 700.915051 512.713224 
L 697.998353 509.32311 
z
" clip-path="url(#pd6cef27061)" style="stroke: #000000; stroke-width: 1.5; stroke-linecap: round"/>
   </g>
   <g id="patch_16">
    <path d="M 679.760407 359.169594 
Q 682.025587 361.215224 683.046131 362.136852 
" clip-path="url(#pd6cef27061)" style="fill: none; stroke: #000000; stroke-width: 1.5; stroke-linecap: round"/>
    <path d="M 681.417949 357.971636 
L 683.046131 362.136852 
L 678.737049 360.940268 
z
" clip-path="url(#pd6cef27061)" style="stroke: #000000; stroke-width: 1.5; stroke-linecap: round"/>
   </g>
   <g id="patch_17">
    <path d="M 340.490418 151.818701 
Q 344.372728 151.081441 346.607433 150.657066 
" clip-path="url(#pd6cef27061)" style="fill: none; stroke: #000000; stroke-width: 1.5; stroke-linecap: round"/>
    <path d="M 342.304529 149.438454 
L 346.607433 150.657066 
L 343.050801 153.368222 
z
" clip-path="url(#pd6cef27061)" style="stroke: #000000; stroke-width: 1.5; stroke-linecap: round"/>
   </g>
   <g id="patch_18">
    <path d="M 421.282612 105.825783 
Q 424.438918 105.853951 425.91824 105.867152 
" clip-path="url(#pd6cef27061)" style="fill: none; stroke: #000000; stroke-width: 1.5; stroke-linecap: round"/>
    <path d="M 421.936246 103.831537 
L 425.91824 105.867152 
L 421.900551 107.831378 
z
" clip-path="url(#pd6cef27061)" style="stroke: #000000; stroke-width: 1.5; stroke-linecap: round"/>
   </g>
   <g id="patch_19">
    <path d="M 343.41352 67.566543 
Q 347.346997 67.198209 349.610728 66.986231 
" clip-path="url(#pd6cef27061)" style="fill: none; stroke: #000000; stroke-width: 1.5; stroke-linecap: round"/>
    <path d="M 345.441685 65.367874 
L 349.610728 66.986231 
L 345.814617 69.350452 
z
" clip-path="url(#pd6cef27061)" style="stroke: #000000; stroke-width: 1.5; stroke-linecap: round"/>
   </g>
   <g id="patch_20">
    <path d="M 562.607106 47.643134 
Q 565.424684 48.024101 566.580333 48.180358 
" clip-path="url(#pd6cef27061)" style="fill: none; stroke: #000000; stroke-width: 1.5; stroke-linecap: round"/>
    <path d="M 562.884387 45.662426 
L 566.580333 48.180358 
L 562.34842 49.626356 
z
" clip-path="url(#pd6cef27061)" style="stroke: #000000; stroke-width: 1.5; stroke-linecap: round"/>
   </g>
   <g id="patch_21">
    <path d="M 641.695127 42.726398 
Q 643.806033 44.690834 644.689258 45.512773 
" clip-path="url(#pd6cef27061)" style="fill: none; stroke: #000000; stroke-width: 1.5; stroke-linecap: round"/>
    <path d="M 643.123572 41.323665 
L 644.689258 45.512773 
L 640.39856 44.251857 
z
" clip-path="url(#pd6cef27061)" style="stroke: #000000; stroke-width: 1.5; stroke-linecap: round"/>
   </g>
   <g id="patch_22">
    <path d="M 681.114557 41.386053 
Q 683.25794 44.751502 684.500436 46.702418 
" clip-path="url(#pd6cef27061)" style="fill: none; stroke: #000000; stroke-width: 1.5; stroke-linecap: round"/>
    <path d="M 684.038627 42.25419 
L 684.500436 46.702418 
L 680.664768 44.402928 
z
" clip-path="url(#pd6cef27061)" style="stroke: #000000; stroke-width: 1.5; stroke-linecap: round"/>
   </g>
   <g id="patch_23">
    <path d="M 512.258863 9.098641 
Q 516.211416 9.033591 518.487144 8.996138 
" clip-path="url(#pd6cef27061)" style="fill: none; stroke: #000000; stroke-width: 1.5; stroke-linecap: round"/>
    <path d="M 514.454775 7.062231 
L 518.487144 8.996138 
L 514.520597 11.061689 
z
" clip-path="url(#pd6cef27061)" style="stroke: #000000; stroke-width: 1.5; stroke-linecap: round"/>
   </g>
   <g id="patch_24">
    <path d="M 144.038738 29.280662 
Q 146.988413 29.023694 148.267365 28.912275 
" clip-path="url(#pd6cef27061)" style="fill: none; stroke: #000000; stroke-width: 1.5; stroke-linecap: round"/>
    <path d="M 144.10888 27.266976 
L 148.267365 28.912275 
L 144.456035 31.251883 
z
" clip-path="url(#pd6cef27061)" style="stroke: #000000; stroke-width: 1.5; stroke-linecap: round"/>
   </g>
   <g id="patch_25">
    <path d="M 92.732961 9.383747 
Q 93.817705 9.310901 93.229167 9.350424 
" clip-path="url(#pd6cef27061)" style="fill: none; stroke: #000000; stroke-width: 1.5; stroke-linecap: round"/>
    <path d="M 89.104148 7.622935 
L 93.229167 9.350424 
L 89.372164 11.613946 
z
" clip-path="url(#pd6cef27061)" style="stroke: #000000; stroke-width: 1.5; stroke-linecap: round"/>
   </g>
   <g id="patch_26">
    <path d="M 56.254996 12.320447 
Q 56.666637 12.344773 55.404149 12.270166 
" clip-path="url(#pd6cef27061)" style="fill: none; stroke: #000000; stroke-width: 1.5; stroke-linecap: round"/>
    <path d="M 51.5291 10.03768 
L 55.404149 12.270166 
L 51.29313 14.030713 
z
" clip-path="url(#pd6cef27061)" style="stroke: #000000; stroke-width: 1.5; stroke-linecap: round"/>
   </g>
   <g id="patch_27">
    <path d="M 25.624208 30.50041 
Q 25.666443 30.549188 24.610916 29.330125 
" clip-path="url(#pd6cef27061)" style="fill: none; stroke: #000000; stroke-width: 1.5; stroke-linecap: round"/>
    <path d="M 23.504591 24.996992 
L 24.610916 29.330125 
L 20.480614 27.615305 
z
" clip-path="url(#pd6cef27061)" style="stroke: #000000; stroke-width: 1.5; stroke-linecap: round"/>
   </g>
   <g id="patch_28">
    <path d="M 243.483335 72.729283 
Q 246.707765 71.743012 248.328487 71.247274 
" clip-path="url(#pd6cef27061)" style="fill: none; stroke: #000000; stroke-width: 1.5; stroke-linecap: round"/>
    <path d="M 243.918427 70.504732 
L 248.328487 71.247274 
L 245.088418 74.329797 
z
" clip-path="url(#pd6cef27061)" style="stroke: #000000; stroke-width: 1.5; stroke-linecap: round"/>
   </g>
   <g id="patch_29">
    <path d="M 85.112415 100.711789 
Q 88.356092 100.65291 89.922995 100.624468 
" clip-path="url(#pd6cef27061)" style="fill: none; stroke: #000000; stroke-width: 1.5; stroke-linecap: round"/>
    <path d="M 85.887356 98.697393 
L 89.922995 100.624468 
L 85.959951 102.696734 
z
" clip-path="url(#pd6cef27061)" style="stroke: #000000; stroke-width: 1.5; stroke-linecap: round"/>
   </g>
   <g id="patch_30">
    <path d="M 45.644485 215.2581 
Q 47.78972 214.666068 48.318337 214.520183 
" clip-path="url(#pd6cef27061)" style="fill: none; stroke: #000000; stroke-width: 1.5; stroke-linecap: round"/>
    <path d="M 43.930418 213.656375 
L 48.318337 214.520183 
L 44.994539 217.512233 
z
" clip-path="url(#pd6cef27061)" style="stroke: #000000; stroke-width: 1.5; stroke-linecap: round"/>
   </g>
   <g id="patch_31">
    <path d="M 55.915739 292.483298 
Q 57.809313 290.740004 58.469085 290.132593 
" clip-path="url(#pd6cef27061)" style="fill: none; stroke: #000000; stroke-width: 1.5; stroke-linecap: round"/>
    <path d="M 54.171675 291.370439 
L 58.469085 290.132593 
L 56.880916 294.313229 
z
" clip-path="url(#pd6cef27061)" style="stroke: #000000; stroke-width: 1.5; stroke-linecap: round"/>
   </g>
   <g id="patch_32">
    <path d="M 44.356246 358.871474 
Q 46.454474 355.509095 47.664858 353.569473 
" clip-path="url(#pd6cef27061)" style="fill: none; stroke: #000000; stroke-width: 1.5; stroke-linecap: round"/>
    <path d="M 43.850493 355.904128 
L 47.664858 353.569473 
L 47.243964 358.021758 
z
" clip-path="url(#pd6cef27061)" style="stroke: #000000; stroke-width: 1.5; stroke-linecap: round"/>
   </g>
   <g id="patch_33">
    <path d="M 22.373943 436.274085 
Q 23.837988 434.628607 24.187267 434.236043 
" clip-path="url(#pd6cef27061)" style="fill: none; stroke: #000000; stroke-width: 1.5; stroke-linecap: round"/>
    <path d="M 20.034206 435.894982 
L 24.187267 434.236043 
L 23.022582 438.553856 
z
" clip-path="url(#pd6cef27061)" style="stroke: #000000; stroke-width: 1.5; stroke-linecap: round"/>
   </g>
   <g id="patch_34">
    <path d="M 13.817967 539.751934 
Q 14.145302 538.995341 13.806723 539.777923 
" clip-path="url(#pd6cef27061)" style="fill: none; stroke: #000000; stroke-width: 1.5; stroke-linecap: round"/>
    <path d="M 10.382852 542.654918 
L 13.806723 539.777923 
L 14.053997 544.243217 
z
" clip-path="url(#pd6cef27061)" style="stroke: #000000; stroke-width: 1.5; stroke-linecap: round"/>
   </g>
   <g id="patch_35">
    <path d="M 119.108661 389.285907 
Q 119.921012 388.108583 119.780926 388.311608 
" clip-path="url(#pd6cef27061)" style="fill: none; stroke: #000000; stroke-width: 1.5; stroke-linecap: round"/>
    <path d="M 115.863067 390.468084 
L 119.780926 388.311608 
L 119.155391 392.73978 
z
" clip-path="url(#pd6cef27061)" style="stroke: #000000; stroke-width: 1.5; stroke-linecap: round"/>
   </g>
   <g id="patch_36">
    <path d="M 679.955718 492.750777 
Q 677.688137 495.965038 676.387311 497.80894 
" clip-path="url(#pd6cef27061)" style="fill: none; stroke: #000000; stroke-width: 1.5; stroke-linecap: round"/>
    <path d="M 680.327404 495.693363 
L 676.387311 497.80894 
L 677.058905 493.387519 
z
" clip-path="url(#pd6cef27061)" style="stroke: #000000; stroke-width: 1.5; stroke-linecap: round"/>
   </g>
   <g id="patch_37">
    <path d="M 696.238909 26.520426 
Q 698.371432 29.905363 699.610019 31.871363 
" clip-path="url(#pd6cef27061)" style="fill: none; stroke: #000000; stroke-width: 1.5; stroke-linecap: round"/>
    <path d="M 699.17004 27.420922 
L 699.610019 31.871363 
L 695.785679 29.553082 
z
" clip-path="url(#pd6cef27061)" style="stroke: #000000; stroke-width: 1.5; stroke-linecap: round"/>
   </g>
   <g id="patch_38">
    <path d="M 236.125091 35.565653 
Q 239.868501 34.257069 242.028801 33.501892 
" clip-path="url(#pd6cef27061)" style="fill: none; stroke: #000000; stroke-width: 1.5; stroke-linecap: round"/>
    <path d="M 237.592884 32.933879 
L 242.028801 33.501892 
L 238.91284 36.709818 
z
" clip-path="url(#pd6cef27061)" style="stroke: #000000; stroke-width: 1.5; stroke-linecap: round"/>
   </g>
   <g id="patch_39">
    <path d="M 55.321975 585.527887 
Q 56.477865 581.723745 57.146192 579.524216 
" clip-path="url(#pd6cef27061)" style="fill: none; stroke: #000000; stroke-width: 1.5; stroke-linecap: round"/>
    <path d="M 54.069676 582.769989 
L 57.146192 579.524216 
L 57.896901 583.932893 
z
" clip-path="url(#pd6cef27061)" style="stroke: #000000; stroke-width: 1.5; stroke-linecap: round"/>
   </g>
   <g id="patch_40">
    <path d="M 106.430803 607.672371 
Q 107.47077 603.941759 108.060404 601.826604 
" clip-path="url(#pd6cef27061)" style="fill: none; stroke: #000000; stroke-width: 1.5; stroke-linecap: round"/>
    <path d="M 105.05975 605.142637 
L 108.060404 601.826604 
L 108.912838 606.216747 
z
" clip-path="url(#pd6cef27061)" style="stroke: #000000; stroke-width: 1.5; stroke-linecap: round"/>
   </g>
   <g id="patch_41">
    <path d="M 147.061627 648.465658 
Q 146.675966 648.423215 147.957292 648.564227 
" clip-path="url(#pd6cef27061)" style="fill: none; stroke: #000000; stroke-width: 1.5; stroke-linecap: round"/>
    <path d="M 151.714505 650.989789 
L 147.957292 648.564227 
L 152.152069 647.013794 
z
" clip-path="url(#pd6cef27061)" style="stroke: #000000; stroke-width: 1.5; stroke-linecap: round"/>
   </g>
   <g id="patch_42">
    <path d="M 178.004862 627.064232 
Q 178.147145 627.390983 177.619884 626.180136 
" clip-path="url(#pd6cef27061)" style="fill: none; stroke: #000000; stroke-width: 1.5; stroke-linecap: round"/>
    <path d="M 177.856619 621.714271 
L 177.619884 626.180136 
L 174.189233 623.311229 
z
" clip-path="url(#pd6cef27061)" style="stroke: #000000; stroke-width: 1.5; stroke-linecap: round"/>
   </g>
   <g id="patch_43">
    <path d="M 215.84543 632.194604 
Q 215.414226 632.891417 215.865514 632.162148 
" clip-path="url(#pd6cef27061)" style="fill: none; stroke: #000000; stroke-width: 1.5; stroke-linecap: round"/>
    <path d="M 219.67108 629.813177 
L 215.865514 632.162148 
L 216.269676 627.708313 
z
" clip-path="url(#pd6cef27061)" style="stroke: #000000; stroke-width: 1.5; stroke-linecap: round"/>
   </g>
   <g id="patch_44">
    <path d="M 379.006701 688.791204 
Q 376.266418 691.675915 374.68116 693.344725 
" clip-path="url(#pd6cef27061)" style="fill: none; stroke: #000000; stroke-width: 1.5; stroke-linecap: round"/>
    <path d="M 378.886103 691.822078 
L 374.68116 693.344725 
L 375.986009 689.067182 
z
" clip-path="url(#pd6cef27061)" style="stroke: #000000; stroke-width: 1.5; stroke-linecap: round"/>
   </g>
   <g id="patch_45">
    <path d="M 604.964485 661.239183 
Q 602.535241 661.842693 601.733574 662.041856 
" clip-path="url(#pd6cef27061)" style="fill: none; stroke: #000000; stroke-width: 1.5; stroke-linecap: round"/>
    <path d="M 606.097781 663.018428 
L 601.733574 662.041856 
L 605.133356 659.136433 
z
" clip-path="url(#pd6cef27061)" style="stroke: #000000; stroke-width: 1.5; stroke-linecap: round"/>
   </g>
   <g id="patch_46">
    <path d="M 629.987808 251.073517 
Q 633.507575 252.97086 635.551112 254.072436 
" clip-path="url(#pd6cef27061)" style="fill: none; stroke: #000000; stroke-width: 1.5; stroke-linecap: round"/>
    <path d="M 632.979106 250.413914 
L 635.551112 254.072436 
L 631.081091 253.934928 
z
" clip-path="url(#pd6cef27061)" style="stroke: #000000; stroke-width: 1.5; stroke-linecap: round"/>
   </g>
   <g id="patch_47">
    <path d="M 325.14099 613.847676 
Q 325.279693 614.766242 325.168001 614.026555 
" clip-path="url(#pd6cef27061)" style="fill: none; stroke: #000000; stroke-width: 1.5; stroke-linecap: round"/>
    <path d="M 326.548357 609.772778 
L 325.168001 614.026555 
L 322.593193 610.370005 
z
" clip-path="url(#pd6cef27061)" style="stroke: #000000; stroke-width: 1.5; stroke-linecap: round"/>
   </g>
   <g id="patch_48">
    <path d="M 379.386494 597.05745 
Q 379.243845 597.307825 379.931391 596.101052 
" clip-path="url(#pd6cef27061)" style="fill: none; stroke: #000000; stroke-width: 1.5; stroke-linecap: round"/>
    <path d="M 383.649267 593.615615 
L 379.931391 596.101052 
L 380.173767 591.635489 
z
" clip-path="url(#pd6cef27061)" style="stroke: #000000; stroke-width: 1.5; stroke-linecap: round"/>
   </g>
   <g id="patch_49">
    <path d="M 434.077198 667.980955 
Q 432.234663 671.486865 431.17232 673.508255 
" clip-path="url(#pd6cef27061)" style="fill: none; stroke: #000000; stroke-width: 1.5; stroke-linecap: round"/>
    <path d="M 434.803579 670.897899 
L 431.17232 673.508255 
L 431.26279 669.037034 
z
" clip-path="url(#pd6cef27061)" style="stroke: #000000; stroke-width: 1.5; stroke-linecap: round"/>
   </g>
   <g id="patch_50">
    <path d="M 643.581195 595.352681 
Q 639.728225 594.338937 637.497108 593.751914 
" clip-path="url(#pd6cef27061)" style="fill: none; stroke: #000000; stroke-width: 1.5; stroke-linecap: round"/>
    <path d="M 640.856559 596.703877 
L 637.497108 593.751914 
L 641.874349 592.835531 
z
" clip-path="url(#pd6cef27061)" style="stroke: #000000; stroke-width: 1.5; stroke-linecap: round"/>
   </g>
   <g id="patch_51">
    <path d="M 608.903576 96.493769 
Q 612.163304 98.776441 614.04931 100.097144 
" clip-path="url(#pd6cef27061)" style="fill: none; stroke: #000000; stroke-width: 1.5; stroke-linecap: round"/>
    <path d="M 611.920005 96.164453 
L 614.04931 100.097144 
L 609.625574 99.440973 
z
" clip-path="url(#pd6cef27061)" style="stroke: #000000; stroke-width: 1.5; stroke-linecap: round"/>
   </g>
   <g id="patch_52">
    <path d="M 185.204176 266.129058 
Q 188.961272 264.940528 191.119415 264.257816 
" clip-path="url(#pd6cef27061)" style="fill: none; stroke: #000000; stroke-width: 1.5; stroke-linecap: round"/>
    <path d="M 186.702469 263.557397 
L 191.119415 264.257816 
L 187.908913 267.371122 
z
" clip-path="url(#pd6cef27061)" style="stroke: #000000; stroke-width: 1.5; stroke-linecap: round"/>
   </g>
   <g id="patch_53">
    <path d="M 194.79782 605.215551 
Q 195.522591 605.443635 194.647655 605.168294 
" clip-path="url(#pd6cef27061)" style="fill: none; stroke: #000000; stroke-width: 1.5; stroke-linecap: round"/>
    <path d="M 191.432501 602.059792 
L 194.647655 605.168294 
L 190.231761 605.875316 
z
" clip-path="url(#pd6cef27061)" style="stroke: #000000; stroke-width: 1.5; stroke-linecap: round"/>
   </g>
   <g id="patch_54">
    <path d="M 589.589781 480.735062 
Q 588.531434 481.47818 588.845594 481.257593 
" clip-path="url(#pd6cef27061)" style="fill: none; stroke: #000000; stroke-width: 1.5; stroke-linecap: round"/>
    <path d="M 593.268497 480.595832 
L 588.845594 481.257593 
L 590.969927 477.322214 
z
" clip-path="url(#pd6cef27061)" style="stroke: #000000; stroke-width: 1.5; stroke-linecap: round"/>
   </g>
   <g id="patch_55">
    <path d="M 556.195374 352.255748 
Q 557.778651 352.248336 557.684894 352.248775 
" clip-path="url(#pd6cef27061)" style="fill: none; stroke: #000000; stroke-width: 1.5; stroke-linecap: round"/>
    <path d="M 553.675576 350.267522 
L 557.684894 352.248775 
L 553.694301 354.267478 
z
" clip-path="url(#pd6cef27061)" style="stroke: #000000; stroke-width: 1.5; stroke-linecap: round"/>
   </g>
   <g id="patch_56">
    <path d="M 153.2602 142.013011 
Q 155.984782 142.510911 157.059633 142.707333 
" clip-path="url(#pd6cef27061)" style="fill: none; stroke: #000000; stroke-width: 1.5; stroke-linecap: round"/>
    <path d="M 153.484329 140.020848 
L 157.059633 142.707333 
L 152.765263 143.955685 
z
" clip-path="url(#pd6cef27061)" style="stroke: #000000; stroke-width: 1.5; stroke-linecap: round"/>
   </g>
   <g id="patch_57">
    <path d="M 119.478839 172.296503 
Q 119.798255 172.333256 118.451613 172.178308 
" clip-path="url(#pd6cef27061)" style="fill: none; stroke: #000000; stroke-width: 1.5; stroke-linecap: round"/>
    <path d="M 114.706448 169.734185 
L 118.451613 172.178308 
L 114.249216 173.707967 
z
" clip-path="url(#pd6cef27061)" style="stroke: #000000; stroke-width: 1.5; stroke-linecap: round"/>
   </g>
   <g id="patch_58">
    <path d="M 213.986905 414.549674 
Q 215.705936 414.087147 215.805513 414.060355 
" clip-path="url(#pd6cef27061)" style="fill: none; stroke: #000000; stroke-width: 1.5; stroke-linecap: round"/>
    <path d="M 211.423243 413.16833 
L 215.805513 414.060355 
L 212.462531 417.030956 
z
" clip-path="url(#pd6cef27061)" style="stroke: #000000; stroke-width: 1.5; stroke-linecap: round"/>
   </g>
   <g id="patch_59">
    <path d="M 225.385359 596.367089 
Q 226.255459 596.593934 225.502753 596.397695 
" clip-path="url(#pd6cef27061)" style="fill: none; stroke: #000000; stroke-width: 1.5; stroke-linecap: round"/>
    <path d="M 222.136692 593.453271 
L 225.502753 596.397695 
L 221.127577 597.323889 
z
" clip-path="url(#pd6cef27061)" style="stroke: #000000; stroke-width: 1.5; stroke-linecap: round"/>
   </g>
   <g id="patch_60">
    <path d="M 270.592686 575.659316 
Q 270.026678 575.987789 270.911162 575.474495 
" clip-path="url(#pd6cef27061)" style="fill: none; stroke: #000000; stroke-width: 1.5; stroke-linecap: round"/>
    <path d="M 275.374655 575.196578 
L 270.911162 575.474495 
L 273.366924 571.736951 
z
" clip-path="url(#pd6cef27061)" style="stroke: #000000; stroke-width: 1.5; stroke-linecap: round"/>
   </g>
   <g id="patch_61">
    <path d="M 580.511519 442.94433 
Q 578.983311 444.608002 578.589609 445.036604 
" clip-path="url(#pd6cef27061)" style="fill: none; stroke: #000000; stroke-width: 1.5; stroke-linecap: round"/>
    <path d="M 582.768468 443.443765 
L 578.589609 445.036604 
L 579.822654 440.737813 
z
" clip-path="url(#pd6cef27061)" style="stroke: #000000; stroke-width: 1.5; stroke-linecap: round"/>
   </g>
   <g id="patch_62">
    <path d="M 487.883925 288.916033 
Q 490.759514 288.211654 492.006208 287.906274 
" clip-path="url(#pd6cef27061)" style="fill: none; stroke: #000000; stroke-width: 1.5; stroke-linecap: round"/>
    <path d="M 487.645231 286.915374 
L 492.006208 287.906274 
L 488.596901 290.800515 
z
" clip-path="url(#pd6cef27061)" style="stroke: #000000; stroke-width: 1.5; stroke-linecap: round"/>
   </g>
   <g id="patch_63">
    <path d="M 535.472075 102.545771 
Q 538.032091 103.934093 539.117886 104.52293 
" clip-path="url(#pd6cef27061)" style="fill: none; stroke: #000000; stroke-width: 1.5; stroke-linecap: round"/>
    <path d="M 536.555106 100.857939 
L 539.117886 104.52293 
L 534.648225 104.37416 
z
" clip-path="url(#pd6cef27061)" style="stroke: #000000; stroke-width: 1.5; stroke-linecap: round"/>
   </g>
   <g id="patch_64">
    <path d="M 400.944947 122.542966 
Q 404.942249 122.635407 407.262949 122.689075 
" clip-path="url(#pd6cef27061)" style="fill: none; stroke: #000000; stroke-width: 1.5; stroke-linecap: round"/>
    <path d="M 403.310257 120.597131 
L 407.262949 122.689075 
L 403.217778 124.596062 
z
" clip-path="url(#pd6cef27061)" style="stroke: #000000; stroke-width: 1.5; stroke-linecap: round"/>
   </g>
   <g id="patch_65">
    <path d="M 166.135145 298.580465 
Q 169.211619 297.264901 170.746109 296.608722 
" clip-path="url(#pd6cef27061)" style="fill: none; stroke: #000000; stroke-width: 1.5; stroke-linecap: round"/>
    <path d="M 166.281902 296.342522 
L 170.746109 296.608722 
L 167.854625 300.020367 
z
" clip-path="url(#pd6cef27061)" style="stroke: #000000; stroke-width: 1.5; stroke-linecap: round"/>
   </g>
   <g id="patch_66">
    <path d="M 113.967487 458.643178 
Q 114.437724 456.702289 114.513071 456.391296 
" clip-path="url(#pd6cef27061)" style="fill: none; stroke: #000000; stroke-width: 1.5; stroke-linecap: round"/>
    <path d="M 111.627439 459.807892 
L 114.513071 456.391296 
L 115.514969 460.749759 
z
" clip-path="url(#pd6cef27061)" style="stroke: #000000; stroke-width: 1.5; stroke-linecap: round"/>
   </g>
   <g id="patch_67">
    <path d="M 209.073082 564.454159 
Q 209.692978 564.244739 208.724039 564.572077 
" clip-path="url(#pd6cef27061)" style="fill: none; stroke: #000000; stroke-width: 1.5; stroke-linecap: round"/>
    <path d="M 204.29433 563.957526 
L 208.724039 564.572077 
L 205.574573 567.747114 
z
" clip-path="url(#pd6cef27061)" style="stroke: #000000; stroke-width: 1.5; stroke-linecap: round"/>
   </g>
   <g id="patch_68">
    <path d="M 554.241463 442.573507 
Q 553.165455 443.212909 553.53116 442.995594 
" clip-path="url(#pd6cef27061)" style="fill: none; stroke: #000000; stroke-width: 1.5; stroke-linecap: round"/>
    <path d="M 557.991541 442.671548 
L 553.53116 442.995594 
L 555.948151 439.232862 
z
" clip-path="url(#pd6cef27061)" style="stroke: #000000; stroke-width: 1.5; stroke-linecap: round"/>
   </g>
   <g id="patch_69">
    <path d="M 270.684014 355.112376 
Q 274.383721 353.69459 276.517427 352.876921 
" clip-path="url(#pd6cef27061)" style="fill: none; stroke: #000000; stroke-width: 1.5; stroke-linecap: round"/>
    <path d="M 272.066615 352.440716 
L 276.517427 352.876921 
L 273.497976 356.175847 
z
" clip-path="url(#pd6cef27061)" style="stroke: #000000; stroke-width: 1.5; stroke-linecap: round"/>
   </g>
   <g id="patch_70">
    <path d="M 146.335034 502.561663 
Q 146.33723 498.64621 146.338485 496.407807 
" clip-path="url(#pd6cef27061)" style="fill: none; stroke: #000000; stroke-width: 1.5; stroke-linecap: round"/>
    <path d="M 144.336242 500.406685 
L 146.338485 496.407807 
L 148.336242 500.408928 
z
" clip-path="url(#pd6cef27061)" style="stroke: #000000; stroke-width: 1.5; stroke-linecap: round"/>
   </g>
   <g id="patch_71">
    <path d="M 232.1649 475.441028 
Q 233.356763 477.458747 233.695687 478.032515 
" clip-path="url(#pd6cef27061)" style="fill: none; stroke: #000000; stroke-width: 1.5; stroke-linecap: round"/>
    <path d="M 233.38332 473.571302 
L 233.695687 478.032515 
L 229.939296 475.605681 
z
" clip-path="url(#pd6cef27061)" style="stroke: #000000; stroke-width: 1.5; stroke-linecap: round"/>
   </g>
   <g id="patch_72">
    <path d="M 290.702163 548.087266 
Q 290.994599 548.003131 289.675359 548.38268 
" clip-path="url(#pd6cef27061)" style="fill: none; stroke: #000000; stroke-width: 1.5; stroke-linecap: round"/>
    <path d="M 285.278314 547.566593 
L 289.675359 548.38268 
L 286.384263 551.410664 
z
" clip-path="url(#pd6cef27061)" style="stroke: #000000; stroke-width: 1.5; stroke-linecap: round"/>
   </g>
   <g id="patch_73">
    <path d="M 385.947646 178.435855 
Q 389.924462 178.025301 392.233093 177.786966 
" clip-path="url(#pd6cef27061)" style="fill: none; stroke: #000000; stroke-width: 1.5; stroke-linecap: round"/>
    <path d="M 388.048858 176.208303 
L 392.233093 177.786966 
L 388.459622 180.187156 
z
" clip-path="url(#pd6cef27061)" style="stroke: #000000; stroke-width: 1.5; stroke-linecap: round"/>
   </g>
   <g id="patch_74">
    <path d="M 191.563084 487.767945 
Q 191.151303 484.015656 190.922465 481.93041 
" clip-path="url(#pd6cef27061)" style="fill: none; stroke: #000000; stroke-width: 1.5; stroke-linecap: round"/>
    <path d="M 189.370746 486.124712 
L 190.922465 481.93041 
L 193.346875 485.688366 
z
" clip-path="url(#pd6cef27061)" style="stroke: #000000; stroke-width: 1.5; stroke-linecap: round"/>
   </g>
   <g id="patch_75">
    <path d="M 377.822754 510.69735 
Q 375.696733 509.983277 375.160486 509.803166 
" clip-path="url(#pd6cef27061)" style="fill: none; stroke: #000000; stroke-width: 1.5; stroke-linecap: round"/>
    <path d="M 378.315533 512.972658 
L 375.160486 509.803166 
L 379.589108 509.180824 
z
" clip-path="url(#pd6cef27061)" style="stroke: #000000; stroke-width: 1.5; stroke-linecap: round"/>
   </g>
   <g id="patch_76">
    <path d="M 419.990186 488.776778 
Q 417.490298 487.810818 416.554741 487.449318 
" clip-path="url(#pd6cef27061)" style="fill: none; stroke: #000000; stroke-width: 1.5; stroke-linecap: round"/>
    <path d="M 419.565027 490.75661 
L 416.554741 487.449318 
L 421.006746 487.025465 
z
" clip-path="url(#pd6cef27061)" style="stroke: #000000; stroke-width: 1.5; stroke-linecap: round"/>
   </g>
   <g id="patch_77">
    <path d="M 390.005501 193.141469 
Q 393.987887 192.784385 396.299923 192.577075 
" clip-path="url(#pd6cef27061)" style="fill: none; stroke: #000000; stroke-width: 1.5; stroke-linecap: round"/>
    <path d="M 392.137291 190.942297 
L 396.299923 192.577075 
L 392.494521 194.926313 
z
" clip-path="url(#pd6cef27061)" style="stroke: #000000; stroke-width: 1.5; stroke-linecap: round"/>
   </g>
   <g id="patch_78">
    <path d="M 175.740846 412.227447 
Q 177.068805 411.090687 177.122746 411.044512 
" clip-path="url(#pd6cef27061)" style="fill: none; stroke: #000000; stroke-width: 1.5; stroke-linecap: round"/>
    <path d="M 172.783436 412.126356 
L 177.122746 411.044512 
L 175.384634 415.165067 
z
" clip-path="url(#pd6cef27061)" style="stroke: #000000; stroke-width: 1.5; stroke-linecap: round"/>
   </g>
   <g id="patch_79">
    <path d="M 286.281207 436.822565 
Q 286.598412 437.364668 286.068652 436.459309 
" clip-path="url(#pd6cef27061)" style="fill: none; stroke: #000000; stroke-width: 1.5; stroke-linecap: round"/>
    <path d="M 285.774722 431.996843 
L 286.068652 436.459309 
L 282.322321 434.016974 
z
" clip-path="url(#pd6cef27061)" style="stroke: #000000; stroke-width: 1.5; stroke-linecap: round"/>
   </g>
   <g id="patch_80">
    <path d="M 247.670849 450.722786 
Q 248.117661 451.065094 247.233199 450.387497 
" clip-path="url(#pd6cef27061)" style="fill: none; stroke: #000000; stroke-width: 1.5; stroke-linecap: round"/>
    <path d="M 245.274231 446.367242 
L 247.233199 450.387497 
L 242.841615 449.542518 
z
" clip-path="url(#pd6cef27061)" style="stroke: #000000; stroke-width: 1.5; stroke-linecap: round"/>
   </g>
   <g id="patch_81">
    <path d="M 389.087959 431.596622 
Q 388.563761 429.889569 388.53186 429.785682 
" clip-path="url(#pd6cef27061)" style="fill: none; stroke: #000000; stroke-width: 1.5; stroke-linecap: round"/>
    <path d="M 387.794169 434.196557 
L 388.53186 429.785682 
L 391.617945 433.022359 
z
" clip-path="url(#pd6cef27061)" style="stroke: #000000; stroke-width: 1.5; stroke-linecap: round"/>
   </g>
   <g id="patch_82">
    <path d="M 335.639765 360.765492 
Q 339.325201 359.821334 341.386051 359.293373 
" clip-path="url(#pd6cef27061)" style="fill: none; stroke: #000000; stroke-width: 1.5; stroke-linecap: round"/>
    <path d="M 337.014843 358.348627 
L 341.386051 359.293373 
L 338.00753 362.223492 
z
" clip-path="url(#pd6cef27061)" style="stroke: #000000; stroke-width: 1.5; stroke-linecap: round"/>
   </g>
   <g id="patch_83">
    <path d="M 0 720 
L 0 720 
L 0 0 
L 720 0 
L 720 720 
L 0 720 
z
" style="fill: none; stroke: #000000; stroke-width: 0.8; stroke-linejoin: miter; stroke-linecap: square"/>
   </g>
  </g>
 </g>
 <defs>
  <clipPath id="pd6cef27061">
   <path d="M 0 720 
L 0 720 
L 0 0 
L 720 0 
L 720 720 
z
"/>
  </clipPath>
 </defs>
</svg>
