<?xml version="1.0" encoding="utf-8" standalone="no"?>
<!DOCTYPE svg PUBLIC "-//W3C//DTD SVG 1.1//EN"
  "http://www.w3.org/Graphics/SVG/1.1/DTD/svg11.dtd">
<svg xmlns:xlink="http://www.w3.org/1999/xlink" width="720pt" height="720pt" viewBox="0 0 720 720" xmlns="http://www.w3.org/2000/svg" version="1.1">
 <metadata>
  <rdf:RDF xmlns:dc="http://purl.org/dc/elements/1.1/" xmlns:cc="http://creativecommons.org/ns#" xmlns:rdf="http://www.w3.org/1999/02/22-rdf-syntax-ns#">
   <cc:Work>
    <dc:type rdf:resource="http://purl.org/dc/dcmitype/StillImage"/>
    <dc:date>2026-03-20T18:58:41.569448</dc:date>
    <dc:format>image/svg+xml</dc:format>
    <dc:creator>
     <cc:Agent>
      <dc:title>Matplotlib v3.10.8, https://matplotlib.org/</dc:title>
     </cc:Agent>
    </dc:creator>
   </cc:Work>
  </rdf:RDF>
 </metadata>
 <defs>
  <style type="text/css">*{stroke-linejoin: round; stroke-linecap: butt}</style>
 </defs>
 <g id="figure_1">
  <g id="patch_1">
   <path d="M 0 720 
L 720 720 
L 720 0 
L 0 0 
L 0 720 
z
" style="fill: none"/>
  </g>
  <g id="axes_1">
   <g id="patch_2">
    <path d="M 0 720 
L 0 720 
L 0 0 
L 720 0 
L 720 720 
L 0 720 
z
" style="fill: none"/>
   </g>
   <g id="LineCollection_1">
    <path d="M 47.64338 653.434377 
L 47.64338 653.434377 
L 47.64338 653.434377 
L 47.64338 653.434377 
L 47.64338 653.434377 
L 47.64338 653.434377 
L 47.64338 653.434377 
L 47.64338 653.434377 
L 47.64338 653.434377 
L 47.64338 653.434377 
L 47.64338 653.434377 
L 47.64338 653.434377 
L 47.643379 653.434377 
L 47.64338 653.434377 
L 47.64338 653.434377 
L 47.643379 653.434377 
L 47.64338 653.434377 
L 47.643378 653.434377 
L 47.643381 653.434376 
L 47.643379 653.434379 
L 47.643377 653.434374 
L 47.643387 653.434378 
L 47.643369 653.434381 
L 47.643389 653.434365 
L 47.643382 653.434397 
L 47.643352 653.434357 
L 47.643439 653.434379 
L 47.6433 653.434418 
L 47.643433 653.434274 
L 47.643437 653.434529 
L 47.64312 653.434252 
L 47.64387 653.434326 
L 47.642804 653.434789 
L 47.643626 653.433507 
L 47.64412 653.43551 
L 47.641033 653.433672 
L 47.647292 653.433449 
L 47.639424 653.438237 
L 47.643812 653.42727 
L 47.651468 653.442485 
L 47.622907 653.431377 
L 47.673631 653.422915 
L 47.61806 653.469028 
L 47.63378 653.377869 
L 47.723196 653.489378 
L 47.46922 653.43427 
L 47.868987 653.314689 
L 47.497976 653.73398 
L 47.437703 652.990208 
L 48.856557 653.077553 
L 48.761513 654.919615 
L 45.739859 656.335902 
L 42.314268 655.920546 
L 39.82715 654.087238 
L 38.743046 651.364139 
L 39.18076 647.650041 
L 42.732347 642.978805 
L 49.115695 640.243297 
L 49.115695 640.243297 
L 59.11577 639.480824 
L 66.615422 640.892205 
L 73.632485 644.554685 
L 73.632485 644.554685 
L 79.728243 650.61561 
L 82.814509 655.590137 
L 83.582691 660.243932 
L 81.75288 666.257301 
L 77.547238 671.917181 
L 77.547238 671.917181 
L 61.888699 686.831336 
L 42.722012 700.865093 
L 22.399479 711.573902 
L 0 720 
L 0 720 
" clip-path="url(#pc43664b118)" style="fill: none; stroke: #000000; stroke-width: 1.5"/>
    <path d="M 93.483007 639.462959 
L 93.483007 639.462959 
L 93.483007 639.462959 
L 108.588207 639.734739 
L 123.275428 641.223774 
L 137.443683 645.159627 
L 148.261677 650.074908 
L 155.490943 654.670428 
L 159.620854 658.795083 
L 161.011815 662.560824 
L 160.02552 665.89684 
L 155.379478 669.756536 
L 155.379478 669.756536 
L 134.263532 679.573066 
L 113.240522 688.768985 
L 92.285181 699.188667 
L 71.276697 710.098014 
L 49.655172 720 
L 49.655172 720 
" clip-path="url(#pc43664b118)" style="fill: none; stroke: #000000; stroke-width: 1.5"/>
    <path d="M 261.512731 703.022636 
L 261.512731 703.022636 
L 261.512731 703.022636 
L 261.512731 703.022636 
L 261.512731 703.022636 
L 261.512731 703.022636 
L 261.512731 703.022636 
L 261.512731 703.022636 
L 261.512731 703.022636 
L 261.512731 703.022636 
L 261.512731 703.022636 
L 261.512731 703.022636 
L 261.512731 703.022636 
L 261.512731 703.022636 
L 261.512731 703.022636 
L 261.512731 703.022636 
L 261.512731 703.022636 
L 261.512731 703.022636 
L 261.512731 703.022636 
L 261.512731 703.022636 
L 261.512731 703.022636 
L 261.512731 703.022636 
L 261.512731 703.022636 
L 261.512731 703.022636 
L 261.512731 703.022636 
L 261.512731 703.022636 
L 261.512731 703.022636 
L 261.512731 703.022636 
L 261.512731 703.022636 
L 261.512731 703.022636 
L 261.512731 703.022636 
L 261.512731 703.022636 
L 261.512731 703.022636 
L 261.512731 703.022636 
L 261.512731 703.022636 
L 261.512731 703.022636 
L 261.512731 703.022636 
L 261.512731 703.022636 
L 261.512731 703.022636 
L 261.512731 703.022636 
L 261.512731 703.022634 
L 261.51273 703.022629 
L 261.512719 703.022621 
L 261.512663 703.022625 
L 261.512422 703.022774 
L 261.51153 703.023771 
L 261.508665 703.028656 
L 261.501153 703.048862 
L 261.488761 703.121758 
L 261.507053 703.348017 
L 261.454965 704.108891 
L 260.864879 706.054197 
L 259.157047 709.089418 
L 256.469006 711.990114 
L 253.696112 713.669395 
L 248.900339 714.686736 
L 243.263275 713.356773 
L 243.263275 713.356773 
L 236.152903 709.405244 
L 236.152903 709.405244 
L 224.78394 700.377957 
L 218.24146 694.562567 
L 211.250883 691.47832 
L 211.250883 691.47832 
L 200.947019 691.230035 
L 200.947019 691.230035 
L 185.417111 694.765388 
L 185.417111 694.765388 
L 163.458668 700.227115 
L 144.093502 703.987955 
L 121.35717 710.68926 
L 99.310345 720 
L 99.310345 720 
" clip-path="url(#pc43664b118)" style="fill: none; stroke: #000000; stroke-width: 1.5"/>
    <path d="M 322.758621 720 
L 322.758621 720 
L 322.758621 720 
L 317.050584 715.145591 
L 317.050584 715.145591 
L 311.872204 711.883782 
L 307.452313 710.342665 
L 303.786452 710.107411 
L 299.744005 710.935289 
L 294.236753 713.128229 
L 294.236753 713.128229 
L 288.380338 717.042727 
L 284.340312 720 
" clip-path="url(#pc43664b118)" style="fill: none; stroke: #000000; stroke-width: 1.5"/>
    <path d="M 347.586207 720 
L 347.586207 720 
L 347.586207 720 
L 347.586207 720 
L 349.714403 709.487077 
L 349.323756 699.546466 
L 346.359314 684.940543 
L 346.359314 684.940543 
L 344.648699 679.08125 
L 344.648699 679.08125 
L 343.471263 675.186457 
L 342.980384 672.9079 
L 342.803848 671.773616 
L 342.841776 671.207294 
L 343.076033 670.820257 
L 343.470453 670.587698 
L 343.992389 670.499939 
L 343.992389 670.499939 
L 343.936507 670.29201 
L 343.791284 670.216922 
L 343.793402 670.158429 
L 344.010866 670.089962 
L 344.440506 669.919812 
L 344.895548 669.495228 
L 345.403527 668.75614 
L 346.435273 667.633151 
L 348.734177 665.831134 
L 348.734177 665.831134 
L 354.162537 663.006953 
L 362.320644 659.040445 
L 374.57491 652.929318 
L 392.060508 644.045307 
L 392.060508 644.045307 
L 407.492917 634.285362 
L 421.023829 621.485655 
L 432.924637 610.603235 
L 444.95836 603.394159 
L 458.999023 597.473521 
L 479.267994 590.490165 
L 501.677026 582.117851 
L 523.084932 571.502738 
L 543.289876 558.731908 
L 563.288499 545.564742 
L 583.711636 532.984672 
L 604.303037 520.75419 
L 625.396813 509.430285 
L 646.879508 498.751047 
L 668.376133 488.085 
L 690.081623 477.8591 
L 712.314582 468.93916 
L 720 466.260701 
" clip-path="url(#pc43664b118)" style="fill: none; stroke: #000000; stroke-width: 1.5"/>
    <path d="M 372.413793 720 
L 372.413793 720 
L 372.413793 720 
L 372.413793 720 
L 369.004169 717.141855 
L 367.780674 714.592063 
L 367.536236 710.825888 
L 369.459685 707.059343 
L 369.459685 707.059343 
L 373.380839 706.223346 
L 375.956914 706.033415 
L 378.091995 705.346288 
L 380.244186 703.811182 
L 383.016369 700.42234 
L 383.016369 700.42234 
L 386.15453 695.571932 
L 390.686126 687.105027 
L 390.686126 687.105027 
L 396.187963 680.197368 
L 404.241104 672.904299 
L 413.67292 661.979853 
L 423.18803 651.355392 
L 435.36717 636.713634 
L 449.106394 620.041795 
L 449.106394 620.041795 
L 458.691493 612.005818 
" clip-path="url(#pc43664b118)" style="fill: none; stroke: #000000; stroke-width: 1.5"/>
    <path d="M 471.724138 720 
L 471.724138 720 
L 471.724138 720 
L 472.089377 711.466212 
L 472.089377 711.466212 
L 470.469438 703.135383 
L 470.469438 703.135383 
L 467.020772 698.623172 
L 461.537054 696.276966 
L 455.028377 695.834561 
L 445.96867 696.951244 
L 432.966594 698.621143 
L 432.966594 698.621143 
L 419.256722 699.029047 
L 419.256722 699.029047 
L 411.073348 697.336239 
" clip-path="url(#pc43664b118)" style="fill: none; stroke: #000000; stroke-width: 1.5"/>
    <path d="M 546.206897 720 
L 546.206897 720 
L 532.560899 700.451989 
L 518.516526 681.468634 
L 518.516526 681.468634 
L 510.203253 674.24514 
L 500.733779 670.571973 
L 490.95267 669.566827 
L 474.498806 668.583267 
L 474.498806 668.583267 
L 463.298881 666.459391 
L 463.298881 666.459391 
L 456.184191 662.628456 
" clip-path="url(#pc43664b118)" style="fill: none; stroke: #000000; stroke-width: 1.5"/>
    <path d="M 571.034483 720 
L 571.034483 720 
L 571.034483 720 
L 562.356822 706.291058 
L 556.983389 691.981282 
L 554.225238 674.723051 
L 554.225238 674.723051 
L 553.039868 664.836164 
L 553.039868 664.836164 
L 550.751491 658.392632 
L 546.539281 653.24889 
L 540.018108 649.189844 
L 531.759355 646.278409 
L 521.154799 642.77489 
L 521.154799 642.77489 
L 514.106018 638.84075 
L 510.122093 633.191663 
L 509.865828 627.059361 
L 512.811638 620.100244 
L 517.871357 613.667491 
L 525.816004 605.978958 
L 540.230537 594.336283 
L 559.507249 580.102063 
L 579.198426 566.455216 
L 599.21186 553.239053 
L 619.419566 540.413921 
L 639.917493 528.1216 
L 660.768492 516.366845 
" clip-path="url(#pc43664b118)" style="fill: none; stroke: #000000; stroke-width: 1.5"/>
    <path d="M 620.689655 720 
L 620.689655 720 
L 620.689655 720 
L 611.872164 711.528662 
L 606.169221 701.892142 
L 601.817004 689.728073 
L 598.350199 673.087877 
L 598.350199 673.087877 
L 594.836405 657.140345 
L 594.836405 657.140345 
L 589.869942 647.13976 
L 583.008865 640.156594 
L 574.473753 635.588955 
L 565.077838 632.633562 
L 565.077838 632.633562 
L 555.76542 628.797403 
L 555.76542 628.797403 
L 551.984438 624.917579 
L 551.984438 624.917579 
L 552.087714 621.071373 
L 555.475549 616.598827 
" clip-path="url(#pc43664b118)" style="fill: none; stroke: #000000; stroke-width: 1.5"/>
    <path d="M 645.517241 720 
L 645.517241 720 
L 645.517241 720 
L 635.451189 707.761837 
L 635.451189 707.761837 
L 629.921762 696.87834 
L 627.098895 684.933269 
L 626.616693 670.66811 
L 625.885848 655.78702 
L 621.872959 643.060528 
L 615.666219 631.467713 
L 606.153426 618.524155 
L 606.153426 618.524155 
L 601.827324 612.910142 
L 601.827324 612.910142 
L 599.943286 607.437734 
L 600.603709 601.584146 
L 603.493204 594.894037 
L 608.010213 586.78386 
L 608.010213 586.78386 
L 617.846459 572.660134 
L 630.137375 559.446315 
L 643.649408 547.274312 
" clip-path="url(#pc43664b118)" style="fill: none; stroke: #000000; stroke-width: 1.5"/>
    <path d="M 670.344828 720 
L 670.344828 720 
L 670.344828 720 
L 660.156747 711.841622 
L 653.113505 702.154516 
L 648.303736 689.946066 
L 647.495871 677.530954 
L 649.048555 666.435535 
L 649.048555 666.435535 
L 649.637803 654.798908 
L 646.668802 643.446438 
L 641.194362 633.75699 
" clip-path="url(#pc43664b118)" style="fill: none; stroke: #000000; stroke-width: 1.5"/>
    <path d="M 720 720 
L 720 720 
L 720 720 
L 709.110606 712.263667 
L 709.110606 712.263667 
L 702.695047 705.208015 
L 702.695047 705.208015 
L 699.830192 697.532918 
L 698.998345 688.337537 
L 698.628232 673.032934 
L 698.628232 673.032934 
L 699.92617 657.003159 
L 703.350621 641.265887 
L 703.350621 641.265887 
L 704.989538 629.826846 
L 703.245037 617.999951 
L 698.496747 608.401119 
L 691.722914 601.352154 
L 683.573245 595.665684 
L 683.573245 595.665684 
L 676.032583 589.870078 
L 671.91863 582.677993 
L 671.712518 575.173204 
L 674.362305 567.512618 
L 679.51185 559.508382 
L 687.348612 551.623803 
L 697.79745 544.38398 
L 711.360824 537.56162 
L 720 533.789018 
" clip-path="url(#pc43664b118)" style="fill: none; stroke: #000000; stroke-width: 1.5"/>
    <path d="M 669.177525 706.105827 
L 664.019055 696.411622 
L 661.666635 685.299997 
L 662.395184 674.260834 
L 662.395184 674.260834 
L 664.976044 659.264889 
L 665.838468 645.28448 
L 664.668895 634.158739 
L 661.200764 623.533778 
L 661.200764 623.533778 
L 654.724306 612.860009 
L 654.724306 612.860009 
L 647.814405 602.682235 
L 643.800244 594.411092 
L 642.348979 585.598001 
L 644.364724 577.226492 
L 644.364724 577.226492 
L 649.911784 568.17712 
L 649.911784 568.17712 
L 662.407283 554.525415 
L 677.292773 542.877976 
L 677.292773 542.877976 
L 698.069477 531.020522 
L 720 521.37931 
L 720 521.37931 
" clip-path="url(#pc43664b118)" style="fill: none; stroke: #000000; stroke-width: 1.5"/>
    <path d="M 0 572.39302 
L 21.474018 577.248976 
L 44.999264 581.688544 
L 68.801102 584.224984 
L 88.73901 584.358722 
L 107.68331 582.14688 
L 125.47061 577.253168 
L 125.47061 577.253168 
L 148.382962 570.314261 
L 171.725429 565.52025 
L 195.278874 562.272224 
L 219.111777 560.758626 
L 243.060695 560.046628 
L 267.018574 559.676228 
L 290.996992 559.435978 
L 314.859069 557.839855 
L 338.639659 555.440161 
L 362.452759 553.001811 
L 386.179677 549.598896 
L 409.781719 545.287139 
L 433.26843 540.449107 
L 456.544019 534.853317 
L 479.60613 528.48673 
L 502.135116 520.545082 
L 524.058126 511.10126 
L 545.748221 501.035215 
L 567.459684 490.839881 
L 589.115651 480.529671 
L 610.615447 469.974568 
L 632.343555 460.121906 
L 654.047421 450.089344 
L 675.735774 440.185386 
L 697.702888 430.906219 
L 720 422.068966 
L 720 422.068966 
" clip-path="url(#pc43664b118)" style="fill: none; stroke: #000000; stroke-width: 1.5"/>
    <path d="M 0 268.837594 
L 9.677383 276.035802 
L 24.798051 285.015818 
L 24.798051 285.015818 
L 46.841601 293.963811 
L 69.166258 302.648193 
L 90.605308 313.238792 
L 111.307177 325.3268 
L 131.887001 337.593863 
L 152.829191 349.174655 
L 174.429507 359.501328 
L 188.75927 365.561868 
L 201.27808 371.545587 
L 211.85251 378.943985 
L 220.623899 388.310358 
L 220.623899 388.310358 
L 225.685557 396.073787 
L 231.84552 403.798499 
L 240.457892 408.493627 
L 240.457892 408.493627 
L 262.531219 414.411849 
L 285.733341 419.897911 
L 309.023868 425.291933 
L 332.641314 429.035135 
L 356.388432 431.931901 
L 379.952675 435.175833 
L 403.531616 437.999456 
L 427.295431 440.063453 
L 451.02056 442.974032 
L 472.904611 445.623304 
L 496.819162 445.258127 
L 520.711613 443.002202 
L 544.47754 440.02306 
L 567.568306 435.122462 
L 587.757497 431.377787 
L 610.068884 426.323281 
L 626.045702 420.397642 
L 642.171657 414.919578 
L 642.171657 414.919578 
L 656.033753 411.190037 
L 668.853824 406.054261 
L 680.274857 398.89368 
L 680.274857 398.89368 
L 699.656952 385.024938 
L 720 372.413793 
L 720 372.413793 
" clip-path="url(#pc43664b118)" style="fill: none; stroke: #000000; stroke-width: 1.5"/>
    <path d="M 0 164.523607 
L 8.664765 184.9889 
L 14.222351 197.752272 
L 22.580846 211.048127 
L 33.344348 221.682711 
L 33.344348 221.682711 
L 49.306138 232.517489 
L 49.306138 232.517489 
L 70.379494 243.809423 
L 91.867594 254.351236 
L 112.699381 263.739993 
L 135.271657 271.54025 
L 154.424146 275.64469 
L 174.133078 277.508138 
L 174.133078 277.508138 
L 198.097738 277.130641 
L 221.910779 274.781284 
L 245.470754 270.457331 
L 268.349727 265.716698 
L 291.410277 259.629751 
L 313.632011 250.99066 
L 335.295834 241.172989 
L 353.332387 231.988102 
L 369.153578 221.597824 
L 369.153578 221.597824 
L 388.085567 206.977274 
L 406.30258 192.198702 
L 417.535119 183.012465 
L 424.88065 177.844938 
L 432.107358 174.570171 
L 439.61972 173.808056 
L 447.420576 175.842998 
L 447.420576 175.842998 
L 455.686303 181.172776 
L 455.686303 181.172776 
L 463.319513 189.628784 
L 463.319513 189.628784 
L 473.23306 205.094222 
L 481.376382 217.786448 
L 491.293063 228.940372 
L 491.293063 228.940372 
L 506.647949 241.501936 
L 506.647949 241.501936 
L 526.674294 254.481685 
L 547.632441 266.101891 
L 568.480623 277.936295 
L 588.865844 290.571154 
L 609.296328 302.85726 
L 629.817438 314.810343 
L 650.455825 326.811536 
L 671.882298 337.504841 
L 687.887066 343.725295 
L 703.757855 347.603308 
L 720 347.586207 
L 720 347.586207 
L 720 347.586207 
" clip-path="url(#pc43664b118)" style="fill: none; stroke: #000000; stroke-width: 1.5"/>
    <path d="M 366.385552 205.686987 
L 384.453535 189.980336 
L 400.960374 172.667196 
L 414.943707 156.018102 
L 423.793132 145.974599 
L 431.974648 138.747631 
L 438.777201 134.756916 
L 447.245306 132.587333 
L 455.87561 133.63113 
L 455.87561 133.63113 
L 465.138951 138.099906 
L 465.138951 138.099906 
L 475.475911 146.62803 
L 475.475911 146.62803 
L 491.954776 163.997385 
L 508.647563 181.128064 
L 522.759447 194.598137 
L 537.00311 206.700093 
L 553.637513 216.4848 
L 571.003051 223.208458 
L 571.003051 223.208458 
L 593.786386 230.518377 
L 616.025148 239.099832 
L 637.587165 249.408638 
L 658.652776 260.855263 
L 679.079042 273.386175 
L 699.233602 286.152638 
L 720 297.931034 
L 720 297.931034 
" clip-path="url(#pc43664b118)" style="fill: none; stroke: #000000; stroke-width: 1.5"/>
    <path d="M 616.444506 216.186774 
L 639.715836 221.920726 
L 659.771707 227.966034 
L 677.250547 235.458841 
L 694.770226 246.554473 
L 708.295853 258.545447 
L 720 273.103448 
L 720 273.103448 
L 720 273.103448 
" clip-path="url(#pc43664b118)" style="fill: none; stroke: #000000; stroke-width: 1.5"/>
    <path d="M 399.662133 151.306001 
L 412.329876 131.045467 
L 421.407478 118.493325 
L 429.303569 109.705007 
L 436.04668 104.390494 
L 443.612938 101.177799 
L 451.948168 100.791717 
L 451.948168 100.791717 
L 463.125052 103.878892 
L 463.125052 103.878892 
L 478.133894 111.622168 
L 478.133894 111.622168 
L 492.622483 121.564052 
L 506.226734 133.781518 
L 516.654519 146.829792 
L 528.208164 160.819999 
L 541.675497 171.861919 
L 541.675497 171.861919 
L 555.747891 180.671869 
L 571.40566 187.671314 
L 571.40566 187.671314 
L 594.491018 193.118135 
L 617.99018 197.123161 
L 641.752753 200.013089 
L 664.292616 202.75612 
L 681.660941 206.767253 
L 698.678012 213.101384 
L 698.678012 213.101384 
L 720 223.448276 
L 720 223.448276 
" clip-path="url(#pc43664b118)" style="fill: none; stroke: #000000; stroke-width: 1.5"/>
    <path d="M 494.110909 90.892827 
L 508.499674 95.046878 
L 521.174309 101.72441 
L 521.174309 101.72441 
L 537.229148 113.538198 
L 548.972368 124.443932 
L 561.706752 135.603718 
L 574.205519 143.218555 
L 588.252224 148.80808 
L 588.252224 148.80808 
L 602.747797 152.348012 
L 616.637859 156.235987 
L 616.637859 156.235987 
L 632.571695 161.826633 
L 648.621641 165.453398 
L 648.621641 165.453398 
L 672.317027 168.975614 
L 696.067132 172.085694 
L 720 173.793103 
L 720 173.793103 
" clip-path="url(#pc43664b118)" style="fill: none; stroke: #000000; stroke-width: 1.5"/>
    <path d="M 606.924497 135.609601 
L 618.72339 136.261311 
L 618.72339 136.261311 
L 636.535521 140.478277 
L 636.535521 140.478277 
L 659.277147 145.237046 
L 682.847474 147.581607 
L 701.033717 149.022023 
L 720 148.965517 
L 720 148.965517 
L 720 148.965517 
" clip-path="url(#pc43664b118)" style="fill: none; stroke: #000000; stroke-width: 1.5"/>
    <path d="M 606.519466 110.51328 
L 622.105329 108.602424 
L 635.893634 108.93515 
L 650.654355 112.125216 
L 663.870524 117.64447 
L 663.870524 117.64447 
L 673.427437 122.558363 
L 684.187035 126.350246 
L 696.198006 126.80105 
L 696.198006 126.80105 
L 720 124.137931 
L 720 124.137931 
" clip-path="url(#pc43664b118)" style="fill: none; stroke: #000000; stroke-width: 1.5"/>
    <path d="M 253.048857 0 
L 257.672 1.519217 
L 280.046814 7.692962 
L 302.813189 11.97916 
L 322.821286 16.046701 
L 346.104117 20.102434 
L 369.747646 22.294654 
L 393.348794 25.708947 
L 416.784764 30.358435 
L 440.223454 35.116485 
L 463.694392 39.915583 
L 487.127809 44.89119 
L 510.693004 49.314704 
L 534.13573 54.182763 
L 557.185716 60.478859 
L 570.976865 64.843646 
L 586.32582 68.38052 
L 601.010139 68.804067 
L 601.010139 68.804067 
L 624.697035 69.094789 
L 648.493964 70.72059 
L 672.43179 71.921129 
L 691.091471 74.185708 
L 705.428695 75.618926 
L 720 74.482759 
L 720 74.482759 
L 720 74.482759 
" clip-path="url(#pc43664b118)" style="fill: none; stroke: #000000; stroke-width: 1.5"/>
    <path d="M 569.430493 56.192481 
L 586.05661 58.34977 
L 586.05661 58.34977 
L 609.523816 57.448625 
L 633.254303 55.458169 
L 657.158722 54.649829 
L 676.663563 54.464327 
L 696.333339 52.806027 
L 696.333339 52.806027 
L 720 49.655172 
L 720 49.655172 
" clip-path="url(#pc43664b118)" style="fill: none; stroke: #000000; stroke-width: 1.5"/>
    <path d="M 649.920893 33.974098 
L 668.248175 29.144631 
L 684.148532 24.854772 
L 700.306582 23.329199 
L 700.306582 23.329199 
L 720 24.827586 
L 720 24.827586 
L 720 24.827586 
" clip-path="url(#pc43664b118)" style="fill: none; stroke: #000000; stroke-width: 1.5"/>
    <path d="M 474.358792 17.62662 
L 497.943172 21.620301 
L 521.298333 27.068666 
L 541.203312 31.077302 
L 554.004397 32.723299 
L 567.605067 32.32124 
L 567.605067 32.32124 
L 590.477232 28.004884 
L 613.355972 22.167577 
L 631.079735 16.745874 
L 645.81622 10.259972 
L 658.144568 4.745461 
L 671.266062 1.704915 
L 671.266062 1.704915 
L 695.172414 0 
L 695.172414 0 
" clip-path="url(#pc43664b118)" style="fill: none; stroke: #000000; stroke-width: 1.5"/>
    <path d="M 404.05549 3.872248 
L 427.726878 5.212322 
L 451.243464 4.310039 
L 473.747047 4.272068 
L 494.025992 6.726481 
L 510.300491 8.835521 
L 526.366411 8.664435 
L 526.366411 8.664435 
L 542.333249 7.036303 
L 557.303879 4.749315 
L 571.034483 0 
L 571.034483 0 
L 571.034483 0 
" clip-path="url(#pc43664b118)" style="fill: none; stroke: #000000; stroke-width: 1.5"/>
    <path d="M 198.62069 0 
L 198.62069 0 
L 198.62069 0 
L 217.149825 7.658115 
L 233.827915 18.157342 
L 233.827915 18.157342 
L 243.607291 27.302067 
L 243.607291 27.302067 
L 248.862362 36.075935 
L 251.005875 45.89791 
L 252.100415 56.46403 
L 252.100415 56.46403 
L 254.932984 65.709414 
L 260.324531 74.088672 
L 267.504044 81.876456 
L 267.504044 81.876456 
L 274.281732 86.728479 
L 282.79594 88.951261 
L 290.690004 88.454699 
L 300.740489 85.471209 
L 310.41868 79.288341 
L 310.41868 79.288341 
L 314.740324 72.75315 
L 317.464385 65.900499 
L 323.407468 48.53878 
L 323.407468 48.53878 
L 323.407468 48.53878 
L 326.893342 45.5398 
L 331.049063 43.745559 
L 340.106423 40.970825 
L 355.463294 37.338383 
" clip-path="url(#pc43664b118)" style="fill: none; stroke: #000000; stroke-width: 1.5"/>
    <path d="M 148.965517 0 
L 148.965517 0 
L 168.231568 13.588812 
L 185.568708 28.91862 
L 185.568708 28.91862 
L 192.290488 38.743289 
L 195.747847 50.372966 
L 196.102483 61.8827 
L 194.153149 75.501755 
L 191.656959 91.865502 
L 191.656959 91.865502 
L 191.60291 101.393405 
L 191.60291 101.393405 
L 193.447288 108.179823 
L 197.391171 113.240194 
L 203.510729 117.436243 
L 212.721835 121.788659 
L 226.693523 127.155549 
L 226.693523 127.155549 
L 241.238893 130.614073 
L 256.248352 131.170681 
L 271.763602 129.095319 
L 288.396909 124.507501 
L 307.000275 116.494638 
L 323.830127 106.650247 
L 323.830127 106.650247 
L 332.210313 99.846232 
L 338.833141 90.614482 
L 342.474907 80.829193 
L 344.699021 69.102401 
L 344.699021 69.102401 
" clip-path="url(#pc43664b118)" style="fill: none; stroke: #000000; stroke-width: 1.5"/>
    <path d="M 124.137931 0 
L 124.137931 0 
L 124.137931 0 
L 135.187404 8.521802 
L 143.148404 19.244195 
L 148.480749 31.054073 
L 155.262278 47.955255 
L 155.262278 47.955255 
L 159.347906 62.051389 
L 161.186632 76.263045 
L 164.086825 95.397359 
L 164.086825 95.397359 
L 167.948796 108.738455 
L 167.948796 108.738455 
L 173.383772 119.537484 
L 173.383772 119.537484 
L 179.768599 126.600036 
" clip-path="url(#pc43664b118)" style="fill: none; stroke: #000000; stroke-width: 1.5"/>
    <path d="M 74.482759 0 
L 74.482759 0 
L 92.879479 15.09837 
L 92.879479 15.09837 
L 102.739986 27.063268 
L 110.200441 40.821077 
L 116.10756 56.225891 
L 124.332261 78.688009 
L 124.332261 78.688009 
L 133.00723 96.560738 
L 143.994123 112.999228 
L 158.126454 128.61892 
L 158.126454 128.61892 
L 169.542041 137.485481 
L 182.446006 144.4636 
L 198.656583 152.372551 
L 198.656583 152.372551 
L 211.473664 157.796522 
L 211.473664 157.796522 
L 223.572228 160.04368 
L 235.680246 159.76965 
L 249.629758 157.164623 
L 264.956223 152.632766 
L 286.93243 143.655531 
" clip-path="url(#pc43664b118)" style="fill: none; stroke: #000000; stroke-width: 1.5"/>
    <path d="M 49.655172 0 
L 49.655172 0 
L 65.355066 17.999701 
L 65.355066 17.999701 
L 75.85861 32.18444 
L 83.541766 47.906629 
L 90.917992 65.196304 
L 101.176869 86.60695 
L 101.176869 86.60695 
L 110.866172 102.576011 
L 122.299237 117.025366 
" clip-path="url(#pc43664b118)" style="fill: none; stroke: #000000; stroke-width: 1.5"/>
    <path d="M 24.827586 0 
L 24.827586 0 
L 36.442822 20.941097 
L 46.9968 42.193044 
L 54.179038 61.390476 
L 63.643672 83.045062 
L 74.835701 103.742304 
L 74.835701 103.742304 
L 82.906798 114.879727 
L 92.152154 123.753461 
L 106.593771 135.656698 
L 125.019421 150.906905 
L 125.019421 150.906905 
L 139.53133 161.513964 
L 155.600035 170.538997 
L 176.062138 181.963952 
L 176.062138 181.963952 
L 188.270225 187.374731 
L 201.246847 190.241702 
L 201.246847 190.241702 
L 212.577001 190.142527 
L 223.786044 187.482941 
L 236.14108 183.095516 
L 257.799234 173.199215 
L 278.056155 162.566162 
" clip-path="url(#pc43664b118)" style="fill: none; stroke: #000000; stroke-width: 1.5"/>
    <path d="M 0 0 
L 0 0 
L 8.029689 22.570755 
L 16.956387 44.807204 
L 24.978325 67.389127 
L 31.648625 90.409868 
L 39.55135 112.715862 
L 39.55135 112.715862 
L 46.99094 124.701314 
L 56.54016 134.619734 
L 69.863563 145.184208 
L 87.422862 156.961047 
L 107.423884 170.189156 
L 127.915369 182.459786 
L 149.833566 191.909205 
L 171.286267 198.092948 
L 171.286267 198.092948 
" clip-path="url(#pc43664b118)" style="fill: none; stroke: #000000; stroke-width: 1.5"/>
    <path d="M 0 49.655172 
L 0 49.655172 
L 6.610948 72.689561 
L 12.117232 96.032905 
L 19.088048 118.915255 
L 29.152561 140.490017 
L 29.152561 140.490017 
L 39.492037 154.961746 
L 52.746923 166.668794 
L 65.488034 175.8479 
L 84.319803 190.580821 
L 103.567527 204.672811 
L 103.567527 204.672811 
L 119.130731 212.837625 
L 135.465732 218.351582 
L 155.657955 221.96047 
L 174.884759 222.135271 
L 193.122631 220.588051 
L 193.122631 220.588051 
L 212.43826 217.112476 
" clip-path="url(#pc43664b118)" style="fill: none; stroke: #000000; stroke-width: 1.5"/>
    <path d="M 0 223.448276 
L 0 223.448276 
L 0 223.448276 
L 9.876624 235.367681 
L 21.640657 244.934209 
L 35.83156 253.255627 
L 54.133855 260.969904 
L 75.619961 266.950602 
L 96.864219 273.932239 
" clip-path="url(#pc43664b118)" style="fill: none; stroke: #000000; stroke-width: 1.5"/>
    <path d="M 0 297.931034 
L 0 297.931034 
L 21.58845 308.069888 
L 43.325353 317.814056 
L 64.240924 329.398014 
L 84.427356 342.235071 
L 104.735765 354.819541 
L 124.421375 368.331452 
L 141.197841 383.99413 
L 154.268988 401.701905 
L 165.139364 418.047918 
L 165.139364 418.047918 
L 173.674802 427.496976 
L 184.238152 435.463798 
L 196.441137 443.085863 
L 196.441137 443.085863 
L 207.832909 448.668138 
L 207.832909 448.668138 
L 218.44186 451.301011 
L 229.784605 451.164105 
L 241.758392 449.172529 
L 264.945587 444.854986 
L 288.554439 442.321731 
L 311.825459 442.689209 
L 334.320107 444.624964 
L 358.245716 446.203894 
" clip-path="url(#pc43664b118)" style="fill: none; stroke: #000000; stroke-width: 1.5"/>
    <path d="M 0 322.758621 
L 0 322.758621 
L 18.8015 337.621792 
L 37.305658 352.814447 
L 55.06599 368.87774 
L 71.408249 386.046787 
L 71.408249 386.046787 
L 80.279234 399.112748 
L 80.279234 399.112748 
L 85.270962 411.749253 
L 87.541752 425.168847 
L 89.46699 441.194302 
L 89.46699 441.194302 
L 93.51742 458.018311 
L 100.947737 474.496424 
L 109.284041 488.561355 
L 109.284041 488.561355 
L 119.947654 503.83275 
L 119.947654 503.83275 
L 128.407027 512.646566 
L 139.233377 519.711816 
L 150.977848 524.404875 
L 165.104363 527.753667 
L 183.526286 530.545937 
L 207.258824 533.246452 
L 231.037618 534.448208 
L 254.847756 534.222422 
L 278.720489 533.914334 
L 302.559445 532.411056 
L 325.966165 527.656947 
L 348.231744 521.547666 
L 371.766861 517.431636 
L 392.802082 515.449199 
L 416.357325 511.347879 
L 439.285655 504.82366 
L 462.403657 498.839543 
L 485.978346 494.804454 
L 509.577521 490.712494 
L 532.833797 485.46406 
L 555.58866 478.523084 
L 577.709056 469.506411 
" clip-path="url(#pc43664b118)" style="fill: none; stroke: #000000; stroke-width: 1.5"/>
    <path d="M 0 347.586207 
L 0 347.586207 
L 17.88132 363.523266 
L 33.289552 381.525843 
L 33.289552 381.525843 
L 40.660616 395.033492 
L 45.278395 409.726403 
L 48.021318 426.837274 
L 50.486937 448.284405 
L 50.486937 448.284405 
L 54.38209 465.465135 
L 61.335357 481.392969 
L 70.847066 494.901535 
L 81.4422 506.293405 
L 81.4422 506.293405 
L 93.621166 516.714692 
L 93.621166 516.714692 
L 106.161498 524.107007 
" clip-path="url(#pc43664b118)" style="fill: none; stroke: #000000; stroke-width: 1.5"/>
    <path d="M 0 372.413793 
L 0 372.413793 
L 0 372.413793 
L 9.507112 383.848612 
L 15.863751 396.619798 
L 19.697445 411.035291 
L 20.911042 427.129542 
L 21.718577 443.282836 
L 21.718577 443.282836 
L 25.07861 461.984816 
L 31.61011 480.021045 
L 31.61011 480.021045 
L 39.448519 493.463292 
L 49.346187 505.861588 
L 64.277152 521.150403 
L 64.277152 521.150403 
L 74.303091 528.5246 
L 85.22726 533.570555 
L 98.50472 537.413941 
L 116.119006 540.562227 
L 139.735656 543.43695 
L 163.544468 546.036227 
L 187.401267 547.909058 
" clip-path="url(#pc43664b118)" style="fill: none; stroke: #000000; stroke-width: 1.5"/>
    <path d="M 0 446.896552 
L 0 446.896552 
L 3.282744 470.625197 
L 3.282744 470.625197 
L 6.457988 483.228433 
L 12.847426 495.452047 
L 20.756622 505.921465 
L 33.929073 520.178854 
L 33.929073 520.178854 
L 45.323382 529.698706 
L 59.255292 537.313288 
L 72.424522 541.737864 
" clip-path="url(#pc43664b118)" style="fill: none; stroke: #000000; stroke-width: 1.5"/>
    <path d="M 0 620.689655 
L 0 620.689655 
L 0 620.689655 
L 17.856884 621.393469 
L 35.955939 620.29683 
L 59.445381 618.565941 
L 83.284018 618.635838 
L 107.215758 618.964257 
L 130.938624 616.389954 
L 153.634351 611.002551 
L 176.218439 603.72779 
L 176.218439 603.72779 
L 194.321983 595.437335 
L 194.321983 595.437335 
L 208.815302 588.962752 
L 224.311442 584.957651 
" clip-path="url(#pc43664b118)" style="fill: none; stroke: #000000; stroke-width: 1.5"/>
    <path d="M 52.944722 658.45467 
L 46.959061 662.558036 
L 37.287826 665.243503 
L 28.371413 665.582549 
L 19.91758 664.116361 
L 11.943565 660.213914 
L 5.111387 653.737001 
L 0 645.517241 
L 0 645.517241 
L 0 645.517241 
" clip-path="url(#pc43664b118)" style="fill: none; stroke: #000000; stroke-width: 1.5"/>
    <path d="M 260.562093 704.864481 
L 259.03839 706.373781 
L 257.016877 707.175141 
L 254.77182 706.872303 
L 252.414322 705.137587 
L 249.950557 701.138305 
L 248.275862 695.172414 
L 248.275862 695.172414 
L 248.275862 695.172414 
L 246.471115 689.653214 
L 243.539838 686.003612 
L 239.163034 683.560064 
L 233.036284 682.240223 
L 224.464329 681.999968 
" clip-path="url(#pc43664b118)" style="fill: none; stroke: #000000; stroke-width: 1.5"/>
    <path d="M 331.589808 702.891575 
L 328.204675 697.777833 
L 326.032215 695.685456 
L 322.758621 695.172414 
L 322.758621 695.172414 
L 322.758621 695.172414 
L 322.758621 695.172414 
L 322.758621 695.172414 
L 319.67919 696.826308 
L 317.980508 697.872695 
L 314.980721 700.003287 
L 310.518621 703.016198 
L 304.701751 706.493893 
" clip-path="url(#pc43664b118)" style="fill: none; stroke: #000000; stroke-width: 1.5"/>
    <path d="M 650.888151 304.387542 
L 672.949381 313.74449 
L 695.172414 322.758621 
L 695.172414 322.758621 
L 714.265902 328.300679 
L 720 329.59728 
" clip-path="url(#pc43664b118)" style="fill: none; stroke: #000000; stroke-width: 1.5"/>
    <path d="M 97.256026 658.401769 
L 99.465994 661.562467 
L 100.204256 664.979314 
L 99.310345 670.344828 
L 99.310345 670.344828 
L 99.310345 670.344828 
L 99.310345 670.344828 
L 95.137624 677.069168 
L 89.728715 682.273545 
L 79.100959 691.384528 
L 79.100959 691.384528 
L 63.146113 703.088661 
" clip-path="url(#pc43664b118)" style="fill: none; stroke: #000000; stroke-width: 1.5"/>
    <path d="M 168.779214 639.897133 
L 184.567727 644.442357 
L 194.207058 648.151809 
L 200.857937 651.598402 
L 204.866874 655.864462 
L 205.408768 660.765053 
L 203.364581 665.221528 
L 198.62069 670.344828 
L 198.62069 670.344828 
L 198.62069 670.344828 
L 198.62069 670.344828 
L 185.833968 679.034146 
" clip-path="url(#pc43664b118)" style="fill: none; stroke: #000000; stroke-width: 1.5"/>
    <path d="M 184.035552 628.252261 
L 205.255067 629.298963 
L 221.298873 631.360549 
L 233.52778 634.431559 
L 241.924344 637.958963 
L 249.149855 643.02142 
L 253.897457 649.671093 
L 253.897457 649.671093 
L 256.402414 656.393899 
L 256.402414 656.393899 
L 257.634006 662.418507 
L 257.303503 664.818527 
L 256.146539 666.147103 
L 254.323004 667.288715 
L 252.045257 668.456103 
L 248.275862 670.344828 
L 248.275862 670.344828 
L 248.275862 670.344828 
L 248.275862 670.344828 
L 237.37314 674.544385 
" clip-path="url(#pc43664b118)" style="fill: none; stroke: #000000; stroke-width: 1.5"/>
    <path d="M 265.070634 680.932565 
L 267.986106 676.695655 
L 273.103448 670.344828 
L 273.103448 670.344828 
L 273.103448 670.344828 
L 277.731298 666.985436 
L 281.853727 665.767301 
L 287.919286 665.750891 
L 296.536986 667.584487 
L 307.508077 670.706205 
L 307.508077 670.706205 
L 317.553385 674.545632 
L 317.553385 674.545632 
L 323.451076 677.551411 
L 323.451076 677.551411 
L 326.962289 679.064509 
L 329.4847 679.412056 
L 331.844118 678.779034 
L 334.456481 677.077809 
" clip-path="url(#pc43664b118)" style="fill: none; stroke: #000000; stroke-width: 1.5"/>
    <path d="M 631.36847 399.843243 
L 650.887455 386.380653 
L 670.344828 372.413793 
L 670.344828 372.413793 
L 682.202438 366.588953 
L 694.347632 362.728364 
" clip-path="url(#pc43664b118)" style="fill: none; stroke: #000000; stroke-width: 1.5"/>
    <path d="M 361.006574 79.238984 
L 363.536937 68.443204 
L 367.178663 59.846228 
L 374.529333 51.963129 
L 384.712889 47.108134 
L 384.712889 47.108134 
L 399.739542 44.349516 
L 399.739542 44.349516 
L 423.354492 45.291668 
L 446.896552 49.655172 
" clip-path="url(#pc43664b118)" style="fill: none; stroke: #000000; stroke-width: 1.5"/>
    <path d="M 242.083146 617.998735 
L 257.824736 620.026674 
L 270.3646 623.704156 
L 281.848543 629.406468 
L 290.523635 636.317091 
L 297.931034 645.517241 
L 297.931034 645.517241 
L 297.931034 645.517241 
L 304.314879 652.856649 
L 311.195482 656.707744 
" clip-path="url(#pc43664b118)" style="fill: none; stroke: #000000; stroke-width: 1.5"/>
    <path d="M 485.224445 655.765721 
L 478.167963 651.882886 
L 471.724138 645.517241 
L 471.724138 645.517241 
L 471.724138 645.517241 
L 471.724138 645.517241 
L 469.692927 640.269643 
L 469.958182 635.426883 
L 472.51497 629.361331 
L 477.798672 622.591848 
L 486.020853 615.317684 
L 497.537025 608.08757 
" clip-path="url(#pc43664b118)" style="fill: none; stroke: #000000; stroke-width: 1.5"/>
    <path d="M 645.517241 471.724138 
L 666.746312 460.546447 
L 688.173421 449.749612 
L 709.967404 439.775768 
L 720 435.635016 
" clip-path="url(#pc43664b118)" style="fill: none; stroke: #000000; stroke-width: 1.5"/>
    <path d="M 476.185263 65.434052 
L 497.958508 69.63797 
L 521.37931 74.482759 
L 544.064053 81.900816 
L 566.075368 91.004152 
L 566.075368 91.004152 
L 578.347028 95.257859 
L 578.347028 95.257859 
" clip-path="url(#pc43664b118)" style="fill: none; stroke: #000000; stroke-width: 1.5"/>
    <path d="M 192.096461 259.167881 
L 213.98477 255.584262 
L 236.989299 249.266945 
L 259.317339 240.741575 
L 278.559811 232.471327 
L 298.355416 221.671185 
L 317.313528 207.229501 
L 333.278339 192.707445 
L 348.313013 180.372836 
L 362.225925 168.504925 
L 373.696702 155.038021 
L 373.696702 155.038021 
L 386.377257 134.788917 
L 396.692279 113.25782 
L 401.386744 101.177596 
L 405.88155 91.287051 
L 412.520116 83.088884 
L 421.769448 76.992318 
L 434.033065 73.853644 
L 446.896552 74.482759 
L 446.896552 74.482759 
" clip-path="url(#pc43664b118)" style="fill: none; stroke: #000000; stroke-width: 1.5"/>
    <path d="M 74.482759 223.448276 
L 74.482759 223.448276 
L 95.491695 235.02817 
L 117.09261 245.435072 
L 139.596911 253.27583 
L 139.596911 253.27583 
L 156.843598 256.044131 
L 174.415403 255.201187 
" clip-path="url(#pc43664b118)" style="fill: none; stroke: #000000; stroke-width: 1.5"/>
    <path d="M 249.829744 606.61869 
L 267.297255 604.836061 
L 283.950028 605.667152 
L 297.763215 608.407671 
L 310.98366 613.374469 
L 322.758621 620.689655 
L 322.758621 620.689655 
L 322.758621 620.689655 
L 331.775724 625.621743 
L 340.904816 627.56665 
L 351.584078 627.495855 
L 366.305283 627.400173 
L 366.305283 627.400173 
L 380.437027 627.046306 
L 380.437027 627.046306 
L 390.228466 624.641806 
L 399.466579 619.507958 
L 408.791089 612.892904 
L 428.888898 600.378488 
" clip-path="url(#pc43664b118)" style="fill: none; stroke: #000000; stroke-width: 1.5"/>
    <path d="M 514.877291 552.658014 
L 536.335233 542.053303 
L 557.378432 530.615292 
L 578.427107 519.15109 
L 599.50401 507.765874 
L 620.689655 496.551724 
" clip-path="url(#pc43664b118)" style="fill: none; stroke: #000000; stroke-width: 1.5"/>
    <path d="M 440.166912 397.012705 
L 438.98265 396.621222 
L 440.192652 396.905487 
L 438.656895 396.677755 
L 440.269915 396.916879 
L 438.874793 396.796121 
L 439.87584 396.521213 
L 439.483393 397.158908 
L 439.330682 395.862936 
L 439.662454 397.385458 
L 439.662454 397.385458 
L 439.25498 396.304128 
L 439.804892 396.793083 
L 439.503711 396.716751 
L 439.862403 396.629727 
L 438.649102 396.930781 
L 440.209076 396.691911 
L 440.209076 396.691911 
L 439.458069 396.948575 
L 439.487655 396.309433 
L 438.293729 395.721099 
L 439.889327 397.809494 
L 439.889327 397.809494 
L 438.976553 396.081332 
L 439.922352 396.808873 
L 439.470899 396.751565 
L 439.584604 396.623102 
L 439.569593 396.952125 
L 439.905774 396.020323 
L 439.905774 396.020323 
L 439.839451 397.233428 
L 439.284705 396.452909 
L 439.739725 396.72432 
L 439.548631 396.734157 
L 439.767773 396.584292 
L 438.682603 396.98279 
L 440.246977 396.681964 
L 440.246977 396.681964 
L 439.452744 396.972906 
L 439.47491 396.266218 
L 438.246274 395.63877 
L 439.671713 397.849806 
L 439.671713 397.849806 
L 439.02392 396.005521 
L 439.947669 396.863313 
L 439.438861 396.726821 
L 439.600697 396.626356 
L 439.618076 396.740463 
L 439.532835 396.494826 
L 438.479752 396.84391 
L 438.479752 396.84391 
L 440.271809 396.811317 
L 440.271809 396.811317 
L 439.345538 396.908195 
L 439.578578 396.315958 
L 439.648997 397.281621 
L 439.046745 395.495942 
L 439.914263 397.422129 
L 438.579101 395.478263 
L 438.579101 395.478263 
L 440.23806 397.117079 
L 439.231335 396.668794 
L 439.682532 396.575094 
L 439.53215 397.035757 
L 440.453473 397.00014 
L 440.621639 395.355558 
L 440.621639 395.355558 
L 437.409488 391.500163 
L 437.409488 391.500163 
L 429.100968 386.675462 
L 417.422658 383.345903 
L 409.092856 382.621778 
L 403.110877 383.020675 
L 396.728865 385.276374 
L 392.989916 388.682891 
L 390.381321 393.150002 
L 389.830902 399.623163 
L 392.468299 405.230367 
L 392.468299 405.230367 
L 399.852909 411.383305 
L 410.801647 415.292121 
L 410.801647 415.292121 
L 427.117841 416.84631 
L 427.117841 416.84631 
L 450.191522 417.738341 
L 473.453443 418.443695 
L 495.131694 417.614643 
L 518.120343 414.047412 
L 538.491657 408.740777 
L 556.687227 402.75979 
L 577.859095 393.997366 
L 599.157938 382.982104 
L 620.689655 372.413793 
L 620.689655 372.413793 
L 632.817628 368.239446 
L 643.590041 365.350406 
" clip-path="url(#pc43664b118)" style="fill: none; stroke: #000000; stroke-width: 1.5"/>
    <path d="M 558.390236 290.840777 
L 573.585914 300.929671 
L 588.538646 312.731899 
L 588.538646 312.731899 
L 604.867386 329.765199 
L 620.689655 347.586207 
L 620.689655 347.586207 
L 627.45263 353.061497 
L 635.296403 356.711301 
L 643.876565 358.62327 
L 654.295463 359.149157 
" clip-path="url(#pc43664b118)" style="fill: none; stroke: #000000; stroke-width: 1.5"/>
    <path d="M 568.602458 240.087696 
L 589.60088 251.490347 
L 605.59047 261.281946 
L 620.689655 273.103448 
L 620.689655 273.103448 
L 620.689655 273.103448 
L 633.017539 282.262126 
" clip-path="url(#pc43664b118)" style="fill: none; stroke: #000000; stroke-width: 1.5"/>
    <path d="M 254.855282 204.280641 
L 276.12629 193.273215 
L 296.768078 181.058844 
L 316.711327 167.842185 
L 335.097277 153.669421 
L 351.619214 138.031218 
L 360.873191 127.003876 
L 368.26242 113.934656 
L 372.413793 99.310345 
L 372.413793 99.310345 
" clip-path="url(#pc43664b118)" style="fill: none; stroke: #000000; stroke-width: 1.5"/>
    <path d="M 99.310345 372.413793 
L 99.310345 372.413793 
L 111.611981 383.743068 
L 121.143084 397.632488 
L 126.974077 411.413474 
L 132.564649 429.145874 
L 140.85491 451.069833 
L 140.85491 451.069833 
L 144.944201 458.302704 
L 144.944201 458.302704 
L 149.336288 463.548452 
L 149.336288 463.548452 
L 154.911016 466.556776 
L 161.37061 467.754095 
L 170.932995 468.020447 
L 186.218492 467.030111 
L 209.00051 465.348972 
L 231.89829 462.014959 
" clip-path="url(#pc43664b118)" style="fill: none; stroke: #000000; stroke-width: 1.5"/>
    <path d="M 297.931034 595.862069 
L 297.931034 595.862069 
L 313.768141 597.816283 
L 329.257721 602.514852 
L 329.257721 602.514852 
L 343.800802 606.655765 
L 360.111099 608.206486 
L 374.990457 606.422989 
L 389.911575 601.172342 
L 405.459239 594.042137 
" clip-path="url(#pc43664b118)" style="fill: none; stroke: #000000; stroke-width: 1.5"/>
    <path d="M 509.235353 113.758215 
L 509.235353 113.758215 
L 521.37931 124.137931 
L 521.37931 124.137931 
L 537.729836 141.627433 
L 537.729836 141.627433 
L 551.620666 155.188446 
L 568.054931 166.626307 
L 584.589201 175.272265 
L 606.604523 183.788363 
" clip-path="url(#pc43664b118)" style="fill: none; stroke: #000000; stroke-width: 1.5"/>
    <path d="M 461.916731 117.850498 
L 471.724138 124.137931 
L 471.724138 124.137931 
L 489.078777 140.560064 
L 504.898918 158.420151 
L 504.898918 158.420151 
L 518.975169 172.071096 
L 533.137931 183.275979 
" clip-path="url(#pc43664b118)" style="fill: none; stroke: #000000; stroke-width: 1.5"/>
    <path d="M 102.999774 286.641057 
L 102.999774 286.641057 
L 124.137931 297.931034 
L 145.567019 308.675049 
L 167.434161 318.22684 
L 167.434161 318.22684 
L 182.208322 323.284833 
L 182.208322 323.284833 
L 182.208322 323.284833 
L 192.965718 324.76618 
L 204.151556 324.256725 
L 204.151556 324.256725 
L 221.424419 324.528101 
L 237.872862 327.925591 
L 253.743562 334.302938 
L 253.743562 334.302938 
L 264.006599 341.056254 
L 264.006599 341.056254 
L 271.023979 349.068113 
L 276.470073 357.953662 
L 276.470073 357.953662 
L 284.436997 370.516138 
L 284.436997 370.516138 
L 290.821573 377.073956 
L 299.342663 381.206614 
L 306.963744 381.77487 
L 312.906985 379.669422 
L 317.690674 375.0431 
L 321.890036 368.458271 
L 328.576182 359.256847 
L 336.157686 349.499874 
L 336.157686 349.499874 
L 344.489613 335.827405 
L 353.114944 323.948001 
L 362.204381 313.536073 
L 372.439479 304.339622 
L 386.73728 293.600865 
L 386.73728 293.600865 
L 402.057321 284.216992 
L 402.057321 284.216992 
L 413.652665 279.053746 
L 413.652665 279.053746 
L 423.602843 276.484091 
L 423.602843 276.484091 
L 432.540912 276.345224 
L 441.198367 277.868784 
L 452.725106 281.590738 
L 466.627769 288.387318 
L 480.480685 297.105686 
L 497.952258 310.025425 
L 497.952258 310.025425 
L 508.609072 320.007063 
L 508.609072 320.007063 
L 515.523333 329.271343 
L 519.179509 337.1355 
L 519.179509 337.1355 
L 519.608992 341.091558 
L 519.608992 341.091558 
L 518.12841 342.788208 
L 515.550262 342.832197 
L 512.091738 341.680346 
L 507.279655 338.808895 
" clip-path="url(#pc43664b118)" style="fill: none; stroke: #000000; stroke-width: 1.5"/>
    <path d="M 322.758621 571.034483 
L 346.740385 570.10775 
L 370.642285 568.212029 
L 394.323126 564.488732 
L 417.658027 559.08658 
" clip-path="url(#pc43664b118)" style="fill: none; stroke: #000000; stroke-width: 1.5"/>
    <path d="M 504.365965 272.655233 
L 520.990237 289.748858 
L 532.265732 301.538199 
L 540.099144 311.285416 
L 546.206897 322.758621 
L 546.206897 322.758621 
L 546.206897 322.758621 
L 550.181767 336.339117 
L 550.181767 336.339117 
L 550.482245 348.446113 
L 550.482245 348.446113 
L 549.164912 354.291948 
L 547.789018 358.17554 
L 546.231769 360.466197 
L 544.08988 361.597496 
L 540.666756 361.779116 
L 534.329317 360.805636 
L 534.329317 360.805636 
" clip-path="url(#pc43664b118)" style="fill: none; stroke: #000000; stroke-width: 1.5"/>
    <path d="M 435.633116 158.97053 
L 444.256852 157.700895 
L 453.077338 159.556031 
L 453.077338 159.556031 
L 462.363778 164.851978 
L 462.363778 164.851978 
L 471.724138 173.793103 
L 471.724138 173.793103 
L 486.923425 192.292453 
L 502.966451 209.796956 
L 502.966451 209.796956 
L 515.443217 219.296799 
L 529.012691 227.075114 
L 550.119778 238.437943 
" clip-path="url(#pc43664b118)" style="fill: none; stroke: #000000; stroke-width: 1.5"/>
    <path d="M 173.793103 297.931034 
L 173.793103 297.931034 
L 197.722503 299.528026 
L 221.598664 299.697563 
L 244.678114 298.257838 
L 244.678114 298.257838 
L 264.2879 296.021468 
L 284.603584 293.151515 
L 284.603584 293.151515 
L 299.670564 293.652115 
L 312.64559 298.070408 
L 327.033353 304.088529 
L 327.033353 304.088529 
L 337.605356 306.20687 
L 348.351664 305.130245 
L 358.906007 301.423831 
" clip-path="url(#pc43664b118)" style="fill: none; stroke: #000000; stroke-width: 1.5"/>
    <path d="M 180.462754 490.846466 
L 180.462841 490.846536 
L 180.462941 490.846617 
L 180.463058 490.84671 
L 180.463193 490.846818 
L 180.463349 490.846943 
L 180.463529 490.847088 
L 180.463738 490.847256 
L 180.46398 490.84745 
L 180.464261 490.847675 
L 180.464585 490.847935 
L 180.46496 490.848236 
L 180.465394 490.848585 
L 180.465897 490.848988 
L 180.466478 490.849455 
L 180.467152 490.849995 
L 180.467931 490.850621 
L 180.468834 490.851345 
L 180.469878 490.852183 
L 180.471087 490.853154 
L 180.472487 490.854278 
L 180.474107 490.855579 
L 180.475983 490.857086 
L 180.478156 490.85883 
L 180.480671 490.860851 
L 180.483583 490.863192 
L 180.486956 490.865903 
L 180.490862 490.869044 
L 180.495387 490.872685 
L 180.500627 490.876904 
L 180.506699 490.881796 
L 180.513734 490.887468 
L 180.521886 490.894049 
L 180.531335 490.901685 
L 180.542289 490.91055 
L 180.554989 490.920847 
L 180.569719 490.932815 
L 180.586805 490.946733 
L 180.606632 490.962933 
L 180.629647 490.981807 
L 180.656371 491.003817 
L 180.687415 491.02952 
L 180.723495 491.059577 
L 180.765453 491.094786 
L 180.81428 491.136113 
L 180.871149 491.184733 
L 180.937454 491.242089 
L 181.01487 491.309968 
L 181.105423 491.390603 
L 181.211605 491.486815 
L 181.336538 491.602216 
L 181.484231 491.741497 
L 181.659997 491.910857 
L 181.871148 492.118653 
L 182.128186 492.376433 
L 182.446932 492.700635 
L 182.852426 493.115559 
L 183.386386 493.658914 
L 183.720014 494.239263 
L 183.504606 494.768808 
L 182.595867 495.252985 
L 180.860372 495.701469 
L 178.298231 496.097657 
L 173.793103 496.551724 
L 173.793103 496.551724 
L 173.793103 496.551724 
L 173.793103 496.551724 
L 170.263602 497.607221 
L 168.848103 499.08312 
L 168.556352 501.305097 
L 169.932473 503.865115 
L 173.287957 506.175924 
L 179.2786 508.120143 
" clip-path="url(#pc43664b118)" style="fill: none; stroke: #000000; stroke-width: 1.5"/>
    <path d="M 187.473734 501.445739 
L 191.654758 502.509611 
L 197.801363 503.707348 
L 197.801363 503.707348 
L 212.040911 504.854578 
L 212.040911 504.854578 
L 229.453687 503.52209 
L 229.453687 503.52209 
L 246.733441 500.936784 
L 265.537365 499.579511 
L 265.537365 499.579511 
L 287.764907 501.192201 
L 308.68176 502.188222 
L 332.138222 499.164211 
L 355.614565 494.318279 
L 379.261686 490.488021 
L 403.022123 487.806581 
L 426.517986 484.131062 
L 449.888224 479.384379 
L 473.583829 476.015984 
L 497.473463 473.784497 
L 521.37931 471.724138 
" clip-path="url(#pc43664b118)" style="fill: none; stroke: #000000; stroke-width: 1.5"/>
    <path d="M 415.887771 191.383861 
L 422.568971 187.906438 
L 429.300179 186.2231 
L 435.791322 187.417339 
L 442.118356 191.821198 
L 446.896552 198.62069 
L 446.896552 198.62069 
L 456.288317 220.563586 
L 456.288317 220.563586 
L 463.476218 236.903561 
L 473.075333 251.909855 
" clip-path="url(#pc43664b118)" style="fill: none; stroke: #000000; stroke-width: 1.5"/>
    <path d="M 187.35896 347.800444 
L 198.62069 347.586207 
L 198.62069 347.586207 
L 198.62069 347.586207 
L 212.938336 346.85429 
L 227.085196 349.091696 
L 241.104956 354.482329 
L 241.104956 354.482329 
L 250.44776 361.169155 
L 257.777287 370.146701 
" clip-path="url(#pc43664b118)" style="fill: none; stroke: #000000; stroke-width: 1.5"/>
    <path d="M 167.225089 383.649937 
L 176.668635 393.946188 
L 176.668635 393.946188 
L 186.583386 408.046647 
L 198.62069 422.068966 
L 198.62069 422.068966 
L 198.62069 422.068966 
L 208.314919 429.19799 
L 219.075043 433.056794 
L 230.644715 434.148966 
L 244.355811 433.673596 
" clip-path="url(#pc43664b118)" style="fill: none; stroke: #000000; stroke-width: 1.5"/>
    <path d="M 472.556915 408.774446 
L 482.611074 405.997547 
L 489.324037 402.87957 
L 496.551724 397.241379 
L 496.551724 397.241379 
L 496.551724 397.241379 
L 500.039823 391.328021 
L 500.486241 386.238638 
L 498.300464 381.01432 
L 493.276653 375.795685 
L 485.897455 370.129307 
L 473.374367 359.049539 
L 462.35166 346.165652 
L 449.22989 326.505756 
L 449.22989 326.505756 
L 446.499673 319.331224 
L 446.499673 319.331224 
L 446.368659 313.642924 
L 448.517762 309.211076 
L 452.984386 305.807947 
L 459.273412 304.098181 
" clip-path="url(#pc43664b118)" style="fill: none; stroke: #000000; stroke-width: 1.5"/>
    <path d="M 250.967859 480.409974 
L 273.103448 471.724138 
L 273.103448 471.724138 
L 287.336394 466.727746 
L 301.352631 464.465518 
L 319.17403 464.028801 
L 339.245736 464.472191 
L 363.194239 464.128886 
L 387.149523 463.5404 
" clip-path="url(#pc43664b118)" style="fill: none; stroke: #000000; stroke-width: 1.5"/>
    <path d="M 300.462501 271.514555 
L 319.10465 267.53332 
L 319.10465 267.53332 
L 340.5093 264.896042 
L 357.945489 261.884036 
L 374.834468 256.513177 
L 374.834468 256.513177 
L 397.241379 248.275862 
L 397.241379 248.275862 
L 405.080907 247.155441 
L 412.627773 248.717655 
L 420.013862 252.615418 
L 428.722558 258.411092 
" clip-path="url(#pc43664b118)" style="fill: none; stroke: #000000; stroke-width: 1.5"/>
    <path d="M 456.108515 384.525247 
L 456.108515 384.525247 
L 446.896552 372.413793 
L 446.896552 372.413793 
L 432.030586 353.822759 
L 432.030586 353.822759 
L 424.608187 342.080529 
L 419.982837 328.825558 
L 419.182323 315.827942 
L 422.322111 305.316597 
L 428.067664 297.668197 
" clip-path="url(#pc43664b118)" style="fill: none; stroke: #000000; stroke-width: 1.5"/>
    <path d="M 267.918092 399.854954 
L 288.136847 405.297595 
L 307.034564 407.695216 
L 321.592478 407.888412 
L 333.719797 406.938078 
L 341.74959 405.675359 
L 347.087715 403.931666 
L 349.363928 402.23917 
L 350.011615 400.689929 
L 349.554591 399.322742 
L 347.586207 397.241379 
L 347.586207 397.241379 
L 347.586207 397.241379 
L 347.586207 397.241379 
L 342.77189 391.268211 
L 340.7922 384.95342 
L 340.157826 376.381812 
L 341.33559 364.833143 
" clip-path="url(#pc43664b118)" style="fill: none; stroke: #000000; stroke-width: 1.5"/>
    <path d="M 367.908216 396.898732 
L 367.926591 396.940792 
L 367.955971 397.00352 
L 367.967446 397.024925 
L 367.948908 396.982402 
L 367.92186 396.924867 
L 367.912403 396.907292 
L 367.926888 396.940685 
L 367.951729 396.993847 
L 367.962665 397.01467 
L 367.948428 396.981655 
L 367.925452 396.932476 
L 367.916276 396.914814 
L 367.927681 396.940959 
L 367.948818 396.985705 
L 367.959393 397.005183 
L 367.94919 396.979224 
L 367.930883 396.936467 
L 367.930883 396.936467 
L 367.847182 396.764735 
L 367.856331 396.793601 
L 367.944867 396.986431 
L 368.062176 397.225495 
L 368.062176 397.225495 
L 367.931926 396.938915 
L 367.850961 396.772583 
L 367.859238 396.799194 
L 367.94385 396.98349 
L 368.054485 397.208943 
L 368.054485 397.208943 
L 367.932963 396.941413 
L 367.855326 396.781696 
L 367.862682 396.805889 
L 367.942825 396.980459 
L 368.04603 397.190741 
L 368.04603 397.190741 
L 367.933847 396.943638 
L 367.860127 396.791768 
L 367.866625 396.813621 
L 367.941942 396.977657 
L 368.037245 397.171756 
L 368.037245 397.171756 
L 367.933775 396.943877 
L 367.864606 396.801312 
L 367.870893 396.822244 
L 367.941868 396.976776 
L 368.02943 397.154955 
L 368.02943 397.154955 
L 367.926075 396.929363 
L 367.862453 396.800456 
L 367.87313 396.832837 
L 367.94548 396.993194 
L 368.027054 397.163545 
L 368.020776 397.137144 
L 367.934187 396.946977 
L 367.873301 396.822333 
L 367.877827 396.840348 
L 367.938484 396.975242 
L 368.009997 397.125214 
L 368.011286 397.117376 
L 367.940068 396.960044 
L 367.883444 396.84317 
L 367.883219 396.849897 
L 367.93362 396.962396 
L 367.995696 397.093043 
L 368.001848 397.097588 
L 367.944097 396.969272 
L 367.892618 396.862291 
L 367.888871 396.860457 
L 367.93039 396.953505 
L 367.983887 397.06646 
L 367.992979 397.078921 
L 367.94667 396.975429 
L 367.900699 396.879338 
L 367.894472 396.871273 
L 367.928382 396.947613 
L 367.974237 397.044721 
L 367.984934 397.061941 
L 367.948142 396.979225 
L 367.907672 396.894195 
L 367.899817 396.881826 
L 367.927275 396.943956 
L 367.966409 397.027069 
L 367.977802 397.046856 
L 367.948811 396.981261 
L 367.913587 396.906912 
L 367.904782 396.891789 
L 367.926817 396.941938 
L 367.960095 397.012809 
L 367.971575 397.033656 
L 367.948912 396.982018 
L 367.918541 396.917633 
L 367.909312 396.900963 
L 367.926838 396.941087 
L 367.955055 397.001308 
L 367.966247 397.022182 
L 367.948717 396.981793 
L 367.922806 396.926413 
L 367.913669 396.909007 
L 367.927682 396.940625 
L 367.951902 396.991315 
L 367.963194 397.01098 
L 367.950921 396.978605 
L 367.931018 396.929464 
L 367.931018 396.929464 
L 367.849638 396.756831 
L 367.86354 396.786431 
L 367.959223 396.980542 
L 368.086475 397.21708 
L 368.086475 397.21708 
L 367.952377 396.8718 
L 367.90535 396.686947 
L 367.971791 396.697747 
L 368.141355 396.86044 
L 368.378742 397.012455 
L 368.378742 397.012455 
L 368.403106 396.22303 
L 368.796016 395.721676 
L 369.398606 395.461312 
L 370.144986 395.54675 
L 370.899116 395.98906 
L 372.413793 397.241379 
L 372.413793 397.241379 
L 372.413793 397.241379 
L 372.413793 397.241379 
L 382.925112 406.240196 
" clip-path="url(#pc43664b118)" style="fill: none; stroke: #000000; stroke-width: 1.5"/>
   </g>
   <g id="patch_3">
    <path d="M 80.559776 667.86296 
Q 80.104917 668.475101 80.650303 667.741131 
" clip-path="url(#pc43664b118)" style="fill: none; stroke: #000000; stroke-width: 1.5; stroke-linecap: round"/>
    <path d="M 84.641353 665.72333 
L 80.650303 667.741131 
L 81.430692 663.33761 
z
" clip-path="url(#pc43664b118)" style="stroke: #000000; stroke-width: 1.5; stroke-linecap: round"/>
   </g>
   <g id="patch_4">
    <path d="M 153.567404 670.598946 
Q 150.101927 672.210001 148.157201 673.114079 
" clip-path="url(#pc43664b118)" style="fill: none; stroke: #000000; stroke-width: 1.5; stroke-linecap: round"/>
    <path d="M 152.627523 673.241441 
L 148.157201 673.114079 
L 150.941283 669.614239 
z
" clip-path="url(#pc43664b118)" style="stroke: #000000; stroke-width: 1.5; stroke-linecap: round"/>
   </g>
   <g id="patch_5">
    <path d="M 183.473767 695.248756 
Q 179.924273 696.131622 178.002243 696.609689 
" clip-path="url(#pc43664b118)" style="fill: none; stroke: #000000; stroke-width: 1.5; stroke-linecap: round"/>
    <path d="M 182.366721 697.58505 
L 178.002243 696.609689 
L 181.401219 693.703323 
z
" clip-path="url(#pc43664b118)" style="stroke: #000000; stroke-width: 1.5; stroke-linecap: round"/>
   </g>
   <g id="patch_6">
    <path d="M 301.824444 710.509223 
Q 301.794836 710.515287 303.40818 710.18488 
" clip-path="url(#pc43664b118)" style="fill: none; stroke: #000000; stroke-width: 1.5; stroke-linecap: round"/>
    <path d="M 307.72811 711.341684 
L 303.40818 710.18488 
L 306.925582 707.423018 
z
" clip-path="url(#pc43664b118)" style="stroke: #000000; stroke-width: 1.5; stroke-linecap: round"/>
   </g>
   <g id="patch_7">
    <path d="M 503.467115 581.230235 
Q 507.029614 579.46377 509.089627 578.442312 
" clip-path="url(#pc43664b118)" style="fill: none; stroke: #000000; stroke-width: 1.5; stroke-linecap: round"/>
    <path d="M 504.617516 578.42744 
L 509.089627 578.442312 
L 506.394463 582.011078 
z
" clip-path="url(#pc43664b118)" style="stroke: #000000; stroke-width: 1.5; stroke-linecap: round"/>
   </g>
   <g id="patch_8">
    <path d="M 405.546729 671.392053 
Q 406.598288 670.174079 406.553889 670.225505 
" clip-path="url(#pc43664b118)" style="fill: none; stroke: #000000; stroke-width: 1.5; stroke-linecap: round"/>
    <path d="M 402.426028 671.946192 
L 406.553889 670.225505 
L 405.453722 674.560206 
z
" clip-path="url(#pc43664b118)" style="stroke: #000000; stroke-width: 1.5; stroke-linecap: round"/>
   </g>
   <g id="patch_9">
    <path d="M 453.042142 696.079381 
Q 452.762692 696.113826 454.147697 695.943112 
" clip-path="url(#pc43664b118)" style="fill: none; stroke: #000000; stroke-width: 1.5; stroke-linecap: round"/>
    <path d="M 458.362318 697.438761 
L 454.147697 695.943112 
L 457.872989 693.468805 
z
" clip-path="url(#pc43664b118)" style="stroke: #000000; stroke-width: 1.5; stroke-linecap: round"/>
   </g>
   <g id="patch_10">
    <path d="M 517.008528 680.158317 
Q 516.438191 679.662745 517.133777 680.267147 
" clip-path="url(#pc43664b118)" style="fill: none; stroke: #000000; stroke-width: 1.5; stroke-linecap: round"/>
    <path d="M 518.841382 684.400437 
L 517.133777 680.267147 
L 521.464972 681.381037 
z
" clip-path="url(#pc43664b118)" style="stroke: #000000; stroke-width: 1.5; stroke-linecap: round"/>
   </g>
   <g id="patch_11">
    <path d="M 527.374997 604.719752 
Q 529.420014 603.067984 530.160391 602.469979 
" clip-path="url(#pc43664b118)" style="fill: none; stroke: #000000; stroke-width: 1.5; stroke-linecap: round"/>
    <path d="M 525.791959 603.427476 
L 530.160391 602.469979 
L 528.305329 606.539223 
z
" clip-path="url(#pc43664b118)" style="stroke: #000000; stroke-width: 1.5; stroke-linecap: round"/>
   </g>
   <g id="patch_12">
    <path d="M 597.920411 671.137263 
Q 597.472317 669.103567 597.38508 668.707639 
" clip-path="url(#pc43664b118)" style="fill: none; stroke: #000000; stroke-width: 1.5; stroke-linecap: round"/>
    <path d="M 596.292622 673.044289 
L 597.38508 668.707639 
L 600.198926 672.183595 
z
" clip-path="url(#pc43664b118)" style="stroke: #000000; stroke-width: 1.5; stroke-linecap: round"/>
   </g>
   <g id="patch_13">
    <path d="M 614.484087 629.859248 
Q 613.289466 628.23379 613.088007 627.959675 
" clip-path="url(#pc43664b118)" style="fill: none; stroke: #000000; stroke-width: 1.5; stroke-linecap: round"/>
    <path d="M 613.845265 632.367232 
L 613.088007 627.959675 
L 617.068407 629.998403 
z
" clip-path="url(#pc43664b118)" style="stroke: #000000; stroke-width: 1.5; stroke-linecap: round"/>
   </g>
   <g id="patch_14">
    <path d="M 648.17376 687.948615 
Q 648.101659 686.840584 648.138455 687.406065 
" clip-path="url(#pc43664b118)" style="fill: none; stroke: #000000; stroke-width: 1.5; stroke-linecap: round"/>
    <path d="M 646.402411 691.527491 
L 648.138455 687.406065 
L 650.39397 691.267756 
z
" clip-path="url(#pc43664b118)" style="stroke: #000000; stroke-width: 1.5; stroke-linecap: round"/>
   </g>
   <g id="patch_15">
    <path d="M 702.35821 616.2072 
Q 702.058277 615.600876 702.501932 616.49774 
" clip-path="url(#pc43664b118)" style="fill: none; stroke: #000000; stroke-width: 1.5; stroke-linecap: round"/>
    <path d="M 702.482836 620.969835 
L 702.501932 616.49774 
L 706.06815 619.196274 
z
" clip-path="url(#pc43664b118)" style="stroke: #000000; stroke-width: 1.5; stroke-linecap: round"/>
   </g>
   <g id="patch_16">
    <path d="M 646.942187 600.885038 
Q 646.810858 600.614435 647.411759 601.852586 
" clip-path="url(#pc43664b118)" style="fill: none; stroke: #000000; stroke-width: 1.5; stroke-linecap: round"/>
    <path d="M 647.358935 606.32441 
L 647.411759 601.852586 
L 650.957524 604.577939 
z
" clip-path="url(#pc43664b118)" style="stroke: #000000; stroke-width: 1.5; stroke-linecap: round"/>
   </g>
   <g id="patch_17">
    <path d="M 364.430968 552.718096 
Q 368.381689 552.151484 370.672346 551.822958 
" clip-path="url(#pc43664b118)" style="fill: none; stroke: #000000; stroke-width: 1.5; stroke-linecap: round"/>
    <path d="M 366.428926 550.411084 
L 370.672346 551.822958 
L 366.996795 554.37057 
z
" clip-path="url(#pc43664b118)" style="stroke: #000000; stroke-width: 1.5; stroke-linecap: round"/>
   </g>
   <g id="patch_18">
    <path d="M 334.627004 429.277357 
Q 338.578772 429.759409 340.865829 430.038393 
" clip-path="url(#pc43664b118)" style="fill: none; stroke: #000000; stroke-width: 1.5; stroke-linecap: round"/>
    <path d="M 337.137433 427.568764 
L 340.865829 430.038393 
L 336.653088 431.539332 
z
" clip-path="url(#pc43664b118)" style="stroke: #000000; stroke-width: 1.5; stroke-linecap: round"/>
   </g>
   <g id="patch_19">
    <path d="M 355.004891 230.889716 
Q 357.287826 229.39044 358.168975 228.811762 
" clip-path="url(#pc43664b118)" style="fill: none; stroke: #000000; stroke-width: 1.5; stroke-linecap: round"/>
    <path d="M 353.727646 229.335787 
L 358.168975 228.811762 
L 355.923398 232.679239 
z
" clip-path="url(#pc43664b118)" style="stroke: #000000; stroke-width: 1.5; stroke-linecap: round"/>
   </g>
   <g id="patch_20">
    <path d="M 524.286051 195.895197 
Q 526.32279 197.625688 527.08149 198.270309 
" clip-path="url(#pc43664b118)" style="fill: none; stroke: #000000; stroke-width: 1.5; stroke-linecap: round"/>
    <path d="M 525.328165 194.156205 
L 527.08149 198.270309 
L 522.738212 197.204507 
z
" clip-path="url(#pc43664b118)" style="stroke: #000000; stroke-width: 1.5; stroke-linecap: round"/>
   </g>
   <g id="patch_21">
    <path d="M 661.610911 228.754462 
Q 664.142899 229.839871 665.133495 230.264518 
" clip-path="url(#pc43664b118)" style="fill: none; stroke: #000000; stroke-width: 1.5; stroke-linecap: round"/>
    <path d="M 662.245062 226.850289 
L 665.133495 230.264518 
L 660.669052 230.526726 
z
" clip-path="url(#pc43664b118)" style="stroke: #000000; stroke-width: 1.5; stroke-linecap: round"/>
   </g>
   <g id="patch_22">
    <path d="M 529.756776 162.089712 
Q 531.575849 163.581177 532.098052 164.009333 
" clip-path="url(#pc43664b118)" style="fill: none; stroke: #000000; stroke-width: 1.5; stroke-linecap: round"/>
    <path d="M 530.272905 159.926584 
L 532.098052 164.009333 
L 527.736764 163.019801 
z
" clip-path="url(#pc43664b118)" style="stroke: #000000; stroke-width: 1.5; stroke-linecap: round"/>
   </g>
   <g id="patch_23">
    <path d="M 590.195112 149.282549 
Q 591.87491 149.692769 591.925534 149.705131 
" clip-path="url(#pc43664b118)" style="fill: none; stroke: #000000; stroke-width: 1.5; stroke-linecap: round"/>
    <path d="M 588.514198 146.813283 
L 591.925534 149.705131 
L 587.565253 150.699091 
z
" clip-path="url(#pc43664b118)" style="stroke: #000000; stroke-width: 1.5; stroke-linecap: round"/>
   </g>
   <g id="patch_24">
    <path d="M 661.265318 145.434811 
Q 665.166416 145.822857 667.398698 146.044904 
" clip-path="url(#pc43664b118)" style="fill: none; stroke: #000000; stroke-width: 1.5; stroke-linecap: round"/>
    <path d="M 663.616306 143.658796 
L 667.398698 146.044904 
L 663.220376 147.639153 
z
" clip-path="url(#pc43664b118)" style="stroke: #000000; stroke-width: 1.5; stroke-linecap: round"/>
   </g>
   <g id="patch_25">
    <path d="M 652.496746 112.894624 
Q 653.956938 113.50442 653.869603 113.467948 
" clip-path="url(#pc43664b118)" style="fill: none; stroke: #000000; stroke-width: 1.5; stroke-linecap: round"/>
    <path d="M 650.949258 110.080976 
L 653.869603 113.467948 
L 649.407818 113.772041 
z
" clip-path="url(#pc43664b118)" style="stroke: #000000; stroke-width: 1.5; stroke-linecap: round"/>
   </g>
   <g id="patch_26">
    <path d="M 465.64813 40.330419 
Q 469.549981 41.158898 471.811353 41.639054 
" clip-path="url(#pc43664b118)" style="fill: none; stroke: #000000; stroke-width: 1.5; stroke-linecap: round"/>
    <path d="M 468.313981 38.851871 
L 471.811353 41.639054 
L 467.483184 42.764642 
z
" clip-path="url(#pc43664b118)" style="stroke: #000000; stroke-width: 1.5; stroke-linecap: round"/>
   </g>
   <g id="patch_27">
    <path d="M 635.253147 55.390577 
Q 639.231091 55.256061 641.532943 55.178223 
" clip-path="url(#pc43664b118)" style="fill: none; stroke: #000000; stroke-width: 1.5; stroke-linecap: round"/>
    <path d="M 637.467635 53.31455 
L 641.532943 55.178223 
L 637.60282 57.312265 
z
" clip-path="url(#pc43664b118)" style="stroke: #000000; stroke-width: 1.5; stroke-linecap: round"/>
   </g>
   <g id="patch_28">
    <path d="M 686.140675 24.666683 
Q 688.189945 24.473199 688.569589 24.437355 
" clip-path="url(#pc43664b118)" style="fill: none; stroke: #000000; stroke-width: 1.5; stroke-linecap: round"/>
    <path d="M 684.399305 22.822201 
L 688.569589 24.437355 
L 684.775295 26.80449 
z
" clip-path="url(#pc43664b118)" style="stroke: #000000; stroke-width: 1.5; stroke-linecap: round"/>
   </g>
   <g id="patch_29">
    <path d="M 569.567852 31.95083 
Q 573.321554 31.242444 575.427293 30.845057 
" clip-path="url(#pc43664b118)" style="fill: none; stroke: #000000; stroke-width: 1.5; stroke-linecap: round"/>
    <path d="M 571.125786 29.621519 
L 575.427293 30.845057 
L 571.867559 33.552139 
z
" clip-path="url(#pc43664b118)" style="stroke: #000000; stroke-width: 1.5; stroke-linecap: round"/>
   </g>
   <g id="patch_30">
    <path d="M 475.732364 4.512356 
Q 478.816052 4.885583 480.23484 5.057302 
" clip-path="url(#pc43664b118)" style="fill: none; stroke: #000000; stroke-width: 1.5; stroke-linecap: round"/>
    <path d="M 476.504131 2.591169 
L 480.23484 5.057302 
L 476.023508 6.56219 
z
" clip-path="url(#pc43664b118)" style="stroke: #000000; stroke-width: 1.5; stroke-linecap: round"/>
   </g>
   <g id="patch_31">
    <path d="M 269.128968 83.03971 
Q 269.196149 83.087803 267.899687 82.159689 
" clip-path="url(#pc43664b118)" style="fill: none; stroke: #000000; stroke-width: 1.5; stroke-linecap: round"/>
    <path d="M 265.811404 78.205062 
L 267.899687 82.159689 
L 263.483016 81.457539 
z
" clip-path="url(#pc43664b118)" style="stroke: #000000; stroke-width: 1.5; stroke-linecap: round"/>
   </g>
   <g id="patch_32">
    <path d="M 214.587683 122.50538 
Q 216.213932 123.130065 216.274656 123.15339 
" clip-path="url(#pc43664b118)" style="fill: none; stroke: #000000; stroke-width: 1.5; stroke-linecap: round"/>
    <path d="M 213.257824 119.852069 
L 216.274656 123.15339 
L 211.8235 123.586063 
z
" clip-path="url(#pc43664b118)" style="stroke: #000000; stroke-width: 1.5; stroke-linecap: round"/>
   </g>
   <g id="patch_33">
    <path d="M 155.819862 49.87902 
Q 156.284359 51.481615 156.281994 51.473454 
" clip-path="url(#pc43664b118)" style="fill: none; stroke: #000000; stroke-width: 1.5; stroke-linecap: round"/>
    <path d="M 157.089402 47.074807 
L 156.281994 51.473454 
L 153.247521 48.188339 
z
" clip-path="url(#pc43664b118)" style="stroke: #000000; stroke-width: 1.5; stroke-linecap: round"/>
   </g>
   <g id="patch_34">
    <path d="M 145.334555 114.480734 
Q 147.527836 116.904847 148.59595 118.085375 
" clip-path="url(#pc43664b118)" style="fill: none; stroke: #000000; stroke-width: 1.5; stroke-linecap: round"/>
    <path d="M 147.395334 113.777415 
L 148.59595 118.085375 
L 144.429212 116.461092 
z
" clip-path="url(#pc43664b118)" style="stroke: #000000; stroke-width: 1.5; stroke-linecap: round"/>
   </g>
   <g id="patch_35">
    <path d="M 84.325129 49.742812 
Q 85.385334 52.227905 85.787453 53.170459 
" clip-path="url(#pc43664b118)" style="fill: none; stroke: #000000; stroke-width: 1.5; stroke-linecap: round"/>
    <path d="M 86.057408 48.706479 
L 85.787453 53.170459 
L 82.378241 50.276107 
z
" clip-path="url(#pc43664b118)" style="stroke: #000000; stroke-width: 1.5; stroke-linecap: round"/>
   </g>
   <g id="patch_36">
    <path d="M 108.13449 136.931892 
Q 111.20071 139.469686 112.974988 140.938187 
" clip-path="url(#pc43664b118)" style="fill: none; stroke: #000000; stroke-width: 1.5; stroke-linecap: round"/>
    <path d="M 111.168729 136.847047 
L 112.974988 140.938187 
L 108.61832 139.92851 
z
" clip-path="url(#pc43664b118)" style="stroke: #000000; stroke-width: 1.5; stroke-linecap: round"/>
   </g>
   <g id="patch_37">
    <path d="M 48.378095 126.1421 
Q 49.378783 127.181478 49.216317 127.01273 
" clip-path="url(#pc43664b118)" style="fill: none; stroke: #000000; stroke-width: 1.5; stroke-linecap: round"/>
    <path d="M 47.882804 122.744036 
L 49.216317 127.01273 
L 45.001254 125.518324 
z
" clip-path="url(#pc43664b118)" style="stroke: #000000; stroke-width: 1.5; stroke-linecap: round"/>
   </g>
   <g id="patch_38">
    <path d="M 67.062712 177.07984 
Q 70.196515 179.531551 72.009462 180.949899 
" clip-path="url(#pc43664b118)" style="fill: none; stroke: #000000; stroke-width: 1.5; stroke-linecap: round"/>
    <path d="M 70.091395 176.909971 
L 72.009462 180.949899 
L 67.626679 180.060396 
z
" clip-path="url(#pc43664b118)" style="stroke: #000000; stroke-width: 1.5; stroke-linecap: round"/>
   </g>
   <g id="patch_39">
    <path d="M 37.676982 254.033458 
Q 40.407711 255.184439 41.593053 255.684052 
" clip-path="url(#pc43664b118)" style="fill: none; stroke: #000000; stroke-width: 1.5; stroke-linecap: round"/>
    <path d="M 38.683894 252.287467 
L 41.593053 255.684052 
L 37.130289 255.973428 
z
" clip-path="url(#pc43664b118)" style="stroke: #000000; stroke-width: 1.5; stroke-linecap: round"/>
   </g>
   <g id="patch_40">
    <path d="M 155.375664 403.366038 
Q 156.985118 405.786207 157.665907 406.809924 
" clip-path="url(#pc43664b118)" style="fill: none; stroke: #000000; stroke-width: 1.5; stroke-linecap: round"/>
    <path d="M 157.116279 402.371691 
L 157.665907 406.809924 
L 153.785544 404.586687 
z
" clip-path="url(#pc43664b118)" style="stroke: #000000; stroke-width: 1.5; stroke-linecap: round"/>
   </g>
   <g id="patch_41">
    <path d="M 233.040204 534.429218 
Q 236.992978 534.391735 239.268775 534.370154 
" clip-path="url(#pc43664b118)" style="fill: none; stroke: #000000; stroke-width: 1.5; stroke-linecap: round"/>
    <path d="M 235.249991 532.408173 
L 239.268775 534.370154 
L 235.28792 536.407993 
z
" clip-path="url(#pc43664b118)" style="stroke: #000000; stroke-width: 1.5; stroke-linecap: round"/>
   </g>
   <g id="patch_42">
    <path d="M 48.249761 428.82438 
Q 48.637923 432.200799 48.834549 433.911142 
" clip-path="url(#pc43664b118)" style="fill: none; stroke: #000000; stroke-width: 1.5; stroke-linecap: round"/>
    <path d="M 50.36462 429.708895 
L 48.834549 433.911142 
L 46.390794 430.165736 
z
" clip-path="url(#pc43664b118)" style="stroke: #000000; stroke-width: 1.5; stroke-linecap: round"/>
   </g>
   <g id="patch_43">
    <path d="M 50.744142 507.293048 
Q 53.080199 509.685094 54.244527 510.877327 
" clip-path="url(#pc43664b118)" style="fill: none; stroke: #000000; stroke-width: 1.5; stroke-linecap: round"/>
    <path d="M 52.880648 506.618238 
L 54.244527 510.877327 
L 50.018929 509.412976 
z
" clip-path="url(#pc43664b118)" style="stroke: #000000; stroke-width: 1.5; stroke-linecap: round"/>
   </g>
   <g id="patch_44">
    <path d="M 22.116961 507.393847 
Q 24.052427 509.488727 24.849834 510.351811 
" clip-path="url(#pc43664b118)" style="fill: none; stroke: #000000; stroke-width: 1.5; stroke-linecap: round"/>
    <path d="M 23.604404 506.056592 
L 24.849834 510.351811 
L 20.666401 508.771023 
z
" clip-path="url(#pc43664b118)" style="stroke: #000000; stroke-width: 1.5; stroke-linecap: round"/>
   </g>
   <g id="patch_45">
    <path d="M 109.205212 618.74837 
Q 113.145809 618.320754 115.419143 618.074061 
" clip-path="url(#pc43664b118)" style="fill: none; stroke: #000000; stroke-width: 1.5; stroke-linecap: round"/>
    <path d="M 111.226724 616.517263 
L 115.419143 618.074061 
L 111.658253 620.493918 
z
" clip-path="url(#pc43664b118)" style="stroke: #000000; stroke-width: 1.5; stroke-linecap: round"/>
   </g>
   <g id="patch_46">
    <path d="M 26.40243 665.241059 
Q 26.259104 665.216202 27.768162 665.477925 
" clip-path="url(#pc43664b118)" style="fill: none; stroke: #000000; stroke-width: 1.5; stroke-linecap: round"/>
    <path d="M 31.367559 668.132042 
L 27.768162 665.477925 
L 32.051094 664.190877 
z
" clip-path="url(#pc43664b118)" style="stroke: #000000; stroke-width: 1.5; stroke-linecap: round"/>
   </g>
   <g id="patch_47">
    <path d="M 247.654599 693.272494 
Q 247.514044 692.842654 247.894716 694.00681 
" clip-path="url(#pc43664b118)" style="fill: none; stroke: #000000; stroke-width: 1.5; stroke-linecap: round"/>
    <path d="M 247.236966 698.430311 
L 247.894716 694.00681 
L 251.038867 697.187111 
z
" clip-path="url(#pc43664b118)" style="stroke: #000000; stroke-width: 1.5; stroke-linecap: round"/>
   </g>
   <g id="patch_48">
    <path d="M 319.67919 696.826308 
Q 319.25452 697.087904 320.257732 696.469926 
" clip-path="url(#pc43664b118)" style="fill: none; stroke: #000000; stroke-width: 1.5; stroke-linecap: round"/>
    <path d="M 324.712384 696.074867 
L 320.257732 696.469926 
L 322.614476 692.669169 
z
" clip-path="url(#pc43664b118)" style="stroke: #000000; stroke-width: 1.5; stroke-linecap: round"/>
   </g>
   <g id="patch_49">
    <path d="M 674.802204 314.496034 
Q 678.507038 315.998793 680.657799 316.871187 
" clip-path="url(#pc43664b118)" style="fill: none; stroke: #000000; stroke-width: 1.5; stroke-linecap: round"/>
    <path d="M 677.702874 313.514341 
L 680.657799 316.871187 
L 676.199367 317.221019 
z
" clip-path="url(#pc43664b118)" style="stroke: #000000; stroke-width: 1.5; stroke-linecap: round"/>
   </g>
   <g id="patch_50">
    <path d="M 88.210835 683.574796 
Q 87.070923 684.552022 87.204236 684.437735 
" clip-path="url(#pc43664b118)" style="fill: none; stroke: #000000; stroke-width: 1.5; stroke-linecap: round"/>
    <path d="M 91.542759 683.352735 
L 87.204236 684.437735 
L 88.93935 680.315917 
z
" clip-path="url(#pc43664b118)" style="stroke: #000000; stroke-width: 1.5; stroke-linecap: round"/>
   </g>
   <g id="patch_51">
    <path d="M 202.226221 653.054445 
Q 202.544313 653.392938 201.713953 652.509321 
" clip-path="url(#pc43664b118)" style="fill: none; stroke: #000000; stroke-width: 1.5; stroke-linecap: round"/>
    <path d="M 200.432186 648.224805 
L 201.713953 652.509321 
L 197.51728 650.964025 
z
" clip-path="url(#pc43664b118)" style="stroke: #000000; stroke-width: 1.5; stroke-linecap: round"/>
   </g>
   <g id="patch_52">
    <path d="M 235.368629 635.204901 
Q 235.624171 635.312254 234.333558 634.770066 
" clip-path="url(#pc43664b118)" style="fill: none; stroke: #000000; stroke-width: 1.5; stroke-linecap: round"/>
    <path d="M 231.420385 631.376922 
L 234.333558 634.770066 
L 229.871139 635.064718 
z
" clip-path="url(#pc43664b118)" style="stroke: #000000; stroke-width: 1.5; stroke-linecap: round"/>
   </g>
   <g id="patch_53">
    <path d="M 298.46282 668.132465 
Q 299.281484 668.365407 298.487124 668.13938 
" clip-path="url(#pc43664b118)" style="fill: none; stroke: #000000; stroke-width: 1.5; stroke-linecap: round"/>
    <path d="M 295.187192 665.121029 
L 298.487124 668.13938 
L 294.092483 668.968315 
z
" clip-path="url(#pc43664b118)" style="stroke: #000000; stroke-width: 1.5; stroke-linecap: round"/>
   </g>
   <g id="patch_54">
    <path d="M 652.514445 385.21277 
Q 655.752355 382.888539 657.627872 381.542258 
" clip-path="url(#pc43664b118)" style="fill: none; stroke: #000000; stroke-width: 1.5; stroke-linecap: round"/>
    <path d="M 653.212102 382.250058 
L 657.627872 381.542258 
L 655.54465 385.499554 
z
" clip-path="url(#pc43664b118)" style="stroke: #000000; stroke-width: 1.5; stroke-linecap: round"/>
   </g>
   <g id="patch_55">
    <path d="M 386.682936 46.74647 
Q 388.470698 46.418269 388.608974 46.392884 
" clip-path="url(#pc43664b118)" style="fill: none; stroke: #000000; stroke-width: 1.5; stroke-linecap: round"/>
    <path d="M 384.313592 45.148015 
L 388.608974 46.392884 
L 385.035849 49.082267 
z
" clip-path="url(#pc43664b118)" style="stroke: #000000; stroke-width: 1.5; stroke-linecap: round"/>
   </g>
   <g id="patch_56">
    <path d="M 272.156163 624.59375 
Q 273.234424 625.129157 272.810615 624.918717 
" clip-path="url(#pc43664b118)" style="fill: none; stroke: #000000; stroke-width: 1.5; stroke-linecap: round"/>
    <path d="M 270.117446 621.348445 
L 272.810615 624.918717 
L 268.338497 624.931089 
z
" clip-path="url(#pc43664b118)" style="stroke: #000000; stroke-width: 1.5; stroke-linecap: round"/>
   </g>
   <g id="patch_57">
    <path d="M 470.735955 633.581747 
Q 470.986265 632.987927 470.585163 633.939475 
" clip-path="url(#pc43664b118)" style="fill: none; stroke: #000000; stroke-width: 1.5; stroke-linecap: round"/>
    <path d="M 467.188495 636.848537 
L 470.585163 633.939475 
L 470.874412 638.402247 
z
" clip-path="url(#pc43664b118)" style="stroke: #000000; stroke-width: 1.5; stroke-linecap: round"/>
   </g>
   <g id="patch_58">
    <path d="M 668.532776 459.646272 
Q 672.10492 457.846316 674.179399 456.801013 
" clip-path="url(#pc43664b118)" style="fill: none; stroke: #000000; stroke-width: 1.5; stroke-linecap: round"/>
    <path d="M 669.707285 456.814897 
L 674.179399 456.801013 
L 671.507238 460.387035 
z
" clip-path="url(#pc43664b118)" style="stroke: #000000; stroke-width: 1.5; stroke-linecap: round"/>
   </g>
   <g id="patch_59">
    <path d="M 523.281705 75.104854 
Q 527.04986 76.337065 529.224025 77.048031 
" clip-path="url(#pc43664b118)" style="fill: none; stroke: #000000; stroke-width: 1.5; stroke-linecap: round"/>
    <path d="M 526.043758 73.903845 
L 529.224025 77.048031 
L 524.800516 77.705733 
z
" clip-path="url(#pc43664b118)" style="stroke: #000000; stroke-width: 1.5; stroke-linecap: round"/>
   </g>
   <g id="patch_60">
    <path d="M 334.823651 191.439654 
Q 337.035458 189.625064 337.950717 188.874176 
" clip-path="url(#pc43664b118)" style="fill: none; stroke: #000000; stroke-width: 1.5; stroke-linecap: round"/>
    <path d="M 333.58973 189.865029 
L 337.950717 188.874176 
L 336.126808 192.957478 
z
" clip-path="url(#pc43664b118)" style="stroke: #000000; stroke-width: 1.5; stroke-linecap: round"/>
   </g>
   <g id="patch_61">
    <path d="M 118.979873 246.092616 
Q 122.718054 247.395042 124.872555 248.145695 
" clip-path="url(#pc43664b118)" style="fill: none; stroke: #000000; stroke-width: 1.5; stroke-linecap: round"/>
    <path d="M 121.753282 244.940989 
L 124.872555 248.145695 
L 120.437227 248.71829 
z
" clip-path="url(#pc43664b118)" style="stroke: #000000; stroke-width: 1.5; stroke-linecap: round"/>
   </g>
   <g id="patch_62">
    <path d="M 333.732595 626.038645 
Q 334.057281 626.107817 332.741727 625.827545 
" clip-path="url(#pc43664b118)" style="fill: none; stroke: #000000; stroke-width: 1.5; stroke-linecap: round"/>
    <path d="M 329.246263 623.03797 
L 332.741727 625.827545 
L 328.412788 626.950171 
z
" clip-path="url(#pc43664b118)" style="stroke: #000000; stroke-width: 1.5; stroke-linecap: round"/>
   </g>
   <g id="patch_63">
    <path d="M 559.133345 529.659475 
Q 562.638118 527.750594 564.670118 526.643861 
" clip-path="url(#pc43664b118)" style="fill: none; stroke: #000000; stroke-width: 1.5; stroke-linecap: round"/>
    <path d="M 560.200733 526.800713 
L 564.670118 526.643861 
L 562.113968 530.31348 
z
" clip-path="url(#pc43664b118)" style="stroke: #000000; stroke-width: 1.5; stroke-linecap: round"/>
   </g>
   <g id="patch_64">
    <path d="M 452.193433 417.799044 
Q 456.00885 417.914736 458.147986 417.979599 
" clip-path="url(#pc43664b118)" style="fill: none; stroke: #000000; stroke-width: 1.5; stroke-linecap: round"/>
    <path d="M 454.21044 415.859285 
L 458.147986 417.979599 
L 454.089207 419.857447 
z
" clip-path="url(#pc43664b118)" style="stroke: #000000; stroke-width: 1.5; stroke-linecap: round"/>
   </g>
   <g id="patch_65">
    <path d="M 589.923958 314.176985 
Q 592.620024 316.989382 594.155538 318.591151 
" clip-path="url(#pc43664b118)" style="fill: none; stroke: #000000; stroke-width: 1.5; stroke-linecap: round"/>
    <path d="M 592.831218 314.319596 
L 594.155538 318.591151 
L 589.943702 317.087674 
z
" clip-path="url(#pc43664b118)" style="stroke: #000000; stroke-width: 1.5; stroke-linecap: round"/>
   </g>
   <g id="patch_66">
    <path d="M 591.306801 252.535007 
Q 593.599108 253.938755 594.461222 254.466691 
" clip-path="url(#pc43664b118)" style="fill: none; stroke: #000000; stroke-width: 1.5; stroke-linecap: round"/>
    <path d="M 592.094479 250.672152 
L 594.461222 254.466691 
L 590.005545 254.083362 
z
" clip-path="url(#pc43664b118)" style="stroke: #000000; stroke-width: 1.5; stroke-linecap: round"/>
   </g>
   <g id="patch_67">
    <path d="M 318.293614 166.622483 
Q 321.305559 164.300733 322.989271 163.002848 
" clip-path="url(#pc43664b118)" style="fill: none; stroke: #000000; stroke-width: 1.5; stroke-linecap: round"/>
    <path d="M 318.600222 163.860898 
L 322.989271 163.002848 
L 321.042282 167.028917 
z
" clip-path="url(#pc43664b118)" style="stroke: #000000; stroke-width: 1.5; stroke-linecap: round"/>
   </g>
   <g id="patch_68">
    <path d="M 141.839295 452.810949 
Q 141.877605 452.87871 141.090535 451.486591 
" clip-path="url(#pc43664b118)" style="fill: none; stroke: #000000; stroke-width: 1.5; stroke-linecap: round"/>
    <path d="M 140.862895 447.020253 
L 141.090535 451.486591 
L 137.38088 448.9889 
z
" clip-path="url(#pc43664b118)" style="stroke: #000000; stroke-width: 1.5; stroke-linecap: round"/>
   </g>
   <g id="patch_69">
    <path d="M 345.795787 606.84544 
Q 347.881761 607.043767 348.298212 607.083361 
" clip-path="url(#pc43664b118)" style="fill: none; stroke: #000000; stroke-width: 1.5; stroke-linecap: round"/>
    <path d="M 344.505468 604.713742 
L 348.298212 607.083361 
L 344.12687 608.695785 
z
" clip-path="url(#pc43664b118)" style="stroke: #000000; stroke-width: 1.5; stroke-linecap: round"/>
   </g>
   <g id="patch_70">
    <path d="M 553.261685 156.330557 
Q 555.729333 158.047982 556.82049 158.807402 
" clip-path="url(#pc43664b118)" style="fill: none; stroke: #000000; stroke-width: 1.5; stroke-linecap: round"/>
    <path d="M 554.679856 154.880865 
L 556.82049 158.807402 
L 552.394881 158.163987 
z
" clip-path="url(#pc43664b118)" style="stroke: #000000; stroke-width: 1.5; stroke-linecap: round"/>
   </g>
   <g id="patch_71">
    <path d="M 490.40549 142.057852 
Q 493.033368 145.024585 494.549255 146.735939 
" clip-path="url(#pc43664b118)" style="fill: none; stroke: #000000; stroke-width: 1.5; stroke-linecap: round"/>
    <path d="M 493.394127 142.41556 
L 494.549255 146.735939 
L 490.399875 145.067814 
z
" clip-path="url(#pc43664b118)" style="stroke: #000000; stroke-width: 1.5; stroke-linecap: round"/>
   </g>
   <g id="patch_72">
    <path d="M 323.066968 366.838586 
Q 323.563022 366.155919 323.073243 366.829951 
" clip-path="url(#pc43664b118)" style="fill: none; stroke: #000000; stroke-width: 1.5; stroke-linecap: round"/>
    <path d="M 319.103933 368.890188 
L 323.073243 366.829951 
L 322.339847 371.241541 
z
" clip-path="url(#pc43664b118)" style="stroke: #000000; stroke-width: 1.5; stroke-linecap: round"/>
   </g>
   <g id="patch_73">
    <path d="M 348.733182 569.949696 
Q 352.71304 569.634044 355.021096 569.450986 
" clip-path="url(#pc43664b118)" style="fill: none; stroke: #000000; stroke-width: 1.5; stroke-linecap: round"/>
    <path d="M 350.875489 567.773504 
L 355.021096 569.450986 
L 351.191746 571.760982 
z
" clip-path="url(#pc43664b118)" style="stroke: #000000; stroke-width: 1.5; stroke-linecap: round"/>
   </g>
   <g id="patch_74">
    <path d="M 541.04006 313.052895 
Q 541.627108 314.155644 541.42609 313.778039 
" clip-path="url(#pc43664b118)" style="fill: none; stroke: #000000; stroke-width: 1.5; stroke-linecap: round"/>
    <path d="M 541.31187 309.307362 
L 541.42609 313.778039 
L 537.781016 311.187009 
z
" clip-path="url(#pc43664b118)" style="stroke: #000000; stroke-width: 1.5; stroke-linecap: round"/>
   </g>
   <g id="patch_75">
    <path d="M 488.276664 193.768968 
Q 490.935182 196.669671 492.460582 198.334031 
" clip-path="url(#pc43664b118)" style="fill: none; stroke: #000000; stroke-width: 1.5; stroke-linecap: round"/>
    <path d="M 491.232362 194.033859 
L 492.460582 198.334031 
L 488.283513 196.736504 
z
" clip-path="url(#pc43664b118)" style="stroke: #000000; stroke-width: 1.5; stroke-linecap: round"/>
   </g>
   <g id="patch_76">
    <path d="M 266.269373 295.741549 
Q 269.365454 295.304173 270.800972 295.10138 
" clip-path="url(#pc43664b118)" style="fill: none; stroke: #000000; stroke-width: 1.5; stroke-linecap: round"/>
    <path d="M 266.56054 293.680559 
L 270.800972 295.10138 
L 267.120056 297.641233 
z
" clip-path="url(#pc43664b118)" style="stroke: #000000; stroke-width: 1.5; stroke-linecap: round"/>
   </g>
   <g id="patch_77">
    <path d="M 173.793103 496.551724 
Q 172.910728 496.815598 173.635096 496.598976 
" clip-path="url(#pc43664b118)" style="fill: none; stroke: #000000; stroke-width: 1.5; stroke-linecap: round"/>
    <path d="M 178.040427 497.369078 
L 173.635096 496.598976 
L 176.894376 493.536773 
z
" clip-path="url(#pc43664b118)" style="stroke: #000000; stroke-width: 1.5; stroke-linecap: round"/>
   </g>
   <g id="patch_78">
    <path d="M 334.095539 498.760186 
Q 338.004538 497.953299 340.271111 497.485439 
" clip-path="url(#pc43664b118)" style="fill: none; stroke: #000000; stroke-width: 1.5; stroke-linecap: round"/>
    <path d="M 335.949386 496.335355 
L 340.271111 497.485439 
L 336.758009 500.252769 
z
" clip-path="url(#pc43664b118)" style="stroke: #000000; stroke-width: 1.5; stroke-linecap: round"/>
   </g>
   <g id="patch_79">
    <path d="M 447.684167 200.460871 
Q 449.24423 204.105798 450.144402 206.208958 
" clip-path="url(#pc43664b118)" style="fill: none; stroke: #000000; stroke-width: 1.5; stroke-linecap: round"/>
    <path d="M 450.409135 201.744665 
L 450.144402 206.208958 
L 446.731807 203.318596 
z
" clip-path="url(#pc43664b118)" style="stroke: #000000; stroke-width: 1.5; stroke-linecap: round"/>
   </g>
   <g id="patch_80">
    <path d="M 214.910469 347.166194 
Q 216.473489 347.413394 216.380046 347.398615 
" clip-path="url(#pc43664b118)" style="fill: none; stroke: #000000; stroke-width: 1.5; stroke-linecap: round"/>
    <path d="M 212.741581 344.798313 
L 216.380046 347.398615 
L 212.116725 348.749206 
z
" clip-path="url(#pc43664b118)" style="stroke: #000000; stroke-width: 1.5; stroke-linecap: round"/>
   </g>
   <g id="patch_81">
    <path d="M 187.885272 409.563221 
Q 189.593027 411.552594 190.208421 412.269469 
" clip-path="url(#pc43664b118)" style="fill: none; stroke: #000000; stroke-width: 1.5; stroke-linecap: round"/>
    <path d="M 189.12053 407.931671 
L 190.208421 412.269469 
L 186.085448 410.537104 
z
" clip-path="url(#pc43664b118)" style="stroke: #000000; stroke-width: 1.5; stroke-linecap: round"/>
   </g>
   <g id="patch_82">
    <path d="M 484.402389 368.806551 
Q 482.767403 367.360002 482.388441 367.024716 
" clip-path="url(#pc43664b118)" style="fill: none; stroke: #000000; stroke-width: 1.5; stroke-linecap: round"/>
    <path d="M 484.058972 371.173128 
L 482.388441 367.024716 
L 486.709489 368.177338 
z
" clip-path="url(#pc43664b118)" style="stroke: #000000; stroke-width: 1.5; stroke-linecap: round"/>
   </g>
   <g id="patch_83">
    <path d="M 303.349707 464.416579 
Q 305.805596 464.356397 306.584938 464.337299 
" clip-path="url(#pc43664b118)" style="fill: none; stroke: #000000; stroke-width: 1.5; stroke-linecap: round"/>
    <path d="M 302.537143 462.43589 
L 306.584938 464.337299 
L 302.635134 466.43469 
z
" clip-path="url(#pc43664b118)" style="stroke: #000000; stroke-width: 1.5; stroke-linecap: round"/>
   </g>
   <g id="patch_84">
    <path d="M 359.854571 261.27693 
Q 362.169726 260.540688 362.886697 260.312684 
" clip-path="url(#pc43664b118)" style="fill: none; stroke: #000000; stroke-width: 1.5; stroke-linecap: round"/>
    <path d="M 358.468695 259.618957 
L 362.886697 260.312684 
L 359.680914 263.430849 
z
" clip-path="url(#pc43664b118)" style="stroke: #000000; stroke-width: 1.5; stroke-linecap: round"/>
   </g>
   <g id="patch_85">
    <path d="M 430.963253 352.13424 
Q 430.174482 350.886405 430.281785 351.056157 
" clip-path="url(#pc43664b118)" style="fill: none; stroke: #000000; stroke-width: 1.5; stroke-linecap: round"/>
    <path d="M 430.728473 355.505929 
L 430.281785 351.056157 
L 434.109615 353.36867 
z
" clip-path="url(#pc43664b118)" style="stroke: #000000; stroke-width: 1.5; stroke-linecap: round"/>
   </g>
   <g id="patch_86">
    <path d="M 323.585077 407.732266 
Q 324.624708 407.650797 323.992414 407.700346 
" clip-path="url(#pc43664b118)" style="fill: none; stroke: #000000; stroke-width: 1.5; stroke-linecap: round"/>
    <path d="M 319.848392 406.018952 
L 323.992414 407.700346 
L 320.160887 410.006727 
z
" clip-path="url(#pc43664b118)" style="stroke: #000000; stroke-width: 1.5; stroke-linecap: round"/>
   </g>
   <g id="patch_87">
    <path d="M 370.899116 395.98906 
Q 371.277785 396.30214 370.363958 395.546598 
" clip-path="url(#pc43664b118)" style="fill: none; stroke: #000000; stroke-width: 1.5; stroke-linecap: round"/>
    <path d="M 368.555581 391.456393 
L 370.363958 395.546598 
L 366.006768 394.539177 
z
" clip-path="url(#pc43664b118)" style="stroke: #000000; stroke-width: 1.5; stroke-linecap: round"/>
   </g>
   <g id="patch_88">
    <path d="M 0 720 
L 0 720 
L 0 0 
L 720 0 
L 720 720 
L 0 720 
z
" style="fill: none; stroke: #000000; stroke-width: 0.8; stroke-linejoin: miter; stroke-linecap: square"/>
   </g>
  </g>
 </g>
 <defs>
  <clipPath id="pc43664b118">
   <path d="M 0 720 
L 0 720 
L 0 0 
L 720 0 
L 720 720 
z
"/>
  </clipPath>
 </defs>
</svg>
